<svg xmlns="http://www.w3.org/2000/svg" width="900" height="460" viewBox="0 0 900 460" role="img" aria-labelledby="title desc">
<title>Qwen3.6 MTP fair decode throughput</title>
<desc>Grouped box-and-whisker plot comparing MTPLX 0.3.7 (default), AX Engine v5.2.2 (MTP-only), AX Engine v5.2.2 (MTP + n-gram stacking) across 27B, 35B-A3B.</desc>
<rect width="100%" height="100%" fill="#f8fafc"/>
<text x="24" y="24" font-family="Inter,Segoe UI,Arial,sans-serif" font-size="16" font-weight="700" fill="#111827">Qwen3.6 MTP fair decode throughput</text>
<text x="24" y="46" font-family="Inter,Segoe UI,Arial,sans-serif" font-size="11" fill="#4b5563">All suites combined per model | box=IQR | whiskers=min/max | dots=runs</text>
<text x="24" y="62" font-family="Inter,Segoe UI,Arial,sans-serif" font-size="10" fill="#6b7280">Vendor-default config per row · MTPLX 0.3.7 · AX Engine v5.2.2</text>
<rect x="807" y="13" width="59" height="22" rx="11" fill="#eef2ff" stroke="#c7d2fe"/>
<text x="836.5" y="28" text-anchor="middle" font-family="Inter,Segoe UI,Arial,sans-serif" font-size="10" font-weight="700" fill="#3730a3">tok/s</text>
<text x="866" y="52" text-anchor="end" font-family="Inter,Segoe UI,Arial,sans-serif" font-size="10" font-weight="700" fill="#374151">Higher is better</text>
<rect x="64" y="86" width="676" height="268" rx="6" fill="#ffffff" stroke="#dbe3ef"/>
<line x1="64" y1="354.0" x2="740" y2="354.0" stroke="#e5e7eb" stroke-width="1"/>
<text x="56" y="357.0" text-anchor="end" font-family="Inter,Segoe UI,Arial,sans-serif" font-size="11" fill="#6b7280">0.0</text>
<line x1="64" y1="287.0" x2="740" y2="287.0" stroke="#e5e7eb" stroke-width="1"/>
<text x="56" y="290.0" text-anchor="end" font-family="Inter,Segoe UI,Arial,sans-serif" font-size="11" fill="#6b7280">62</text>
<line x1="64" y1="220.0" x2="740" y2="220.0" stroke="#e5e7eb" stroke-width="1"/>
<text x="56" y="223.0" text-anchor="end" font-family="Inter,Segoe UI,Arial,sans-serif" font-size="11" fill="#6b7280">125</text>
<line x1="64" y1="153.0" x2="740" y2="153.0" stroke="#e5e7eb" stroke-width="1"/>
<text x="56" y="156.0" text-anchor="end" font-family="Inter,Segoe UI,Arial,sans-serif" font-size="11" fill="#6b7280">188</text>
<line x1="64" y1="86.0" x2="740" y2="86.0" stroke="#e5e7eb" stroke-width="1"/>
<text x="56" y="89.0" text-anchor="end" font-family="Inter,Segoe UI,Arial,sans-serif" font-size="11" fill="#6b7280">250</text>
<line x1="64" y1="157.6" x2="740" y2="157.6" stroke="#dc2626" stroke-width="1.2" stroke-dasharray="1 4" stroke-linecap="round"/>
<text x="748" y="152.6" text-anchor="start" font-family="Inter,Segoe UI,Arial,sans-serif" font-size="11" font-weight="700" fill="#dc2626" data-label="highest median">highest: 183</text>
<text x="233.0" y="398" text-anchor="middle" font-family="Inter,Segoe UI,Arial,sans-serif" font-size="11" font-weight="700" fill="#111827">27B</text>
<circle cx="95.8" cy="289.7" r="1.45" fill="#14532d" fill-opacity="0.46"/>
<circle cx="98.8" cy="290.0" r="1.45" fill="#14532d" fill-opacity="0.46"/>
<circle cx="101.9" cy="290.2" r="1.45" fill="#14532d" fill-opacity="0.46"/>
<circle cx="104.9" cy="290.2" r="1.45" fill="#14532d" fill-opacity="0.46"/>
<circle cx="108.0" cy="290.3" r="1.45" fill="#14532d" fill-opacity="0.46"/>
<circle cx="111.1" cy="289.7" r="1.45" fill="#14532d" fill-opacity="0.46"/>
<circle cx="114.1" cy="290.2" r="1.45" fill="#14532d" fill-opacity="0.46"/>
<circle cx="117.2" cy="289.7" r="1.45" fill="#14532d" fill-opacity="0.46"/>
<circle cx="120.2" cy="290.7" r="1.45" fill="#14532d" fill-opacity="0.46"/>
<circle cx="95.8" cy="290.9" r="1.45" fill="#14532d" fill-opacity="0.46"/>
<circle cx="98.8" cy="290.4" r="1.45" fill="#14532d" fill-opacity="0.46"/>
<circle cx="101.9" cy="290.2" r="1.45" fill="#14532d" fill-opacity="0.46"/>
<circle cx="104.9" cy="290.1" r="1.45" fill="#14532d" fill-opacity="0.46"/>
<circle cx="108.0" cy="290.1" r="1.45" fill="#14532d" fill-opacity="0.46"/>
<circle cx="111.1" cy="290.1" r="1.45" fill="#14532d" fill-opacity="0.46"/>
<circle cx="114.1" cy="289.9" r="1.45" fill="#14532d" fill-opacity="0.46"/>
<circle cx="117.2" cy="289.8" r="1.45" fill="#14532d" fill-opacity="0.46"/>
<circle cx="120.2" cy="289.8" r="1.45" fill="#14532d" fill-opacity="0.46"/>
<circle cx="95.8" cy="289.8" r="1.45" fill="#14532d" fill-opacity="0.46"/>
<circle cx="98.8" cy="289.8" r="1.45" fill="#14532d" fill-opacity="0.46"/>
<circle cx="101.9" cy="290.3" r="1.45" fill="#14532d" fill-opacity="0.46"/>
<circle cx="104.9" cy="290.3" r="1.45" fill="#14532d" fill-opacity="0.46"/>
<circle cx="108.0" cy="290.2" r="1.45" fill="#14532d" fill-opacity="0.46"/>
<circle cx="111.1" cy="290.2" r="1.45" fill="#14532d" fill-opacity="0.46"/>
<circle cx="114.1" cy="290.3" r="1.45" fill="#14532d" fill-opacity="0.46"/>
<circle cx="117.2" cy="291.0" r="1.45" fill="#14532d" fill-opacity="0.46"/>
<circle cx="120.2" cy="291.0" r="1.45" fill="#14532d" fill-opacity="0.46"/>
<circle cx="95.8" cy="290.6" r="1.45" fill="#14532d" fill-opacity="0.46"/>
<circle cx="98.8" cy="290.7" r="1.45" fill="#14532d" fill-opacity="0.46"/>
<circle cx="101.9" cy="290.8" r="1.45" fill="#14532d" fill-opacity="0.46"/>
<circle cx="104.9" cy="290.5" r="1.45" fill="#14532d" fill-opacity="0.46"/>
<circle cx="108.0" cy="290.6" r="1.45" fill="#14532d" fill-opacity="0.46"/>
<circle cx="111.1" cy="290.5" r="1.45" fill="#14532d" fill-opacity="0.46"/>
<circle cx="114.1" cy="290.8" r="1.45" fill="#14532d" fill-opacity="0.46"/>
<circle cx="117.2" cy="290.5" r="1.45" fill="#14532d" fill-opacity="0.46"/>
<circle cx="120.2" cy="290.1" r="1.45" fill="#14532d" fill-opacity="0.46"/>
<circle cx="95.8" cy="290.1" r="1.45" fill="#14532d" fill-opacity="0.46"/>
<circle cx="98.8" cy="290.0" r="1.45" fill="#14532d" fill-opacity="0.46"/>
<circle cx="101.9" cy="290.1" r="1.45" fill="#14532d" fill-opacity="0.46"/>
<circle cx="104.9" cy="290.0" r="1.45" fill="#14532d" fill-opacity="0.46"/>
<circle cx="108.0" cy="299.1" r="1.45" fill="#14532d" fill-opacity="0.46"/>
<circle cx="111.1" cy="297.7" r="1.45" fill="#14532d" fill-opacity="0.46"/>
<circle cx="114.1" cy="298.1" r="1.45" fill="#14532d" fill-opacity="0.46"/>
<circle cx="117.2" cy="298.1" r="1.45" fill="#14532d" fill-opacity="0.46"/>
<circle cx="120.2" cy="297.6" r="1.45" fill="#14532d" fill-opacity="0.46"/>
<circle cx="95.8" cy="295.7" r="1.45" fill="#14532d" fill-opacity="0.46"/>
<circle cx="98.8" cy="296.8" r="1.45" fill="#14532d" fill-opacity="0.46"/>
<circle cx="101.9" cy="295.4" r="1.45" fill="#14532d" fill-opacity="0.46"/>
<circle cx="104.9" cy="296.5" r="1.45" fill="#14532d" fill-opacity="0.46"/>
<circle cx="108.0" cy="295.3" r="1.45" fill="#14532d" fill-opacity="0.46"/>
<circle cx="111.1" cy="294.1" r="1.45" fill="#14532d" fill-opacity="0.46"/>
<circle cx="114.1" cy="295.3" r="1.45" fill="#14532d" fill-opacity="0.46"/>
<circle cx="117.2" cy="293.3" r="1.45" fill="#14532d" fill-opacity="0.46"/>
<circle cx="120.2" cy="292.4" r="1.45" fill="#14532d" fill-opacity="0.46"/>
<circle cx="95.8" cy="294.3" r="1.45" fill="#14532d" fill-opacity="0.46"/>
<line x1="108.0" y1="289.7" x2="108.0" y2="299.1" stroke="#14532d" stroke-opacity="0.86" stroke-width="1.8"/>
<line x1="95.8" y1="289.7" x2="120.2" y2="289.7" stroke="#14532d" stroke-opacity="0.86" stroke-width="1.8"/>
<line x1="95.8" y1="299.1" x2="120.2" y2="299.1" stroke="#14532d" stroke-opacity="0.86" stroke-width="1.8"/>
<rect x="91.0" y="290.1" width="34.0" height="2.8" rx="2" fill="#14532d" fill-opacity="0.18" stroke="#14532d" stroke-opacity="0.9" stroke-width="1.8"/>
<line x1="91.0" y1="290.4" x2="125.0" y2="290.4" stroke="#14532d" stroke-opacity="0.96" stroke-width="2.6"/>
<text x="131.0" y="294.4" text-anchor="start" font-family="Inter,Segoe UI,Arial,sans-serif" font-size="11" font-weight="700" fill="#111827" stroke="#ffffff" stroke-width="3" paint-order="stroke">59.3</text>
<circle cx="220.8" cy="288.6" r="1.45" fill="#f97316" fill-opacity="0.46"/>
<circle cx="223.8" cy="292.1" r="1.45" fill="#f97316" fill-opacity="0.46"/>
<circle cx="226.9" cy="287.8" r="1.45" fill="#f97316" fill-opacity="0.46"/>
<circle cx="229.9" cy="287.0" r="1.45" fill="#f97316" fill-opacity="0.46"/>
<circle cx="233.0" cy="295.4" r="1.45" fill="#f97316" fill-opacity="0.46"/>
<circle cx="236.1" cy="298.0" r="1.45" fill="#f97316" fill-opacity="0.46"/>
<circle cx="239.1" cy="292.8" r="1.45" fill="#f97316" fill-opacity="0.46"/>
<circle cx="242.2" cy="291.1" r="1.45" fill="#f97316" fill-opacity="0.46"/>
<circle cx="245.2" cy="303.3" r="1.45" fill="#f97316" fill-opacity="0.46"/>
<circle cx="220.8" cy="303.1" r="1.45" fill="#f97316" fill-opacity="0.46"/>
<circle cx="223.8" cy="302.2" r="1.45" fill="#f97316" fill-opacity="0.46"/>
<line x1="233.0" y1="287.0" x2="233.0" y2="303.3" stroke="#f97316" stroke-opacity="0.86" stroke-width="1.8"/>
<line x1="220.8" y1="287.0" x2="245.2" y2="287.0" stroke="#f97316" stroke-opacity="0.86" stroke-width="1.8"/>
<line x1="220.8" y1="303.3" x2="245.2" y2="303.3" stroke="#f97316" stroke-opacity="0.86" stroke-width="1.8"/>
<rect x="216.0" y="289.9" width="34.0" height="10.2" rx="2" fill="#f97316" fill-opacity="0.18" stroke="#f97316" stroke-opacity="0.9" stroke-width="1.8"/>
<line x1="216.0" y1="292.8" x2="250.0" y2="292.8" stroke="#f97316" stroke-opacity="0.96" stroke-width="2.6"/>
<text x="256.0" y="296.8" text-anchor="start" font-family="Inter,Segoe UI,Arial,sans-serif" font-size="11" font-weight="700" fill="#111827" stroke="#ffffff" stroke-width="3" paint-order="stroke">57.1</text>
<circle cx="345.8" cy="288.1" r="1.45" fill="#eab308" fill-opacity="0.46"/>
<circle cx="348.8" cy="291.9" r="1.45" fill="#eab308" fill-opacity="0.46"/>
<circle cx="351.9" cy="287.6" r="1.45" fill="#eab308" fill-opacity="0.46"/>
<circle cx="354.9" cy="287.0" r="1.45" fill="#eab308" fill-opacity="0.46"/>
<circle cx="358.0" cy="296.8" r="1.45" fill="#eab308" fill-opacity="0.46"/>
<circle cx="361.1" cy="296.7" r="1.45" fill="#eab308" fill-opacity="0.46"/>
<circle cx="364.1" cy="296.8" r="1.45" fill="#eab308" fill-opacity="0.46"/>
<circle cx="367.2" cy="291.6" r="1.45" fill="#eab308" fill-opacity="0.46"/>
<circle cx="370.2" cy="303.9" r="1.45" fill="#eab308" fill-opacity="0.46"/>
<circle cx="345.8" cy="303.5" r="1.45" fill="#eab308" fill-opacity="0.46"/>
<circle cx="348.8" cy="301.5" r="1.45" fill="#eab308" fill-opacity="0.46"/>
<line x1="358.0" y1="287.0" x2="358.0" y2="303.9" stroke="#eab308" stroke-opacity="0.86" stroke-width="1.8"/>
<line x1="345.8" y1="287.0" x2="370.2" y2="287.0" stroke="#eab308" stroke-opacity="0.86" stroke-width="1.8"/>
<line x1="345.8" y1="303.9" x2="370.2" y2="303.9" stroke="#eab308" stroke-opacity="0.86" stroke-width="1.8"/>
<rect x="341.0" y="289.9" width="34.0" height="9.3" rx="2" fill="#eab308" fill-opacity="0.18" stroke="#eab308" stroke-opacity="0.9" stroke-width="1.8"/>
<line x1="341.0" y1="296.7" x2="375.0" y2="296.7" stroke="#eab308" stroke-opacity="0.96" stroke-width="2.6"/>
<text x="381.0" y="300.7" text-anchor="start" font-family="Inter,Segoe UI,Arial,sans-serif" font-size="11" font-weight="700" fill="#111827" stroke="#ffffff" stroke-width="3" paint-order="stroke">53.5</text>
<text x="571.0" y="398" text-anchor="middle" font-family="Inter,Segoe UI,Arial,sans-serif" font-size="11" font-weight="700" fill="#111827">35B-A3B</text>
<circle cx="433.8" cy="241.4" r="1.45" fill="#14532d" fill-opacity="0.46"/>
<circle cx="436.8" cy="241.2" r="1.45" fill="#14532d" fill-opacity="0.46"/>
<circle cx="439.9" cy="241.5" r="1.45" fill="#14532d" fill-opacity="0.46"/>
<circle cx="442.9" cy="241.4" r="1.45" fill="#14532d" fill-opacity="0.46"/>
<circle cx="446.0" cy="241.9" r="1.45" fill="#14532d" fill-opacity="0.46"/>
<circle cx="449.1" cy="234.2" r="1.45" fill="#14532d" fill-opacity="0.46"/>
<circle cx="452.1" cy="230.7" r="1.45" fill="#14532d" fill-opacity="0.46"/>
<circle cx="455.2" cy="233.2" r="1.45" fill="#14532d" fill-opacity="0.46"/>
<circle cx="458.2" cy="234.3" r="1.45" fill="#14532d" fill-opacity="0.46"/>
<circle cx="433.8" cy="232.0" r="1.45" fill="#14532d" fill-opacity="0.46"/>
<circle cx="436.8" cy="246.5" r="1.45" fill="#14532d" fill-opacity="0.46"/>
<circle cx="439.9" cy="246.0" r="1.45" fill="#14532d" fill-opacity="0.46"/>
<circle cx="442.9" cy="245.5" r="1.45" fill="#14532d" fill-opacity="0.46"/>
<circle cx="446.0" cy="245.9" r="1.45" fill="#14532d" fill-opacity="0.46"/>
<circle cx="449.1" cy="248.9" r="1.45" fill="#14532d" fill-opacity="0.46"/>
<circle cx="452.1" cy="240.2" r="1.45" fill="#14532d" fill-opacity="0.46"/>
<circle cx="455.2" cy="242.5" r="1.45" fill="#14532d" fill-opacity="0.46"/>
<circle cx="458.2" cy="240.0" r="1.45" fill="#14532d" fill-opacity="0.46"/>
<circle cx="433.8" cy="240.8" r="1.45" fill="#14532d" fill-opacity="0.46"/>
<circle cx="436.8" cy="240.8" r="1.45" fill="#14532d" fill-opacity="0.46"/>
<circle cx="439.9" cy="230.9" r="1.45" fill="#14532d" fill-opacity="0.46"/>
<circle cx="442.9" cy="231.7" r="1.45" fill="#14532d" fill-opacity="0.46"/>
<circle cx="446.0" cy="233.8" r="1.45" fill="#14532d" fill-opacity="0.46"/>
<circle cx="449.1" cy="229.6" r="1.45" fill="#14532d" fill-opacity="0.46"/>
<circle cx="452.1" cy="231.8" r="1.45" fill="#14532d" fill-opacity="0.46"/>
<circle cx="455.2" cy="239.8" r="1.45" fill="#14532d" fill-opacity="0.46"/>
<circle cx="458.2" cy="239.5" r="1.45" fill="#14532d" fill-opacity="0.46"/>
<circle cx="433.8" cy="237.6" r="1.45" fill="#14532d" fill-opacity="0.46"/>
<circle cx="436.8" cy="240.1" r="1.45" fill="#14532d" fill-opacity="0.46"/>
<circle cx="439.9" cy="240.3" r="1.45" fill="#14532d" fill-opacity="0.46"/>
<circle cx="442.9" cy="240.0" r="1.45" fill="#14532d" fill-opacity="0.46"/>
<circle cx="446.0" cy="241.0" r="1.45" fill="#14532d" fill-opacity="0.46"/>
<circle cx="449.1" cy="242.3" r="1.45" fill="#14532d" fill-opacity="0.46"/>
<circle cx="452.1" cy="239.9" r="1.45" fill="#14532d" fill-opacity="0.46"/>
<circle cx="455.2" cy="245.0" r="1.45" fill="#14532d" fill-opacity="0.46"/>
<circle cx="458.2" cy="243.3" r="1.45" fill="#14532d" fill-opacity="0.46"/>
<circle cx="433.8" cy="242.4" r="1.45" fill="#14532d" fill-opacity="0.46"/>
<circle cx="436.8" cy="243.4" r="1.45" fill="#14532d" fill-opacity="0.46"/>
<circle cx="439.9" cy="242.5" r="1.45" fill="#14532d" fill-opacity="0.46"/>
<circle cx="442.9" cy="242.1" r="1.45" fill="#14532d" fill-opacity="0.46"/>
<circle cx="446.0" cy="242.0" r="1.45" fill="#14532d" fill-opacity="0.46"/>
<circle cx="449.1" cy="247.8" r="1.45" fill="#14532d" fill-opacity="0.46"/>
<circle cx="452.1" cy="244.2" r="1.45" fill="#14532d" fill-opacity="0.46"/>
<circle cx="455.2" cy="245.0" r="1.45" fill="#14532d" fill-opacity="0.46"/>
<circle cx="458.2" cy="245.8" r="1.45" fill="#14532d" fill-opacity="0.46"/>
<circle cx="433.8" cy="242.9" r="1.45" fill="#14532d" fill-opacity="0.46"/>
<circle cx="436.8" cy="242.9" r="1.45" fill="#14532d" fill-opacity="0.46"/>
<circle cx="439.9" cy="242.8" r="1.45" fill="#14532d" fill-opacity="0.46"/>
<circle cx="442.9" cy="244.6" r="1.45" fill="#14532d" fill-opacity="0.46"/>
<circle cx="446.0" cy="241.8" r="1.45" fill="#14532d" fill-opacity="0.46"/>
<circle cx="449.1" cy="244.6" r="1.45" fill="#14532d" fill-opacity="0.46"/>
<circle cx="452.1" cy="244.1" r="1.45" fill="#14532d" fill-opacity="0.46"/>
<circle cx="455.2" cy="243.3" r="1.45" fill="#14532d" fill-opacity="0.46"/>
<circle cx="458.2" cy="244.8" r="1.45" fill="#14532d" fill-opacity="0.46"/>
<circle cx="433.8" cy="245.8" r="1.45" fill="#14532d" fill-opacity="0.46"/>
<line x1="446.0" y1="229.6" x2="446.0" y2="248.9" stroke="#14532d" stroke-opacity="0.86" stroke-width="1.8"/>
<line x1="433.8" y1="229.6" x2="458.2" y2="229.6" stroke="#14532d" stroke-opacity="0.86" stroke-width="1.8"/>
<line x1="433.8" y1="248.9" x2="458.2" y2="248.9" stroke="#14532d" stroke-opacity="0.86" stroke-width="1.8"/>
<rect x="429.0" y="240.0" width="34.0" height="4.2" rx="2" fill="#14532d" fill-opacity="0.18" stroke="#14532d" stroke-opacity="0.9" stroke-width="1.8"/>
<line x1="429.0" y1="241.9" x2="463.0" y2="241.9" stroke="#14532d" stroke-opacity="0.96" stroke-width="2.6"/>
<text x="469.0" y="245.9" text-anchor="start" font-family="Inter,Segoe UI,Arial,sans-serif" font-size="11" font-weight="700" fill="#111827" stroke="#ffffff" stroke-width="3" paint-order="stroke">105</text>
<circle cx="558.8" cy="159.7" r="1.45" fill="#f97316" fill-opacity="0.46"/>
<circle cx="561.8" cy="160.3" r="1.45" fill="#f97316" fill-opacity="0.46"/>
<circle cx="564.9" cy="160.7" r="1.45" fill="#f97316" fill-opacity="0.46"/>
<circle cx="567.9" cy="159.6" r="1.45" fill="#f97316" fill-opacity="0.46"/>
<circle cx="571.0" cy="162.2" r="1.45" fill="#f97316" fill-opacity="0.46"/>
<circle cx="574.1" cy="162.2" r="1.45" fill="#f97316" fill-opacity="0.46"/>
<circle cx="577.1" cy="162.3" r="1.45" fill="#f97316" fill-opacity="0.46"/>
<circle cx="580.2" cy="160.7" r="1.45" fill="#f97316" fill-opacity="0.46"/>
<circle cx="583.2" cy="156.8" r="1.45" fill="#f97316" fill-opacity="0.46"/>
<circle cx="558.8" cy="157.6" r="1.45" fill="#f97316" fill-opacity="0.46"/>
<circle cx="561.8" cy="157.9" r="1.45" fill="#f97316" fill-opacity="0.46"/>
<line x1="571.0" y1="156.8" x2="571.0" y2="162.3" stroke="#f97316" stroke-opacity="0.86" stroke-width="1.8"/>
<line x1="558.8" y1="156.8" x2="583.2" y2="156.8" stroke="#f97316" stroke-opacity="0.86" stroke-width="1.8"/>
<line x1="558.8" y1="162.3" x2="583.2" y2="162.3" stroke="#f97316" stroke-opacity="0.86" stroke-width="1.8"/>
<rect x="554.0" y="158.8" width="34.0" height="2.7" rx="2" fill="#f97316" fill-opacity="0.18" stroke="#f97316" stroke-opacity="0.9" stroke-width="1.8"/>
<line x1="554.0" y1="160.3" x2="588.0" y2="160.3" stroke="#f97316" stroke-opacity="0.96" stroke-width="2.6"/>
<text x="594.0" y="164.3" text-anchor="start" font-family="Inter,Segoe UI,Arial,sans-serif" font-size="11" font-weight="700" fill="#111827" stroke="#ffffff" stroke-width="3" paint-order="stroke">181</text>
<circle cx="683.8" cy="157.3" r="1.45" fill="#eab308" fill-opacity="0.46"/>
<circle cx="686.8" cy="161.2" r="1.45" fill="#eab308" fill-opacity="0.46"/>
<circle cx="689.9" cy="157.8" r="1.45" fill="#eab308" fill-opacity="0.46"/>
<circle cx="692.9" cy="159.8" r="1.45" fill="#eab308" fill-opacity="0.46"/>
<circle cx="696.0" cy="155.4" r="1.45" fill="#eab308" fill-opacity="0.46"/>
<circle cx="699.1" cy="152.0" r="1.45" fill="#eab308" fill-opacity="0.46"/>
<circle cx="702.1" cy="155.4" r="1.45" fill="#eab308" fill-opacity="0.46"/>
<circle cx="705.2" cy="158.9" r="1.45" fill="#eab308" fill-opacity="0.46"/>
<circle cx="708.2" cy="156.7" r="1.45" fill="#eab308" fill-opacity="0.46"/>
<circle cx="683.8" cy="157.6" r="1.45" fill="#eab308" fill-opacity="0.46"/>
<circle cx="686.8" cy="158.3" r="1.45" fill="#eab308" fill-opacity="0.46"/>
<line x1="696.0" y1="152.0" x2="696.0" y2="161.2" stroke="#eab308" stroke-opacity="0.86" stroke-width="1.8"/>
<line x1="683.8" y1="152.0" x2="708.2" y2="152.0" stroke="#eab308" stroke-opacity="0.86" stroke-width="1.8"/>
<line x1="683.8" y1="161.2" x2="708.2" y2="161.2" stroke="#eab308" stroke-opacity="0.86" stroke-width="1.8"/>
<rect x="679.0" y="156.1" width="34.0" height="2.5" rx="2" fill="#eab308" fill-opacity="0.18" stroke="#eab308" stroke-opacity="0.9" stroke-width="1.8"/>
<line x1="679.0" y1="157.6" x2="713.0" y2="157.6" stroke="#eab308" stroke-opacity="0.96" stroke-width="2.6"/>
<text x="719.0" y="161.6" text-anchor="start" font-family="Inter,Segoe UI,Arial,sans-serif" font-size="11" font-weight="700" fill="#111827" stroke="#ffffff" stroke-width="3" paint-order="stroke">183</text>
<rect x="64.0" y="433" width="10" height="10" rx="2" fill="#14532d" fill-opacity="0.72"/>
<text x="78.0" y="442" font-family="Inter,Segoe UI,Arial,sans-serif" font-size="10" fill="#374151">MTPLX 0.3.7 (default)</text>
<rect x="289.3" y="433" width="10" height="10" rx="2" fill="#f97316" fill-opacity="0.72"/>
<text x="303.3" y="442" font-family="Inter,Segoe UI,Arial,sans-serif" font-size="10" fill="#374151">AX Engine v5.2.2 (MTP-only)</text>
<rect x="514.7" y="433" width="10" height="10" rx="2" fill="#eab308" fill-opacity="0.72"/>
<text x="528.7" y="442" font-family="Inter,Segoe UI,Arial,sans-serif" font-size="10" fill="#374151">AX Engine v5.2.2 (MTP + n-gram stacking)</text>
</svg>
