<svg xmlns="http://www.w3.org/2000/svg" width="900" height="460" viewBox="0 0 900 460" role="img" aria-labelledby="title desc">
<title>Qwen3.6 27B 4-bit MTP TTFT</title>
<desc>Grouped box-and-whisker plot comparing MTPLX 0.3.7, AX Engine v5.2.2, AX+ngram v5.2.2.</desc>
<rect width="100%" height="100%" fill="#f8fafc"/>
<text x="24" y="24" font-family="Inter,Segoe UI,Arial,sans-serif" font-size="16" font-weight="700" fill="#111827">Qwen3.6 27B 4-bit MTP TTFT</text>
<text x="24" y="46" font-family="Inter,Segoe UI,Arial,sans-serif" font-size="11" fill="#4b5563"><tspan>All suites combined | </tspan><tspan fill="#dc2626" font-weight="700">lower is better</tspan><tspan> | box=IQR | dots=runs</tspan></text>
<text x="24" y="62" font-family="Inter,Segoe UI,Arial,sans-serif" font-size="10" fill="#6b7280">MTPLX 0.3.7 · AX Engine v5.2.2</text>
<rect x="818" y="13" width="48" height="22" rx="11" fill="#eef2ff" stroke="#c7d2fe"/>
<text x="842.0" y="28" text-anchor="middle" font-family="Inter,Segoe UI,Arial,sans-serif" font-size="10" font-weight="700" fill="#3730a3">ms</text>
<text x="866" y="52" text-anchor="end" font-family="Inter,Segoe UI,Arial,sans-serif" font-size="10" font-weight="700" fill="#dc2626">Lower is better</text>
<rect x="64" y="86" width="676" height="268" rx="6" fill="#ffffff" stroke="#dbe3ef"/>
<line x1="64" y1="354.0" x2="740" y2="354.0" stroke="#e5e7eb" stroke-width="1"/>
<text x="56" y="357.0" text-anchor="end" font-family="Inter,Segoe UI,Arial,sans-serif" font-size="11" fill="#6b7280">0</text>
<line x1="64" y1="287.0" x2="740" y2="287.0" stroke="#e5e7eb" stroke-width="1"/>
<text x="56" y="290.0" text-anchor="end" font-family="Inter,Segoe UI,Arial,sans-serif" font-size="11" fill="#6b7280">500</text>
<line x1="64" y1="220.0" x2="740" y2="220.0" stroke="#e5e7eb" stroke-width="1"/>
<text x="56" y="223.0" text-anchor="end" font-family="Inter,Segoe UI,Arial,sans-serif" font-size="11" fill="#6b7280">1000</text>
<line x1="64" y1="153.0" x2="740" y2="153.0" stroke="#e5e7eb" stroke-width="1"/>
<text x="56" y="156.0" text-anchor="end" font-family="Inter,Segoe UI,Arial,sans-serif" font-size="11" fill="#6b7280">1500</text>
<line x1="64" y1="86.0" x2="740" y2="86.0" stroke="#e5e7eb" stroke-width="1"/>
<text x="56" y="89.0" text-anchor="end" font-family="Inter,Segoe UI,Arial,sans-serif" font-size="11" fill="#6b7280">2000</text>
<line x1="64" y1="286.3" x2="740" y2="286.3" stroke="#dc2626" stroke-width="1.2" stroke-dasharray="1 4" stroke-linecap="round"/>
<text x="748" y="281.3" text-anchor="start" font-family="Inter,Segoe UI,Arial,sans-serif" font-size="11" font-weight="700" fill="#dc2626" data-label="lowest median">lowest: 505</text>
<text x="402.0" y="398" text-anchor="middle" font-family="Inter,Segoe UI,Arial,sans-serif" font-size="11" font-weight="700" fill="#111827">all suites</text>
<circle cx="127.8" cy="295.7" r="1.45" fill="#14532d" fill-opacity="0.46"/>
<circle cx="130.8" cy="295.8" r="1.45" fill="#14532d" fill-opacity="0.46"/>
<circle cx="133.9" cy="295.5" r="1.45" fill="#14532d" fill-opacity="0.46"/>
<circle cx="136.9" cy="295.3" r="1.45" fill="#14532d" fill-opacity="0.46"/>
<circle cx="140.0" cy="295.4" r="1.45" fill="#14532d" fill-opacity="0.46"/>
<circle cx="143.1" cy="286.0" r="1.45" fill="#14532d" fill-opacity="0.46"/>
<circle cx="146.1" cy="287.8" r="1.45" fill="#14532d" fill-opacity="0.46"/>
<circle cx="149.2" cy="286.2" r="1.45" fill="#14532d" fill-opacity="0.46"/>
<circle cx="152.2" cy="287.9" r="1.45" fill="#14532d" fill-opacity="0.46"/>
<circle cx="127.8" cy="285.8" r="1.45" fill="#14532d" fill-opacity="0.46"/>
<circle cx="130.8" cy="277.8" r="1.45" fill="#14532d" fill-opacity="0.46"/>
<circle cx="133.9" cy="277.8" r="1.45" fill="#14532d" fill-opacity="0.46"/>
<circle cx="136.9" cy="278.1" r="1.45" fill="#14532d" fill-opacity="0.46"/>
<circle cx="140.0" cy="277.8" r="1.45" fill="#14532d" fill-opacity="0.46"/>
<circle cx="143.1" cy="278.6" r="1.45" fill="#14532d" fill-opacity="0.46"/>
<circle cx="146.1" cy="295.5" r="1.45" fill="#14532d" fill-opacity="0.46"/>
<circle cx="149.2" cy="296.3" r="1.45" fill="#14532d" fill-opacity="0.46"/>
<circle cx="152.2" cy="296.9" r="1.45" fill="#14532d" fill-opacity="0.46"/>
<circle cx="127.8" cy="296.3" r="1.45" fill="#14532d" fill-opacity="0.46"/>
<circle cx="130.8" cy="295.4" r="1.45" fill="#14532d" fill-opacity="0.46"/>
<circle cx="133.9" cy="233.5" r="1.45" fill="#14532d" fill-opacity="0.46"/>
<circle cx="136.9" cy="233.9" r="1.45" fill="#14532d" fill-opacity="0.46"/>
<circle cx="140.0" cy="234.0" r="1.45" fill="#14532d" fill-opacity="0.46"/>
<circle cx="143.1" cy="234.7" r="1.45" fill="#14532d" fill-opacity="0.46"/>
<circle cx="146.1" cy="234.0" r="1.45" fill="#14532d" fill-opacity="0.46"/>
<circle cx="149.2" cy="216.3" r="1.45" fill="#14532d" fill-opacity="0.46"/>
<circle cx="152.2" cy="214.9" r="1.45" fill="#14532d" fill-opacity="0.46"/>
<circle cx="127.8" cy="214.4" r="1.45" fill="#14532d" fill-opacity="0.46"/>
<circle cx="130.8" cy="214.0" r="1.45" fill="#14532d" fill-opacity="0.46"/>
<circle cx="133.9" cy="213.8" r="1.45" fill="#14532d" fill-opacity="0.46"/>
<circle cx="136.9" cy="233.1" r="1.45" fill="#14532d" fill-opacity="0.46"/>
<circle cx="140.0" cy="234.0" r="1.45" fill="#14532d" fill-opacity="0.46"/>
<circle cx="143.1" cy="232.8" r="1.45" fill="#14532d" fill-opacity="0.46"/>
<circle cx="146.1" cy="233.0" r="1.45" fill="#14532d" fill-opacity="0.46"/>
<circle cx="149.2" cy="232.5" r="1.45" fill="#14532d" fill-opacity="0.46"/>
<circle cx="152.2" cy="269.4" r="1.45" fill="#14532d" fill-opacity="0.46"/>
<circle cx="127.8" cy="269.8" r="1.45" fill="#14532d" fill-opacity="0.46"/>
<circle cx="130.8" cy="269.4" r="1.45" fill="#14532d" fill-opacity="0.46"/>
<circle cx="133.9" cy="268.6" r="1.45" fill="#14532d" fill-opacity="0.46"/>
<circle cx="136.9" cy="268.1" r="1.45" fill="#14532d" fill-opacity="0.46"/>
<circle cx="140.0" cy="295.0" r="1.45" fill="#14532d" fill-opacity="0.46"/>
<circle cx="143.1" cy="295.2" r="1.45" fill="#14532d" fill-opacity="0.46"/>
<circle cx="146.1" cy="298.6" r="1.45" fill="#14532d" fill-opacity="0.46"/>
<circle cx="149.2" cy="294.5" r="1.45" fill="#14532d" fill-opacity="0.46"/>
<circle cx="152.2" cy="295.2" r="1.45" fill="#14532d" fill-opacity="0.46"/>
<circle cx="127.8" cy="286.0" r="1.45" fill="#14532d" fill-opacity="0.46"/>
<circle cx="130.8" cy="286.8" r="1.45" fill="#14532d" fill-opacity="0.46"/>
<circle cx="133.9" cy="285.8" r="1.45" fill="#14532d" fill-opacity="0.46"/>
<circle cx="136.9" cy="286.1" r="1.45" fill="#14532d" fill-opacity="0.46"/>
<circle cx="140.0" cy="286.5" r="1.45" fill="#14532d" fill-opacity="0.46"/>
<circle cx="143.1" cy="288.0" r="1.45" fill="#14532d" fill-opacity="0.46"/>
<circle cx="146.1" cy="286.2" r="1.45" fill="#14532d" fill-opacity="0.46"/>
<circle cx="149.2" cy="286.6" r="1.45" fill="#14532d" fill-opacity="0.46"/>
<circle cx="152.2" cy="286.5" r="1.45" fill="#14532d" fill-opacity="0.46"/>
<circle cx="127.8" cy="287.0" r="1.45" fill="#14532d" fill-opacity="0.46"/>
<line x1="140.0" y1="213.8" x2="140.0" y2="298.6" stroke="#14532d" stroke-opacity="0.82" stroke-width="1.8"/>
<line x1="127.8" y1="213.8" x2="152.2" y2="213.8" stroke="#14532d" stroke-opacity="0.82" stroke-width="1.8"/>
<line x1="127.8" y1="298.6" x2="152.2" y2="298.6" stroke="#14532d" stroke-opacity="0.82" stroke-width="1.8"/>
<rect x="123.0" y="234.4" width="34.0" height="60.4" rx="2" fill="#14532d" fill-opacity="0.18" stroke="#14532d" stroke-opacity="0.82" stroke-width="1.8"/>
<line x1="123.0" y1="286.0" x2="157.0" y2="286.0" stroke="#14532d" stroke-opacity="0.82" stroke-width="2.6"/>
<text x="163.0" y="290.0" text-anchor="start" font-family="Inter,Segoe UI,Arial,sans-serif" font-size="11" font-weight="700" fill="#111827" stroke="#ffffff" stroke-width="3" paint-order="stroke">508</text>
<circle cx="389.8" cy="296.0" r="1.45" fill="#f97316" fill-opacity="0.46"/>
<circle cx="392.8" cy="286.3" r="1.45" fill="#f97316" fill-opacity="0.46"/>
<circle cx="395.9" cy="277.6" r="1.45" fill="#f97316" fill-opacity="0.46"/>
<circle cx="398.9" cy="296.6" r="1.45" fill="#f97316" fill-opacity="0.46"/>
<circle cx="402.0" cy="232.1" r="1.45" fill="#f97316" fill-opacity="0.46"/>
<circle cx="405.1" cy="214.6" r="1.45" fill="#f97316" fill-opacity="0.46"/>
<circle cx="408.1" cy="232.8" r="1.45" fill="#f97316" fill-opacity="0.46"/>
<circle cx="411.2" cy="269.7" r="1.45" fill="#f97316" fill-opacity="0.46"/>
<circle cx="414.2" cy="295.4" r="1.45" fill="#f97316" fill-opacity="0.46"/>
<circle cx="389.8" cy="286.5" r="1.45" fill="#f97316" fill-opacity="0.46"/>
<circle cx="392.8" cy="286.5" r="1.45" fill="#f97316" fill-opacity="0.46"/>
<line x1="402.0" y1="214.6" x2="402.0" y2="296.6" stroke="#f97316" stroke-opacity="0.82" stroke-width="1.8"/>
<line x1="389.8" y1="214.6" x2="414.2" y2="214.6" stroke="#f97316" stroke-opacity="0.82" stroke-width="1.8"/>
<line x1="389.8" y1="296.6" x2="414.2" y2="296.6" stroke="#f97316" stroke-opacity="0.82" stroke-width="1.8"/>
<rect x="385.0" y="251.3" width="34.0" height="39.7" rx="2" fill="#f97316" fill-opacity="0.18" stroke="#f97316" stroke-opacity="0.82" stroke-width="1.8"/>
<line x1="385.0" y1="286.3" x2="419.0" y2="286.3" stroke="#f97316" stroke-opacity="0.82" stroke-width="2.6"/>
<text x="425.0" y="290.3" text-anchor="start" font-family="Inter,Segoe UI,Arial,sans-serif" font-size="11" font-weight="700" fill="#111827" stroke="#ffffff" stroke-width="3" paint-order="stroke">505</text>
<circle cx="651.8" cy="296.1" r="1.45" fill="#eab308" fill-opacity="0.46"/>
<circle cx="654.8" cy="286.3" r="1.45" fill="#eab308" fill-opacity="0.46"/>
<circle cx="657.9" cy="277.7" r="1.45" fill="#eab308" fill-opacity="0.46"/>
<circle cx="660.9" cy="296.7" r="1.45" fill="#eab308" fill-opacity="0.46"/>
<circle cx="664.0" cy="232.5" r="1.45" fill="#eab308" fill-opacity="0.46"/>
<circle cx="667.1" cy="214.9" r="1.45" fill="#eab308" fill-opacity="0.46"/>
<circle cx="670.1" cy="224.1" r="1.45" fill="#eab308" fill-opacity="0.46"/>
<circle cx="673.2" cy="269.7" r="1.45" fill="#eab308" fill-opacity="0.46"/>
<circle cx="676.2" cy="295.4" r="1.45" fill="#eab308" fill-opacity="0.46"/>
<circle cx="651.8" cy="286.4" r="1.45" fill="#eab308" fill-opacity="0.46"/>
<circle cx="654.8" cy="286.4" r="1.45" fill="#eab308" fill-opacity="0.46"/>
<line x1="664.0" y1="214.9" x2="664.0" y2="296.7" stroke="#eab308" stroke-opacity="0.82" stroke-width="1.8"/>
<line x1="651.8" y1="214.9" x2="676.2" y2="214.9" stroke="#eab308" stroke-opacity="0.82" stroke-width="1.8"/>
<line x1="651.8" y1="296.7" x2="676.2" y2="296.7" stroke="#eab308" stroke-opacity="0.82" stroke-width="1.8"/>
<rect x="647.0" y="251.1" width="34.0" height="39.8" rx="2" fill="#eab308" fill-opacity="0.18" stroke="#eab308" stroke-opacity="0.82" stroke-width="1.8"/>
<line x1="647.0" y1="286.3" x2="681.0" y2="286.3" stroke="#eab308" stroke-opacity="0.82" stroke-width="2.6"/>
<text x="687.0" y="290.3" text-anchor="start" font-family="Inter,Segoe UI,Arial,sans-serif" font-size="11" font-weight="700" fill="#111827" stroke="#ffffff" stroke-width="3" paint-order="stroke">506</text>
<rect x="64" y="433" width="10" height="10" rx="2" fill="#14532d" fill-opacity="0.86"/>
<text x="78" y="442" font-family="Inter,Segoe UI,Arial,sans-serif" font-size="10" fill="#374151">MTPLX 0.3.7</text>
<rect x="289.33333333333337" y="433" width="10" height="10" rx="2" fill="#f97316" fill-opacity="0.86"/>
<text x="303.33333333333337" y="442" font-family="Inter,Segoe UI,Arial,sans-serif" font-size="10" fill="#374151">AX Engine v5.2.2</text>
<rect x="514.6666666666667" y="433" width="10" height="10" rx="2" fill="#eab308" fill-opacity="0.86"/>
<text x="528.6666666666667" y="442" font-family="Inter,Segoe UI,Arial,sans-serif" font-size="10" fill="#374151">AX+ngram v5.2.2</text>
</svg>
