<svg xmlns="http://www.w3.org/2000/svg" width="760" height="430" viewBox="0 0 760 430" role="img">
<rect width="100%" height="100%" fill="#ffffff"/>
<text x="24" y="30" font-family="Inter,Segoe UI,Arial,sans-serif" font-size="18" font-weight="700" fill="#111827">Qwen3.6 35B-A3B 4-bit MTP decode throughput</text>
<text x="736" y="30" text-anchor="end" font-family="Inter,Segoe UI,Arial,sans-serif" font-size="11" fill="#4b5563">tok/s, higher is better</text>
<line x1="60" y1="358.0" x2="732" y2="358.0" stroke="#e5e7eb" stroke-width="1"/>
<text x="52" y="361.0" text-anchor="end" font-family="Inter,Segoe UI,Arial,sans-serif" font-size="10" fill="#6b7280">0</text>
<line x1="60" y1="261.3" x2="732" y2="261.3" stroke="#e5e7eb" stroke-width="1"/>
<text x="52" y="264.3" text-anchor="end" font-family="Inter,Segoe UI,Arial,sans-serif" font-size="10" fill="#6b7280">65</text>
<line x1="60" y1="164.7" x2="732" y2="164.7" stroke="#e5e7eb" stroke-width="1"/>
<text x="52" y="167.7" text-anchor="end" font-family="Inter,Segoe UI,Arial,sans-serif" font-size="10" fill="#6b7280">130</text>
<line x1="60" y1="68.0" x2="732" y2="68.0" stroke="#e5e7eb" stroke-width="1"/>
<text x="52" y="71.0" text-anchor="end" font-family="Inter,Segoe UI,Arial,sans-serif" font-size="10" fill="#6b7280">195</text>
<text x="172.0" y="396" text-anchor="middle" font-family="Inter,Segoe UI,Arial,sans-serif" font-size="11" font-weight="700" fill="#111827">flappy</text>
<rect x="82.0" y="198.4" width="39.0" height="159.6" rx="2" fill="#a78bfa" fill-opacity="0.86"/>
<text x="101.5" y="193.4" text-anchor="middle" font-family="Inter,Segoe UI,Arial,sans-serif" font-size="10" font-weight="700" fill="#111827">107.3</text>
<rect x="129.0" y="137.9" width="39.0" height="220.1" rx="2" fill="#60a5fa" fill-opacity="0.86"/>
<text x="148.5" y="132.9" text-anchor="middle" font-family="Inter,Segoe UI,Arial,sans-serif" font-size="10" font-weight="700" fill="#111827">147.9</text>
<rect x="176.0" y="99.2" width="39.0" height="258.8" rx="2" fill="#1d4ed8" fill-opacity="0.86"/>
<text x="195.5" y="94.2" text-anchor="middle" font-family="Inter,Segoe UI,Arial,sans-serif" font-size="10" font-weight="700" fill="#111827">173.9</text>
<rect x="223.0" y="86.4" width="39.0" height="271.6" rx="2" fill="#86efac" fill-opacity="0.86"/>
<text x="242.5" y="81.4" text-anchor="middle" font-family="Inter,Segoe UI,Arial,sans-serif" font-size="10" font-weight="700" fill="#111827">182.5</text>
<text x="396.0" y="396" text-anchor="middle" font-family="Inter,Segoe UI,Arial,sans-serif" font-size="11" font-weight="700" fill="#111827">long_code</text>
<rect x="306.0" y="199.7" width="39.0" height="158.3" rx="2" fill="#a78bfa" fill-opacity="0.86"/>
<text x="325.5" y="194.7" text-anchor="middle" font-family="Inter,Segoe UI,Arial,sans-serif" font-size="10" font-weight="700" fill="#111827">106.4</text>
<rect x="353.0" y="136.3" width="39.0" height="221.7" rx="2" fill="#60a5fa" fill-opacity="0.86"/>
<text x="372.5" y="131.3" text-anchor="middle" font-family="Inter,Segoe UI,Arial,sans-serif" font-size="10" font-weight="700" fill="#111827">149.0</text>
<rect x="400.0" y="68.0" width="39.0" height="290.0" rx="2" fill="#1d4ed8" fill-opacity="0.86"/>
<text x="419.5" y="78.0" text-anchor="middle" font-family="Inter,Segoe UI,Arial,sans-serif" font-size="10" font-weight="700" fill="#111827">194.9</text>
<rect x="447.0" y="89.1" width="39.0" height="268.9" rx="2" fill="#86efac" fill-opacity="0.86"/>
<text x="466.5" y="84.1" text-anchor="middle" font-family="Inter,Segoe UI,Arial,sans-serif" font-size="10" font-weight="700" fill="#111827">180.7</text>
<text x="620.0" y="396" text-anchor="middle" font-family="Inter,Segoe UI,Arial,sans-serif" font-size="11" font-weight="700" fill="#111827">python_modules_long</text>
<rect x="530.0" y="205.2" width="39.0" height="152.8" rx="2" fill="#a78bfa" fill-opacity="0.86"/>
<text x="549.5" y="200.2" text-anchor="middle" font-family="Inter,Segoe UI,Arial,sans-serif" font-size="10" font-weight="700" fill="#111827">102.7</text>
<rect x="577.0" y="136.6" width="39.0" height="221.4" rx="2" fill="#60a5fa" fill-opacity="0.86"/>
<text x="596.5" y="131.6" text-anchor="middle" font-family="Inter,Segoe UI,Arial,sans-serif" font-size="10" font-weight="700" fill="#111827">148.8</text>
<rect x="624.0" y="155.5" width="39.0" height="202.5" rx="2" fill="#1d4ed8" fill-opacity="0.86"/>
<text x="643.5" y="150.5" text-anchor="middle" font-family="Inter,Segoe UI,Arial,sans-serif" font-size="10" font-weight="700" fill="#111827">136.1</text>
<rect x="671.0" y="92.9" width="39.0" height="265.1" rx="2" fill="#86efac" fill-opacity="0.86"/>
<text x="690.5" y="87.9" text-anchor="middle" font-family="Inter,Segoe UI,Arial,sans-serif" font-size="10" font-weight="700" fill="#111827">178.1</text>
<rect x="60" y="407" width="10" height="10" rx="2" fill="#a78bfa" fill-opacity="0.86"/>
<text x="74" y="416" font-family="Inter,Segoe UI,Arial,sans-serif" font-size="10" fill="#374151">MTPLX 0.3.7</text>
<rect x="190" y="407" width="10" height="10" rx="2" fill="#60a5fa" fill-opacity="0.86"/>
<text x="204" y="416" font-family="Inter,Segoe UI,Arial,sans-serif" font-size="10" fill="#374151">Light. MTP</text>
<rect x="320" y="407" width="10" height="10" rx="2" fill="#1d4ed8" fill-opacity="0.86"/>
<text x="334" y="416" font-family="Inter,Segoe UI,Arial,sans-serif" font-size="10" fill="#374151">Light. ngram+MTP</text>
<rect x="450" y="407" width="10" height="10" rx="2" fill="#86efac" fill-opacity="0.86"/>
<text x="464" y="416" font-family="Inter,Segoe UI,Arial,sans-serif" font-size="10" fill="#374151">AX MTP</text>
</svg>
