<svg xmlns="http://www.w3.org/2000/svg" width="900" height="460" viewBox="0 0 900 460" role="img" aria-labelledby="title desc">
<title>Qwen3.6 35B-A3B 4-bit MTP accept rate</title>
<desc>Grouped box-and-whisker plot comparing MTPLX 0.3.7, Light. MTP, Light. ngram+MTP, AX MTP, AX MTP+n-gram across all suites.</desc>
<rect width="100%" height="100%" fill="#f8fafc"/>
<text x="24" y="24" font-family="Inter,Segoe UI,Arial,sans-serif" font-size="16" font-weight="700" fill="#111827">Qwen3.6 35B-A3B 4-bit MTP accept rate</text>
<text x="24" y="46" font-family="Inter,Segoe UI,Arial,sans-serif" font-size="11" fill="#4b5563">All suites combined | accepted/drafted | box=IQR | dots=runs</text>
<rect x="818" y="13" width="48" height="22" rx="11" fill="#eef2ff" stroke="#c7d2fe"/>
<text x="842.0" y="28" text-anchor="middle" font-family="Inter,Segoe UI,Arial,sans-serif" font-size="10" font-weight="700" fill="#3730a3">%</text>
<text x="866" y="52" text-anchor="end" font-family="Inter,Segoe UI,Arial,sans-serif" font-size="10" font-weight="700" fill="#374151">Higher is better</text>
<rect x="64" y="86" width="676" height="268" rx="6" fill="#ffffff" stroke="#dbe3ef"/>
<line x1="64" y1="354.0" x2="740" y2="354.0" stroke="#e5e7eb" stroke-width="1"/>
<text x="56" y="357.0" text-anchor="end" font-family="Inter,Segoe UI,Arial,sans-serif" font-size="11" fill="#6b7280">0%</text>
<line x1="64" y1="287.0" x2="740" y2="287.0" stroke="#e5e7eb" stroke-width="1"/>
<text x="56" y="290.0" text-anchor="end" font-family="Inter,Segoe UI,Arial,sans-serif" font-size="11" fill="#6b7280">25%</text>
<line x1="64" y1="220.0" x2="740" y2="220.0" stroke="#e5e7eb" stroke-width="1"/>
<text x="56" y="223.0" text-anchor="end" font-family="Inter,Segoe UI,Arial,sans-serif" font-size="11" fill="#6b7280">50%</text>
<line x1="64" y1="153.0" x2="740" y2="153.0" stroke="#e5e7eb" stroke-width="1"/>
<text x="56" y="156.0" text-anchor="end" font-family="Inter,Segoe UI,Arial,sans-serif" font-size="11" fill="#6b7280">75%</text>
<line x1="64" y1="86.0" x2="740" y2="86.0" stroke="#e5e7eb" stroke-width="1"/>
<text x="56" y="89.0" text-anchor="end" font-family="Inter,Segoe UI,Arial,sans-serif" font-size="11" fill="#6b7280">100%</text>
<line x1="64" y1="86.5" x2="740" y2="86.5" stroke="#dc2626" stroke-width="1.2" stroke-dasharray="1 4" stroke-linecap="round"/>
<text x="748" y="97.0" text-anchor="start" font-family="Inter,Segoe UI,Arial,sans-serif" font-size="11" font-weight="700" fill="#dc2626" data-label="highest median">highest: 99.8%</text>
<text x="402.0" y="398" text-anchor="middle" font-family="Inter,Segoe UI,Arial,sans-serif" font-size="11" font-weight="700" fill="#111827">all suites</text>
<circle cx="127.8" cy="224.4" r="1.45" fill="#14532d" fill-opacity="0.46"/>
<circle cx="130.8" cy="221.4" r="1.45" fill="#14532d" fill-opacity="0.46"/>
<circle cx="133.9" cy="219.0" r="1.45" fill="#14532d" fill-opacity="0.46"/>
<circle cx="136.9" cy="222.0" r="1.45" fill="#14532d" fill-opacity="0.46"/>
<circle cx="140.0" cy="230.2" r="1.45" fill="#14532d" fill-opacity="0.46"/>
<circle cx="143.1" cy="198.8" r="1.45" fill="#14532d" fill-opacity="0.46"/>
<circle cx="146.1" cy="207.1" r="1.45" fill="#14532d" fill-opacity="0.46"/>
<circle cx="149.2" cy="196.0" r="1.45" fill="#14532d" fill-opacity="0.46"/>
<circle cx="152.2" cy="202.1" r="1.45" fill="#14532d" fill-opacity="0.46"/>
<circle cx="127.8" cy="196.9" r="1.45" fill="#14532d" fill-opacity="0.46"/>
<circle cx="130.8" cy="237.9" r="1.45" fill="#14532d" fill-opacity="0.46"/>
<circle cx="133.9" cy="236.8" r="1.45" fill="#14532d" fill-opacity="0.46"/>
<circle cx="136.9" cy="239.5" r="1.45" fill="#14532d" fill-opacity="0.46"/>
<circle cx="140.0" cy="239.5" r="1.45" fill="#14532d" fill-opacity="0.46"/>
<circle cx="143.1" cy="237.3" r="1.45" fill="#14532d" fill-opacity="0.46"/>
<circle cx="146.1" cy="217.6" r="1.45" fill="#14532d" fill-opacity="0.46"/>
<circle cx="149.2" cy="223.0" r="1.45" fill="#14532d" fill-opacity="0.46"/>
<circle cx="152.2" cy="222.4" r="1.45" fill="#14532d" fill-opacity="0.46"/>
<circle cx="127.8" cy="225.9" r="1.45" fill="#14532d" fill-opacity="0.46"/>
<circle cx="130.8" cy="217.8" r="1.45" fill="#14532d" fill-opacity="0.46"/>
<circle cx="133.9" cy="176.1" r="1.45" fill="#14532d" fill-opacity="0.46"/>
<circle cx="136.9" cy="174.6" r="1.45" fill="#14532d" fill-opacity="0.46"/>
<circle cx="140.0" cy="175.3" r="1.45" fill="#14532d" fill-opacity="0.46"/>
<circle cx="143.1" cy="175.3" r="1.45" fill="#14532d" fill-opacity="0.46"/>
<circle cx="146.1" cy="176.1" r="1.45" fill="#14532d" fill-opacity="0.46"/>
<circle cx="149.2" cy="213.9" r="1.45" fill="#14532d" fill-opacity="0.46"/>
<circle cx="152.2" cy="214.5" r="1.45" fill="#14532d" fill-opacity="0.46"/>
<circle cx="127.8" cy="205.9" r="1.45" fill="#14532d" fill-opacity="0.46"/>
<circle cx="130.8" cy="209.5" r="1.45" fill="#14532d" fill-opacity="0.46"/>
<circle cx="133.9" cy="208.2" r="1.45" fill="#14532d" fill-opacity="0.46"/>
<circle cx="136.9" cy="225.6" r="1.45" fill="#14532d" fill-opacity="0.46"/>
<circle cx="140.0" cy="221.2" r="1.45" fill="#14532d" fill-opacity="0.46"/>
<circle cx="143.1" cy="224.4" r="1.45" fill="#14532d" fill-opacity="0.46"/>
<circle cx="146.1" cy="219.0" r="1.45" fill="#14532d" fill-opacity="0.46"/>
<circle cx="149.2" cy="224.2" r="1.45" fill="#14532d" fill-opacity="0.46"/>
<circle cx="152.2" cy="233.4" r="1.45" fill="#14532d" fill-opacity="0.46"/>
<circle cx="127.8" cy="235.1" r="1.45" fill="#14532d" fill-opacity="0.46"/>
<circle cx="130.8" cy="231.9" r="1.45" fill="#14532d" fill-opacity="0.46"/>
<circle cx="133.9" cy="228.5" r="1.45" fill="#14532d" fill-opacity="0.46"/>
<circle cx="136.9" cy="231.7" r="1.45" fill="#14532d" fill-opacity="0.46"/>
<circle cx="140.0" cy="246.5" r="1.45" fill="#14532d" fill-opacity="0.46"/>
<circle cx="143.1" cy="247.0" r="1.45" fill="#14532d" fill-opacity="0.46"/>
<circle cx="146.1" cy="241.9" r="1.45" fill="#14532d" fill-opacity="0.46"/>
<circle cx="149.2" cy="248.1" r="1.45" fill="#14532d" fill-opacity="0.46"/>
<circle cx="152.2" cy="252.9" r="1.45" fill="#14532d" fill-opacity="0.46"/>
<circle cx="127.8" cy="238.0" r="1.45" fill="#14532d" fill-opacity="0.46"/>
<circle cx="130.8" cy="238.4" r="1.45" fill="#14532d" fill-opacity="0.46"/>
<circle cx="133.9" cy="247.2" r="1.45" fill="#14532d" fill-opacity="0.46"/>
<circle cx="136.9" cy="237.9" r="1.45" fill="#14532d" fill-opacity="0.46"/>
<circle cx="140.0" cy="231.3" r="1.45" fill="#14532d" fill-opacity="0.46"/>
<circle cx="143.1" cy="241.2" r="1.45" fill="#14532d" fill-opacity="0.46"/>
<circle cx="146.1" cy="248.1" r="1.45" fill="#14532d" fill-opacity="0.46"/>
<circle cx="149.2" cy="236.2" r="1.45" fill="#14532d" fill-opacity="0.46"/>
<circle cx="152.2" cy="235.7" r="1.45" fill="#14532d" fill-opacity="0.46"/>
<circle cx="127.8" cy="238.0" r="1.45" fill="#14532d" fill-opacity="0.46"/>
<line x1="140.0" y1="174.6" x2="140.0" y2="252.9" stroke="#14532d" stroke-opacity="0.86" stroke-width="1.8"/>
<line x1="127.8" y1="174.6" x2="152.2" y2="174.6" stroke="#14532d" stroke-opacity="0.86" stroke-width="1.8"/>
<line x1="127.8" y1="252.9" x2="152.2" y2="252.9" stroke="#14532d" stroke-opacity="0.86" stroke-width="1.8"/>
<rect x="123.0" y="214.2" width="34.0" height="23.7" rx="2" fill="#14532d" fill-opacity="0.18" stroke="#14532d" stroke-opacity="0.9" stroke-width="1.8"/>
<line x1="123.0" y1="225.6" x2="157.0" y2="225.6" stroke="#14532d" stroke-opacity="0.96" stroke-width="2.6"/>
<text x="163.0" y="229.6" text-anchor="start" font-family="Inter,Segoe UI,Arial,sans-serif" font-size="11" font-weight="700" fill="#111827" stroke="#ffffff" stroke-width="3" paint-order="stroke">47.9%</text>
<circle cx="258.8" cy="86.5" r="1.45" fill="#7c3aed" fill-opacity="0.46"/>
<circle cx="261.8" cy="87.1" r="1.45" fill="#7c3aed" fill-opacity="0.46"/>
<circle cx="264.9" cy="87.1" r="1.45" fill="#7c3aed" fill-opacity="0.46"/>
<circle cx="267.9" cy="86.5" r="1.45" fill="#7c3aed" fill-opacity="0.46"/>
<circle cx="271.0" cy="87.1" r="1.45" fill="#7c3aed" fill-opacity="0.46"/>
<circle cx="274.1" cy="93.0" r="1.45" fill="#7c3aed" fill-opacity="0.46"/>
<circle cx="277.1" cy="95.3" r="1.45" fill="#7c3aed" fill-opacity="0.46"/>
<circle cx="280.2" cy="92.2" r="1.45" fill="#7c3aed" fill-opacity="0.46"/>
<circle cx="283.2" cy="90.6" r="1.45" fill="#7c3aed" fill-opacity="0.46"/>
<circle cx="258.8" cy="88.3" r="1.45" fill="#7c3aed" fill-opacity="0.46"/>
<circle cx="261.8" cy="88.7" r="1.45" fill="#7c3aed" fill-opacity="0.46"/>
<circle cx="264.9" cy="89.7" r="1.45" fill="#7c3aed" fill-opacity="0.46"/>
<circle cx="267.9" cy="89.2" r="1.45" fill="#7c3aed" fill-opacity="0.46"/>
<circle cx="271.0" cy="90.3" r="1.45" fill="#7c3aed" fill-opacity="0.46"/>
<circle cx="274.1" cy="89.7" r="1.45" fill="#7c3aed" fill-opacity="0.46"/>
<circle cx="277.1" cy="87.6" r="1.45" fill="#7c3aed" fill-opacity="0.46"/>
<circle cx="280.2" cy="87.6" r="1.45" fill="#7c3aed" fill-opacity="0.46"/>
<circle cx="283.2" cy="87.6" r="1.45" fill="#7c3aed" fill-opacity="0.46"/>
<circle cx="258.8" cy="87.6" r="1.45" fill="#7c3aed" fill-opacity="0.46"/>
<circle cx="261.8" cy="87.6" r="1.45" fill="#7c3aed" fill-opacity="0.46"/>
<circle cx="264.9" cy="90.3" r="1.45" fill="#7c3aed" fill-opacity="0.46"/>
<circle cx="267.9" cy="89.7" r="1.45" fill="#7c3aed" fill-opacity="0.46"/>
<circle cx="271.0" cy="89.2" r="1.45" fill="#7c3aed" fill-opacity="0.46"/>
<circle cx="274.1" cy="90.3" r="1.45" fill="#7c3aed" fill-opacity="0.46"/>
<circle cx="277.1" cy="88.7" r="1.45" fill="#7c3aed" fill-opacity="0.46"/>
<circle cx="280.2" cy="92.4" r="1.45" fill="#7c3aed" fill-opacity="0.46"/>
<circle cx="283.2" cy="94.0" r="1.45" fill="#7c3aed" fill-opacity="0.46"/>
<circle cx="258.8" cy="93.0" r="1.45" fill="#7c3aed" fill-opacity="0.46"/>
<circle cx="261.8" cy="94.0" r="1.45" fill="#7c3aed" fill-opacity="0.46"/>
<circle cx="264.9" cy="90.8" r="1.45" fill="#7c3aed" fill-opacity="0.46"/>
<circle cx="267.9" cy="90.8" r="1.45" fill="#7c3aed" fill-opacity="0.46"/>
<circle cx="271.0" cy="90.3" r="1.45" fill="#7c3aed" fill-opacity="0.46"/>
<circle cx="274.1" cy="90.8" r="1.45" fill="#7c3aed" fill-opacity="0.46"/>
<circle cx="277.1" cy="89.7" r="1.45" fill="#7c3aed" fill-opacity="0.46"/>
<circle cx="280.2" cy="90.3" r="1.45" fill="#7c3aed" fill-opacity="0.46"/>
<circle cx="283.2" cy="88.1" r="1.45" fill="#7c3aed" fill-opacity="0.46"/>
<circle cx="258.8" cy="88.7" r="1.45" fill="#7c3aed" fill-opacity="0.46"/>
<circle cx="261.8" cy="88.1" r="1.45" fill="#7c3aed" fill-opacity="0.46"/>
<circle cx="264.9" cy="88.7" r="1.45" fill="#7c3aed" fill-opacity="0.46"/>
<circle cx="267.9" cy="88.7" r="1.45" fill="#7c3aed" fill-opacity="0.46"/>
<circle cx="271.0" cy="98.8" r="1.45" fill="#7c3aed" fill-opacity="0.46"/>
<circle cx="274.1" cy="97.2" r="1.45" fill="#7c3aed" fill-opacity="0.46"/>
<circle cx="277.1" cy="97.8" r="1.45" fill="#7c3aed" fill-opacity="0.46"/>
<circle cx="280.2" cy="100.4" r="1.45" fill="#7c3aed" fill-opacity="0.46"/>
<circle cx="283.2" cy="98.3" r="1.45" fill="#7c3aed" fill-opacity="0.46"/>
<circle cx="258.8" cy="93.5" r="1.45" fill="#7c3aed" fill-opacity="0.46"/>
<circle cx="261.8" cy="91.9" r="1.45" fill="#7c3aed" fill-opacity="0.46"/>
<circle cx="264.9" cy="91.9" r="1.45" fill="#7c3aed" fill-opacity="0.46"/>
<circle cx="267.9" cy="95.1" r="1.45" fill="#7c3aed" fill-opacity="0.46"/>
<circle cx="271.0" cy="91.9" r="1.45" fill="#7c3aed" fill-opacity="0.46"/>
<circle cx="274.1" cy="96.2" r="1.45" fill="#7c3aed" fill-opacity="0.46"/>
<circle cx="277.1" cy="98.8" r="1.45" fill="#7c3aed" fill-opacity="0.46"/>
<circle cx="280.2" cy="91.9" r="1.45" fill="#7c3aed" fill-opacity="0.46"/>
<circle cx="283.2" cy="92.4" r="1.45" fill="#7c3aed" fill-opacity="0.46"/>
<circle cx="258.8" cy="93.5" r="1.45" fill="#7c3aed" fill-opacity="0.46"/>
<line x1="271.0" y1="86.5" x2="271.0" y2="100.4" stroke="#7c3aed" stroke-opacity="0.86" stroke-width="1.8"/>
<line x1="258.8" y1="86.5" x2="283.2" y2="86.5" stroke="#7c3aed" stroke-opacity="0.86" stroke-width="1.8"/>
<line x1="258.8" y1="100.4" x2="283.2" y2="100.4" stroke="#7c3aed" stroke-opacity="0.86" stroke-width="1.8"/>
<rect x="254.0" y="88.7" width="34.0" height="4.3" rx="2" fill="#7c3aed" fill-opacity="0.18" stroke="#7c3aed" stroke-opacity="0.9" stroke-width="1.8"/>
<line x1="254.0" y1="90.3" x2="288.0" y2="90.3" stroke="#7c3aed" stroke-opacity="0.96" stroke-width="2.6"/>
<text x="294.0" y="94.3" text-anchor="start" font-family="Inter,Segoe UI,Arial,sans-serif" font-size="11" font-weight="700" fill="#111827" stroke="#ffffff" stroke-width="3" paint-order="stroke">98.4%</text>
<circle cx="389.8" cy="99.6" r="1.45" fill="#1e3a8a" fill-opacity="0.46"/>
<circle cx="392.8" cy="98.6" r="1.45" fill="#1e3a8a" fill-opacity="0.46"/>
<circle cx="395.9" cy="98.6" r="1.45" fill="#1e3a8a" fill-opacity="0.46"/>
<circle cx="398.9" cy="98.6" r="1.45" fill="#1e3a8a" fill-opacity="0.46"/>
<circle cx="402.0" cy="100.7" r="1.45" fill="#1e3a8a" fill-opacity="0.46"/>
<circle cx="405.1" cy="137.4" r="1.45" fill="#1e3a8a" fill-opacity="0.46"/>
<circle cx="408.1" cy="140.4" r="1.45" fill="#1e3a8a" fill-opacity="0.46"/>
<circle cx="411.2" cy="139.9" r="1.45" fill="#1e3a8a" fill-opacity="0.46"/>
<circle cx="414.2" cy="141.5" r="1.45" fill="#1e3a8a" fill-opacity="0.46"/>
<circle cx="389.8" cy="139.9" r="1.45" fill="#1e3a8a" fill-opacity="0.46"/>
<circle cx="392.8" cy="122.5" r="1.45" fill="#1e3a8a" fill-opacity="0.46"/>
<circle cx="395.9" cy="118.5" r="1.45" fill="#1e3a8a" fill-opacity="0.46"/>
<circle cx="398.9" cy="121.5" r="1.45" fill="#1e3a8a" fill-opacity="0.46"/>
<circle cx="402.0" cy="121.5" r="1.45" fill="#1e3a8a" fill-opacity="0.46"/>
<circle cx="405.1" cy="121.5" r="1.45" fill="#1e3a8a" fill-opacity="0.46"/>
<circle cx="408.1" cy="90.4" r="1.45" fill="#1e3a8a" fill-opacity="0.46"/>
<circle cx="411.2" cy="91.3" r="1.45" fill="#1e3a8a" fill-opacity="0.46"/>
<circle cx="414.2" cy="90.4" r="1.45" fill="#1e3a8a" fill-opacity="0.46"/>
<circle cx="389.8" cy="90.4" r="1.45" fill="#1e3a8a" fill-opacity="0.46"/>
<circle cx="392.8" cy="91.3" r="1.45" fill="#1e3a8a" fill-opacity="0.46"/>
<circle cx="395.9" cy="93.3" r="1.45" fill="#1e3a8a" fill-opacity="0.46"/>
<circle cx="398.9" cy="94.5" r="1.45" fill="#1e3a8a" fill-opacity="0.46"/>
<circle cx="402.0" cy="94.5" r="1.45" fill="#1e3a8a" fill-opacity="0.46"/>
<circle cx="405.1" cy="93.3" r="1.45" fill="#1e3a8a" fill-opacity="0.46"/>
<circle cx="408.1" cy="94.5" r="1.45" fill="#1e3a8a" fill-opacity="0.46"/>
<circle cx="411.2" cy="112.8" r="1.45" fill="#1e3a8a" fill-opacity="0.46"/>
<circle cx="414.2" cy="110.2" r="1.45" fill="#1e3a8a" fill-opacity="0.46"/>
<circle cx="389.8" cy="117.7" r="1.45" fill="#1e3a8a" fill-opacity="0.46"/>
<circle cx="392.8" cy="105.1" r="1.45" fill="#1e3a8a" fill-opacity="0.46"/>
<circle cx="395.9" cy="113.4" r="1.45" fill="#1e3a8a" fill-opacity="0.46"/>
<circle cx="398.9" cy="110.9" r="1.45" fill="#1e3a8a" fill-opacity="0.46"/>
<circle cx="402.0" cy="104.3" r="1.45" fill="#1e3a8a" fill-opacity="0.46"/>
<circle cx="405.1" cy="106.0" r="1.45" fill="#1e3a8a" fill-opacity="0.46"/>
<circle cx="408.1" cy="104.3" r="1.45" fill="#1e3a8a" fill-opacity="0.46"/>
<circle cx="411.2" cy="104.3" r="1.45" fill="#1e3a8a" fill-opacity="0.46"/>
<circle cx="414.2" cy="108.7" r="1.45" fill="#1e3a8a" fill-opacity="0.46"/>
<circle cx="389.8" cy="111.0" r="1.45" fill="#1e3a8a" fill-opacity="0.46"/>
<circle cx="392.8" cy="109.8" r="1.45" fill="#1e3a8a" fill-opacity="0.46"/>
<circle cx="395.9" cy="108.7" r="1.45" fill="#1e3a8a" fill-opacity="0.46"/>
<circle cx="398.9" cy="109.8" r="1.45" fill="#1e3a8a" fill-opacity="0.46"/>
<circle cx="402.0" cy="108.0" r="1.45" fill="#1e3a8a" fill-opacity="0.46"/>
<circle cx="405.1" cy="109.1" r="1.45" fill="#1e3a8a" fill-opacity="0.46"/>
<circle cx="408.1" cy="105.8" r="1.45" fill="#1e3a8a" fill-opacity="0.46"/>
<circle cx="411.2" cy="106.3" r="1.45" fill="#1e3a8a" fill-opacity="0.46"/>
<circle cx="414.2" cy="109.6" r="1.45" fill="#1e3a8a" fill-opacity="0.46"/>
<circle cx="389.8" cy="100.6" r="1.45" fill="#1e3a8a" fill-opacity="0.46"/>
<circle cx="392.8" cy="96.7" r="1.45" fill="#1e3a8a" fill-opacity="0.46"/>
<circle cx="395.9" cy="108.6" r="1.45" fill="#1e3a8a" fill-opacity="0.46"/>
<circle cx="398.9" cy="99.4" r="1.45" fill="#1e3a8a" fill-opacity="0.46"/>
<circle cx="402.0" cy="100.6" r="1.45" fill="#1e3a8a" fill-opacity="0.46"/>
<circle cx="405.1" cy="114.0" r="1.45" fill="#1e3a8a" fill-opacity="0.46"/>
<circle cx="408.1" cy="113.2" r="1.45" fill="#1e3a8a" fill-opacity="0.46"/>
<circle cx="411.2" cy="121.8" r="1.45" fill="#1e3a8a" fill-opacity="0.46"/>
<circle cx="414.2" cy="107.4" r="1.45" fill="#1e3a8a" fill-opacity="0.46"/>
<circle cx="389.8" cy="117.2" r="1.45" fill="#1e3a8a" fill-opacity="0.46"/>
<line x1="402.0" y1="90.4" x2="402.0" y2="141.5" stroke="#1e3a8a" stroke-opacity="0.86" stroke-width="1.8"/>
<line x1="389.8" y1="90.4" x2="414.2" y2="90.4" stroke="#1e3a8a" stroke-opacity="0.86" stroke-width="1.8"/>
<line x1="389.8" y1="141.5" x2="414.2" y2="141.5" stroke="#1e3a8a" stroke-opacity="0.86" stroke-width="1.8"/>
<rect x="385.0" y="99.0" width="34.0" height="14.7" rx="2" fill="#1e3a8a" fill-opacity="0.18" stroke="#1e3a8a" stroke-opacity="0.9" stroke-width="1.8"/>
<line x1="385.0" y1="108.0" x2="419.0" y2="108.0" stroke="#1e3a8a" stroke-opacity="0.96" stroke-width="2.6"/>
<text x="425.0" y="112.0" text-anchor="start" font-family="Inter,Segoe UI,Arial,sans-serif" font-size="11" font-weight="700" fill="#111827" stroke="#ffffff" stroke-width="3" paint-order="stroke">91.8%</text>
<circle cx="520.8" cy="86.5" r="1.45" fill="#f97316" fill-opacity="0.46"/>
<circle cx="523.8" cy="86.5" r="1.45" fill="#f97316" fill-opacity="0.46"/>
<circle cx="526.9" cy="86.5" r="1.45" fill="#f97316" fill-opacity="0.46"/>
<circle cx="529.9" cy="86.5" r="1.45" fill="#f97316" fill-opacity="0.46"/>
<circle cx="533.0" cy="86.5" r="1.45" fill="#f97316" fill-opacity="0.46"/>
<circle cx="536.1" cy="90.3" r="1.45" fill="#f97316" fill-opacity="0.46"/>
<circle cx="539.1" cy="91.3" r="1.45" fill="#f97316" fill-opacity="0.46"/>
<circle cx="542.2" cy="91.3" r="1.45" fill="#f97316" fill-opacity="0.46"/>
<circle cx="545.2" cy="90.8" r="1.45" fill="#f97316" fill-opacity="0.46"/>
<circle cx="520.8" cy="91.3" r="1.45" fill="#f97316" fill-opacity="0.46"/>
<circle cx="523.8" cy="86.0" r="1.45" fill="#f97316" fill-opacity="0.46"/>
<circle cx="526.9" cy="86.0" r="1.45" fill="#f97316" fill-opacity="0.46"/>
<circle cx="529.9" cy="86.0" r="1.45" fill="#f97316" fill-opacity="0.46"/>
<circle cx="533.0" cy="86.0" r="1.45" fill="#f97316" fill-opacity="0.46"/>
<circle cx="536.1" cy="86.0" r="1.45" fill="#f97316" fill-opacity="0.46"/>
<circle cx="539.1" cy="86.0" r="1.45" fill="#f97316" fill-opacity="0.46"/>
<circle cx="542.2" cy="86.0" r="1.45" fill="#f97316" fill-opacity="0.46"/>
<circle cx="545.2" cy="86.0" r="1.45" fill="#f97316" fill-opacity="0.46"/>
<circle cx="520.8" cy="86.0" r="1.45" fill="#f97316" fill-opacity="0.46"/>
<circle cx="523.8" cy="86.0" r="1.45" fill="#f97316" fill-opacity="0.46"/>
<circle cx="526.9" cy="86.5" r="1.45" fill="#f97316" fill-opacity="0.46"/>
<circle cx="529.9" cy="86.5" r="1.45" fill="#f97316" fill-opacity="0.46"/>
<circle cx="533.0" cy="87.6" r="1.45" fill="#f97316" fill-opacity="0.46"/>
<circle cx="536.1" cy="86.5" r="1.45" fill="#f97316" fill-opacity="0.46"/>
<circle cx="539.1" cy="86.5" r="1.45" fill="#f97316" fill-opacity="0.46"/>
<circle cx="542.2" cy="87.1" r="1.45" fill="#f97316" fill-opacity="0.46"/>
<circle cx="545.2" cy="88.7" r="1.45" fill="#f97316" fill-opacity="0.46"/>
<circle cx="520.8" cy="87.6" r="1.45" fill="#f97316" fill-opacity="0.46"/>
<circle cx="523.8" cy="87.1" r="1.45" fill="#f97316" fill-opacity="0.46"/>
<circle cx="526.9" cy="86.0" r="1.45" fill="#f97316" fill-opacity="0.46"/>
<circle cx="529.9" cy="86.0" r="1.45" fill="#f97316" fill-opacity="0.46"/>
<circle cx="533.0" cy="86.5" r="1.45" fill="#f97316" fill-opacity="0.46"/>
<circle cx="536.1" cy="86.5" r="1.45" fill="#f97316" fill-opacity="0.46"/>
<circle cx="539.1" cy="86.5" r="1.45" fill="#f97316" fill-opacity="0.46"/>
<circle cx="542.2" cy="86.5" r="1.45" fill="#f97316" fill-opacity="0.46"/>
<circle cx="545.2" cy="86.0" r="1.45" fill="#f97316" fill-opacity="0.46"/>
<circle cx="520.8" cy="86.0" r="1.45" fill="#f97316" fill-opacity="0.46"/>
<circle cx="523.8" cy="86.0" r="1.45" fill="#f97316" fill-opacity="0.46"/>
<circle cx="526.9" cy="86.0" r="1.45" fill="#f97316" fill-opacity="0.46"/>
<circle cx="529.9" cy="86.0" r="1.45" fill="#f97316" fill-opacity="0.46"/>
<circle cx="533.0" cy="108.1" r="1.45" fill="#f97316" fill-opacity="0.46"/>
<circle cx="536.1" cy="112.5" r="1.45" fill="#f97316" fill-opacity="0.46"/>
<circle cx="539.1" cy="111.1" r="1.45" fill="#f97316" fill-opacity="0.46"/>
<circle cx="542.2" cy="104.7" r="1.45" fill="#f97316" fill-opacity="0.46"/>
<circle cx="545.2" cy="103.1" r="1.45" fill="#f97316" fill-opacity="0.46"/>
<circle cx="520.8" cy="107.6" r="1.45" fill="#f97316" fill-opacity="0.46"/>
<circle cx="523.8" cy="107.1" r="1.45" fill="#f97316" fill-opacity="0.46"/>
<circle cx="526.9" cy="105.1" r="1.45" fill="#f97316" fill-opacity="0.46"/>
<circle cx="529.9" cy="103.7" r="1.45" fill="#f97316" fill-opacity="0.46"/>
<circle cx="533.0" cy="102.7" r="1.45" fill="#f97316" fill-opacity="0.46"/>
<circle cx="536.1" cy="98.6" r="1.45" fill="#f97316" fill-opacity="0.46"/>
<circle cx="539.1" cy="104.1" r="1.45" fill="#f97316" fill-opacity="0.46"/>
<circle cx="542.2" cy="105.1" r="1.45" fill="#f97316" fill-opacity="0.46"/>
<circle cx="545.2" cy="105.1" r="1.45" fill="#f97316" fill-opacity="0.46"/>
<circle cx="520.8" cy="97.6" r="1.45" fill="#f97316" fill-opacity="0.46"/>
<line x1="533.0" y1="86.0" x2="533.0" y2="112.5" stroke="#f97316" stroke-opacity="0.86" stroke-width="1.8"/>
<line x1="520.8" y1="86.0" x2="545.2" y2="86.0" stroke="#f97316" stroke-opacity="0.86" stroke-width="1.8"/>
<line x1="520.8" y1="112.5" x2="545.2" y2="112.5" stroke="#f97316" stroke-opacity="0.86" stroke-width="1.8"/>
<rect x="516.0" y="86.0" width="34.0" height="12.1" rx="2" fill="#f97316" fill-opacity="0.18" stroke="#f97316" stroke-opacity="0.9" stroke-width="1.8"/>
<line x1="516.0" y1="86.5" x2="550.0" y2="86.5" stroke="#f97316" stroke-opacity="0.96" stroke-width="2.6"/>
<text x="556.0" y="90.5" text-anchor="start" font-family="Inter,Segoe UI,Arial,sans-serif" font-size="11" font-weight="700" fill="#111827" stroke="#ffffff" stroke-width="3" paint-order="stroke">99.8%</text>
<circle cx="651.8" cy="120.1" r="1.45" fill="#eab308" fill-opacity="0.46"/>
<circle cx="654.8" cy="111.9" r="1.45" fill="#eab308" fill-opacity="0.46"/>
<circle cx="657.9" cy="135.5" r="1.45" fill="#eab308" fill-opacity="0.46"/>
<circle cx="660.9" cy="101.1" r="1.45" fill="#eab308" fill-opacity="0.46"/>
<circle cx="664.0" cy="97.6" r="1.45" fill="#eab308" fill-opacity="0.46"/>
<circle cx="667.1" cy="93.4" r="1.45" fill="#eab308" fill-opacity="0.46"/>
<circle cx="670.1" cy="103.4" r="1.45" fill="#eab308" fill-opacity="0.46"/>
<circle cx="673.2" cy="130.3" r="1.45" fill="#eab308" fill-opacity="0.46"/>
<circle cx="676.2" cy="122.1" r="1.45" fill="#eab308" fill-opacity="0.46"/>
<circle cx="651.8" cy="123.4" r="1.45" fill="#eab308" fill-opacity="0.46"/>
<circle cx="654.8" cy="121.9" r="1.45" fill="#eab308" fill-opacity="0.46"/>
<circle cx="657.9" cy="103.9" r="1.45" fill="#eab308" fill-opacity="0.46"/>
<circle cx="660.9" cy="115.1" r="1.45" fill="#eab308" fill-opacity="0.46"/>
<circle cx="664.0" cy="115.6" r="1.45" fill="#eab308" fill-opacity="0.46"/>
<circle cx="667.1" cy="125.8" r="1.45" fill="#eab308" fill-opacity="0.46"/>
<circle cx="670.1" cy="126.3" r="1.45" fill="#eab308" fill-opacity="0.46"/>
<circle cx="673.2" cy="128.0" r="1.45" fill="#eab308" fill-opacity="0.46"/>
<circle cx="676.2" cy="135.4" r="1.45" fill="#eab308" fill-opacity="0.46"/>
<circle cx="651.8" cy="119.5" r="1.45" fill="#eab308" fill-opacity="0.46"/>
<circle cx="654.8" cy="120.1" r="1.45" fill="#eab308" fill-opacity="0.46"/>
<circle cx="657.9" cy="103.3" r="1.45" fill="#eab308" fill-opacity="0.46"/>
<circle cx="660.9" cy="144.4" r="1.45" fill="#eab308" fill-opacity="0.46"/>
<circle cx="664.0" cy="96.3" r="1.45" fill="#eab308" fill-opacity="0.46"/>
<circle cx="667.1" cy="108.3" r="1.45" fill="#eab308" fill-opacity="0.46"/>
<circle cx="670.1" cy="100.2" r="1.45" fill="#eab308" fill-opacity="0.46"/>
<circle cx="673.2" cy="106.3" r="1.45" fill="#eab308" fill-opacity="0.46"/>
<circle cx="676.2" cy="104.7" r="1.45" fill="#eab308" fill-opacity="0.46"/>
<circle cx="651.8" cy="106.8" r="1.45" fill="#eab308" fill-opacity="0.46"/>
<circle cx="654.8" cy="99.3" r="1.45" fill="#eab308" fill-opacity="0.46"/>
<circle cx="657.9" cy="110.3" r="1.45" fill="#eab308" fill-opacity="0.46"/>
<circle cx="660.9" cy="95.9" r="1.45" fill="#eab308" fill-opacity="0.46"/>
<circle cx="664.0" cy="92.7" r="1.45" fill="#eab308" fill-opacity="0.46"/>
<circle cx="667.1" cy="106.1" r="1.45" fill="#eab308" fill-opacity="0.46"/>
<circle cx="670.1" cy="107.5" r="1.45" fill="#eab308" fill-opacity="0.46"/>
<circle cx="673.2" cy="103.1" r="1.45" fill="#eab308" fill-opacity="0.46"/>
<circle cx="676.2" cy="114.4" r="1.45" fill="#eab308" fill-opacity="0.46"/>
<circle cx="651.8" cy="110.6" r="1.45" fill="#eab308" fill-opacity="0.46"/>
<circle cx="654.8" cy="94.5" r="1.45" fill="#eab308" fill-opacity="0.46"/>
<circle cx="657.9" cy="118.8" r="1.45" fill="#eab308" fill-opacity="0.46"/>
<circle cx="660.9" cy="108.4" r="1.45" fill="#eab308" fill-opacity="0.46"/>
<circle cx="664.0" cy="154.0" r="1.45" fill="#eab308" fill-opacity="0.46"/>
<circle cx="667.1" cy="174.5" r="1.45" fill="#eab308" fill-opacity="0.46"/>
<circle cx="670.1" cy="96.2" r="1.45" fill="#eab308" fill-opacity="0.46"/>
<circle cx="673.2" cy="91.4" r="1.45" fill="#eab308" fill-opacity="0.46"/>
<circle cx="676.2" cy="140.2" r="1.45" fill="#eab308" fill-opacity="0.46"/>
<circle cx="651.8" cy="173.8" r="1.45" fill="#eab308" fill-opacity="0.46"/>
<circle cx="654.8" cy="189.9" r="1.45" fill="#eab308" fill-opacity="0.46"/>
<circle cx="657.9" cy="188.5" r="1.45" fill="#eab308" fill-opacity="0.46"/>
<circle cx="660.9" cy="167.6" r="1.45" fill="#eab308" fill-opacity="0.46"/>
<circle cx="664.0" cy="110.2" r="1.45" fill="#eab308" fill-opacity="0.46"/>
<circle cx="667.1" cy="123.7" r="1.45" fill="#eab308" fill-opacity="0.46"/>
<circle cx="670.1" cy="109.1" r="1.45" fill="#eab308" fill-opacity="0.46"/>
<circle cx="673.2" cy="99.4" r="1.45" fill="#eab308" fill-opacity="0.46"/>
<circle cx="676.2" cy="120.4" r="1.45" fill="#eab308" fill-opacity="0.46"/>
<circle cx="651.8" cy="95.2" r="1.45" fill="#eab308" fill-opacity="0.46"/>
<line x1="664.0" y1="91.4" x2="664.0" y2="189.9" stroke="#eab308" stroke-opacity="0.86" stroke-width="1.8"/>
<line x1="651.8" y1="91.4" x2="676.2" y2="91.4" stroke="#eab308" stroke-opacity="0.86" stroke-width="1.8"/>
<line x1="651.8" y1="189.9" x2="676.2" y2="189.9" stroke="#eab308" stroke-opacity="0.86" stroke-width="1.8"/>
<rect x="647.0" y="103.2" width="34.0" height="21.5" rx="2" fill="#eab308" fill-opacity="0.18" stroke="#eab308" stroke-opacity="0.9" stroke-width="1.8"/>
<line x1="647.0" y1="110.6" x2="681.0" y2="110.6" stroke="#eab308" stroke-opacity="0.96" stroke-width="2.6"/>
<text x="687.0" y="114.6" text-anchor="start" font-family="Inter,Segoe UI,Arial,sans-serif" font-size="11" font-weight="700" fill="#111827" stroke="#ffffff" stroke-width="3" paint-order="stroke">90.8%</text>
<rect x="64.0" y="433" width="10" height="10" rx="2" fill="#14532d" fill-opacity="0.72"/>
<text x="78.0" y="442" font-family="Inter,Segoe UI,Arial,sans-serif" font-size="10" fill="#374151">MTPLX 0.3.7</text>
<rect x="199.2" y="433" width="10" height="10" rx="2" fill="#7c3aed" fill-opacity="0.72"/>
<text x="213.2" y="442" font-family="Inter,Segoe UI,Arial,sans-serif" font-size="10" fill="#374151">Light. MTP</text>
<rect x="334.4" y="433" width="10" height="10" rx="2" fill="#1e3a8a" fill-opacity="0.72"/>
<text x="348.4" y="442" font-family="Inter,Segoe UI,Arial,sans-serif" font-size="10" fill="#374151">Light. ngram+MTP</text>
<rect x="469.6" y="433" width="10" height="10" rx="2" fill="#f97316" fill-opacity="0.72"/>
<text x="483.6" y="442" font-family="Inter,Segoe UI,Arial,sans-serif" font-size="10" fill="#374151">AX MTP</text>
<rect x="604.8" y="433" width="10" height="10" rx="2" fill="#eab308" fill-opacity="0.72"/>
<text x="618.8" y="442" font-family="Inter,Segoe UI,Arial,sans-serif" font-size="10" fill="#374151">AX MTP+n-gram</text>
</svg>
