<svg xmlns="http://www.w3.org/2000/svg" width="900" height="460" viewBox="0 0 900 460" role="img" aria-labelledby="title desc">
<title>Qwen3.6 27B 4-bit MTP decode throughput</title>
<desc>Grouped box-and-whisker plot comparing MTPLX 0.3.7, Light. MTP, Light. ngram+MTP, AX MTP, AX MTP+n-gram across all suites.</desc>
<rect width="100%" height="100%" fill="#f8fafc"/>
<text x="24" y="24" font-family="Inter,Segoe UI,Arial,sans-serif" font-size="16" font-weight="700" fill="#111827">Qwen3.6 27B 4-bit MTP decode throughput</text>
<text x="24" y="46" font-family="Inter,Segoe UI,Arial,sans-serif" font-size="11" fill="#4b5563">All suites combined | box=IQR | whiskers=min/max | dots=runs</text>
<rect x="807" y="13" width="59" height="22" rx="11" fill="#eef2ff" stroke="#c7d2fe"/>
<text x="836.5" y="28" text-anchor="middle" font-family="Inter,Segoe UI,Arial,sans-serif" font-size="10" font-weight="700" fill="#3730a3">tok/s</text>
<text x="866" y="52" text-anchor="end" font-family="Inter,Segoe UI,Arial,sans-serif" font-size="10" font-weight="700" fill="#374151">Higher is better</text>
<rect x="64" y="86" width="676" height="268" rx="6" fill="#ffffff" stroke="#dbe3ef"/>
<line x1="64" y1="354.0" x2="740" y2="354.0" stroke="#e5e7eb" stroke-width="1"/>
<text x="56" y="357.0" text-anchor="end" font-family="Inter,Segoe UI,Arial,sans-serif" font-size="11" fill="#6b7280">0.0</text>
<line x1="64" y1="287.0" x2="740" y2="287.0" stroke="#e5e7eb" stroke-width="1"/>
<text x="56" y="290.0" text-anchor="end" font-family="Inter,Segoe UI,Arial,sans-serif" font-size="11" fill="#6b7280">20</text>
<line x1="64" y1="220.0" x2="740" y2="220.0" stroke="#e5e7eb" stroke-width="1"/>
<text x="56" y="223.0" text-anchor="end" font-family="Inter,Segoe UI,Arial,sans-serif" font-size="11" fill="#6b7280">40</text>
<line x1="64" y1="153.0" x2="740" y2="153.0" stroke="#e5e7eb" stroke-width="1"/>
<text x="56" y="156.0" text-anchor="end" font-family="Inter,Segoe UI,Arial,sans-serif" font-size="11" fill="#6b7280">60</text>
<line x1="64" y1="86.0" x2="740" y2="86.0" stroke="#e5e7eb" stroke-width="1"/>
<text x="56" y="89.0" text-anchor="end" font-family="Inter,Segoe UI,Arial,sans-serif" font-size="11" fill="#6b7280">80</text>
<line x1="64" y1="135.2" x2="740" y2="135.2" stroke="#dc2626" stroke-width="1.2" stroke-dasharray="1 4" stroke-linecap="round"/>
<text x="748" y="130.2" text-anchor="start" font-family="Inter,Segoe UI,Arial,sans-serif" font-size="11" font-weight="700" fill="#dc2626" data-label="highest median">highest: 65.3</text>
<text x="402.0" y="398" text-anchor="middle" font-family="Inter,Segoe UI,Arial,sans-serif" font-size="11" font-weight="700" fill="#111827">all suites</text>
<circle cx="127.8" cy="158.3" r="1.45" fill="#14532d" fill-opacity="0.46"/>
<circle cx="130.8" cy="156.5" r="1.45" fill="#14532d" fill-opacity="0.46"/>
<circle cx="133.9" cy="157.5" r="1.45" fill="#14532d" fill-opacity="0.46"/>
<circle cx="136.9" cy="157.8" r="1.45" fill="#14532d" fill-opacity="0.46"/>
<circle cx="140.0" cy="157.4" r="1.45" fill="#14532d" fill-opacity="0.46"/>
<circle cx="143.1" cy="157.8" r="1.45" fill="#14532d" fill-opacity="0.46"/>
<circle cx="146.1" cy="157.7" r="1.45" fill="#14532d" fill-opacity="0.46"/>
<circle cx="149.2" cy="156.7" r="1.45" fill="#14532d" fill-opacity="0.46"/>
<circle cx="152.2" cy="156.7" r="1.45" fill="#14532d" fill-opacity="0.46"/>
<circle cx="127.8" cy="157.3" r="1.45" fill="#14532d" fill-opacity="0.46"/>
<circle cx="130.8" cy="156.6" r="1.45" fill="#14532d" fill-opacity="0.46"/>
<circle cx="133.9" cy="157.2" r="1.45" fill="#14532d" fill-opacity="0.46"/>
<circle cx="136.9" cy="157.4" r="1.45" fill="#14532d" fill-opacity="0.46"/>
<circle cx="140.0" cy="156.7" r="1.45" fill="#14532d" fill-opacity="0.46"/>
<circle cx="143.1" cy="156.2" r="1.45" fill="#14532d" fill-opacity="0.46"/>
<circle cx="146.1" cy="156.1" r="1.45" fill="#14532d" fill-opacity="0.46"/>
<circle cx="149.2" cy="156.0" r="1.45" fill="#14532d" fill-opacity="0.46"/>
<circle cx="152.2" cy="156.7" r="1.45" fill="#14532d" fill-opacity="0.46"/>
<circle cx="127.8" cy="156.1" r="1.45" fill="#14532d" fill-opacity="0.46"/>
<circle cx="130.8" cy="156.2" r="1.45" fill="#14532d" fill-opacity="0.46"/>
<circle cx="133.9" cy="158.1" r="1.45" fill="#14532d" fill-opacity="0.46"/>
<circle cx="136.9" cy="158.5" r="1.45" fill="#14532d" fill-opacity="0.46"/>
<circle cx="140.0" cy="157.2" r="1.45" fill="#14532d" fill-opacity="0.46"/>
<circle cx="143.1" cy="157.1" r="1.45" fill="#14532d" fill-opacity="0.46"/>
<circle cx="146.1" cy="158.3" r="1.45" fill="#14532d" fill-opacity="0.46"/>
<circle cx="149.2" cy="159.8" r="1.45" fill="#14532d" fill-opacity="0.46"/>
<circle cx="152.2" cy="160.2" r="1.45" fill="#14532d" fill-opacity="0.46"/>
<circle cx="127.8" cy="158.9" r="1.45" fill="#14532d" fill-opacity="0.46"/>
<circle cx="130.8" cy="159.1" r="1.45" fill="#14532d" fill-opacity="0.46"/>
<circle cx="133.9" cy="159.8" r="1.45" fill="#14532d" fill-opacity="0.46"/>
<circle cx="136.9" cy="159.0" r="1.45" fill="#14532d" fill-opacity="0.46"/>
<circle cx="140.0" cy="158.3" r="1.45" fill="#14532d" fill-opacity="0.46"/>
<circle cx="143.1" cy="155.7" r="1.45" fill="#14532d" fill-opacity="0.46"/>
<circle cx="146.1" cy="158.5" r="1.45" fill="#14532d" fill-opacity="0.46"/>
<circle cx="149.2" cy="159.2" r="1.45" fill="#14532d" fill-opacity="0.46"/>
<circle cx="152.2" cy="156.1" r="1.45" fill="#14532d" fill-opacity="0.46"/>
<circle cx="127.8" cy="157.4" r="1.45" fill="#14532d" fill-opacity="0.46"/>
<circle cx="130.8" cy="156.9" r="1.45" fill="#14532d" fill-opacity="0.46"/>
<circle cx="133.9" cy="157.1" r="1.45" fill="#14532d" fill-opacity="0.46"/>
<circle cx="136.9" cy="157.4" r="1.45" fill="#14532d" fill-opacity="0.46"/>
<circle cx="140.0" cy="184.5" r="1.45" fill="#14532d" fill-opacity="0.46"/>
<circle cx="143.1" cy="180.6" r="1.45" fill="#14532d" fill-opacity="0.46"/>
<circle cx="146.1" cy="179.0" r="1.45" fill="#14532d" fill-opacity="0.46"/>
<circle cx="149.2" cy="178.3" r="1.45" fill="#14532d" fill-opacity="0.46"/>
<circle cx="152.2" cy="177.4" r="1.45" fill="#14532d" fill-opacity="0.46"/>
<circle cx="127.8" cy="171.1" r="1.45" fill="#14532d" fill-opacity="0.46"/>
<circle cx="130.8" cy="175.0" r="1.45" fill="#14532d" fill-opacity="0.46"/>
<circle cx="133.9" cy="169.9" r="1.45" fill="#14532d" fill-opacity="0.46"/>
<circle cx="136.9" cy="173.3" r="1.45" fill="#14532d" fill-opacity="0.46"/>
<circle cx="140.0" cy="169.1" r="1.45" fill="#14532d" fill-opacity="0.46"/>
<circle cx="143.1" cy="167.1" r="1.45" fill="#14532d" fill-opacity="0.46"/>
<circle cx="146.1" cy="168.4" r="1.45" fill="#14532d" fill-opacity="0.46"/>
<circle cx="149.2" cy="163.5" r="1.45" fill="#14532d" fill-opacity="0.46"/>
<circle cx="152.2" cy="160.3" r="1.45" fill="#14532d" fill-opacity="0.46"/>
<circle cx="127.8" cy="167.8" r="1.45" fill="#14532d" fill-opacity="0.46"/>
<line x1="140.0" y1="155.7" x2="140.0" y2="184.5" stroke="#14532d" stroke-opacity="0.86" stroke-width="1.8"/>
<line x1="127.8" y1="155.7" x2="152.2" y2="155.7" stroke="#14532d" stroke-opacity="0.86" stroke-width="1.8"/>
<line x1="127.8" y1="184.5" x2="152.2" y2="184.5" stroke="#14532d" stroke-opacity="0.86" stroke-width="1.8"/>
<rect x="123.0" y="157.0" width="34.0" height="4.9" rx="2" fill="#14532d" fill-opacity="0.18" stroke="#14532d" stroke-opacity="0.9" stroke-width="1.8"/>
<line x1="123.0" y1="158.1" x2="157.0" y2="158.1" stroke="#14532d" stroke-opacity="0.96" stroke-width="2.6"/>
<text x="163.0" y="162.1" text-anchor="start" font-family="Inter,Segoe UI,Arial,sans-serif" font-size="11" font-weight="700" fill="#111827" stroke="#ffffff" stroke-width="3" paint-order="stroke">58.5</text>
<circle cx="258.8" cy="188.4" r="1.45" fill="#7c3aed" fill-opacity="0.46"/>
<circle cx="261.8" cy="187.9" r="1.45" fill="#7c3aed" fill-opacity="0.46"/>
<circle cx="264.9" cy="186.8" r="1.45" fill="#7c3aed" fill-opacity="0.46"/>
<circle cx="267.9" cy="186.3" r="1.45" fill="#7c3aed" fill-opacity="0.46"/>
<circle cx="271.0" cy="187.9" r="1.45" fill="#7c3aed" fill-opacity="0.46"/>
<circle cx="274.1" cy="192.6" r="1.45" fill="#7c3aed" fill-opacity="0.46"/>
<circle cx="277.1" cy="194.1" r="1.45" fill="#7c3aed" fill-opacity="0.46"/>
<circle cx="280.2" cy="193.9" r="1.45" fill="#7c3aed" fill-opacity="0.46"/>
<circle cx="283.2" cy="193.9" r="1.45" fill="#7c3aed" fill-opacity="0.46"/>
<circle cx="258.8" cy="192.7" r="1.45" fill="#7c3aed" fill-opacity="0.46"/>
<circle cx="261.8" cy="188.2" r="1.45" fill="#7c3aed" fill-opacity="0.46"/>
<circle cx="264.9" cy="190.6" r="1.45" fill="#7c3aed" fill-opacity="0.46"/>
<circle cx="267.9" cy="188.1" r="1.45" fill="#7c3aed" fill-opacity="0.46"/>
<circle cx="271.0" cy="187.5" r="1.45" fill="#7c3aed" fill-opacity="0.46"/>
<circle cx="274.1" cy="188.6" r="1.45" fill="#7c3aed" fill-opacity="0.46"/>
<circle cx="277.1" cy="185.7" r="1.45" fill="#7c3aed" fill-opacity="0.46"/>
<circle cx="280.2" cy="184.1" r="1.45" fill="#7c3aed" fill-opacity="0.46"/>
<circle cx="283.2" cy="185.0" r="1.45" fill="#7c3aed" fill-opacity="0.46"/>
<circle cx="258.8" cy="182.4" r="1.45" fill="#7c3aed" fill-opacity="0.46"/>
<circle cx="261.8" cy="181.9" r="1.45" fill="#7c3aed" fill-opacity="0.46"/>
<circle cx="264.9" cy="182.1" r="1.45" fill="#7c3aed" fill-opacity="0.46"/>
<circle cx="267.9" cy="182.3" r="1.45" fill="#7c3aed" fill-opacity="0.46"/>
<circle cx="271.0" cy="181.9" r="1.45" fill="#7c3aed" fill-opacity="0.46"/>
<circle cx="274.1" cy="181.0" r="1.45" fill="#7c3aed" fill-opacity="0.46"/>
<circle cx="277.1" cy="180.6" r="1.45" fill="#7c3aed" fill-opacity="0.46"/>
<circle cx="280.2" cy="184.3" r="1.45" fill="#7c3aed" fill-opacity="0.46"/>
<circle cx="283.2" cy="183.2" r="1.45" fill="#7c3aed" fill-opacity="0.46"/>
<circle cx="258.8" cy="183.6" r="1.45" fill="#7c3aed" fill-opacity="0.46"/>
<circle cx="261.8" cy="185.1" r="1.45" fill="#7c3aed" fill-opacity="0.46"/>
<circle cx="264.9" cy="184.7" r="1.45" fill="#7c3aed" fill-opacity="0.46"/>
<circle cx="267.9" cy="179.9" r="1.45" fill="#7c3aed" fill-opacity="0.46"/>
<circle cx="271.0" cy="180.5" r="1.45" fill="#7c3aed" fill-opacity="0.46"/>
<circle cx="274.1" cy="180.0" r="1.45" fill="#7c3aed" fill-opacity="0.46"/>
<circle cx="277.1" cy="178.4" r="1.45" fill="#7c3aed" fill-opacity="0.46"/>
<circle cx="280.2" cy="181.1" r="1.45" fill="#7c3aed" fill-opacity="0.46"/>
<circle cx="283.2" cy="176.1" r="1.45" fill="#7c3aed" fill-opacity="0.46"/>
<circle cx="258.8" cy="177.6" r="1.45" fill="#7c3aed" fill-opacity="0.46"/>
<circle cx="261.8" cy="176.6" r="1.45" fill="#7c3aed" fill-opacity="0.46"/>
<circle cx="264.9" cy="176.3" r="1.45" fill="#7c3aed" fill-opacity="0.46"/>
<circle cx="267.9" cy="174.5" r="1.45" fill="#7c3aed" fill-opacity="0.46"/>
<circle cx="271.0" cy="204.7" r="1.45" fill="#7c3aed" fill-opacity="0.46"/>
<circle cx="274.1" cy="204.0" r="1.45" fill="#7c3aed" fill-opacity="0.46"/>
<circle cx="277.1" cy="206.8" r="1.45" fill="#7c3aed" fill-opacity="0.46"/>
<circle cx="280.2" cy="205.9" r="1.45" fill="#7c3aed" fill-opacity="0.46"/>
<circle cx="283.2" cy="209.2" r="1.45" fill="#7c3aed" fill-opacity="0.46"/>
<circle cx="258.8" cy="202.0" r="1.45" fill="#7c3aed" fill-opacity="0.46"/>
<circle cx="261.8" cy="196.6" r="1.45" fill="#7c3aed" fill-opacity="0.46"/>
<circle cx="264.9" cy="199.6" r="1.45" fill="#7c3aed" fill-opacity="0.46"/>
<circle cx="267.9" cy="197.0" r="1.45" fill="#7c3aed" fill-opacity="0.46"/>
<circle cx="271.0" cy="192.2" r="1.45" fill="#7c3aed" fill-opacity="0.46"/>
<circle cx="274.1" cy="195.3" r="1.45" fill="#7c3aed" fill-opacity="0.46"/>
<circle cx="277.1" cy="195.2" r="1.45" fill="#7c3aed" fill-opacity="0.46"/>
<circle cx="280.2" cy="188.6" r="1.45" fill="#7c3aed" fill-opacity="0.46"/>
<circle cx="283.2" cy="191.1" r="1.45" fill="#7c3aed" fill-opacity="0.46"/>
<circle cx="258.8" cy="189.8" r="1.45" fill="#7c3aed" fill-opacity="0.46"/>
<line x1="271.0" y1="174.5" x2="271.0" y2="209.2" stroke="#7c3aed" stroke-opacity="0.86" stroke-width="1.8"/>
<line x1="258.8" y1="174.5" x2="283.2" y2="174.5" stroke="#7c3aed" stroke-opacity="0.86" stroke-width="1.8"/>
<line x1="258.8" y1="209.2" x2="283.2" y2="209.2" stroke="#7c3aed" stroke-opacity="0.86" stroke-width="1.8"/>
<rect x="254.0" y="182.0" width="34.0" height="11.3" rx="2" fill="#7c3aed" fill-opacity="0.18" stroke="#7c3aed" stroke-opacity="0.9" stroke-width="1.8"/>
<line x1="254.0" y1="187.5" x2="288.0" y2="187.5" stroke="#7c3aed" stroke-opacity="0.96" stroke-width="2.6"/>
<text x="294.0" y="191.5" text-anchor="start" font-family="Inter,Segoe UI,Arial,sans-serif" font-size="11" font-weight="700" fill="#111827" stroke="#ffffff" stroke-width="3" paint-order="stroke">49.7</text>
<circle cx="389.8" cy="177.1" r="1.45" fill="#1e3a8a" fill-opacity="0.46"/>
<circle cx="392.8" cy="170.4" r="1.45" fill="#1e3a8a" fill-opacity="0.46"/>
<circle cx="395.9" cy="165.5" r="1.45" fill="#1e3a8a" fill-opacity="0.46"/>
<circle cx="398.9" cy="165.8" r="1.45" fill="#1e3a8a" fill-opacity="0.46"/>
<circle cx="402.0" cy="166.4" r="1.45" fill="#1e3a8a" fill-opacity="0.46"/>
<circle cx="405.1" cy="193.7" r="1.45" fill="#1e3a8a" fill-opacity="0.46"/>
<circle cx="408.1" cy="189.0" r="1.45" fill="#1e3a8a" fill-opacity="0.46"/>
<circle cx="411.2" cy="192.8" r="1.45" fill="#1e3a8a" fill-opacity="0.46"/>
<circle cx="414.2" cy="193.9" r="1.45" fill="#1e3a8a" fill-opacity="0.46"/>
<circle cx="389.8" cy="191.0" r="1.45" fill="#1e3a8a" fill-opacity="0.46"/>
<circle cx="392.8" cy="188.6" r="1.45" fill="#1e3a8a" fill-opacity="0.46"/>
<circle cx="395.9" cy="189.3" r="1.45" fill="#1e3a8a" fill-opacity="0.46"/>
<circle cx="398.9" cy="188.5" r="1.45" fill="#1e3a8a" fill-opacity="0.46"/>
<circle cx="402.0" cy="186.1" r="1.45" fill="#1e3a8a" fill-opacity="0.46"/>
<circle cx="405.1" cy="185.9" r="1.45" fill="#1e3a8a" fill-opacity="0.46"/>
<circle cx="408.1" cy="169.2" r="1.45" fill="#1e3a8a" fill-opacity="0.46"/>
<circle cx="411.2" cy="169.5" r="1.45" fill="#1e3a8a" fill-opacity="0.46"/>
<circle cx="414.2" cy="168.5" r="1.45" fill="#1e3a8a" fill-opacity="0.46"/>
<circle cx="389.8" cy="168.1" r="1.45" fill="#1e3a8a" fill-opacity="0.46"/>
<circle cx="392.8" cy="168.4" r="1.45" fill="#1e3a8a" fill-opacity="0.46"/>
<circle cx="395.9" cy="156.8" r="1.45" fill="#1e3a8a" fill-opacity="0.46"/>
<circle cx="398.9" cy="156.5" r="1.45" fill="#1e3a8a" fill-opacity="0.46"/>
<circle cx="402.0" cy="156.5" r="1.45" fill="#1e3a8a" fill-opacity="0.46"/>
<circle cx="405.1" cy="157.3" r="1.45" fill="#1e3a8a" fill-opacity="0.46"/>
<circle cx="408.1" cy="155.2" r="1.45" fill="#1e3a8a" fill-opacity="0.46"/>
<circle cx="411.2" cy="171.8" r="1.45" fill="#1e3a8a" fill-opacity="0.46"/>
<circle cx="414.2" cy="165.2" r="1.45" fill="#1e3a8a" fill-opacity="0.46"/>
<circle cx="389.8" cy="167.3" r="1.45" fill="#1e3a8a" fill-opacity="0.46"/>
<circle cx="392.8" cy="169.8" r="1.45" fill="#1e3a8a" fill-opacity="0.46"/>
<circle cx="395.9" cy="172.7" r="1.45" fill="#1e3a8a" fill-opacity="0.46"/>
<circle cx="398.9" cy="158.1" r="1.45" fill="#1e3a8a" fill-opacity="0.46"/>
<circle cx="402.0" cy="170.3" r="1.45" fill="#1e3a8a" fill-opacity="0.46"/>
<circle cx="405.1" cy="155.4" r="1.45" fill="#1e3a8a" fill-opacity="0.46"/>
<circle cx="408.1" cy="171.3" r="1.45" fill="#1e3a8a" fill-opacity="0.46"/>
<circle cx="411.2" cy="170.7" r="1.45" fill="#1e3a8a" fill-opacity="0.46"/>
<circle cx="414.2" cy="172.2" r="1.45" fill="#1e3a8a" fill-opacity="0.46"/>
<circle cx="389.8" cy="172.9" r="1.45" fill="#1e3a8a" fill-opacity="0.46"/>
<circle cx="392.8" cy="171.1" r="1.45" fill="#1e3a8a" fill-opacity="0.46"/>
<circle cx="395.9" cy="170.5" r="1.45" fill="#1e3a8a" fill-opacity="0.46"/>
<circle cx="398.9" cy="171.9" r="1.45" fill="#1e3a8a" fill-opacity="0.46"/>
<circle cx="402.0" cy="206.6" r="1.45" fill="#1e3a8a" fill-opacity="0.46"/>
<circle cx="405.1" cy="208.4" r="1.45" fill="#1e3a8a" fill-opacity="0.46"/>
<circle cx="408.1" cy="200.0" r="1.45" fill="#1e3a8a" fill-opacity="0.46"/>
<circle cx="411.2" cy="204.0" r="1.45" fill="#1e3a8a" fill-opacity="0.46"/>
<circle cx="414.2" cy="208.9" r="1.45" fill="#1e3a8a" fill-opacity="0.46"/>
<circle cx="389.8" cy="203.1" r="1.45" fill="#1e3a8a" fill-opacity="0.46"/>
<circle cx="392.8" cy="199.0" r="1.45" fill="#1e3a8a" fill-opacity="0.46"/>
<circle cx="395.9" cy="205.5" r="1.45" fill="#1e3a8a" fill-opacity="0.46"/>
<circle cx="398.9" cy="204.6" r="1.45" fill="#1e3a8a" fill-opacity="0.46"/>
<circle cx="402.0" cy="198.2" r="1.45" fill="#1e3a8a" fill-opacity="0.46"/>
<circle cx="405.1" cy="200.3" r="1.45" fill="#1e3a8a" fill-opacity="0.46"/>
<circle cx="408.1" cy="194.7" r="1.45" fill="#1e3a8a" fill-opacity="0.46"/>
<circle cx="411.2" cy="194.9" r="1.45" fill="#1e3a8a" fill-opacity="0.46"/>
<circle cx="414.2" cy="195.9" r="1.45" fill="#1e3a8a" fill-opacity="0.46"/>
<circle cx="389.8" cy="203.6" r="1.45" fill="#1e3a8a" fill-opacity="0.46"/>
<line x1="402.0" y1="155.2" x2="402.0" y2="208.9" stroke="#1e3a8a" stroke-opacity="0.86" stroke-width="1.8"/>
<line x1="389.8" y1="155.2" x2="414.2" y2="155.2" stroke="#1e3a8a" stroke-opacity="0.86" stroke-width="1.8"/>
<line x1="389.8" y1="208.9" x2="414.2" y2="208.9" stroke="#1e3a8a" stroke-opacity="0.86" stroke-width="1.8"/>
<rect x="385.0" y="168.5" width="34.0" height="26.3" rx="2" fill="#1e3a8a" fill-opacity="0.18" stroke="#1e3a8a" stroke-opacity="0.9" stroke-width="1.8"/>
<line x1="385.0" y1="172.7" x2="419.0" y2="172.7" stroke="#1e3a8a" stroke-opacity="0.96" stroke-width="2.6"/>
<text x="425.0" y="176.7" text-anchor="start" font-family="Inter,Segoe UI,Arial,sans-serif" font-size="11" font-weight="700" fill="#111827" stroke="#ffffff" stroke-width="3" paint-order="stroke">54.1</text>
<circle cx="520.8" cy="134.8" r="1.45" fill="#f97316" fill-opacity="0.46"/>
<circle cx="523.8" cy="155.2" r="1.45" fill="#f97316" fill-opacity="0.46"/>
<circle cx="526.9" cy="131.4" r="1.45" fill="#f97316" fill-opacity="0.46"/>
<circle cx="529.9" cy="131.5" r="1.45" fill="#f97316" fill-opacity="0.46"/>
<circle cx="533.0" cy="132.8" r="1.45" fill="#f97316" fill-opacity="0.46"/>
<circle cx="536.1" cy="139.5" r="1.45" fill="#f97316" fill-opacity="0.46"/>
<circle cx="539.1" cy="135.2" r="1.45" fill="#f97316" fill-opacity="0.46"/>
<circle cx="542.2" cy="133.0" r="1.45" fill="#f97316" fill-opacity="0.46"/>
<circle cx="545.2" cy="183.4" r="1.45" fill="#f97316" fill-opacity="0.46"/>
<circle cx="520.8" cy="146.6" r="1.45" fill="#f97316" fill-opacity="0.46"/>
<circle cx="523.8" cy="173.6" r="1.45" fill="#f97316" fill-opacity="0.46"/>
<line x1="533.0" y1="131.4" x2="533.0" y2="183.4" stroke="#f97316" stroke-opacity="0.86" stroke-width="1.8"/>
<line x1="520.8" y1="131.4" x2="545.2" y2="131.4" stroke="#f97316" stroke-opacity="0.86" stroke-width="1.8"/>
<line x1="520.8" y1="183.4" x2="545.2" y2="183.4" stroke="#f97316" stroke-opacity="0.86" stroke-width="1.8"/>
<rect x="516.0" y="132.9" width="34.0" height="18.0" rx="2" fill="#f97316" fill-opacity="0.18" stroke="#f97316" stroke-opacity="0.9" stroke-width="1.8"/>
<line x1="516.0" y1="135.2" x2="550.0" y2="135.2" stroke="#f97316" stroke-opacity="0.96" stroke-width="2.6"/>
<text x="556.0" y="139.2" text-anchor="start" font-family="Inter,Segoe UI,Arial,sans-serif" font-size="11" font-weight="700" fill="#111827" stroke="#ffffff" stroke-width="3" paint-order="stroke">65.3</text>
<circle cx="651.8" cy="136.5" r="1.45" fill="#eab308" fill-opacity="0.46"/>
<circle cx="654.8" cy="147.6" r="1.45" fill="#eab308" fill-opacity="0.46"/>
<circle cx="657.9" cy="154.1" r="1.45" fill="#eab308" fill-opacity="0.46"/>
<circle cx="660.9" cy="142.5" r="1.45" fill="#eab308" fill-opacity="0.46"/>
<circle cx="664.0" cy="112.1" r="1.45" fill="#eab308" fill-opacity="0.46"/>
<circle cx="667.1" cy="110.7" r="1.45" fill="#eab308" fill-opacity="0.46"/>
<circle cx="670.1" cy="121.5" r="1.45" fill="#eab308" fill-opacity="0.46"/>
<circle cx="673.2" cy="140.6" r="1.45" fill="#eab308" fill-opacity="0.46"/>
<circle cx="676.2" cy="141.3" r="1.45" fill="#eab308" fill-opacity="0.46"/>
<circle cx="651.8" cy="166.8" r="1.45" fill="#eab308" fill-opacity="0.46"/>
<circle cx="654.8" cy="150.1" r="1.45" fill="#eab308" fill-opacity="0.46"/>
<line x1="664.0" y1="110.7" x2="664.0" y2="166.8" stroke="#eab308" stroke-opacity="0.86" stroke-width="1.8"/>
<line x1="651.8" y1="110.7" x2="676.2" y2="110.7" stroke="#eab308" stroke-opacity="0.86" stroke-width="1.8"/>
<line x1="651.8" y1="166.8" x2="676.2" y2="166.8" stroke="#eab308" stroke-opacity="0.86" stroke-width="1.8"/>
<rect x="647.0" y="129.0" width="34.0" height="19.8" rx="2" fill="#eab308" fill-opacity="0.18" stroke="#eab308" stroke-opacity="0.9" stroke-width="1.8"/>
<line x1="647.0" y1="141.3" x2="681.0" y2="141.3" stroke="#eab308" stroke-opacity="0.96" stroke-width="2.6"/>
<text x="687.0" y="145.3" text-anchor="start" font-family="Inter,Segoe UI,Arial,sans-serif" font-size="11" font-weight="700" fill="#111827" stroke="#ffffff" stroke-width="3" paint-order="stroke">63.5</text>
<rect x="64.0" y="433" width="10" height="10" rx="2" fill="#14532d" fill-opacity="0.72"/>
<text x="78.0" y="442" font-family="Inter,Segoe UI,Arial,sans-serif" font-size="10" fill="#374151">MTPLX 0.3.7</text>
<rect x="199.2" y="433" width="10" height="10" rx="2" fill="#7c3aed" fill-opacity="0.72"/>
<text x="213.2" y="442" font-family="Inter,Segoe UI,Arial,sans-serif" font-size="10" fill="#374151">Light. MTP</text>
<rect x="334.4" y="433" width="10" height="10" rx="2" fill="#1e3a8a" fill-opacity="0.72"/>
<text x="348.4" y="442" font-family="Inter,Segoe UI,Arial,sans-serif" font-size="10" fill="#374151">Light. ngram+MTP</text>
<rect x="469.6" y="433" width="10" height="10" rx="2" fill="#f97316" fill-opacity="0.72"/>
<text x="483.6" y="442" font-family="Inter,Segoe UI,Arial,sans-serif" font-size="10" fill="#374151">AX MTP</text>
<rect x="604.8" y="433" width="10" height="10" rx="2" fill="#eab308" fill-opacity="0.72"/>
<text x="618.8" y="442" font-family="Inter,Segoe UI,Arial,sans-serif" font-size="10" fill="#374151">AX MTP+n-gram</text>
</svg>
