<svg xmlns="http://www.w3.org/2000/svg" width="760" height="430" viewBox="0 0 760 430" role="img">
<rect width="100%" height="100%" fill="#ffffff"/>
<text x="24" y="30" font-family="Inter,Segoe UI,Arial,sans-serif" font-size="18" font-weight="700" fill="#111827">Qwen3.6 35B-A3B 4-bit MTP decode throughput</text>
<text x="736" y="30" text-anchor="end" font-family="Inter,Segoe UI,Arial,sans-serif" font-size="11" fill="#4b5563">tok/s, higher is better</text>
<line x1="60" y1="358.0" x2="732" y2="358.0" stroke="#e5e7eb" stroke-width="1"/>
<text x="52" y="361.0" text-anchor="end" font-family="Inter,Segoe UI,Arial,sans-serif" font-size="10" fill="#6b7280">0</text>
<line x1="60" y1="261.3" x2="732" y2="261.3" stroke="#e5e7eb" stroke-width="1"/>
<text x="52" y="264.3" text-anchor="end" font-family="Inter,Segoe UI,Arial,sans-serif" font-size="10" fill="#6b7280">100</text>
<line x1="60" y1="164.7" x2="732" y2="164.7" stroke="#e5e7eb" stroke-width="1"/>
<text x="52" y="167.7" text-anchor="end" font-family="Inter,Segoe UI,Arial,sans-serif" font-size="10" fill="#6b7280">200</text>
<line x1="60" y1="68.0" x2="732" y2="68.0" stroke="#e5e7eb" stroke-width="1"/>
<text x="52" y="71.0" text-anchor="end" font-family="Inter,Segoe UI,Arial,sans-serif" font-size="10" fill="#6b7280">300</text>
<text x="172.0" y="396" text-anchor="middle" font-family="Inter,Segoe UI,Arial,sans-serif" font-size="11" font-weight="700" fill="#111827">flappy</text>
<rect x="82.0" y="254.3" width="29.6" height="103.7" rx="2" fill="#a78bfa" fill-opacity="0.86"/>
<text x="96.8" y="249.3" text-anchor="middle" font-family="Inter,Segoe UI,Arial,sans-serif" font-size="10" font-weight="700" fill="#111827">107.3</text>
<rect x="119.6" y="215.0" width="29.6" height="143.0" rx="2" fill="#60a5fa" fill-opacity="0.86"/>
<text x="134.4" y="210.0" text-anchor="middle" font-family="Inter,Segoe UI,Arial,sans-serif" font-size="10" font-weight="700" fill="#111827">147.9</text>
<rect x="157.2" y="189.9" width="29.6" height="168.1" rx="2" fill="#1d4ed8" fill-opacity="0.86"/>
<text x="172.0" y="184.9" text-anchor="middle" font-family="Inter,Segoe UI,Arial,sans-serif" font-size="10" font-weight="700" fill="#111827">173.9</text>
<rect x="194.8" y="181.6" width="29.6" height="176.4" rx="2" fill="#86efac" fill-opacity="0.86"/>
<text x="209.6" y="176.6" text-anchor="middle" font-family="Inter,Segoe UI,Arial,sans-serif" font-size="10" font-weight="700" fill="#111827">182.5</text>
<rect x="232.4" y="105.0" width="29.6" height="253.0" rx="2" fill="#15803d" fill-opacity="0.86"/>
<text x="247.2" y="100.0" text-anchor="middle" font-family="Inter,Segoe UI,Arial,sans-serif" font-size="10" font-weight="700" fill="#111827">261.7</text>
<text x="396.0" y="396" text-anchor="middle" font-family="Inter,Segoe UI,Arial,sans-serif" font-size="11" font-weight="700" fill="#111827">long_code</text>
<rect x="306.0" y="255.2" width="29.6" height="102.8" rx="2" fill="#a78bfa" fill-opacity="0.86"/>
<text x="320.8" y="250.2" text-anchor="middle" font-family="Inter,Segoe UI,Arial,sans-serif" font-size="10" font-weight="700" fill="#111827">106.4</text>
<rect x="343.6" y="214.0" width="29.6" height="144.0" rx="2" fill="#60a5fa" fill-opacity="0.86"/>
<text x="358.4" y="209.0" text-anchor="middle" font-family="Inter,Segoe UI,Arial,sans-serif" font-size="10" font-weight="700" fill="#111827">149.0</text>
<rect x="381.2" y="169.6" width="29.6" height="188.4" rx="2" fill="#1d4ed8" fill-opacity="0.86"/>
<text x="396.0" y="164.6" text-anchor="middle" font-family="Inter,Segoe UI,Arial,sans-serif" font-size="10" font-weight="700" fill="#111827">194.9</text>
<rect x="418.8" y="183.3" width="29.6" height="174.7" rx="2" fill="#86efac" fill-opacity="0.86"/>
<text x="433.6" y="178.3" text-anchor="middle" font-family="Inter,Segoe UI,Arial,sans-serif" font-size="10" font-weight="700" fill="#111827">180.7</text>
<rect x="456.4" y="89.9" width="29.6" height="268.1" rx="2" fill="#15803d" fill-opacity="0.86"/>
<text x="471.2" y="84.9" text-anchor="middle" font-family="Inter,Segoe UI,Arial,sans-serif" font-size="10" font-weight="700" fill="#111827">277.3</text>
<text x="620.0" y="396" text-anchor="middle" font-family="Inter,Segoe UI,Arial,sans-serif" font-size="11" font-weight="700" fill="#111827">python_modules_long</text>
<rect x="530.0" y="258.7" width="29.6" height="99.3" rx="2" fill="#a78bfa" fill-opacity="0.86"/>
<text x="544.8" y="253.7" text-anchor="middle" font-family="Inter,Segoe UI,Arial,sans-serif" font-size="10" font-weight="700" fill="#111827">102.7</text>
<rect x="567.6" y="214.2" width="29.6" height="143.8" rx="2" fill="#60a5fa" fill-opacity="0.86"/>
<text x="582.4" y="209.2" text-anchor="middle" font-family="Inter,Segoe UI,Arial,sans-serif" font-size="10" font-weight="700" fill="#111827">148.8</text>
<rect x="605.2" y="226.5" width="29.6" height="131.5" rx="2" fill="#1d4ed8" fill-opacity="0.86"/>
<text x="620.0" y="221.5" text-anchor="middle" font-family="Inter,Segoe UI,Arial,sans-serif" font-size="10" font-weight="700" fill="#111827">136.1</text>
<rect x="642.8" y="185.8" width="29.6" height="172.2" rx="2" fill="#86efac" fill-opacity="0.86"/>
<text x="657.6" y="180.8" text-anchor="middle" font-family="Inter,Segoe UI,Arial,sans-serif" font-size="10" font-weight="700" fill="#111827">178.1</text>
<rect x="680.4" y="168.3" width="29.6" height="189.7" rx="2" fill="#15803d" fill-opacity="0.86"/>
<text x="695.2" y="163.3" text-anchor="middle" font-family="Inter,Segoe UI,Arial,sans-serif" font-size="10" font-weight="700" fill="#111827">196.3</text>
<rect x="60" y="407" width="10" height="10" rx="2" fill="#a78bfa" fill-opacity="0.86"/>
<text x="74" y="416" font-family="Inter,Segoe UI,Arial,sans-serif" font-size="10" fill="#374151">MTPLX 0.3.7</text>
<rect x="190" y="407" width="10" height="10" rx="2" fill="#60a5fa" fill-opacity="0.86"/>
<text x="204" y="416" font-family="Inter,Segoe UI,Arial,sans-serif" font-size="10" fill="#374151">Light. MTP</text>
<rect x="320" y="407" width="10" height="10" rx="2" fill="#1d4ed8" fill-opacity="0.86"/>
<text x="334" y="416" font-family="Inter,Segoe UI,Arial,sans-serif" font-size="10" fill="#374151">Light. ngram+MTP</text>
<rect x="450" y="407" width="10" height="10" rx="2" fill="#86efac" fill-opacity="0.86"/>
<text x="464" y="416" font-family="Inter,Segoe UI,Arial,sans-serif" font-size="10" fill="#374151">AX MTP</text>
<rect x="580" y="407" width="10" height="10" rx="2" fill="#15803d" fill-opacity="0.86"/>
<text x="594" y="416" font-family="Inter,Segoe UI,Arial,sans-serif" font-size="10" fill="#374151">AX MTP+n-gram</text>
</svg>
