<svg xmlns="http://www.w3.org/2000/svg" width="760" height="430" viewBox="0 0 760 430" role="img">
<rect width="100%" height="100%" fill="#ffffff"/>
<text x="24" y="30" font-family="Inter,Segoe UI,Arial,sans-serif" font-size="18" font-weight="700" fill="#111827">Qwen3.6 27B 4-bit MTP decode throughput</text>
<text x="736" y="30" text-anchor="end" font-family="Inter,Segoe UI,Arial,sans-serif" font-size="11" fill="#4b5563">tok/s, higher is better</text>
<line x1="60" y1="358.0" x2="732" y2="358.0" stroke="#e5e7eb" stroke-width="1"/>
<text x="52" y="361.0" text-anchor="end" font-family="Inter,Segoe UI,Arial,sans-serif" font-size="10" fill="#6b7280">0</text>
<line x1="60" y1="261.3" x2="732" y2="261.3" stroke="#e5e7eb" stroke-width="1"/>
<text x="52" y="264.3" text-anchor="end" font-family="Inter,Segoe UI,Arial,sans-serif" font-size="10" fill="#6b7280">27</text>
<line x1="60" y1="164.7" x2="732" y2="164.7" stroke="#e5e7eb" stroke-width="1"/>
<text x="52" y="167.7" text-anchor="end" font-family="Inter,Segoe UI,Arial,sans-serif" font-size="10" fill="#6b7280">53</text>
<line x1="60" y1="68.0" x2="732" y2="68.0" stroke="#e5e7eb" stroke-width="1"/>
<text x="52" y="71.0" text-anchor="end" font-family="Inter,Segoe UI,Arial,sans-serif" font-size="10" fill="#6b7280">80</text>
<text x="172.0" y="396" text-anchor="middle" font-family="Inter,Segoe UI,Arial,sans-serif" font-size="11" font-weight="700" fill="#111827">flappy</text>
<rect x="82.0" y="171.3" width="29.6" height="186.7" rx="2" fill="#a78bfa" fill-opacity="0.86"/>
<text x="96.8" y="166.3" text-anchor="middle" font-family="Inter,Segoe UI,Arial,sans-serif" font-size="10" font-weight="700" fill="#111827">51.5</text>
<rect x="119.6" y="178.4" width="29.6" height="179.6" rx="2" fill="#60a5fa" fill-opacity="0.86"/>
<text x="134.4" y="173.4" text-anchor="middle" font-family="Inter,Segoe UI,Arial,sans-serif" font-size="10" font-weight="700" fill="#111827">49.5</text>
<rect x="157.2" y="168.1" width="29.6" height="189.9" rx="2" fill="#1d4ed8" fill-opacity="0.86"/>
<text x="172.0" y="163.1" text-anchor="middle" font-family="Inter,Segoe UI,Arial,sans-serif" font-size="10" font-weight="700" fill="#111827">52.4</text>
<rect x="194.8" y="119.0" width="29.6" height="239.0" rx="2" fill="#86efac" fill-opacity="0.86"/>
<text x="209.6" y="114.0" text-anchor="middle" font-family="Inter,Segoe UI,Arial,sans-serif" font-size="10" font-weight="700" fill="#111827">65.9</text>
<rect x="232.4" y="131.9" width="29.6" height="226.1" rx="2" fill="#15803d" fill-opacity="0.86"/>
<text x="247.2" y="126.9" text-anchor="middle" font-family="Inter,Segoe UI,Arial,sans-serif" font-size="10" font-weight="700" fill="#111827">62.4</text>
<text x="396.0" y="396" text-anchor="middle" font-family="Inter,Segoe UI,Arial,sans-serif" font-size="11" font-weight="700" fill="#111827">long_code</text>
<rect x="306.0" y="164.1" width="29.6" height="193.9" rx="2" fill="#a78bfa" fill-opacity="0.86"/>
<text x="320.8" y="159.1" text-anchor="middle" font-family="Inter,Segoe UI,Arial,sans-serif" font-size="10" font-weight="700" fill="#111827">53.5</text>
<rect x="343.6" y="170.7" width="29.6" height="187.3" rx="2" fill="#60a5fa" fill-opacity="0.86"/>
<text x="358.4" y="165.7" text-anchor="middle" font-family="Inter,Segoe UI,Arial,sans-serif" font-size="10" font-weight="700" fill="#111827">51.7</text>
<rect x="381.2" y="158.9" width="29.6" height="199.1" rx="2" fill="#1d4ed8" fill-opacity="0.86"/>
<text x="396.0" y="153.9" text-anchor="middle" font-family="Inter,Segoe UI,Arial,sans-serif" font-size="10" font-weight="700" fill="#111827">54.9</text>
<rect x="418.8" y="120.1" width="29.6" height="237.9" rx="2" fill="#86efac" fill-opacity="0.86"/>
<text x="433.6" y="115.1" text-anchor="middle" font-family="Inter,Segoe UI,Arial,sans-serif" font-size="10" font-weight="700" fill="#111827">65.6</text>
<rect x="456.4" y="101.4" width="29.6" height="256.6" rx="2" fill="#15803d" fill-opacity="0.86"/>
<text x="471.2" y="96.4" text-anchor="middle" font-family="Inter,Segoe UI,Arial,sans-serif" font-size="10" font-weight="700" fill="#111827">70.8</text>
<text x="620.0" y="396" text-anchor="middle" font-family="Inter,Segoe UI,Arial,sans-serif" font-size="11" font-weight="700" fill="#111827">python_modules_long</text>
<rect x="530.0" y="170.8" width="29.6" height="187.2" rx="2" fill="#a78bfa" fill-opacity="0.86"/>
<text x="544.8" y="165.8" text-anchor="middle" font-family="Inter,Segoe UI,Arial,sans-serif" font-size="10" font-weight="700" fill="#111827">51.6</text>
<rect x="567.6" y="188.1" width="29.6" height="169.9" rx="2" fill="#60a5fa" fill-opacity="0.86"/>
<text x="582.4" y="183.1" text-anchor="middle" font-family="Inter,Segoe UI,Arial,sans-serif" font-size="10" font-weight="700" fill="#111827">46.9</text>
<rect x="605.2" y="194.7" width="29.6" height="163.3" rx="2" fill="#1d4ed8" fill-opacity="0.86"/>
<text x="620.0" y="189.7" text-anchor="middle" font-family="Inter,Segoe UI,Arial,sans-serif" font-size="10" font-weight="700" fill="#111827">45.0</text>
<rect x="642.8" y="162.8" width="29.6" height="195.2" rx="2" fill="#86efac" fill-opacity="0.86"/>
<text x="657.6" y="157.8" text-anchor="middle" font-family="Inter,Segoe UI,Arial,sans-serif" font-size="10" font-weight="700" fill="#111827">53.8</text>
<rect x="680.4" y="137.3" width="29.6" height="220.7" rx="2" fill="#15803d" fill-opacity="0.86"/>
<text x="695.2" y="132.3" text-anchor="middle" font-family="Inter,Segoe UI,Arial,sans-serif" font-size="10" font-weight="700" fill="#111827">60.9</text>
<rect x="60" y="407" width="10" height="10" rx="2" fill="#a78bfa" fill-opacity="0.86"/>
<text x="74" y="416" font-family="Inter,Segoe UI,Arial,sans-serif" font-size="10" fill="#374151">MTPLX 0.3.7</text>
<rect x="190" y="407" width="10" height="10" rx="2" fill="#60a5fa" fill-opacity="0.86"/>
<text x="204" y="416" font-family="Inter,Segoe UI,Arial,sans-serif" font-size="10" fill="#374151">Light. MTP</text>
<rect x="320" y="407" width="10" height="10" rx="2" fill="#1d4ed8" fill-opacity="0.86"/>
<text x="334" y="416" font-family="Inter,Segoe UI,Arial,sans-serif" font-size="10" fill="#374151">Light. ngram+MTP</text>
<rect x="450" y="407" width="10" height="10" rx="2" fill="#86efac" fill-opacity="0.86"/>
<text x="464" y="416" font-family="Inter,Segoe UI,Arial,sans-serif" font-size="10" fill="#374151">AX MTP</text>
<rect x="580" y="407" width="10" height="10" rx="2" fill="#15803d" fill-opacity="0.86"/>
<text x="594" y="416" font-family="Inter,Segoe UI,Arial,sans-serif" font-size="10" fill="#374151">AX MTP+n-gram</text>
</svg>
