<svg xmlns="http://www.w3.org/2000/svg" width="760" height="430" viewBox="0 0 760 430" role="img">
<rect width="100%" height="100%" fill="#ffffff"/>
<text x="24" y="30" font-family="Inter,Segoe UI,Arial,sans-serif" font-size="18" font-weight="700" fill="#111827">Qwen3.6 35B-A3B 4-bit MTP decode throughput</text>
<text x="736" y="30" text-anchor="end" font-family="Inter,Segoe UI,Arial,sans-serif" font-size="11" fill="#4b5563">tok/s, higher is better</text>
<line x1="60" y1="358.0" x2="732" y2="358.0" stroke="#e5e7eb" stroke-width="1"/>
<text x="52" y="361.0" text-anchor="end" font-family="Inter,Segoe UI,Arial,sans-serif" font-size="10" fill="#6b7280">0</text>
<line x1="60" y1="261.3" x2="732" y2="261.3" stroke="#e5e7eb" stroke-width="1"/>
<text x="52" y="264.3" text-anchor="end" font-family="Inter,Segoe UI,Arial,sans-serif" font-size="10" fill="#6b7280">92</text>
<line x1="60" y1="164.7" x2="732" y2="164.7" stroke="#e5e7eb" stroke-width="1"/>
<text x="52" y="167.7" text-anchor="end" font-family="Inter,Segoe UI,Arial,sans-serif" font-size="10" fill="#6b7280">185</text>
<line x1="60" y1="68.0" x2="732" y2="68.0" stroke="#e5e7eb" stroke-width="1"/>
<text x="52" y="71.0" text-anchor="end" font-family="Inter,Segoe UI,Arial,sans-serif" font-size="10" fill="#6b7280">277</text>
<text x="172.0" y="396" text-anchor="middle" font-family="Inter,Segoe UI,Arial,sans-serif" font-size="11" font-weight="700" fill="#111827">flappy</text>
<rect x="82.0" y="245.8" width="29.6" height="112.2" rx="2" fill="#a78bfa" fill-opacity="0.86"/>
<text x="96.8" y="240.8" text-anchor="middle" font-family="Inter,Segoe UI,Arial,sans-serif" font-size="10" font-weight="700" fill="#111827">107.3</text>
<rect x="119.6" y="203.4" width="29.6" height="154.6" rx="2" fill="#60a5fa" fill-opacity="0.86"/>
<text x="134.4" y="198.4" text-anchor="middle" font-family="Inter,Segoe UI,Arial,sans-serif" font-size="10" font-weight="700" fill="#111827">147.9</text>
<rect x="157.2" y="176.1" width="29.6" height="181.9" rx="2" fill="#1d4ed8" fill-opacity="0.86"/>
<text x="172.0" y="171.1" text-anchor="middle" font-family="Inter,Segoe UI,Arial,sans-serif" font-size="10" font-weight="700" fill="#111827">173.9</text>
<rect x="194.8" y="167.2" width="29.6" height="190.8" rx="2" fill="#86efac" fill-opacity="0.86"/>
<text x="209.6" y="162.2" text-anchor="middle" font-family="Inter,Segoe UI,Arial,sans-serif" font-size="10" font-weight="700" fill="#111827">182.5</text>
<rect x="232.4" y="84.3" width="29.6" height="273.7" rx="2" fill="#4ade80" fill-opacity="0.86"/>
<text x="247.2" y="79.3" text-anchor="middle" font-family="Inter,Segoe UI,Arial,sans-serif" font-size="10" font-weight="700" fill="#111827">261.7</text>
<text x="396.0" y="396" text-anchor="middle" font-family="Inter,Segoe UI,Arial,sans-serif" font-size="11" font-weight="700" fill="#111827">long_code</text>
<rect x="306.0" y="246.8" width="29.6" height="111.2" rx="2" fill="#a78bfa" fill-opacity="0.86"/>
<text x="320.8" y="241.8" text-anchor="middle" font-family="Inter,Segoe UI,Arial,sans-serif" font-size="10" font-weight="700" fill="#111827">106.4</text>
<rect x="343.6" y="202.2" width="29.6" height="155.8" rx="2" fill="#60a5fa" fill-opacity="0.86"/>
<text x="358.4" y="197.2" text-anchor="middle" font-family="Inter,Segoe UI,Arial,sans-serif" font-size="10" font-weight="700" fill="#111827">149.0</text>
<rect x="381.2" y="154.2" width="29.6" height="203.8" rx="2" fill="#1d4ed8" fill-opacity="0.86"/>
<text x="396.0" y="149.2" text-anchor="middle" font-family="Inter,Segoe UI,Arial,sans-serif" font-size="10" font-weight="700" fill="#111827">194.9</text>
<rect x="418.8" y="169.1" width="29.6" height="188.9" rx="2" fill="#86efac" fill-opacity="0.86"/>
<text x="433.6" y="164.1" text-anchor="middle" font-family="Inter,Segoe UI,Arial,sans-serif" font-size="10" font-weight="700" fill="#111827">180.7</text>
<rect x="456.4" y="68.0" width="29.6" height="290.0" rx="2" fill="#4ade80" fill-opacity="0.86"/>
<text x="471.2" y="78.0" text-anchor="middle" font-family="Inter,Segoe UI,Arial,sans-serif" font-size="10" font-weight="700" fill="#111827">277.3</text>
<text x="620.0" y="396" text-anchor="middle" font-family="Inter,Segoe UI,Arial,sans-serif" font-size="11" font-weight="700" fill="#111827">python_modules_long</text>
<rect x="530.0" y="250.6" width="29.6" height="107.4" rx="2" fill="#a78bfa" fill-opacity="0.86"/>
<text x="544.8" y="245.6" text-anchor="middle" font-family="Inter,Segoe UI,Arial,sans-serif" font-size="10" font-weight="700" fill="#111827">102.7</text>
<rect x="567.6" y="202.4" width="29.6" height="155.6" rx="2" fill="#60a5fa" fill-opacity="0.86"/>
<text x="582.4" y="197.4" text-anchor="middle" font-family="Inter,Segoe UI,Arial,sans-serif" font-size="10" font-weight="700" fill="#111827">148.8</text>
<rect x="605.2" y="215.7" width="29.6" height="142.3" rx="2" fill="#1d4ed8" fill-opacity="0.86"/>
<text x="620.0" y="210.7" text-anchor="middle" font-family="Inter,Segoe UI,Arial,sans-serif" font-size="10" font-weight="700" fill="#111827">136.1</text>
<rect x="642.8" y="171.7" width="29.6" height="186.3" rx="2" fill="#86efac" fill-opacity="0.86"/>
<text x="657.6" y="166.7" text-anchor="middle" font-family="Inter,Segoe UI,Arial,sans-serif" font-size="10" font-weight="700" fill="#111827">178.1</text>
<rect x="680.4" y="152.8" width="29.6" height="205.2" rx="2" fill="#4ade80" fill-opacity="0.86"/>
<text x="695.2" y="147.8" text-anchor="middle" font-family="Inter,Segoe UI,Arial,sans-serif" font-size="10" font-weight="700" fill="#111827">196.3</text>
<rect x="60" y="407" width="10" height="10" rx="2" fill="#a78bfa" fill-opacity="0.86"/>
<text x="74" y="416" font-family="Inter,Segoe UI,Arial,sans-serif" font-size="10" fill="#374151">MTPLX 0.3.7</text>
<rect x="190" y="407" width="10" height="10" rx="2" fill="#60a5fa" fill-opacity="0.86"/>
<text x="204" y="416" font-family="Inter,Segoe UI,Arial,sans-serif" font-size="10" fill="#374151">Light. MTP</text>
<rect x="320" y="407" width="10" height="10" rx="2" fill="#1d4ed8" fill-opacity="0.86"/>
<text x="334" y="416" font-family="Inter,Segoe UI,Arial,sans-serif" font-size="10" fill="#374151">Light. ngram+MTP</text>
<rect x="450" y="407" width="10" height="10" rx="2" fill="#86efac" fill-opacity="0.86"/>
<text x="464" y="416" font-family="Inter,Segoe UI,Arial,sans-serif" font-size="10" fill="#374151">AX MTP</text>
<rect x="580" y="407" width="10" height="10" rx="2" fill="#4ade80" fill-opacity="0.86"/>
<text x="594" y="416" font-family="Inter,Segoe UI,Arial,sans-serif" font-size="10" fill="#374151">AX MTP+n-gram</text>
</svg>
