<svg xmlns="http://www.w3.org/2000/svg" width="900" height="460" viewBox="0 0 900 460" role="img" aria-labelledby="title desc">
<title>Qwen3.6 27B 4-bit MTP TTFT</title>
<desc>Grouped box-and-whisker plot comparing MTPLX 0.3.7, Light. MTP, Light. ngram+MTP, AX MTP, AX MTP+n-gram.</desc>
<rect width="100%" height="100%" fill="#f8fafc"/>
<text x="24" y="24" font-family="Inter,Segoe UI,Arial,sans-serif" font-size="16" font-weight="700" fill="#111827">Qwen3.6 27B 4-bit MTP TTFT</text>
<text x="24" y="46" font-family="Inter,Segoe UI,Arial,sans-serif" font-size="11" fill="#4b5563"><tspan>All suites combined | </tspan><tspan fill="#dc2626" font-weight="700">lower is better</tspan><tspan> | box=IQR | dots=runs</tspan></text>
<rect x="818" y="13" width="48" height="22" rx="11" fill="#eef2ff" stroke="#c7d2fe"/>
<text x="842.0" y="28" text-anchor="middle" font-family="Inter,Segoe UI,Arial,sans-serif" font-size="10" font-weight="700" fill="#3730a3">ms</text>
<text x="866" y="52" text-anchor="end" font-family="Inter,Segoe UI,Arial,sans-serif" font-size="10" font-weight="700" fill="#dc2626">Lower is better</text>
<rect x="64" y="86" width="676" height="268" rx="6" fill="#ffffff" stroke="#dbe3ef"/>
<line x1="64" y1="354.0" x2="740" y2="354.0" stroke="#e5e7eb" stroke-width="1"/>
<text x="56" y="357.0" text-anchor="end" font-family="Inter,Segoe UI,Arial,sans-serif" font-size="11" fill="#6b7280">0</text>
<line x1="64" y1="287.0" x2="740" y2="287.0" stroke="#e5e7eb" stroke-width="1"/>
<text x="56" y="290.0" text-anchor="end" font-family="Inter,Segoe UI,Arial,sans-serif" font-size="11" fill="#6b7280">500</text>
<line x1="64" y1="220.0" x2="740" y2="220.0" stroke="#e5e7eb" stroke-width="1"/>
<text x="56" y="223.0" text-anchor="end" font-family="Inter,Segoe UI,Arial,sans-serif" font-size="11" fill="#6b7280">1000</text>
<line x1="64" y1="153.0" x2="740" y2="153.0" stroke="#e5e7eb" stroke-width="1"/>
<text x="56" y="156.0" text-anchor="end" font-family="Inter,Segoe UI,Arial,sans-serif" font-size="11" fill="#6b7280">1500</text>
<line x1="64" y1="86.0" x2="740" y2="86.0" stroke="#e5e7eb" stroke-width="1"/>
<text x="56" y="89.0" text-anchor="end" font-family="Inter,Segoe UI,Arial,sans-serif" font-size="11" fill="#6b7280">2000</text>
<line x1="64" y1="284.8" x2="740" y2="284.8" stroke="#dc2626" stroke-width="1.2" stroke-dasharray="1 4" stroke-linecap="round"/>
<text x="748" y="279.8" text-anchor="start" font-family="Inter,Segoe UI,Arial,sans-serif" font-size="11" font-weight="700" fill="#dc2626" data-label="lowest median">lowest: 516</text>
<text x="402.0" y="398" text-anchor="middle" font-family="Inter,Segoe UI,Arial,sans-serif" font-size="11" font-weight="700" fill="#111827">all suites</text>
<circle cx="127.8" cy="295.3" r="1.45" fill="#14532d" fill-opacity="0.46"/>
<circle cx="130.8" cy="295.0" r="1.45" fill="#14532d" fill-opacity="0.46"/>
<circle cx="133.9" cy="296.1" r="1.45" fill="#14532d" fill-opacity="0.46"/>
<circle cx="136.9" cy="296.3" r="1.45" fill="#14532d" fill-opacity="0.46"/>
<circle cx="140.0" cy="296.2" r="1.45" fill="#14532d" fill-opacity="0.46"/>
<circle cx="143.1" cy="286.1" r="1.45" fill="#14532d" fill-opacity="0.46"/>
<circle cx="146.1" cy="285.9" r="1.45" fill="#14532d" fill-opacity="0.46"/>
<circle cx="149.2" cy="289.1" r="1.45" fill="#14532d" fill-opacity="0.46"/>
<circle cx="152.2" cy="290.1" r="1.45" fill="#14532d" fill-opacity="0.46"/>
<circle cx="127.8" cy="286.1" r="1.45" fill="#14532d" fill-opacity="0.46"/>
<circle cx="130.8" cy="279.2" r="1.45" fill="#14532d" fill-opacity="0.46"/>
<circle cx="133.9" cy="277.9" r="1.45" fill="#14532d" fill-opacity="0.46"/>
<circle cx="136.9" cy="277.7" r="1.45" fill="#14532d" fill-opacity="0.46"/>
<circle cx="140.0" cy="277.4" r="1.45" fill="#14532d" fill-opacity="0.46"/>
<circle cx="143.1" cy="277.6" r="1.45" fill="#14532d" fill-opacity="0.46"/>
<circle cx="146.1" cy="294.3" r="1.45" fill="#14532d" fill-opacity="0.46"/>
<circle cx="149.2" cy="293.6" r="1.45" fill="#14532d" fill-opacity="0.46"/>
<circle cx="152.2" cy="294.6" r="1.45" fill="#14532d" fill-opacity="0.46"/>
<circle cx="127.8" cy="295.3" r="1.45" fill="#14532d" fill-opacity="0.46"/>
<circle cx="130.8" cy="294.0" r="1.45" fill="#14532d" fill-opacity="0.46"/>
<circle cx="133.9" cy="233.3" r="1.45" fill="#14532d" fill-opacity="0.46"/>
<circle cx="136.9" cy="232.5" r="1.45" fill="#14532d" fill-opacity="0.46"/>
<circle cx="140.0" cy="230.2" r="1.45" fill="#14532d" fill-opacity="0.46"/>
<circle cx="143.1" cy="231.5" r="1.45" fill="#14532d" fill-opacity="0.46"/>
<circle cx="146.1" cy="232.9" r="1.45" fill="#14532d" fill-opacity="0.46"/>
<circle cx="149.2" cy="207.1" r="1.45" fill="#14532d" fill-opacity="0.46"/>
<circle cx="152.2" cy="206.9" r="1.45" fill="#14532d" fill-opacity="0.46"/>
<circle cx="127.8" cy="206.8" r="1.45" fill="#14532d" fill-opacity="0.46"/>
<circle cx="130.8" cy="210.8" r="1.45" fill="#14532d" fill-opacity="0.46"/>
<circle cx="133.9" cy="212.2" r="1.45" fill="#14532d" fill-opacity="0.46"/>
<circle cx="136.9" cy="234.7" r="1.45" fill="#14532d" fill-opacity="0.46"/>
<circle cx="140.0" cy="232.9" r="1.45" fill="#14532d" fill-opacity="0.46"/>
<circle cx="143.1" cy="234.1" r="1.45" fill="#14532d" fill-opacity="0.46"/>
<circle cx="146.1" cy="234.8" r="1.45" fill="#14532d" fill-opacity="0.46"/>
<circle cx="149.2" cy="232.8" r="1.45" fill="#14532d" fill-opacity="0.46"/>
<circle cx="152.2" cy="268.0" r="1.45" fill="#14532d" fill-opacity="0.46"/>
<circle cx="127.8" cy="268.0" r="1.45" fill="#14532d" fill-opacity="0.46"/>
<circle cx="130.8" cy="268.5" r="1.45" fill="#14532d" fill-opacity="0.46"/>
<circle cx="133.9" cy="267.1" r="1.45" fill="#14532d" fill-opacity="0.46"/>
<circle cx="136.9" cy="268.5" r="1.45" fill="#14532d" fill-opacity="0.46"/>
<circle cx="140.0" cy="294.4" r="1.45" fill="#14532d" fill-opacity="0.46"/>
<circle cx="143.1" cy="294.7" r="1.45" fill="#14532d" fill-opacity="0.46"/>
<circle cx="146.1" cy="293.5" r="1.45" fill="#14532d" fill-opacity="0.46"/>
<circle cx="149.2" cy="293.4" r="1.45" fill="#14532d" fill-opacity="0.46"/>
<circle cx="152.2" cy="293.7" r="1.45" fill="#14532d" fill-opacity="0.46"/>
<circle cx="127.8" cy="285.3" r="1.45" fill="#14532d" fill-opacity="0.46"/>
<circle cx="130.8" cy="284.4" r="1.45" fill="#14532d" fill-opacity="0.46"/>
<circle cx="133.9" cy="286.1" r="1.45" fill="#14532d" fill-opacity="0.46"/>
<circle cx="136.9" cy="284.2" r="1.45" fill="#14532d" fill-opacity="0.46"/>
<circle cx="140.0" cy="285.4" r="1.45" fill="#14532d" fill-opacity="0.46"/>
<circle cx="143.1" cy="285.5" r="1.45" fill="#14532d" fill-opacity="0.46"/>
<circle cx="146.1" cy="285.6" r="1.45" fill="#14532d" fill-opacity="0.46"/>
<circle cx="149.2" cy="284.9" r="1.45" fill="#14532d" fill-opacity="0.46"/>
<circle cx="152.2" cy="284.8" r="1.45" fill="#14532d" fill-opacity="0.46"/>
<circle cx="127.8" cy="285.6" r="1.45" fill="#14532d" fill-opacity="0.46"/>
<line x1="140.0" y1="206.8" x2="140.0" y2="296.3" stroke="#14532d" stroke-opacity="0.82" stroke-width="1.8"/>
<line x1="127.8" y1="206.8" x2="152.2" y2="206.8" stroke="#14532d" stroke-opacity="0.82" stroke-width="1.8"/>
<line x1="127.8" y1="296.3" x2="152.2" y2="296.3" stroke="#14532d" stroke-opacity="0.82" stroke-width="1.8"/>
<rect x="123.0" y="234.7" width="34.0" height="58.7" rx="2" fill="#14532d" fill-opacity="0.18" stroke="#14532d" stroke-opacity="0.82" stroke-width="1.8"/>
<line x1="123.0" y1="284.8" x2="157.0" y2="284.8" stroke="#14532d" stroke-opacity="0.82" stroke-width="2.6"/>
<text x="163.0" y="288.8" text-anchor="start" font-family="Inter,Segoe UI,Arial,sans-serif" font-size="11" font-weight="700" fill="#111827" stroke="#ffffff" stroke-width="3" paint-order="stroke">516</text>
<circle cx="258.8" cy="262.3" r="1.45" fill="#7c3aed" fill-opacity="0.34"/>
<circle cx="261.8" cy="263.0" r="1.45" fill="#7c3aed" fill-opacity="0.34"/>
<circle cx="264.9" cy="262.6" r="1.45" fill="#7c3aed" fill-opacity="0.34"/>
<circle cx="267.9" cy="262.9" r="1.45" fill="#7c3aed" fill-opacity="0.34"/>
<circle cx="271.0" cy="262.5" r="1.45" fill="#7c3aed" fill-opacity="0.34"/>
<circle cx="274.1" cy="248.2" r="1.45" fill="#7c3aed" fill-opacity="0.34"/>
<circle cx="277.1" cy="248.7" r="1.45" fill="#7c3aed" fill-opacity="0.34"/>
<circle cx="280.2" cy="253.8" r="1.45" fill="#7c3aed" fill-opacity="0.34"/>
<circle cx="283.2" cy="249.4" r="1.45" fill="#7c3aed" fill-opacity="0.34"/>
<circle cx="258.8" cy="249.4" r="1.45" fill="#7c3aed" fill-opacity="0.34"/>
<circle cx="261.8" cy="241.7" r="1.45" fill="#7c3aed" fill-opacity="0.34"/>
<circle cx="264.9" cy="241.3" r="1.45" fill="#7c3aed" fill-opacity="0.34"/>
<circle cx="267.9" cy="241.7" r="1.45" fill="#7c3aed" fill-opacity="0.34"/>
<circle cx="271.0" cy="241.2" r="1.45" fill="#7c3aed" fill-opacity="0.34"/>
<circle cx="274.1" cy="242.1" r="1.45" fill="#7c3aed" fill-opacity="0.34"/>
<circle cx="277.1" cy="265.1" r="1.45" fill="#7c3aed" fill-opacity="0.34"/>
<circle cx="280.2" cy="263.2" r="1.45" fill="#7c3aed" fill-opacity="0.34"/>
<circle cx="283.2" cy="263.4" r="1.45" fill="#7c3aed" fill-opacity="0.34"/>
<circle cx="258.8" cy="262.3" r="1.45" fill="#7c3aed" fill-opacity="0.34"/>
<circle cx="261.8" cy="262.8" r="1.45" fill="#7c3aed" fill-opacity="0.34"/>
<circle cx="264.9" cy="202.6" r="1.45" fill="#7c3aed" fill-opacity="0.34"/>
<circle cx="267.9" cy="202.9" r="1.45" fill="#7c3aed" fill-opacity="0.34"/>
<circle cx="271.0" cy="195.8" r="1.45" fill="#7c3aed" fill-opacity="0.34"/>
<circle cx="274.1" cy="203.0" r="1.45" fill="#7c3aed" fill-opacity="0.34"/>
<circle cx="277.1" cy="203.0" r="1.45" fill="#7c3aed" fill-opacity="0.34"/>
<circle cx="280.2" cy="184.0" r="1.45" fill="#7c3aed" fill-opacity="0.34"/>
<circle cx="283.2" cy="176.7" r="1.45" fill="#7c3aed" fill-opacity="0.34"/>
<circle cx="258.8" cy="184.2" r="1.45" fill="#7c3aed" fill-opacity="0.34"/>
<circle cx="261.8" cy="185.0" r="1.45" fill="#7c3aed" fill-opacity="0.34"/>
<circle cx="264.9" cy="184.7" r="1.45" fill="#7c3aed" fill-opacity="0.34"/>
<circle cx="267.9" cy="201.4" r="1.45" fill="#7c3aed" fill-opacity="0.34"/>
<circle cx="271.0" cy="201.1" r="1.45" fill="#7c3aed" fill-opacity="0.34"/>
<circle cx="274.1" cy="200.9" r="1.45" fill="#7c3aed" fill-opacity="0.34"/>
<circle cx="277.1" cy="201.3" r="1.45" fill="#7c3aed" fill-opacity="0.34"/>
<circle cx="280.2" cy="195.9" r="1.45" fill="#7c3aed" fill-opacity="0.34"/>
<circle cx="283.2" cy="234.7" r="1.45" fill="#7c3aed" fill-opacity="0.34"/>
<circle cx="258.8" cy="235.0" r="1.45" fill="#7c3aed" fill-opacity="0.34"/>
<circle cx="261.8" cy="235.3" r="1.45" fill="#7c3aed" fill-opacity="0.34"/>
<circle cx="264.9" cy="234.7" r="1.45" fill="#7c3aed" fill-opacity="0.34"/>
<circle cx="267.9" cy="235.6" r="1.45" fill="#7c3aed" fill-opacity="0.34"/>
<circle cx="271.0" cy="261.4" r="1.45" fill="#7c3aed" fill-opacity="0.34"/>
<circle cx="274.1" cy="261.5" r="1.45" fill="#7c3aed" fill-opacity="0.34"/>
<circle cx="277.1" cy="261.7" r="1.45" fill="#7c3aed" fill-opacity="0.34"/>
<circle cx="280.2" cy="264.8" r="1.45" fill="#7c3aed" fill-opacity="0.34"/>
<circle cx="283.2" cy="260.1" r="1.45" fill="#7c3aed" fill-opacity="0.34"/>
<circle cx="258.8" cy="249.9" r="1.45" fill="#7c3aed" fill-opacity="0.34"/>
<circle cx="261.8" cy="256.4" r="1.45" fill="#7c3aed" fill-opacity="0.34"/>
<circle cx="264.9" cy="257.1" r="1.45" fill="#7c3aed" fill-opacity="0.34"/>
<circle cx="267.9" cy="256.7" r="1.45" fill="#7c3aed" fill-opacity="0.34"/>
<circle cx="271.0" cy="250.5" r="1.45" fill="#7c3aed" fill-opacity="0.34"/>
<circle cx="274.1" cy="250.6" r="1.45" fill="#7c3aed" fill-opacity="0.34"/>
<circle cx="277.1" cy="249.7" r="1.45" fill="#7c3aed" fill-opacity="0.34"/>
<circle cx="280.2" cy="250.2" r="1.45" fill="#7c3aed" fill-opacity="0.34"/>
<circle cx="283.2" cy="257.5" r="1.45" fill="#7c3aed" fill-opacity="0.34"/>
<circle cx="258.8" cy="250.2" r="1.45" fill="#7c3aed" fill-opacity="0.34"/>
<line x1="271.0" y1="176.7" x2="271.0" y2="265.1" stroke="#7c3aed" stroke-opacity="0.55" stroke-width="1.8"/>
<line x1="258.8" y1="176.7" x2="283.2" y2="176.7" stroke="#7c3aed" stroke-opacity="0.55" stroke-width="1.8"/>
<line x1="258.8" y1="265.1" x2="283.2" y2="265.1" stroke="#7c3aed" stroke-opacity="0.55" stroke-width="1.8"/>
<rect x="254.0" y="203.0" width="34.0" height="57.7" rx="2" fill="#7c3aed" fill-opacity="0.12" stroke="#7c3aed" stroke-opacity="0.55" stroke-width="1.8"/>
<line x1="254.0" y1="249.4" x2="288.0" y2="249.4" stroke="#7c3aed" stroke-opacity="0.55" stroke-width="2.6"/>
<text x="294.0" y="253.4" text-anchor="start" font-family="Inter,Segoe UI,Arial,sans-serif" font-size="11" font-weight="700" fill="#111827" stroke="#ffffff" stroke-width="3" paint-order="stroke">781</text>
<circle cx="389.8" cy="260.0" r="1.45" fill="#1e3a8a" fill-opacity="0.34"/>
<circle cx="392.8" cy="260.6" r="1.45" fill="#1e3a8a" fill-opacity="0.34"/>
<circle cx="395.9" cy="260.1" r="1.45" fill="#1e3a8a" fill-opacity="0.34"/>
<circle cx="398.9" cy="260.0" r="1.45" fill="#1e3a8a" fill-opacity="0.34"/>
<circle cx="402.0" cy="260.4" r="1.45" fill="#1e3a8a" fill-opacity="0.34"/>
<circle cx="405.1" cy="246.5" r="1.45" fill="#1e3a8a" fill-opacity="0.34"/>
<circle cx="408.1" cy="244.0" r="1.45" fill="#1e3a8a" fill-opacity="0.34"/>
<circle cx="411.2" cy="244.5" r="1.45" fill="#1e3a8a" fill-opacity="0.34"/>
<circle cx="414.2" cy="247.7" r="1.45" fill="#1e3a8a" fill-opacity="0.34"/>
<circle cx="389.8" cy="244.0" r="1.45" fill="#1e3a8a" fill-opacity="0.34"/>
<circle cx="392.8" cy="239.8" r="1.45" fill="#1e3a8a" fill-opacity="0.34"/>
<circle cx="395.9" cy="239.4" r="1.45" fill="#1e3a8a" fill-opacity="0.34"/>
<circle cx="398.9" cy="238.8" r="1.45" fill="#1e3a8a" fill-opacity="0.34"/>
<circle cx="402.0" cy="239.0" r="1.45" fill="#1e3a8a" fill-opacity="0.34"/>
<circle cx="405.1" cy="238.9" r="1.45" fill="#1e3a8a" fill-opacity="0.34"/>
<circle cx="408.1" cy="260.9" r="1.45" fill="#1e3a8a" fill-opacity="0.34"/>
<circle cx="411.2" cy="260.5" r="1.45" fill="#1e3a8a" fill-opacity="0.34"/>
<circle cx="414.2" cy="261.0" r="1.45" fill="#1e3a8a" fill-opacity="0.34"/>
<circle cx="389.8" cy="261.0" r="1.45" fill="#1e3a8a" fill-opacity="0.34"/>
<circle cx="392.8" cy="260.8" r="1.45" fill="#1e3a8a" fill-opacity="0.34"/>
<circle cx="395.9" cy="195.0" r="1.45" fill="#1e3a8a" fill-opacity="0.34"/>
<circle cx="398.9" cy="194.9" r="1.45" fill="#1e3a8a" fill-opacity="0.34"/>
<circle cx="402.0" cy="201.3" r="1.45" fill="#1e3a8a" fill-opacity="0.34"/>
<circle cx="405.1" cy="194.5" r="1.45" fill="#1e3a8a" fill-opacity="0.34"/>
<circle cx="408.1" cy="195.2" r="1.45" fill="#1e3a8a" fill-opacity="0.34"/>
<circle cx="411.2" cy="183.9" r="1.45" fill="#1e3a8a" fill-opacity="0.34"/>
<circle cx="414.2" cy="183.5" r="1.45" fill="#1e3a8a" fill-opacity="0.34"/>
<circle cx="389.8" cy="183.5" r="1.45" fill="#1e3a8a" fill-opacity="0.34"/>
<circle cx="392.8" cy="183.7" r="1.45" fill="#1e3a8a" fill-opacity="0.34"/>
<circle cx="395.9" cy="183.7" r="1.45" fill="#1e3a8a" fill-opacity="0.34"/>
<circle cx="398.9" cy="180.4" r="1.45" fill="#1e3a8a" fill-opacity="0.34"/>
<circle cx="402.0" cy="199.0" r="1.45" fill="#1e3a8a" fill-opacity="0.34"/>
<circle cx="405.1" cy="181.0" r="1.45" fill="#1e3a8a" fill-opacity="0.34"/>
<circle cx="408.1" cy="198.5" r="1.45" fill="#1e3a8a" fill-opacity="0.34"/>
<circle cx="411.2" cy="198.6" r="1.45" fill="#1e3a8a" fill-opacity="0.34"/>
<circle cx="414.2" cy="233.0" r="1.45" fill="#1e3a8a" fill-opacity="0.34"/>
<circle cx="389.8" cy="232.5" r="1.45" fill="#1e3a8a" fill-opacity="0.34"/>
<circle cx="392.8" cy="232.7" r="1.45" fill="#1e3a8a" fill-opacity="0.34"/>
<circle cx="395.9" cy="233.3" r="1.45" fill="#1e3a8a" fill-opacity="0.34"/>
<circle cx="398.9" cy="233.1" r="1.45" fill="#1e3a8a" fill-opacity="0.34"/>
<circle cx="402.0" cy="262.7" r="1.45" fill="#1e3a8a" fill-opacity="0.34"/>
<circle cx="405.1" cy="257.1" r="1.45" fill="#1e3a8a" fill-opacity="0.34"/>
<circle cx="408.1" cy="257.2" r="1.45" fill="#1e3a8a" fill-opacity="0.34"/>
<circle cx="411.2" cy="256.3" r="1.45" fill="#1e3a8a" fill-opacity="0.34"/>
<circle cx="414.2" cy="263.3" r="1.45" fill="#1e3a8a" fill-opacity="0.34"/>
<circle cx="389.8" cy="248.4" r="1.45" fill="#1e3a8a" fill-opacity="0.34"/>
<circle cx="392.8" cy="248.1" r="1.45" fill="#1e3a8a" fill-opacity="0.34"/>
<circle cx="395.9" cy="247.8" r="1.45" fill="#1e3a8a" fill-opacity="0.34"/>
<circle cx="398.9" cy="249.1" r="1.45" fill="#1e3a8a" fill-opacity="0.34"/>
<circle cx="402.0" cy="248.1" r="1.45" fill="#1e3a8a" fill-opacity="0.34"/>
<circle cx="405.1" cy="254.8" r="1.45" fill="#1e3a8a" fill-opacity="0.34"/>
<circle cx="408.1" cy="248.1" r="1.45" fill="#1e3a8a" fill-opacity="0.34"/>
<circle cx="411.2" cy="248.2" r="1.45" fill="#1e3a8a" fill-opacity="0.34"/>
<circle cx="414.2" cy="248.2" r="1.45" fill="#1e3a8a" fill-opacity="0.34"/>
<circle cx="389.8" cy="248.0" r="1.45" fill="#1e3a8a" fill-opacity="0.34"/>
<line x1="402.0" y1="180.4" x2="402.0" y2="263.3" stroke="#1e3a8a" stroke-opacity="0.55" stroke-width="1.8"/>
<line x1="389.8" y1="180.4" x2="414.2" y2="180.4" stroke="#1e3a8a" stroke-opacity="0.55" stroke-width="1.8"/>
<line x1="389.8" y1="263.3" x2="414.2" y2="263.3" stroke="#1e3a8a" stroke-opacity="0.55" stroke-width="1.8"/>
<rect x="385.0" y="200.2" width="34.0" height="56.5" rx="2" fill="#1e3a8a" fill-opacity="0.12" stroke="#1e3a8a" stroke-opacity="0.55" stroke-width="1.8"/>
<line x1="385.0" y1="244.5" x2="419.0" y2="244.5" stroke="#1e3a8a" stroke-opacity="0.55" stroke-width="2.6"/>
<text x="425.0" y="248.5" text-anchor="start" font-family="Inter,Segoe UI,Arial,sans-serif" font-size="11" font-weight="700" fill="#111827" stroke="#ffffff" stroke-width="3" paint-order="stroke">817</text>
<circle cx="520.8" cy="293.4" r="1.45" fill="#f97316" fill-opacity="0.46"/>
<circle cx="523.8" cy="280.0" r="1.45" fill="#f97316" fill-opacity="0.46"/>
<circle cx="526.9" cy="270.3" r="1.45" fill="#f97316" fill-opacity="0.46"/>
<circle cx="529.9" cy="294.7" r="1.45" fill="#f97316" fill-opacity="0.46"/>
<circle cx="533.0" cy="214.5" r="1.45" fill="#f97316" fill-opacity="0.46"/>
<circle cx="536.1" cy="194.1" r="1.45" fill="#f97316" fill-opacity="0.46"/>
<circle cx="539.1" cy="215.7" r="1.45" fill="#f97316" fill-opacity="0.46"/>
<circle cx="542.2" cy="261.5" r="1.45" fill="#f97316" fill-opacity="0.46"/>
<circle cx="545.2" cy="292.9" r="1.45" fill="#f97316" fill-opacity="0.46"/>
<circle cx="520.8" cy="282.0" r="1.45" fill="#f97316" fill-opacity="0.46"/>
<circle cx="523.8" cy="282.0" r="1.45" fill="#f97316" fill-opacity="0.46"/>
<line x1="533.0" y1="194.1" x2="533.0" y2="294.7" stroke="#f97316" stroke-opacity="0.82" stroke-width="1.8"/>
<line x1="520.8" y1="194.1" x2="545.2" y2="194.1" stroke="#f97316" stroke-opacity="0.82" stroke-width="1.8"/>
<line x1="520.8" y1="294.7" x2="545.2" y2="294.7" stroke="#f97316" stroke-opacity="0.82" stroke-width="1.8"/>
<rect x="516.0" y="238.6" width="34.0" height="48.9" rx="2" fill="#f97316" fill-opacity="0.18" stroke="#f97316" stroke-opacity="0.82" stroke-width="1.8"/>
<line x1="516.0" y1="280.0" x2="550.0" y2="280.0" stroke="#f97316" stroke-opacity="0.82" stroke-width="2.6"/>
<text x="556.0" y="284.0" text-anchor="start" font-family="Inter,Segoe UI,Arial,sans-serif" font-size="11" font-weight="700" fill="#111827" stroke="#ffffff" stroke-width="3" paint-order="stroke">552</text>
<circle cx="651.8" cy="294.1" r="1.45" fill="#eab308" fill-opacity="0.46"/>
<circle cx="654.8" cy="281.0" r="1.45" fill="#eab308" fill-opacity="0.46"/>
<circle cx="657.9" cy="270.3" r="1.45" fill="#eab308" fill-opacity="0.46"/>
<circle cx="660.9" cy="294.8" r="1.45" fill="#eab308" fill-opacity="0.46"/>
<circle cx="664.0" cy="214.9" r="1.45" fill="#eab308" fill-opacity="0.46"/>
<circle cx="667.1" cy="194.3" r="1.45" fill="#eab308" fill-opacity="0.46"/>
<circle cx="670.1" cy="216.1" r="1.45" fill="#eab308" fill-opacity="0.46"/>
<circle cx="673.2" cy="261.7" r="1.45" fill="#eab308" fill-opacity="0.46"/>
<circle cx="676.2" cy="292.8" r="1.45" fill="#eab308" fill-opacity="0.46"/>
<circle cx="651.8" cy="281.8" r="1.45" fill="#eab308" fill-opacity="0.46"/>
<circle cx="654.8" cy="281.6" r="1.45" fill="#eab308" fill-opacity="0.46"/>
<line x1="664.0" y1="194.3" x2="664.0" y2="294.8" stroke="#eab308" stroke-opacity="0.82" stroke-width="1.8"/>
<line x1="651.8" y1="194.3" x2="676.2" y2="194.3" stroke="#eab308" stroke-opacity="0.82" stroke-width="1.8"/>
<line x1="651.8" y1="294.8" x2="676.2" y2="294.8" stroke="#eab308" stroke-opacity="0.82" stroke-width="1.8"/>
<rect x="647.0" y="238.9" width="34.0" height="48.4" rx="2" fill="#eab308" fill-opacity="0.18" stroke="#eab308" stroke-opacity="0.82" stroke-width="1.8"/>
<line x1="647.0" y1="281.0" x2="681.0" y2="281.0" stroke="#eab308" stroke-opacity="0.82" stroke-width="2.6"/>
<text x="687.0" y="285.0" text-anchor="start" font-family="Inter,Segoe UI,Arial,sans-serif" font-size="11" font-weight="700" fill="#111827" stroke="#ffffff" stroke-width="3" paint-order="stroke">545</text>
<rect x="64" y="433" width="10" height="10" rx="2" fill="#14532d" fill-opacity="0.86"/>
<text x="78" y="442" font-family="Inter,Segoe UI,Arial,sans-serif" font-size="10" fill="#374151">MTPLX 0.3.7</text>
<rect x="199.2" y="433" width="10" height="10" rx="2" fill="#7c3aed" fill-opacity="0.60"/>
<text x="213.2" y="442" font-family="Inter,Segoe UI,Arial,sans-serif" font-size="10" fill="#374151">Light. MTP</text>
<rect x="334.4" y="433" width="10" height="10" rx="2" fill="#1e3a8a" fill-opacity="0.60"/>
<text x="348.4" y="442" font-family="Inter,Segoe UI,Arial,sans-serif" font-size="10" fill="#374151">Light. ngram+MTP</text>
<rect x="469.59999999999997" y="433" width="10" height="10" rx="2" fill="#f97316" fill-opacity="0.86"/>
<text x="483.59999999999997" y="442" font-family="Inter,Segoe UI,Arial,sans-serif" font-size="10" fill="#374151">AX MTP</text>
<rect x="604.8" y="433" width="10" height="10" rx="2" fill="#eab308" fill-opacity="0.86"/>
<text x="618.8" y="442" font-family="Inter,Segoe UI,Arial,sans-serif" font-size="10" fill="#374151">AX MTP+n-gram</text>
</svg>
