<svg xmlns="http://www.w3.org/2000/svg" width="760" height="430" viewBox="0 0 760 430" role="img">
<rect width="100%" height="100%" fill="#ffffff"/>
<text x="24" y="30" font-family="Inter,Segoe UI,Arial,sans-serif" font-size="18" font-weight="700" fill="#111827">MTP time-to-first-token (TTFT)</text>
<text x="732" y="30" text-anchor="end" font-family="Inter,Segoe UI,Arial,sans-serif" font-size="11" fill="#4b5563">ms — lower is better  (~ = client-side via ttft_s, includes HTTP overhead)</text>
<line x1="60" y1="358.0" x2="732" y2="358.0" stroke="#e5e7eb" stroke-width="1"/>
<text x="52" y="361.0" text-anchor="end" font-family="Inter,Segoe UI,Arial,sans-serif" font-size="10" fill="#6b7280">0</text>
<line x1="60" y1="261.3" x2="732" y2="261.3" stroke="#e5e7eb" stroke-width="1"/>
<text x="52" y="264.3" text-anchor="end" font-family="Inter,Segoe UI,Arial,sans-serif" font-size="10" fill="#6b7280">391</text>
<line x1="60" y1="164.7" x2="732" y2="164.7" stroke="#e5e7eb" stroke-width="1"/>
<text x="52" y="167.7" text-anchor="end" font-family="Inter,Segoe UI,Arial,sans-serif" font-size="10" fill="#6b7280">782</text>
<line x1="60" y1="68.0" x2="732" y2="68.0" stroke="#e5e7eb" stroke-width="1"/>
<text x="52" y="71.0" text-anchor="end" font-family="Inter,Segoe UI,Arial,sans-serif" font-size="10" fill="#6b7280">1174</text>
<text x="116.0" y="396" text-anchor="middle" font-family="Inter,Segoe UI,Arial,sans-serif" font-size="11" font-weight="700" fill="#111827">27b flappy</text>
<rect x="82.0" y="240.3" width="7.2" height="117.7" rx="2" fill="#a78bfa" fill-opacity="0.86"/>
<text x="85.6" y="235.3" text-anchor="middle" font-family="Inter,Segoe UI,Arial,sans-serif" font-size="10" font-weight="700" fill="#111827">476</text>
<rect x="97.2" y="177.2" width="7.2" height="180.8" rx="2" fill="#60a5fa" fill-opacity="0.60"/>
<text x="100.8" y="172.2" text-anchor="middle" font-family="Inter,Segoe UI,Arial,sans-serif" font-size="10" font-weight="700" fill="#111827">731~</text>
<rect x="112.4" y="170.4" width="7.2" height="187.6" rx="2" fill="#1d4ed8" fill-opacity="0.60"/>
<text x="116.0" y="165.4" text-anchor="middle" font-family="Inter,Segoe UI,Arial,sans-serif" font-size="10" font-weight="700" fill="#111827">759~</text>
<rect x="127.6" y="233.9" width="7.2" height="124.1" rx="2" fill="#86efac" fill-opacity="0.86"/>
<text x="131.2" y="228.9" text-anchor="middle" font-family="Inter,Segoe UI,Arial,sans-serif" font-size="10" font-weight="700" fill="#111827">502</text>
<rect x="142.8" y="235.4" width="7.2" height="122.6" rx="2" fill="#15803d" fill-opacity="0.86"/>
<text x="146.4" y="230.4" text-anchor="middle" font-family="Inter,Segoe UI,Arial,sans-serif" font-size="10" font-weight="700" fill="#111827">496</text>
<text x="228.0" y="396" text-anchor="middle" font-family="Inter,Segoe UI,Arial,sans-serif" font-size="11" font-weight="700" fill="#111827">27b long_code</text>
<rect x="194.0" y="135.3" width="7.2" height="222.7" rx="2" fill="#a78bfa" fill-opacity="0.86"/>
<text x="197.6" y="130.3" text-anchor="middle" font-family="Inter,Segoe UI,Arial,sans-serif" font-size="10" font-weight="700" fill="#111827">901</text>
<rect x="209.2" y="77.7" width="7.2" height="280.3" rx="2" fill="#60a5fa" fill-opacity="0.60"/>
<text x="212.8" y="78.0" text-anchor="middle" font-family="Inter,Segoe UI,Arial,sans-serif" font-size="10" font-weight="700" fill="#111827">1134~</text>
<rect x="224.4" y="68.0" width="7.2" height="290.0" rx="2" fill="#1d4ed8" fill-opacity="0.60"/>
<text x="228.0" y="78.0" text-anchor="middle" font-family="Inter,Segoe UI,Arial,sans-serif" font-size="10" font-weight="700" fill="#111827">1174~</text>
<rect x="239.6" y="101.8" width="7.2" height="256.2" rx="2" fill="#86efac" fill-opacity="0.86"/>
<text x="243.2" y="96.8" text-anchor="middle" font-family="Inter,Segoe UI,Arial,sans-serif" font-size="10" font-weight="700" fill="#111827">1037</text>
<rect x="254.8" y="89.0" width="7.2" height="269.0" rx="2" fill="#15803d" fill-opacity="0.86"/>
<text x="258.4" y="84.0" text-anchor="middle" font-family="Inter,Segoe UI,Arial,sans-serif" font-size="10" font-weight="700" fill="#111827">1088</text>
<text x="340.0" y="396" text-anchor="middle" font-family="Inter,Segoe UI,Arial,sans-serif" font-size="11" font-weight="700" fill="#111827">27b python_modules_long</text>
<rect x="306.0" y="231.7" width="7.2" height="126.3" rx="2" fill="#a78bfa" fill-opacity="0.86"/>
<text x="309.6" y="226.7" text-anchor="middle" font-family="Inter,Segoe UI,Arial,sans-serif" font-size="10" font-weight="700" fill="#111827">511</text>
<rect x="321.2" y="177.9" width="7.2" height="180.1" rx="2" fill="#60a5fa" fill-opacity="0.60"/>
<text x="324.8" y="172.9" text-anchor="middle" font-family="Inter,Segoe UI,Arial,sans-serif" font-size="10" font-weight="700" fill="#111827">729~</text>
<rect x="336.4" y="162.9" width="7.2" height="195.1" rx="2" fill="#1d4ed8" fill-opacity="0.60"/>
<text x="340.0" y="157.9" text-anchor="middle" font-family="Inter,Segoe UI,Arial,sans-serif" font-size="10" font-weight="700" fill="#111827">790~</text>
<rect x="351.6" y="225.2" width="7.2" height="132.8" rx="2" fill="#86efac" fill-opacity="0.86"/>
<text x="355.2" y="220.2" text-anchor="middle" font-family="Inter,Segoe UI,Arial,sans-serif" font-size="10" font-weight="700" fill="#111827">537</text>
<rect x="366.8" y="224.2" width="7.2" height="133.8" rx="2" fill="#15803d" fill-opacity="0.86"/>
<text x="370.4" y="219.2" text-anchor="middle" font-family="Inter,Segoe UI,Arial,sans-serif" font-size="10" font-weight="700" fill="#111827">542</text>
<text x="452.0" y="396" text-anchor="middle" font-family="Inter,Segoe UI,Arial,sans-serif" font-size="11" font-weight="700" fill="#111827">35b-a3b flappy</text>
<rect x="418.0" y="308.1" width="7.2" height="49.9" rx="2" fill="#a78bfa" fill-opacity="0.86"/>
<text x="421.6" y="303.1" text-anchor="middle" font-family="Inter,Segoe UI,Arial,sans-serif" font-size="10" font-weight="700" fill="#111827">202</text>
<rect x="433.2" y="271.1" width="7.2" height="86.9" rx="2" fill="#60a5fa" fill-opacity="0.60"/>
<text x="436.8" y="266.1" text-anchor="middle" font-family="Inter,Segoe UI,Arial,sans-serif" font-size="10" font-weight="700" fill="#111827">352~</text>
<rect x="448.4" y="266.3" width="7.2" height="91.7" rx="2" fill="#1d4ed8" fill-opacity="0.60"/>
<text x="452.0" y="261.3" text-anchor="middle" font-family="Inter,Segoe UI,Arial,sans-serif" font-size="10" font-weight="700" fill="#111827">371~</text>
<rect x="463.6" y="310.3" width="7.2" height="47.7" rx="2" fill="#86efac" fill-opacity="0.86"/>
<text x="467.2" y="305.3" text-anchor="middle" font-family="Inter,Segoe UI,Arial,sans-serif" font-size="10" font-weight="700" fill="#111827">193</text>
<rect x="478.8" y="310.4" width="7.2" height="47.6" rx="2" fill="#15803d" fill-opacity="0.86"/>
<text x="482.4" y="305.4" text-anchor="middle" font-family="Inter,Segoe UI,Arial,sans-serif" font-size="10" font-weight="700" fill="#111827">193</text>
<text x="564.0" y="396" text-anchor="middle" font-family="Inter,Segoe UI,Arial,sans-serif" font-size="11" font-weight="700" fill="#111827">35b-a3b long_code</text>
<rect x="530.0" y="287.6" width="7.2" height="70.4" rx="2" fill="#a78bfa" fill-opacity="0.86"/>
<text x="533.6" y="282.6" text-anchor="middle" font-family="Inter,Segoe UI,Arial,sans-serif" font-size="10" font-weight="700" fill="#111827">285</text>
<rect x="545.2" y="251.5" width="7.2" height="106.5" rx="2" fill="#60a5fa" fill-opacity="0.60"/>
<text x="548.8" y="246.5" text-anchor="middle" font-family="Inter,Segoe UI,Arial,sans-serif" font-size="10" font-weight="700" fill="#111827">431~</text>
<rect x="560.4" y="247.7" width="7.2" height="110.3" rx="2" fill="#1d4ed8" fill-opacity="0.60"/>
<text x="564.0" y="242.7" text-anchor="middle" font-family="Inter,Segoe UI,Arial,sans-serif" font-size="10" font-weight="700" fill="#111827">447~</text>
<rect x="575.6" y="281.1" width="7.2" height="76.9" rx="2" fill="#86efac" fill-opacity="0.86"/>
<text x="579.2" y="276.1" text-anchor="middle" font-family="Inter,Segoe UI,Arial,sans-serif" font-size="10" font-weight="700" fill="#111827">311</text>
<rect x="590.8" y="281.4" width="7.2" height="76.6" rx="2" fill="#15803d" fill-opacity="0.86"/>
<text x="594.4" y="276.4" text-anchor="middle" font-family="Inter,Segoe UI,Arial,sans-serif" font-size="10" font-weight="700" fill="#111827">310</text>
<text x="676.0" y="396" text-anchor="middle" font-family="Inter,Segoe UI,Arial,sans-serif" font-size="11" font-weight="700" fill="#111827">35b-a3b python_modules_long</text>
<rect x="642.0" y="308.0" width="7.2" height="50.0" rx="2" fill="#a78bfa" fill-opacity="0.86"/>
<text x="645.6" y="303.0" text-anchor="middle" font-family="Inter,Segoe UI,Arial,sans-serif" font-size="10" font-weight="700" fill="#111827">202</text>
<rect x="657.2" y="271.7" width="7.2" height="86.3" rx="2" fill="#60a5fa" fill-opacity="0.60"/>
<text x="660.8" y="266.7" text-anchor="middle" font-family="Inter,Segoe UI,Arial,sans-serif" font-size="10" font-weight="700" fill="#111827">349~</text>
<rect x="672.4" y="268.9" width="7.2" height="89.1" rx="2" fill="#1d4ed8" fill-opacity="0.60"/>
<text x="676.0" y="263.9" text-anchor="middle" font-family="Inter,Segoe UI,Arial,sans-serif" font-size="10" font-weight="700" fill="#111827">360~</text>
<rect x="687.6" y="310.9" width="7.2" height="47.1" rx="2" fill="#86efac" fill-opacity="0.86"/>
<text x="691.2" y="305.9" text-anchor="middle" font-family="Inter,Segoe UI,Arial,sans-serif" font-size="10" font-weight="700" fill="#111827">191</text>
<rect x="702.8" y="310.8" width="7.2" height="47.2" rx="2" fill="#15803d" fill-opacity="0.86"/>
<text x="706.4" y="305.8" text-anchor="middle" font-family="Inter,Segoe UI,Arial,sans-serif" font-size="10" font-weight="700" fill="#111827">191</text>
<rect x="60" y="407" width="10" height="10" rx="2" fill="#a78bfa" fill-opacity="0.86"/>
<text x="74" y="416" font-family="Inter,Segoe UI,Arial,sans-serif" font-size="10" fill="#374151">MTPLX 0.3.7</text>
<rect x="190" y="407" width="10" height="10" rx="2" fill="#60a5fa" fill-opacity="0.60"/>
<text x="204" y="416" font-family="Inter,Segoe UI,Arial,sans-serif" font-size="10" fill="#374151">Light. MTP</text>
<rect x="320" y="407" width="10" height="10" rx="2" fill="#1d4ed8" fill-opacity="0.60"/>
<text x="334" y="416" font-family="Inter,Segoe UI,Arial,sans-serif" font-size="10" fill="#374151">Light. ngram+MTP</text>
<rect x="450" y="407" width="10" height="10" rx="2" fill="#86efac" fill-opacity="0.86"/>
<text x="464" y="416" font-family="Inter,Segoe UI,Arial,sans-serif" font-size="10" fill="#374151">AX MTP</text>
<rect x="580" y="407" width="10" height="10" rx="2" fill="#15803d" fill-opacity="0.86"/>
<text x="594" y="416" font-family="Inter,Segoe UI,Arial,sans-serif" font-size="10" fill="#374151">AX MTP+n-gram</text>
</svg>
