<svg xmlns="http://www.w3.org/2000/svg" width="900" height="460" viewBox="0 0 900 460" role="img" aria-labelledby="title desc">
<title>Qwen3.6 MTP fair decode throughput</title>
<desc>Grouped box-and-whisker plot comparing MTPLX 0.3.7, AX Engine v5.1.6, AX+ngram v5.1.6 across 35B-A3B.</desc>
<rect width="100%" height="100%" fill="#f8fafc"/>
<text x="24" y="24" font-family="Inter,Segoe UI,Arial,sans-serif" font-size="16" font-weight="700" fill="#111827">Qwen3.6 MTP fair decode throughput</text>
<text x="24" y="46" font-family="Inter,Segoe UI,Arial,sans-serif" font-size="11" fill="#4b5563">All suites combined per model | box=IQR | whiskers=min/max | dots=runs</text>
<text x="24" y="62" font-family="Inter,Segoe UI,Arial,sans-serif" font-size="10" fill="#6b7280">MTPLX 0.3.7 · Lightning-MLX 0.6.32 · AX Engine v5.1.6</text>
<rect x="807" y="13" width="59" height="22" rx="11" fill="#eef2ff" stroke="#c7d2fe"/>
<text x="836.5" y="28" text-anchor="middle" font-family="Inter,Segoe UI,Arial,sans-serif" font-size="10" font-weight="700" fill="#3730a3">tok/s</text>
<text x="866" y="52" text-anchor="end" font-family="Inter,Segoe UI,Arial,sans-serif" font-size="10" font-weight="700" fill="#374151">Higher is better</text>
<rect x="64" y="86" width="676" height="268" rx="6" fill="#ffffff" stroke="#dbe3ef"/>
<line x1="64" y1="354.0" x2="740" y2="354.0" stroke="#e5e7eb" stroke-width="1"/>
<text x="56" y="357.0" text-anchor="end" font-family="Inter,Segoe UI,Arial,sans-serif" font-size="11" fill="#6b7280">0.0</text>
<line x1="64" y1="287.0" x2="740" y2="287.0" stroke="#e5e7eb" stroke-width="1"/>
<text x="56" y="290.0" text-anchor="end" font-family="Inter,Segoe UI,Arial,sans-serif" font-size="11" fill="#6b7280">50</text>
<line x1="64" y1="220.0" x2="740" y2="220.0" stroke="#e5e7eb" stroke-width="1"/>
<text x="56" y="223.0" text-anchor="end" font-family="Inter,Segoe UI,Arial,sans-serif" font-size="11" fill="#6b7280">100</text>
<line x1="64" y1="153.0" x2="740" y2="153.0" stroke="#e5e7eb" stroke-width="1"/>
<text x="56" y="156.0" text-anchor="end" font-family="Inter,Segoe UI,Arial,sans-serif" font-size="11" fill="#6b7280">150</text>
<line x1="64" y1="86.0" x2="740" y2="86.0" stroke="#e5e7eb" stroke-width="1"/>
<text x="56" y="89.0" text-anchor="end" font-family="Inter,Segoe UI,Arial,sans-serif" font-size="11" fill="#6b7280">200</text>
<line x1="64" y1="125.0" x2="740" y2="125.0" stroke="#dc2626" stroke-width="1.2" stroke-dasharray="1 4" stroke-linecap="round"/>
<text x="748" y="120.0" text-anchor="start" font-family="Inter,Segoe UI,Arial,sans-serif" font-size="11" font-weight="700" fill="#dc2626" data-label="highest median">highest: 171</text>
<text x="402.0" y="398" text-anchor="middle" font-family="Inter,Segoe UI,Arial,sans-serif" font-size="11" font-weight="700" fill="#111827">35B-A3B</text>
<circle cx="127.8" cy="221.8" r="1.45" fill="#14532d" fill-opacity="0.46"/>
<circle cx="130.8" cy="223.3" r="1.45" fill="#14532d" fill-opacity="0.46"/>
<circle cx="133.9" cy="225.8" r="1.45" fill="#14532d" fill-opacity="0.46"/>
<circle cx="136.9" cy="229.9" r="1.45" fill="#14532d" fill-opacity="0.46"/>
<circle cx="140.0" cy="227.4" r="1.45" fill="#14532d" fill-opacity="0.46"/>
<circle cx="143.1" cy="219.5" r="1.45" fill="#14532d" fill-opacity="0.46"/>
<circle cx="146.1" cy="218.6" r="1.45" fill="#14532d" fill-opacity="0.46"/>
<circle cx="149.2" cy="216.3" r="1.45" fill="#14532d" fill-opacity="0.46"/>
<circle cx="152.2" cy="239.6" r="1.45" fill="#14532d" fill-opacity="0.46"/>
<circle cx="127.8" cy="233.8" r="1.45" fill="#14532d" fill-opacity="0.46"/>
<circle cx="130.8" cy="224.8" r="1.45" fill="#14532d" fill-opacity="0.46"/>
<circle cx="133.9" cy="225.0" r="1.45" fill="#14532d" fill-opacity="0.46"/>
<circle cx="136.9" cy="225.1" r="1.45" fill="#14532d" fill-opacity="0.46"/>
<circle cx="140.0" cy="233.1" r="1.45" fill="#14532d" fill-opacity="0.46"/>
<circle cx="143.1" cy="224.7" r="1.45" fill="#14532d" fill-opacity="0.46"/>
<line x1="140.0" y1="216.3" x2="140.0" y2="239.6" stroke="#14532d" stroke-opacity="0.86" stroke-width="1.8"/>
<line x1="127.8" y1="216.3" x2="152.2" y2="216.3" stroke="#14532d" stroke-opacity="0.86" stroke-width="1.8"/>
<line x1="127.8" y1="239.6" x2="152.2" y2="239.6" stroke="#14532d" stroke-opacity="0.86" stroke-width="1.8"/>
<rect x="123.0" y="222.5" width="34.0" height="6.1" rx="2" fill="#14532d" fill-opacity="0.18" stroke="#14532d" stroke-opacity="0.9" stroke-width="1.8"/>
<line x1="123.0" y1="225.0" x2="157.0" y2="225.0" stroke="#14532d" stroke-opacity="0.96" stroke-width="2.6"/>
<text x="163.0" y="229.0" text-anchor="start" font-family="Inter,Segoe UI,Arial,sans-serif" font-size="11" font-weight="700" fill="#111827" stroke="#ffffff" stroke-width="3" paint-order="stroke">96.3</text>
<circle cx="389.8" cy="122.7" r="1.45" fill="#f97316" fill-opacity="0.46"/>
<circle cx="392.8" cy="128.0" r="1.45" fill="#f97316" fill-opacity="0.46"/>
<circle cx="395.9" cy="125.0" r="1.45" fill="#f97316" fill-opacity="0.46"/>
<line x1="402.0" y1="122.7" x2="402.0" y2="128.0" stroke="#f97316" stroke-opacity="0.86" stroke-width="1.8"/>
<line x1="389.8" y1="122.7" x2="414.2" y2="122.7" stroke="#f97316" stroke-opacity="0.86" stroke-width="1.8"/>
<line x1="389.8" y1="128.0" x2="414.2" y2="128.0" stroke="#f97316" stroke-opacity="0.86" stroke-width="1.8"/>
<rect x="385.0" y="123.8" width="34.0" height="2.6" rx="2" fill="#f97316" fill-opacity="0.18" stroke="#f97316" stroke-opacity="0.9" stroke-width="1.8"/>
<line x1="385.0" y1="125.0" x2="419.0" y2="125.0" stroke="#f97316" stroke-opacity="0.96" stroke-width="2.6"/>
<text x="425.0" y="129.0" text-anchor="start" font-family="Inter,Segoe UI,Arial,sans-serif" font-size="11" font-weight="700" fill="#111827" stroke="#ffffff" stroke-width="3" paint-order="stroke">171</text>
<circle cx="651.8" cy="129.5" r="1.45" fill="#eab308" fill-opacity="0.46"/>
<circle cx="654.8" cy="129.7" r="1.45" fill="#eab308" fill-opacity="0.46"/>
<circle cx="657.9" cy="119.4" r="1.45" fill="#eab308" fill-opacity="0.46"/>
<line x1="664.0" y1="119.4" x2="664.0" y2="129.7" stroke="#eab308" stroke-opacity="0.86" stroke-width="1.8"/>
<line x1="651.8" y1="119.4" x2="676.2" y2="119.4" stroke="#eab308" stroke-opacity="0.86" stroke-width="1.8"/>
<line x1="651.8" y1="129.7" x2="676.2" y2="129.7" stroke="#eab308" stroke-opacity="0.86" stroke-width="1.8"/>
<rect x="647.0" y="124.5" width="34.0" height="5.1" rx="2" fill="#eab308" fill-opacity="0.18" stroke="#eab308" stroke-opacity="0.9" stroke-width="1.8"/>
<line x1="647.0" y1="129.5" x2="681.0" y2="129.5" stroke="#eab308" stroke-opacity="0.96" stroke-width="2.6"/>
<text x="687.0" y="133.5" text-anchor="start" font-family="Inter,Segoe UI,Arial,sans-serif" font-size="11" font-weight="700" fill="#111827" stroke="#ffffff" stroke-width="3" paint-order="stroke">168</text>
<rect x="64.0" y="433" width="10" height="10" rx="2" fill="#14532d" fill-opacity="0.72"/>
<text x="78.0" y="442" font-family="Inter,Segoe UI,Arial,sans-serif" font-size="10" fill="#374151">MTPLX 0.3.7</text>
<rect x="289.3" y="433" width="10" height="10" rx="2" fill="#f97316" fill-opacity="0.72"/>
<text x="303.3" y="442" font-family="Inter,Segoe UI,Arial,sans-serif" font-size="10" fill="#374151">AX Engine v5.1.6</text>
<rect x="514.7" y="433" width="10" height="10" rx="2" fill="#eab308" fill-opacity="0.72"/>
<text x="528.7" y="442" font-family="Inter,Segoe UI,Arial,sans-serif" font-size="10" fill="#374151">AX+ngram v5.1.6</text>
</svg>
