<svg xmlns="http://www.w3.org/2000/svg" width="900" height="460" viewBox="0 0 900 460" role="img" aria-labelledby="title desc">
<title>MTP prefill throughput</title>
<desc>Grouped box-and-whisker plot comparing MTPLX 0.3.7, AX Engine v5.1.6, AX+ngram v5.1.6.</desc>
<rect width="100%" height="100%" fill="#f8fafc"/>
<text x="24" y="24" font-family="Inter,Segoe UI,Arial,sans-serif" font-size="16" font-weight="700" fill="#111827">MTP prefill throughput</text>
<text x="24" y="46" font-family="Inter,Segoe UI,Arial,sans-serif" font-size="11" fill="#4b5563">All suites combined per model | box=IQR | dots=runs | Lightning ~= TTFT-derived</text>
<text x="24" y="62" font-family="Inter,Segoe UI,Arial,sans-serif" font-size="10" fill="#6b7280">MTPLX 0.3.7 · Lightning-MLX 0.6.32 · AX Engine v5.1.6</text>
<rect x="807" y="13" width="59" height="22" rx="11" fill="#eef2ff" stroke="#c7d2fe"/>
<text x="836.5" y="28" text-anchor="middle" font-family="Inter,Segoe UI,Arial,sans-serif" font-size="10" font-weight="700" fill="#3730a3">tok/s</text>
<text x="866" y="52" text-anchor="end" font-family="Inter,Segoe UI,Arial,sans-serif" font-size="10" font-weight="700" fill="#374151">Higher is better</text>
<rect x="64" y="86" width="676" height="268" rx="6" fill="#ffffff" stroke="#dbe3ef"/>
<line x1="64" y1="354.0" x2="740" y2="354.0" stroke="#e5e7eb" stroke-width="1"/>
<text x="56" y="357.0" text-anchor="end" font-family="Inter,Segoe UI,Arial,sans-serif" font-size="11" fill="#6b7280">0.0</text>
<line x1="64" y1="287.0" x2="740" y2="287.0" stroke="#e5e7eb" stroke-width="1"/>
<text x="56" y="290.0" text-anchor="end" font-family="Inter,Segoe UI,Arial,sans-serif" font-size="11" fill="#6b7280">1.25k</text>
<line x1="64" y1="220.0" x2="740" y2="220.0" stroke="#e5e7eb" stroke-width="1"/>
<text x="56" y="223.0" text-anchor="end" font-family="Inter,Segoe UI,Arial,sans-serif" font-size="11" fill="#6b7280">2.5k</text>
<line x1="64" y1="153.0" x2="740" y2="153.0" stroke="#e5e7eb" stroke-width="1"/>
<text x="56" y="156.0" text-anchor="end" font-family="Inter,Segoe UI,Arial,sans-serif" font-size="11" fill="#6b7280">3.75k</text>
<line x1="64" y1="86.0" x2="740" y2="86.0" stroke="#e5e7eb" stroke-width="1"/>
<text x="56" y="89.0" text-anchor="end" font-family="Inter,Segoe UI,Arial,sans-serif" font-size="11" fill="#6b7280">5k</text>
<line x1="64" y1="246.4" x2="740" y2="246.4" stroke="#dc2626" stroke-width="1.2" stroke-dasharray="1 4" stroke-linecap="round"/>
<text x="748" y="241.4" text-anchor="start" font-family="Inter,Segoe UI,Arial,sans-serif" font-size="11" font-weight="700" fill="#dc2626" data-label="highest median">highest: 2.0k</text>
<text x="233.0" y="398" text-anchor="middle" font-family="Inter,Segoe UI,Arial,sans-serif" font-size="11" font-weight="700" fill="#111827">27B</text>
<circle cx="95.8" cy="321.7" r="1.45" fill="#14532d" fill-opacity="0.46"/>
<circle cx="98.8" cy="319.6" r="1.45" fill="#14532d" fill-opacity="0.46"/>
<circle cx="101.9" cy="321.1" r="1.45" fill="#14532d" fill-opacity="0.46"/>
<circle cx="104.9" cy="321.4" r="1.45" fill="#14532d" fill-opacity="0.46"/>
<circle cx="108.0" cy="320.4" r="1.45" fill="#14532d" fill-opacity="0.46"/>
<circle cx="111.1" cy="315.8" r="1.45" fill="#14532d" fill-opacity="0.46"/>
<circle cx="114.1" cy="314.1" r="1.45" fill="#14532d" fill-opacity="0.46"/>
<circle cx="117.2" cy="314.8" r="1.45" fill="#14532d" fill-opacity="0.46"/>
<circle cx="120.2" cy="316.2" r="1.45" fill="#14532d" fill-opacity="0.46"/>
<circle cx="95.8" cy="314.1" r="1.45" fill="#14532d" fill-opacity="0.46"/>
<circle cx="98.8" cy="312.7" r="1.45" fill="#14532d" fill-opacity="0.46"/>
<circle cx="101.9" cy="314.6" r="1.45" fill="#14532d" fill-opacity="0.46"/>
<circle cx="104.9" cy="315.1" r="1.45" fill="#14532d" fill-opacity="0.46"/>
<circle cx="108.0" cy="315.1" r="1.45" fill="#14532d" fill-opacity="0.46"/>
<circle cx="111.1" cy="315.0" r="1.45" fill="#14532d" fill-opacity="0.46"/>
<circle cx="114.1" cy="321.3" r="1.45" fill="#14532d" fill-opacity="0.46"/>
<circle cx="117.2" cy="320.2" r="1.45" fill="#14532d" fill-opacity="0.46"/>
<circle cx="120.2" cy="321.4" r="1.45" fill="#14532d" fill-opacity="0.46"/>
<circle cx="95.8" cy="321.7" r="1.45" fill="#14532d" fill-opacity="0.46"/>
<circle cx="98.8" cy="321.9" r="1.45" fill="#14532d" fill-opacity="0.46"/>
<circle cx="101.9" cy="311.9" r="1.45" fill="#14532d" fill-opacity="0.46"/>
<circle cx="104.9" cy="312.1" r="1.45" fill="#14532d" fill-opacity="0.46"/>
<circle cx="108.0" cy="311.8" r="1.45" fill="#14532d" fill-opacity="0.46"/>
<circle cx="111.1" cy="310.2" r="1.45" fill="#14532d" fill-opacity="0.46"/>
<circle cx="114.1" cy="311.7" r="1.45" fill="#14532d" fill-opacity="0.46"/>
<circle cx="117.2" cy="309.3" r="1.45" fill="#14532d" fill-opacity="0.46"/>
<circle cx="120.2" cy="310.4" r="1.45" fill="#14532d" fill-opacity="0.46"/>
<circle cx="95.8" cy="310.3" r="1.45" fill="#14532d" fill-opacity="0.46"/>
<circle cx="98.8" cy="310.4" r="1.45" fill="#14532d" fill-opacity="0.46"/>
<circle cx="101.9" cy="310.6" r="1.45" fill="#14532d" fill-opacity="0.46"/>
<circle cx="104.9" cy="312.5" r="1.45" fill="#14532d" fill-opacity="0.46"/>
<circle cx="108.0" cy="312.1" r="1.45" fill="#14532d" fill-opacity="0.46"/>
<circle cx="111.1" cy="312.1" r="1.45" fill="#14532d" fill-opacity="0.46"/>
<circle cx="114.1" cy="312.0" r="1.45" fill="#14532d" fill-opacity="0.46"/>
<circle cx="117.2" cy="311.7" r="1.45" fill="#14532d" fill-opacity="0.46"/>
<circle cx="120.2" cy="314.4" r="1.45" fill="#14532d" fill-opacity="0.46"/>
<circle cx="95.8" cy="315.6" r="1.45" fill="#14532d" fill-opacity="0.46"/>
<circle cx="98.8" cy="315.8" r="1.45" fill="#14532d" fill-opacity="0.46"/>
<circle cx="101.9" cy="316.0" r="1.45" fill="#14532d" fill-opacity="0.46"/>
<circle cx="104.9" cy="316.0" r="1.45" fill="#14532d" fill-opacity="0.46"/>
<circle cx="108.0" cy="320.4" r="1.45" fill="#14532d" fill-opacity="0.46"/>
<circle cx="111.1" cy="320.1" r="1.45" fill="#14532d" fill-opacity="0.46"/>
<circle cx="114.1" cy="320.4" r="1.45" fill="#14532d" fill-opacity="0.46"/>
<circle cx="117.2" cy="320.7" r="1.45" fill="#14532d" fill-opacity="0.46"/>
<circle cx="120.2" cy="320.6" r="1.45" fill="#14532d" fill-opacity="0.46"/>
<circle cx="95.8" cy="318.1" r="1.45" fill="#14532d" fill-opacity="0.46"/>
<circle cx="98.8" cy="318.1" r="1.45" fill="#14532d" fill-opacity="0.46"/>
<circle cx="101.9" cy="317.8" r="1.45" fill="#14532d" fill-opacity="0.46"/>
<circle cx="104.9" cy="318.4" r="1.45" fill="#14532d" fill-opacity="0.46"/>
<circle cx="108.0" cy="317.0" r="1.45" fill="#14532d" fill-opacity="0.46"/>
<circle cx="111.1" cy="317.8" r="1.45" fill="#14532d" fill-opacity="0.46"/>
<circle cx="114.1" cy="318.3" r="1.45" fill="#14532d" fill-opacity="0.46"/>
<circle cx="117.2" cy="317.8" r="1.45" fill="#14532d" fill-opacity="0.46"/>
<circle cx="120.2" cy="318.3" r="1.45" fill="#14532d" fill-opacity="0.46"/>
<circle cx="95.8" cy="317.5" r="1.45" fill="#14532d" fill-opacity="0.46"/>
<line x1="108.0" y1="309.3" x2="108.0" y2="321.9" stroke="#14532d" stroke-opacity="0.82" stroke-width="1.8"/>
<line x1="95.8" y1="309.3" x2="120.2" y2="309.3" stroke="#14532d" stroke-opacity="0.82" stroke-width="1.8"/>
<line x1="95.8" y1="321.9" x2="120.2" y2="321.9" stroke="#14532d" stroke-opacity="0.82" stroke-width="1.8"/>
<rect x="91.0" y="312.3" width="34.0" height="7.6" rx="2" fill="#14532d" fill-opacity="0.18" stroke="#14532d" stroke-opacity="0.82" stroke-width="1.8"/>
<line x1="91.0" y1="316.0" x2="125.0" y2="316.0" stroke="#14532d" stroke-opacity="0.82" stroke-width="2.6"/>
<text x="131.0" y="320.0" text-anchor="start" font-family="Inter,Segoe UI,Arial,sans-serif" font-size="11" font-weight="700" fill="#111827" stroke="#ffffff" stroke-width="3" paint-order="stroke">710</text>
<circle cx="220.8" cy="320.3" r="1.45" fill="#f97316" fill-opacity="0.46"/>
<circle cx="223.8" cy="314.4" r="1.45" fill="#f97316" fill-opacity="0.46"/>
<circle cx="226.9" cy="313.5" r="1.45" fill="#f97316" fill-opacity="0.46"/>
<circle cx="229.9" cy="321.1" r="1.45" fill="#f97316" fill-opacity="0.46"/>
<circle cx="233.0" cy="311.5" r="1.45" fill="#f97316" fill-opacity="0.46"/>
<circle cx="236.1" cy="310.1" r="1.45" fill="#f97316" fill-opacity="0.46"/>
<circle cx="239.1" cy="311.8" r="1.45" fill="#f97316" fill-opacity="0.46"/>
<circle cx="242.2" cy="315.7" r="1.45" fill="#f97316" fill-opacity="0.46"/>
<circle cx="245.2" cy="319.2" r="1.45" fill="#f97316" fill-opacity="0.46"/>
<circle cx="220.8" cy="316.9" r="1.45" fill="#f97316" fill-opacity="0.46"/>
<circle cx="223.8" cy="316.9" r="1.45" fill="#f97316" fill-opacity="0.46"/>
<line x1="233.0" y1="310.1" x2="233.0" y2="321.1" stroke="#f97316" stroke-opacity="0.82" stroke-width="1.8"/>
<line x1="220.8" y1="310.1" x2="245.2" y2="310.1" stroke="#f97316" stroke-opacity="0.82" stroke-width="1.8"/>
<line x1="220.8" y1="321.1" x2="245.2" y2="321.1" stroke="#f97316" stroke-opacity="0.82" stroke-width="1.8"/>
<rect x="216.0" y="312.7" width="34.0" height="5.4" rx="2" fill="#f97316" fill-opacity="0.18" stroke="#f97316" stroke-opacity="0.82" stroke-width="1.8"/>
<line x1="216.0" y1="315.7" x2="250.0" y2="315.7" stroke="#f97316" stroke-opacity="0.82" stroke-width="2.6"/>
<text x="256.0" y="319.7" text-anchor="start" font-family="Inter,Segoe UI,Arial,sans-serif" font-size="11" font-weight="700" fill="#111827" stroke="#ffffff" stroke-width="3" paint-order="stroke">715</text>
<circle cx="345.8" cy="320.2" r="1.45" fill="#eab308" fill-opacity="0.46"/>
<circle cx="348.8" cy="314.4" r="1.45" fill="#eab308" fill-opacity="0.46"/>
<circle cx="351.9" cy="313.4" r="1.45" fill="#eab308" fill-opacity="0.46"/>
<circle cx="354.9" cy="321.1" r="1.45" fill="#eab308" fill-opacity="0.46"/>
<circle cx="358.0" cy="311.6" r="1.45" fill="#eab308" fill-opacity="0.46"/>
<circle cx="361.1" cy="310.2" r="1.45" fill="#eab308" fill-opacity="0.46"/>
<circle cx="364.1" cy="311.8" r="1.45" fill="#eab308" fill-opacity="0.46"/>
<circle cx="367.2" cy="315.7" r="1.45" fill="#eab308" fill-opacity="0.46"/>
<circle cx="370.2" cy="319.2" r="1.45" fill="#eab308" fill-opacity="0.46"/>
<circle cx="345.8" cy="316.9" r="1.45" fill="#eab308" fill-opacity="0.46"/>
<circle cx="348.8" cy="316.9" r="1.45" fill="#eab308" fill-opacity="0.46"/>
<line x1="358.0" y1="310.2" x2="358.0" y2="321.1" stroke="#eab308" stroke-opacity="0.82" stroke-width="1.8"/>
<line x1="345.8" y1="310.2" x2="370.2" y2="310.2" stroke="#eab308" stroke-opacity="0.82" stroke-width="1.8"/>
<line x1="345.8" y1="321.1" x2="370.2" y2="321.1" stroke="#eab308" stroke-opacity="0.82" stroke-width="1.8"/>
<rect x="341.0" y="312.6" width="34.0" height="5.4" rx="2" fill="#eab308" fill-opacity="0.18" stroke="#eab308" stroke-opacity="0.82" stroke-width="1.8"/>
<line x1="341.0" y1="315.7" x2="375.0" y2="315.7" stroke="#eab308" stroke-opacity="0.82" stroke-width="2.6"/>
<text x="381.0" y="319.7" text-anchor="start" font-family="Inter,Segoe UI,Arial,sans-serif" font-size="11" font-weight="700" fill="#111827" stroke="#ffffff" stroke-width="3" paint-order="stroke">714</text>
<text x="571.0" y="398" text-anchor="middle" font-family="Inter,Segoe UI,Arial,sans-serif" font-size="11" font-weight="700" fill="#111827">35B-A3B</text>
<circle cx="433.8" cy="281.3" r="1.45" fill="#14532d" fill-opacity="0.46"/>
<circle cx="436.8" cy="282.3" r="1.45" fill="#14532d" fill-opacity="0.46"/>
<circle cx="439.9" cy="276.3" r="1.45" fill="#14532d" fill-opacity="0.46"/>
<circle cx="442.9" cy="281.4" r="1.45" fill="#14532d" fill-opacity="0.46"/>
<circle cx="446.0" cy="282.9" r="1.45" fill="#14532d" fill-opacity="0.46"/>
<circle cx="449.1" cy="264.6" r="1.45" fill="#14532d" fill-opacity="0.46"/>
<circle cx="452.1" cy="265.7" r="1.45" fill="#14532d" fill-opacity="0.46"/>
<circle cx="455.2" cy="257.6" r="1.45" fill="#14532d" fill-opacity="0.46"/>
<circle cx="458.2" cy="266.2" r="1.45" fill="#14532d" fill-opacity="0.46"/>
<circle cx="433.8" cy="265.3" r="1.45" fill="#14532d" fill-opacity="0.46"/>
<circle cx="436.8" cy="256.8" r="1.45" fill="#14532d" fill-opacity="0.46"/>
<circle cx="439.9" cy="254.5" r="1.45" fill="#14532d" fill-opacity="0.46"/>
<circle cx="442.9" cy="257.0" r="1.45" fill="#14532d" fill-opacity="0.46"/>
<circle cx="446.0" cy="256.9" r="1.45" fill="#14532d" fill-opacity="0.46"/>
<circle cx="449.1" cy="259.4" r="1.45" fill="#14532d" fill-opacity="0.46"/>
<circle cx="452.1" cy="283.8" r="1.45" fill="#14532d" fill-opacity="0.46"/>
<circle cx="455.2" cy="285.5" r="1.45" fill="#14532d" fill-opacity="0.46"/>
<circle cx="458.2" cy="284.4" r="1.45" fill="#14532d" fill-opacity="0.46"/>
<circle cx="433.8" cy="279.1" r="1.45" fill="#14532d" fill-opacity="0.46"/>
<circle cx="436.8" cy="279.0" r="1.45" fill="#14532d" fill-opacity="0.46"/>
<circle cx="439.9" cy="239.7" r="1.45" fill="#14532d" fill-opacity="0.46"/>
<circle cx="442.9" cy="239.8" r="1.45" fill="#14532d" fill-opacity="0.46"/>
<circle cx="446.0" cy="238.2" r="1.45" fill="#14532d" fill-opacity="0.46"/>
<circle cx="449.1" cy="241.2" r="1.45" fill="#14532d" fill-opacity="0.46"/>
<circle cx="452.1" cy="228.4" r="1.45" fill="#14532d" fill-opacity="0.46"/>
<circle cx="455.2" cy="211.2" r="1.45" fill="#14532d" fill-opacity="0.46"/>
<circle cx="458.2" cy="217.6" r="1.45" fill="#14532d" fill-opacity="0.46"/>
<circle cx="433.8" cy="220.4" r="1.45" fill="#14532d" fill-opacity="0.46"/>
<circle cx="436.8" cy="217.6" r="1.45" fill="#14532d" fill-opacity="0.46"/>
<circle cx="439.9" cy="226.8" r="1.45" fill="#14532d" fill-opacity="0.46"/>
<circle cx="442.9" cy="246.4" r="1.45" fill="#14532d" fill-opacity="0.46"/>
<circle cx="446.0" cy="240.5" r="1.45" fill="#14532d" fill-opacity="0.46"/>
<circle cx="449.1" cy="242.4" r="1.45" fill="#14532d" fill-opacity="0.46"/>
<circle cx="452.1" cy="229.1" r="1.45" fill="#14532d" fill-opacity="0.46"/>
<circle cx="455.2" cy="244.3" r="1.45" fill="#14532d" fill-opacity="0.46"/>
<circle cx="458.2" cy="266.3" r="1.45" fill="#14532d" fill-opacity="0.46"/>
<circle cx="433.8" cy="281.4" r="1.45" fill="#14532d" fill-opacity="0.46"/>
<circle cx="436.8" cy="269.8" r="1.45" fill="#14532d" fill-opacity="0.46"/>
<circle cx="439.9" cy="268.5" r="1.45" fill="#14532d" fill-opacity="0.46"/>
<circle cx="442.9" cy="281.2" r="1.45" fill="#14532d" fill-opacity="0.46"/>
<circle cx="446.0" cy="284.9" r="1.45" fill="#14532d" fill-opacity="0.46"/>
<circle cx="449.1" cy="292.7" r="1.45" fill="#14532d" fill-opacity="0.46"/>
<circle cx="452.1" cy="301.7" r="1.45" fill="#14532d" fill-opacity="0.46"/>
<circle cx="455.2" cy="274.9" r="1.45" fill="#14532d" fill-opacity="0.46"/>
<circle cx="458.2" cy="277.0" r="1.45" fill="#14532d" fill-opacity="0.46"/>
<circle cx="433.8" cy="280.1" r="1.45" fill="#14532d" fill-opacity="0.46"/>
<circle cx="436.8" cy="279.7" r="1.45" fill="#14532d" fill-opacity="0.46"/>
<circle cx="439.9" cy="267.7" r="1.45" fill="#14532d" fill-opacity="0.46"/>
<circle cx="442.9" cy="348.0" r="1.45" fill="#14532d" fill-opacity="0.46"/>
<circle cx="446.0" cy="352.8" r="1.45" fill="#14532d" fill-opacity="0.46"/>
<circle cx="449.1" cy="346.4" r="1.45" fill="#14532d" fill-opacity="0.46"/>
<circle cx="452.1" cy="346.5" r="1.45" fill="#14532d" fill-opacity="0.46"/>
<circle cx="455.2" cy="346.8" r="1.45" fill="#14532d" fill-opacity="0.46"/>
<circle cx="458.2" cy="346.0" r="1.45" fill="#14532d" fill-opacity="0.46"/>
<circle cx="433.8" cy="345.7" r="1.45" fill="#14532d" fill-opacity="0.46"/>
<line x1="446.0" y1="211.2" x2="446.0" y2="352.8" stroke="#14532d" stroke-opacity="0.82" stroke-width="1.8"/>
<line x1="433.8" y1="211.2" x2="458.2" y2="211.2" stroke="#14532d" stroke-opacity="0.82" stroke-width="1.8"/>
<line x1="433.8" y1="352.8" x2="458.2" y2="352.8" stroke="#14532d" stroke-opacity="0.82" stroke-width="1.8"/>
<rect x="429.0" y="245.3" width="34.0" height="37.3" rx="2" fill="#14532d" fill-opacity="0.18" stroke="#14532d" stroke-opacity="0.82" stroke-width="1.8"/>
<line x1="429.0" y1="268.5" x2="463.0" y2="268.5" stroke="#14532d" stroke-opacity="0.82" stroke-width="2.6"/>
<text x="469.0" y="272.5" text-anchor="start" font-family="Inter,Segoe UI,Arial,sans-serif" font-size="11" font-weight="700" fill="#111827" stroke="#ffffff" stroke-width="3" paint-order="stroke">1.6k</text>
<circle cx="558.8" cy="266.9" r="1.45" fill="#f97316" fill-opacity="0.46"/>
<circle cx="561.8" cy="247.5" r="1.45" fill="#f97316" fill-opacity="0.46"/>
<circle cx="564.9" cy="239.7" r="1.45" fill="#f97316" fill-opacity="0.46"/>
<circle cx="567.9" cy="268.7" r="1.45" fill="#f97316" fill-opacity="0.46"/>
<circle cx="571.0" cy="215.4" r="1.45" fill="#f97316" fill-opacity="0.46"/>
<circle cx="574.1" cy="206.5" r="1.45" fill="#f97316" fill-opacity="0.46"/>
<circle cx="577.1" cy="216.9" r="1.45" fill="#f97316" fill-opacity="0.46"/>
<circle cx="580.2" cy="238.2" r="1.45" fill="#f97316" fill-opacity="0.46"/>
<circle cx="583.2" cy="259.7" r="1.45" fill="#f97316" fill-opacity="0.46"/>
<circle cx="558.8" cy="246.7" r="1.45" fill="#f97316" fill-opacity="0.46"/>
<circle cx="561.8" cy="248.4" r="1.45" fill="#f97316" fill-opacity="0.46"/>
<line x1="571.0" y1="206.5" x2="571.0" y2="268.7" stroke="#f97316" stroke-opacity="0.82" stroke-width="1.8"/>
<line x1="558.8" y1="206.5" x2="583.2" y2="206.5" stroke="#f97316" stroke-opacity="0.82" stroke-width="1.8"/>
<line x1="558.8" y1="268.7" x2="583.2" y2="268.7" stroke="#f97316" stroke-opacity="0.82" stroke-width="1.8"/>
<rect x="554.0" y="227.6" width="34.0" height="26.5" rx="2" fill="#f97316" fill-opacity="0.18" stroke="#f97316" stroke-opacity="0.82" stroke-width="1.8"/>
<line x1="554.0" y1="246.7" x2="588.0" y2="246.7" stroke="#f97316" stroke-opacity="0.82" stroke-width="2.6"/>
<text x="594.0" y="250.7" text-anchor="start" font-family="Inter,Segoe UI,Arial,sans-serif" font-size="11" font-weight="700" fill="#111827" stroke="#ffffff" stroke-width="3" paint-order="stroke">2.0k</text>
<circle cx="683.8" cy="266.4" r="1.45" fill="#eab308" fill-opacity="0.46"/>
<circle cx="686.8" cy="247.2" r="1.45" fill="#eab308" fill-opacity="0.46"/>
<circle cx="689.9" cy="239.6" r="1.45" fill="#eab308" fill-opacity="0.46"/>
<circle cx="692.9" cy="268.4" r="1.45" fill="#eab308" fill-opacity="0.46"/>
<circle cx="696.0" cy="213.4" r="1.45" fill="#eab308" fill-opacity="0.46"/>
<circle cx="699.1" cy="208.5" r="1.45" fill="#eab308" fill-opacity="0.46"/>
<circle cx="702.1" cy="219.0" r="1.45" fill="#eab308" fill-opacity="0.46"/>
<circle cx="705.2" cy="238.2" r="1.45" fill="#eab308" fill-opacity="0.46"/>
<circle cx="708.2" cy="261.4" r="1.45" fill="#eab308" fill-opacity="0.46"/>
<circle cx="683.8" cy="246.4" r="1.45" fill="#eab308" fill-opacity="0.46"/>
<circle cx="686.8" cy="247.0" r="1.45" fill="#eab308" fill-opacity="0.46"/>
<line x1="696.0" y1="208.5" x2="696.0" y2="268.4" stroke="#eab308" stroke-opacity="0.82" stroke-width="1.8"/>
<line x1="683.8" y1="208.5" x2="708.2" y2="208.5" stroke="#eab308" stroke-opacity="0.82" stroke-width="1.8"/>
<line x1="683.8" y1="268.4" x2="708.2" y2="268.4" stroke="#eab308" stroke-opacity="0.82" stroke-width="1.8"/>
<rect x="679.0" y="228.6" width="34.0" height="25.7" rx="2" fill="#eab308" fill-opacity="0.18" stroke="#eab308" stroke-opacity="0.82" stroke-width="1.8"/>
<line x1="679.0" y1="246.4" x2="713.0" y2="246.4" stroke="#eab308" stroke-opacity="0.82" stroke-width="2.6"/>
<text x="719.0" y="250.4" text-anchor="start" font-family="Inter,Segoe UI,Arial,sans-serif" font-size="11" font-weight="700" fill="#111827" stroke="#ffffff" stroke-width="3" paint-order="stroke">2.0k</text>
<rect x="64" y="433" width="10" height="10" rx="2" fill="#14532d" fill-opacity="0.86"/>
<text x="78" y="442" font-family="Inter,Segoe UI,Arial,sans-serif" font-size="10" fill="#374151">MTPLX 0.3.7</text>
<rect x="289.33333333333337" y="433" width="10" height="10" rx="2" fill="#f97316" fill-opacity="0.86"/>
<text x="303.33333333333337" y="442" font-family="Inter,Segoe UI,Arial,sans-serif" font-size="10" fill="#374151">AX Engine v5.1.6</text>
<rect x="514.6666666666667" y="433" width="10" height="10" rx="2" fill="#eab308" fill-opacity="0.86"/>
<text x="528.6666666666667" y="442" font-family="Inter,Segoe UI,Arial,sans-serif" font-size="10" fill="#374151">AX+ngram v5.1.6</text>
</svg>
