<svg xmlns="http://www.w3.org/2000/svg" width="900" height="460" viewBox="0 0 900 460" role="img" aria-labelledby="title desc">
<title>Qwen3.6 MTP fair decode throughput</title>
<desc>Grouped box-and-whisker plot comparing MTPLX 0.3.7 (default), AX Engine v5.2.2 (MTP-only), AX Engine v5.2.2 (MTP + n-gram stacking) across 27B, 35B-A3B.</desc>
<rect width="100%" height="100%" fill="#f8fafc"/>
<text x="24" y="24" font-family="Inter,Segoe UI,Arial,sans-serif" font-size="16" font-weight="700" fill="#111827">Qwen3.6 MTP fair decode throughput</text>
<text x="24" y="46" font-family="Inter,Segoe UI,Arial,sans-serif" font-size="11" fill="#4b5563">All suites combined per model | box=IQR | whiskers=min/max | dots=runs</text>
<text x="24" y="62" font-family="Inter,Segoe UI,Arial,sans-serif" font-size="10" fill="#6b7280">Vendor-default config per row · MTPLX 0.3.7 · AX Engine v5.2.2</text>
<rect x="807" y="13" width="59" height="22" rx="11" fill="#eef2ff" stroke="#c7d2fe"/>
<text x="836.5" y="28" text-anchor="middle" font-family="Inter,Segoe UI,Arial,sans-serif" font-size="10" font-weight="700" fill="#3730a3">tok/s</text>
<text x="866" y="52" text-anchor="end" font-family="Inter,Segoe UI,Arial,sans-serif" font-size="10" font-weight="700" fill="#374151">Higher is better</text>
<rect x="64" y="86" width="676" height="268" rx="6" fill="#ffffff" stroke="#dbe3ef"/>
<line x1="64" y1="354.0" x2="740" y2="354.0" stroke="#e5e7eb" stroke-width="1"/>
<text x="56" y="357.0" text-anchor="end" font-family="Inter,Segoe UI,Arial,sans-serif" font-size="11" fill="#6b7280">0.0</text>
<line x1="64" y1="287.0" x2="740" y2="287.0" stroke="#e5e7eb" stroke-width="1"/>
<text x="56" y="290.0" text-anchor="end" font-family="Inter,Segoe UI,Arial,sans-serif" font-size="11" fill="#6b7280">125</text>
<line x1="64" y1="220.0" x2="740" y2="220.0" stroke="#e5e7eb" stroke-width="1"/>
<text x="56" y="223.0" text-anchor="end" font-family="Inter,Segoe UI,Arial,sans-serif" font-size="11" fill="#6b7280">250</text>
<line x1="64" y1="153.0" x2="740" y2="153.0" stroke="#e5e7eb" stroke-width="1"/>
<text x="56" y="156.0" text-anchor="end" font-family="Inter,Segoe UI,Arial,sans-serif" font-size="11" fill="#6b7280">375</text>
<line x1="64" y1="86.0" x2="740" y2="86.0" stroke="#e5e7eb" stroke-width="1"/>
<text x="56" y="89.0" text-anchor="end" font-family="Inter,Segoe UI,Arial,sans-serif" font-size="11" fill="#6b7280">500</text>
<line x1="64" y1="256.7" x2="740" y2="256.7" stroke="#dc2626" stroke-width="1.2" stroke-dasharray="1 4" stroke-linecap="round"/>
<text x="748" y="251.7" text-anchor="start" font-family="Inter,Segoe UI,Arial,sans-serif" font-size="11" font-weight="700" fill="#dc2626" data-label="highest median">highest: 181</text>
<text x="233.0" y="398" text-anchor="middle" font-family="Inter,Segoe UI,Arial,sans-serif" font-size="11" font-weight="700" fill="#111827">27B</text>
<circle cx="95.8" cy="324.3" r="1.45" fill="#14532d" fill-opacity="0.46"/>
<circle cx="98.8" cy="324.9" r="1.45" fill="#14532d" fill-opacity="0.46"/>
<circle cx="101.9" cy="324.6" r="1.45" fill="#14532d" fill-opacity="0.46"/>
<circle cx="104.9" cy="323.0" r="1.45" fill="#14532d" fill-opacity="0.46"/>
<circle cx="108.0" cy="324.0" r="1.45" fill="#14532d" fill-opacity="0.46"/>
<circle cx="111.1" cy="323.8" r="1.45" fill="#14532d" fill-opacity="0.46"/>
<circle cx="114.1" cy="324.0" r="1.45" fill="#14532d" fill-opacity="0.46"/>
<circle cx="117.2" cy="324.4" r="1.45" fill="#14532d" fill-opacity="0.46"/>
<circle cx="120.2" cy="323.7" r="1.45" fill="#14532d" fill-opacity="0.46"/>
<circle cx="95.8" cy="324.8" r="1.45" fill="#14532d" fill-opacity="0.46"/>
<circle cx="98.8" cy="324.0" r="1.45" fill="#14532d" fill-opacity="0.46"/>
<circle cx="101.9" cy="323.8" r="1.45" fill="#14532d" fill-opacity="0.46"/>
<circle cx="104.9" cy="323.9" r="1.45" fill="#14532d" fill-opacity="0.46"/>
<circle cx="108.0" cy="323.7" r="1.45" fill="#14532d" fill-opacity="0.46"/>
<circle cx="111.1" cy="324.0" r="1.45" fill="#14532d" fill-opacity="0.46"/>
<circle cx="114.1" cy="323.7" r="1.45" fill="#14532d" fill-opacity="0.46"/>
<circle cx="117.2" cy="323.9" r="1.45" fill="#14532d" fill-opacity="0.46"/>
<circle cx="120.2" cy="323.8" r="1.45" fill="#14532d" fill-opacity="0.46"/>
<circle cx="95.8" cy="324.3" r="1.45" fill="#14532d" fill-opacity="0.46"/>
<circle cx="98.8" cy="323.5" r="1.45" fill="#14532d" fill-opacity="0.46"/>
<circle cx="101.9" cy="322.1" r="1.45" fill="#14532d" fill-opacity="0.46"/>
<circle cx="104.9" cy="322.1" r="1.45" fill="#14532d" fill-opacity="0.46"/>
<circle cx="108.0" cy="322.0" r="1.45" fill="#14532d" fill-opacity="0.46"/>
<circle cx="111.1" cy="322.0" r="1.45" fill="#14532d" fill-opacity="0.46"/>
<circle cx="114.1" cy="321.9" r="1.45" fill="#14532d" fill-opacity="0.46"/>
<circle cx="117.2" cy="323.6" r="1.45" fill="#14532d" fill-opacity="0.46"/>
<circle cx="120.2" cy="323.6" r="1.45" fill="#14532d" fill-opacity="0.46"/>
<circle cx="95.8" cy="323.5" r="1.45" fill="#14532d" fill-opacity="0.46"/>
<circle cx="98.8" cy="322.7" r="1.45" fill="#14532d" fill-opacity="0.46"/>
<circle cx="101.9" cy="323.8" r="1.45" fill="#14532d" fill-opacity="0.46"/>
<circle cx="104.9" cy="323.1" r="1.45" fill="#14532d" fill-opacity="0.46"/>
<circle cx="108.0" cy="322.5" r="1.45" fill="#14532d" fill-opacity="0.46"/>
<circle cx="111.1" cy="323.2" r="1.45" fill="#14532d" fill-opacity="0.46"/>
<circle cx="114.1" cy="323.0" r="1.45" fill="#14532d" fill-opacity="0.46"/>
<circle cx="117.2" cy="323.4" r="1.45" fill="#14532d" fill-opacity="0.46"/>
<circle cx="120.2" cy="322.8" r="1.45" fill="#14532d" fill-opacity="0.46"/>
<circle cx="95.8" cy="322.8" r="1.45" fill="#14532d" fill-opacity="0.46"/>
<circle cx="98.8" cy="323.1" r="1.45" fill="#14532d" fill-opacity="0.46"/>
<circle cx="101.9" cy="322.8" r="1.45" fill="#14532d" fill-opacity="0.46"/>
<circle cx="104.9" cy="323.9" r="1.45" fill="#14532d" fill-opacity="0.46"/>
<circle cx="108.0" cy="327.0" r="1.45" fill="#14532d" fill-opacity="0.46"/>
<circle cx="111.1" cy="326.3" r="1.45" fill="#14532d" fill-opacity="0.46"/>
<circle cx="114.1" cy="326.6" r="1.45" fill="#14532d" fill-opacity="0.46"/>
<circle cx="117.2" cy="326.6" r="1.45" fill="#14532d" fill-opacity="0.46"/>
<circle cx="120.2" cy="326.4" r="1.45" fill="#14532d" fill-opacity="0.46"/>
<circle cx="95.8" cy="325.7" r="1.45" fill="#14532d" fill-opacity="0.46"/>
<circle cx="98.8" cy="326.5" r="1.45" fill="#14532d" fill-opacity="0.46"/>
<circle cx="101.9" cy="325.5" r="1.45" fill="#14532d" fill-opacity="0.46"/>
<circle cx="104.9" cy="326.0" r="1.45" fill="#14532d" fill-opacity="0.46"/>
<circle cx="108.0" cy="325.4" r="1.45" fill="#14532d" fill-opacity="0.46"/>
<circle cx="111.1" cy="325.5" r="1.45" fill="#14532d" fill-opacity="0.46"/>
<circle cx="114.1" cy="326.2" r="1.45" fill="#14532d" fill-opacity="0.46"/>
<circle cx="117.2" cy="325.4" r="1.45" fill="#14532d" fill-opacity="0.46"/>
<circle cx="120.2" cy="324.9" r="1.45" fill="#14532d" fill-opacity="0.46"/>
<circle cx="95.8" cy="325.7" r="1.45" fill="#14532d" fill-opacity="0.46"/>
<line x1="108.0" y1="321.9" x2="108.0" y2="327.0" stroke="#14532d" stroke-opacity="0.86" stroke-width="1.8"/>
<line x1="95.8" y1="321.9" x2="120.2" y2="321.9" stroke="#14532d" stroke-opacity="0.86" stroke-width="1.8"/>
<line x1="95.8" y1="327.0" x2="120.2" y2="327.0" stroke="#14532d" stroke-opacity="0.86" stroke-width="1.8"/>
<rect x="91.0" y="323.2" width="34.0" height="2.0" rx="2" fill="#14532d" fill-opacity="0.18" stroke="#14532d" stroke-opacity="0.9" stroke-width="1.8"/>
<line x1="91.0" y1="323.9" x2="125.0" y2="323.9" stroke="#14532d" stroke-opacity="0.96" stroke-width="2.6"/>
<text x="131.0" y="327.9" text-anchor="start" font-family="Inter,Segoe UI,Arial,sans-serif" font-size="11" font-weight="700" fill="#111827" stroke="#ffffff" stroke-width="3" paint-order="stroke">56.2</text>
<circle cx="220.8" cy="320.8" r="1.45" fill="#f97316" fill-opacity="0.46"/>
<circle cx="223.8" cy="323.0" r="1.45" fill="#f97316" fill-opacity="0.46"/>
<circle cx="226.9" cy="320.5" r="1.45" fill="#f97316" fill-opacity="0.46"/>
<circle cx="229.9" cy="322.2" r="1.45" fill="#f97316" fill-opacity="0.46"/>
<circle cx="233.0" cy="324.9" r="1.45" fill="#f97316" fill-opacity="0.46"/>
<circle cx="236.1" cy="325.2" r="1.45" fill="#f97316" fill-opacity="0.46"/>
<circle cx="239.1" cy="324.3" r="1.45" fill="#f97316" fill-opacity="0.46"/>
<circle cx="242.2" cy="323.4" r="1.45" fill="#f97316" fill-opacity="0.46"/>
<circle cx="245.2" cy="329.5" r="1.45" fill="#f97316" fill-opacity="0.46"/>
<circle cx="220.8" cy="328.4" r="1.45" fill="#f97316" fill-opacity="0.46"/>
<circle cx="223.8" cy="327.8" r="1.45" fill="#f97316" fill-opacity="0.46"/>
<line x1="233.0" y1="320.5" x2="233.0" y2="329.5" stroke="#f97316" stroke-opacity="0.86" stroke-width="1.8"/>
<line x1="220.8" y1="320.5" x2="245.2" y2="320.5" stroke="#f97316" stroke-opacity="0.86" stroke-width="1.8"/>
<line x1="220.8" y1="329.5" x2="245.2" y2="329.5" stroke="#f97316" stroke-opacity="0.86" stroke-width="1.8"/>
<rect x="216.0" y="322.6" width="34.0" height="3.9" rx="2" fill="#f97316" fill-opacity="0.18" stroke="#f97316" stroke-opacity="0.9" stroke-width="1.8"/>
<line x1="216.0" y1="324.3" x2="250.0" y2="324.3" stroke="#f97316" stroke-opacity="0.96" stroke-width="2.6"/>
<text x="256.0" y="328.3" text-anchor="start" font-family="Inter,Segoe UI,Arial,sans-serif" font-size="11" font-weight="700" fill="#111827" stroke="#ffffff" stroke-width="3" paint-order="stroke">55.5</text>
<circle cx="345.8" cy="322.7" r="1.45" fill="#eab308" fill-opacity="0.46"/>
<circle cx="348.8" cy="327.3" r="1.45" fill="#eab308" fill-opacity="0.46"/>
<circle cx="351.9" cy="323.8" r="1.45" fill="#eab308" fill-opacity="0.46"/>
<circle cx="354.9" cy="321.6" r="1.45" fill="#eab308" fill-opacity="0.46"/>
<circle cx="358.0" cy="322.7" r="1.45" fill="#eab308" fill-opacity="0.46"/>
<circle cx="361.1" cy="323.2" r="1.45" fill="#eab308" fill-opacity="0.46"/>
<circle cx="364.1" cy="319.0" r="1.45" fill="#eab308" fill-opacity="0.46"/>
<circle cx="367.2" cy="321.7" r="1.45" fill="#eab308" fill-opacity="0.46"/>
<circle cx="370.2" cy="327.1" r="1.45" fill="#eab308" fill-opacity="0.46"/>
<circle cx="345.8" cy="327.3" r="1.45" fill="#eab308" fill-opacity="0.46"/>
<circle cx="348.8" cy="325.2" r="1.45" fill="#eab308" fill-opacity="0.46"/>
<line x1="358.0" y1="319.0" x2="358.0" y2="327.3" stroke="#eab308" stroke-opacity="0.86" stroke-width="1.8"/>
<line x1="345.8" y1="319.0" x2="370.2" y2="319.0" stroke="#eab308" stroke-opacity="0.86" stroke-width="1.8"/>
<line x1="345.8" y1="327.3" x2="370.2" y2="327.3" stroke="#eab308" stroke-opacity="0.86" stroke-width="1.8"/>
<rect x="341.0" y="322.2" width="34.0" height="4.0" rx="2" fill="#eab308" fill-opacity="0.18" stroke="#eab308" stroke-opacity="0.9" stroke-width="1.8"/>
<line x1="341.0" y1="323.2" x2="375.0" y2="323.2" stroke="#eab308" stroke-opacity="0.96" stroke-width="2.6"/>
<text x="381.0" y="327.2" text-anchor="start" font-family="Inter,Segoe UI,Arial,sans-serif" font-size="11" font-weight="700" fill="#111827" stroke="#ffffff" stroke-width="3" paint-order="stroke">57.4</text>
<text x="571.0" y="398" text-anchor="middle" font-family="Inter,Segoe UI,Arial,sans-serif" font-size="11" font-weight="700" fill="#111827">35B-A3B</text>
<circle cx="433.8" cy="297.4" r="1.45" fill="#14532d" fill-opacity="0.46"/>
<circle cx="436.8" cy="296.6" r="1.45" fill="#14532d" fill-opacity="0.46"/>
<circle cx="439.9" cy="296.6" r="1.45" fill="#14532d" fill-opacity="0.46"/>
<circle cx="442.9" cy="297.1" r="1.45" fill="#14532d" fill-opacity="0.46"/>
<circle cx="446.0" cy="297.2" r="1.45" fill="#14532d" fill-opacity="0.46"/>
<circle cx="449.1" cy="293.1" r="1.45" fill="#14532d" fill-opacity="0.46"/>
<circle cx="452.1" cy="294.0" r="1.45" fill="#14532d" fill-opacity="0.46"/>
<circle cx="455.2" cy="295.8" r="1.45" fill="#14532d" fill-opacity="0.46"/>
<circle cx="458.2" cy="296.3" r="1.45" fill="#14532d" fill-opacity="0.46"/>
<circle cx="433.8" cy="299.0" r="1.45" fill="#14532d" fill-opacity="0.46"/>
<circle cx="436.8" cy="302.1" r="1.45" fill="#14532d" fill-opacity="0.46"/>
<circle cx="439.9" cy="302.5" r="1.45" fill="#14532d" fill-opacity="0.46"/>
<circle cx="442.9" cy="302.0" r="1.45" fill="#14532d" fill-opacity="0.46"/>
<circle cx="446.0" cy="299.2" r="1.45" fill="#14532d" fill-opacity="0.46"/>
<circle cx="449.1" cy="299.4" r="1.45" fill="#14532d" fill-opacity="0.46"/>
<circle cx="452.1" cy="296.4" r="1.45" fill="#14532d" fill-opacity="0.46"/>
<circle cx="455.2" cy="299.7" r="1.45" fill="#14532d" fill-opacity="0.46"/>
<circle cx="458.2" cy="299.1" r="1.45" fill="#14532d" fill-opacity="0.46"/>
<circle cx="433.8" cy="299.2" r="1.45" fill="#14532d" fill-opacity="0.46"/>
<circle cx="436.8" cy="298.4" r="1.45" fill="#14532d" fill-opacity="0.46"/>
<circle cx="439.9" cy="292.0" r="1.45" fill="#14532d" fill-opacity="0.46"/>
<circle cx="442.9" cy="292.2" r="1.45" fill="#14532d" fill-opacity="0.46"/>
<circle cx="446.0" cy="291.1" r="1.45" fill="#14532d" fill-opacity="0.46"/>
<circle cx="449.1" cy="291.8" r="1.45" fill="#14532d" fill-opacity="0.46"/>
<circle cx="452.1" cy="292.0" r="1.45" fill="#14532d" fill-opacity="0.46"/>
<circle cx="455.2" cy="296.2" r="1.45" fill="#14532d" fill-opacity="0.46"/>
<circle cx="458.2" cy="296.5" r="1.45" fill="#14532d" fill-opacity="0.46"/>
<circle cx="433.8" cy="294.6" r="1.45" fill="#14532d" fill-opacity="0.46"/>
<circle cx="436.8" cy="296.5" r="1.45" fill="#14532d" fill-opacity="0.46"/>
<circle cx="439.9" cy="296.8" r="1.45" fill="#14532d" fill-opacity="0.46"/>
<circle cx="442.9" cy="298.3" r="1.45" fill="#14532d" fill-opacity="0.46"/>
<circle cx="446.0" cy="299.6" r="1.45" fill="#14532d" fill-opacity="0.46"/>
<circle cx="449.1" cy="299.1" r="1.45" fill="#14532d" fill-opacity="0.46"/>
<circle cx="452.1" cy="298.3" r="1.45" fill="#14532d" fill-opacity="0.46"/>
<circle cx="455.2" cy="297.9" r="1.45" fill="#14532d" fill-opacity="0.46"/>
<circle cx="458.2" cy="300.6" r="1.45" fill="#14532d" fill-opacity="0.46"/>
<circle cx="433.8" cy="300.3" r="1.45" fill="#14532d" fill-opacity="0.46"/>
<circle cx="436.8" cy="299.5" r="1.45" fill="#14532d" fill-opacity="0.46"/>
<circle cx="439.9" cy="301.5" r="1.45" fill="#14532d" fill-opacity="0.46"/>
<circle cx="442.9" cy="300.3" r="1.45" fill="#14532d" fill-opacity="0.46"/>
<circle cx="446.0" cy="300.5" r="1.45" fill="#14532d" fill-opacity="0.46"/>
<circle cx="449.1" cy="301.4" r="1.45" fill="#14532d" fill-opacity="0.46"/>
<circle cx="452.1" cy="302.0" r="1.45" fill="#14532d" fill-opacity="0.46"/>
<circle cx="455.2" cy="302.4" r="1.45" fill="#14532d" fill-opacity="0.46"/>
<circle cx="458.2" cy="301.5" r="1.45" fill="#14532d" fill-opacity="0.46"/>
<circle cx="433.8" cy="301.3" r="1.45" fill="#14532d" fill-opacity="0.46"/>
<circle cx="436.8" cy="301.4" r="1.45" fill="#14532d" fill-opacity="0.46"/>
<circle cx="439.9" cy="300.8" r="1.45" fill="#14532d" fill-opacity="0.46"/>
<circle cx="442.9" cy="300.8" r="1.45" fill="#14532d" fill-opacity="0.46"/>
<circle cx="446.0" cy="301.4" r="1.45" fill="#14532d" fill-opacity="0.46"/>
<circle cx="449.1" cy="301.1" r="1.45" fill="#14532d" fill-opacity="0.46"/>
<circle cx="452.1" cy="301.4" r="1.45" fill="#14532d" fill-opacity="0.46"/>
<circle cx="455.2" cy="301.6" r="1.45" fill="#14532d" fill-opacity="0.46"/>
<circle cx="458.2" cy="301.6" r="1.45" fill="#14532d" fill-opacity="0.46"/>
<circle cx="433.8" cy="300.5" r="1.45" fill="#14532d" fill-opacity="0.46"/>
<line x1="446.0" y1="291.1" x2="446.0" y2="302.5" stroke="#14532d" stroke-opacity="0.86" stroke-width="1.8"/>
<line x1="433.8" y1="291.1" x2="458.2" y2="291.1" stroke="#14532d" stroke-opacity="0.86" stroke-width="1.8"/>
<line x1="433.8" y1="302.5" x2="458.2" y2="302.5" stroke="#14532d" stroke-opacity="0.86" stroke-width="1.8"/>
<rect x="429.0" y="296.5" width="34.0" height="4.7" rx="2" fill="#14532d" fill-opacity="0.18" stroke="#14532d" stroke-opacity="0.9" stroke-width="1.8"/>
<line x1="429.0" y1="299.2" x2="463.0" y2="299.2" stroke="#14532d" stroke-opacity="0.96" stroke-width="2.6"/>
<text x="469.0" y="303.2" text-anchor="start" font-family="Inter,Segoe UI,Arial,sans-serif" font-size="11" font-weight="700" fill="#111827" stroke="#ffffff" stroke-width="3" paint-order="stroke">102</text>
<circle cx="558.8" cy="257.1" r="1.45" fill="#f97316" fill-opacity="0.46"/>
<circle cx="561.8" cy="257.4" r="1.45" fill="#f97316" fill-opacity="0.46"/>
<circle cx="564.9" cy="257.3" r="1.45" fill="#f97316" fill-opacity="0.46"/>
<circle cx="567.9" cy="256.8" r="1.45" fill="#f97316" fill-opacity="0.46"/>
<circle cx="571.0" cy="258.0" r="1.45" fill="#f97316" fill-opacity="0.46"/>
<circle cx="574.1" cy="258.1" r="1.45" fill="#f97316" fill-opacity="0.46"/>
<circle cx="577.1" cy="258.2" r="1.45" fill="#f97316" fill-opacity="0.46"/>
<circle cx="580.2" cy="257.3" r="1.45" fill="#f97316" fill-opacity="0.46"/>
<circle cx="583.2" cy="255.8" r="1.45" fill="#f97316" fill-opacity="0.46"/>
<circle cx="558.8" cy="256.2" r="1.45" fill="#f97316" fill-opacity="0.46"/>
<circle cx="561.8" cy="259.9" r="1.45" fill="#f97316" fill-opacity="0.46"/>
<line x1="571.0" y1="255.8" x2="571.0" y2="259.9" stroke="#f97316" stroke-opacity="0.86" stroke-width="1.8"/>
<line x1="558.8" y1="255.8" x2="583.2" y2="255.8" stroke="#f97316" stroke-opacity="0.86" stroke-width="1.8"/>
<line x1="558.8" y1="259.9" x2="583.2" y2="259.9" stroke="#f97316" stroke-opacity="0.86" stroke-width="1.8"/>
<rect x="554.0" y="256.9" width="34.0" height="1.1" rx="2" fill="#f97316" fill-opacity="0.18" stroke="#f97316" stroke-opacity="0.9" stroke-width="1.8"/>
<line x1="554.0" y1="257.3" x2="588.0" y2="257.3" stroke="#f97316" stroke-opacity="0.96" stroke-width="2.6"/>
<text x="594.0" y="261.3" text-anchor="start" font-family="Inter,Segoe UI,Arial,sans-serif" font-size="11" font-weight="700" fill="#111827" stroke="#ffffff" stroke-width="3" paint-order="stroke">180</text>
<circle cx="683.8" cy="255.9" r="1.45" fill="#eab308" fill-opacity="0.46"/>
<circle cx="686.8" cy="257.7" r="1.45" fill="#eab308" fill-opacity="0.46"/>
<circle cx="689.9" cy="256.7" r="1.45" fill="#eab308" fill-opacity="0.46"/>
<circle cx="692.9" cy="243.1" r="1.45" fill="#eab308" fill-opacity="0.46"/>
<circle cx="696.0" cy="203.9" r="1.45" fill="#eab308" fill-opacity="0.46"/>
<circle cx="699.1" cy="263.5" r="1.45" fill="#eab308" fill-opacity="0.46"/>
<circle cx="702.1" cy="211.8" r="1.45" fill="#eab308" fill-opacity="0.46"/>
<circle cx="705.2" cy="255.8" r="1.45" fill="#eab308" fill-opacity="0.46"/>
<circle cx="708.2" cy="263.2" r="1.45" fill="#eab308" fill-opacity="0.46"/>
<circle cx="683.8" cy="264.7" r="1.45" fill="#eab308" fill-opacity="0.46"/>
<circle cx="686.8" cy="262.2" r="1.45" fill="#eab308" fill-opacity="0.46"/>
<line x1="696.0" y1="203.9" x2="696.0" y2="264.7" stroke="#eab308" stroke-opacity="0.86" stroke-width="1.8"/>
<line x1="683.8" y1="203.9" x2="708.2" y2="203.9" stroke="#eab308" stroke-opacity="0.86" stroke-width="1.8"/>
<line x1="683.8" y1="264.7" x2="708.2" y2="264.7" stroke="#eab308" stroke-opacity="0.86" stroke-width="1.8"/>
<rect x="679.0" y="249.5" width="34.0" height="13.2" rx="2" fill="#eab308" fill-opacity="0.18" stroke="#eab308" stroke-opacity="0.9" stroke-width="1.8"/>
<line x1="679.0" y1="256.7" x2="713.0" y2="256.7" stroke="#eab308" stroke-opacity="0.96" stroke-width="2.6"/>
<text x="719.0" y="260.7" text-anchor="start" font-family="Inter,Segoe UI,Arial,sans-serif" font-size="11" font-weight="700" fill="#111827" stroke="#ffffff" stroke-width="3" paint-order="stroke">181</text>
<rect x="64.0" y="433" width="10" height="10" rx="2" fill="#14532d" fill-opacity="0.72"/>
<text x="78.0" y="442" font-family="Inter,Segoe UI,Arial,sans-serif" font-size="10" fill="#374151">MTPLX 0.3.7 (default)</text>
<rect x="289.3" y="433" width="10" height="10" rx="2" fill="#f97316" fill-opacity="0.72"/>
<text x="303.3" y="442" font-family="Inter,Segoe UI,Arial,sans-serif" font-size="10" fill="#374151">AX Engine v5.2.2 (MTP-only)</text>
<rect x="514.7" y="433" width="10" height="10" rx="2" fill="#eab308" fill-opacity="0.72"/>
<text x="528.7" y="442" font-family="Inter,Segoe UI,Arial,sans-serif" font-size="10" fill="#374151">AX Engine v5.2.2 (MTP + n-gram stacking)</text>
</svg>
