<svg xmlns="http://www.w3.org/2000/svg" width="900" height="360" viewBox="0 0 900 360" role="img" aria-labelledby="title desc">
<title>Qwen3.6 MTP decode improvement</title>
<desc>Bar chart comparing aggregate sample-median decode improvement for AX MTP, AX MTP plus n-gram, and n-gram over pure AX MTP.</desc>
<rect width="100%" height="100%" fill="#f8fafc"/>
<text x="24" y="24" font-family="Inter,Segoe UI,Arial,sans-serif" font-size="16" font-weight="700" fill="#111827">Qwen3.6 MTP decode improvement</text>
<text x="24" y="46" font-family="Inter,Segoe UI,Arial,sans-serif" font-size="11" fill="#4b5563">Aggregate sample median over flappy, long_code, and python_modules_long | higher is better</text>
<rect x="64" y="82" width="802" height="194" rx="6" fill="#ffffff" stroke="#dbe3ef"/>
<line x1="72" y1="276.0" x2="866" y2="276.0" stroke="#e5e7eb" stroke-width="1"/>
<text x="64" y="280.0" text-anchor="end" font-family="Inter,Segoe UI,Arial,sans-serif" font-size="11" fill="#6b7280">0%</text>
<line x1="72" y1="227.5" x2="866" y2="227.5" stroke="#e5e7eb" stroke-width="1"/>
<text x="64" y="231.5" text-anchor="end" font-family="Inter,Segoe UI,Arial,sans-serif" font-size="11" fill="#6b7280">0%</text>
<line x1="72" y1="179.0" x2="866" y2="179.0" stroke="#e5e7eb" stroke-width="1"/>
<text x="64" y="183.0" text-anchor="end" font-family="Inter,Segoe UI,Arial,sans-serif" font-size="11" fill="#6b7280">1%</text>
<line x1="72" y1="130.5" x2="866" y2="130.5" stroke="#e5e7eb" stroke-width="1"/>
<text x="64" y="134.5" text-anchor="end" font-family="Inter,Segoe UI,Arial,sans-serif" font-size="11" fill="#6b7280">2%</text>
<line x1="72" y1="82.0" x2="866" y2="82.0" stroke="#e5e7eb" stroke-width="1"/>
<text x="64" y="86.0" text-anchor="end" font-family="Inter,Segoe UI,Arial,sans-serif" font-size="11" fill="#6b7280">2%</text>
<line x1="72" y1="276.0" x2="866" y2="276.0" stroke="#111827" stroke-opacity="0.45" stroke-width="1.2"/>
<rect x="72.0" y="333" width="10" height="10" rx="2" fill="#f97316" fill-opacity="0.78"/>
<text x="86.0" y="342" font-family="Inter,Segoe UI,Arial,sans-serif" font-size="10" fill="#374151">AX MTP vs MTPLX</text>
<rect x="282.0" y="333" width="10" height="10" rx="2" fill="#eab308" fill-opacity="0.78"/>
<text x="296.0" y="342" font-family="Inter,Segoe UI,Arial,sans-serif" font-size="10" fill="#374151">AX MTP+ngram vs MTPLX</text>
<rect x="492.0" y="333" width="10" height="10" rx="2" fill="#7c3aed" fill-opacity="0.78"/>
<text x="506.0" y="342" font-family="Inter,Segoe UI,Arial,sans-serif" font-size="10" fill="#374151">ngram vs AX MTP</text>
</svg>
