<svg xmlns="http://www.w3.org/2000/svg" width="900" height="460" viewBox="0 0 900 460" role="img" aria-labelledby="title desc">
<title>Qwen3.6 MTP fair decode throughput</title>
<desc>Grouped box-and-whisker plot comparing MTPLX 0.3.7 (default), AX Engine v5.2.2 (MTP-only) across 27B, 35B-A3B.</desc>
<rect width="100%" height="100%" fill="#f8fafc"/>
<text x="24" y="24" font-family="Inter,Segoe UI,Arial,sans-serif" font-size="16" font-weight="700" fill="#111827">Qwen3.6 MTP fair decode throughput</text>
<text x="24" y="46" font-family="Inter,Segoe UI,Arial,sans-serif" font-size="11" fill="#4b5563">All suites combined per model | box=IQR | whiskers=min/max | dots=runs</text>
<text x="24" y="62" font-family="Inter,Segoe UI,Arial,sans-serif" font-size="10" fill="#6b7280">Vendor-default config per row · MTPLX 0.3.7 · AX Engine v5.2.2</text>
<rect x="807" y="13" width="59" height="22" rx="11" fill="#eef2ff" stroke="#c7d2fe"/>
<text x="836.5" y="28" text-anchor="middle" font-family="Inter,Segoe UI,Arial,sans-serif" font-size="10" font-weight="700" fill="#3730a3">tok/s</text>
<text x="866" y="52" text-anchor="end" font-family="Inter,Segoe UI,Arial,sans-serif" font-size="10" font-weight="700" fill="#374151">Higher is better</text>
<rect x="64" y="86" width="676" height="268" rx="6" fill="#ffffff" stroke="#dbe3ef"/>
<line x1="64" y1="354.0" x2="740" y2="354.0" stroke="#e5e7eb" stroke-width="1"/>
<text x="56" y="357.0" text-anchor="end" font-family="Inter,Segoe UI,Arial,sans-serif" font-size="11" fill="#6b7280">0.0</text>
<line x1="64" y1="287.0" x2="740" y2="287.0" stroke="#e5e7eb" stroke-width="1"/>
<text x="56" y="290.0" text-anchor="end" font-family="Inter,Segoe UI,Arial,sans-serif" font-size="11" fill="#6b7280">50</text>
<line x1="64" y1="220.0" x2="740" y2="220.0" stroke="#e5e7eb" stroke-width="1"/>
<text x="56" y="223.0" text-anchor="end" font-family="Inter,Segoe UI,Arial,sans-serif" font-size="11" fill="#6b7280">100</text>
<line x1="64" y1="153.0" x2="740" y2="153.0" stroke="#e5e7eb" stroke-width="1"/>
<text x="56" y="156.0" text-anchor="end" font-family="Inter,Segoe UI,Arial,sans-serif" font-size="11" fill="#6b7280">150</text>
<line x1="64" y1="86.0" x2="740" y2="86.0" stroke="#e5e7eb" stroke-width="1"/>
<text x="56" y="89.0" text-anchor="end" font-family="Inter,Segoe UI,Arial,sans-serif" font-size="11" fill="#6b7280">200</text>
<line x1="64" y1="144.7" x2="740" y2="144.7" stroke="#dc2626" stroke-width="1.2" stroke-dasharray="1 4" stroke-linecap="round"/>
<text x="748" y="139.7" text-anchor="start" font-family="Inter,Segoe UI,Arial,sans-serif" font-size="11" font-weight="700" fill="#dc2626" data-label="highest median">highest: 156</text>
<text x="233.0" y="398" text-anchor="middle" font-family="Inter,Segoe UI,Arial,sans-serif" font-size="11" font-weight="700" fill="#111827">27B</text>
<circle cx="95.8" cy="279.3" r="1.45" fill="#14532d" fill-opacity="0.46"/>
<circle cx="98.8" cy="279.9" r="1.45" fill="#14532d" fill-opacity="0.46"/>
<circle cx="101.9" cy="279.6" r="1.45" fill="#14532d" fill-opacity="0.46"/>
<circle cx="104.9" cy="279.1" r="1.45" fill="#14532d" fill-opacity="0.46"/>
<circle cx="108.0" cy="276.3" r="1.45" fill="#14532d" fill-opacity="0.46"/>
<circle cx="111.1" cy="276.3" r="1.45" fill="#14532d" fill-opacity="0.46"/>
<circle cx="114.1" cy="276.6" r="1.45" fill="#14532d" fill-opacity="0.46"/>
<circle cx="117.2" cy="276.0" r="1.45" fill="#14532d" fill-opacity="0.46"/>
<circle cx="120.2" cy="277.4" r="1.45" fill="#14532d" fill-opacity="0.46"/>
<circle cx="95.8" cy="277.5" r="1.45" fill="#14532d" fill-opacity="0.46"/>
<circle cx="98.8" cy="276.7" r="1.45" fill="#14532d" fill-opacity="0.46"/>
<circle cx="101.9" cy="276.5" r="1.45" fill="#14532d" fill-opacity="0.46"/>
<circle cx="104.9" cy="276.5" r="1.45" fill="#14532d" fill-opacity="0.46"/>
<circle cx="108.0" cy="276.5" r="1.45" fill="#14532d" fill-opacity="0.46"/>
<circle cx="111.1" cy="276.4" r="1.45" fill="#14532d" fill-opacity="0.46"/>
<circle cx="114.1" cy="276.2" r="1.45" fill="#14532d" fill-opacity="0.46"/>
<circle cx="117.2" cy="276.1" r="1.45" fill="#14532d" fill-opacity="0.46"/>
<circle cx="120.2" cy="276.1" r="1.45" fill="#14532d" fill-opacity="0.46"/>
<circle cx="95.8" cy="276.2" r="1.45" fill="#14532d" fill-opacity="0.46"/>
<circle cx="98.8" cy="276.2" r="1.45" fill="#14532d" fill-opacity="0.46"/>
<circle cx="101.9" cy="281.4" r="1.45" fill="#14532d" fill-opacity="0.46"/>
<circle cx="104.9" cy="280.1" r="1.45" fill="#14532d" fill-opacity="0.46"/>
<circle cx="108.0" cy="279.8" r="1.45" fill="#14532d" fill-opacity="0.46"/>
<circle cx="111.1" cy="278.5" r="1.45" fill="#14532d" fill-opacity="0.46"/>
<circle cx="114.1" cy="279.9" r="1.45" fill="#14532d" fill-opacity="0.46"/>
<circle cx="117.2" cy="279.2" r="1.45" fill="#14532d" fill-opacity="0.46"/>
<circle cx="120.2" cy="279.0" r="1.45" fill="#14532d" fill-opacity="0.46"/>
<circle cx="95.8" cy="276.7" r="1.45" fill="#14532d" fill-opacity="0.46"/>
<circle cx="98.8" cy="278.8" r="1.45" fill="#14532d" fill-opacity="0.46"/>
<circle cx="101.9" cy="277.5" r="1.45" fill="#14532d" fill-opacity="0.46"/>
<circle cx="104.9" cy="278.5" r="1.45" fill="#14532d" fill-opacity="0.46"/>
<circle cx="108.0" cy="278.5" r="1.45" fill="#14532d" fill-opacity="0.46"/>
<circle cx="111.1" cy="276.6" r="1.45" fill="#14532d" fill-opacity="0.46"/>
<circle cx="114.1" cy="279.3" r="1.45" fill="#14532d" fill-opacity="0.46"/>
<circle cx="117.2" cy="281.1" r="1.45" fill="#14532d" fill-opacity="0.46"/>
<circle cx="120.2" cy="279.0" r="1.45" fill="#14532d" fill-opacity="0.46"/>
<circle cx="95.8" cy="283.3" r="1.45" fill="#14532d" fill-opacity="0.46"/>
<circle cx="98.8" cy="281.4" r="1.45" fill="#14532d" fill-opacity="0.46"/>
<circle cx="101.9" cy="280.1" r="1.45" fill="#14532d" fill-opacity="0.46"/>
<circle cx="104.9" cy="278.2" r="1.45" fill="#14532d" fill-opacity="0.46"/>
<circle cx="108.0" cy="292.8" r="1.45" fill="#14532d" fill-opacity="0.46"/>
<circle cx="111.1" cy="292.5" r="1.45" fill="#14532d" fill-opacity="0.46"/>
<circle cx="114.1" cy="292.2" r="1.45" fill="#14532d" fill-opacity="0.46"/>
<circle cx="117.2" cy="292.9" r="1.45" fill="#14532d" fill-opacity="0.46"/>
<circle cx="120.2" cy="289.8" r="1.45" fill="#14532d" fill-opacity="0.46"/>
<circle cx="95.8" cy="286.9" r="1.45" fill="#14532d" fill-opacity="0.46"/>
<circle cx="98.8" cy="286.9" r="1.45" fill="#14532d" fill-opacity="0.46"/>
<circle cx="101.9" cy="285.2" r="1.45" fill="#14532d" fill-opacity="0.46"/>
<circle cx="104.9" cy="286.4" r="1.45" fill="#14532d" fill-opacity="0.46"/>
<circle cx="108.0" cy="285.0" r="1.45" fill="#14532d" fill-opacity="0.46"/>
<circle cx="111.1" cy="283.7" r="1.45" fill="#14532d" fill-opacity="0.46"/>
<circle cx="114.1" cy="285.1" r="1.45" fill="#14532d" fill-opacity="0.46"/>
<circle cx="117.2" cy="282.9" r="1.45" fill="#14532d" fill-opacity="0.46"/>
<circle cx="120.2" cy="281.8" r="1.45" fill="#14532d" fill-opacity="0.46"/>
<circle cx="95.8" cy="284.6" r="1.45" fill="#14532d" fill-opacity="0.46"/>
<line x1="108.0" y1="276.0" x2="108.0" y2="292.9" stroke="#14532d" stroke-opacity="0.86" stroke-width="1.8"/>
<line x1="95.8" y1="276.0" x2="120.2" y2="276.0" stroke="#14532d" stroke-opacity="0.86" stroke-width="1.8"/>
<line x1="95.8" y1="292.9" x2="120.2" y2="292.9" stroke="#14532d" stroke-opacity="0.86" stroke-width="1.8"/>
<rect x="91.0" y="276.7" width="34.0" height="6.4" rx="2" fill="#14532d" fill-opacity="0.18" stroke="#14532d" stroke-opacity="0.9" stroke-width="1.8"/>
<line x1="91.0" y1="279.2" x2="125.0" y2="279.2" stroke="#14532d" stroke-opacity="0.96" stroke-width="2.6"/>
<text x="131.0" y="283.2" text-anchor="start" font-family="Inter,Segoe UI,Arial,sans-serif" font-size="11" font-weight="700" fill="#111827" stroke="#ffffff" stroke-width="3" paint-order="stroke">55.9</text>
<circle cx="345.8" cy="270.7" r="1.45" fill="#f97316" fill-opacity="0.46"/>
<circle cx="348.8" cy="282.8" r="1.45" fill="#f97316" fill-opacity="0.46"/>
<circle cx="351.9" cy="271.3" r="1.45" fill="#f97316" fill-opacity="0.46"/>
<circle cx="354.9" cy="270.9" r="1.45" fill="#f97316" fill-opacity="0.46"/>
<circle cx="358.0" cy="276.3" r="1.45" fill="#f97316" fill-opacity="0.46"/>
<circle cx="361.1" cy="280.8" r="1.45" fill="#f97316" fill-opacity="0.46"/>
<circle cx="364.1" cy="278.7" r="1.45" fill="#f97316" fill-opacity="0.46"/>
<circle cx="367.2" cy="273.1" r="1.45" fill="#f97316" fill-opacity="0.46"/>
<circle cx="370.2" cy="290.5" r="1.45" fill="#f97316" fill-opacity="0.46"/>
<circle cx="345.8" cy="288.9" r="1.45" fill="#f97316" fill-opacity="0.46"/>
<circle cx="348.8" cy="287.3" r="1.45" fill="#f97316" fill-opacity="0.46"/>
<line x1="358.0" y1="270.7" x2="358.0" y2="290.5" stroke="#f97316" stroke-opacity="0.86" stroke-width="1.8"/>
<line x1="345.8" y1="270.7" x2="370.2" y2="270.7" stroke="#f97316" stroke-opacity="0.86" stroke-width="1.8"/>
<line x1="345.8" y1="290.5" x2="370.2" y2="290.5" stroke="#f97316" stroke-opacity="0.86" stroke-width="1.8"/>
<rect x="341.0" y="272.2" width="34.0" height="12.8" rx="2" fill="#f97316" fill-opacity="0.18" stroke="#f97316" stroke-opacity="0.9" stroke-width="1.8"/>
<line x1="341.0" y1="278.7" x2="375.0" y2="278.7" stroke="#f97316" stroke-opacity="0.96" stroke-width="2.6"/>
<text x="381.0" y="282.7" text-anchor="start" font-family="Inter,Segoe UI,Arial,sans-serif" font-size="11" font-weight="700" fill="#111827" stroke="#ffffff" stroke-width="3" paint-order="stroke">56.2</text>
<text x="571.0" y="398" text-anchor="middle" font-family="Inter,Segoe UI,Arial,sans-serif" font-size="11" font-weight="700" fill="#111827">35B-A3B</text>
<circle cx="433.8" cy="227.7" r="1.45" fill="#14532d" fill-opacity="0.46"/>
<circle cx="436.8" cy="229.9" r="1.45" fill="#14532d" fill-opacity="0.46"/>
<circle cx="439.9" cy="229.3" r="1.45" fill="#14532d" fill-opacity="0.46"/>
<circle cx="442.9" cy="229.2" r="1.45" fill="#14532d" fill-opacity="0.46"/>
<circle cx="446.0" cy="229.3" r="1.45" fill="#14532d" fill-opacity="0.46"/>
<circle cx="449.1" cy="224.5" r="1.45" fill="#14532d" fill-opacity="0.46"/>
<circle cx="452.1" cy="213.6" r="1.45" fill="#14532d" fill-opacity="0.46"/>
<circle cx="455.2" cy="211.7" r="1.45" fill="#14532d" fill-opacity="0.46"/>
<circle cx="458.2" cy="209.4" r="1.45" fill="#14532d" fill-opacity="0.46"/>
<circle cx="433.8" cy="209.0" r="1.45" fill="#14532d" fill-opacity="0.46"/>
<circle cx="436.8" cy="225.3" r="1.45" fill="#14532d" fill-opacity="0.46"/>
<circle cx="439.9" cy="225.3" r="1.45" fill="#14532d" fill-opacity="0.46"/>
<circle cx="442.9" cy="225.7" r="1.45" fill="#14532d" fill-opacity="0.46"/>
<circle cx="446.0" cy="226.0" r="1.45" fill="#14532d" fill-opacity="0.46"/>
<circle cx="449.1" cy="224.5" r="1.45" fill="#14532d" fill-opacity="0.46"/>
<circle cx="452.1" cy="217.5" r="1.45" fill="#14532d" fill-opacity="0.46"/>
<circle cx="455.2" cy="218.7" r="1.45" fill="#14532d" fill-opacity="0.46"/>
<circle cx="458.2" cy="220.6" r="1.45" fill="#14532d" fill-opacity="0.46"/>
<circle cx="433.8" cy="219.1" r="1.45" fill="#14532d" fill-opacity="0.46"/>
<circle cx="436.8" cy="219.1" r="1.45" fill="#14532d" fill-opacity="0.46"/>
<circle cx="439.9" cy="218.6" r="1.45" fill="#14532d" fill-opacity="0.46"/>
<circle cx="442.9" cy="220.2" r="1.45" fill="#14532d" fill-opacity="0.46"/>
<circle cx="446.0" cy="219.7" r="1.45" fill="#14532d" fill-opacity="0.46"/>
<circle cx="449.1" cy="219.8" r="1.45" fill="#14532d" fill-opacity="0.46"/>
<circle cx="452.1" cy="220.7" r="1.45" fill="#14532d" fill-opacity="0.46"/>
<circle cx="455.2" cy="228.6" r="1.45" fill="#14532d" fill-opacity="0.46"/>
<circle cx="458.2" cy="231.1" r="1.45" fill="#14532d" fill-opacity="0.46"/>
<circle cx="433.8" cy="227.1" r="1.45" fill="#14532d" fill-opacity="0.46"/>
<circle cx="436.8" cy="229.0" r="1.45" fill="#14532d" fill-opacity="0.46"/>
<circle cx="439.9" cy="233.3" r="1.45" fill="#14532d" fill-opacity="0.46"/>
<circle cx="442.9" cy="237.5" r="1.45" fill="#14532d" fill-opacity="0.46"/>
<circle cx="446.0" cy="234.4" r="1.45" fill="#14532d" fill-opacity="0.46"/>
<circle cx="449.1" cy="234.1" r="1.45" fill="#14532d" fill-opacity="0.46"/>
<circle cx="452.1" cy="230.3" r="1.45" fill="#14532d" fill-opacity="0.46"/>
<circle cx="455.2" cy="232.0" r="1.45" fill="#14532d" fill-opacity="0.46"/>
<circle cx="458.2" cy="234.7" r="1.45" fill="#14532d" fill-opacity="0.46"/>
<circle cx="433.8" cy="234.0" r="1.45" fill="#14532d" fill-opacity="0.46"/>
<circle cx="436.8" cy="235.1" r="1.45" fill="#14532d" fill-opacity="0.46"/>
<circle cx="439.9" cy="235.0" r="1.45" fill="#14532d" fill-opacity="0.46"/>
<circle cx="442.9" cy="234.6" r="1.45" fill="#14532d" fill-opacity="0.46"/>
<circle cx="446.0" cy="236.4" r="1.45" fill="#14532d" fill-opacity="0.46"/>
<circle cx="449.1" cy="236.0" r="1.45" fill="#14532d" fill-opacity="0.46"/>
<circle cx="452.1" cy="236.9" r="1.45" fill="#14532d" fill-opacity="0.46"/>
<circle cx="455.2" cy="234.1" r="1.45" fill="#14532d" fill-opacity="0.46"/>
<circle cx="458.2" cy="237.8" r="1.45" fill="#14532d" fill-opacity="0.46"/>
<circle cx="433.8" cy="232.4" r="1.45" fill="#14532d" fill-opacity="0.46"/>
<circle cx="436.8" cy="231.1" r="1.45" fill="#14532d" fill-opacity="0.46"/>
<circle cx="439.9" cy="230.8" r="1.45" fill="#14532d" fill-opacity="0.46"/>
<circle cx="442.9" cy="232.6" r="1.45" fill="#14532d" fill-opacity="0.46"/>
<circle cx="446.0" cy="230.9" r="1.45" fill="#14532d" fill-opacity="0.46"/>
<circle cx="449.1" cy="231.9" r="1.45" fill="#14532d" fill-opacity="0.46"/>
<circle cx="452.1" cy="234.2" r="1.45" fill="#14532d" fill-opacity="0.46"/>
<circle cx="455.2" cy="233.0" r="1.45" fill="#14532d" fill-opacity="0.46"/>
<circle cx="458.2" cy="233.4" r="1.45" fill="#14532d" fill-opacity="0.46"/>
<circle cx="433.8" cy="232.5" r="1.45" fill="#14532d" fill-opacity="0.46"/>
<line x1="446.0" y1="209.0" x2="446.0" y2="237.8" stroke="#14532d" stroke-opacity="0.86" stroke-width="1.8"/>
<line x1="433.8" y1="209.0" x2="458.2" y2="209.0" stroke="#14532d" stroke-opacity="0.86" stroke-width="1.8"/>
<line x1="433.8" y1="237.8" x2="458.2" y2="237.8" stroke="#14532d" stroke-opacity="0.86" stroke-width="1.8"/>
<rect x="429.0" y="222.6" width="34.0" height="11.1" rx="2" fill="#14532d" fill-opacity="0.18" stroke="#14532d" stroke-opacity="0.9" stroke-width="1.8"/>
<line x1="429.0" y1="229.9" x2="463.0" y2="229.9" stroke="#14532d" stroke-opacity="0.96" stroke-width="2.6"/>
<text x="469.0" y="233.9" text-anchor="start" font-family="Inter,Segoe UI,Arial,sans-serif" font-size="11" font-weight="700" fill="#111827" stroke="#ffffff" stroke-width="3" paint-order="stroke">92.6</text>
<circle cx="683.8" cy="135.0" r="1.45" fill="#f97316" fill-opacity="0.46"/>
<circle cx="686.8" cy="143.1" r="1.45" fill="#f97316" fill-opacity="0.46"/>
<circle cx="689.9" cy="145.7" r="1.45" fill="#f97316" fill-opacity="0.46"/>
<circle cx="692.9" cy="144.7" r="1.45" fill="#f97316" fill-opacity="0.46"/>
<circle cx="696.0" cy="146.1" r="1.45" fill="#f97316" fill-opacity="0.46"/>
<circle cx="699.1" cy="147.7" r="1.45" fill="#f97316" fill-opacity="0.46"/>
<circle cx="702.1" cy="146.7" r="1.45" fill="#f97316" fill-opacity="0.46"/>
<circle cx="705.2" cy="144.9" r="1.45" fill="#f97316" fill-opacity="0.46"/>
<circle cx="708.2" cy="142.8" r="1.45" fill="#f97316" fill-opacity="0.46"/>
<circle cx="683.8" cy="143.2" r="1.45" fill="#f97316" fill-opacity="0.46"/>
<circle cx="686.8" cy="132.8" r="1.45" fill="#f97316" fill-opacity="0.46"/>
<line x1="696.0" y1="132.8" x2="696.0" y2="147.7" stroke="#f97316" stroke-opacity="0.86" stroke-width="1.8"/>
<line x1="683.8" y1="132.8" x2="708.2" y2="132.8" stroke="#f97316" stroke-opacity="0.86" stroke-width="1.8"/>
<line x1="683.8" y1="147.7" x2="708.2" y2="147.7" stroke="#f97316" stroke-opacity="0.86" stroke-width="1.8"/>
<rect x="679.0" y="142.9" width="34.0" height="3.0" rx="2" fill="#f97316" fill-opacity="0.18" stroke="#f97316" stroke-opacity="0.9" stroke-width="1.8"/>
<line x1="679.0" y1="144.7" x2="713.0" y2="144.7" stroke="#f97316" stroke-opacity="0.96" stroke-width="2.6"/>
<text x="719.0" y="148.7" text-anchor="start" font-family="Inter,Segoe UI,Arial,sans-serif" font-size="11" font-weight="700" fill="#111827" stroke="#ffffff" stroke-width="3" paint-order="stroke">156</text>
<rect x="64.0" y="433" width="10" height="10" rx="2" fill="#14532d" fill-opacity="0.72"/>
<text x="78.0" y="442" font-family="Inter,Segoe UI,Arial,sans-serif" font-size="10" fill="#374151">MTPLX 0.3.7 (default)</text>
<rect x="402.0" y="433" width="10" height="10" rx="2" fill="#f97316" fill-opacity="0.72"/>
<text x="416.0" y="442" font-family="Inter,Segoe UI,Arial,sans-serif" font-size="10" fill="#374151">AX Engine v5.2.2 (MTP-only)</text>
</svg>
