<svg xmlns="http://www.w3.org/2000/svg" width="900" height="460" viewBox="0 0 900 460" role="img" aria-labelledby="title desc">
<title>Qwen3.6 35B-A3B 4-bit MTP prefill throughput</title>
<desc>Grouped box-and-whisker plot comparing MTPLX 0.3.7, AX Engine v5.2.2.</desc>
<rect width="100%" height="100%" fill="#f8fafc"/>
<text x="24" y="24" font-family="Inter,Segoe UI,Arial,sans-serif" font-size="16" font-weight="700" fill="#111827">Qwen3.6 35B-A3B 4-bit MTP prefill throughput</text>
<text x="24" y="46" font-family="Inter,Segoe UI,Arial,sans-serif" font-size="11" fill="#4b5563">All suites combined | box=IQR | dots=runs</text>
<text x="24" y="62" font-family="Inter,Segoe UI,Arial,sans-serif" font-size="10" fill="#6b7280">MTPLX 0.3.7 · AX Engine v5.2.2</text>
<rect x="807" y="13" width="59" height="22" rx="11" fill="#eef2ff" stroke="#c7d2fe"/>
<text x="836.5" y="28" text-anchor="middle" font-family="Inter,Segoe UI,Arial,sans-serif" font-size="10" font-weight="700" fill="#3730a3">tok/s</text>
<text x="866" y="52" text-anchor="end" font-family="Inter,Segoe UI,Arial,sans-serif" font-size="10" font-weight="700" fill="#374151">Higher is better</text>
<rect x="64" y="86" width="676" height="268" rx="6" fill="#ffffff" stroke="#dbe3ef"/>
<line x1="64" y1="354.0" x2="740" y2="354.0" stroke="#e5e7eb" stroke-width="1"/>
<text x="56" y="357.0" text-anchor="end" font-family="Inter,Segoe UI,Arial,sans-serif" font-size="11" fill="#6b7280">0.0</text>
<line x1="64" y1="287.0" x2="740" y2="287.0" stroke="#e5e7eb" stroke-width="1"/>
<text x="56" y="290.0" text-anchor="end" font-family="Inter,Segoe UI,Arial,sans-serif" font-size="11" fill="#6b7280">1.25k</text>
<line x1="64" y1="220.0" x2="740" y2="220.0" stroke="#e5e7eb" stroke-width="1"/>
<text x="56" y="223.0" text-anchor="end" font-family="Inter,Segoe UI,Arial,sans-serif" font-size="11" fill="#6b7280">2.5k</text>
<line x1="64" y1="153.0" x2="740" y2="153.0" stroke="#e5e7eb" stroke-width="1"/>
<text x="56" y="156.0" text-anchor="end" font-family="Inter,Segoe UI,Arial,sans-serif" font-size="11" fill="#6b7280">3.75k</text>
<line x1="64" y1="86.0" x2="740" y2="86.0" stroke="#e5e7eb" stroke-width="1"/>
<text x="56" y="89.0" text-anchor="end" font-family="Inter,Segoe UI,Arial,sans-serif" font-size="11" fill="#6b7280">5k</text>
<line x1="64" y1="248.4" x2="740" y2="248.4" stroke="#dc2626" stroke-width="1.2" stroke-dasharray="1 4" stroke-linecap="round"/>
<text x="748" y="243.4" text-anchor="start" font-family="Inter,Segoe UI,Arial,sans-serif" font-size="11" font-weight="700" fill="#dc2626" data-label="highest median">highest: 2.0k</text>
<text x="402.0" y="398" text-anchor="middle" font-family="Inter,Segoe UI,Arial,sans-serif" font-size="11" font-weight="700" fill="#111827">all suites</text>
<circle cx="127.8" cy="277.4" r="1.45" fill="#14532d" fill-opacity="0.46"/>
<circle cx="130.8" cy="277.4" r="1.45" fill="#14532d" fill-opacity="0.46"/>
<circle cx="133.9" cy="277.6" r="1.45" fill="#14532d" fill-opacity="0.46"/>
<circle cx="136.9" cy="277.8" r="1.45" fill="#14532d" fill-opacity="0.46"/>
<circle cx="140.0" cy="279.3" r="1.45" fill="#14532d" fill-opacity="0.46"/>
<circle cx="143.1" cy="258.7" r="1.45" fill="#14532d" fill-opacity="0.46"/>
<circle cx="146.1" cy="256.0" r="1.45" fill="#14532d" fill-opacity="0.46"/>
<circle cx="149.2" cy="255.8" r="1.45" fill="#14532d" fill-opacity="0.46"/>
<circle cx="152.2" cy="256.1" r="1.45" fill="#14532d" fill-opacity="0.46"/>
<circle cx="127.8" cy="256.2" r="1.45" fill="#14532d" fill-opacity="0.46"/>
<circle cx="130.8" cy="247.7" r="1.45" fill="#14532d" fill-opacity="0.46"/>
<circle cx="133.9" cy="248.1" r="1.45" fill="#14532d" fill-opacity="0.46"/>
<circle cx="136.9" cy="247.4" r="1.45" fill="#14532d" fill-opacity="0.46"/>
<circle cx="140.0" cy="246.9" r="1.45" fill="#14532d" fill-opacity="0.46"/>
<circle cx="143.1" cy="246.9" r="1.45" fill="#14532d" fill-opacity="0.46"/>
<circle cx="146.1" cy="277.0" r="1.45" fill="#14532d" fill-opacity="0.46"/>
<circle cx="149.2" cy="277.5" r="1.45" fill="#14532d" fill-opacity="0.46"/>
<circle cx="152.2" cy="277.1" r="1.45" fill="#14532d" fill-opacity="0.46"/>
<circle cx="127.8" cy="277.0" r="1.45" fill="#14532d" fill-opacity="0.46"/>
<circle cx="130.8" cy="277.8" r="1.45" fill="#14532d" fill-opacity="0.46"/>
<circle cx="133.9" cy="217.5" r="1.45" fill="#14532d" fill-opacity="0.46"/>
<circle cx="136.9" cy="219.2" r="1.45" fill="#14532d" fill-opacity="0.46"/>
<circle cx="140.0" cy="218.9" r="1.45" fill="#14532d" fill-opacity="0.46"/>
<circle cx="143.1" cy="219.0" r="1.45" fill="#14532d" fill-opacity="0.46"/>
<circle cx="146.1" cy="218.6" r="1.45" fill="#14532d" fill-opacity="0.46"/>
<circle cx="149.2" cy="203.1" r="1.45" fill="#14532d" fill-opacity="0.46"/>
<circle cx="152.2" cy="206.2" r="1.45" fill="#14532d" fill-opacity="0.46"/>
<circle cx="127.8" cy="205.1" r="1.45" fill="#14532d" fill-opacity="0.46"/>
<circle cx="130.8" cy="204.0" r="1.45" fill="#14532d" fill-opacity="0.46"/>
<circle cx="133.9" cy="208.5" r="1.45" fill="#14532d" fill-opacity="0.46"/>
<circle cx="136.9" cy="222.9" r="1.45" fill="#14532d" fill-opacity="0.46"/>
<circle cx="140.0" cy="219.7" r="1.45" fill="#14532d" fill-opacity="0.46"/>
<circle cx="143.1" cy="226.4" r="1.45" fill="#14532d" fill-opacity="0.46"/>
<circle cx="146.1" cy="224.6" r="1.45" fill="#14532d" fill-opacity="0.46"/>
<circle cx="149.2" cy="221.3" r="1.45" fill="#14532d" fill-opacity="0.46"/>
<circle cx="152.2" cy="252.4" r="1.45" fill="#14532d" fill-opacity="0.46"/>
<circle cx="127.8" cy="253.9" r="1.45" fill="#14532d" fill-opacity="0.46"/>
<circle cx="130.8" cy="255.9" r="1.45" fill="#14532d" fill-opacity="0.46"/>
<circle cx="133.9" cy="251.8" r="1.45" fill="#14532d" fill-opacity="0.46"/>
<circle cx="136.9" cy="255.2" r="1.45" fill="#14532d" fill-opacity="0.46"/>
<circle cx="140.0" cy="279.0" r="1.45" fill="#14532d" fill-opacity="0.46"/>
<circle cx="143.1" cy="280.6" r="1.45" fill="#14532d" fill-opacity="0.46"/>
<circle cx="146.1" cy="281.5" r="1.45" fill="#14532d" fill-opacity="0.46"/>
<circle cx="149.2" cy="280.6" r="1.45" fill="#14532d" fill-opacity="0.46"/>
<circle cx="152.2" cy="280.2" r="1.45" fill="#14532d" fill-opacity="0.46"/>
<circle cx="127.8" cy="267.6" r="1.45" fill="#14532d" fill-opacity="0.46"/>
<circle cx="130.8" cy="266.2" r="1.45" fill="#14532d" fill-opacity="0.46"/>
<circle cx="133.9" cy="266.0" r="1.45" fill="#14532d" fill-opacity="0.46"/>
<circle cx="136.9" cy="265.1" r="1.45" fill="#14532d" fill-opacity="0.46"/>
<circle cx="140.0" cy="266.0" r="1.45" fill="#14532d" fill-opacity="0.46"/>
<circle cx="143.1" cy="266.3" r="1.45" fill="#14532d" fill-opacity="0.46"/>
<circle cx="146.1" cy="266.8" r="1.45" fill="#14532d" fill-opacity="0.46"/>
<circle cx="149.2" cy="268.7" r="1.45" fill="#14532d" fill-opacity="0.46"/>
<circle cx="152.2" cy="266.7" r="1.45" fill="#14532d" fill-opacity="0.46"/>
<circle cx="127.8" cy="267.5" r="1.45" fill="#14532d" fill-opacity="0.46"/>
<line x1="140.0" y1="203.1" x2="140.0" y2="281.5" stroke="#14532d" stroke-opacity="0.82" stroke-width="1.8"/>
<line x1="127.8" y1="203.1" x2="152.2" y2="203.1" stroke="#14532d" stroke-opacity="0.82" stroke-width="1.8"/>
<line x1="127.8" y1="281.5" x2="152.2" y2="281.5" stroke="#14532d" stroke-opacity="0.82" stroke-width="1.8"/>
<rect x="123.0" y="225.5" width="34.0" height="51.5" rx="2" fill="#14532d" fill-opacity="0.18" stroke="#14532d" stroke-opacity="0.82" stroke-width="1.8"/>
<line x1="123.0" y1="256.1" x2="157.0" y2="256.1" stroke="#14532d" stroke-opacity="0.82" stroke-width="2.6"/>
<text x="163.0" y="260.1" text-anchor="start" font-family="Inter,Segoe UI,Arial,sans-serif" font-size="11" font-weight="700" fill="#111827" stroke="#ffffff" stroke-width="3" paint-order="stroke">1.8k</text>
<circle cx="651.8" cy="268.1" r="1.45" fill="#f97316" fill-opacity="0.46"/>
<circle cx="654.8" cy="250.5" r="1.45" fill="#f97316" fill-opacity="0.46"/>
<circle cx="657.9" cy="242.1" r="1.45" fill="#f97316" fill-opacity="0.46"/>
<circle cx="660.9" cy="271.4" r="1.45" fill="#f97316" fill-opacity="0.46"/>
<circle cx="664.0" cy="209.3" r="1.45" fill="#f97316" fill-opacity="0.46"/>
<circle cx="667.1" cy="197.5" r="1.45" fill="#f97316" fill-opacity="0.46"/>
<circle cx="670.1" cy="211.5" r="1.45" fill="#f97316" fill-opacity="0.46"/>
<circle cx="673.2" cy="244.1" r="1.45" fill="#f97316" fill-opacity="0.46"/>
<circle cx="676.2" cy="261.8" r="1.45" fill="#f97316" fill-opacity="0.46"/>
<circle cx="651.8" cy="248.4" r="1.45" fill="#f97316" fill-opacity="0.46"/>
<circle cx="654.8" cy="248.5" r="1.45" fill="#f97316" fill-opacity="0.46"/>
<line x1="664.0" y1="197.5" x2="664.0" y2="271.4" stroke="#f97316" stroke-opacity="0.82" stroke-width="1.8"/>
<line x1="651.8" y1="197.5" x2="676.2" y2="197.5" stroke="#f97316" stroke-opacity="0.82" stroke-width="1.8"/>
<line x1="651.8" y1="271.4" x2="676.2" y2="271.4" stroke="#f97316" stroke-opacity="0.82" stroke-width="1.8"/>
<rect x="647.0" y="226.8" width="34.0" height="29.4" rx="2" fill="#f97316" fill-opacity="0.18" stroke="#f97316" stroke-opacity="0.82" stroke-width="1.8"/>
<line x1="647.0" y1="248.4" x2="681.0" y2="248.4" stroke="#f97316" stroke-opacity="0.82" stroke-width="2.6"/>
<text x="687.0" y="252.4" text-anchor="start" font-family="Inter,Segoe UI,Arial,sans-serif" font-size="11" font-weight="700" fill="#111827" stroke="#ffffff" stroke-width="3" paint-order="stroke">2.0k</text>
<rect x="64" y="433" width="10" height="10" rx="2" fill="#14532d" fill-opacity="0.86"/>
<text x="78" y="442" font-family="Inter,Segoe UI,Arial,sans-serif" font-size="10" fill="#374151">MTPLX 0.3.7</text>
<rect x="402.0" y="433" width="10" height="10" rx="2" fill="#f97316" fill-opacity="0.86"/>
<text x="416.0" y="442" font-family="Inter,Segoe UI,Arial,sans-serif" font-size="10" fill="#374151">AX Engine v5.2.2</text>
</svg>
