<svg xmlns="http://www.w3.org/2000/svg" width="900" height="460" viewBox="0 0 900 460" role="img" aria-labelledby="title desc">
<title>MTP time-to-first-token (TTFT)</title>
<desc>Grouped box-and-whisker plot comparing MTPLX 0.3.7, AX Engine v5.2.2.</desc>
<rect width="100%" height="100%" fill="#f8fafc"/>
<text x="24" y="24" font-family="Inter,Segoe UI,Arial,sans-serif" font-size="16" font-weight="700" fill="#111827">MTP time-to-first-token (TTFT)</text>
<text x="24" y="46" font-family="Inter,Segoe UI,Arial,sans-serif" font-size="11" fill="#4b5563"><tspan>All suites combined per model | </tspan><tspan fill="#dc2626" font-weight="700">lower is better</tspan><tspan> | box=IQR | dots=runs</tspan></text>
<text x="24" y="62" font-family="Inter,Segoe UI,Arial,sans-serif" font-size="10" fill="#6b7280">MTPLX 0.3.7 · AX Engine v5.2.2</text>
<rect x="818" y="13" width="48" height="22" rx="11" fill="#eef2ff" stroke="#c7d2fe"/>
<text x="842.0" y="28" text-anchor="middle" font-family="Inter,Segoe UI,Arial,sans-serif" font-size="10" font-weight="700" fill="#3730a3">ms</text>
<text x="866" y="52" text-anchor="end" font-family="Inter,Segoe UI,Arial,sans-serif" font-size="10" font-weight="700" fill="#dc2626">Lower is better</text>
<rect x="64" y="86" width="676" height="268" rx="6" fill="#ffffff" stroke="#dbe3ef"/>
<line x1="64" y1="354.0" x2="740" y2="354.0" stroke="#e5e7eb" stroke-width="1"/>
<text x="56" y="357.0" text-anchor="end" font-family="Inter,Segoe UI,Arial,sans-serif" font-size="11" fill="#6b7280">0</text>
<line x1="64" y1="287.0" x2="740" y2="287.0" stroke="#e5e7eb" stroke-width="1"/>
<text x="56" y="290.0" text-anchor="end" font-family="Inter,Segoe UI,Arial,sans-serif" font-size="11" fill="#6b7280">500</text>
<line x1="64" y1="220.0" x2="740" y2="220.0" stroke="#e5e7eb" stroke-width="1"/>
<text x="56" y="223.0" text-anchor="end" font-family="Inter,Segoe UI,Arial,sans-serif" font-size="11" fill="#6b7280">1000</text>
<line x1="64" y1="153.0" x2="740" y2="153.0" stroke="#e5e7eb" stroke-width="1"/>
<text x="56" y="156.0" text-anchor="end" font-family="Inter,Segoe UI,Arial,sans-serif" font-size="11" fill="#6b7280">1500</text>
<line x1="64" y1="86.0" x2="740" y2="86.0" stroke="#e5e7eb" stroke-width="1"/>
<text x="56" y="89.0" text-anchor="end" font-family="Inter,Segoe UI,Arial,sans-serif" font-size="11" fill="#6b7280">2000</text>
<line x1="64" y1="328.0" x2="740" y2="328.0" stroke="#dc2626" stroke-width="1.2" stroke-dasharray="1 4" stroke-linecap="round"/>
<text x="748" y="323.0" text-anchor="start" font-family="Inter,Segoe UI,Arial,sans-serif" font-size="11" font-weight="700" fill="#dc2626" data-label="lowest median">lowest: 194</text>
<text x="233.0" y="398" text-anchor="middle" font-family="Inter,Segoe UI,Arial,sans-serif" font-size="11" font-weight="700" fill="#111827">27B</text>
<circle cx="95.8" cy="298.6" r="1.45" fill="#14532d" fill-opacity="0.46"/>
<circle cx="98.8" cy="298.4" r="1.45" fill="#14532d" fill-opacity="0.46"/>
<circle cx="101.9" cy="298.6" r="1.45" fill="#14532d" fill-opacity="0.46"/>
<circle cx="104.9" cy="298.3" r="1.45" fill="#14532d" fill-opacity="0.46"/>
<circle cx="108.0" cy="298.9" r="1.45" fill="#14532d" fill-opacity="0.46"/>
<circle cx="111.1" cy="289.4" r="1.45" fill="#14532d" fill-opacity="0.46"/>
<circle cx="114.1" cy="289.3" r="1.45" fill="#14532d" fill-opacity="0.46"/>
<circle cx="117.2" cy="289.5" r="1.45" fill="#14532d" fill-opacity="0.46"/>
<circle cx="120.2" cy="289.5" r="1.45" fill="#14532d" fill-opacity="0.46"/>
<circle cx="95.8" cy="289.6" r="1.45" fill="#14532d" fill-opacity="0.46"/>
<circle cx="98.8" cy="281.5" r="1.45" fill="#14532d" fill-opacity="0.46"/>
<circle cx="101.9" cy="281.6" r="1.45" fill="#14532d" fill-opacity="0.46"/>
<circle cx="104.9" cy="281.6" r="1.45" fill="#14532d" fill-opacity="0.46"/>
<circle cx="108.0" cy="281.3" r="1.45" fill="#14532d" fill-opacity="0.46"/>
<circle cx="111.1" cy="281.5" r="1.45" fill="#14532d" fill-opacity="0.46"/>
<circle cx="114.1" cy="299.4" r="1.45" fill="#14532d" fill-opacity="0.46"/>
<circle cx="117.2" cy="298.9" r="1.45" fill="#14532d" fill-opacity="0.46"/>
<circle cx="120.2" cy="299.1" r="1.45" fill="#14532d" fill-opacity="0.46"/>
<circle cx="95.8" cy="299.0" r="1.45" fill="#14532d" fill-opacity="0.46"/>
<circle cx="98.8" cy="298.8" r="1.45" fill="#14532d" fill-opacity="0.46"/>
<circle cx="101.9" cy="236.3" r="1.45" fill="#14532d" fill-opacity="0.46"/>
<circle cx="104.9" cy="236.5" r="1.45" fill="#14532d" fill-opacity="0.46"/>
<circle cx="108.0" cy="236.2" r="1.45" fill="#14532d" fill-opacity="0.46"/>
<circle cx="111.1" cy="236.9" r="1.45" fill="#14532d" fill-opacity="0.46"/>
<circle cx="114.1" cy="235.2" r="1.45" fill="#14532d" fill-opacity="0.46"/>
<circle cx="117.2" cy="217.6" r="1.45" fill="#14532d" fill-opacity="0.46"/>
<circle cx="120.2" cy="218.4" r="1.45" fill="#14532d" fill-opacity="0.46"/>
<circle cx="95.8" cy="217.7" r="1.45" fill="#14532d" fill-opacity="0.46"/>
<circle cx="98.8" cy="217.9" r="1.45" fill="#14532d" fill-opacity="0.46"/>
<circle cx="101.9" cy="217.9" r="1.45" fill="#14532d" fill-opacity="0.46"/>
<circle cx="104.9" cy="236.3" r="1.45" fill="#14532d" fill-opacity="0.46"/>
<circle cx="108.0" cy="236.9" r="1.45" fill="#14532d" fill-opacity="0.46"/>
<circle cx="111.1" cy="236.9" r="1.45" fill="#14532d" fill-opacity="0.46"/>
<circle cx="114.1" cy="236.8" r="1.45" fill="#14532d" fill-opacity="0.46"/>
<circle cx="117.2" cy="233.9" r="1.45" fill="#14532d" fill-opacity="0.46"/>
<circle cx="120.2" cy="271.9" r="1.45" fill="#14532d" fill-opacity="0.46"/>
<circle cx="95.8" cy="268.6" r="1.45" fill="#14532d" fill-opacity="0.46"/>
<circle cx="98.8" cy="267.9" r="1.45" fill="#14532d" fill-opacity="0.46"/>
<circle cx="101.9" cy="272.0" r="1.45" fill="#14532d" fill-opacity="0.46"/>
<circle cx="104.9" cy="272.4" r="1.45" fill="#14532d" fill-opacity="0.46"/>
<circle cx="108.0" cy="295.2" r="1.45" fill="#14532d" fill-opacity="0.46"/>
<circle cx="111.1" cy="295.2" r="1.45" fill="#14532d" fill-opacity="0.46"/>
<circle cx="114.1" cy="297.2" r="1.45" fill="#14532d" fill-opacity="0.46"/>
<circle cx="117.2" cy="295.8" r="1.45" fill="#14532d" fill-opacity="0.46"/>
<circle cx="120.2" cy="296.8" r="1.45" fill="#14532d" fill-opacity="0.46"/>
<circle cx="95.8" cy="286.7" r="1.45" fill="#14532d" fill-opacity="0.46"/>
<circle cx="98.8" cy="288.5" r="1.45" fill="#14532d" fill-opacity="0.46"/>
<circle cx="101.9" cy="287.6" r="1.45" fill="#14532d" fill-opacity="0.46"/>
<circle cx="104.9" cy="287.6" r="1.45" fill="#14532d" fill-opacity="0.46"/>
<circle cx="108.0" cy="287.6" r="1.45" fill="#14532d" fill-opacity="0.46"/>
<circle cx="111.1" cy="287.6" r="1.45" fill="#14532d" fill-opacity="0.46"/>
<circle cx="114.1" cy="287.7" r="1.45" fill="#14532d" fill-opacity="0.46"/>
<circle cx="117.2" cy="287.5" r="1.45" fill="#14532d" fill-opacity="0.46"/>
<circle cx="120.2" cy="288.0" r="1.45" fill="#14532d" fill-opacity="0.46"/>
<circle cx="95.8" cy="287.7" r="1.45" fill="#14532d" fill-opacity="0.46"/>
<line x1="108.0" y1="217.6" x2="108.0" y2="299.4" stroke="#14532d" stroke-opacity="0.82" stroke-width="1.8"/>
<line x1="95.8" y1="217.6" x2="120.2" y2="217.6" stroke="#14532d" stroke-opacity="0.82" stroke-width="1.8"/>
<line x1="95.8" y1="299.4" x2="120.2" y2="299.4" stroke="#14532d" stroke-opacity="0.82" stroke-width="1.8"/>
<rect x="91.0" y="236.9" width="34.0" height="58.3" rx="2" fill="#14532d" fill-opacity="0.18" stroke="#14532d" stroke-opacity="0.82" stroke-width="1.8"/>
<line x1="91.0" y1="287.6" x2="125.0" y2="287.6" stroke="#14532d" stroke-opacity="0.82" stroke-width="2.6"/>
<text x="131.0" y="291.6" text-anchor="start" font-family="Inter,Segoe UI,Arial,sans-serif" font-size="11" font-weight="700" fill="#111827" stroke="#ffffff" stroke-width="3" paint-order="stroke">496</text>
<circle cx="345.8" cy="295.0" r="1.45" fill="#f97316" fill-opacity="0.46"/>
<circle cx="348.8" cy="285.0" r="1.45" fill="#f97316" fill-opacity="0.46"/>
<circle cx="351.9" cy="276.8" r="1.45" fill="#f97316" fill-opacity="0.46"/>
<circle cx="354.9" cy="295.5" r="1.45" fill="#f97316" fill-opacity="0.46"/>
<circle cx="358.0" cy="231.1" r="1.45" fill="#f97316" fill-opacity="0.46"/>
<circle cx="361.1" cy="211.6" r="1.45" fill="#f97316" fill-opacity="0.46"/>
<circle cx="364.1" cy="230.7" r="1.45" fill="#f97316" fill-opacity="0.46"/>
<circle cx="367.2" cy="268.3" r="1.45" fill="#f97316" fill-opacity="0.46"/>
<circle cx="370.2" cy="293.6" r="1.45" fill="#f97316" fill-opacity="0.46"/>
<circle cx="345.8" cy="285.2" r="1.45" fill="#f97316" fill-opacity="0.46"/>
<circle cx="348.8" cy="285.2" r="1.45" fill="#f97316" fill-opacity="0.46"/>
<line x1="358.0" y1="211.6" x2="358.0" y2="295.5" stroke="#f97316" stroke-opacity="0.82" stroke-width="1.8"/>
<line x1="345.8" y1="211.6" x2="370.2" y2="211.6" stroke="#f97316" stroke-opacity="0.82" stroke-width="1.8"/>
<line x1="345.8" y1="295.5" x2="370.2" y2="295.5" stroke="#f97316" stroke-opacity="0.82" stroke-width="1.8"/>
<rect x="341.0" y="249.7" width="34.0" height="39.7" rx="2" fill="#f97316" fill-opacity="0.18" stroke="#f97316" stroke-opacity="0.82" stroke-width="1.8"/>
<line x1="341.0" y1="285.0" x2="375.0" y2="285.0" stroke="#f97316" stroke-opacity="0.82" stroke-width="2.6"/>
<text x="381.0" y="289.0" text-anchor="start" font-family="Inter,Segoe UI,Arial,sans-serif" font-size="11" font-weight="700" fill="#111827" stroke="#ffffff" stroke-width="3" paint-order="stroke">515</text>
<text x="571.0" y="398" text-anchor="middle" font-family="Inter,Segoe UI,Arial,sans-serif" font-size="11" font-weight="700" fill="#111827">35B-A3B</text>
<circle cx="433.8" cy="328.4" r="1.45" fill="#14532d" fill-opacity="0.46"/>
<circle cx="436.8" cy="328.4" r="1.45" fill="#14532d" fill-opacity="0.46"/>
<circle cx="439.9" cy="328.3" r="1.45" fill="#14532d" fill-opacity="0.46"/>
<circle cx="442.9" cy="328.3" r="1.45" fill="#14532d" fill-opacity="0.46"/>
<circle cx="446.0" cy="327.8" r="1.45" fill="#14532d" fill-opacity="0.46"/>
<circle cx="449.1" cy="325.8" r="1.45" fill="#14532d" fill-opacity="0.46"/>
<circle cx="452.1" cy="326.6" r="1.45" fill="#14532d" fill-opacity="0.46"/>
<circle cx="455.2" cy="326.7" r="1.45" fill="#14532d" fill-opacity="0.46"/>
<circle cx="458.2" cy="326.6" r="1.45" fill="#14532d" fill-opacity="0.46"/>
<circle cx="433.8" cy="326.5" r="1.45" fill="#14532d" fill-opacity="0.46"/>
<circle cx="436.8" cy="324.8" r="1.45" fill="#14532d" fill-opacity="0.46"/>
<circle cx="439.9" cy="324.7" r="1.45" fill="#14532d" fill-opacity="0.46"/>
<circle cx="442.9" cy="324.9" r="1.45" fill="#14532d" fill-opacity="0.46"/>
<circle cx="446.0" cy="325.0" r="1.45" fill="#14532d" fill-opacity="0.46"/>
<circle cx="449.1" cy="325.0" r="1.45" fill="#14532d" fill-opacity="0.46"/>
<circle cx="452.1" cy="329.4" r="1.45" fill="#14532d" fill-opacity="0.46"/>
<circle cx="455.2" cy="329.2" r="1.45" fill="#14532d" fill-opacity="0.46"/>
<circle cx="458.2" cy="329.4" r="1.45" fill="#14532d" fill-opacity="0.46"/>
<circle cx="433.8" cy="329.4" r="1.45" fill="#14532d" fill-opacity="0.46"/>
<circle cx="436.8" cy="329.1" r="1.45" fill="#14532d" fill-opacity="0.46"/>
<circle cx="439.9" cy="316.1" r="1.45" fill="#14532d" fill-opacity="0.46"/>
<circle cx="442.9" cy="315.6" r="1.45" fill="#14532d" fill-opacity="0.46"/>
<circle cx="446.0" cy="315.7" r="1.45" fill="#14532d" fill-opacity="0.46"/>
<circle cx="449.1" cy="315.6" r="1.45" fill="#14532d" fill-opacity="0.46"/>
<circle cx="452.1" cy="315.8" r="1.45" fill="#14532d" fill-opacity="0.46"/>
<circle cx="455.2" cy="313.5" r="1.45" fill="#14532d" fill-opacity="0.46"/>
<circle cx="458.2" cy="312.6" r="1.45" fill="#14532d" fill-opacity="0.46"/>
<circle cx="433.8" cy="312.9" r="1.45" fill="#14532d" fill-opacity="0.46"/>
<circle cx="436.8" cy="313.2" r="1.45" fill="#14532d" fill-opacity="0.46"/>
<circle cx="439.9" cy="311.9" r="1.45" fill="#14532d" fill-opacity="0.46"/>
<circle cx="442.9" cy="314.9" r="1.45" fill="#14532d" fill-opacity="0.46"/>
<circle cx="446.0" cy="315.8" r="1.45" fill="#14532d" fill-opacity="0.46"/>
<circle cx="449.1" cy="313.8" r="1.45" fill="#14532d" fill-opacity="0.46"/>
<circle cx="452.1" cy="314.4" r="1.45" fill="#14532d" fill-opacity="0.46"/>
<circle cx="455.2" cy="315.4" r="1.45" fill="#14532d" fill-opacity="0.46"/>
<circle cx="458.2" cy="322.1" r="1.45" fill="#14532d" fill-opacity="0.46"/>
<circle cx="433.8" cy="321.6" r="1.45" fill="#14532d" fill-opacity="0.46"/>
<circle cx="436.8" cy="321.0" r="1.45" fill="#14532d" fill-opacity="0.46"/>
<circle cx="439.9" cy="322.3" r="1.45" fill="#14532d" fill-opacity="0.46"/>
<circle cx="442.9" cy="321.2" r="1.45" fill="#14532d" fill-opacity="0.46"/>
<circle cx="446.0" cy="326.7" r="1.45" fill="#14532d" fill-opacity="0.46"/>
<circle cx="449.1" cy="326.1" r="1.45" fill="#14532d" fill-opacity="0.46"/>
<circle cx="452.1" cy="325.8" r="1.45" fill="#14532d" fill-opacity="0.46"/>
<circle cx="455.2" cy="326.1" r="1.45" fill="#14532d" fill-opacity="0.46"/>
<circle cx="458.2" cy="326.3" r="1.45" fill="#14532d" fill-opacity="0.46"/>
<circle cx="433.8" cy="324.9" r="1.45" fill="#14532d" fill-opacity="0.46"/>
<circle cx="436.8" cy="325.4" r="1.45" fill="#14532d" fill-opacity="0.46"/>
<circle cx="439.9" cy="325.4" r="1.45" fill="#14532d" fill-opacity="0.46"/>
<circle cx="442.9" cy="325.7" r="1.45" fill="#14532d" fill-opacity="0.46"/>
<circle cx="446.0" cy="325.4" r="1.45" fill="#14532d" fill-opacity="0.46"/>
<circle cx="449.1" cy="325.3" r="1.45" fill="#14532d" fill-opacity="0.46"/>
<circle cx="452.1" cy="325.2" r="1.45" fill="#14532d" fill-opacity="0.46"/>
<circle cx="455.2" cy="324.5" r="1.45" fill="#14532d" fill-opacity="0.46"/>
<circle cx="458.2" cy="325.2" r="1.45" fill="#14532d" fill-opacity="0.46"/>
<circle cx="433.8" cy="324.9" r="1.45" fill="#14532d" fill-opacity="0.46"/>
<line x1="446.0" y1="311.9" x2="446.0" y2="329.4" stroke="#14532d" stroke-opacity="0.82" stroke-width="1.8"/>
<line x1="433.8" y1="311.9" x2="458.2" y2="311.9" stroke="#14532d" stroke-opacity="0.82" stroke-width="1.8"/>
<line x1="433.8" y1="329.4" x2="458.2" y2="329.4" stroke="#14532d" stroke-opacity="0.82" stroke-width="1.8"/>
<rect x="429.0" y="315.9" width="34.0" height="10.6" rx="2" fill="#14532d" fill-opacity="0.18" stroke="#14532d" stroke-opacity="0.82" stroke-width="1.8"/>
<line x1="429.0" y1="325.0" x2="463.0" y2="325.0" stroke="#14532d" stroke-opacity="0.82" stroke-width="2.6"/>
<text x="469.0" y="329.0" text-anchor="start" font-family="Inter,Segoe UI,Arial,sans-serif" font-size="11" font-weight="700" fill="#111827" stroke="#ffffff" stroke-width="3" paint-order="stroke">216</text>
<circle cx="683.8" cy="331.2" r="1.45" fill="#f97316" fill-opacity="0.46"/>
<circle cx="686.8" cy="328.0" r="1.45" fill="#f97316" fill-opacity="0.46"/>
<circle cx="689.9" cy="326.3" r="1.45" fill="#f97316" fill-opacity="0.46"/>
<circle cx="692.9" cy="331.0" r="1.45" fill="#f97316" fill-opacity="0.46"/>
<circle cx="696.0" cy="318.2" r="1.45" fill="#f97316" fill-opacity="0.46"/>
<circle cx="699.1" cy="314.9" r="1.45" fill="#f97316" fill-opacity="0.46"/>
<circle cx="702.1" cy="318.0" r="1.45" fill="#f97316" fill-opacity="0.46"/>
<circle cx="705.2" cy="324.5" r="1.45" fill="#f97316" fill-opacity="0.46"/>
<circle cx="708.2" cy="331.8" r="1.45" fill="#f97316" fill-opacity="0.46"/>
<circle cx="683.8" cy="330.2" r="1.45" fill="#f97316" fill-opacity="0.46"/>
<circle cx="686.8" cy="330.2" r="1.45" fill="#f97316" fill-opacity="0.46"/>
<line x1="696.0" y1="314.9" x2="696.0" y2="331.8" stroke="#f97316" stroke-opacity="0.82" stroke-width="1.8"/>
<line x1="683.8" y1="314.9" x2="708.2" y2="314.9" stroke="#f97316" stroke-opacity="0.82" stroke-width="1.8"/>
<line x1="683.8" y1="331.8" x2="708.2" y2="331.8" stroke="#f97316" stroke-opacity="0.82" stroke-width="1.8"/>
<rect x="679.0" y="321.4" width="34.0" height="9.3" rx="2" fill="#f97316" fill-opacity="0.18" stroke="#f97316" stroke-opacity="0.82" stroke-width="1.8"/>
<line x1="679.0" y1="328.0" x2="713.0" y2="328.0" stroke="#f97316" stroke-opacity="0.82" stroke-width="2.6"/>
<text x="719.0" y="332.0" text-anchor="start" font-family="Inter,Segoe UI,Arial,sans-serif" font-size="11" font-weight="700" fill="#111827" stroke="#ffffff" stroke-width="3" paint-order="stroke">194</text>
<rect x="64" y="433" width="10" height="10" rx="2" fill="#14532d" fill-opacity="0.86"/>
<text x="78" y="442" font-family="Inter,Segoe UI,Arial,sans-serif" font-size="10" fill="#374151">MTPLX 0.3.7</text>
<rect x="402.0" y="433" width="10" height="10" rx="2" fill="#f97316" fill-opacity="0.86"/>
<text x="416.0" y="442" font-family="Inter,Segoe UI,Arial,sans-serif" font-size="10" fill="#374151">AX Engine v5.2.2</text>
</svg>
