<svg xmlns="http://www.w3.org/2000/svg" width="900" height="460" viewBox="0 0 900 460" role="img" aria-labelledby="title desc">
<title>Qwen3.6 35B-A3B 4-bit MTP prefill throughput</title>
<desc>Grouped box-and-whisker plot comparing MTPLX 0.3.7, AX Engine v5.1.12, AX+ngram v5.1.12.</desc>
<rect width="100%" height="100%" fill="#f8fafc"/>
<text x="24" y="24" font-family="Inter,Segoe UI,Arial,sans-serif" font-size="16" font-weight="700" fill="#111827">Qwen3.6 35B-A3B 4-bit MTP prefill throughput</text>
<text x="24" y="46" font-family="Inter,Segoe UI,Arial,sans-serif" font-size="11" fill="#4b5563">All suites combined | box=IQR | dots=runs</text>
<text x="24" y="62" font-family="Inter,Segoe UI,Arial,sans-serif" font-size="10" fill="#6b7280">MTPLX 0.3.7 · AX Engine v5.1.12</text>
<rect x="807" y="13" width="59" height="22" rx="11" fill="#eef2ff" stroke="#c7d2fe"/>
<text x="836.5" y="28" text-anchor="middle" font-family="Inter,Segoe UI,Arial,sans-serif" font-size="10" font-weight="700" fill="#3730a3">tok/s</text>
<text x="866" y="52" text-anchor="end" font-family="Inter,Segoe UI,Arial,sans-serif" font-size="10" font-weight="700" fill="#374151">Higher is better</text>
<rect x="64" y="86" width="676" height="268" rx="6" fill="#ffffff" stroke="#dbe3ef"/>
<line x1="64" y1="354.0" x2="740" y2="354.0" stroke="#e5e7eb" stroke-width="1"/>
<text x="56" y="357.0" text-anchor="end" font-family="Inter,Segoe UI,Arial,sans-serif" font-size="11" fill="#6b7280">0.0</text>
<line x1="64" y1="287.0" x2="740" y2="287.0" stroke="#e5e7eb" stroke-width="1"/>
<text x="56" y="290.0" text-anchor="end" font-family="Inter,Segoe UI,Arial,sans-serif" font-size="11" fill="#6b7280">1.25k</text>
<line x1="64" y1="220.0" x2="740" y2="220.0" stroke="#e5e7eb" stroke-width="1"/>
<text x="56" y="223.0" text-anchor="end" font-family="Inter,Segoe UI,Arial,sans-serif" font-size="11" fill="#6b7280">2.5k</text>
<line x1="64" y1="153.0" x2="740" y2="153.0" stroke="#e5e7eb" stroke-width="1"/>
<text x="56" y="156.0" text-anchor="end" font-family="Inter,Segoe UI,Arial,sans-serif" font-size="11" fill="#6b7280">3.75k</text>
<line x1="64" y1="86.0" x2="740" y2="86.0" stroke="#e5e7eb" stroke-width="1"/>
<text x="56" y="89.0" text-anchor="end" font-family="Inter,Segoe UI,Arial,sans-serif" font-size="11" fill="#6b7280">5k</text>
<line x1="64" y1="245.1" x2="740" y2="245.1" stroke="#dc2626" stroke-width="1.2" stroke-dasharray="1 4" stroke-linecap="round"/>
<text x="748" y="240.1" text-anchor="start" font-family="Inter,Segoe UI,Arial,sans-serif" font-size="11" font-weight="700" fill="#dc2626" data-label="highest median">highest: 2.0k</text>
<text x="402.0" y="398" text-anchor="middle" font-family="Inter,Segoe UI,Arial,sans-serif" font-size="11" font-weight="700" fill="#111827">all suites</text>
<circle cx="127.8" cy="281.9" r="1.45" fill="#14532d" fill-opacity="0.46"/>
<circle cx="130.8" cy="279.8" r="1.45" fill="#14532d" fill-opacity="0.46"/>
<circle cx="133.9" cy="280.4" r="1.45" fill="#14532d" fill-opacity="0.46"/>
<circle cx="136.9" cy="279.9" r="1.45" fill="#14532d" fill-opacity="0.46"/>
<circle cx="140.0" cy="281.2" r="1.45" fill="#14532d" fill-opacity="0.46"/>
<circle cx="143.1" cy="262.0" r="1.45" fill="#14532d" fill-opacity="0.46"/>
<circle cx="146.1" cy="261.4" r="1.45" fill="#14532d" fill-opacity="0.46"/>
<circle cx="149.2" cy="261.9" r="1.45" fill="#14532d" fill-opacity="0.46"/>
<circle cx="152.2" cy="262.1" r="1.45" fill="#14532d" fill-opacity="0.46"/>
<circle cx="127.8" cy="262.2" r="1.45" fill="#14532d" fill-opacity="0.46"/>
<circle cx="130.8" cy="254.8" r="1.45" fill="#14532d" fill-opacity="0.46"/>
<circle cx="133.9" cy="253.7" r="1.45" fill="#14532d" fill-opacity="0.46"/>
<circle cx="136.9" cy="254.5" r="1.45" fill="#14532d" fill-opacity="0.46"/>
<circle cx="140.0" cy="253.8" r="1.45" fill="#14532d" fill-opacity="0.46"/>
<circle cx="143.1" cy="255.2" r="1.45" fill="#14532d" fill-opacity="0.46"/>
<circle cx="146.1" cy="282.7" r="1.45" fill="#14532d" fill-opacity="0.46"/>
<circle cx="149.2" cy="284.0" r="1.45" fill="#14532d" fill-opacity="0.46"/>
<circle cx="152.2" cy="282.8" r="1.45" fill="#14532d" fill-opacity="0.46"/>
<circle cx="127.8" cy="276.5" r="1.45" fill="#14532d" fill-opacity="0.46"/>
<circle cx="130.8" cy="283.5" r="1.45" fill="#14532d" fill-opacity="0.46"/>
<circle cx="133.9" cy="226.2" r="1.45" fill="#14532d" fill-opacity="0.46"/>
<circle cx="136.9" cy="223.2" r="1.45" fill="#14532d" fill-opacity="0.46"/>
<circle cx="140.0" cy="226.1" r="1.45" fill="#14532d" fill-opacity="0.46"/>
<circle cx="143.1" cy="222.2" r="1.45" fill="#14532d" fill-opacity="0.46"/>
<circle cx="146.1" cy="232.2" r="1.45" fill="#14532d" fill-opacity="0.46"/>
<circle cx="149.2" cy="216.2" r="1.45" fill="#14532d" fill-opacity="0.46"/>
<circle cx="152.2" cy="219.3" r="1.45" fill="#14532d" fill-opacity="0.46"/>
<circle cx="127.8" cy="224.5" r="1.45" fill="#14532d" fill-opacity="0.46"/>
<circle cx="130.8" cy="215.0" r="1.45" fill="#14532d" fill-opacity="0.46"/>
<circle cx="133.9" cy="208.0" r="1.45" fill="#14532d" fill-opacity="0.46"/>
<circle cx="136.9" cy="221.3" r="1.45" fill="#14532d" fill-opacity="0.46"/>
<circle cx="140.0" cy="237.0" r="1.45" fill="#14532d" fill-opacity="0.46"/>
<circle cx="143.1" cy="236.8" r="1.45" fill="#14532d" fill-opacity="0.46"/>
<circle cx="146.1" cy="237.7" r="1.45" fill="#14532d" fill-opacity="0.46"/>
<circle cx="149.2" cy="220.5" r="1.45" fill="#14532d" fill-opacity="0.46"/>
<circle cx="152.2" cy="259.2" r="1.45" fill="#14532d" fill-opacity="0.46"/>
<circle cx="127.8" cy="255.6" r="1.45" fill="#14532d" fill-opacity="0.46"/>
<circle cx="130.8" cy="270.4" r="1.45" fill="#14532d" fill-opacity="0.46"/>
<circle cx="133.9" cy="271.0" r="1.45" fill="#14532d" fill-opacity="0.46"/>
<circle cx="136.9" cy="267.5" r="1.45" fill="#14532d" fill-opacity="0.46"/>
<circle cx="140.0" cy="278.4" r="1.45" fill="#14532d" fill-opacity="0.46"/>
<circle cx="143.1" cy="284.8" r="1.45" fill="#14532d" fill-opacity="0.46"/>
<circle cx="146.1" cy="287.0" r="1.45" fill="#14532d" fill-opacity="0.46"/>
<circle cx="149.2" cy="287.7" r="1.45" fill="#14532d" fill-opacity="0.46"/>
<circle cx="152.2" cy="291.3" r="1.45" fill="#14532d" fill-opacity="0.46"/>
<circle cx="127.8" cy="266.6" r="1.45" fill="#14532d" fill-opacity="0.46"/>
<circle cx="130.8" cy="277.7" r="1.45" fill="#14532d" fill-opacity="0.46"/>
<circle cx="133.9" cy="274.4" r="1.45" fill="#14532d" fill-opacity="0.46"/>
<circle cx="136.9" cy="272.2" r="1.45" fill="#14532d" fill-opacity="0.46"/>
<circle cx="140.0" cy="270.7" r="1.45" fill="#14532d" fill-opacity="0.46"/>
<circle cx="143.1" cy="277.0" r="1.45" fill="#14532d" fill-opacity="0.46"/>
<circle cx="146.1" cy="271.1" r="1.45" fill="#14532d" fill-opacity="0.46"/>
<circle cx="149.2" cy="279.0" r="1.45" fill="#14532d" fill-opacity="0.46"/>
<circle cx="152.2" cy="277.3" r="1.45" fill="#14532d" fill-opacity="0.46"/>
<circle cx="127.8" cy="277.3" r="1.45" fill="#14532d" fill-opacity="0.46"/>
<line x1="140.0" y1="208.0" x2="140.0" y2="291.3" stroke="#14532d" stroke-opacity="0.82" stroke-width="1.8"/>
<line x1="127.8" y1="208.0" x2="152.2" y2="208.0" stroke="#14532d" stroke-opacity="0.82" stroke-width="1.8"/>
<line x1="127.8" y1="291.3" x2="152.2" y2="291.3" stroke="#14532d" stroke-opacity="0.82" stroke-width="1.8"/>
<rect x="123.0" y="237.3" width="34.0" height="41.4" rx="2" fill="#14532d" fill-opacity="0.18" stroke="#14532d" stroke-opacity="0.82" stroke-width="1.8"/>
<line x1="123.0" y1="266.6" x2="157.0" y2="266.6" stroke="#14532d" stroke-opacity="0.82" stroke-width="2.6"/>
<text x="163.0" y="270.6" text-anchor="start" font-family="Inter,Segoe UI,Arial,sans-serif" font-size="11" font-weight="700" fill="#111827" stroke="#ffffff" stroke-width="3" paint-order="stroke">1.6k</text>
<circle cx="389.8" cy="266.5" r="1.45" fill="#f97316" fill-opacity="0.46"/>
<circle cx="392.8" cy="247.2" r="1.45" fill="#f97316" fill-opacity="0.46"/>
<circle cx="395.9" cy="239.7" r="1.45" fill="#f97316" fill-opacity="0.46"/>
<circle cx="398.9" cy="268.5" r="1.45" fill="#f97316" fill-opacity="0.46"/>
<circle cx="402.0" cy="206.5" r="1.45" fill="#f97316" fill-opacity="0.46"/>
<circle cx="405.1" cy="195.0" r="1.45" fill="#f97316" fill-opacity="0.46"/>
<circle cx="408.1" cy="208.8" r="1.45" fill="#f97316" fill-opacity="0.46"/>
<circle cx="411.2" cy="237.3" r="1.45" fill="#f97316" fill-opacity="0.46"/>
<circle cx="414.2" cy="258.7" r="1.45" fill="#f97316" fill-opacity="0.46"/>
<circle cx="389.8" cy="245.3" r="1.45" fill="#f97316" fill-opacity="0.46"/>
<circle cx="392.8" cy="246.5" r="1.45" fill="#f97316" fill-opacity="0.46"/>
<line x1="402.0" y1="195.0" x2="402.0" y2="268.5" stroke="#f97316" stroke-opacity="0.82" stroke-width="1.8"/>
<line x1="389.8" y1="195.0" x2="414.2" y2="195.0" stroke="#f97316" stroke-opacity="0.82" stroke-width="1.8"/>
<line x1="389.8" y1="268.5" x2="414.2" y2="268.5" stroke="#f97316" stroke-opacity="0.82" stroke-width="1.8"/>
<rect x="385.0" y="223.1" width="34.0" height="29.9" rx="2" fill="#f97316" fill-opacity="0.18" stroke="#f97316" stroke-opacity="0.82" stroke-width="1.8"/>
<line x1="385.0" y1="245.3" x2="419.0" y2="245.3" stroke="#f97316" stroke-opacity="0.82" stroke-width="2.6"/>
<text x="425.0" y="249.3" text-anchor="start" font-family="Inter,Segoe UI,Arial,sans-serif" font-size="11" font-weight="700" fill="#111827" stroke="#ffffff" stroke-width="3" paint-order="stroke">2.0k</text>
<circle cx="651.8" cy="265.8" r="1.45" fill="#eab308" fill-opacity="0.46"/>
<circle cx="654.8" cy="247.2" r="1.45" fill="#eab308" fill-opacity="0.46"/>
<circle cx="657.9" cy="238.6" r="1.45" fill="#eab308" fill-opacity="0.46"/>
<circle cx="660.9" cy="268.2" r="1.45" fill="#eab308" fill-opacity="0.46"/>
<circle cx="664.0" cy="207.8" r="1.45" fill="#eab308" fill-opacity="0.46"/>
<circle cx="667.1" cy="196.0" r="1.45" fill="#eab308" fill-opacity="0.46"/>
<circle cx="670.1" cy="210.1" r="1.45" fill="#eab308" fill-opacity="0.46"/>
<circle cx="673.2" cy="238.6" r="1.45" fill="#eab308" fill-opacity="0.46"/>
<circle cx="676.2" cy="258.7" r="1.45" fill="#eab308" fill-opacity="0.46"/>
<circle cx="651.8" cy="245.1" r="1.45" fill="#eab308" fill-opacity="0.46"/>
<circle cx="654.8" cy="246.8" r="1.45" fill="#eab308" fill-opacity="0.46"/>
<line x1="664.0" y1="196.0" x2="664.0" y2="268.2" stroke="#eab308" stroke-opacity="0.82" stroke-width="1.8"/>
<line x1="651.8" y1="196.0" x2="676.2" y2="196.0" stroke="#eab308" stroke-opacity="0.82" stroke-width="1.8"/>
<line x1="651.8" y1="268.2" x2="676.2" y2="268.2" stroke="#eab308" stroke-opacity="0.82" stroke-width="1.8"/>
<rect x="647.0" y="224.3" width="34.0" height="28.6" rx="2" fill="#eab308" fill-opacity="0.18" stroke="#eab308" stroke-opacity="0.82" stroke-width="1.8"/>
<line x1="647.0" y1="245.1" x2="681.0" y2="245.1" stroke="#eab308" stroke-opacity="0.82" stroke-width="2.6"/>
<text x="687.0" y="249.1" text-anchor="start" font-family="Inter,Segoe UI,Arial,sans-serif" font-size="11" font-weight="700" fill="#111827" stroke="#ffffff" stroke-width="3" paint-order="stroke">2.0k</text>
<rect x="64" y="433" width="10" height="10" rx="2" fill="#14532d" fill-opacity="0.86"/>
<text x="78" y="442" font-family="Inter,Segoe UI,Arial,sans-serif" font-size="10" fill="#374151">MTPLX 0.3.7</text>
<rect x="289.33333333333337" y="433" width="10" height="10" rx="2" fill="#f97316" fill-opacity="0.86"/>
<text x="303.33333333333337" y="442" font-family="Inter,Segoe UI,Arial,sans-serif" font-size="10" fill="#374151">AX Engine v5.1.12</text>
<rect x="514.6666666666667" y="433" width="10" height="10" rx="2" fill="#eab308" fill-opacity="0.86"/>
<text x="528.6666666666667" y="442" font-family="Inter,Segoe UI,Arial,sans-serif" font-size="10" fill="#374151">AX+ngram v5.1.12</text>
</svg>
