<svg xmlns="http://www.w3.org/2000/svg" width="900" height="460" viewBox="0 0 900 460" role="img" aria-labelledby="title desc">
<title>Qwen3.6 27B 4-bit MTP decode throughput</title>
<desc>Grouped box-and-whisker plot comparing MTPLX 0.3.7 (default), AX Engine v5.2.0 (MTP-only), AX Engine v5.2.0 (MTP + n-gram stacking) across all suites.</desc>
<rect width="100%" height="100%" fill="#f8fafc"/>
<text x="24" y="24" font-family="Inter,Segoe UI,Arial,sans-serif" font-size="16" font-weight="700" fill="#111827">Qwen3.6 27B 4-bit MTP decode throughput</text>
<text x="24" y="46" font-family="Inter,Segoe UI,Arial,sans-serif" font-size="11" fill="#4b5563">All suites combined | box=IQR | whiskers=min/max | dots=runs</text>
<text x="24" y="62" font-family="Inter,Segoe UI,Arial,sans-serif" font-size="10" fill="#6b7280">Vendor-default config per row · MTPLX 0.3.7 · AX Engine v5.2.0</text>
<rect x="807" y="13" width="59" height="22" rx="11" fill="#eef2ff" stroke="#c7d2fe"/>
<text x="836.5" y="28" text-anchor="middle" font-family="Inter,Segoe UI,Arial,sans-serif" font-size="10" font-weight="700" fill="#3730a3">tok/s</text>
<text x="866" y="52" text-anchor="end" font-family="Inter,Segoe UI,Arial,sans-serif" font-size="10" font-weight="700" fill="#374151">Higher is better</text>
<rect x="64" y="86" width="676" height="268" rx="6" fill="#ffffff" stroke="#dbe3ef"/>
<line x1="64" y1="354.0" x2="740" y2="354.0" stroke="#e5e7eb" stroke-width="1"/>
<text x="56" y="357.0" text-anchor="end" font-family="Inter,Segoe UI,Arial,sans-serif" font-size="11" fill="#6b7280">0.0</text>
<line x1="64" y1="287.0" x2="740" y2="287.0" stroke="#e5e7eb" stroke-width="1"/>
<text x="56" y="290.0" text-anchor="end" font-family="Inter,Segoe UI,Arial,sans-serif" font-size="11" fill="#6b7280">20</text>
<line x1="64" y1="220.0" x2="740" y2="220.0" stroke="#e5e7eb" stroke-width="1"/>
<text x="56" y="223.0" text-anchor="end" font-family="Inter,Segoe UI,Arial,sans-serif" font-size="11" fill="#6b7280">40</text>
<line x1="64" y1="153.0" x2="740" y2="153.0" stroke="#e5e7eb" stroke-width="1"/>
<text x="56" y="156.0" text-anchor="end" font-family="Inter,Segoe UI,Arial,sans-serif" font-size="11" fill="#6b7280">60</text>
<line x1="64" y1="86.0" x2="740" y2="86.0" stroke="#e5e7eb" stroke-width="1"/>
<text x="56" y="89.0" text-anchor="end" font-family="Inter,Segoe UI,Arial,sans-serif" font-size="11" fill="#6b7280">80</text>
<line x1="64" y1="150.5" x2="740" y2="150.5" stroke="#dc2626" stroke-width="1.2" stroke-dasharray="1 4" stroke-linecap="round"/>
<text x="748" y="145.5" text-anchor="start" font-family="Inter,Segoe UI,Arial,sans-serif" font-size="11" font-weight="700" fill="#dc2626" data-label="highest median">highest: 60.7</text>
<text x="402.0" y="398" text-anchor="middle" font-family="Inter,Segoe UI,Arial,sans-serif" font-size="11" font-weight="700" fill="#111827">all suites</text>
<circle cx="127.8" cy="153.2" r="1.45" fill="#14532d" fill-opacity="0.46"/>
<circle cx="130.8" cy="154.1" r="1.45" fill="#14532d" fill-opacity="0.46"/>
<circle cx="133.9" cy="154.5" r="1.45" fill="#14532d" fill-opacity="0.46"/>
<circle cx="136.9" cy="154.7" r="1.45" fill="#14532d" fill-opacity="0.46"/>
<circle cx="140.0" cy="154.8" r="1.45" fill="#14532d" fill-opacity="0.46"/>
<circle cx="143.1" cy="153.1" r="1.45" fill="#14532d" fill-opacity="0.46"/>
<circle cx="146.1" cy="154.5" r="1.45" fill="#14532d" fill-opacity="0.46"/>
<circle cx="149.2" cy="152.9" r="1.45" fill="#14532d" fill-opacity="0.46"/>
<circle cx="152.2" cy="156.0" r="1.45" fill="#14532d" fill-opacity="0.46"/>
<circle cx="127.8" cy="156.9" r="1.45" fill="#14532d" fill-opacity="0.46"/>
<circle cx="130.8" cy="155.3" r="1.45" fill="#14532d" fill-opacity="0.46"/>
<circle cx="133.9" cy="154.5" r="1.45" fill="#14532d" fill-opacity="0.46"/>
<circle cx="136.9" cy="154.3" r="1.45" fill="#14532d" fill-opacity="0.46"/>
<circle cx="140.0" cy="154.3" r="1.45" fill="#14532d" fill-opacity="0.46"/>
<circle cx="143.1" cy="154.3" r="1.45" fill="#14532d" fill-opacity="0.46"/>
<circle cx="146.1" cy="153.8" r="1.45" fill="#14532d" fill-opacity="0.46"/>
<circle cx="149.2" cy="153.3" r="1.45" fill="#14532d" fill-opacity="0.46"/>
<circle cx="152.2" cy="153.4" r="1.45" fill="#14532d" fill-opacity="0.46"/>
<circle cx="127.8" cy="153.4" r="1.45" fill="#14532d" fill-opacity="0.46"/>
<circle cx="130.8" cy="153.3" r="1.45" fill="#14532d" fill-opacity="0.46"/>
<circle cx="133.9" cy="155.1" r="1.45" fill="#14532d" fill-opacity="0.46"/>
<circle cx="136.9" cy="155.0" r="1.45" fill="#14532d" fill-opacity="0.46"/>
<circle cx="140.0" cy="154.7" r="1.45" fill="#14532d" fill-opacity="0.46"/>
<circle cx="143.1" cy="154.7" r="1.45" fill="#14532d" fill-opacity="0.46"/>
<circle cx="146.1" cy="155.0" r="1.45" fill="#14532d" fill-opacity="0.46"/>
<circle cx="149.2" cy="157.0" r="1.45" fill="#14532d" fill-opacity="0.46"/>
<circle cx="152.2" cy="157.3" r="1.45" fill="#14532d" fill-opacity="0.46"/>
<circle cx="127.8" cy="155.9" r="1.45" fill="#14532d" fill-opacity="0.46"/>
<circle cx="130.8" cy="156.3" r="1.45" fill="#14532d" fill-opacity="0.46"/>
<circle cx="133.9" cy="156.5" r="1.45" fill="#14532d" fill-opacity="0.46"/>
<circle cx="136.9" cy="155.6" r="1.45" fill="#14532d" fill-opacity="0.46"/>
<circle cx="140.0" cy="155.8" r="1.45" fill="#14532d" fill-opacity="0.46"/>
<circle cx="143.1" cy="155.5" r="1.45" fill="#14532d" fill-opacity="0.46"/>
<circle cx="146.1" cy="156.5" r="1.45" fill="#14532d" fill-opacity="0.46"/>
<circle cx="149.2" cy="155.6" r="1.45" fill="#14532d" fill-opacity="0.46"/>
<circle cx="152.2" cy="154.3" r="1.45" fill="#14532d" fill-opacity="0.46"/>
<circle cx="127.8" cy="154.4" r="1.45" fill="#14532d" fill-opacity="0.46"/>
<circle cx="130.8" cy="154.1" r="1.45" fill="#14532d" fill-opacity="0.46"/>
<circle cx="133.9" cy="154.3" r="1.45" fill="#14532d" fill-opacity="0.46"/>
<circle cx="136.9" cy="154.1" r="1.45" fill="#14532d" fill-opacity="0.46"/>
<circle cx="140.0" cy="182.4" r="1.45" fill="#14532d" fill-opacity="0.46"/>
<circle cx="143.1" cy="178.1" r="1.45" fill="#14532d" fill-opacity="0.46"/>
<circle cx="146.1" cy="179.4" r="1.45" fill="#14532d" fill-opacity="0.46"/>
<circle cx="149.2" cy="179.4" r="1.45" fill="#14532d" fill-opacity="0.46"/>
<circle cx="152.2" cy="177.9" r="1.45" fill="#14532d" fill-opacity="0.46"/>
<circle cx="127.8" cy="171.8" r="1.45" fill="#14532d" fill-opacity="0.46"/>
<circle cx="130.8" cy="175.3" r="1.45" fill="#14532d" fill-opacity="0.46"/>
<circle cx="133.9" cy="170.8" r="1.45" fill="#14532d" fill-opacity="0.46"/>
<circle cx="136.9" cy="174.3" r="1.45" fill="#14532d" fill-opacity="0.46"/>
<circle cx="140.0" cy="170.5" r="1.45" fill="#14532d" fill-opacity="0.46"/>
<circle cx="143.1" cy="166.8" r="1.45" fill="#14532d" fill-opacity="0.46"/>
<circle cx="146.1" cy="170.7" r="1.45" fill="#14532d" fill-opacity="0.46"/>
<circle cx="149.2" cy="164.5" r="1.45" fill="#14532d" fill-opacity="0.46"/>
<circle cx="152.2" cy="161.5" r="1.45" fill="#14532d" fill-opacity="0.46"/>
<circle cx="127.8" cy="167.4" r="1.45" fill="#14532d" fill-opacity="0.46"/>
<line x1="140.0" y1="152.9" x2="140.0" y2="182.4" stroke="#14532d" stroke-opacity="0.86" stroke-width="1.8"/>
<line x1="127.8" y1="152.9" x2="152.2" y2="152.9" stroke="#14532d" stroke-opacity="0.86" stroke-width="1.8"/>
<line x1="127.8" y1="182.4" x2="152.2" y2="182.4" stroke="#14532d" stroke-opacity="0.86" stroke-width="1.8"/>
<rect x="123.0" y="154.3" width="34.0" height="8.6" rx="2" fill="#14532d" fill-opacity="0.18" stroke="#14532d" stroke-opacity="0.9" stroke-width="1.8"/>
<line x1="123.0" y1="155.3" x2="157.0" y2="155.3" stroke="#14532d" stroke-opacity="0.96" stroke-width="2.6"/>
<text x="163.0" y="159.3" text-anchor="start" font-family="Inter,Segoe UI,Arial,sans-serif" font-size="11" font-weight="700" fill="#111827" stroke="#ffffff" stroke-width="3" paint-order="stroke">59.3</text>
<circle cx="389.8" cy="147.4" r="1.45" fill="#f97316" fill-opacity="0.46"/>
<circle cx="392.8" cy="166.1" r="1.45" fill="#f97316" fill-opacity="0.46"/>
<circle cx="395.9" cy="138.6" r="1.45" fill="#f97316" fill-opacity="0.46"/>
<circle cx="398.9" cy="139.4" r="1.45" fill="#f97316" fill-opacity="0.46"/>
<circle cx="402.0" cy="144.4" r="1.45" fill="#f97316" fill-opacity="0.46"/>
<circle cx="405.1" cy="151.2" r="1.45" fill="#f97316" fill-opacity="0.46"/>
<circle cx="408.1" cy="154.1" r="1.45" fill="#f97316" fill-opacity="0.46"/>
<circle cx="411.2" cy="143.6" r="1.45" fill="#f97316" fill-opacity="0.46"/>
<circle cx="414.2" cy="199.7" r="1.45" fill="#f97316" fill-opacity="0.46"/>
<circle cx="389.8" cy="195.1" r="1.45" fill="#f97316" fill-opacity="0.46"/>
<circle cx="392.8" cy="189.0" r="1.45" fill="#f97316" fill-opacity="0.46"/>
<line x1="402.0" y1="138.6" x2="402.0" y2="199.7" stroke="#f97316" stroke-opacity="0.86" stroke-width="1.8"/>
<line x1="389.8" y1="138.6" x2="414.2" y2="138.6" stroke="#f97316" stroke-opacity="0.86" stroke-width="1.8"/>
<line x1="389.8" y1="199.7" x2="414.2" y2="199.7" stroke="#f97316" stroke-opacity="0.86" stroke-width="1.8"/>
<rect x="385.0" y="144.0" width="34.0" height="33.6" rx="2" fill="#f97316" fill-opacity="0.18" stroke="#f97316" stroke-opacity="0.9" stroke-width="1.8"/>
<line x1="385.0" y1="151.2" x2="419.0" y2="151.2" stroke="#f97316" stroke-opacity="0.96" stroke-width="2.6"/>
<text x="425.0" y="155.2" text-anchor="start" font-family="Inter,Segoe UI,Arial,sans-serif" font-size="11" font-weight="700" fill="#111827" stroke="#ffffff" stroke-width="3" paint-order="stroke">60.5</text>
<circle cx="651.8" cy="146.6" r="1.45" fill="#eab308" fill-opacity="0.46"/>
<circle cx="654.8" cy="174.6" r="1.45" fill="#eab308" fill-opacity="0.46"/>
<circle cx="657.9" cy="145.7" r="1.45" fill="#eab308" fill-opacity="0.46"/>
<circle cx="660.9" cy="150.6" r="1.45" fill="#eab308" fill-opacity="0.46"/>
<circle cx="664.0" cy="119.5" r="1.45" fill="#eab308" fill-opacity="0.46"/>
<circle cx="667.1" cy="129.4" r="1.45" fill="#eab308" fill-opacity="0.46"/>
<circle cx="670.1" cy="129.5" r="1.45" fill="#eab308" fill-opacity="0.46"/>
<circle cx="673.2" cy="150.5" r="1.45" fill="#eab308" fill-opacity="0.46"/>
<circle cx="676.2" cy="198.3" r="1.45" fill="#eab308" fill-opacity="0.46"/>
<circle cx="651.8" cy="195.9" r="1.45" fill="#eab308" fill-opacity="0.46"/>
<circle cx="654.8" cy="196.5" r="1.45" fill="#eab308" fill-opacity="0.46"/>
<line x1="664.0" y1="119.5" x2="664.0" y2="198.3" stroke="#eab308" stroke-opacity="0.86" stroke-width="1.8"/>
<line x1="651.8" y1="119.5" x2="676.2" y2="119.5" stroke="#eab308" stroke-opacity="0.86" stroke-width="1.8"/>
<line x1="651.8" y1="198.3" x2="676.2" y2="198.3" stroke="#eab308" stroke-opacity="0.86" stroke-width="1.8"/>
<rect x="647.0" y="137.6" width="34.0" height="47.7" rx="2" fill="#eab308" fill-opacity="0.18" stroke="#eab308" stroke-opacity="0.9" stroke-width="1.8"/>
<line x1="647.0" y1="150.5" x2="681.0" y2="150.5" stroke="#eab308" stroke-opacity="0.96" stroke-width="2.6"/>
<text x="687.0" y="154.5" text-anchor="start" font-family="Inter,Segoe UI,Arial,sans-serif" font-size="11" font-weight="700" fill="#111827" stroke="#ffffff" stroke-width="3" paint-order="stroke">60.7</text>
<rect x="64.0" y="433" width="10" height="10" rx="2" fill="#14532d" fill-opacity="0.72"/>
<text x="78.0" y="442" font-family="Inter,Segoe UI,Arial,sans-serif" font-size="10" fill="#374151">MTPLX 0.3.7 (default)</text>
<rect x="289.3" y="433" width="10" height="10" rx="2" fill="#f97316" fill-opacity="0.72"/>
<text x="303.3" y="442" font-family="Inter,Segoe UI,Arial,sans-serif" font-size="10" fill="#374151">AX Engine v5.2.0 (MTP-only)</text>
<rect x="514.7" y="433" width="10" height="10" rx="2" fill="#eab308" fill-opacity="0.72"/>
<text x="528.7" y="442" font-family="Inter,Segoe UI,Arial,sans-serif" font-size="10" fill="#374151">AX Engine v5.2.0 (MTP + n-gram stacking)</text>
</svg>
