<svg xmlns="http://www.w3.org/2000/svg" width="900" height="460" viewBox="0 0 900 460" role="img" aria-labelledby="title desc">
<title>MTP time-to-first-token (TTFT)</title>
<desc>Grouped box-and-whisker plot comparing MTPLX 0.3.7, AX Engine v5.1.12, AX+ngram v5.1.12.</desc>
<rect width="100%" height="100%" fill="#f8fafc"/>
<text x="24" y="24" font-family="Inter,Segoe UI,Arial,sans-serif" font-size="16" font-weight="700" fill="#111827">MTP time-to-first-token (TTFT)</text>
<text x="24" y="46" font-family="Inter,Segoe UI,Arial,sans-serif" font-size="11" fill="#4b5563"><tspan>All suites combined per model | </tspan><tspan fill="#dc2626" font-weight="700">lower is better</tspan><tspan> | box=IQR | dots=runs</tspan></text>
<text x="24" y="62" font-family="Inter,Segoe UI,Arial,sans-serif" font-size="10" fill="#6b7280">MTPLX 0.3.7 · AX Engine v5.1.12</text>
<rect x="818" y="13" width="48" height="22" rx="11" fill="#eef2ff" stroke="#c7d2fe"/>
<text x="842.0" y="28" text-anchor="middle" font-family="Inter,Segoe UI,Arial,sans-serif" font-size="10" font-weight="700" fill="#3730a3">ms</text>
<text x="866" y="52" text-anchor="end" font-family="Inter,Segoe UI,Arial,sans-serif" font-size="10" font-weight="700" fill="#dc2626">Lower is better</text>
<rect x="64" y="86" width="676" height="268" rx="6" fill="#ffffff" stroke="#dbe3ef"/>
<line x1="64" y1="354.0" x2="740" y2="354.0" stroke="#e5e7eb" stroke-width="1"/>
<text x="56" y="357.0" text-anchor="end" font-family="Inter,Segoe UI,Arial,sans-serif" font-size="11" fill="#6b7280">0</text>
<line x1="64" y1="287.0" x2="740" y2="287.0" stroke="#e5e7eb" stroke-width="1"/>
<text x="56" y="290.0" text-anchor="end" font-family="Inter,Segoe UI,Arial,sans-serif" font-size="11" fill="#6b7280">500</text>
<line x1="64" y1="220.0" x2="740" y2="220.0" stroke="#e5e7eb" stroke-width="1"/>
<text x="56" y="223.0" text-anchor="end" font-family="Inter,Segoe UI,Arial,sans-serif" font-size="11" fill="#6b7280">1000</text>
<line x1="64" y1="153.0" x2="740" y2="153.0" stroke="#e5e7eb" stroke-width="1"/>
<text x="56" y="156.0" text-anchor="end" font-family="Inter,Segoe UI,Arial,sans-serif" font-size="11" fill="#6b7280">1500</text>
<line x1="64" y1="86.0" x2="740" y2="86.0" stroke="#e5e7eb" stroke-width="1"/>
<text x="56" y="89.0" text-anchor="end" font-family="Inter,Segoe UI,Arial,sans-serif" font-size="11" fill="#6b7280">2000</text>
<line x1="64" y1="329.1" x2="740" y2="329.1" stroke="#dc2626" stroke-width="1.2" stroke-dasharray="1 4" stroke-linecap="round"/>
<text x="748" y="324.1" text-anchor="start" font-family="Inter,Segoe UI,Arial,sans-serif" font-size="11" font-weight="700" fill="#dc2626" data-label="lowest median">lowest: 186</text>
<text x="233.0" y="398" text-anchor="middle" font-family="Inter,Segoe UI,Arial,sans-serif" font-size="11" font-weight="700" fill="#111827">27B</text>
<circle cx="95.8" cy="295.7" r="1.45" fill="#14532d" fill-opacity="0.46"/>
<circle cx="98.8" cy="295.8" r="1.45" fill="#14532d" fill-opacity="0.46"/>
<circle cx="101.9" cy="295.5" r="1.45" fill="#14532d" fill-opacity="0.46"/>
<circle cx="104.9" cy="295.3" r="1.45" fill="#14532d" fill-opacity="0.46"/>
<circle cx="108.0" cy="295.4" r="1.45" fill="#14532d" fill-opacity="0.46"/>
<circle cx="111.1" cy="286.0" r="1.45" fill="#14532d" fill-opacity="0.46"/>
<circle cx="114.1" cy="287.8" r="1.45" fill="#14532d" fill-opacity="0.46"/>
<circle cx="117.2" cy="286.2" r="1.45" fill="#14532d" fill-opacity="0.46"/>
<circle cx="120.2" cy="287.9" r="1.45" fill="#14532d" fill-opacity="0.46"/>
<circle cx="95.8" cy="285.8" r="1.45" fill="#14532d" fill-opacity="0.46"/>
<circle cx="98.8" cy="277.8" r="1.45" fill="#14532d" fill-opacity="0.46"/>
<circle cx="101.9" cy="277.8" r="1.45" fill="#14532d" fill-opacity="0.46"/>
<circle cx="104.9" cy="278.1" r="1.45" fill="#14532d" fill-opacity="0.46"/>
<circle cx="108.0" cy="277.8" r="1.45" fill="#14532d" fill-opacity="0.46"/>
<circle cx="111.1" cy="278.6" r="1.45" fill="#14532d" fill-opacity="0.46"/>
<circle cx="114.1" cy="295.5" r="1.45" fill="#14532d" fill-opacity="0.46"/>
<circle cx="117.2" cy="296.3" r="1.45" fill="#14532d" fill-opacity="0.46"/>
<circle cx="120.2" cy="296.9" r="1.45" fill="#14532d" fill-opacity="0.46"/>
<circle cx="95.8" cy="296.3" r="1.45" fill="#14532d" fill-opacity="0.46"/>
<circle cx="98.8" cy="295.4" r="1.45" fill="#14532d" fill-opacity="0.46"/>
<circle cx="101.9" cy="233.5" r="1.45" fill="#14532d" fill-opacity="0.46"/>
<circle cx="104.9" cy="233.9" r="1.45" fill="#14532d" fill-opacity="0.46"/>
<circle cx="108.0" cy="234.0" r="1.45" fill="#14532d" fill-opacity="0.46"/>
<circle cx="111.1" cy="234.7" r="1.45" fill="#14532d" fill-opacity="0.46"/>
<circle cx="114.1" cy="234.0" r="1.45" fill="#14532d" fill-opacity="0.46"/>
<circle cx="117.2" cy="216.3" r="1.45" fill="#14532d" fill-opacity="0.46"/>
<circle cx="120.2" cy="214.9" r="1.45" fill="#14532d" fill-opacity="0.46"/>
<circle cx="95.8" cy="214.4" r="1.45" fill="#14532d" fill-opacity="0.46"/>
<circle cx="98.8" cy="214.0" r="1.45" fill="#14532d" fill-opacity="0.46"/>
<circle cx="101.9" cy="213.8" r="1.45" fill="#14532d" fill-opacity="0.46"/>
<circle cx="104.9" cy="233.1" r="1.45" fill="#14532d" fill-opacity="0.46"/>
<circle cx="108.0" cy="234.0" r="1.45" fill="#14532d" fill-opacity="0.46"/>
<circle cx="111.1" cy="232.8" r="1.45" fill="#14532d" fill-opacity="0.46"/>
<circle cx="114.1" cy="233.0" r="1.45" fill="#14532d" fill-opacity="0.46"/>
<circle cx="117.2" cy="232.5" r="1.45" fill="#14532d" fill-opacity="0.46"/>
<circle cx="120.2" cy="269.4" r="1.45" fill="#14532d" fill-opacity="0.46"/>
<circle cx="95.8" cy="269.8" r="1.45" fill="#14532d" fill-opacity="0.46"/>
<circle cx="98.8" cy="269.4" r="1.45" fill="#14532d" fill-opacity="0.46"/>
<circle cx="101.9" cy="268.6" r="1.45" fill="#14532d" fill-opacity="0.46"/>
<circle cx="104.9" cy="268.1" r="1.45" fill="#14532d" fill-opacity="0.46"/>
<circle cx="108.0" cy="295.0" r="1.45" fill="#14532d" fill-opacity="0.46"/>
<circle cx="111.1" cy="295.2" r="1.45" fill="#14532d" fill-opacity="0.46"/>
<circle cx="114.1" cy="298.6" r="1.45" fill="#14532d" fill-opacity="0.46"/>
<circle cx="117.2" cy="294.5" r="1.45" fill="#14532d" fill-opacity="0.46"/>
<circle cx="120.2" cy="295.2" r="1.45" fill="#14532d" fill-opacity="0.46"/>
<circle cx="95.8" cy="286.0" r="1.45" fill="#14532d" fill-opacity="0.46"/>
<circle cx="98.8" cy="286.8" r="1.45" fill="#14532d" fill-opacity="0.46"/>
<circle cx="101.9" cy="285.8" r="1.45" fill="#14532d" fill-opacity="0.46"/>
<circle cx="104.9" cy="286.1" r="1.45" fill="#14532d" fill-opacity="0.46"/>
<circle cx="108.0" cy="286.5" r="1.45" fill="#14532d" fill-opacity="0.46"/>
<circle cx="111.1" cy="288.0" r="1.45" fill="#14532d" fill-opacity="0.46"/>
<circle cx="114.1" cy="286.2" r="1.45" fill="#14532d" fill-opacity="0.46"/>
<circle cx="117.2" cy="286.6" r="1.45" fill="#14532d" fill-opacity="0.46"/>
<circle cx="120.2" cy="286.5" r="1.45" fill="#14532d" fill-opacity="0.46"/>
<circle cx="95.8" cy="287.0" r="1.45" fill="#14532d" fill-opacity="0.46"/>
<line x1="108.0" y1="213.8" x2="108.0" y2="298.6" stroke="#14532d" stroke-opacity="0.82" stroke-width="1.8"/>
<line x1="95.8" y1="213.8" x2="120.2" y2="213.8" stroke="#14532d" stroke-opacity="0.82" stroke-width="1.8"/>
<line x1="95.8" y1="298.6" x2="120.2" y2="298.6" stroke="#14532d" stroke-opacity="0.82" stroke-width="1.8"/>
<rect x="91.0" y="234.4" width="34.0" height="60.4" rx="2" fill="#14532d" fill-opacity="0.18" stroke="#14532d" stroke-opacity="0.82" stroke-width="1.8"/>
<line x1="91.0" y1="286.0" x2="125.0" y2="286.0" stroke="#14532d" stroke-opacity="0.82" stroke-width="2.6"/>
<text x="131.0" y="290.0" text-anchor="start" font-family="Inter,Segoe UI,Arial,sans-serif" font-size="11" font-weight="700" fill="#111827" stroke="#ffffff" stroke-width="3" paint-order="stroke">508</text>
<circle cx="220.8" cy="296.1" r="1.45" fill="#f97316" fill-opacity="0.46"/>
<circle cx="223.8" cy="286.4" r="1.45" fill="#f97316" fill-opacity="0.46"/>
<circle cx="226.9" cy="277.4" r="1.45" fill="#f97316" fill-opacity="0.46"/>
<circle cx="229.9" cy="296.6" r="1.45" fill="#f97316" fill-opacity="0.46"/>
<circle cx="233.0" cy="232.2" r="1.45" fill="#f97316" fill-opacity="0.46"/>
<circle cx="236.1" cy="214.6" r="1.45" fill="#f97316" fill-opacity="0.46"/>
<circle cx="239.1" cy="232.6" r="1.45" fill="#f97316" fill-opacity="0.46"/>
<circle cx="242.2" cy="269.6" r="1.45" fill="#f97316" fill-opacity="0.46"/>
<circle cx="245.2" cy="295.3" r="1.45" fill="#f97316" fill-opacity="0.46"/>
<circle cx="220.8" cy="286.5" r="1.45" fill="#f97316" fill-opacity="0.46"/>
<circle cx="223.8" cy="286.4" r="1.45" fill="#f97316" fill-opacity="0.46"/>
<line x1="233.0" y1="214.6" x2="233.0" y2="296.6" stroke="#f97316" stroke-opacity="0.82" stroke-width="1.8"/>
<line x1="220.8" y1="214.6" x2="245.2" y2="214.6" stroke="#f97316" stroke-opacity="0.82" stroke-width="1.8"/>
<line x1="220.8" y1="296.6" x2="245.2" y2="296.6" stroke="#f97316" stroke-opacity="0.82" stroke-width="1.8"/>
<rect x="216.0" y="251.1" width="34.0" height="39.8" rx="2" fill="#f97316" fill-opacity="0.18" stroke="#f97316" stroke-opacity="0.82" stroke-width="1.8"/>
<line x1="216.0" y1="286.4" x2="250.0" y2="286.4" stroke="#f97316" stroke-opacity="0.82" stroke-width="2.6"/>
<text x="256.0" y="290.4" text-anchor="start" font-family="Inter,Segoe UI,Arial,sans-serif" font-size="11" font-weight="700" fill="#111827" stroke="#ffffff" stroke-width="3" paint-order="stroke">505</text>
<circle cx="345.8" cy="296.0" r="1.45" fill="#eab308" fill-opacity="0.46"/>
<circle cx="348.8" cy="285.0" r="1.45" fill="#eab308" fill-opacity="0.46"/>
<circle cx="351.9" cy="276.5" r="1.45" fill="#eab308" fill-opacity="0.46"/>
<circle cx="354.9" cy="295.1" r="1.45" fill="#eab308" fill-opacity="0.46"/>
<circle cx="358.0" cy="232.1" r="1.45" fill="#eab308" fill-opacity="0.46"/>
<circle cx="361.1" cy="214.7" r="1.45" fill="#eab308" fill-opacity="0.46"/>
<circle cx="364.1" cy="232.6" r="1.45" fill="#eab308" fill-opacity="0.46"/>
<circle cx="367.2" cy="269.5" r="1.45" fill="#eab308" fill-opacity="0.46"/>
<circle cx="370.2" cy="295.3" r="1.45" fill="#eab308" fill-opacity="0.46"/>
<circle cx="345.8" cy="286.2" r="1.45" fill="#eab308" fill-opacity="0.46"/>
<circle cx="348.8" cy="286.3" r="1.45" fill="#eab308" fill-opacity="0.46"/>
<line x1="358.0" y1="214.7" x2="358.0" y2="296.0" stroke="#eab308" stroke-opacity="0.82" stroke-width="1.8"/>
<line x1="345.8" y1="214.7" x2="370.2" y2="214.7" stroke="#eab308" stroke-opacity="0.82" stroke-width="1.8"/>
<line x1="345.8" y1="296.0" x2="370.2" y2="296.0" stroke="#eab308" stroke-opacity="0.82" stroke-width="1.8"/>
<rect x="341.0" y="251.1" width="34.0" height="39.6" rx="2" fill="#eab308" fill-opacity="0.18" stroke="#eab308" stroke-opacity="0.82" stroke-width="1.8"/>
<line x1="341.0" y1="285.0" x2="375.0" y2="285.0" stroke="#eab308" stroke-opacity="0.82" stroke-width="2.6"/>
<text x="381.0" y="289.0" text-anchor="start" font-family="Inter,Segoe UI,Arial,sans-serif" font-size="11" font-weight="700" fill="#111827" stroke="#ffffff" stroke-width="3" paint-order="stroke">515</text>
<text x="571.0" y="398" text-anchor="middle" font-family="Inter,Segoe UI,Arial,sans-serif" font-size="11" font-weight="700" fill="#111827">35B-A3B</text>
<circle cx="433.8" cy="326.8" r="1.45" fill="#14532d" fill-opacity="0.46"/>
<circle cx="436.8" cy="327.6" r="1.45" fill="#14532d" fill-opacity="0.46"/>
<circle cx="439.9" cy="327.4" r="1.45" fill="#14532d" fill-opacity="0.46"/>
<circle cx="442.9" cy="327.5" r="1.45" fill="#14532d" fill-opacity="0.46"/>
<circle cx="446.0" cy="327.1" r="1.45" fill="#14532d" fill-opacity="0.46"/>
<circle cx="449.1" cy="324.8" r="1.45" fill="#14532d" fill-opacity="0.46"/>
<circle cx="452.1" cy="325.0" r="1.45" fill="#14532d" fill-opacity="0.46"/>
<circle cx="455.2" cy="324.8" r="1.45" fill="#14532d" fill-opacity="0.46"/>
<circle cx="458.2" cy="324.8" r="1.45" fill="#14532d" fill-opacity="0.46"/>
<circle cx="433.8" cy="324.7" r="1.45" fill="#14532d" fill-opacity="0.46"/>
<circle cx="436.8" cy="322.7" r="1.45" fill="#14532d" fill-opacity="0.46"/>
<circle cx="439.9" cy="323.1" r="1.45" fill="#14532d" fill-opacity="0.46"/>
<circle cx="442.9" cy="322.8" r="1.45" fill="#14532d" fill-opacity="0.46"/>
<circle cx="446.0" cy="323.0" r="1.45" fill="#14532d" fill-opacity="0.46"/>
<circle cx="449.1" cy="322.6" r="1.45" fill="#14532d" fill-opacity="0.46"/>
<circle cx="452.1" cy="327.4" r="1.45" fill="#14532d" fill-opacity="0.46"/>
<circle cx="455.2" cy="326.9" r="1.45" fill="#14532d" fill-opacity="0.46"/>
<circle cx="458.2" cy="327.4" r="1.45" fill="#14532d" fill-opacity="0.46"/>
<circle cx="433.8" cy="329.5" r="1.45" fill="#14532d" fill-opacity="0.46"/>
<circle cx="436.8" cy="327.1" r="1.45" fill="#14532d" fill-opacity="0.46"/>
<circle cx="439.9" cy="313.5" r="1.45" fill="#14532d" fill-opacity="0.46"/>
<circle cx="442.9" cy="314.4" r="1.45" fill="#14532d" fill-opacity="0.46"/>
<circle cx="446.0" cy="313.5" r="1.45" fill="#14532d" fill-opacity="0.46"/>
<circle cx="449.1" cy="314.7" r="1.45" fill="#14532d" fill-opacity="0.46"/>
<circle cx="452.1" cy="311.5" r="1.45" fill="#14532d" fill-opacity="0.46"/>
<circle cx="455.2" cy="309.6" r="1.45" fill="#14532d" fill-opacity="0.46"/>
<circle cx="458.2" cy="308.6" r="1.45" fill="#14532d" fill-opacity="0.46"/>
<circle cx="433.8" cy="306.8" r="1.45" fill="#14532d" fill-opacity="0.46"/>
<circle cx="436.8" cy="310.0" r="1.45" fill="#14532d" fill-opacity="0.46"/>
<circle cx="439.9" cy="312.1" r="1.45" fill="#14532d" fill-opacity="0.46"/>
<circle cx="442.9" cy="315.3" r="1.45" fill="#14532d" fill-opacity="0.46"/>
<circle cx="446.0" cy="310.2" r="1.45" fill="#14532d" fill-opacity="0.46"/>
<circle cx="449.1" cy="310.2" r="1.45" fill="#14532d" fill-opacity="0.46"/>
<circle cx="452.1" cy="309.9" r="1.45" fill="#14532d" fill-opacity="0.46"/>
<circle cx="455.2" cy="315.6" r="1.45" fill="#14532d" fill-opacity="0.46"/>
<circle cx="458.2" cy="319.8" r="1.45" fill="#14532d" fill-opacity="0.46"/>
<circle cx="433.8" cy="321.1" r="1.45" fill="#14532d" fill-opacity="0.46"/>
<circle cx="436.8" cy="315.2" r="1.45" fill="#14532d" fill-opacity="0.46"/>
<circle cx="439.9" cy="315.0" r="1.45" fill="#14532d" fill-opacity="0.46"/>
<circle cx="442.9" cy="316.5" r="1.45" fill="#14532d" fill-opacity="0.46"/>
<circle cx="446.0" cy="326.9" r="1.45" fill="#14532d" fill-opacity="0.46"/>
<circle cx="449.1" cy="324.4" r="1.45" fill="#14532d" fill-opacity="0.46"/>
<circle cx="452.1" cy="323.5" r="1.45" fill="#14532d" fill-opacity="0.46"/>
<circle cx="455.2" cy="323.1" r="1.45" fill="#14532d" fill-opacity="0.46"/>
<circle cx="458.2" cy="321.4" r="1.45" fill="#14532d" fill-opacity="0.46"/>
<circle cx="433.8" cy="325.2" r="1.45" fill="#14532d" fill-opacity="0.46"/>
<circle cx="436.8" cy="321.0" r="1.45" fill="#14532d" fill-opacity="0.46"/>
<circle cx="439.9" cy="322.4" r="1.45" fill="#14532d" fill-opacity="0.46"/>
<circle cx="442.9" cy="323.3" r="1.45" fill="#14532d" fill-opacity="0.46"/>
<circle cx="446.0" cy="323.8" r="1.45" fill="#14532d" fill-opacity="0.46"/>
<circle cx="449.1" cy="321.4" r="1.45" fill="#14532d" fill-opacity="0.46"/>
<circle cx="452.1" cy="323.7" r="1.45" fill="#14532d" fill-opacity="0.46"/>
<circle cx="455.2" cy="320.5" r="1.45" fill="#14532d" fill-opacity="0.46"/>
<circle cx="458.2" cy="321.2" r="1.45" fill="#14532d" fill-opacity="0.46"/>
<circle cx="433.8" cy="321.2" r="1.45" fill="#14532d" fill-opacity="0.46"/>
<line x1="446.0" y1="306.8" x2="446.0" y2="329.5" stroke="#14532d" stroke-opacity="0.82" stroke-width="1.8"/>
<line x1="433.8" y1="306.8" x2="458.2" y2="306.8" stroke="#14532d" stroke-opacity="0.82" stroke-width="1.8"/>
<line x1="433.8" y1="329.5" x2="458.2" y2="329.5" stroke="#14532d" stroke-opacity="0.82" stroke-width="1.8"/>
<rect x="429.0" y="315.1" width="34.0" height="9.7" rx="2" fill="#14532d" fill-opacity="0.18" stroke="#14532d" stroke-opacity="0.82" stroke-width="1.8"/>
<line x1="429.0" y1="322.6" x2="463.0" y2="322.6" stroke="#14532d" stroke-opacity="0.82" stroke-width="2.6"/>
<text x="469.0" y="326.6" text-anchor="start" font-family="Inter,Segoe UI,Arial,sans-serif" font-size="11" font-weight="700" fill="#111827" stroke="#ffffff" stroke-width="3" paint-order="stroke">234</text>
<circle cx="558.8" cy="332.0" r="1.45" fill="#f97316" fill-opacity="0.46"/>
<circle cx="561.8" cy="329.1" r="1.45" fill="#f97316" fill-opacity="0.46"/>
<circle cx="564.9" cy="327.1" r="1.45" fill="#f97316" fill-opacity="0.46"/>
<circle cx="567.9" cy="332.0" r="1.45" fill="#f97316" fill-opacity="0.46"/>
<circle cx="571.0" cy="318.9" r="1.45" fill="#f97316" fill-opacity="0.46"/>
<circle cx="574.1" cy="315.5" r="1.45" fill="#f97316" fill-opacity="0.46"/>
<circle cx="577.1" cy="318.8" r="1.45" fill="#f97316" fill-opacity="0.46"/>
<circle cx="580.2" cy="326.4" r="1.45" fill="#f97316" fill-opacity="0.46"/>
<circle cx="583.2" cy="332.6" r="1.45" fill="#f97316" fill-opacity="0.46"/>
<circle cx="558.8" cy="331.1" r="1.45" fill="#f97316" fill-opacity="0.46"/>
<circle cx="561.8" cy="330.7" r="1.45" fill="#f97316" fill-opacity="0.46"/>
<line x1="571.0" y1="315.5" x2="571.0" y2="332.6" stroke="#f97316" stroke-opacity="0.82" stroke-width="1.8"/>
<line x1="558.8" y1="315.5" x2="583.2" y2="315.5" stroke="#f97316" stroke-opacity="0.82" stroke-width="1.8"/>
<line x1="558.8" y1="332.6" x2="583.2" y2="332.6" stroke="#f97316" stroke-opacity="0.82" stroke-width="1.8"/>
<rect x="554.0" y="322.7" width="34.0" height="8.9" rx="2" fill="#f97316" fill-opacity="0.18" stroke="#f97316" stroke-opacity="0.82" stroke-width="1.8"/>
<line x1="554.0" y1="329.1" x2="588.0" y2="329.1" stroke="#f97316" stroke-opacity="0.82" stroke-width="2.6"/>
<text x="594.0" y="333.1" text-anchor="start" font-family="Inter,Segoe UI,Arial,sans-serif" font-size="11" font-weight="700" fill="#111827" stroke="#ffffff" stroke-width="3" paint-order="stroke">186</text>
<circle cx="683.8" cy="331.9" r="1.45" fill="#eab308" fill-opacity="0.46"/>
<circle cx="686.8" cy="329.0" r="1.45" fill="#eab308" fill-opacity="0.46"/>
<circle cx="689.9" cy="327.2" r="1.45" fill="#eab308" fill-opacity="0.46"/>
<circle cx="692.9" cy="332.0" r="1.45" fill="#eab308" fill-opacity="0.46"/>
<circle cx="696.0" cy="319.0" r="1.45" fill="#eab308" fill-opacity="0.46"/>
<circle cx="699.1" cy="315.7" r="1.45" fill="#eab308" fill-opacity="0.46"/>
<circle cx="702.1" cy="318.8" r="1.45" fill="#eab308" fill-opacity="0.46"/>
<circle cx="705.2" cy="326.5" r="1.45" fill="#eab308" fill-opacity="0.46"/>
<circle cx="708.2" cy="332.6" r="1.45" fill="#eab308" fill-opacity="0.46"/>
<circle cx="683.8" cy="331.0" r="1.45" fill="#eab308" fill-opacity="0.46"/>
<circle cx="686.8" cy="330.7" r="1.45" fill="#eab308" fill-opacity="0.46"/>
<line x1="696.0" y1="315.7" x2="696.0" y2="332.6" stroke="#eab308" stroke-opacity="0.82" stroke-width="1.8"/>
<line x1="683.8" y1="315.7" x2="708.2" y2="315.7" stroke="#eab308" stroke-opacity="0.82" stroke-width="1.8"/>
<line x1="683.8" y1="332.6" x2="708.2" y2="332.6" stroke="#eab308" stroke-opacity="0.82" stroke-width="1.8"/>
<rect x="679.0" y="322.8" width="34.0" height="8.7" rx="2" fill="#eab308" fill-opacity="0.18" stroke="#eab308" stroke-opacity="0.82" stroke-width="1.8"/>
<line x1="679.0" y1="329.0" x2="713.0" y2="329.0" stroke="#eab308" stroke-opacity="0.82" stroke-width="2.6"/>
<text x="719.0" y="333.0" text-anchor="start" font-family="Inter,Segoe UI,Arial,sans-serif" font-size="11" font-weight="700" fill="#111827" stroke="#ffffff" stroke-width="3" paint-order="stroke">186</text>
<rect x="64" y="433" width="10" height="10" rx="2" fill="#14532d" fill-opacity="0.86"/>
<text x="78" y="442" font-family="Inter,Segoe UI,Arial,sans-serif" font-size="10" fill="#374151">MTPLX 0.3.7</text>
<rect x="289.33333333333337" y="433" width="10" height="10" rx="2" fill="#f97316" fill-opacity="0.86"/>
<text x="303.33333333333337" y="442" font-family="Inter,Segoe UI,Arial,sans-serif" font-size="10" fill="#374151">AX Engine v5.1.12</text>
<rect x="514.6666666666667" y="433" width="10" height="10" rx="2" fill="#eab308" fill-opacity="0.86"/>
<text x="528.6666666666667" y="442" font-family="Inter,Segoe UI,Arial,sans-serif" font-size="10" fill="#374151">AX+ngram v5.1.12</text>
</svg>
