<svg xmlns="http://www.w3.org/2000/svg" width="900" height="460" viewBox="0 0 900 460" role="img" aria-labelledby="title desc">
<title>Qwen3.6 27B 4-bit MTP TTFT</title>
<desc>Grouped box-and-whisker plot comparing MTPLX 0.3.7, Lightning v0.6.10, Lightning+ng v0.6.10, AX Engine v5.1.1, AX+ngram v5.1.1.</desc>
<rect width="100%" height="100%" fill="#f8fafc"/>
<text x="24" y="24" font-family="Inter,Segoe UI,Arial,sans-serif" font-size="16" font-weight="700" fill="#111827">Qwen3.6 27B 4-bit MTP TTFT</text>
<text x="24" y="46" font-family="Inter,Segoe UI,Arial,sans-serif" font-size="11" fill="#4b5563"><tspan>All suites combined | </tspan><tspan fill="#dc2626" font-weight="700">lower is better</tspan><tspan> | box=IQR | dots=runs</tspan></text>
<text x="24" y="62" font-family="Inter,Segoe UI,Arial,sans-serif" font-size="10" fill="#6b7280">MTPLX 0.3.7 · Lightning-MLX 0.6.10 · AX Engine v5.1.1</text>
<rect x="818" y="13" width="48" height="22" rx="11" fill="#eef2ff" stroke="#c7d2fe"/>
<text x="842.0" y="28" text-anchor="middle" font-family="Inter,Segoe UI,Arial,sans-serif" font-size="10" font-weight="700" fill="#3730a3">ms</text>
<text x="866" y="52" text-anchor="end" font-family="Inter,Segoe UI,Arial,sans-serif" font-size="10" font-weight="700" fill="#dc2626">Lower is better</text>
<rect x="64" y="86" width="676" height="268" rx="6" fill="#ffffff" stroke="#dbe3ef"/>
<line x1="64" y1="354.0" x2="740" y2="354.0" stroke="#e5e7eb" stroke-width="1"/>
<text x="56" y="357.0" text-anchor="end" font-family="Inter,Segoe UI,Arial,sans-serif" font-size="11" fill="#6b7280">0</text>
<line x1="64" y1="287.0" x2="740" y2="287.0" stroke="#e5e7eb" stroke-width="1"/>
<text x="56" y="290.0" text-anchor="end" font-family="Inter,Segoe UI,Arial,sans-serif" font-size="11" fill="#6b7280">500</text>
<line x1="64" y1="220.0" x2="740" y2="220.0" stroke="#e5e7eb" stroke-width="1"/>
<text x="56" y="223.0" text-anchor="end" font-family="Inter,Segoe UI,Arial,sans-serif" font-size="11" fill="#6b7280">1000</text>
<line x1="64" y1="153.0" x2="740" y2="153.0" stroke="#e5e7eb" stroke-width="1"/>
<text x="56" y="156.0" text-anchor="end" font-family="Inter,Segoe UI,Arial,sans-serif" font-size="11" fill="#6b7280">1500</text>
<line x1="64" y1="86.0" x2="740" y2="86.0" stroke="#e5e7eb" stroke-width="1"/>
<text x="56" y="89.0" text-anchor="end" font-family="Inter,Segoe UI,Arial,sans-serif" font-size="11" fill="#6b7280">2000</text>
<line x1="64" y1="285.9" x2="740" y2="285.9" stroke="#dc2626" stroke-width="1.2" stroke-dasharray="1 4" stroke-linecap="round"/>
<text x="748" y="280.9" text-anchor="start" font-family="Inter,Segoe UI,Arial,sans-serif" font-size="11" font-weight="700" fill="#dc2626" data-label="lowest median">lowest: 508</text>
<text x="402.0" y="398" text-anchor="middle" font-family="Inter,Segoe UI,Arial,sans-serif" font-size="11" font-weight="700" fill="#111827">all suites</text>
<circle cx="127.8" cy="299.1" r="1.45" fill="#14532d" fill-opacity="0.46"/>
<circle cx="130.8" cy="296.9" r="1.45" fill="#14532d" fill-opacity="0.46"/>
<circle cx="133.9" cy="297.4" r="1.45" fill="#14532d" fill-opacity="0.46"/>
<circle cx="136.9" cy="297.8" r="1.45" fill="#14532d" fill-opacity="0.46"/>
<circle cx="140.0" cy="297.4" r="1.45" fill="#14532d" fill-opacity="0.46"/>
<circle cx="143.1" cy="287.6" r="1.45" fill="#14532d" fill-opacity="0.46"/>
<circle cx="146.1" cy="285.9" r="1.45" fill="#14532d" fill-opacity="0.46"/>
<circle cx="149.2" cy="289.9" r="1.45" fill="#14532d" fill-opacity="0.46"/>
<circle cx="152.2" cy="286.2" r="1.45" fill="#14532d" fill-opacity="0.46"/>
<circle cx="127.8" cy="285.9" r="1.45" fill="#14532d" fill-opacity="0.46"/>
<circle cx="130.8" cy="279.1" r="1.45" fill="#14532d" fill-opacity="0.46"/>
<circle cx="133.9" cy="276.9" r="1.45" fill="#14532d" fill-opacity="0.46"/>
<circle cx="136.9" cy="277.4" r="1.45" fill="#14532d" fill-opacity="0.46"/>
<circle cx="140.0" cy="278.2" r="1.45" fill="#14532d" fill-opacity="0.46"/>
<circle cx="143.1" cy="278.8" r="1.45" fill="#14532d" fill-opacity="0.46"/>
<circle cx="146.1" cy="296.0" r="1.45" fill="#14532d" fill-opacity="0.46"/>
<circle cx="149.2" cy="296.0" r="1.45" fill="#14532d" fill-opacity="0.46"/>
<circle cx="152.2" cy="295.6" r="1.45" fill="#14532d" fill-opacity="0.46"/>
<circle cx="127.8" cy="294.6" r="1.45" fill="#14532d" fill-opacity="0.46"/>
<circle cx="130.8" cy="295.5" r="1.45" fill="#14532d" fill-opacity="0.46"/>
<circle cx="133.9" cy="233.9" r="1.45" fill="#14532d" fill-opacity="0.46"/>
<circle cx="136.9" cy="232.2" r="1.45" fill="#14532d" fill-opacity="0.46"/>
<circle cx="140.0" cy="232.9" r="1.45" fill="#14532d" fill-opacity="0.46"/>
<circle cx="143.1" cy="232.5" r="1.45" fill="#14532d" fill-opacity="0.46"/>
<circle cx="146.1" cy="234.1" r="1.45" fill="#14532d" fill-opacity="0.46"/>
<circle cx="149.2" cy="215.0" r="1.45" fill="#14532d" fill-opacity="0.46"/>
<circle cx="152.2" cy="215.4" r="1.45" fill="#14532d" fill-opacity="0.46"/>
<circle cx="127.8" cy="216.5" r="1.45" fill="#14532d" fill-opacity="0.46"/>
<circle cx="130.8" cy="216.0" r="1.45" fill="#14532d" fill-opacity="0.46"/>
<circle cx="133.9" cy="212.9" r="1.45" fill="#14532d" fill-opacity="0.46"/>
<circle cx="136.9" cy="232.7" r="1.45" fill="#14532d" fill-opacity="0.46"/>
<circle cx="140.0" cy="233.4" r="1.45" fill="#14532d" fill-opacity="0.46"/>
<circle cx="143.1" cy="234.3" r="1.45" fill="#14532d" fill-opacity="0.46"/>
<circle cx="146.1" cy="232.9" r="1.45" fill="#14532d" fill-opacity="0.46"/>
<circle cx="149.2" cy="233.3" r="1.45" fill="#14532d" fill-opacity="0.46"/>
<circle cx="152.2" cy="272.0" r="1.45" fill="#14532d" fill-opacity="0.46"/>
<circle cx="127.8" cy="270.8" r="1.45" fill="#14532d" fill-opacity="0.46"/>
<circle cx="130.8" cy="270.3" r="1.45" fill="#14532d" fill-opacity="0.46"/>
<circle cx="133.9" cy="269.9" r="1.45" fill="#14532d" fill-opacity="0.46"/>
<circle cx="136.9" cy="270.0" r="1.45" fill="#14532d" fill-opacity="0.46"/>
<circle cx="140.0" cy="295.2" r="1.45" fill="#14532d" fill-opacity="0.46"/>
<circle cx="143.1" cy="294.9" r="1.45" fill="#14532d" fill-opacity="0.46"/>
<circle cx="146.1" cy="294.8" r="1.45" fill="#14532d" fill-opacity="0.46"/>
<circle cx="149.2" cy="294.9" r="1.45" fill="#14532d" fill-opacity="0.46"/>
<circle cx="152.2" cy="294.7" r="1.45" fill="#14532d" fill-opacity="0.46"/>
<circle cx="127.8" cy="285.6" r="1.45" fill="#14532d" fill-opacity="0.46"/>
<circle cx="130.8" cy="286.1" r="1.45" fill="#14532d" fill-opacity="0.46"/>
<circle cx="133.9" cy="285.5" r="1.45" fill="#14532d" fill-opacity="0.46"/>
<circle cx="136.9" cy="286.5" r="1.45" fill="#14532d" fill-opacity="0.46"/>
<circle cx="140.0" cy="286.2" r="1.45" fill="#14532d" fill-opacity="0.46"/>
<circle cx="143.1" cy="285.7" r="1.45" fill="#14532d" fill-opacity="0.46"/>
<circle cx="146.1" cy="286.0" r="1.45" fill="#14532d" fill-opacity="0.46"/>
<circle cx="149.2" cy="286.3" r="1.45" fill="#14532d" fill-opacity="0.46"/>
<circle cx="152.2" cy="287.2" r="1.45" fill="#14532d" fill-opacity="0.46"/>
<circle cx="127.8" cy="285.9" r="1.45" fill="#14532d" fill-opacity="0.46"/>
<line x1="140.0" y1="212.9" x2="140.0" y2="299.1" stroke="#14532d" stroke-opacity="0.82" stroke-width="1.8"/>
<line x1="127.8" y1="212.9" x2="152.2" y2="212.9" stroke="#14532d" stroke-opacity="0.82" stroke-width="1.8"/>
<line x1="127.8" y1="299.1" x2="152.2" y2="299.1" stroke="#14532d" stroke-opacity="0.82" stroke-width="1.8"/>
<rect x="123.0" y="234.2" width="34.0" height="60.4" rx="2" fill="#14532d" fill-opacity="0.18" stroke="#14532d" stroke-opacity="0.82" stroke-width="1.8"/>
<line x1="123.0" y1="285.7" x2="157.0" y2="285.7" stroke="#14532d" stroke-opacity="0.82" stroke-width="2.6"/>
<text x="163.0" y="289.7" text-anchor="start" font-family="Inter,Segoe UI,Arial,sans-serif" font-size="11" font-weight="700" fill="#111827" stroke="#ffffff" stroke-width="3" paint-order="stroke">510</text>
<circle cx="258.8" cy="265.4" r="1.45" fill="#7c3aed" fill-opacity="0.34"/>
<circle cx="261.8" cy="267.5" r="1.45" fill="#7c3aed" fill-opacity="0.34"/>
<circle cx="264.9" cy="267.0" r="1.45" fill="#7c3aed" fill-opacity="0.34"/>
<circle cx="267.9" cy="269.8" r="1.45" fill="#7c3aed" fill-opacity="0.34"/>
<circle cx="271.0" cy="267.5" r="1.45" fill="#7c3aed" fill-opacity="0.34"/>
<circle cx="274.1" cy="258.0" r="1.45" fill="#7c3aed" fill-opacity="0.34"/>
<circle cx="277.1" cy="258.1" r="1.45" fill="#7c3aed" fill-opacity="0.34"/>
<circle cx="280.2" cy="258.2" r="1.45" fill="#7c3aed" fill-opacity="0.34"/>
<circle cx="283.2" cy="258.8" r="1.45" fill="#7c3aed" fill-opacity="0.34"/>
<circle cx="258.8" cy="260.1" r="1.45" fill="#7c3aed" fill-opacity="0.34"/>
<circle cx="261.8" cy="250.8" r="1.45" fill="#7c3aed" fill-opacity="0.34"/>
<circle cx="264.9" cy="249.8" r="1.45" fill="#7c3aed" fill-opacity="0.34"/>
<circle cx="267.9" cy="249.4" r="1.45" fill="#7c3aed" fill-opacity="0.34"/>
<circle cx="271.0" cy="249.7" r="1.45" fill="#7c3aed" fill-opacity="0.34"/>
<circle cx="274.1" cy="250.7" r="1.45" fill="#7c3aed" fill-opacity="0.34"/>
<circle cx="277.1" cy="267.6" r="1.45" fill="#7c3aed" fill-opacity="0.34"/>
<circle cx="280.2" cy="268.0" r="1.45" fill="#7c3aed" fill-opacity="0.34"/>
<circle cx="283.2" cy="267.9" r="1.45" fill="#7c3aed" fill-opacity="0.34"/>
<circle cx="258.8" cy="267.4" r="1.45" fill="#7c3aed" fill-opacity="0.34"/>
<circle cx="261.8" cy="268.2" r="1.45" fill="#7c3aed" fill-opacity="0.34"/>
<circle cx="264.9" cy="208.1" r="1.45" fill="#7c3aed" fill-opacity="0.34"/>
<circle cx="267.9" cy="207.7" r="1.45" fill="#7c3aed" fill-opacity="0.34"/>
<circle cx="271.0" cy="208.5" r="1.45" fill="#7c3aed" fill-opacity="0.34"/>
<circle cx="274.1" cy="208.0" r="1.45" fill="#7c3aed" fill-opacity="0.34"/>
<circle cx="277.1" cy="207.7" r="1.45" fill="#7c3aed" fill-opacity="0.34"/>
<circle cx="280.2" cy="191.2" r="1.45" fill="#7c3aed" fill-opacity="0.34"/>
<circle cx="283.2" cy="192.5" r="1.45" fill="#7c3aed" fill-opacity="0.34"/>
<circle cx="258.8" cy="190.2" r="1.45" fill="#7c3aed" fill-opacity="0.34"/>
<circle cx="261.8" cy="190.6" r="1.45" fill="#7c3aed" fill-opacity="0.34"/>
<circle cx="264.9" cy="190.6" r="1.45" fill="#7c3aed" fill-opacity="0.34"/>
<circle cx="267.9" cy="208.5" r="1.45" fill="#7c3aed" fill-opacity="0.34"/>
<circle cx="271.0" cy="208.2" r="1.45" fill="#7c3aed" fill-opacity="0.34"/>
<circle cx="274.1" cy="208.3" r="1.45" fill="#7c3aed" fill-opacity="0.34"/>
<circle cx="277.1" cy="207.6" r="1.45" fill="#7c3aed" fill-opacity="0.34"/>
<circle cx="280.2" cy="208.2" r="1.45" fill="#7c3aed" fill-opacity="0.34"/>
<circle cx="283.2" cy="241.3" r="1.45" fill="#7c3aed" fill-opacity="0.34"/>
<circle cx="258.8" cy="243.3" r="1.45" fill="#7c3aed" fill-opacity="0.34"/>
<circle cx="261.8" cy="242.5" r="1.45" fill="#7c3aed" fill-opacity="0.34"/>
<circle cx="264.9" cy="243.9" r="1.45" fill="#7c3aed" fill-opacity="0.34"/>
<circle cx="267.9" cy="244.6" r="1.45" fill="#7c3aed" fill-opacity="0.34"/>
<circle cx="271.0" cy="265.1" r="1.45" fill="#7c3aed" fill-opacity="0.34"/>
<circle cx="274.1" cy="267.6" r="1.45" fill="#7c3aed" fill-opacity="0.34"/>
<circle cx="277.1" cy="265.8" r="1.45" fill="#7c3aed" fill-opacity="0.34"/>
<circle cx="280.2" cy="265.6" r="1.45" fill="#7c3aed" fill-opacity="0.34"/>
<circle cx="283.2" cy="266.6" r="1.45" fill="#7c3aed" fill-opacity="0.34"/>
<circle cx="258.8" cy="257.1" r="1.45" fill="#7c3aed" fill-opacity="0.34"/>
<circle cx="261.8" cy="256.7" r="1.45" fill="#7c3aed" fill-opacity="0.34"/>
<circle cx="264.9" cy="256.8" r="1.45" fill="#7c3aed" fill-opacity="0.34"/>
<circle cx="267.9" cy="257.0" r="1.45" fill="#7c3aed" fill-opacity="0.34"/>
<circle cx="271.0" cy="256.8" r="1.45" fill="#7c3aed" fill-opacity="0.34"/>
<circle cx="274.1" cy="257.8" r="1.45" fill="#7c3aed" fill-opacity="0.34"/>
<circle cx="277.1" cy="257.9" r="1.45" fill="#7c3aed" fill-opacity="0.34"/>
<circle cx="280.2" cy="257.0" r="1.45" fill="#7c3aed" fill-opacity="0.34"/>
<circle cx="283.2" cy="257.3" r="1.45" fill="#7c3aed" fill-opacity="0.34"/>
<circle cx="258.8" cy="258.1" r="1.45" fill="#7c3aed" fill-opacity="0.34"/>
<line x1="271.0" y1="190.2" x2="271.0" y2="269.8" stroke="#7c3aed" stroke-opacity="0.55" stroke-width="1.8"/>
<line x1="258.8" y1="190.2" x2="283.2" y2="190.2" stroke="#7c3aed" stroke-opacity="0.55" stroke-width="1.8"/>
<line x1="258.8" y1="269.8" x2="283.2" y2="269.8" stroke="#7c3aed" stroke-opacity="0.55" stroke-width="1.8"/>
<rect x="254.0" y="208.5" width="34.0" height="56.8" rx="2" fill="#7c3aed" fill-opacity="0.12" stroke="#7c3aed" stroke-opacity="0.55" stroke-width="1.8"/>
<line x1="254.0" y1="256.8" x2="288.0" y2="256.8" stroke="#7c3aed" stroke-opacity="0.55" stroke-width="2.6"/>
<text x="294.0" y="260.8" text-anchor="start" font-family="Inter,Segoe UI,Arial,sans-serif" font-size="11" font-weight="700" fill="#111827" stroke="#ffffff" stroke-width="3" paint-order="stroke">725</text>
<circle cx="389.8" cy="266.3" r="1.45" fill="#1e3a8a" fill-opacity="0.34"/>
<circle cx="392.8" cy="266.6" r="1.45" fill="#1e3a8a" fill-opacity="0.34"/>
<circle cx="395.9" cy="266.9" r="1.45" fill="#1e3a8a" fill-opacity="0.34"/>
<circle cx="398.9" cy="266.2" r="1.45" fill="#1e3a8a" fill-opacity="0.34"/>
<circle cx="402.0" cy="267.3" r="1.45" fill="#1e3a8a" fill-opacity="0.34"/>
<circle cx="405.1" cy="256.3" r="1.45" fill="#1e3a8a" fill-opacity="0.34"/>
<circle cx="408.1" cy="256.8" r="1.45" fill="#1e3a8a" fill-opacity="0.34"/>
<circle cx="411.2" cy="256.5" r="1.45" fill="#1e3a8a" fill-opacity="0.34"/>
<circle cx="414.2" cy="256.5" r="1.45" fill="#1e3a8a" fill-opacity="0.34"/>
<circle cx="389.8" cy="257.1" r="1.45" fill="#1e3a8a" fill-opacity="0.34"/>
<circle cx="392.8" cy="248.9" r="1.45" fill="#1e3a8a" fill-opacity="0.34"/>
<circle cx="395.9" cy="248.6" r="1.45" fill="#1e3a8a" fill-opacity="0.34"/>
<circle cx="398.9" cy="249.4" r="1.45" fill="#1e3a8a" fill-opacity="0.34"/>
<circle cx="402.0" cy="251.7" r="1.45" fill="#1e3a8a" fill-opacity="0.34"/>
<circle cx="405.1" cy="248.3" r="1.45" fill="#1e3a8a" fill-opacity="0.34"/>
<circle cx="408.1" cy="268.9" r="1.45" fill="#1e3a8a" fill-opacity="0.34"/>
<circle cx="411.2" cy="268.3" r="1.45" fill="#1e3a8a" fill-opacity="0.34"/>
<circle cx="414.2" cy="266.9" r="1.45" fill="#1e3a8a" fill-opacity="0.34"/>
<circle cx="389.8" cy="267.2" r="1.45" fill="#1e3a8a" fill-opacity="0.34"/>
<circle cx="392.8" cy="266.3" r="1.45" fill="#1e3a8a" fill-opacity="0.34"/>
<circle cx="395.9" cy="208.2" r="1.45" fill="#1e3a8a" fill-opacity="0.34"/>
<circle cx="398.9" cy="207.6" r="1.45" fill="#1e3a8a" fill-opacity="0.34"/>
<circle cx="402.0" cy="206.8" r="1.45" fill="#1e3a8a" fill-opacity="0.34"/>
<circle cx="405.1" cy="207.3" r="1.45" fill="#1e3a8a" fill-opacity="0.34"/>
<circle cx="408.1" cy="207.6" r="1.45" fill="#1e3a8a" fill-opacity="0.34"/>
<circle cx="411.2" cy="189.6" r="1.45" fill="#1e3a8a" fill-opacity="0.34"/>
<circle cx="414.2" cy="190.0" r="1.45" fill="#1e3a8a" fill-opacity="0.34"/>
<circle cx="389.8" cy="190.0" r="1.45" fill="#1e3a8a" fill-opacity="0.34"/>
<circle cx="392.8" cy="189.8" r="1.45" fill="#1e3a8a" fill-opacity="0.34"/>
<circle cx="395.9" cy="190.0" r="1.45" fill="#1e3a8a" fill-opacity="0.34"/>
<circle cx="398.9" cy="207.6" r="1.45" fill="#1e3a8a" fill-opacity="0.34"/>
<circle cx="402.0" cy="207.2" r="1.45" fill="#1e3a8a" fill-opacity="0.34"/>
<circle cx="405.1" cy="207.9" r="1.45" fill="#1e3a8a" fill-opacity="0.34"/>
<circle cx="408.1" cy="208.5" r="1.45" fill="#1e3a8a" fill-opacity="0.34"/>
<circle cx="411.2" cy="207.5" r="1.45" fill="#1e3a8a" fill-opacity="0.34"/>
<circle cx="414.2" cy="242.0" r="1.45" fill="#1e3a8a" fill-opacity="0.34"/>
<circle cx="389.8" cy="241.9" r="1.45" fill="#1e3a8a" fill-opacity="0.34"/>
<circle cx="392.8" cy="241.9" r="1.45" fill="#1e3a8a" fill-opacity="0.34"/>
<circle cx="395.9" cy="242.7" r="1.45" fill="#1e3a8a" fill-opacity="0.34"/>
<circle cx="398.9" cy="242.1" r="1.45" fill="#1e3a8a" fill-opacity="0.34"/>
<circle cx="402.0" cy="264.9" r="1.45" fill="#1e3a8a" fill-opacity="0.34"/>
<circle cx="405.1" cy="264.7" r="1.45" fill="#1e3a8a" fill-opacity="0.34"/>
<circle cx="408.1" cy="265.0" r="1.45" fill="#1e3a8a" fill-opacity="0.34"/>
<circle cx="411.2" cy="265.0" r="1.45" fill="#1e3a8a" fill-opacity="0.34"/>
<circle cx="414.2" cy="264.3" r="1.45" fill="#1e3a8a" fill-opacity="0.34"/>
<circle cx="389.8" cy="255.9" r="1.45" fill="#1e3a8a" fill-opacity="0.34"/>
<circle cx="392.8" cy="257.5" r="1.45" fill="#1e3a8a" fill-opacity="0.34"/>
<circle cx="395.9" cy="256.6" r="1.45" fill="#1e3a8a" fill-opacity="0.34"/>
<circle cx="398.9" cy="256.9" r="1.45" fill="#1e3a8a" fill-opacity="0.34"/>
<circle cx="402.0" cy="256.0" r="1.45" fill="#1e3a8a" fill-opacity="0.34"/>
<circle cx="405.1" cy="255.5" r="1.45" fill="#1e3a8a" fill-opacity="0.34"/>
<circle cx="408.1" cy="256.3" r="1.45" fill="#1e3a8a" fill-opacity="0.34"/>
<circle cx="411.2" cy="255.3" r="1.45" fill="#1e3a8a" fill-opacity="0.34"/>
<circle cx="414.2" cy="255.7" r="1.45" fill="#1e3a8a" fill-opacity="0.34"/>
<circle cx="389.8" cy="256.0" r="1.45" fill="#1e3a8a" fill-opacity="0.34"/>
<line x1="402.0" y1="189.6" x2="402.0" y2="268.9" stroke="#1e3a8a" stroke-opacity="0.55" stroke-width="1.8"/>
<line x1="389.8" y1="189.6" x2="414.2" y2="189.6" stroke="#1e3a8a" stroke-opacity="0.55" stroke-width="1.8"/>
<line x1="389.8" y1="268.9" x2="414.2" y2="268.9" stroke="#1e3a8a" stroke-opacity="0.55" stroke-width="1.8"/>
<rect x="385.0" y="208.4" width="34.0" height="56.1" rx="2" fill="#1e3a8a" fill-opacity="0.12" stroke="#1e3a8a" stroke-opacity="0.55" stroke-width="1.8"/>
<line x1="385.0" y1="255.7" x2="419.0" y2="255.7" stroke="#1e3a8a" stroke-opacity="0.55" stroke-width="2.6"/>
<text x="425.0" y="259.7" text-anchor="start" font-family="Inter,Segoe UI,Arial,sans-serif" font-size="11" font-weight="700" fill="#111827" stroke="#ffffff" stroke-width="3" paint-order="stroke">734</text>
<circle cx="520.8" cy="295.1" r="1.45" fill="#f97316" fill-opacity="0.46"/>
<circle cx="523.8" cy="285.9" r="1.45" fill="#f97316" fill-opacity="0.46"/>
<circle cx="526.9" cy="276.6" r="1.45" fill="#f97316" fill-opacity="0.46"/>
<circle cx="529.9" cy="296.4" r="1.45" fill="#f97316" fill-opacity="0.46"/>
<circle cx="533.0" cy="232.1" r="1.45" fill="#f97316" fill-opacity="0.46"/>
<circle cx="536.1" cy="213.1" r="1.45" fill="#f97316" fill-opacity="0.46"/>
<circle cx="539.1" cy="232.3" r="1.45" fill="#f97316" fill-opacity="0.46"/>
<circle cx="542.2" cy="269.2" r="1.45" fill="#f97316" fill-opacity="0.46"/>
<circle cx="545.2" cy="295.0" r="1.45" fill="#f97316" fill-opacity="0.46"/>
<circle cx="520.8" cy="286.3" r="1.45" fill="#f97316" fill-opacity="0.46"/>
<circle cx="523.8" cy="286.3" r="1.45" fill="#f97316" fill-opacity="0.46"/>
<line x1="533.0" y1="213.1" x2="533.0" y2="296.4" stroke="#f97316" stroke-opacity="0.82" stroke-width="1.8"/>
<line x1="520.8" y1="213.1" x2="545.2" y2="213.1" stroke="#f97316" stroke-opacity="0.82" stroke-width="1.8"/>
<line x1="520.8" y1="296.4" x2="545.2" y2="296.4" stroke="#f97316" stroke-opacity="0.82" stroke-width="1.8"/>
<rect x="516.0" y="250.8" width="34.0" height="39.9" rx="2" fill="#f97316" fill-opacity="0.18" stroke="#f97316" stroke-opacity="0.82" stroke-width="1.8"/>
<line x1="516.0" y1="285.9" x2="550.0" y2="285.9" stroke="#f97316" stroke-opacity="0.82" stroke-width="2.6"/>
<text x="556.0" y="289.9" text-anchor="start" font-family="Inter,Segoe UI,Arial,sans-serif" font-size="11" font-weight="700" fill="#111827" stroke="#ffffff" stroke-width="3" paint-order="stroke">508</text>
<circle cx="651.8" cy="295.9" r="1.45" fill="#eab308" fill-opacity="0.46"/>
<circle cx="654.8" cy="286.1" r="1.45" fill="#eab308" fill-opacity="0.46"/>
<circle cx="657.9" cy="277.5" r="1.45" fill="#eab308" fill-opacity="0.46"/>
<circle cx="660.9" cy="296.4" r="1.45" fill="#eab308" fill-opacity="0.46"/>
<circle cx="664.0" cy="231.7" r="1.45" fill="#eab308" fill-opacity="0.46"/>
<circle cx="667.1" cy="214.3" r="1.45" fill="#eab308" fill-opacity="0.46"/>
<circle cx="670.1" cy="232.4" r="1.45" fill="#eab308" fill-opacity="0.46"/>
<circle cx="673.2" cy="269.3" r="1.45" fill="#eab308" fill-opacity="0.46"/>
<circle cx="676.2" cy="295.0" r="1.45" fill="#eab308" fill-opacity="0.46"/>
<circle cx="651.8" cy="285.9" r="1.45" fill="#eab308" fill-opacity="0.46"/>
<circle cx="654.8" cy="286.2" r="1.45" fill="#eab308" fill-opacity="0.46"/>
<line x1="664.0" y1="214.3" x2="664.0" y2="296.4" stroke="#eab308" stroke-opacity="0.82" stroke-width="1.8"/>
<line x1="651.8" y1="214.3" x2="676.2" y2="214.3" stroke="#eab308" stroke-opacity="0.82" stroke-width="1.8"/>
<line x1="651.8" y1="296.4" x2="676.2" y2="296.4" stroke="#eab308" stroke-opacity="0.82" stroke-width="1.8"/>
<rect x="647.0" y="250.8" width="34.0" height="39.8" rx="2" fill="#eab308" fill-opacity="0.18" stroke="#eab308" stroke-opacity="0.82" stroke-width="1.8"/>
<line x1="647.0" y1="285.9" x2="681.0" y2="285.9" stroke="#eab308" stroke-opacity="0.82" stroke-width="2.6"/>
<text x="687.0" y="289.9" text-anchor="start" font-family="Inter,Segoe UI,Arial,sans-serif" font-size="11" font-weight="700" fill="#111827" stroke="#ffffff" stroke-width="3" paint-order="stroke">508</text>
<rect x="64" y="433" width="10" height="10" rx="2" fill="#14532d" fill-opacity="0.86"/>
<text x="78" y="442" font-family="Inter,Segoe UI,Arial,sans-serif" font-size="10" fill="#374151">MTPLX 0.3.7</text>
<rect x="199.2" y="433" width="10" height="10" rx="2" fill="#7c3aed" fill-opacity="0.60"/>
<text x="213.2" y="442" font-family="Inter,Segoe UI,Arial,sans-serif" font-size="10" fill="#374151">Lightning v0.6.10</text>
<rect x="334.4" y="433" width="10" height="10" rx="2" fill="#1e3a8a" fill-opacity="0.60"/>
<text x="348.4" y="442" font-family="Inter,Segoe UI,Arial,sans-serif" font-size="10" fill="#374151">Lightning+ng v0.6.10</text>
<rect x="469.59999999999997" y="433" width="10" height="10" rx="2" fill="#f97316" fill-opacity="0.86"/>
<text x="483.59999999999997" y="442" font-family="Inter,Segoe UI,Arial,sans-serif" font-size="10" fill="#374151">AX Engine v5.1.1</text>
<rect x="604.8" y="433" width="10" height="10" rx="2" fill="#eab308" fill-opacity="0.86"/>
<text x="618.8" y="442" font-family="Inter,Segoe UI,Arial,sans-serif" font-size="10" fill="#374151">AX+ngram v5.1.1</text>
</svg>
