<svg xmlns="http://www.w3.org/2000/svg" width="900" height="460" viewBox="0 0 900 460" role="img" aria-labelledby="title desc">
<title>MTP prefill throughput</title>
<desc>Grouped box-and-whisker plot comparing MTPLX 0.3.7, Light. MTP, Light. ngram+MTP, AX MTP, AX MTP+n-gram.</desc>
<rect width="100%" height="100%" fill="#f8fafc"/>
<text x="24" y="24" font-family="Inter,Segoe UI,Arial,sans-serif" font-size="16" font-weight="700" fill="#111827">MTP prefill throughput</text>
<text x="24" y="46" font-family="Inter,Segoe UI,Arial,sans-serif" font-size="11" fill="#4b5563">All suites combined per model | box=IQR | dots=runs | Lightning ~= TTFT-derived</text>
<rect x="807" y="13" width="59" height="22" rx="11" fill="#eef2ff" stroke="#c7d2fe"/>
<text x="836.5" y="28" text-anchor="middle" font-family="Inter,Segoe UI,Arial,sans-serif" font-size="10" font-weight="700" fill="#3730a3">tok/s</text>
<text x="866" y="52" text-anchor="end" font-family="Inter,Segoe UI,Arial,sans-serif" font-size="10" font-weight="700" fill="#374151">Higher is better</text>
<rect x="64" y="86" width="676" height="268" rx="6" fill="#ffffff" stroke="#dbe3ef"/>
<line x1="64" y1="354.0" x2="740" y2="354.0" stroke="#e5e7eb" stroke-width="1"/>
<text x="56" y="357.0" text-anchor="end" font-family="Inter,Segoe UI,Arial,sans-serif" font-size="11" fill="#6b7280">0.0</text>
<line x1="64" y1="287.0" x2="740" y2="287.0" stroke="#e5e7eb" stroke-width="1"/>
<text x="56" y="290.0" text-anchor="end" font-family="Inter,Segoe UI,Arial,sans-serif" font-size="11" fill="#6b7280">1.25k</text>
<line x1="64" y1="220.0" x2="740" y2="220.0" stroke="#e5e7eb" stroke-width="1"/>
<text x="56" y="223.0" text-anchor="end" font-family="Inter,Segoe UI,Arial,sans-serif" font-size="11" fill="#6b7280">2.5k</text>
<line x1="64" y1="153.0" x2="740" y2="153.0" stroke="#e5e7eb" stroke-width="1"/>
<text x="56" y="156.0" text-anchor="end" font-family="Inter,Segoe UI,Arial,sans-serif" font-size="11" fill="#6b7280">3.75k</text>
<line x1="64" y1="86.0" x2="740" y2="86.0" stroke="#e5e7eb" stroke-width="1"/>
<text x="56" y="89.0" text-anchor="end" font-family="Inter,Segoe UI,Arial,sans-serif" font-size="11" fill="#6b7280">5k</text>
<line x1="64" y1="251.1" x2="740" y2="251.1" stroke="#dc2626" stroke-width="1.2" stroke-dasharray="1 4" stroke-linecap="round"/>
<text x="748" y="246.1" text-anchor="start" font-family="Inter,Segoe UI,Arial,sans-serif" font-size="11" font-weight="700" fill="#dc2626" data-label="highest median">highest: 1.9k</text>
<text x="233.0" y="398" text-anchor="middle" font-family="Inter,Segoe UI,Arial,sans-serif" font-size="11" font-weight="700" fill="#111827">27B</text>
<circle cx="95.8" cy="318.3" r="1.45" fill="#14532d" fill-opacity="0.46"/>
<circle cx="98.8" cy="319.6" r="1.45" fill="#14532d" fill-opacity="0.46"/>
<circle cx="101.9" cy="319.4" r="1.45" fill="#14532d" fill-opacity="0.46"/>
<circle cx="104.9" cy="319.1" r="1.45" fill="#14532d" fill-opacity="0.46"/>
<circle cx="108.0" cy="319.3" r="1.45" fill="#14532d" fill-opacity="0.46"/>
<circle cx="111.1" cy="313.5" r="1.45" fill="#14532d" fill-opacity="0.46"/>
<circle cx="114.1" cy="314.6" r="1.45" fill="#14532d" fill-opacity="0.46"/>
<circle cx="117.2" cy="312.1" r="1.45" fill="#14532d" fill-opacity="0.46"/>
<circle cx="120.2" cy="314.4" r="1.45" fill="#14532d" fill-opacity="0.46"/>
<circle cx="95.8" cy="314.6" r="1.45" fill="#14532d" fill-opacity="0.46"/>
<circle cx="98.8" cy="312.6" r="1.45" fill="#14532d" fill-opacity="0.46"/>
<circle cx="101.9" cy="313.7" r="1.45" fill="#14532d" fill-opacity="0.46"/>
<circle cx="104.9" cy="313.5" r="1.45" fill="#14532d" fill-opacity="0.46"/>
<circle cx="108.0" cy="313.1" r="1.45" fill="#14532d" fill-opacity="0.46"/>
<circle cx="111.1" cy="312.7" r="1.45" fill="#14532d" fill-opacity="0.46"/>
<circle cx="114.1" cy="321.3" r="1.45" fill="#14532d" fill-opacity="0.46"/>
<circle cx="117.2" cy="321.3" r="1.45" fill="#14532d" fill-opacity="0.46"/>
<circle cx="120.2" cy="321.5" r="1.45" fill="#14532d" fill-opacity="0.46"/>
<circle cx="95.8" cy="322.1" r="1.45" fill="#14532d" fill-opacity="0.46"/>
<circle cx="98.8" cy="321.6" r="1.45" fill="#14532d" fill-opacity="0.46"/>
<circle cx="101.9" cy="310.9" r="1.45" fill="#14532d" fill-opacity="0.46"/>
<circle cx="104.9" cy="311.5" r="1.45" fill="#14532d" fill-opacity="0.46"/>
<circle cx="108.0" cy="311.2" r="1.45" fill="#14532d" fill-opacity="0.46"/>
<circle cx="111.1" cy="311.4" r="1.45" fill="#14532d" fill-opacity="0.46"/>
<circle cx="114.1" cy="310.8" r="1.45" fill="#14532d" fill-opacity="0.46"/>
<circle cx="117.2" cy="310.0" r="1.45" fill="#14532d" fill-opacity="0.46"/>
<circle cx="120.2" cy="309.8" r="1.45" fill="#14532d" fill-opacity="0.46"/>
<circle cx="95.8" cy="309.5" r="1.45" fill="#14532d" fill-opacity="0.46"/>
<circle cx="98.8" cy="309.6" r="1.45" fill="#14532d" fill-opacity="0.46"/>
<circle cx="101.9" cy="310.6" r="1.45" fill="#14532d" fill-opacity="0.46"/>
<circle cx="104.9" cy="311.7" r="1.45" fill="#14532d" fill-opacity="0.46"/>
<circle cx="108.0" cy="311.5" r="1.45" fill="#14532d" fill-opacity="0.46"/>
<circle cx="111.1" cy="311.2" r="1.45" fill="#14532d" fill-opacity="0.46"/>
<circle cx="114.1" cy="311.6" r="1.45" fill="#14532d" fill-opacity="0.46"/>
<circle cx="117.2" cy="311.5" r="1.45" fill="#14532d" fill-opacity="0.46"/>
<circle cx="120.2" cy="314.5" r="1.45" fill="#14532d" fill-opacity="0.46"/>
<circle cx="95.8" cy="315.1" r="1.45" fill="#14532d" fill-opacity="0.46"/>
<circle cx="98.8" cy="315.3" r="1.45" fill="#14532d" fill-opacity="0.46"/>
<circle cx="101.9" cy="315.5" r="1.45" fill="#14532d" fill-opacity="0.46"/>
<circle cx="104.9" cy="315.4" r="1.45" fill="#14532d" fill-opacity="0.46"/>
<circle cx="108.0" cy="319.2" r="1.45" fill="#14532d" fill-opacity="0.46"/>
<circle cx="111.1" cy="319.4" r="1.45" fill="#14532d" fill-opacity="0.46"/>
<circle cx="114.1" cy="319.4" r="1.45" fill="#14532d" fill-opacity="0.46"/>
<circle cx="117.2" cy="319.3" r="1.45" fill="#14532d" fill-opacity="0.46"/>
<circle cx="120.2" cy="319.5" r="1.45" fill="#14532d" fill-opacity="0.46"/>
<circle cx="95.8" cy="317.2" r="1.45" fill="#14532d" fill-opacity="0.46"/>
<circle cx="98.8" cy="317.0" r="1.45" fill="#14532d" fill-opacity="0.46"/>
<circle cx="101.9" cy="317.3" r="1.45" fill="#14532d" fill-opacity="0.46"/>
<circle cx="104.9" cy="316.8" r="1.45" fill="#14532d" fill-opacity="0.46"/>
<circle cx="108.0" cy="316.9" r="1.45" fill="#14532d" fill-opacity="0.46"/>
<circle cx="111.1" cy="317.2" r="1.45" fill="#14532d" fill-opacity="0.46"/>
<circle cx="114.1" cy="317.0" r="1.45" fill="#14532d" fill-opacity="0.46"/>
<circle cx="117.2" cy="316.9" r="1.45" fill="#14532d" fill-opacity="0.46"/>
<circle cx="120.2" cy="316.4" r="1.45" fill="#14532d" fill-opacity="0.46"/>
<circle cx="95.8" cy="317.1" r="1.45" fill="#14532d" fill-opacity="0.46"/>
<line x1="108.0" y1="309.5" x2="108.0" y2="322.1" stroke="#14532d" stroke-opacity="0.82" stroke-width="1.8"/>
<line x1="95.8" y1="309.5" x2="120.2" y2="309.5" stroke="#14532d" stroke-opacity="0.82" stroke-width="1.8"/>
<line x1="95.8" y1="322.1" x2="120.2" y2="322.1" stroke="#14532d" stroke-opacity="0.82" stroke-width="1.8"/>
<rect x="91.0" y="311.7" width="34.0" height="7.0" rx="2" fill="#14532d" fill-opacity="0.18" stroke="#14532d" stroke-opacity="0.82" stroke-width="1.8"/>
<line x1="91.0" y1="315.3" x2="125.0" y2="315.3" stroke="#14532d" stroke-opacity="0.82" stroke-width="2.6"/>
<text x="131.0" y="319.3" text-anchor="start" font-family="Inter,Segoe UI,Arial,sans-serif" font-size="11" font-weight="700" fill="#111827" stroke="#ffffff" stroke-width="3" paint-order="stroke">722</text>
<circle cx="158.3" cy="331.9" r="1.45" fill="#7c3aed" fill-opacity="0.34"/>
<circle cx="161.3" cy="331.3" r="1.45" fill="#7c3aed" fill-opacity="0.34"/>
<circle cx="164.4" cy="331.4" r="1.45" fill="#7c3aed" fill-opacity="0.34"/>
<circle cx="167.4" cy="330.7" r="1.45" fill="#7c3aed" fill-opacity="0.34"/>
<circle cx="170.5" cy="331.3" r="1.45" fill="#7c3aed" fill-opacity="0.34"/>
<circle cx="173.6" cy="326.0" r="1.45" fill="#7c3aed" fill-opacity="0.34"/>
<circle cx="176.6" cy="326.0" r="1.45" fill="#7c3aed" fill-opacity="0.34"/>
<circle cx="179.7" cy="326.0" r="1.45" fill="#7c3aed" fill-opacity="0.34"/>
<circle cx="182.7" cy="325.8" r="1.45" fill="#7c3aed" fill-opacity="0.34"/>
<circle cx="158.3" cy="325.4" r="1.45" fill="#7c3aed" fill-opacity="0.34"/>
<circle cx="161.3" cy="323.9" r="1.45" fill="#7c3aed" fill-opacity="0.34"/>
<circle cx="164.4" cy="324.2" r="1.45" fill="#7c3aed" fill-opacity="0.34"/>
<circle cx="167.4" cy="324.3" r="1.45" fill="#7c3aed" fill-opacity="0.34"/>
<circle cx="170.5" cy="324.3" r="1.45" fill="#7c3aed" fill-opacity="0.34"/>
<circle cx="173.6" cy="324.0" r="1.45" fill="#7c3aed" fill-opacity="0.34"/>
<circle cx="176.6" cy="332.1" r="1.45" fill="#7c3aed" fill-opacity="0.34"/>
<circle cx="179.7" cy="331.9" r="1.45" fill="#7c3aed" fill-opacity="0.34"/>
<circle cx="182.7" cy="332.0" r="1.45" fill="#7c3aed" fill-opacity="0.34"/>
<circle cx="158.3" cy="332.1" r="1.45" fill="#7c3aed" fill-opacity="0.34"/>
<circle cx="161.3" cy="331.9" r="1.45" fill="#7c3aed" fill-opacity="0.34"/>
<circle cx="164.4" cy="318.5" r="1.45" fill="#7c3aed" fill-opacity="0.34"/>
<circle cx="167.4" cy="318.6" r="1.45" fill="#7c3aed" fill-opacity="0.34"/>
<circle cx="170.5" cy="318.4" r="1.45" fill="#7c3aed" fill-opacity="0.34"/>
<circle cx="173.6" cy="318.5" r="1.45" fill="#7c3aed" fill-opacity="0.34"/>
<circle cx="176.6" cy="318.6" r="1.45" fill="#7c3aed" fill-opacity="0.34"/>
<circle cx="179.7" cy="316.4" r="1.45" fill="#7c3aed" fill-opacity="0.34"/>
<circle cx="182.7" cy="316.1" r="1.45" fill="#7c3aed" fill-opacity="0.34"/>
<circle cx="158.3" cy="316.6" r="1.45" fill="#7c3aed" fill-opacity="0.34"/>
<circle cx="161.3" cy="316.6" r="1.45" fill="#7c3aed" fill-opacity="0.34"/>
<circle cx="164.4" cy="316.5" r="1.45" fill="#7c3aed" fill-opacity="0.34"/>
<circle cx="167.4" cy="318.8" r="1.45" fill="#7c3aed" fill-opacity="0.34"/>
<circle cx="170.5" cy="318.8" r="1.45" fill="#7c3aed" fill-opacity="0.34"/>
<circle cx="173.6" cy="318.8" r="1.45" fill="#7c3aed" fill-opacity="0.34"/>
<circle cx="176.6" cy="319.0" r="1.45" fill="#7c3aed" fill-opacity="0.34"/>
<circle cx="179.7" cy="318.8" r="1.45" fill="#7c3aed" fill-opacity="0.34"/>
<circle cx="182.7" cy="325.3" r="1.45" fill="#7c3aed" fill-opacity="0.34"/>
<circle cx="158.3" cy="324.7" r="1.45" fill="#7c3aed" fill-opacity="0.34"/>
<circle cx="161.3" cy="325.0" r="1.45" fill="#7c3aed" fill-opacity="0.34"/>
<circle cx="164.4" cy="324.6" r="1.45" fill="#7c3aed" fill-opacity="0.34"/>
<circle cx="167.4" cy="324.4" r="1.45" fill="#7c3aed" fill-opacity="0.34"/>
<circle cx="170.5" cy="331.0" r="1.45" fill="#7c3aed" fill-opacity="0.34"/>
<circle cx="173.6" cy="330.3" r="1.45" fill="#7c3aed" fill-opacity="0.34"/>
<circle cx="176.6" cy="330.8" r="1.45" fill="#7c3aed" fill-opacity="0.34"/>
<circle cx="179.7" cy="330.8" r="1.45" fill="#7c3aed" fill-opacity="0.34"/>
<circle cx="182.7" cy="330.6" r="1.45" fill="#7c3aed" fill-opacity="0.34"/>
<circle cx="158.3" cy="328.0" r="1.45" fill="#7c3aed" fill-opacity="0.34"/>
<circle cx="161.3" cy="328.2" r="1.45" fill="#7c3aed" fill-opacity="0.34"/>
<circle cx="164.4" cy="328.1" r="1.45" fill="#7c3aed" fill-opacity="0.34"/>
<circle cx="167.4" cy="328.1" r="1.45" fill="#7c3aed" fill-opacity="0.34"/>
<circle cx="170.5" cy="328.1" r="1.45" fill="#7c3aed" fill-opacity="0.34"/>
<circle cx="173.6" cy="327.9" r="1.45" fill="#7c3aed" fill-opacity="0.34"/>
<circle cx="176.6" cy="327.9" r="1.45" fill="#7c3aed" fill-opacity="0.34"/>
<circle cx="179.7" cy="328.1" r="1.45" fill="#7c3aed" fill-opacity="0.34"/>
<circle cx="182.7" cy="328.0" r="1.45" fill="#7c3aed" fill-opacity="0.34"/>
<circle cx="158.3" cy="327.8" r="1.45" fill="#7c3aed" fill-opacity="0.34"/>
<line x1="170.5" y1="316.1" x2="170.5" y2="332.1" stroke="#7c3aed" stroke-opacity="0.55" stroke-width="1.8"/>
<line x1="158.3" y1="316.1" x2="182.7" y2="316.1" stroke="#7c3aed" stroke-opacity="0.55" stroke-width="1.8"/>
<line x1="158.3" y1="332.1" x2="182.7" y2="332.1" stroke="#7c3aed" stroke-opacity="0.55" stroke-width="1.8"/>
<rect x="153.5" y="318.9" width="34.0" height="11.5" rx="2" fill="#7c3aed" fill-opacity="0.12" stroke="#7c3aed" stroke-opacity="0.55" stroke-width="1.8"/>
<line x1="153.5" y1="326.0" x2="187.5" y2="326.0" stroke="#7c3aed" stroke-opacity="0.55" stroke-width="2.6"/>
<text x="193.5" y="330.0" text-anchor="start" font-family="Inter,Segoe UI,Arial,sans-serif" font-size="11" font-weight="700" fill="#111827" stroke="#ffffff" stroke-width="3" paint-order="stroke">523</text>
<circle cx="220.8" cy="331.6" r="1.45" fill="#1e3a8a" fill-opacity="0.34"/>
<circle cx="223.8" cy="331.6" r="1.45" fill="#1e3a8a" fill-opacity="0.34"/>
<circle cx="226.9" cy="331.5" r="1.45" fill="#1e3a8a" fill-opacity="0.34"/>
<circle cx="229.9" cy="331.7" r="1.45" fill="#1e3a8a" fill-opacity="0.34"/>
<circle cx="233.0" cy="331.4" r="1.45" fill="#1e3a8a" fill-opacity="0.34"/>
<circle cx="236.1" cy="326.5" r="1.45" fill="#1e3a8a" fill-opacity="0.34"/>
<circle cx="239.1" cy="326.4" r="1.45" fill="#1e3a8a" fill-opacity="0.34"/>
<circle cx="242.2" cy="326.5" r="1.45" fill="#1e3a8a" fill-opacity="0.34"/>
<circle cx="245.2" cy="326.5" r="1.45" fill="#1e3a8a" fill-opacity="0.34"/>
<circle cx="220.8" cy="326.3" r="1.45" fill="#1e3a8a" fill-opacity="0.34"/>
<circle cx="223.8" cy="324.5" r="1.45" fill="#1e3a8a" fill-opacity="0.34"/>
<circle cx="226.9" cy="324.6" r="1.45" fill="#1e3a8a" fill-opacity="0.34"/>
<circle cx="229.9" cy="324.3" r="1.45" fill="#1e3a8a" fill-opacity="0.34"/>
<circle cx="233.0" cy="323.7" r="1.45" fill="#1e3a8a" fill-opacity="0.34"/>
<circle cx="236.1" cy="324.6" r="1.45" fill="#1e3a8a" fill-opacity="0.34"/>
<circle cx="239.1" cy="331.7" r="1.45" fill="#1e3a8a" fill-opacity="0.34"/>
<circle cx="242.2" cy="331.9" r="1.45" fill="#1e3a8a" fill-opacity="0.34"/>
<circle cx="245.2" cy="332.2" r="1.45" fill="#1e3a8a" fill-opacity="0.34"/>
<circle cx="220.8" cy="332.2" r="1.45" fill="#1e3a8a" fill-opacity="0.34"/>
<circle cx="223.8" cy="332.4" r="1.45" fill="#1e3a8a" fill-opacity="0.34"/>
<circle cx="226.9" cy="318.5" r="1.45" fill="#1e3a8a" fill-opacity="0.34"/>
<circle cx="229.9" cy="318.6" r="1.45" fill="#1e3a8a" fill-opacity="0.34"/>
<circle cx="233.0" cy="318.8" r="1.45" fill="#1e3a8a" fill-opacity="0.34"/>
<circle cx="236.1" cy="318.7" r="1.45" fill="#1e3a8a" fill-opacity="0.34"/>
<circle cx="239.1" cy="318.6" r="1.45" fill="#1e3a8a" fill-opacity="0.34"/>
<circle cx="242.2" cy="316.8" r="1.45" fill="#1e3a8a" fill-opacity="0.34"/>
<circle cx="245.2" cy="316.7" r="1.45" fill="#1e3a8a" fill-opacity="0.34"/>
<circle cx="220.8" cy="316.7" r="1.45" fill="#1e3a8a" fill-opacity="0.34"/>
<circle cx="223.8" cy="316.7" r="1.45" fill="#1e3a8a" fill-opacity="0.34"/>
<circle cx="226.9" cy="316.7" r="1.45" fill="#1e3a8a" fill-opacity="0.34"/>
<circle cx="229.9" cy="319.0" r="1.45" fill="#1e3a8a" fill-opacity="0.34"/>
<circle cx="233.0" cy="319.1" r="1.45" fill="#1e3a8a" fill-opacity="0.34"/>
<circle cx="236.1" cy="318.9" r="1.45" fill="#1e3a8a" fill-opacity="0.34"/>
<circle cx="239.1" cy="318.7" r="1.45" fill="#1e3a8a" fill-opacity="0.34"/>
<circle cx="242.2" cy="319.0" r="1.45" fill="#1e3a8a" fill-opacity="0.34"/>
<circle cx="245.2" cy="325.1" r="1.45" fill="#1e3a8a" fill-opacity="0.34"/>
<circle cx="220.8" cy="325.1" r="1.45" fill="#1e3a8a" fill-opacity="0.34"/>
<circle cx="223.8" cy="325.1" r="1.45" fill="#1e3a8a" fill-opacity="0.34"/>
<circle cx="226.9" cy="324.9" r="1.45" fill="#1e3a8a" fill-opacity="0.34"/>
<circle cx="229.9" cy="325.1" r="1.45" fill="#1e3a8a" fill-opacity="0.34"/>
<circle cx="233.0" cy="331.0" r="1.45" fill="#1e3a8a" fill-opacity="0.34"/>
<circle cx="236.1" cy="331.1" r="1.45" fill="#1e3a8a" fill-opacity="0.34"/>
<circle cx="239.1" cy="331.0" r="1.45" fill="#1e3a8a" fill-opacity="0.34"/>
<circle cx="242.2" cy="331.0" r="1.45" fill="#1e3a8a" fill-opacity="0.34"/>
<circle cx="245.2" cy="331.2" r="1.45" fill="#1e3a8a" fill-opacity="0.34"/>
<circle cx="220.8" cy="328.4" r="1.45" fill="#1e3a8a" fill-opacity="0.34"/>
<circle cx="223.8" cy="328.0" r="1.45" fill="#1e3a8a" fill-opacity="0.34"/>
<circle cx="226.9" cy="328.2" r="1.45" fill="#1e3a8a" fill-opacity="0.34"/>
<circle cx="229.9" cy="328.1" r="1.45" fill="#1e3a8a" fill-opacity="0.34"/>
<circle cx="233.0" cy="328.4" r="1.45" fill="#1e3a8a" fill-opacity="0.34"/>
<circle cx="236.1" cy="328.5" r="1.45" fill="#1e3a8a" fill-opacity="0.34"/>
<circle cx="239.1" cy="328.3" r="1.45" fill="#1e3a8a" fill-opacity="0.34"/>
<circle cx="242.2" cy="328.5" r="1.45" fill="#1e3a8a" fill-opacity="0.34"/>
<circle cx="245.2" cy="328.4" r="1.45" fill="#1e3a8a" fill-opacity="0.34"/>
<circle cx="220.8" cy="328.4" r="1.45" fill="#1e3a8a" fill-opacity="0.34"/>
<line x1="233.0" y1="316.7" x2="233.0" y2="332.4" stroke="#1e3a8a" stroke-opacity="0.55" stroke-width="1.8"/>
<line x1="220.8" y1="316.7" x2="245.2" y2="316.7" stroke="#1e3a8a" stroke-opacity="0.55" stroke-width="1.8"/>
<line x1="220.8" y1="332.4" x2="245.2" y2="332.4" stroke="#1e3a8a" stroke-opacity="0.55" stroke-width="1.8"/>
<rect x="216.0" y="319.0" width="34.0" height="12.0" rx="2" fill="#1e3a8a" fill-opacity="0.12" stroke="#1e3a8a" stroke-opacity="0.55" stroke-width="1.8"/>
<line x1="216.0" y1="326.5" x2="250.0" y2="326.5" stroke="#1e3a8a" stroke-opacity="0.55" stroke-width="2.6"/>
<text x="256.0" y="330.5" text-anchor="start" font-family="Inter,Segoe UI,Arial,sans-serif" font-size="11" font-weight="700" fill="#111827" stroke="#ffffff" stroke-width="3" paint-order="stroke">514</text>
<circle cx="283.3" cy="321.1" r="1.45" fill="#f97316" fill-opacity="0.46"/>
<circle cx="286.3" cy="315.3" r="1.45" fill="#f97316" fill-opacity="0.46"/>
<circle cx="289.4" cy="314.2" r="1.45" fill="#f97316" fill-opacity="0.46"/>
<circle cx="292.4" cy="321.9" r="1.45" fill="#f97316" fill-opacity="0.46"/>
<circle cx="295.5" cy="312.5" r="1.45" fill="#f97316" fill-opacity="0.46"/>
<circle cx="298.6" cy="310.8" r="1.45" fill="#f97316" fill-opacity="0.46"/>
<circle cx="301.6" cy="312.3" r="1.45" fill="#f97316" fill-opacity="0.46"/>
<circle cx="304.7" cy="316.3" r="1.45" fill="#f97316" fill-opacity="0.46"/>
<circle cx="307.7" cy="320.1" r="1.45" fill="#f97316" fill-opacity="0.46"/>
<circle cx="283.3" cy="317.7" r="1.45" fill="#f97316" fill-opacity="0.46"/>
<circle cx="286.3" cy="317.7" r="1.45" fill="#f97316" fill-opacity="0.46"/>
<line x1="295.5" y1="310.8" x2="295.5" y2="321.9" stroke="#f97316" stroke-opacity="0.82" stroke-width="1.8"/>
<line x1="283.3" y1="310.8" x2="307.7" y2="310.8" stroke="#f97316" stroke-opacity="0.82" stroke-width="1.8"/>
<line x1="283.3" y1="321.9" x2="307.7" y2="321.9" stroke="#f97316" stroke-opacity="0.82" stroke-width="1.8"/>
<rect x="278.5" y="313.4" width="34.0" height="5.5" rx="2" fill="#f97316" fill-opacity="0.18" stroke="#f97316" stroke-opacity="0.82" stroke-width="1.8"/>
<line x1="278.5" y1="316.3" x2="312.5" y2="316.3" stroke="#f97316" stroke-opacity="0.82" stroke-width="2.6"/>
<text x="318.5" y="320.3" text-anchor="start" font-family="Inter,Segoe UI,Arial,sans-serif" font-size="11" font-weight="700" fill="#111827" stroke="#ffffff" stroke-width="3" paint-order="stroke">703</text>
<circle cx="345.8" cy="321.1" r="1.45" fill="#eab308" fill-opacity="0.46"/>
<circle cx="348.8" cy="315.3" r="1.45" fill="#eab308" fill-opacity="0.46"/>
<circle cx="351.9" cy="314.2" r="1.45" fill="#eab308" fill-opacity="0.46"/>
<circle cx="354.9" cy="321.8" r="1.45" fill="#eab308" fill-opacity="0.46"/>
<circle cx="358.0" cy="312.1" r="1.45" fill="#eab308" fill-opacity="0.46"/>
<circle cx="361.1" cy="310.6" r="1.45" fill="#eab308" fill-opacity="0.46"/>
<circle cx="364.1" cy="312.3" r="1.45" fill="#eab308" fill-opacity="0.46"/>
<circle cx="367.2" cy="316.3" r="1.45" fill="#eab308" fill-opacity="0.46"/>
<circle cx="370.2" cy="320.0" r="1.45" fill="#eab308" fill-opacity="0.46"/>
<circle cx="345.8" cy="317.7" r="1.45" fill="#eab308" fill-opacity="0.46"/>
<circle cx="348.8" cy="317.7" r="1.45" fill="#eab308" fill-opacity="0.46"/>
<line x1="358.0" y1="310.6" x2="358.0" y2="321.8" stroke="#eab308" stroke-opacity="0.82" stroke-width="1.8"/>
<line x1="345.8" y1="310.6" x2="370.2" y2="310.6" stroke="#eab308" stroke-opacity="0.82" stroke-width="1.8"/>
<line x1="345.8" y1="321.8" x2="370.2" y2="321.8" stroke="#eab308" stroke-opacity="0.82" stroke-width="1.8"/>
<rect x="341.0" y="313.2" width="34.0" height="5.6" rx="2" fill="#eab308" fill-opacity="0.18" stroke="#eab308" stroke-opacity="0.82" stroke-width="1.8"/>
<line x1="341.0" y1="316.3" x2="375.0" y2="316.3" stroke="#eab308" stroke-opacity="0.82" stroke-width="2.6"/>
<text x="381.0" y="320.3" text-anchor="start" font-family="Inter,Segoe UI,Arial,sans-serif" font-size="11" font-weight="700" fill="#111827" stroke="#ffffff" stroke-width="3" paint-order="stroke">704</text>
<text x="571.0" y="398" text-anchor="middle" font-family="Inter,Segoe UI,Arial,sans-serif" font-size="11" font-weight="700" fill="#111827">35B-A3B</text>
<circle cx="433.8" cy="280.6" r="1.45" fill="#14532d" fill-opacity="0.46"/>
<circle cx="436.8" cy="281.0" r="1.45" fill="#14532d" fill-opacity="0.46"/>
<circle cx="439.9" cy="281.4" r="1.45" fill="#14532d" fill-opacity="0.46"/>
<circle cx="442.9" cy="280.1" r="1.45" fill="#14532d" fill-opacity="0.46"/>
<circle cx="446.0" cy="280.4" r="1.45" fill="#14532d" fill-opacity="0.46"/>
<circle cx="449.1" cy="263.0" r="1.45" fill="#14532d" fill-opacity="0.46"/>
<circle cx="452.1" cy="262.7" r="1.45" fill="#14532d" fill-opacity="0.46"/>
<circle cx="455.2" cy="263.4" r="1.45" fill="#14532d" fill-opacity="0.46"/>
<circle cx="458.2" cy="263.6" r="1.45" fill="#14532d" fill-opacity="0.46"/>
<circle cx="433.8" cy="264.0" r="1.45" fill="#14532d" fill-opacity="0.46"/>
<circle cx="436.8" cy="254.5" r="1.45" fill="#14532d" fill-opacity="0.46"/>
<circle cx="439.9" cy="254.4" r="1.45" fill="#14532d" fill-opacity="0.46"/>
<circle cx="442.9" cy="253.9" r="1.45" fill="#14532d" fill-opacity="0.46"/>
<circle cx="446.0" cy="254.4" r="1.45" fill="#14532d" fill-opacity="0.46"/>
<circle cx="449.1" cy="252.2" r="1.45" fill="#14532d" fill-opacity="0.46"/>
<circle cx="452.1" cy="281.7" r="1.45" fill="#14532d" fill-opacity="0.46"/>
<circle cx="455.2" cy="283.1" r="1.45" fill="#14532d" fill-opacity="0.46"/>
<circle cx="458.2" cy="282.1" r="1.45" fill="#14532d" fill-opacity="0.46"/>
<circle cx="433.8" cy="283.6" r="1.45" fill="#14532d" fill-opacity="0.46"/>
<circle cx="436.8" cy="282.6" r="1.45" fill="#14532d" fill-opacity="0.46"/>
<circle cx="439.9" cy="221.0" r="1.45" fill="#14532d" fill-opacity="0.46"/>
<circle cx="442.9" cy="221.7" r="1.45" fill="#14532d" fill-opacity="0.46"/>
<circle cx="446.0" cy="213.8" r="1.45" fill="#14532d" fill-opacity="0.46"/>
<circle cx="449.1" cy="221.7" r="1.45" fill="#14532d" fill-opacity="0.46"/>
<circle cx="452.1" cy="222.8" r="1.45" fill="#14532d" fill-opacity="0.46"/>
<circle cx="455.2" cy="208.3" r="1.45" fill="#14532d" fill-opacity="0.46"/>
<circle cx="458.2" cy="207.0" r="1.45" fill="#14532d" fill-opacity="0.46"/>
<circle cx="433.8" cy="208.8" r="1.45" fill="#14532d" fill-opacity="0.46"/>
<circle cx="436.8" cy="203.3" r="1.45" fill="#14532d" fill-opacity="0.46"/>
<circle cx="439.9" cy="208.7" r="1.45" fill="#14532d" fill-opacity="0.46"/>
<circle cx="442.9" cy="227.9" r="1.45" fill="#14532d" fill-opacity="0.46"/>
<circle cx="446.0" cy="226.1" r="1.45" fill="#14532d" fill-opacity="0.46"/>
<circle cx="449.1" cy="223.6" r="1.45" fill="#14532d" fill-opacity="0.46"/>
<circle cx="452.1" cy="223.9" r="1.45" fill="#14532d" fill-opacity="0.46"/>
<circle cx="455.2" cy="221.6" r="1.45" fill="#14532d" fill-opacity="0.46"/>
<circle cx="458.2" cy="256.3" r="1.45" fill="#14532d" fill-opacity="0.46"/>
<circle cx="433.8" cy="252.5" r="1.45" fill="#14532d" fill-opacity="0.46"/>
<circle cx="436.8" cy="256.3" r="1.45" fill="#14532d" fill-opacity="0.46"/>
<circle cx="439.9" cy="254.6" r="1.45" fill="#14532d" fill-opacity="0.46"/>
<circle cx="442.9" cy="256.1" r="1.45" fill="#14532d" fill-opacity="0.46"/>
<circle cx="446.0" cy="275.8" r="1.45" fill="#14532d" fill-opacity="0.46"/>
<circle cx="449.1" cy="274.0" r="1.45" fill="#14532d" fill-opacity="0.46"/>
<circle cx="452.1" cy="270.3" r="1.45" fill="#14532d" fill-opacity="0.46"/>
<circle cx="455.2" cy="275.1" r="1.45" fill="#14532d" fill-opacity="0.46"/>
<circle cx="458.2" cy="276.4" r="1.45" fill="#14532d" fill-opacity="0.46"/>
<circle cx="433.8" cy="257.7" r="1.45" fill="#14532d" fill-opacity="0.46"/>
<circle cx="436.8" cy="256.6" r="1.45" fill="#14532d" fill-opacity="0.46"/>
<circle cx="439.9" cy="259.6" r="1.45" fill="#14532d" fill-opacity="0.46"/>
<circle cx="442.9" cy="263.0" r="1.45" fill="#14532d" fill-opacity="0.46"/>
<circle cx="446.0" cy="263.5" r="1.45" fill="#14532d" fill-opacity="0.46"/>
<circle cx="449.1" cy="264.7" r="1.45" fill="#14532d" fill-opacity="0.46"/>
<circle cx="452.1" cy="264.0" r="1.45" fill="#14532d" fill-opacity="0.46"/>
<circle cx="455.2" cy="263.8" r="1.45" fill="#14532d" fill-opacity="0.46"/>
<circle cx="458.2" cy="255.9" r="1.45" fill="#14532d" fill-opacity="0.46"/>
<circle cx="433.8" cy="266.8" r="1.45" fill="#14532d" fill-opacity="0.46"/>
<line x1="446.0" y1="203.3" x2="446.0" y2="283.6" stroke="#14532d" stroke-opacity="0.82" stroke-width="1.8"/>
<line x1="433.8" y1="203.3" x2="458.2" y2="203.3" stroke="#14532d" stroke-opacity="0.82" stroke-width="1.8"/>
<line x1="433.8" y1="283.6" x2="458.2" y2="283.6" stroke="#14532d" stroke-opacity="0.82" stroke-width="1.8"/>
<rect x="429.0" y="227.0" width="34.0" height="45.2" rx="2" fill="#14532d" fill-opacity="0.18" stroke="#14532d" stroke-opacity="0.82" stroke-width="1.8"/>
<line x1="429.0" y1="257.7" x2="463.0" y2="257.7" stroke="#14532d" stroke-opacity="0.82" stroke-width="2.6"/>
<text x="469.0" y="261.7" text-anchor="start" font-family="Inter,Segoe UI,Arial,sans-serif" font-size="11" font-weight="700" fill="#111827" stroke="#ffffff" stroke-width="3" paint-order="stroke">1.8k</text>
<circle cx="496.3" cy="313.8" r="1.45" fill="#7c3aed" fill-opacity="0.34"/>
<circle cx="499.3" cy="312.1" r="1.45" fill="#7c3aed" fill-opacity="0.34"/>
<circle cx="502.4" cy="313.0" r="1.45" fill="#7c3aed" fill-opacity="0.34"/>
<circle cx="505.4" cy="311.7" r="1.45" fill="#7c3aed" fill-opacity="0.34"/>
<circle cx="508.5" cy="312.5" r="1.45" fill="#7c3aed" fill-opacity="0.34"/>
<circle cx="511.6" cy="299.6" r="1.45" fill="#7c3aed" fill-opacity="0.34"/>
<circle cx="514.6" cy="300.9" r="1.45" fill="#7c3aed" fill-opacity="0.34"/>
<circle cx="517.7" cy="301.2" r="1.45" fill="#7c3aed" fill-opacity="0.34"/>
<circle cx="520.7" cy="300.4" r="1.45" fill="#7c3aed" fill-opacity="0.34"/>
<circle cx="496.3" cy="300.5" r="1.45" fill="#7c3aed" fill-opacity="0.34"/>
<circle cx="499.3" cy="294.2" r="1.45" fill="#7c3aed" fill-opacity="0.34"/>
<circle cx="502.4" cy="294.2" r="1.45" fill="#7c3aed" fill-opacity="0.34"/>
<circle cx="505.4" cy="294.4" r="1.45" fill="#7c3aed" fill-opacity="0.34"/>
<circle cx="508.5" cy="294.3" r="1.45" fill="#7c3aed" fill-opacity="0.34"/>
<circle cx="511.6" cy="293.9" r="1.45" fill="#7c3aed" fill-opacity="0.34"/>
<circle cx="514.6" cy="314.6" r="1.45" fill="#7c3aed" fill-opacity="0.34"/>
<circle cx="517.7" cy="314.6" r="1.45" fill="#7c3aed" fill-opacity="0.34"/>
<circle cx="520.7" cy="314.6" r="1.45" fill="#7c3aed" fill-opacity="0.34"/>
<circle cx="496.3" cy="314.1" r="1.45" fill="#7c3aed" fill-opacity="0.34"/>
<circle cx="499.3" cy="314.5" r="1.45" fill="#7c3aed" fill-opacity="0.34"/>
<circle cx="502.4" cy="264.3" r="1.45" fill="#7c3aed" fill-opacity="0.34"/>
<circle cx="505.4" cy="265.3" r="1.45" fill="#7c3aed" fill-opacity="0.34"/>
<circle cx="508.5" cy="265.0" r="1.45" fill="#7c3aed" fill-opacity="0.34"/>
<circle cx="511.6" cy="264.7" r="1.45" fill="#7c3aed" fill-opacity="0.34"/>
<circle cx="514.6" cy="271.6" r="1.45" fill="#7c3aed" fill-opacity="0.34"/>
<circle cx="517.7" cy="281.6" r="1.45" fill="#7c3aed" fill-opacity="0.34"/>
<circle cx="520.7" cy="294.0" r="1.45" fill="#7c3aed" fill-opacity="0.34"/>
<circle cx="496.3" cy="257.8" r="1.45" fill="#7c3aed" fill-opacity="0.34"/>
<circle cx="499.3" cy="258.9" r="1.45" fill="#7c3aed" fill-opacity="0.34"/>
<circle cx="502.4" cy="281.8" r="1.45" fill="#7c3aed" fill-opacity="0.34"/>
<circle cx="505.4" cy="292.4" r="1.45" fill="#7c3aed" fill-opacity="0.34"/>
<circle cx="508.5" cy="290.8" r="1.45" fill="#7c3aed" fill-opacity="0.34"/>
<circle cx="511.6" cy="272.5" r="1.45" fill="#7c3aed" fill-opacity="0.34"/>
<circle cx="514.6" cy="272.4" r="1.45" fill="#7c3aed" fill-opacity="0.34"/>
<circle cx="517.7" cy="279.0" r="1.45" fill="#7c3aed" fill-opacity="0.34"/>
<circle cx="520.7" cy="311.5" r="1.45" fill="#7c3aed" fill-opacity="0.34"/>
<circle cx="496.3" cy="308.5" r="1.45" fill="#7c3aed" fill-opacity="0.34"/>
<circle cx="499.3" cy="295.2" r="1.45" fill="#7c3aed" fill-opacity="0.34"/>
<circle cx="502.4" cy="297.4" r="1.45" fill="#7c3aed" fill-opacity="0.34"/>
<circle cx="505.4" cy="300.0" r="1.45" fill="#7c3aed" fill-opacity="0.34"/>
<circle cx="508.5" cy="310.4" r="1.45" fill="#7c3aed" fill-opacity="0.34"/>
<circle cx="511.6" cy="310.3" r="1.45" fill="#7c3aed" fill-opacity="0.34"/>
<circle cx="514.6" cy="310.3" r="1.45" fill="#7c3aed" fill-opacity="0.34"/>
<circle cx="517.7" cy="310.7" r="1.45" fill="#7c3aed" fill-opacity="0.34"/>
<circle cx="520.7" cy="310.5" r="1.45" fill="#7c3aed" fill-opacity="0.34"/>
<circle cx="496.3" cy="300.5" r="1.45" fill="#7c3aed" fill-opacity="0.34"/>
<circle cx="499.3" cy="302.1" r="1.45" fill="#7c3aed" fill-opacity="0.34"/>
<circle cx="502.4" cy="302.0" r="1.45" fill="#7c3aed" fill-opacity="0.34"/>
<circle cx="505.4" cy="301.9" r="1.45" fill="#7c3aed" fill-opacity="0.34"/>
<circle cx="508.5" cy="301.6" r="1.45" fill="#7c3aed" fill-opacity="0.34"/>
<circle cx="511.6" cy="302.4" r="1.45" fill="#7c3aed" fill-opacity="0.34"/>
<circle cx="514.6" cy="302.3" r="1.45" fill="#7c3aed" fill-opacity="0.34"/>
<circle cx="517.7" cy="302.0" r="1.45" fill="#7c3aed" fill-opacity="0.34"/>
<circle cx="520.7" cy="302.3" r="1.45" fill="#7c3aed" fill-opacity="0.34"/>
<circle cx="496.3" cy="302.1" r="1.45" fill="#7c3aed" fill-opacity="0.34"/>
<line x1="508.5" y1="257.8" x2="508.5" y2="314.6" stroke="#7c3aed" stroke-opacity="0.55" stroke-width="1.8"/>
<line x1="496.3" y1="257.8" x2="520.7" y2="257.8" stroke="#7c3aed" stroke-opacity="0.55" stroke-width="1.8"/>
<line x1="496.3" y1="314.6" x2="520.7" y2="314.6" stroke="#7c3aed" stroke-opacity="0.55" stroke-width="1.8"/>
<rect x="491.5" y="293.2" width="34.0" height="17.2" rx="2" fill="#7c3aed" fill-opacity="0.12" stroke="#7c3aed" stroke-opacity="0.55" stroke-width="1.8"/>
<line x1="491.5" y1="300.9" x2="525.5" y2="300.9" stroke="#7c3aed" stroke-opacity="0.55" stroke-width="2.6"/>
<text x="531.5" y="304.9" text-anchor="start" font-family="Inter,Segoe UI,Arial,sans-serif" font-size="11" font-weight="700" fill="#111827" stroke="#ffffff" stroke-width="3" paint-order="stroke">991</text>
<circle cx="558.8" cy="313.1" r="1.45" fill="#1e3a8a" fill-opacity="0.34"/>
<circle cx="561.8" cy="312.8" r="1.45" fill="#1e3a8a" fill-opacity="0.34"/>
<circle cx="564.9" cy="312.9" r="1.45" fill="#1e3a8a" fill-opacity="0.34"/>
<circle cx="567.9" cy="313.2" r="1.45" fill="#1e3a8a" fill-opacity="0.34"/>
<circle cx="571.0" cy="313.2" r="1.45" fill="#1e3a8a" fill-opacity="0.34"/>
<circle cx="574.1" cy="301.1" r="1.45" fill="#1e3a8a" fill-opacity="0.34"/>
<circle cx="577.1" cy="300.6" r="1.45" fill="#1e3a8a" fill-opacity="0.34"/>
<circle cx="580.2" cy="300.9" r="1.45" fill="#1e3a8a" fill-opacity="0.34"/>
<circle cx="583.2" cy="300.8" r="1.45" fill="#1e3a8a" fill-opacity="0.34"/>
<circle cx="558.8" cy="300.9" r="1.45" fill="#1e3a8a" fill-opacity="0.34"/>
<circle cx="561.8" cy="294.8" r="1.45" fill="#1e3a8a" fill-opacity="0.34"/>
<circle cx="564.9" cy="295.3" r="1.45" fill="#1e3a8a" fill-opacity="0.34"/>
<circle cx="567.9" cy="294.3" r="1.45" fill="#1e3a8a" fill-opacity="0.34"/>
<circle cx="571.0" cy="294.6" r="1.45" fill="#1e3a8a" fill-opacity="0.34"/>
<circle cx="574.1" cy="294.4" r="1.45" fill="#1e3a8a" fill-opacity="0.34"/>
<circle cx="577.1" cy="314.7" r="1.45" fill="#1e3a8a" fill-opacity="0.34"/>
<circle cx="580.2" cy="314.3" r="1.45" fill="#1e3a8a" fill-opacity="0.34"/>
<circle cx="583.2" cy="314.2" r="1.45" fill="#1e3a8a" fill-opacity="0.34"/>
<circle cx="558.8" cy="314.0" r="1.45" fill="#1e3a8a" fill-opacity="0.34"/>
<circle cx="561.8" cy="314.5" r="1.45" fill="#1e3a8a" fill-opacity="0.34"/>
<circle cx="564.9" cy="278.4" r="1.45" fill="#1e3a8a" fill-opacity="0.34"/>
<circle cx="567.9" cy="273.6" r="1.45" fill="#1e3a8a" fill-opacity="0.34"/>
<circle cx="571.0" cy="277.9" r="1.45" fill="#1e3a8a" fill-opacity="0.34"/>
<circle cx="574.1" cy="267.7" r="1.45" fill="#1e3a8a" fill-opacity="0.34"/>
<circle cx="577.1" cy="288.0" r="1.45" fill="#1e3a8a" fill-opacity="0.34"/>
<circle cx="580.2" cy="268.2" r="1.45" fill="#1e3a8a" fill-opacity="0.34"/>
<circle cx="583.2" cy="282.7" r="1.45" fill="#1e3a8a" fill-opacity="0.34"/>
<circle cx="558.8" cy="279.0" r="1.45" fill="#1e3a8a" fill-opacity="0.34"/>
<circle cx="561.8" cy="253.8" r="1.45" fill="#1e3a8a" fill-opacity="0.34"/>
<circle cx="564.9" cy="258.2" r="1.45" fill="#1e3a8a" fill-opacity="0.34"/>
<circle cx="567.9" cy="270.0" r="1.45" fill="#1e3a8a" fill-opacity="0.34"/>
<circle cx="571.0" cy="270.3" r="1.45" fill="#1e3a8a" fill-opacity="0.34"/>
<circle cx="574.1" cy="268.2" r="1.45" fill="#1e3a8a" fill-opacity="0.34"/>
<circle cx="577.1" cy="268.2" r="1.45" fill="#1e3a8a" fill-opacity="0.34"/>
<circle cx="580.2" cy="269.0" r="1.45" fill="#1e3a8a" fill-opacity="0.34"/>
<circle cx="583.2" cy="294.4" r="1.45" fill="#1e3a8a" fill-opacity="0.34"/>
<circle cx="558.8" cy="294.4" r="1.45" fill="#1e3a8a" fill-opacity="0.34"/>
<circle cx="561.8" cy="295.1" r="1.45" fill="#1e3a8a" fill-opacity="0.34"/>
<circle cx="564.9" cy="294.1" r="1.45" fill="#1e3a8a" fill-opacity="0.34"/>
<circle cx="567.9" cy="295.3" r="1.45" fill="#1e3a8a" fill-opacity="0.34"/>
<circle cx="571.0" cy="310.3" r="1.45" fill="#1e3a8a" fill-opacity="0.34"/>
<circle cx="574.1" cy="309.7" r="1.45" fill="#1e3a8a" fill-opacity="0.34"/>
<circle cx="577.1" cy="309.7" r="1.45" fill="#1e3a8a" fill-opacity="0.34"/>
<circle cx="580.2" cy="310.5" r="1.45" fill="#1e3a8a" fill-opacity="0.34"/>
<circle cx="583.2" cy="310.0" r="1.45" fill="#1e3a8a" fill-opacity="0.34"/>
<circle cx="558.8" cy="301.9" r="1.45" fill="#1e3a8a" fill-opacity="0.34"/>
<circle cx="561.8" cy="302.0" r="1.45" fill="#1e3a8a" fill-opacity="0.34"/>
<circle cx="564.9" cy="301.7" r="1.45" fill="#1e3a8a" fill-opacity="0.34"/>
<circle cx="567.9" cy="302.0" r="1.45" fill="#1e3a8a" fill-opacity="0.34"/>
<circle cx="571.0" cy="302.1" r="1.45" fill="#1e3a8a" fill-opacity="0.34"/>
<circle cx="574.1" cy="302.5" r="1.45" fill="#1e3a8a" fill-opacity="0.34"/>
<circle cx="577.1" cy="302.4" r="1.45" fill="#1e3a8a" fill-opacity="0.34"/>
<circle cx="580.2" cy="301.4" r="1.45" fill="#1e3a8a" fill-opacity="0.34"/>
<circle cx="583.2" cy="300.7" r="1.45" fill="#1e3a8a" fill-opacity="0.34"/>
<circle cx="558.8" cy="300.7" r="1.45" fill="#1e3a8a" fill-opacity="0.34"/>
<line x1="571.0" y1="253.8" x2="571.0" y2="314.7" stroke="#1e3a8a" stroke-opacity="0.55" stroke-width="1.8"/>
<line x1="558.8" y1="253.8" x2="583.2" y2="253.8" stroke="#1e3a8a" stroke-opacity="0.55" stroke-width="1.8"/>
<line x1="558.8" y1="314.7" x2="583.2" y2="314.7" stroke="#1e3a8a" stroke-opacity="0.55" stroke-width="1.8"/>
<rect x="554.0" y="285.4" width="34.0" height="24.3" rx="2" fill="#1e3a8a" fill-opacity="0.12" stroke="#1e3a8a" stroke-opacity="0.55" stroke-width="1.8"/>
<line x1="554.0" y1="300.7" x2="588.0" y2="300.7" stroke="#1e3a8a" stroke-opacity="0.55" stroke-width="2.6"/>
<text x="594.0" y="304.7" text-anchor="start" font-family="Inter,Segoe UI,Arial,sans-serif" font-size="11" font-weight="700" fill="#111827" stroke="#ffffff" stroke-width="3" paint-order="stroke">994</text>
<circle cx="621.3" cy="270.7" r="1.45" fill="#f97316" fill-opacity="0.46"/>
<circle cx="624.3" cy="252.0" r="1.45" fill="#f97316" fill-opacity="0.46"/>
<circle cx="627.4" cy="244.1" r="1.45" fill="#f97316" fill-opacity="0.46"/>
<circle cx="630.4" cy="272.9" r="1.45" fill="#f97316" fill-opacity="0.46"/>
<circle cx="633.5" cy="212.5" r="1.45" fill="#f97316" fill-opacity="0.46"/>
<circle cx="636.6" cy="200.5" r="1.45" fill="#f97316" fill-opacity="0.46"/>
<circle cx="639.6" cy="214.7" r="1.45" fill="#f97316" fill-opacity="0.46"/>
<circle cx="642.7" cy="242.6" r="1.45" fill="#f97316" fill-opacity="0.46"/>
<circle cx="645.7" cy="264.3" r="1.45" fill="#f97316" fill-opacity="0.46"/>
<circle cx="621.3" cy="251.1" r="1.45" fill="#f97316" fill-opacity="0.46"/>
<circle cx="624.3" cy="252.3" r="1.45" fill="#f97316" fill-opacity="0.46"/>
<line x1="633.5" y1="200.5" x2="633.5" y2="272.9" stroke="#f97316" stroke-opacity="0.82" stroke-width="1.8"/>
<line x1="621.3" y1="200.5" x2="645.7" y2="200.5" stroke="#f97316" stroke-opacity="0.82" stroke-width="1.8"/>
<line x1="621.3" y1="272.9" x2="645.7" y2="272.9" stroke="#f97316" stroke-opacity="0.82" stroke-width="1.8"/>
<rect x="616.5" y="228.7" width="34.0" height="29.7" rx="2" fill="#f97316" fill-opacity="0.18" stroke="#f97316" stroke-opacity="0.82" stroke-width="1.8"/>
<line x1="616.5" y1="251.1" x2="650.5" y2="251.1" stroke="#f97316" stroke-opacity="0.82" stroke-width="2.6"/>
<text x="656.5" y="255.1" text-anchor="start" font-family="Inter,Segoe UI,Arial,sans-serif" font-size="11" font-weight="700" fill="#111827" stroke="#ffffff" stroke-width="3" paint-order="stroke">1.9k</text>
<circle cx="683.8" cy="270.7" r="1.45" fill="#eab308" fill-opacity="0.46"/>
<circle cx="686.8" cy="252.3" r="1.45" fill="#eab308" fill-opacity="0.46"/>
<circle cx="689.9" cy="244.2" r="1.45" fill="#eab308" fill-opacity="0.46"/>
<circle cx="692.9" cy="273.2" r="1.45" fill="#eab308" fill-opacity="0.46"/>
<circle cx="696.0" cy="212.7" r="1.45" fill="#eab308" fill-opacity="0.46"/>
<circle cx="699.1" cy="200.7" r="1.45" fill="#eab308" fill-opacity="0.46"/>
<circle cx="702.1" cy="214.5" r="1.45" fill="#eab308" fill-opacity="0.46"/>
<circle cx="705.2" cy="242.7" r="1.45" fill="#eab308" fill-opacity="0.46"/>
<circle cx="708.2" cy="264.6" r="1.45" fill="#eab308" fill-opacity="0.46"/>
<circle cx="683.8" cy="251.1" r="1.45" fill="#eab308" fill-opacity="0.46"/>
<circle cx="686.8" cy="252.7" r="1.45" fill="#eab308" fill-opacity="0.46"/>
<line x1="696.0" y1="200.7" x2="696.0" y2="273.2" stroke="#eab308" stroke-opacity="0.82" stroke-width="1.8"/>
<line x1="683.8" y1="200.7" x2="708.2" y2="200.7" stroke="#eab308" stroke-opacity="0.82" stroke-width="1.8"/>
<line x1="683.8" y1="273.2" x2="708.2" y2="273.2" stroke="#eab308" stroke-opacity="0.82" stroke-width="1.8"/>
<rect x="679.0" y="228.6" width="34.0" height="30.0" rx="2" fill="#eab308" fill-opacity="0.18" stroke="#eab308" stroke-opacity="0.82" stroke-width="1.8"/>
<line x1="679.0" y1="251.1" x2="713.0" y2="251.1" stroke="#eab308" stroke-opacity="0.82" stroke-width="2.6"/>
<text x="719.0" y="255.1" text-anchor="start" font-family="Inter,Segoe UI,Arial,sans-serif" font-size="11" font-weight="700" fill="#111827" stroke="#ffffff" stroke-width="3" paint-order="stroke">1.9k</text>
<rect x="64" y="433" width="10" height="10" rx="2" fill="#14532d" fill-opacity="0.86"/>
<text x="78" y="442" font-family="Inter,Segoe UI,Arial,sans-serif" font-size="10" fill="#374151">MTPLX 0.3.7</text>
<rect x="199.2" y="433" width="10" height="10" rx="2" fill="#7c3aed" fill-opacity="0.60"/>
<text x="213.2" y="442" font-family="Inter,Segoe UI,Arial,sans-serif" font-size="10" fill="#374151">Light. MTP</text>
<rect x="334.4" y="433" width="10" height="10" rx="2" fill="#1e3a8a" fill-opacity="0.60"/>
<text x="348.4" y="442" font-family="Inter,Segoe UI,Arial,sans-serif" font-size="10" fill="#374151">Light. ngram+MTP</text>
<rect x="469.59999999999997" y="433" width="10" height="10" rx="2" fill="#f97316" fill-opacity="0.86"/>
<text x="483.59999999999997" y="442" font-family="Inter,Segoe UI,Arial,sans-serif" font-size="10" fill="#374151">AX MTP</text>
<rect x="604.8" y="433" width="10" height="10" rx="2" fill="#eab308" fill-opacity="0.86"/>
<text x="618.8" y="442" font-family="Inter,Segoe UI,Arial,sans-serif" font-size="10" fill="#374151">AX MTP+n-gram</text>
</svg>
