<svg xmlns="http://www.w3.org/2000/svg" width="900" height="460" viewBox="0 0 900 460" role="img" aria-labelledby="title desc">
<title>Qwen3.6 MTP fair decode throughput</title>
<desc>Grouped box-and-whisker plot comparing MTPLX 0.3.7, Lightning v0.6.10, Lightning+ng v0.6.10, AX Engine v5.1.0, AX+ngram v5.1.0 across 27B, 35B-A3B.</desc>
<rect width="100%" height="100%" fill="#f8fafc"/>
<text x="24" y="24" font-family="Inter,Segoe UI,Arial,sans-serif" font-size="16" font-weight="700" fill="#111827">Qwen3.6 MTP fair decode throughput</text>
<text x="24" y="46" font-family="Inter,Segoe UI,Arial,sans-serif" font-size="11" fill="#4b5563">All suites combined per model | box=IQR | whiskers=min/max | dots=runs</text>
<text x="24" y="62" font-family="Inter,Segoe UI,Arial,sans-serif" font-size="10" fill="#6b7280">MTPLX 0.3.7 · Lightning-MLX 0.6.10 · AX Engine v5.1.0</text>
<rect x="807" y="13" width="59" height="22" rx="11" fill="#eef2ff" stroke="#c7d2fe"/>
<text x="836.5" y="28" text-anchor="middle" font-family="Inter,Segoe UI,Arial,sans-serif" font-size="10" font-weight="700" fill="#3730a3">tok/s</text>
<text x="866" y="52" text-anchor="end" font-family="Inter,Segoe UI,Arial,sans-serif" font-size="10" font-weight="700" fill="#374151">Higher is better</text>
<rect x="64" y="86" width="676" height="268" rx="6" fill="#ffffff" stroke="#dbe3ef"/>
<line x1="64" y1="354.0" x2="740" y2="354.0" stroke="#e5e7eb" stroke-width="1"/>
<text x="56" y="357.0" text-anchor="end" font-family="Inter,Segoe UI,Arial,sans-serif" font-size="11" fill="#6b7280">0.0</text>
<line x1="64" y1="287.0" x2="740" y2="287.0" stroke="#e5e7eb" stroke-width="1"/>
<text x="56" y="290.0" text-anchor="end" font-family="Inter,Segoe UI,Arial,sans-serif" font-size="11" fill="#6b7280">125</text>
<line x1="64" y1="220.0" x2="740" y2="220.0" stroke="#e5e7eb" stroke-width="1"/>
<text x="56" y="223.0" text-anchor="end" font-family="Inter,Segoe UI,Arial,sans-serif" font-size="11" fill="#6b7280">250</text>
<line x1="64" y1="153.0" x2="740" y2="153.0" stroke="#e5e7eb" stroke-width="1"/>
<text x="56" y="156.0" text-anchor="end" font-family="Inter,Segoe UI,Arial,sans-serif" font-size="11" fill="#6b7280">375</text>
<line x1="64" y1="86.0" x2="740" y2="86.0" stroke="#e5e7eb" stroke-width="1"/>
<text x="56" y="89.0" text-anchor="end" font-family="Inter,Segoe UI,Arial,sans-serif" font-size="11" fill="#6b7280">500</text>
<line x1="64" y1="201.8" x2="740" y2="201.8" stroke="#dc2626" stroke-width="1.2" stroke-dasharray="1 4" stroke-linecap="round"/>
<text x="748" y="196.8" text-anchor="start" font-family="Inter,Segoe UI,Arial,sans-serif" font-size="11" font-weight="700" fill="#dc2626" data-label="highest median">highest: 284</text>
<text x="233.0" y="398" text-anchor="middle" font-family="Inter,Segoe UI,Arial,sans-serif" font-size="11" font-weight="700" fill="#111827">27B</text>
<circle cx="95.8" cy="322.7" r="1.45" fill="#14532d" fill-opacity="0.46"/>
<circle cx="98.8" cy="322.4" r="1.45" fill="#14532d" fill-opacity="0.46"/>
<circle cx="101.9" cy="322.6" r="1.45" fill="#14532d" fill-opacity="0.46"/>
<circle cx="104.9" cy="322.6" r="1.45" fill="#14532d" fill-opacity="0.46"/>
<circle cx="108.0" cy="322.5" r="1.45" fill="#14532d" fill-opacity="0.46"/>
<circle cx="111.1" cy="322.6" r="1.45" fill="#14532d" fill-opacity="0.46"/>
<circle cx="114.1" cy="322.6" r="1.45" fill="#14532d" fill-opacity="0.46"/>
<circle cx="117.2" cy="322.4" r="1.45" fill="#14532d" fill-opacity="0.46"/>
<circle cx="120.2" cy="322.4" r="1.45" fill="#14532d" fill-opacity="0.46"/>
<circle cx="95.8" cy="322.5" r="1.45" fill="#14532d" fill-opacity="0.46"/>
<circle cx="98.8" cy="322.4" r="1.45" fill="#14532d" fill-opacity="0.46"/>
<circle cx="101.9" cy="322.5" r="1.45" fill="#14532d" fill-opacity="0.46"/>
<circle cx="104.9" cy="322.6" r="1.45" fill="#14532d" fill-opacity="0.46"/>
<circle cx="108.0" cy="322.4" r="1.45" fill="#14532d" fill-opacity="0.46"/>
<circle cx="111.1" cy="322.3" r="1.45" fill="#14532d" fill-opacity="0.46"/>
<circle cx="114.1" cy="322.3" r="1.45" fill="#14532d" fill-opacity="0.46"/>
<circle cx="117.2" cy="322.3" r="1.45" fill="#14532d" fill-opacity="0.46"/>
<circle cx="120.2" cy="322.4" r="1.45" fill="#14532d" fill-opacity="0.46"/>
<circle cx="95.8" cy="322.3" r="1.45" fill="#14532d" fill-opacity="0.46"/>
<circle cx="98.8" cy="322.4" r="1.45" fill="#14532d" fill-opacity="0.46"/>
<circle cx="101.9" cy="322.7" r="1.45" fill="#14532d" fill-opacity="0.46"/>
<circle cx="104.9" cy="322.7" r="1.45" fill="#14532d" fill-opacity="0.46"/>
<circle cx="108.0" cy="322.5" r="1.45" fill="#14532d" fill-opacity="0.46"/>
<circle cx="111.1" cy="322.5" r="1.45" fill="#14532d" fill-opacity="0.46"/>
<circle cx="114.1" cy="322.7" r="1.45" fill="#14532d" fill-opacity="0.46"/>
<circle cx="117.2" cy="322.9" r="1.45" fill="#14532d" fill-opacity="0.46"/>
<circle cx="120.2" cy="323.0" r="1.45" fill="#14532d" fill-opacity="0.46"/>
<circle cx="95.8" cy="322.8" r="1.45" fill="#14532d" fill-opacity="0.46"/>
<circle cx="98.8" cy="322.8" r="1.45" fill="#14532d" fill-opacity="0.46"/>
<circle cx="101.9" cy="322.9" r="1.45" fill="#14532d" fill-opacity="0.46"/>
<circle cx="104.9" cy="322.8" r="1.45" fill="#14532d" fill-opacity="0.46"/>
<circle cx="108.0" cy="322.7" r="1.45" fill="#14532d" fill-opacity="0.46"/>
<circle cx="111.1" cy="322.3" r="1.45" fill="#14532d" fill-opacity="0.46"/>
<circle cx="114.1" cy="322.7" r="1.45" fill="#14532d" fill-opacity="0.46"/>
<circle cx="117.2" cy="322.8" r="1.45" fill="#14532d" fill-opacity="0.46"/>
<circle cx="120.2" cy="322.3" r="1.45" fill="#14532d" fill-opacity="0.46"/>
<circle cx="95.8" cy="322.5" r="1.45" fill="#14532d" fill-opacity="0.46"/>
<circle cx="98.8" cy="322.5" r="1.45" fill="#14532d" fill-opacity="0.46"/>
<circle cx="101.9" cy="322.5" r="1.45" fill="#14532d" fill-opacity="0.46"/>
<circle cx="104.9" cy="322.5" r="1.45" fill="#14532d" fill-opacity="0.46"/>
<circle cx="108.0" cy="326.9" r="1.45" fill="#14532d" fill-opacity="0.46"/>
<circle cx="111.1" cy="326.3" r="1.45" fill="#14532d" fill-opacity="0.46"/>
<circle cx="114.1" cy="326.0" r="1.45" fill="#14532d" fill-opacity="0.46"/>
<circle cx="117.2" cy="325.9" r="1.45" fill="#14532d" fill-opacity="0.46"/>
<circle cx="120.2" cy="325.7" r="1.45" fill="#14532d" fill-opacity="0.46"/>
<circle cx="95.8" cy="324.7" r="1.45" fill="#14532d" fill-opacity="0.46"/>
<circle cx="98.8" cy="325.4" r="1.45" fill="#14532d" fill-opacity="0.46"/>
<circle cx="101.9" cy="324.6" r="1.45" fill="#14532d" fill-opacity="0.46"/>
<circle cx="104.9" cy="325.1" r="1.45" fill="#14532d" fill-opacity="0.46"/>
<circle cx="108.0" cy="324.4" r="1.45" fill="#14532d" fill-opacity="0.46"/>
<circle cx="111.1" cy="324.1" r="1.45" fill="#14532d" fill-opacity="0.46"/>
<circle cx="114.1" cy="324.3" r="1.45" fill="#14532d" fill-opacity="0.46"/>
<circle cx="117.2" cy="323.5" r="1.45" fill="#14532d" fill-opacity="0.46"/>
<circle cx="120.2" cy="323.0" r="1.45" fill="#14532d" fill-opacity="0.46"/>
<circle cx="95.8" cy="324.2" r="1.45" fill="#14532d" fill-opacity="0.46"/>
<line x1="108.0" y1="322.3" x2="108.0" y2="326.9" stroke="#14532d" stroke-opacity="0.86" stroke-width="1.8"/>
<line x1="95.8" y1="322.3" x2="120.2" y2="322.3" stroke="#14532d" stroke-opacity="0.86" stroke-width="1.8"/>
<line x1="95.8" y1="326.9" x2="120.2" y2="326.9" stroke="#14532d" stroke-opacity="0.86" stroke-width="1.8"/>
<rect x="91.0" y="322.5" width="34.0" height="1.0" rx="2" fill="#14532d" fill-opacity="0.18" stroke="#14532d" stroke-opacity="0.9" stroke-width="1.8"/>
<line x1="91.0" y1="322.7" x2="125.0" y2="322.7" stroke="#14532d" stroke-opacity="0.96" stroke-width="2.6"/>
<text x="131.0" y="326.7" text-anchor="start" font-family="Inter,Segoe UI,Arial,sans-serif" font-size="11" font-weight="700" fill="#111827" stroke="#ffffff" stroke-width="3" paint-order="stroke">58.5</text>
<circle cx="158.3" cy="316.8" r="1.45" fill="#7c3aed" fill-opacity="0.46"/>
<circle cx="161.3" cy="317.4" r="1.45" fill="#7c3aed" fill-opacity="0.46"/>
<circle cx="164.4" cy="316.1" r="1.45" fill="#7c3aed" fill-opacity="0.46"/>
<circle cx="167.4" cy="316.4" r="1.45" fill="#7c3aed" fill-opacity="0.46"/>
<circle cx="170.5" cy="316.2" r="1.45" fill="#7c3aed" fill-opacity="0.46"/>
<circle cx="173.6" cy="316.1" r="1.45" fill="#7c3aed" fill-opacity="0.46"/>
<circle cx="176.6" cy="315.1" r="1.45" fill="#7c3aed" fill-opacity="0.46"/>
<circle cx="179.7" cy="316.2" r="1.45" fill="#7c3aed" fill-opacity="0.46"/>
<circle cx="182.7" cy="317.1" r="1.45" fill="#7c3aed" fill-opacity="0.46"/>
<circle cx="158.3" cy="316.1" r="1.45" fill="#7c3aed" fill-opacity="0.46"/>
<circle cx="161.3" cy="316.0" r="1.45" fill="#7c3aed" fill-opacity="0.46"/>
<circle cx="164.4" cy="317.6" r="1.45" fill="#7c3aed" fill-opacity="0.46"/>
<circle cx="167.4" cy="316.0" r="1.45" fill="#7c3aed" fill-opacity="0.46"/>
<circle cx="170.5" cy="317.1" r="1.45" fill="#7c3aed" fill-opacity="0.46"/>
<circle cx="173.6" cy="316.3" r="1.45" fill="#7c3aed" fill-opacity="0.46"/>
<circle cx="176.6" cy="316.2" r="1.45" fill="#7c3aed" fill-opacity="0.46"/>
<circle cx="179.7" cy="316.2" r="1.45" fill="#7c3aed" fill-opacity="0.46"/>
<circle cx="182.7" cy="314.7" r="1.45" fill="#7c3aed" fill-opacity="0.46"/>
<circle cx="158.3" cy="316.4" r="1.45" fill="#7c3aed" fill-opacity="0.46"/>
<circle cx="161.3" cy="317.4" r="1.45" fill="#7c3aed" fill-opacity="0.46"/>
<circle cx="164.4" cy="315.8" r="1.45" fill="#7c3aed" fill-opacity="0.46"/>
<circle cx="167.4" cy="315.7" r="1.45" fill="#7c3aed" fill-opacity="0.46"/>
<circle cx="170.5" cy="315.4" r="1.45" fill="#7c3aed" fill-opacity="0.46"/>
<circle cx="173.6" cy="317.4" r="1.45" fill="#7c3aed" fill-opacity="0.46"/>
<circle cx="176.6" cy="317.6" r="1.45" fill="#7c3aed" fill-opacity="0.46"/>
<circle cx="179.7" cy="316.1" r="1.45" fill="#7c3aed" fill-opacity="0.46"/>
<circle cx="182.7" cy="316.2" r="1.45" fill="#7c3aed" fill-opacity="0.46"/>
<circle cx="158.3" cy="315.7" r="1.45" fill="#7c3aed" fill-opacity="0.46"/>
<circle cx="161.3" cy="317.3" r="1.45" fill="#7c3aed" fill-opacity="0.46"/>
<circle cx="164.4" cy="318.3" r="1.45" fill="#7c3aed" fill-opacity="0.46"/>
<circle cx="167.4" cy="315.9" r="1.45" fill="#7c3aed" fill-opacity="0.46"/>
<circle cx="170.5" cy="317.4" r="1.45" fill="#7c3aed" fill-opacity="0.46"/>
<circle cx="173.6" cy="317.4" r="1.45" fill="#7c3aed" fill-opacity="0.46"/>
<circle cx="176.6" cy="315.5" r="1.45" fill="#7c3aed" fill-opacity="0.46"/>
<circle cx="179.7" cy="315.1" r="1.45" fill="#7c3aed" fill-opacity="0.46"/>
<circle cx="182.7" cy="317.3" r="1.45" fill="#7c3aed" fill-opacity="0.46"/>
<circle cx="158.3" cy="316.6" r="1.45" fill="#7c3aed" fill-opacity="0.46"/>
<circle cx="161.3" cy="317.4" r="1.45" fill="#7c3aed" fill-opacity="0.46"/>
<circle cx="164.4" cy="317.5" r="1.45" fill="#7c3aed" fill-opacity="0.46"/>
<circle cx="167.4" cy="317.4" r="1.45" fill="#7c3aed" fill-opacity="0.46"/>
<circle cx="170.5" cy="317.5" r="1.45" fill="#7c3aed" fill-opacity="0.46"/>
<circle cx="173.6" cy="317.4" r="1.45" fill="#7c3aed" fill-opacity="0.46"/>
<circle cx="176.6" cy="317.6" r="1.45" fill="#7c3aed" fill-opacity="0.46"/>
<circle cx="179.7" cy="317.6" r="1.45" fill="#7c3aed" fill-opacity="0.46"/>
<circle cx="182.7" cy="317.4" r="1.45" fill="#7c3aed" fill-opacity="0.46"/>
<circle cx="158.3" cy="317.8" r="1.45" fill="#7c3aed" fill-opacity="0.46"/>
<line x1="170.5" y1="314.7" x2="170.5" y2="318.3" stroke="#7c3aed" stroke-opacity="0.86" stroke-width="1.8"/>
<line x1="158.3" y1="314.7" x2="182.7" y2="314.7" stroke="#7c3aed" stroke-opacity="0.86" stroke-width="1.8"/>
<line x1="158.3" y1="318.3" x2="182.7" y2="318.3" stroke="#7c3aed" stroke-opacity="0.86" stroke-width="1.8"/>
<rect x="153.5" y="316.1" width="34.0" height="1.3" rx="2" fill="#7c3aed" fill-opacity="0.18" stroke="#7c3aed" stroke-opacity="0.9" stroke-width="1.8"/>
<line x1="153.5" y1="316.5" x2="187.5" y2="316.5" stroke="#7c3aed" stroke-opacity="0.96" stroke-width="2.6"/>
<text x="193.5" y="320.5" text-anchor="start" font-family="Inter,Segoe UI,Arial,sans-serif" font-size="11" font-weight="700" fill="#111827" stroke="#ffffff" stroke-width="3" paint-order="stroke">69.9</text>
<circle cx="220.8" cy="318.6" r="1.45" fill="#1e3a8a" fill-opacity="0.46"/>
<circle cx="223.8" cy="318.4" r="1.45" fill="#1e3a8a" fill-opacity="0.46"/>
<circle cx="226.9" cy="313.9" r="1.45" fill="#1e3a8a" fill-opacity="0.46"/>
<circle cx="229.9" cy="316.9" r="1.45" fill="#1e3a8a" fill-opacity="0.46"/>
<circle cx="233.0" cy="317.7" r="1.45" fill="#1e3a8a" fill-opacity="0.46"/>
<circle cx="236.1" cy="318.6" r="1.45" fill="#1e3a8a" fill-opacity="0.46"/>
<circle cx="239.1" cy="317.3" r="1.45" fill="#1e3a8a" fill-opacity="0.46"/>
<circle cx="242.2" cy="317.6" r="1.45" fill="#1e3a8a" fill-opacity="0.46"/>
<circle cx="245.2" cy="313.8" r="1.45" fill="#1e3a8a" fill-opacity="0.46"/>
<circle cx="220.8" cy="318.2" r="1.45" fill="#1e3a8a" fill-opacity="0.46"/>
<circle cx="223.8" cy="318.6" r="1.45" fill="#1e3a8a" fill-opacity="0.46"/>
<circle cx="226.9" cy="311.6" r="1.45" fill="#1e3a8a" fill-opacity="0.46"/>
<circle cx="229.9" cy="317.0" r="1.45" fill="#1e3a8a" fill-opacity="0.46"/>
<circle cx="233.0" cy="315.8" r="1.45" fill="#1e3a8a" fill-opacity="0.46"/>
<circle cx="236.1" cy="313.8" r="1.45" fill="#1e3a8a" fill-opacity="0.46"/>
<circle cx="239.1" cy="316.0" r="1.45" fill="#1e3a8a" fill-opacity="0.46"/>
<circle cx="242.2" cy="313.8" r="1.45" fill="#1e3a8a" fill-opacity="0.46"/>
<circle cx="245.2" cy="316.7" r="1.45" fill="#1e3a8a" fill-opacity="0.46"/>
<circle cx="220.8" cy="313.6" r="1.45" fill="#1e3a8a" fill-opacity="0.46"/>
<circle cx="223.8" cy="317.7" r="1.45" fill="#1e3a8a" fill-opacity="0.46"/>
<circle cx="226.9" cy="315.7" r="1.45" fill="#1e3a8a" fill-opacity="0.46"/>
<circle cx="229.9" cy="315.1" r="1.45" fill="#1e3a8a" fill-opacity="0.46"/>
<circle cx="233.0" cy="317.5" r="1.45" fill="#1e3a8a" fill-opacity="0.46"/>
<circle cx="236.1" cy="318.2" r="1.45" fill="#1e3a8a" fill-opacity="0.46"/>
<circle cx="239.1" cy="314.0" r="1.45" fill="#1e3a8a" fill-opacity="0.46"/>
<circle cx="242.2" cy="314.5" r="1.45" fill="#1e3a8a" fill-opacity="0.46"/>
<circle cx="245.2" cy="317.0" r="1.45" fill="#1e3a8a" fill-opacity="0.46"/>
<circle cx="220.8" cy="315.3" r="1.45" fill="#1e3a8a" fill-opacity="0.46"/>
<circle cx="223.8" cy="317.1" r="1.45" fill="#1e3a8a" fill-opacity="0.46"/>
<circle cx="226.9" cy="315.0" r="1.45" fill="#1e3a8a" fill-opacity="0.46"/>
<circle cx="229.9" cy="318.2" r="1.45" fill="#1e3a8a" fill-opacity="0.46"/>
<circle cx="233.0" cy="315.2" r="1.45" fill="#1e3a8a" fill-opacity="0.46"/>
<circle cx="236.1" cy="316.7" r="1.45" fill="#1e3a8a" fill-opacity="0.46"/>
<circle cx="239.1" cy="316.6" r="1.45" fill="#1e3a8a" fill-opacity="0.46"/>
<circle cx="242.2" cy="315.8" r="1.45" fill="#1e3a8a" fill-opacity="0.46"/>
<circle cx="245.2" cy="317.5" r="1.45" fill="#1e3a8a" fill-opacity="0.46"/>
<circle cx="220.8" cy="316.7" r="1.45" fill="#1e3a8a" fill-opacity="0.46"/>
<circle cx="223.8" cy="314.6" r="1.45" fill="#1e3a8a" fill-opacity="0.46"/>
<circle cx="226.9" cy="319.0" r="1.45" fill="#1e3a8a" fill-opacity="0.46"/>
<circle cx="229.9" cy="318.2" r="1.45" fill="#1e3a8a" fill-opacity="0.46"/>
<circle cx="233.0" cy="316.0" r="1.45" fill="#1e3a8a" fill-opacity="0.46"/>
<line x1="233.0" y1="311.6" x2="233.0" y2="319.0" stroke="#1e3a8a" stroke-opacity="0.86" stroke-width="1.8"/>
<line x1="220.8" y1="311.6" x2="245.2" y2="311.6" stroke="#1e3a8a" stroke-opacity="0.86" stroke-width="1.8"/>
<line x1="220.8" y1="319.0" x2="245.2" y2="319.0" stroke="#1e3a8a" stroke-opacity="0.86" stroke-width="1.8"/>
<rect x="216.0" y="315.1" width="34.0" height="2.5" rx="2" fill="#1e3a8a" fill-opacity="0.18" stroke="#1e3a8a" stroke-opacity="0.9" stroke-width="1.8"/>
<line x1="216.0" y1="316.7" x2="250.0" y2="316.7" stroke="#1e3a8a" stroke-opacity="0.96" stroke-width="2.6"/>
<text x="256.0" y="320.7" text-anchor="start" font-family="Inter,Segoe UI,Arial,sans-serif" font-size="11" font-weight="700" fill="#111827" stroke="#ffffff" stroke-width="3" paint-order="stroke">69.5</text>
<circle cx="283.3" cy="318.7" r="1.45" fill="#f97316" fill-opacity="0.46"/>
<circle cx="286.3" cy="320.5" r="1.45" fill="#f97316" fill-opacity="0.46"/>
<circle cx="289.4" cy="319.0" r="1.45" fill="#f97316" fill-opacity="0.46"/>
<circle cx="292.4" cy="319.1" r="1.45" fill="#f97316" fill-opacity="0.46"/>
<circle cx="295.5" cy="320.7" r="1.45" fill="#f97316" fill-opacity="0.46"/>
<circle cx="298.6" cy="319.9" r="1.45" fill="#f97316" fill-opacity="0.46"/>
<circle cx="301.6" cy="320.3" r="1.45" fill="#f97316" fill-opacity="0.46"/>
<circle cx="304.7" cy="318.9" r="1.45" fill="#f97316" fill-opacity="0.46"/>
<circle cx="307.7" cy="323.1" r="1.45" fill="#f97316" fill-opacity="0.46"/>
<circle cx="283.3" cy="326.0" r="1.45" fill="#f97316" fill-opacity="0.46"/>
<circle cx="286.3" cy="324.4" r="1.45" fill="#f97316" fill-opacity="0.46"/>
<line x1="295.5" y1="318.7" x2="295.5" y2="326.0" stroke="#f97316" stroke-opacity="0.86" stroke-width="1.8"/>
<line x1="283.3" y1="318.7" x2="307.7" y2="318.7" stroke="#f97316" stroke-opacity="0.86" stroke-width="1.8"/>
<line x1="283.3" y1="326.0" x2="307.7" y2="326.0" stroke="#f97316" stroke-opacity="0.86" stroke-width="1.8"/>
<rect x="278.5" y="319.1" width="34.0" height="2.9" rx="2" fill="#f97316" fill-opacity="0.18" stroke="#f97316" stroke-opacity="0.9" stroke-width="1.8"/>
<line x1="278.5" y1="320.3" x2="312.5" y2="320.3" stroke="#f97316" stroke-opacity="0.96" stroke-width="2.6"/>
<text x="318.5" y="324.3" text-anchor="start" font-family="Inter,Segoe UI,Arial,sans-serif" font-size="11" font-weight="700" fill="#111827" stroke="#ffffff" stroke-width="3" paint-order="stroke">63.0</text>
<circle cx="345.8" cy="316.5" r="1.45" fill="#eab308" fill-opacity="0.46"/>
<circle cx="348.8" cy="315.7" r="1.45" fill="#eab308" fill-opacity="0.46"/>
<circle cx="351.9" cy="319.6" r="1.45" fill="#eab308" fill-opacity="0.46"/>
<circle cx="354.9" cy="318.9" r="1.45" fill="#eab308" fill-opacity="0.46"/>
<circle cx="358.0" cy="311.3" r="1.45" fill="#eab308" fill-opacity="0.46"/>
<circle cx="361.1" cy="314.3" r="1.45" fill="#eab308" fill-opacity="0.46"/>
<circle cx="364.1" cy="314.4" r="1.45" fill="#eab308" fill-opacity="0.46"/>
<circle cx="367.2" cy="311.1" r="1.45" fill="#eab308" fill-opacity="0.46"/>
<circle cx="370.2" cy="313.8" r="1.45" fill="#eab308" fill-opacity="0.46"/>
<circle cx="345.8" cy="318.6" r="1.45" fill="#eab308" fill-opacity="0.46"/>
<circle cx="348.8" cy="316.8" r="1.45" fill="#eab308" fill-opacity="0.46"/>
<line x1="358.0" y1="311.1" x2="358.0" y2="319.6" stroke="#eab308" stroke-opacity="0.86" stroke-width="1.8"/>
<line x1="345.8" y1="311.1" x2="370.2" y2="311.1" stroke="#eab308" stroke-opacity="0.86" stroke-width="1.8"/>
<line x1="345.8" y1="319.6" x2="370.2" y2="319.6" stroke="#eab308" stroke-opacity="0.86" stroke-width="1.8"/>
<rect x="341.0" y="314.0" width="34.0" height="3.7" rx="2" fill="#eab308" fill-opacity="0.18" stroke="#eab308" stroke-opacity="0.9" stroke-width="1.8"/>
<line x1="341.0" y1="315.7" x2="375.0" y2="315.7" stroke="#eab308" stroke-opacity="0.96" stroke-width="2.6"/>
<text x="381.0" y="319.7" text-anchor="start" font-family="Inter,Segoe UI,Arial,sans-serif" font-size="11" font-weight="700" fill="#111827" stroke="#ffffff" stroke-width="3" paint-order="stroke">71.5</text>
<text x="571.0" y="398" text-anchor="middle" font-family="Inter,Segoe UI,Arial,sans-serif" font-size="11" font-weight="700" fill="#111827">35B-A3B</text>
<circle cx="433.8" cy="298.5" r="1.45" fill="#14532d" fill-opacity="0.46"/>
<circle cx="436.8" cy="298.9" r="1.45" fill="#14532d" fill-opacity="0.46"/>
<circle cx="439.9" cy="297.4" r="1.45" fill="#14532d" fill-opacity="0.46"/>
<circle cx="442.9" cy="297.9" r="1.45" fill="#14532d" fill-opacity="0.46"/>
<circle cx="446.0" cy="299.0" r="1.45" fill="#14532d" fill-opacity="0.46"/>
<circle cx="449.1" cy="293.0" r="1.45" fill="#14532d" fill-opacity="0.46"/>
<circle cx="452.1" cy="295.0" r="1.45" fill="#14532d" fill-opacity="0.46"/>
<circle cx="455.2" cy="292.6" r="1.45" fill="#14532d" fill-opacity="0.46"/>
<circle cx="458.2" cy="293.7" r="1.45" fill="#14532d" fill-opacity="0.46"/>
<circle cx="433.8" cy="292.7" r="1.45" fill="#14532d" fill-opacity="0.46"/>
<circle cx="436.8" cy="300.1" r="1.45" fill="#14532d" fill-opacity="0.46"/>
<circle cx="439.9" cy="300.5" r="1.45" fill="#14532d" fill-opacity="0.46"/>
<circle cx="442.9" cy="300.0" r="1.45" fill="#14532d" fill-opacity="0.46"/>
<circle cx="446.0" cy="300.0" r="1.45" fill="#14532d" fill-opacity="0.46"/>
<circle cx="449.1" cy="300.9" r="1.45" fill="#14532d" fill-opacity="0.46"/>
<circle cx="452.1" cy="296.7" r="1.45" fill="#14532d" fill-opacity="0.46"/>
<circle cx="455.2" cy="297.6" r="1.45" fill="#14532d" fill-opacity="0.46"/>
<circle cx="458.2" cy="297.0" r="1.45" fill="#14532d" fill-opacity="0.46"/>
<circle cx="433.8" cy="297.8" r="1.45" fill="#14532d" fill-opacity="0.46"/>
<circle cx="436.8" cy="297.0" r="1.45" fill="#14532d" fill-opacity="0.46"/>
<circle cx="439.9" cy="292.3" r="1.45" fill="#14532d" fill-opacity="0.46"/>
<circle cx="442.9" cy="291.8" r="1.45" fill="#14532d" fill-opacity="0.46"/>
<circle cx="446.0" cy="292.9" r="1.45" fill="#14532d" fill-opacity="0.46"/>
<circle cx="449.1" cy="291.6" r="1.45" fill="#14532d" fill-opacity="0.46"/>
<circle cx="452.1" cy="292.1" r="1.45" fill="#14532d" fill-opacity="0.46"/>
<circle cx="455.2" cy="297.0" r="1.45" fill="#14532d" fill-opacity="0.46"/>
<circle cx="458.2" cy="297.2" r="1.45" fill="#14532d" fill-opacity="0.46"/>
<circle cx="433.8" cy="296.1" r="1.45" fill="#14532d" fill-opacity="0.46"/>
<circle cx="436.8" cy="297.5" r="1.45" fill="#14532d" fill-opacity="0.46"/>
<circle cx="439.9" cy="297.5" r="1.45" fill="#14532d" fill-opacity="0.46"/>
<circle cx="442.9" cy="299.5" r="1.45" fill="#14532d" fill-opacity="0.46"/>
<circle cx="446.0" cy="299.7" r="1.45" fill="#14532d" fill-opacity="0.46"/>
<circle cx="449.1" cy="299.4" r="1.45" fill="#14532d" fill-opacity="0.46"/>
<circle cx="452.1" cy="298.4" r="1.45" fill="#14532d" fill-opacity="0.46"/>
<circle cx="455.2" cy="299.8" r="1.45" fill="#14532d" fill-opacity="0.46"/>
<circle cx="458.2" cy="299.9" r="1.45" fill="#14532d" fill-opacity="0.46"/>
<circle cx="433.8" cy="300.2" r="1.45" fill="#14532d" fill-opacity="0.46"/>
<circle cx="436.8" cy="299.8" r="1.45" fill="#14532d" fill-opacity="0.46"/>
<circle cx="439.9" cy="299.4" r="1.45" fill="#14532d" fill-opacity="0.46"/>
<circle cx="442.9" cy="299.7" r="1.45" fill="#14532d" fill-opacity="0.46"/>
<circle cx="446.0" cy="301.9" r="1.45" fill="#14532d" fill-opacity="0.46"/>
<circle cx="449.1" cy="300.7" r="1.45" fill="#14532d" fill-opacity="0.46"/>
<circle cx="452.1" cy="301.0" r="1.45" fill="#14532d" fill-opacity="0.46"/>
<circle cx="455.2" cy="300.9" r="1.45" fill="#14532d" fill-opacity="0.46"/>
<circle cx="458.2" cy="303.8" r="1.45" fill="#14532d" fill-opacity="0.46"/>
<circle cx="433.8" cy="301.4" r="1.45" fill="#14532d" fill-opacity="0.46"/>
<circle cx="436.8" cy="299.5" r="1.45" fill="#14532d" fill-opacity="0.46"/>
<circle cx="439.9" cy="300.2" r="1.45" fill="#14532d" fill-opacity="0.46"/>
<circle cx="442.9" cy="301.8" r="1.45" fill="#14532d" fill-opacity="0.46"/>
<circle cx="446.0" cy="300.1" r="1.45" fill="#14532d" fill-opacity="0.46"/>
<circle cx="449.1" cy="300.3" r="1.45" fill="#14532d" fill-opacity="0.46"/>
<circle cx="452.1" cy="301.0" r="1.45" fill="#14532d" fill-opacity="0.46"/>
<circle cx="455.2" cy="301.3" r="1.45" fill="#14532d" fill-opacity="0.46"/>
<circle cx="458.2" cy="299.2" r="1.45" fill="#14532d" fill-opacity="0.46"/>
<circle cx="433.8" cy="300.4" r="1.45" fill="#14532d" fill-opacity="0.46"/>
<line x1="446.0" y1="291.6" x2="446.0" y2="303.8" stroke="#14532d" stroke-opacity="0.86" stroke-width="1.8"/>
<line x1="433.8" y1="291.6" x2="458.2" y2="291.6" stroke="#14532d" stroke-opacity="0.86" stroke-width="1.8"/>
<line x1="433.8" y1="303.8" x2="458.2" y2="303.8" stroke="#14532d" stroke-opacity="0.86" stroke-width="1.8"/>
<rect x="429.0" y="297.0" width="34.0" height="3.2" rx="2" fill="#14532d" fill-opacity="0.18" stroke="#14532d" stroke-opacity="0.9" stroke-width="1.8"/>
<line x1="429.0" y1="299.4" x2="463.0" y2="299.4" stroke="#14532d" stroke-opacity="0.96" stroke-width="2.6"/>
<text x="469.0" y="303.4" text-anchor="start" font-family="Inter,Segoe UI,Arial,sans-serif" font-size="11" font-weight="700" fill="#111827" stroke="#ffffff" stroke-width="3" paint-order="stroke">102</text>
<circle cx="496.3" cy="255.9" r="1.45" fill="#7c3aed" fill-opacity="0.46"/>
<circle cx="499.3" cy="255.7" r="1.45" fill="#7c3aed" fill-opacity="0.46"/>
<circle cx="502.4" cy="256.1" r="1.45" fill="#7c3aed" fill-opacity="0.46"/>
<circle cx="505.4" cy="257.1" r="1.45" fill="#7c3aed" fill-opacity="0.46"/>
<circle cx="508.5" cy="257.3" r="1.45" fill="#7c3aed" fill-opacity="0.46"/>
<circle cx="511.6" cy="256.6" r="1.45" fill="#7c3aed" fill-opacity="0.46"/>
<circle cx="514.6" cy="251.0" r="1.45" fill="#7c3aed" fill-opacity="0.46"/>
<circle cx="517.7" cy="252.6" r="1.45" fill="#7c3aed" fill-opacity="0.46"/>
<circle cx="520.7" cy="252.3" r="1.45" fill="#7c3aed" fill-opacity="0.46"/>
<circle cx="496.3" cy="252.4" r="1.45" fill="#7c3aed" fill-opacity="0.46"/>
<circle cx="499.3" cy="252.9" r="1.45" fill="#7c3aed" fill-opacity="0.46"/>
<circle cx="502.4" cy="251.5" r="1.45" fill="#7c3aed" fill-opacity="0.46"/>
<circle cx="505.4" cy="253.9" r="1.45" fill="#7c3aed" fill-opacity="0.46"/>
<circle cx="508.5" cy="254.1" r="1.45" fill="#7c3aed" fill-opacity="0.46"/>
<circle cx="511.6" cy="253.3" r="1.45" fill="#7c3aed" fill-opacity="0.46"/>
<circle cx="514.6" cy="253.0" r="1.45" fill="#7c3aed" fill-opacity="0.46"/>
<circle cx="517.7" cy="253.5" r="1.45" fill="#7c3aed" fill-opacity="0.46"/>
<circle cx="520.7" cy="252.3" r="1.45" fill="#7c3aed" fill-opacity="0.46"/>
<circle cx="496.3" cy="253.2" r="1.45" fill="#7c3aed" fill-opacity="0.46"/>
<circle cx="499.3" cy="251.1" r="1.45" fill="#7c3aed" fill-opacity="0.46"/>
<circle cx="502.4" cy="256.7" r="1.45" fill="#7c3aed" fill-opacity="0.46"/>
<circle cx="505.4" cy="256.3" r="1.45" fill="#7c3aed" fill-opacity="0.46"/>
<circle cx="508.5" cy="256.5" r="1.45" fill="#7c3aed" fill-opacity="0.46"/>
<circle cx="511.6" cy="317.6" r="1.45" fill="#7c3aed" fill-opacity="0.46"/>
<circle cx="514.6" cy="284.7" r="1.45" fill="#7c3aed" fill-opacity="0.46"/>
<circle cx="517.7" cy="317.6" r="1.45" fill="#7c3aed" fill-opacity="0.46"/>
<circle cx="520.7" cy="319.9" r="1.45" fill="#7c3aed" fill-opacity="0.46"/>
<circle cx="496.3" cy="305.6" r="1.45" fill="#7c3aed" fill-opacity="0.46"/>
<circle cx="499.3" cy="255.6" r="1.45" fill="#7c3aed" fill-opacity="0.46"/>
<circle cx="502.4" cy="319.5" r="1.45" fill="#7c3aed" fill-opacity="0.46"/>
<circle cx="505.4" cy="298.3" r="1.45" fill="#7c3aed" fill-opacity="0.46"/>
<circle cx="508.5" cy="319.7" r="1.45" fill="#7c3aed" fill-opacity="0.46"/>
<circle cx="511.6" cy="317.2" r="1.45" fill="#7c3aed" fill-opacity="0.46"/>
<circle cx="514.6" cy="256.7" r="1.45" fill="#7c3aed" fill-opacity="0.46"/>
<circle cx="517.7" cy="257.1" r="1.45" fill="#7c3aed" fill-opacity="0.46"/>
<circle cx="520.7" cy="311.7" r="1.45" fill="#7c3aed" fill-opacity="0.46"/>
<circle cx="496.3" cy="319.6" r="1.45" fill="#7c3aed" fill-opacity="0.46"/>
<circle cx="499.3" cy="311.1" r="1.45" fill="#7c3aed" fill-opacity="0.46"/>
<circle cx="502.4" cy="256.5" r="1.45" fill="#7c3aed" fill-opacity="0.46"/>
<circle cx="505.4" cy="254.3" r="1.45" fill="#7c3aed" fill-opacity="0.46"/>
<circle cx="508.5" cy="255.0" r="1.45" fill="#7c3aed" fill-opacity="0.46"/>
<circle cx="511.6" cy="254.3" r="1.45" fill="#7c3aed" fill-opacity="0.46"/>
<circle cx="514.6" cy="253.3" r="1.45" fill="#7c3aed" fill-opacity="0.46"/>
<circle cx="517.7" cy="253.3" r="1.45" fill="#7c3aed" fill-opacity="0.46"/>
<circle cx="520.7" cy="253.5" r="1.45" fill="#7c3aed" fill-opacity="0.46"/>
<circle cx="496.3" cy="256.4" r="1.45" fill="#7c3aed" fill-opacity="0.46"/>
<circle cx="499.3" cy="255.3" r="1.45" fill="#7c3aed" fill-opacity="0.46"/>
<circle cx="502.4" cy="253.4" r="1.45" fill="#7c3aed" fill-opacity="0.46"/>
<circle cx="505.4" cy="253.1" r="1.45" fill="#7c3aed" fill-opacity="0.46"/>
<circle cx="508.5" cy="253.0" r="1.45" fill="#7c3aed" fill-opacity="0.46"/>
<circle cx="511.6" cy="253.9" r="1.45" fill="#7c3aed" fill-opacity="0.46"/>
<circle cx="514.6" cy="253.9" r="1.45" fill="#7c3aed" fill-opacity="0.46"/>
<circle cx="517.7" cy="254.1" r="1.45" fill="#7c3aed" fill-opacity="0.46"/>
<circle cx="520.7" cy="253.8" r="1.45" fill="#7c3aed" fill-opacity="0.46"/>
<circle cx="496.3" cy="253.6" r="1.45" fill="#7c3aed" fill-opacity="0.46"/>
<line x1="508.5" y1="251.0" x2="508.5" y2="319.9" stroke="#7c3aed" stroke-opacity="0.86" stroke-width="1.8"/>
<line x1="496.3" y1="251.0" x2="520.7" y2="251.0" stroke="#7c3aed" stroke-opacity="0.86" stroke-width="1.8"/>
<line x1="496.3" y1="319.9" x2="520.7" y2="319.9" stroke="#7c3aed" stroke-opacity="0.86" stroke-width="1.8"/>
<rect x="491.5" y="253.3" width="34.0" height="3.8" rx="2" fill="#7c3aed" fill-opacity="0.18" stroke="#7c3aed" stroke-opacity="0.9" stroke-width="1.8"/>
<line x1="491.5" y1="255.0" x2="525.5" y2="255.0" stroke="#7c3aed" stroke-opacity="0.96" stroke-width="2.6"/>
<text x="531.5" y="259.0" text-anchor="start" font-family="Inter,Segoe UI,Arial,sans-serif" font-size="11" font-weight="700" fill="#111827" stroke="#ffffff" stroke-width="3" paint-order="stroke">185</text>
<circle cx="558.8" cy="268.4" r="1.45" fill="#1e3a8a" fill-opacity="0.46"/>
<circle cx="561.8" cy="267.8" r="1.45" fill="#1e3a8a" fill-opacity="0.46"/>
<circle cx="564.9" cy="266.6" r="1.45" fill="#1e3a8a" fill-opacity="0.46"/>
<circle cx="567.9" cy="194.0" r="1.45" fill="#1e3a8a" fill-opacity="0.46"/>
<circle cx="571.0" cy="216.4" r="1.45" fill="#1e3a8a" fill-opacity="0.46"/>
<circle cx="574.1" cy="199.7" r="1.45" fill="#1e3a8a" fill-opacity="0.46"/>
<circle cx="577.1" cy="202.3" r="1.45" fill="#1e3a8a" fill-opacity="0.46"/>
<circle cx="580.2" cy="231.4" r="1.45" fill="#1e3a8a" fill-opacity="0.46"/>
<circle cx="583.2" cy="225.5" r="1.45" fill="#1e3a8a" fill-opacity="0.46"/>
<circle cx="558.8" cy="224.2" r="1.45" fill="#1e3a8a" fill-opacity="0.46"/>
<circle cx="561.8" cy="201.8" r="1.45" fill="#1e3a8a" fill-opacity="0.46"/>
<circle cx="564.9" cy="267.9" r="1.45" fill="#1e3a8a" fill-opacity="0.46"/>
<circle cx="567.9" cy="236.7" r="1.45" fill="#1e3a8a" fill-opacity="0.46"/>
<circle cx="571.0" cy="267.7" r="1.45" fill="#1e3a8a" fill-opacity="0.46"/>
<circle cx="574.1" cy="239.5" r="1.45" fill="#1e3a8a" fill-opacity="0.46"/>
<circle cx="577.1" cy="268.3" r="1.45" fill="#1e3a8a" fill-opacity="0.46"/>
<circle cx="580.2" cy="250.4" r="1.45" fill="#1e3a8a" fill-opacity="0.46"/>
<circle cx="583.2" cy="234.1" r="1.45" fill="#1e3a8a" fill-opacity="0.46"/>
<circle cx="558.8" cy="269.4" r="1.45" fill="#1e3a8a" fill-opacity="0.46"/>
<circle cx="561.8" cy="269.9" r="1.45" fill="#1e3a8a" fill-opacity="0.46"/>
<circle cx="564.9" cy="269.3" r="1.45" fill="#1e3a8a" fill-opacity="0.46"/>
<circle cx="567.9" cy="269.7" r="1.45" fill="#1e3a8a" fill-opacity="0.46"/>
<circle cx="571.0" cy="313.5" r="1.45" fill="#1e3a8a" fill-opacity="0.46"/>
<circle cx="574.1" cy="270.6" r="1.45" fill="#1e3a8a" fill-opacity="0.46"/>
<circle cx="577.1" cy="305.4" r="1.45" fill="#1e3a8a" fill-opacity="0.46"/>
<circle cx="580.2" cy="291.5" r="1.45" fill="#1e3a8a" fill-opacity="0.46"/>
<circle cx="583.2" cy="191.2" r="1.45" fill="#1e3a8a" fill-opacity="0.46"/>
<circle cx="558.8" cy="267.7" r="1.45" fill="#1e3a8a" fill-opacity="0.46"/>
<circle cx="561.8" cy="267.0" r="1.45" fill="#1e3a8a" fill-opacity="0.46"/>
<circle cx="564.9" cy="202.2" r="1.45" fill="#1e3a8a" fill-opacity="0.46"/>
<circle cx="567.9" cy="205.6" r="1.45" fill="#1e3a8a" fill-opacity="0.46"/>
<circle cx="571.0" cy="267.0" r="1.45" fill="#1e3a8a" fill-opacity="0.46"/>
<circle cx="574.1" cy="267.3" r="1.45" fill="#1e3a8a" fill-opacity="0.46"/>
<circle cx="577.1" cy="213.0" r="1.45" fill="#1e3a8a" fill-opacity="0.46"/>
<circle cx="580.2" cy="198.2" r="1.45" fill="#1e3a8a" fill-opacity="0.46"/>
<circle cx="583.2" cy="197.0" r="1.45" fill="#1e3a8a" fill-opacity="0.46"/>
<circle cx="558.8" cy="221.3" r="1.45" fill="#1e3a8a" fill-opacity="0.46"/>
<circle cx="561.8" cy="200.6" r="1.45" fill="#1e3a8a" fill-opacity="0.46"/>
<circle cx="564.9" cy="208.5" r="1.45" fill="#1e3a8a" fill-opacity="0.46"/>
<circle cx="567.9" cy="238.7" r="1.45" fill="#1e3a8a" fill-opacity="0.46"/>
<circle cx="571.0" cy="216.1" r="1.45" fill="#1e3a8a" fill-opacity="0.46"/>
<circle cx="574.1" cy="214.4" r="1.45" fill="#1e3a8a" fill-opacity="0.46"/>
<circle cx="577.1" cy="262.4" r="1.45" fill="#1e3a8a" fill-opacity="0.46"/>
<circle cx="580.2" cy="252.7" r="1.45" fill="#1e3a8a" fill-opacity="0.46"/>
<circle cx="583.2" cy="254.1" r="1.45" fill="#1e3a8a" fill-opacity="0.46"/>
<circle cx="558.8" cy="267.8" r="1.45" fill="#1e3a8a" fill-opacity="0.46"/>
<circle cx="561.8" cy="260.4" r="1.45" fill="#1e3a8a" fill-opacity="0.46"/>
<circle cx="564.9" cy="239.6" r="1.45" fill="#1e3a8a" fill-opacity="0.46"/>
<circle cx="567.9" cy="246.7" r="1.45" fill="#1e3a8a" fill-opacity="0.46"/>
<circle cx="571.0" cy="242.6" r="1.45" fill="#1e3a8a" fill-opacity="0.46"/>
<circle cx="574.1" cy="215.2" r="1.45" fill="#1e3a8a" fill-opacity="0.46"/>
<circle cx="577.1" cy="247.1" r="1.45" fill="#1e3a8a" fill-opacity="0.46"/>
<circle cx="580.2" cy="242.2" r="1.45" fill="#1e3a8a" fill-opacity="0.46"/>
<line x1="571.0" y1="191.2" x2="571.0" y2="313.5" stroke="#1e3a8a" stroke-opacity="0.86" stroke-width="1.8"/>
<line x1="558.8" y1="191.2" x2="583.2" y2="191.2" stroke="#1e3a8a" stroke-opacity="0.86" stroke-width="1.8"/>
<line x1="558.8" y1="313.5" x2="583.2" y2="313.5" stroke="#1e3a8a" stroke-opacity="0.86" stroke-width="1.8"/>
<rect x="554.0" y="215.2" width="34.0" height="52.5" rx="2" fill="#1e3a8a" fill-opacity="0.18" stroke="#1e3a8a" stroke-opacity="0.9" stroke-width="1.8"/>
<line x1="554.0" y1="242.6" x2="588.0" y2="242.6" stroke="#1e3a8a" stroke-opacity="0.96" stroke-width="2.6"/>
<text x="594.0" y="246.6" text-anchor="start" font-family="Inter,Segoe UI,Arial,sans-serif" font-size="11" font-weight="700" fill="#111827" stroke="#ffffff" stroke-width="3" paint-order="stroke">208</text>
<circle cx="621.3" cy="257.4" r="1.45" fill="#f97316" fill-opacity="0.46"/>
<circle cx="624.3" cy="258.3" r="1.45" fill="#f97316" fill-opacity="0.46"/>
<circle cx="627.4" cy="258.1" r="1.45" fill="#f97316" fill-opacity="0.46"/>
<circle cx="630.4" cy="257.7" r="1.45" fill="#f97316" fill-opacity="0.46"/>
<circle cx="633.5" cy="256.9" r="1.45" fill="#f97316" fill-opacity="0.46"/>
<circle cx="636.6" cy="257.4" r="1.45" fill="#f97316" fill-opacity="0.46"/>
<circle cx="639.6" cy="258.9" r="1.45" fill="#f97316" fill-opacity="0.46"/>
<circle cx="642.7" cy="258.4" r="1.45" fill="#f97316" fill-opacity="0.46"/>
<circle cx="645.7" cy="259.5" r="1.45" fill="#f97316" fill-opacity="0.46"/>
<circle cx="621.3" cy="261.6" r="1.45" fill="#f97316" fill-opacity="0.46"/>
<circle cx="624.3" cy="259.8" r="1.45" fill="#f97316" fill-opacity="0.46"/>
<line x1="633.5" y1="256.9" x2="633.5" y2="261.6" stroke="#f97316" stroke-opacity="0.86" stroke-width="1.8"/>
<line x1="621.3" y1="256.9" x2="645.7" y2="256.9" stroke="#f97316" stroke-opacity="0.86" stroke-width="1.8"/>
<line x1="621.3" y1="261.6" x2="645.7" y2="261.6" stroke="#f97316" stroke-opacity="0.86" stroke-width="1.8"/>
<rect x="616.5" y="257.6" width="34.0" height="1.6" rx="2" fill="#f97316" fill-opacity="0.18" stroke="#f97316" stroke-opacity="0.9" stroke-width="1.8"/>
<line x1="616.5" y1="258.3" x2="650.5" y2="258.3" stroke="#f97316" stroke-opacity="0.96" stroke-width="2.6"/>
<text x="656.5" y="262.3" text-anchor="start" font-family="Inter,Segoe UI,Arial,sans-serif" font-size="11" font-weight="700" fill="#111827" stroke="#ffffff" stroke-width="3" paint-order="stroke">179</text>
<circle cx="683.8" cy="190.6" r="1.45" fill="#eab308" fill-opacity="0.46"/>
<circle cx="686.8" cy="187.4" r="1.45" fill="#eab308" fill-opacity="0.46"/>
<circle cx="689.9" cy="179.2" r="1.45" fill="#eab308" fill-opacity="0.46"/>
<circle cx="692.9" cy="225.9" r="1.45" fill="#eab308" fill-opacity="0.46"/>
<circle cx="696.0" cy="199.6" r="1.45" fill="#eab308" fill-opacity="0.46"/>
<circle cx="699.1" cy="201.8" r="1.45" fill="#eab308" fill-opacity="0.46"/>
<circle cx="702.1" cy="200.0" r="1.45" fill="#eab308" fill-opacity="0.46"/>
<circle cx="705.2" cy="209.2" r="1.45" fill="#eab308" fill-opacity="0.46"/>
<circle cx="708.2" cy="254.0" r="1.45" fill="#eab308" fill-opacity="0.46"/>
<circle cx="683.8" cy="246.8" r="1.45" fill="#eab308" fill-opacity="0.46"/>
<circle cx="686.8" cy="255.6" r="1.45" fill="#eab308" fill-opacity="0.46"/>
<line x1="696.0" y1="179.2" x2="696.0" y2="255.6" stroke="#eab308" stroke-opacity="0.86" stroke-width="1.8"/>
<line x1="683.8" y1="179.2" x2="708.2" y2="179.2" stroke="#eab308" stroke-opacity="0.86" stroke-width="1.8"/>
<line x1="683.8" y1="255.6" x2="708.2" y2="255.6" stroke="#eab308" stroke-opacity="0.86" stroke-width="1.8"/>
<rect x="679.0" y="195.1" width="34.0" height="41.3" rx="2" fill="#eab308" fill-opacity="0.18" stroke="#eab308" stroke-opacity="0.9" stroke-width="1.8"/>
<line x1="679.0" y1="201.8" x2="713.0" y2="201.8" stroke="#eab308" stroke-opacity="0.96" stroke-width="2.6"/>
<text x="719.0" y="205.8" text-anchor="start" font-family="Inter,Segoe UI,Arial,sans-serif" font-size="11" font-weight="700" fill="#111827" stroke="#ffffff" stroke-width="3" paint-order="stroke">284</text>
<rect x="64.0" y="433" width="10" height="10" rx="2" fill="#14532d" fill-opacity="0.72"/>
<text x="78.0" y="442" font-family="Inter,Segoe UI,Arial,sans-serif" font-size="10" fill="#374151">MTPLX 0.3.7</text>
<rect x="199.2" y="433" width="10" height="10" rx="2" fill="#7c3aed" fill-opacity="0.72"/>
<text x="213.2" y="442" font-family="Inter,Segoe UI,Arial,sans-serif" font-size="10" fill="#374151">Lightning v0.6.10</text>
<rect x="334.4" y="433" width="10" height="10" rx="2" fill="#1e3a8a" fill-opacity="0.72"/>
<text x="348.4" y="442" font-family="Inter,Segoe UI,Arial,sans-serif" font-size="10" fill="#374151">Lightning+ng v0.6.10</text>
<rect x="469.6" y="433" width="10" height="10" rx="2" fill="#f97316" fill-opacity="0.72"/>
<text x="483.6" y="442" font-family="Inter,Segoe UI,Arial,sans-serif" font-size="10" fill="#374151">AX Engine v5.1.0</text>
<rect x="604.8" y="433" width="10" height="10" rx="2" fill="#eab308" fill-opacity="0.72"/>
<text x="618.8" y="442" font-family="Inter,Segoe UI,Arial,sans-serif" font-size="10" fill="#374151">AX+ngram v5.1.0</text>
</svg>
