<svg xmlns="http://www.w3.org/2000/svg" width="760" height="430" viewBox="0 0 760 430" role="img" aria-labelledby="title desc">
<title>Qwen3.6 35B-A3B 4-bit MTP accept rate</title>
<desc>Grouped box-and-whisker plot comparing MTPLX 0.3.7 across all suites.</desc>
<rect width="100%" height="100%" fill="#ffffff"/>
<text x="24" y="24" font-family="Inter,Segoe UI,Arial,sans-serif" font-size="16" font-weight="700" fill="#111827">Qwen3.6 35B-A3B 4-bit MTP accept rate</text>
<text x="24" y="42" font-family="Inter,Segoe UI,Arial,sans-serif" font-size="10" fill="#6b7280">flappy, long_code, python_modules_long combined; accepted/drafted; box = IQR; dots = measured runs</text>
<text x="732" y="24" text-anchor="end" font-family="Inter,Segoe UI,Arial,sans-serif" font-size="10" fill="#6b7280">%</text>
<text x="732" y="42" text-anchor="end" font-family="Inter,Segoe UI,Arial,sans-serif" font-size="10" font-weight="700" fill="#374151">Higher is better</text>
<line x1="60" y1="338.0" x2="732" y2="338.0" stroke="#e5e7eb" stroke-width="1"/>
<text x="52" y="341.0" text-anchor="end" font-family="Inter,Segoe UI,Arial,sans-serif" font-size="10" fill="#6b7280">0%</text>
<line x1="60" y1="203.0" x2="732" y2="203.0" stroke="#e5e7eb" stroke-width="1"/>
<text x="52" y="206.0" text-anchor="end" font-family="Inter,Segoe UI,Arial,sans-serif" font-size="10" fill="#6b7280">50%</text>
<line x1="60" y1="68.0" x2="732" y2="68.0" stroke="#e5e7eb" stroke-width="1"/>
<text x="52" y="71.0" text-anchor="end" font-family="Inter,Segoe UI,Arial,sans-serif" font-size="10" fill="#6b7280">100%</text>
<line x1="60" y1="208.6" x2="732" y2="208.6" stroke="#dc2626" stroke-width="1.2" stroke-dasharray="1 4" stroke-linecap="round"/>
<text x="396.0" y="375" text-anchor="middle" font-family="Inter,Segoe UI,Arial,sans-serif" font-size="11" font-weight="700" fill="#111827">all suites</text>
<line x1="396.0" y1="157.2" x2="396.0" y2="238.0" stroke="#a78bfa" stroke-opacity="0.82" stroke-width="1.7"/>
<line x1="387.4" y1="157.2" x2="404.6" y2="157.2" stroke="#a78bfa" stroke-opacity="0.82" stroke-width="1.7"/>
<line x1="387.4" y1="238.0" x2="404.6" y2="238.0" stroke="#a78bfa" stroke-opacity="0.82" stroke-width="1.7"/>
<rect x="384.0" y="197.1" width="24.0" height="22.2" rx="2" fill="#a78bfa" fill-opacity="0.18" stroke="#a78bfa" stroke-opacity="0.82" stroke-width="1.7"/>
<line x1="384.0" y1="208.6" x2="408.0" y2="208.6" stroke="#a78bfa" stroke-opacity="0.92" stroke-width="2.4"/>
<circle cx="393.0" cy="207.4" r="1.5" fill="#a78bfa" fill-opacity="0.72"/>
<circle cx="394.5" cy="204.4" r="1.5" fill="#a78bfa" fill-opacity="0.72"/>
<circle cx="396.0" cy="202.0" r="1.5" fill="#a78bfa" fill-opacity="0.72"/>
<circle cx="397.5" cy="205.0" r="1.5" fill="#a78bfa" fill-opacity="0.72"/>
<circle cx="399.0" cy="213.3" r="1.5" fill="#a78bfa" fill-opacity="0.72"/>
<circle cx="393.0" cy="181.7" r="1.5" fill="#a78bfa" fill-opacity="0.72"/>
<circle cx="394.5" cy="190.0" r="1.5" fill="#a78bfa" fill-opacity="0.72"/>
<circle cx="396.0" cy="178.8" r="1.5" fill="#a78bfa" fill-opacity="0.72"/>
<circle cx="397.5" cy="184.9" r="1.5" fill="#a78bfa" fill-opacity="0.72"/>
<circle cx="399.0" cy="179.7" r="1.5" fill="#a78bfa" fill-opacity="0.72"/>
<circle cx="393.0" cy="221.0" r="1.5" fill="#a78bfa" fill-opacity="0.72"/>
<circle cx="394.5" cy="219.9" r="1.5" fill="#a78bfa" fill-opacity="0.72"/>
<circle cx="396.0" cy="222.7" r="1.5" fill="#a78bfa" fill-opacity="0.72"/>
<circle cx="397.5" cy="222.7" r="1.5" fill="#a78bfa" fill-opacity="0.72"/>
<circle cx="399.0" cy="220.5" r="1.5" fill="#a78bfa" fill-opacity="0.72"/>
<circle cx="393.0" cy="200.6" r="1.5" fill="#a78bfa" fill-opacity="0.72"/>
<circle cx="394.5" cy="206.0" r="1.5" fill="#a78bfa" fill-opacity="0.72"/>
<circle cx="396.0" cy="205.4" r="1.5" fill="#a78bfa" fill-opacity="0.72"/>
<circle cx="397.5" cy="209.0" r="1.5" fill="#a78bfa" fill-opacity="0.72"/>
<circle cx="399.0" cy="200.8" r="1.5" fill="#a78bfa" fill-opacity="0.72"/>
<circle cx="393.0" cy="158.7" r="1.5" fill="#a78bfa" fill-opacity="0.72"/>
<circle cx="394.5" cy="157.2" r="1.5" fill="#a78bfa" fill-opacity="0.72"/>
<circle cx="396.0" cy="158.0" r="1.5" fill="#a78bfa" fill-opacity="0.72"/>
<circle cx="397.5" cy="158.0" r="1.5" fill="#a78bfa" fill-opacity="0.72"/>
<circle cx="399.0" cy="158.7" r="1.5" fill="#a78bfa" fill-opacity="0.72"/>
<circle cx="393.0" cy="196.8" r="1.5" fill="#a78bfa" fill-opacity="0.72"/>
<circle cx="394.5" cy="197.5" r="1.5" fill="#a78bfa" fill-opacity="0.72"/>
<circle cx="396.0" cy="188.7" r="1.5" fill="#a78bfa" fill-opacity="0.72"/>
<circle cx="397.5" cy="192.4" r="1.5" fill="#a78bfa" fill-opacity="0.72"/>
<circle cx="399.0" cy="191.1" r="1.5" fill="#a78bfa" fill-opacity="0.72"/>
<circle cx="393.0" cy="208.6" r="1.5" fill="#a78bfa" fill-opacity="0.72"/>
<circle cx="394.5" cy="204.2" r="1.5" fill="#a78bfa" fill-opacity="0.72"/>
<circle cx="396.0" cy="207.4" r="1.5" fill="#a78bfa" fill-opacity="0.72"/>
<circle cx="397.5" cy="202.0" r="1.5" fill="#a78bfa" fill-opacity="0.72"/>
<circle cx="399.0" cy="207.2" r="1.5" fill="#a78bfa" fill-opacity="0.72"/>
<circle cx="393.0" cy="216.5" r="1.5" fill="#a78bfa" fill-opacity="0.72"/>
<circle cx="394.5" cy="218.2" r="1.5" fill="#a78bfa" fill-opacity="0.72"/>
<circle cx="396.0" cy="215.0" r="1.5" fill="#a78bfa" fill-opacity="0.72"/>
<circle cx="397.5" cy="211.5" r="1.5" fill="#a78bfa" fill-opacity="0.72"/>
<circle cx="399.0" cy="214.8" r="1.5" fill="#a78bfa" fill-opacity="0.72"/>
<circle cx="393.0" cy="231.3" r="1.5" fill="#a78bfa" fill-opacity="0.72"/>
<circle cx="394.5" cy="224.3" r="1.5" fill="#a78bfa" fill-opacity="0.72"/>
<circle cx="396.0" cy="228.1" r="1.5" fill="#a78bfa" fill-opacity="0.72"/>
<circle cx="397.5" cy="227.0" r="1.5" fill="#a78bfa" fill-opacity="0.72"/>
<circle cx="399.0" cy="238.0" r="1.5" fill="#a78bfa" fill-opacity="0.72"/>
<circle cx="393.0" cy="225.9" r="1.5" fill="#a78bfa" fill-opacity="0.72"/>
<circle cx="394.5" cy="214.8" r="1.5" fill="#a78bfa" fill-opacity="0.72"/>
<circle cx="396.0" cy="217.8" r="1.5" fill="#a78bfa" fill-opacity="0.72"/>
<circle cx="397.5" cy="218.8" r="1.5" fill="#a78bfa" fill-opacity="0.72"/>
<circle cx="399.0" cy="216.7" r="1.5" fill="#a78bfa" fill-opacity="0.72"/>
<circle cx="393.0" cy="218.2" r="1.5" fill="#a78bfa" fill-opacity="0.72"/>
<circle cx="394.5" cy="227.6" r="1.5" fill="#a78bfa" fill-opacity="0.72"/>
<circle cx="396.0" cy="230.8" r="1.5" fill="#a78bfa" fill-opacity="0.72"/>
<circle cx="397.5" cy="213.8" r="1.5" fill="#a78bfa" fill-opacity="0.72"/>
<circle cx="399.0" cy="221.7" r="1.5" fill="#a78bfa" fill-opacity="0.72"/>
<rect x="60.0" y="405" width="10" height="10" rx="2" fill="#a78bfa" fill-opacity="0.72"/>
<text x="74.0" y="414" font-family="Inter,Segoe UI,Arial,sans-serif" font-size="10" fill="#374151">MTPLX 0.3.7</text>
</svg>
