<svg xmlns="http://www.w3.org/2000/svg" width="760" height="430" viewBox="0 0 760 430" role="img" aria-labelledby="title desc">
<title>Qwen3.6 27B 4-bit MTP accept rate</title>
<desc>Grouped box-and-whisker plot comparing MTPLX 0.3.7 across all suites.</desc>
<rect width="100%" height="100%" fill="#ffffff"/>
<text x="24" y="24" font-family="Inter,Segoe UI,Arial,sans-serif" font-size="16" font-weight="700" fill="#111827">Qwen3.6 27B 4-bit MTP accept rate</text>
<text x="24" y="42" font-family="Inter,Segoe UI,Arial,sans-serif" font-size="10" fill="#6b7280">flappy, long_code, python_modules_long combined; accepted/drafted; box = IQR; dots = measured runs</text>
<text x="732" y="24" text-anchor="end" font-family="Inter,Segoe UI,Arial,sans-serif" font-size="10" fill="#6b7280">%</text>
<text x="732" y="42" text-anchor="end" font-family="Inter,Segoe UI,Arial,sans-serif" font-size="10" font-weight="700" fill="#374151">Higher is better</text>
<line x1="60" y1="338.0" x2="732" y2="338.0" stroke="#e5e7eb" stroke-width="1"/>
<text x="52" y="341.0" text-anchor="end" font-family="Inter,Segoe UI,Arial,sans-serif" font-size="10" fill="#6b7280">0%</text>
<line x1="60" y1="203.0" x2="732" y2="203.0" stroke="#e5e7eb" stroke-width="1"/>
<text x="52" y="206.0" text-anchor="end" font-family="Inter,Segoe UI,Arial,sans-serif" font-size="10" fill="#6b7280">50%</text>
<line x1="60" y1="68.0" x2="732" y2="68.0" stroke="#e5e7eb" stroke-width="1"/>
<text x="52" y="71.0" text-anchor="end" font-family="Inter,Segoe UI,Arial,sans-serif" font-size="10" fill="#6b7280">100%</text>
<line x1="60" y1="69.1" x2="732" y2="69.1" stroke="#dc2626" stroke-width="1.2" stroke-dasharray="1 4" stroke-linecap="round"/>
<text x="396.0" y="375" text-anchor="middle" font-family="Inter,Segoe UI,Arial,sans-serif" font-size="11" font-weight="700" fill="#111827">all suites</text>
<line x1="396.0" y1="68.0" x2="396.0" y2="118.7" stroke="#a78bfa" stroke-opacity="0.82" stroke-width="1.7"/>
<line x1="387.4" y1="68.0" x2="404.6" y2="68.0" stroke="#a78bfa" stroke-opacity="0.82" stroke-width="1.7"/>
<line x1="387.4" y1="118.7" x2="404.6" y2="118.7" stroke="#a78bfa" stroke-opacity="0.82" stroke-width="1.7"/>
<rect x="384.0" y="68.0" width="24.0" height="16.3" rx="2" fill="#a78bfa" fill-opacity="0.18" stroke="#a78bfa" stroke-opacity="0.82" stroke-width="1.7"/>
<line x1="384.0" y1="69.1" x2="408.0" y2="69.1" stroke="#a78bfa" stroke-opacity="0.92" stroke-width="2.4"/>
<circle cx="393.0" cy="68.0" r="1.5" fill="#a78bfa" fill-opacity="0.72"/>
<circle cx="394.5" cy="68.0" r="1.5" fill="#a78bfa" fill-opacity="0.72"/>
<circle cx="396.0" cy="68.0" r="1.5" fill="#a78bfa" fill-opacity="0.72"/>
<circle cx="397.5" cy="68.0" r="1.5" fill="#a78bfa" fill-opacity="0.72"/>
<circle cx="399.0" cy="68.0" r="1.5" fill="#a78bfa" fill-opacity="0.72"/>
<circle cx="393.0" cy="71.1" r="1.5" fill="#a78bfa" fill-opacity="0.72"/>
<circle cx="394.5" cy="74.7" r="1.5" fill="#a78bfa" fill-opacity="0.72"/>
<circle cx="396.0" cy="71.1" r="1.5" fill="#a78bfa" fill-opacity="0.72"/>
<circle cx="397.5" cy="77.7" r="1.5" fill="#a78bfa" fill-opacity="0.72"/>
<circle cx="399.0" cy="78.7" r="1.5" fill="#a78bfa" fill-opacity="0.72"/>
<circle cx="393.0" cy="68.0" r="1.5" fill="#a78bfa" fill-opacity="0.72"/>
<circle cx="394.5" cy="68.0" r="1.5" fill="#a78bfa" fill-opacity="0.72"/>
<circle cx="396.0" cy="68.0" r="1.5" fill="#a78bfa" fill-opacity="0.72"/>
<circle cx="397.5" cy="68.0" r="1.5" fill="#a78bfa" fill-opacity="0.72"/>
<circle cx="399.0" cy="68.0" r="1.5" fill="#a78bfa" fill-opacity="0.72"/>
<circle cx="393.0" cy="68.0" r="1.5" fill="#a78bfa" fill-opacity="0.72"/>
<circle cx="394.5" cy="68.0" r="1.5" fill="#a78bfa" fill-opacity="0.72"/>
<circle cx="396.0" cy="68.0" r="1.5" fill="#a78bfa" fill-opacity="0.72"/>
<circle cx="397.5" cy="68.0" r="1.5" fill="#a78bfa" fill-opacity="0.72"/>
<circle cx="399.0" cy="68.0" r="1.5" fill="#a78bfa" fill-opacity="0.72"/>
<circle cx="393.0" cy="68.0" r="1.5" fill="#a78bfa" fill-opacity="0.72"/>
<circle cx="394.5" cy="68.4" r="1.5" fill="#a78bfa" fill-opacity="0.72"/>
<circle cx="396.0" cy="68.0" r="1.5" fill="#a78bfa" fill-opacity="0.72"/>
<circle cx="397.5" cy="68.0" r="1.5" fill="#a78bfa" fill-opacity="0.72"/>
<circle cx="399.0" cy="68.0" r="1.5" fill="#a78bfa" fill-opacity="0.72"/>
<circle cx="393.0" cy="70.5" r="1.5" fill="#a78bfa" fill-opacity="0.72"/>
<circle cx="394.5" cy="72.3" r="1.5" fill="#a78bfa" fill-opacity="0.72"/>
<circle cx="396.0" cy="69.4" r="1.5" fill="#a78bfa" fill-opacity="0.72"/>
<circle cx="397.5" cy="69.4" r="1.5" fill="#a78bfa" fill-opacity="0.72"/>
<circle cx="399.0" cy="71.2" r="1.5" fill="#a78bfa" fill-opacity="0.72"/>
<circle cx="393.0" cy="69.1" r="1.5" fill="#a78bfa" fill-opacity="0.72"/>
<circle cx="394.5" cy="69.1" r="1.5" fill="#a78bfa" fill-opacity="0.72"/>
<circle cx="396.0" cy="69.1" r="1.5" fill="#a78bfa" fill-opacity="0.72"/>
<circle cx="397.5" cy="70.5" r="1.5" fill="#a78bfa" fill-opacity="0.72"/>
<circle cx="399.0" cy="69.1" r="1.5" fill="#a78bfa" fill-opacity="0.72"/>
<circle cx="393.0" cy="68.0" r="1.5" fill="#a78bfa" fill-opacity="0.72"/>
<circle cx="394.5" cy="68.0" r="1.5" fill="#a78bfa" fill-opacity="0.72"/>
<circle cx="396.0" cy="68.0" r="1.5" fill="#a78bfa" fill-opacity="0.72"/>
<circle cx="397.5" cy="68.0" r="1.5" fill="#a78bfa" fill-opacity="0.72"/>
<circle cx="399.0" cy="68.0" r="1.5" fill="#a78bfa" fill-opacity="0.72"/>
<circle cx="393.0" cy="118.7" r="1.5" fill="#a78bfa" fill-opacity="0.72"/>
<circle cx="394.5" cy="111.4" r="1.5" fill="#a78bfa" fill-opacity="0.72"/>
<circle cx="396.0" cy="113.9" r="1.5" fill="#a78bfa" fill-opacity="0.72"/>
<circle cx="397.5" cy="113.6" r="1.5" fill="#a78bfa" fill-opacity="0.72"/>
<circle cx="399.0" cy="110.8" r="1.5" fill="#a78bfa" fill-opacity="0.72"/>
<circle cx="393.0" cy="99.9" r="1.5" fill="#a78bfa" fill-opacity="0.72"/>
<circle cx="394.5" cy="107.2" r="1.5" fill="#a78bfa" fill-opacity="0.72"/>
<circle cx="396.0" cy="98.7" r="1.5" fill="#a78bfa" fill-opacity="0.72"/>
<circle cx="397.5" cy="104.3" r="1.5" fill="#a78bfa" fill-opacity="0.72"/>
<circle cx="399.0" cy="97.7" r="1.5" fill="#a78bfa" fill-opacity="0.72"/>
<circle cx="393.0" cy="90.6" r="1.5" fill="#a78bfa" fill-opacity="0.72"/>
<circle cx="394.5" cy="98.0" r="1.5" fill="#a78bfa" fill-opacity="0.72"/>
<circle cx="396.0" cy="87.1" r="1.5" fill="#a78bfa" fill-opacity="0.72"/>
<circle cx="397.5" cy="81.5" r="1.5" fill="#a78bfa" fill-opacity="0.72"/>
<circle cx="399.0" cy="92.2" r="1.5" fill="#a78bfa" fill-opacity="0.72"/>
<rect x="60.0" y="405" width="10" height="10" rx="2" fill="#a78bfa" fill-opacity="0.72"/>
<text x="74.0" y="414" font-family="Inter,Segoe UI,Arial,sans-serif" font-size="10" fill="#374151">MTPLX 0.3.7</text>
</svg>
