<svg xmlns="http://www.w3.org/2000/svg" width="760" height="430" viewBox="0 0 760 430" role="img" aria-labelledby="title desc">
<title>Qwen3.6 27B 4-bit MTP decode throughput</title>
<desc>Grouped box-and-whisker plot comparing MTPLX 0.3.7 across all suites.</desc>
<rect width="100%" height="100%" fill="#ffffff"/>
<text x="24" y="24" font-family="Inter,Segoe UI,Arial,sans-serif" font-size="16" font-weight="700" fill="#111827">Qwen3.6 27B 4-bit MTP decode throughput</text>
<text x="24" y="42" font-family="Inter,Segoe UI,Arial,sans-serif" font-size="10" fill="#6b7280">flappy, long_code, python_modules_long combined; box = IQR; whiskers = min/max; dots = measured runs</text>
<text x="732" y="24" text-anchor="end" font-family="Inter,Segoe UI,Arial,sans-serif" font-size="10" fill="#6b7280">tok/s</text>
<text x="732" y="42" text-anchor="end" font-family="Inter,Segoe UI,Arial,sans-serif" font-size="10" font-weight="700" fill="#374151">Higher is better</text>
<line x1="60" y1="338.0" x2="732" y2="338.0" stroke="#e5e7eb" stroke-width="1"/>
<text x="52" y="341.0" text-anchor="end" font-family="Inter,Segoe UI,Arial,sans-serif" font-size="10" fill="#6b7280">0.0</text>
<line x1="60" y1="203.0" x2="732" y2="203.0" stroke="#e5e7eb" stroke-width="1"/>
<text x="52" y="206.0" text-anchor="end" font-family="Inter,Segoe UI,Arial,sans-serif" font-size="10" fill="#6b7280">40</text>
<line x1="60" y1="68.0" x2="732" y2="68.0" stroke="#e5e7eb" stroke-width="1"/>
<text x="52" y="71.0" text-anchor="end" font-family="Inter,Segoe UI,Arial,sans-serif" font-size="10" fill="#6b7280">80</text>
<line x1="60" y1="140.6" x2="732" y2="140.6" stroke="#dc2626" stroke-width="1.2" stroke-dasharray="1 4" stroke-linecap="round"/>
<text x="396.0" y="375" text-anchor="middle" font-family="Inter,Segoe UI,Arial,sans-serif" font-size="11" font-weight="700" fill="#111827">all suites</text>
<line x1="396.0" y1="138.2" x2="396.0" y2="167.3" stroke="#a78bfa" stroke-opacity="0.82" stroke-width="1.7"/>
<line x1="387.4" y1="138.2" x2="404.6" y2="138.2" stroke="#a78bfa" stroke-opacity="0.82" stroke-width="1.7"/>
<line x1="387.4" y1="167.3" x2="404.6" y2="167.3" stroke="#a78bfa" stroke-opacity="0.82" stroke-width="1.7"/>
<rect x="384.0" y="139.5" width="24.0" height="4.9" rx="2" fill="#a78bfa" fill-opacity="0.18" stroke="#a78bfa" stroke-opacity="0.82" stroke-width="1.7"/>
<line x1="384.0" y1="140.6" x2="408.0" y2="140.6" stroke="#a78bfa" stroke-opacity="0.92" stroke-width="2.4"/>
<circle cx="393.0" cy="140.9" r="1.5" fill="#a78bfa" fill-opacity="0.72"/>
<circle cx="394.5" cy="139.0" r="1.5" fill="#a78bfa" fill-opacity="0.72"/>
<circle cx="396.0" cy="140.1" r="1.5" fill="#a78bfa" fill-opacity="0.72"/>
<circle cx="397.5" cy="140.4" r="1.5" fill="#a78bfa" fill-opacity="0.72"/>
<circle cx="399.0" cy="140.0" r="1.5" fill="#a78bfa" fill-opacity="0.72"/>
<circle cx="393.0" cy="140.3" r="1.5" fill="#a78bfa" fill-opacity="0.72"/>
<circle cx="394.5" cy="140.3" r="1.5" fill="#a78bfa" fill-opacity="0.72"/>
<circle cx="396.0" cy="139.2" r="1.5" fill="#a78bfa" fill-opacity="0.72"/>
<circle cx="397.5" cy="139.2" r="1.5" fill="#a78bfa" fill-opacity="0.72"/>
<circle cx="399.0" cy="139.8" r="1.5" fill="#a78bfa" fill-opacity="0.72"/>
<circle cx="393.0" cy="139.1" r="1.5" fill="#a78bfa" fill-opacity="0.72"/>
<circle cx="394.5" cy="139.8" r="1.5" fill="#a78bfa" fill-opacity="0.72"/>
<circle cx="396.0" cy="140.0" r="1.5" fill="#a78bfa" fill-opacity="0.72"/>
<circle cx="397.5" cy="139.2" r="1.5" fill="#a78bfa" fill-opacity="0.72"/>
<circle cx="399.0" cy="138.7" r="1.5" fill="#a78bfa" fill-opacity="0.72"/>
<circle cx="393.0" cy="138.6" r="1.5" fill="#a78bfa" fill-opacity="0.72"/>
<circle cx="394.5" cy="138.5" r="1.5" fill="#a78bfa" fill-opacity="0.72"/>
<circle cx="396.0" cy="139.2" r="1.5" fill="#a78bfa" fill-opacity="0.72"/>
<circle cx="397.5" cy="138.6" r="1.5" fill="#a78bfa" fill-opacity="0.72"/>
<circle cx="399.0" cy="138.7" r="1.5" fill="#a78bfa" fill-opacity="0.72"/>
<circle cx="393.0" cy="140.6" r="1.5" fill="#a78bfa" fill-opacity="0.72"/>
<circle cx="394.5" cy="141.1" r="1.5" fill="#a78bfa" fill-opacity="0.72"/>
<circle cx="396.0" cy="139.7" r="1.5" fill="#a78bfa" fill-opacity="0.72"/>
<circle cx="397.5" cy="139.6" r="1.5" fill="#a78bfa" fill-opacity="0.72"/>
<circle cx="399.0" cy="140.8" r="1.5" fill="#a78bfa" fill-opacity="0.72"/>
<circle cx="393.0" cy="142.4" r="1.5" fill="#a78bfa" fill-opacity="0.72"/>
<circle cx="394.5" cy="142.8" r="1.5" fill="#a78bfa" fill-opacity="0.72"/>
<circle cx="396.0" cy="141.4" r="1.5" fill="#a78bfa" fill-opacity="0.72"/>
<circle cx="397.5" cy="141.6" r="1.5" fill="#a78bfa" fill-opacity="0.72"/>
<circle cx="399.0" cy="142.4" r="1.5" fill="#a78bfa" fill-opacity="0.72"/>
<circle cx="393.0" cy="141.6" r="1.5" fill="#a78bfa" fill-opacity="0.72"/>
<circle cx="394.5" cy="140.8" r="1.5" fill="#a78bfa" fill-opacity="0.72"/>
<circle cx="396.0" cy="138.2" r="1.5" fill="#a78bfa" fill-opacity="0.72"/>
<circle cx="397.5" cy="141.1" r="1.5" fill="#a78bfa" fill-opacity="0.72"/>
<circle cx="399.0" cy="141.8" r="1.5" fill="#a78bfa" fill-opacity="0.72"/>
<circle cx="393.0" cy="138.6" r="1.5" fill="#a78bfa" fill-opacity="0.72"/>
<circle cx="394.5" cy="139.9" r="1.5" fill="#a78bfa" fill-opacity="0.72"/>
<circle cx="396.0" cy="139.4" r="1.5" fill="#a78bfa" fill-opacity="0.72"/>
<circle cx="397.5" cy="139.6" r="1.5" fill="#a78bfa" fill-opacity="0.72"/>
<circle cx="399.0" cy="139.9" r="1.5" fill="#a78bfa" fill-opacity="0.72"/>
<circle cx="393.0" cy="167.3" r="1.5" fill="#a78bfa" fill-opacity="0.72"/>
<circle cx="394.5" cy="163.3" r="1.5" fill="#a78bfa" fill-opacity="0.72"/>
<circle cx="396.0" cy="161.7" r="1.5" fill="#a78bfa" fill-opacity="0.72"/>
<circle cx="397.5" cy="161.0" r="1.5" fill="#a78bfa" fill-opacity="0.72"/>
<circle cx="399.0" cy="160.1" r="1.5" fill="#a78bfa" fill-opacity="0.72"/>
<circle cx="393.0" cy="153.8" r="1.5" fill="#a78bfa" fill-opacity="0.72"/>
<circle cx="394.5" cy="157.6" r="1.5" fill="#a78bfa" fill-opacity="0.72"/>
<circle cx="396.0" cy="152.6" r="1.5" fill="#a78bfa" fill-opacity="0.72"/>
<circle cx="397.5" cy="155.9" r="1.5" fill="#a78bfa" fill-opacity="0.72"/>
<circle cx="399.0" cy="151.7" r="1.5" fill="#a78bfa" fill-opacity="0.72"/>
<circle cx="393.0" cy="149.7" r="1.5" fill="#a78bfa" fill-opacity="0.72"/>
<circle cx="394.5" cy="151.0" r="1.5" fill="#a78bfa" fill-opacity="0.72"/>
<circle cx="396.0" cy="146.1" r="1.5" fill="#a78bfa" fill-opacity="0.72"/>
<circle cx="397.5" cy="142.8" r="1.5" fill="#a78bfa" fill-opacity="0.72"/>
<circle cx="399.0" cy="150.4" r="1.5" fill="#a78bfa" fill-opacity="0.72"/>
<rect x="60.0" y="405" width="10" height="10" rx="2" fill="#a78bfa" fill-opacity="0.72"/>
<text x="74.0" y="414" font-family="Inter,Segoe UI,Arial,sans-serif" font-size="10" fill="#374151">MTPLX 0.3.7</text>
</svg>
