<svg xmlns="http://www.w3.org/2000/svg" width="760" height="430" viewBox="0 0 760 430" role="img" aria-labelledby="title desc">
<title>Qwen3.6 MTP fair decode throughput</title>
<desc>Grouped box-and-whisker plot comparing MTPLX 0.3.7 across 27B, 35B-A3B.</desc>
<rect width="100%" height="100%" fill="#ffffff"/>
<text x="24" y="24" font-family="Inter,Segoe UI,Arial,sans-serif" font-size="16" font-weight="700" fill="#111827">Qwen3.6 MTP fair decode throughput</text>
<text x="24" y="42" font-family="Inter,Segoe UI,Arial,sans-serif" font-size="10" fill="#6b7280">flappy, long_code, python_modules_long combined per model; box = IQR; whiskers = min/max; dots = measured runs</text>
<text x="732" y="24" text-anchor="end" font-family="Inter,Segoe UI,Arial,sans-serif" font-size="10" fill="#6b7280">tok/s</text>
<text x="732" y="42" text-anchor="end" font-family="Inter,Segoe UI,Arial,sans-serif" font-size="10" font-weight="700" fill="#374151">Higher is better</text>
<line x1="60" y1="338.0" x2="732" y2="338.0" stroke="#e5e7eb" stroke-width="1"/>
<text x="52" y="341.0" text-anchor="end" font-family="Inter,Segoe UI,Arial,sans-serif" font-size="10" fill="#6b7280">0.0</text>
<line x1="60" y1="203.0" x2="732" y2="203.0" stroke="#e5e7eb" stroke-width="1"/>
<text x="52" y="206.0" text-anchor="end" font-family="Inter,Segoe UI,Arial,sans-serif" font-size="10" fill="#6b7280">100</text>
<line x1="60" y1="68.0" x2="732" y2="68.0" stroke="#e5e7eb" stroke-width="1"/>
<text x="52" y="71.0" text-anchor="end" font-family="Inter,Segoe UI,Arial,sans-serif" font-size="10" fill="#6b7280">200</text>
<line x1="60" y1="200.4" x2="732" y2="200.4" stroke="#dc2626" stroke-width="1.2" stroke-dasharray="1 4" stroke-linecap="round"/>
<text x="228.0" y="375" text-anchor="middle" font-family="Inter,Segoe UI,Arial,sans-serif" font-size="11" font-weight="700" fill="#111827">27B</text>
<line x1="228.0" y1="258.1" x2="228.0" y2="269.7" stroke="#a78bfa" stroke-opacity="0.82" stroke-width="1.7"/>
<line x1="219.4" y1="258.1" x2="236.6" y2="258.1" stroke="#a78bfa" stroke-opacity="0.82" stroke-width="1.7"/>
<line x1="219.4" y1="269.7" x2="236.6" y2="269.7" stroke="#a78bfa" stroke-opacity="0.82" stroke-width="1.7"/>
<rect x="216.0" y="258.6" width="24.0" height="2.0" rx="2" fill="#a78bfa" fill-opacity="0.18" stroke="#a78bfa" stroke-opacity="0.82" stroke-width="1.7"/>
<line x1="216.0" y1="259.0" x2="240.0" y2="259.0" stroke="#a78bfa" stroke-opacity="0.92" stroke-width="2.4"/>
<circle cx="225.0" cy="259.2" r="1.5" fill="#a78bfa" fill-opacity="0.72"/>
<circle cx="226.5" cy="258.4" r="1.5" fill="#a78bfa" fill-opacity="0.72"/>
<circle cx="228.0" cy="258.8" r="1.5" fill="#a78bfa" fill-opacity="0.72"/>
<circle cx="229.5" cy="259.0" r="1.5" fill="#a78bfa" fill-opacity="0.72"/>
<circle cx="231.0" cy="258.8" r="1.5" fill="#a78bfa" fill-opacity="0.72"/>
<circle cx="225.0" cy="258.9" r="1.5" fill="#a78bfa" fill-opacity="0.72"/>
<circle cx="226.5" cy="258.9" r="1.5" fill="#a78bfa" fill-opacity="0.72"/>
<circle cx="228.0" cy="258.5" r="1.5" fill="#a78bfa" fill-opacity="0.72"/>
<circle cx="229.5" cy="258.5" r="1.5" fill="#a78bfa" fill-opacity="0.72"/>
<circle cx="231.0" cy="258.7" r="1.5" fill="#a78bfa" fill-opacity="0.72"/>
<circle cx="225.0" cy="258.4" r="1.5" fill="#a78bfa" fill-opacity="0.72"/>
<circle cx="226.5" cy="258.7" r="1.5" fill="#a78bfa" fill-opacity="0.72"/>
<circle cx="228.0" cy="258.8" r="1.5" fill="#a78bfa" fill-opacity="0.72"/>
<circle cx="229.5" cy="258.5" r="1.5" fill="#a78bfa" fill-opacity="0.72"/>
<circle cx="231.0" cy="258.3" r="1.5" fill="#a78bfa" fill-opacity="0.72"/>
<circle cx="225.0" cy="258.3" r="1.5" fill="#a78bfa" fill-opacity="0.72"/>
<circle cx="226.5" cy="258.2" r="1.5" fill="#a78bfa" fill-opacity="0.72"/>
<circle cx="228.0" cy="258.5" r="1.5" fill="#a78bfa" fill-opacity="0.72"/>
<circle cx="229.5" cy="258.2" r="1.5" fill="#a78bfa" fill-opacity="0.72"/>
<circle cx="231.0" cy="258.3" r="1.5" fill="#a78bfa" fill-opacity="0.72"/>
<circle cx="225.0" cy="259.0" r="1.5" fill="#a78bfa" fill-opacity="0.72"/>
<circle cx="226.5" cy="259.2" r="1.5" fill="#a78bfa" fill-opacity="0.72"/>
<circle cx="228.0" cy="258.7" r="1.5" fill="#a78bfa" fill-opacity="0.72"/>
<circle cx="229.5" cy="258.6" r="1.5" fill="#a78bfa" fill-opacity="0.72"/>
<circle cx="231.0" cy="259.1" r="1.5" fill="#a78bfa" fill-opacity="0.72"/>
<circle cx="225.0" cy="259.7" r="1.5" fill="#a78bfa" fill-opacity="0.72"/>
<circle cx="226.5" cy="259.9" r="1.5" fill="#a78bfa" fill-opacity="0.72"/>
<circle cx="228.0" cy="259.4" r="1.5" fill="#a78bfa" fill-opacity="0.72"/>
<circle cx="229.5" cy="259.4" r="1.5" fill="#a78bfa" fill-opacity="0.72"/>
<circle cx="231.0" cy="259.7" r="1.5" fill="#a78bfa" fill-opacity="0.72"/>
<circle cx="225.0" cy="259.4" r="1.5" fill="#a78bfa" fill-opacity="0.72"/>
<circle cx="226.5" cy="259.1" r="1.5" fill="#a78bfa" fill-opacity="0.72"/>
<circle cx="228.0" cy="258.1" r="1.5" fill="#a78bfa" fill-opacity="0.72"/>
<circle cx="229.5" cy="259.2" r="1.5" fill="#a78bfa" fill-opacity="0.72"/>
<circle cx="231.0" cy="259.5" r="1.5" fill="#a78bfa" fill-opacity="0.72"/>
<circle cx="225.0" cy="258.3" r="1.5" fill="#a78bfa" fill-opacity="0.72"/>
<circle cx="226.5" cy="258.8" r="1.5" fill="#a78bfa" fill-opacity="0.72"/>
<circle cx="228.0" cy="258.6" r="1.5" fill="#a78bfa" fill-opacity="0.72"/>
<circle cx="229.5" cy="258.7" r="1.5" fill="#a78bfa" fill-opacity="0.72"/>
<circle cx="231.0" cy="258.8" r="1.5" fill="#a78bfa" fill-opacity="0.72"/>
<circle cx="225.0" cy="269.7" r="1.5" fill="#a78bfa" fill-opacity="0.72"/>
<circle cx="226.5" cy="268.1" r="1.5" fill="#a78bfa" fill-opacity="0.72"/>
<circle cx="228.0" cy="267.5" r="1.5" fill="#a78bfa" fill-opacity="0.72"/>
<circle cx="229.5" cy="267.2" r="1.5" fill="#a78bfa" fill-opacity="0.72"/>
<circle cx="231.0" cy="266.8" r="1.5" fill="#a78bfa" fill-opacity="0.72"/>
<circle cx="225.0" cy="264.3" r="1.5" fill="#a78bfa" fill-opacity="0.72"/>
<circle cx="226.5" cy="265.9" r="1.5" fill="#a78bfa" fill-opacity="0.72"/>
<circle cx="228.0" cy="263.8" r="1.5" fill="#a78bfa" fill-opacity="0.72"/>
<circle cx="229.5" cy="265.2" r="1.5" fill="#a78bfa" fill-opacity="0.72"/>
<circle cx="231.0" cy="263.5" r="1.5" fill="#a78bfa" fill-opacity="0.72"/>
<circle cx="225.0" cy="262.7" r="1.5" fill="#a78bfa" fill-opacity="0.72"/>
<circle cx="226.5" cy="263.2" r="1.5" fill="#a78bfa" fill-opacity="0.72"/>
<circle cx="228.0" cy="261.2" r="1.5" fill="#a78bfa" fill-opacity="0.72"/>
<circle cx="229.5" cy="259.9" r="1.5" fill="#a78bfa" fill-opacity="0.72"/>
<circle cx="231.0" cy="263.0" r="1.5" fill="#a78bfa" fill-opacity="0.72"/>
<text x="564.0" y="375" text-anchor="middle" font-family="Inter,Segoe UI,Arial,sans-serif" font-size="11" font-weight="700" fill="#111827">35B-A3B</text>
<line x1="564.0" y1="180.9" x2="564.0" y2="211.5" stroke="#a78bfa" stroke-opacity="0.82" stroke-width="1.7"/>
<line x1="555.4" y1="180.9" x2="572.6" y2="180.9" stroke="#a78bfa" stroke-opacity="0.82" stroke-width="1.7"/>
<line x1="555.4" y1="211.5" x2="572.6" y2="211.5" stroke="#a78bfa" stroke-opacity="0.82" stroke-width="1.7"/>
<rect x="552.0" y="194.4" width="24.0" height="8.1" rx="2" fill="#a78bfa" fill-opacity="0.18" stroke="#a78bfa" stroke-opacity="0.82" stroke-width="1.7"/>
<line x1="552.0" y1="200.4" x2="576.0" y2="200.4" stroke="#a78bfa" stroke-opacity="0.92" stroke-width="2.4"/>
<circle cx="561.0" cy="198.1" r="1.5" fill="#a78bfa" fill-opacity="0.72"/>
<circle cx="562.5" cy="199.2" r="1.5" fill="#a78bfa" fill-opacity="0.72"/>
<circle cx="564.0" cy="195.5" r="1.5" fill="#a78bfa" fill-opacity="0.72"/>
<circle cx="565.5" cy="196.6" r="1.5" fill="#a78bfa" fill-opacity="0.72"/>
<circle cx="567.0" cy="199.4" r="1.5" fill="#a78bfa" fill-opacity="0.72"/>
<circle cx="561.0" cy="184.3" r="1.5" fill="#a78bfa" fill-opacity="0.72"/>
<circle cx="562.5" cy="189.3" r="1.5" fill="#a78bfa" fill-opacity="0.72"/>
<circle cx="564.0" cy="183.4" r="1.5" fill="#a78bfa" fill-opacity="0.72"/>
<circle cx="565.5" cy="186.1" r="1.5" fill="#a78bfa" fill-opacity="0.72"/>
<circle cx="567.0" cy="183.6" r="1.5" fill="#a78bfa" fill-opacity="0.72"/>
<circle cx="561.0" cy="202.3" r="1.5" fill="#a78bfa" fill-opacity="0.72"/>
<circle cx="562.5" cy="203.3" r="1.5" fill="#a78bfa" fill-opacity="0.72"/>
<circle cx="564.0" cy="201.9" r="1.5" fill="#a78bfa" fill-opacity="0.72"/>
<circle cx="565.5" cy="202.0" r="1.5" fill="#a78bfa" fill-opacity="0.72"/>
<circle cx="567.0" cy="204.2" r="1.5" fill="#a78bfa" fill-opacity="0.72"/>
<circle cx="561.0" cy="193.8" r="1.5" fill="#a78bfa" fill-opacity="0.72"/>
<circle cx="562.5" cy="196.0" r="1.5" fill="#a78bfa" fill-opacity="0.72"/>
<circle cx="564.0" cy="194.3" r="1.5" fill="#a78bfa" fill-opacity="0.72"/>
<circle cx="565.5" cy="196.3" r="1.5" fill="#a78bfa" fill-opacity="0.72"/>
<circle cx="567.0" cy="194.3" r="1.5" fill="#a78bfa" fill-opacity="0.72"/>
<circle cx="561.0" cy="182.5" r="1.5" fill="#a78bfa" fill-opacity="0.72"/>
<circle cx="562.5" cy="181.5" r="1.5" fill="#a78bfa" fill-opacity="0.72"/>
<circle cx="564.0" cy="184.2" r="1.5" fill="#a78bfa" fill-opacity="0.72"/>
<circle cx="565.5" cy="180.9" r="1.5" fill="#a78bfa" fill-opacity="0.72"/>
<circle cx="567.0" cy="182.0" r="1.5" fill="#a78bfa" fill-opacity="0.72"/>
<circle cx="561.0" cy="194.5" r="1.5" fill="#a78bfa" fill-opacity="0.72"/>
<circle cx="562.5" cy="195.0" r="1.5" fill="#a78bfa" fill-opacity="0.72"/>
<circle cx="564.0" cy="192.3" r="1.5" fill="#a78bfa" fill-opacity="0.72"/>
<circle cx="565.5" cy="195.6" r="1.5" fill="#a78bfa" fill-opacity="0.72"/>
<circle cx="567.0" cy="195.6" r="1.5" fill="#a78bfa" fill-opacity="0.72"/>
<circle cx="561.0" cy="200.7" r="1.5" fill="#a78bfa" fill-opacity="0.72"/>
<circle cx="562.5" cy="201.3" r="1.5" fill="#a78bfa" fill-opacity="0.72"/>
<circle cx="564.0" cy="200.4" r="1.5" fill="#a78bfa" fill-opacity="0.72"/>
<circle cx="565.5" cy="197.9" r="1.5" fill="#a78bfa" fill-opacity="0.72"/>
<circle cx="567.0" cy="201.5" r="1.5" fill="#a78bfa" fill-opacity="0.72"/>
<circle cx="561.0" cy="201.8" r="1.5" fill="#a78bfa" fill-opacity="0.72"/>
<circle cx="562.5" cy="202.6" r="1.5" fill="#a78bfa" fill-opacity="0.72"/>
<circle cx="564.0" cy="201.5" r="1.5" fill="#a78bfa" fill-opacity="0.72"/>
<circle cx="565.5" cy="200.5" r="1.5" fill="#a78bfa" fill-opacity="0.72"/>
<circle cx="567.0" cy="201.3" r="1.5" fill="#a78bfa" fill-opacity="0.72"/>
<circle cx="561.0" cy="206.7" r="1.5" fill="#a78bfa" fill-opacity="0.72"/>
<circle cx="562.5" cy="203.7" r="1.5" fill="#a78bfa" fill-opacity="0.72"/>
<circle cx="564.0" cy="204.6" r="1.5" fill="#a78bfa" fill-opacity="0.72"/>
<circle cx="565.5" cy="204.2" r="1.5" fill="#a78bfa" fill-opacity="0.72"/>
<circle cx="567.0" cy="211.5" r="1.5" fill="#a78bfa" fill-opacity="0.72"/>
<circle cx="561.0" cy="205.5" r="1.5" fill="#a78bfa" fill-opacity="0.72"/>
<circle cx="562.5" cy="200.7" r="1.5" fill="#a78bfa" fill-opacity="0.72"/>
<circle cx="564.0" cy="202.5" r="1.5" fill="#a78bfa" fill-opacity="0.72"/>
<circle cx="565.5" cy="206.4" r="1.5" fill="#a78bfa" fill-opacity="0.72"/>
<circle cx="567.0" cy="202.2" r="1.5" fill="#a78bfa" fill-opacity="0.72"/>
<circle cx="561.0" cy="202.7" r="1.5" fill="#a78bfa" fill-opacity="0.72"/>
<circle cx="562.5" cy="204.4" r="1.5" fill="#a78bfa" fill-opacity="0.72"/>
<circle cx="564.0" cy="205.2" r="1.5" fill="#a78bfa" fill-opacity="0.72"/>
<circle cx="565.5" cy="200.0" r="1.5" fill="#a78bfa" fill-opacity="0.72"/>
<circle cx="567.0" cy="203.1" r="1.5" fill="#a78bfa" fill-opacity="0.72"/>
<rect x="60.0" y="405" width="10" height="10" rx="2" fill="#a78bfa" fill-opacity="0.72"/>
<text x="74.0" y="414" font-family="Inter,Segoe UI,Arial,sans-serif" font-size="10" fill="#374151">MTPLX 0.3.7</text>
</svg>
