<svg xmlns="http://www.w3.org/2000/svg" width="900" height="460" viewBox="0 0 900 460" role="img" aria-labelledby="title desc">
<title>Qwen3.6 MTP fair decode throughput</title>
<desc>Grouped box-and-whisker plot comparing MTPLX 0.3.7, Light. MTP, Light. ngram+MTP, AX MTP+n-gram across 27B, 35B-A3B.</desc>
<rect width="100%" height="100%" fill="#f8fafc"/>
<text x="24" y="24" font-family="Inter,Segoe UI,Arial,sans-serif" font-size="16" font-weight="700" fill="#111827">Qwen3.6 MTP fair decode throughput</text>
<text x="24" y="46" font-family="Inter,Segoe UI,Arial,sans-serif" font-size="11" fill="#4b5563">All suites combined per model | box=IQR | whiskers=min/max | dots=runs</text>
<rect x="807" y="13" width="59" height="22" rx="11" fill="#eef2ff" stroke="#c7d2fe"/>
<text x="836.5" y="28" text-anchor="middle" font-family="Inter,Segoe UI,Arial,sans-serif" font-size="10" font-weight="700" fill="#3730a3">tok/s</text>
<text x="866" y="52" text-anchor="end" font-family="Inter,Segoe UI,Arial,sans-serif" font-size="10" font-weight="700" fill="#374151">Higher is better</text>
<rect x="64" y="86" width="676" height="268" rx="6" fill="#ffffff" stroke="#dbe3ef"/>
<line x1="64" y1="354.0" x2="740" y2="354.0" stroke="#e5e7eb" stroke-width="1"/>
<text x="56" y="357.0" text-anchor="end" font-family="Inter,Segoe UI,Arial,sans-serif" font-size="11" fill="#6b7280">0.0</text>
<line x1="64" y1="287.0" x2="740" y2="287.0" stroke="#e5e7eb" stroke-width="1"/>
<text x="56" y="290.0" text-anchor="end" font-family="Inter,Segoe UI,Arial,sans-serif" font-size="11" fill="#6b7280">125</text>
<line x1="64" y1="220.0" x2="740" y2="220.0" stroke="#e5e7eb" stroke-width="1"/>
<text x="56" y="223.0" text-anchor="end" font-family="Inter,Segoe UI,Arial,sans-serif" font-size="11" fill="#6b7280">250</text>
<line x1="64" y1="153.0" x2="740" y2="153.0" stroke="#e5e7eb" stroke-width="1"/>
<text x="56" y="156.0" text-anchor="end" font-family="Inter,Segoe UI,Arial,sans-serif" font-size="11" fill="#6b7280">375</text>
<line x1="64" y1="86.0" x2="740" y2="86.0" stroke="#e5e7eb" stroke-width="1"/>
<text x="56" y="89.0" text-anchor="end" font-family="Inter,Segoe UI,Arial,sans-serif" font-size="11" fill="#6b7280">500</text>
<line x1="64" y1="215.4" x2="740" y2="215.4" stroke="#dc2626" stroke-width="1.2" stroke-dasharray="1 4" stroke-linecap="round"/>
<text x="748" y="210.4" text-anchor="start" font-family="Inter,Segoe UI,Arial,sans-serif" font-size="11" font-weight="700" fill="#dc2626" data-label="highest median">highest: 259</text>
<text x="233.0" y="398" text-anchor="middle" font-family="Inter,Segoe UI,Arial,sans-serif" font-size="11" font-weight="700" fill="#111827">27B</text>
<circle cx="95.8" cy="322.7" r="1.45" fill="#14532d" fill-opacity="0.46"/>
<circle cx="98.8" cy="322.4" r="1.45" fill="#14532d" fill-opacity="0.46"/>
<circle cx="101.9" cy="322.6" r="1.45" fill="#14532d" fill-opacity="0.46"/>
<circle cx="104.9" cy="322.6" r="1.45" fill="#14532d" fill-opacity="0.46"/>
<circle cx="108.0" cy="322.5" r="1.45" fill="#14532d" fill-opacity="0.46"/>
<circle cx="111.1" cy="322.6" r="1.45" fill="#14532d" fill-opacity="0.46"/>
<circle cx="114.1" cy="322.6" r="1.45" fill="#14532d" fill-opacity="0.46"/>
<circle cx="117.2" cy="322.4" r="1.45" fill="#14532d" fill-opacity="0.46"/>
<circle cx="120.2" cy="322.4" r="1.45" fill="#14532d" fill-opacity="0.46"/>
<circle cx="95.8" cy="322.5" r="1.45" fill="#14532d" fill-opacity="0.46"/>
<circle cx="98.8" cy="322.4" r="1.45" fill="#14532d" fill-opacity="0.46"/>
<circle cx="101.9" cy="322.5" r="1.45" fill="#14532d" fill-opacity="0.46"/>
<circle cx="104.9" cy="322.6" r="1.45" fill="#14532d" fill-opacity="0.46"/>
<circle cx="108.0" cy="322.4" r="1.45" fill="#14532d" fill-opacity="0.46"/>
<circle cx="111.1" cy="322.3" r="1.45" fill="#14532d" fill-opacity="0.46"/>
<circle cx="114.1" cy="322.3" r="1.45" fill="#14532d" fill-opacity="0.46"/>
<circle cx="117.2" cy="322.3" r="1.45" fill="#14532d" fill-opacity="0.46"/>
<circle cx="120.2" cy="322.4" r="1.45" fill="#14532d" fill-opacity="0.46"/>
<circle cx="95.8" cy="322.3" r="1.45" fill="#14532d" fill-opacity="0.46"/>
<circle cx="98.8" cy="322.4" r="1.45" fill="#14532d" fill-opacity="0.46"/>
<circle cx="101.9" cy="322.7" r="1.45" fill="#14532d" fill-opacity="0.46"/>
<circle cx="104.9" cy="322.7" r="1.45" fill="#14532d" fill-opacity="0.46"/>
<circle cx="108.0" cy="322.5" r="1.45" fill="#14532d" fill-opacity="0.46"/>
<circle cx="111.1" cy="322.5" r="1.45" fill="#14532d" fill-opacity="0.46"/>
<circle cx="114.1" cy="322.7" r="1.45" fill="#14532d" fill-opacity="0.46"/>
<circle cx="117.2" cy="322.9" r="1.45" fill="#14532d" fill-opacity="0.46"/>
<circle cx="120.2" cy="323.0" r="1.45" fill="#14532d" fill-opacity="0.46"/>
<circle cx="95.8" cy="322.8" r="1.45" fill="#14532d" fill-opacity="0.46"/>
<circle cx="98.8" cy="322.8" r="1.45" fill="#14532d" fill-opacity="0.46"/>
<circle cx="101.9" cy="322.9" r="1.45" fill="#14532d" fill-opacity="0.46"/>
<circle cx="104.9" cy="322.8" r="1.45" fill="#14532d" fill-opacity="0.46"/>
<circle cx="108.0" cy="322.7" r="1.45" fill="#14532d" fill-opacity="0.46"/>
<circle cx="111.1" cy="322.3" r="1.45" fill="#14532d" fill-opacity="0.46"/>
<circle cx="114.1" cy="322.7" r="1.45" fill="#14532d" fill-opacity="0.46"/>
<circle cx="117.2" cy="322.8" r="1.45" fill="#14532d" fill-opacity="0.46"/>
<circle cx="120.2" cy="322.3" r="1.45" fill="#14532d" fill-opacity="0.46"/>
<circle cx="95.8" cy="322.5" r="1.45" fill="#14532d" fill-opacity="0.46"/>
<circle cx="98.8" cy="322.5" r="1.45" fill="#14532d" fill-opacity="0.46"/>
<circle cx="101.9" cy="322.5" r="1.45" fill="#14532d" fill-opacity="0.46"/>
<circle cx="104.9" cy="322.5" r="1.45" fill="#14532d" fill-opacity="0.46"/>
<circle cx="108.0" cy="326.9" r="1.45" fill="#14532d" fill-opacity="0.46"/>
<circle cx="111.1" cy="326.3" r="1.45" fill="#14532d" fill-opacity="0.46"/>
<circle cx="114.1" cy="326.0" r="1.45" fill="#14532d" fill-opacity="0.46"/>
<circle cx="117.2" cy="325.9" r="1.45" fill="#14532d" fill-opacity="0.46"/>
<circle cx="120.2" cy="325.7" r="1.45" fill="#14532d" fill-opacity="0.46"/>
<circle cx="95.8" cy="324.7" r="1.45" fill="#14532d" fill-opacity="0.46"/>
<circle cx="98.8" cy="325.4" r="1.45" fill="#14532d" fill-opacity="0.46"/>
<circle cx="101.9" cy="324.6" r="1.45" fill="#14532d" fill-opacity="0.46"/>
<circle cx="104.9" cy="325.1" r="1.45" fill="#14532d" fill-opacity="0.46"/>
<circle cx="108.0" cy="324.4" r="1.45" fill="#14532d" fill-opacity="0.46"/>
<circle cx="111.1" cy="324.1" r="1.45" fill="#14532d" fill-opacity="0.46"/>
<circle cx="114.1" cy="324.3" r="1.45" fill="#14532d" fill-opacity="0.46"/>
<circle cx="117.2" cy="323.5" r="1.45" fill="#14532d" fill-opacity="0.46"/>
<circle cx="120.2" cy="323.0" r="1.45" fill="#14532d" fill-opacity="0.46"/>
<circle cx="95.8" cy="324.2" r="1.45" fill="#14532d" fill-opacity="0.46"/>
<line x1="108.0" y1="322.3" x2="108.0" y2="326.9" stroke="#14532d" stroke-opacity="0.86" stroke-width="1.8"/>
<line x1="95.8" y1="322.3" x2="120.2" y2="322.3" stroke="#14532d" stroke-opacity="0.86" stroke-width="1.8"/>
<line x1="95.8" y1="326.9" x2="120.2" y2="326.9" stroke="#14532d" stroke-opacity="0.86" stroke-width="1.8"/>
<rect x="91.0" y="322.5" width="34.0" height="1.0" rx="2" fill="#14532d" fill-opacity="0.18" stroke="#14532d" stroke-opacity="0.9" stroke-width="1.8"/>
<line x1="91.0" y1="322.7" x2="125.0" y2="322.7" stroke="#14532d" stroke-opacity="0.96" stroke-width="2.6"/>
<text x="131.0" y="326.7" text-anchor="start" font-family="Inter,Segoe UI,Arial,sans-serif" font-size="11" font-weight="700" fill="#111827" stroke="#ffffff" stroke-width="3" paint-order="stroke">58.5</text>
<circle cx="179.1" cy="327.5" r="1.45" fill="#7c3aed" fill-opacity="0.46"/>
<circle cx="182.2" cy="327.4" r="1.45" fill="#7c3aed" fill-opacity="0.46"/>
<circle cx="185.2" cy="327.3" r="1.45" fill="#7c3aed" fill-opacity="0.46"/>
<circle cx="188.3" cy="327.2" r="1.45" fill="#7c3aed" fill-opacity="0.46"/>
<circle cx="191.3" cy="327.4" r="1.45" fill="#7c3aed" fill-opacity="0.46"/>
<circle cx="194.4" cy="328.2" r="1.45" fill="#7c3aed" fill-opacity="0.46"/>
<circle cx="197.5" cy="328.4" r="1.45" fill="#7c3aed" fill-opacity="0.46"/>
<circle cx="200.5" cy="328.4" r="1.45" fill="#7c3aed" fill-opacity="0.46"/>
<circle cx="203.6" cy="328.4" r="1.45" fill="#7c3aed" fill-opacity="0.46"/>
<circle cx="179.1" cy="328.2" r="1.45" fill="#7c3aed" fill-opacity="0.46"/>
<circle cx="182.2" cy="327.5" r="1.45" fill="#7c3aed" fill-opacity="0.46"/>
<circle cx="185.2" cy="327.8" r="1.45" fill="#7c3aed" fill-opacity="0.46"/>
<circle cx="188.3" cy="327.5" r="1.45" fill="#7c3aed" fill-opacity="0.46"/>
<circle cx="191.3" cy="327.4" r="1.45" fill="#7c3aed" fill-opacity="0.46"/>
<circle cx="194.4" cy="327.5" r="1.45" fill="#7c3aed" fill-opacity="0.46"/>
<circle cx="197.5" cy="327.1" r="1.45" fill="#7c3aed" fill-opacity="0.46"/>
<circle cx="200.5" cy="326.8" r="1.45" fill="#7c3aed" fill-opacity="0.46"/>
<circle cx="203.6" cy="327.0" r="1.45" fill="#7c3aed" fill-opacity="0.46"/>
<circle cx="179.1" cy="326.5" r="1.45" fill="#7c3aed" fill-opacity="0.46"/>
<circle cx="182.2" cy="326.5" r="1.45" fill="#7c3aed" fill-opacity="0.46"/>
<circle cx="185.2" cy="326.5" r="1.45" fill="#7c3aed" fill-opacity="0.46"/>
<circle cx="188.3" cy="326.5" r="1.45" fill="#7c3aed" fill-opacity="0.46"/>
<circle cx="191.3" cy="326.5" r="1.45" fill="#7c3aed" fill-opacity="0.46"/>
<circle cx="194.4" cy="326.3" r="1.45" fill="#7c3aed" fill-opacity="0.46"/>
<circle cx="197.5" cy="326.3" r="1.45" fill="#7c3aed" fill-opacity="0.46"/>
<circle cx="200.5" cy="326.8" r="1.45" fill="#7c3aed" fill-opacity="0.46"/>
<circle cx="203.6" cy="326.7" r="1.45" fill="#7c3aed" fill-opacity="0.46"/>
<circle cx="179.1" cy="326.7" r="1.45" fill="#7c3aed" fill-opacity="0.46"/>
<circle cx="182.2" cy="327.0" r="1.45" fill="#7c3aed" fill-opacity="0.46"/>
<circle cx="185.2" cy="326.9" r="1.45" fill="#7c3aed" fill-opacity="0.46"/>
<circle cx="188.3" cy="326.1" r="1.45" fill="#7c3aed" fill-opacity="0.46"/>
<circle cx="191.3" cy="326.2" r="1.45" fill="#7c3aed" fill-opacity="0.46"/>
<circle cx="194.4" cy="326.2" r="1.45" fill="#7c3aed" fill-opacity="0.46"/>
<circle cx="197.5" cy="325.9" r="1.45" fill="#7c3aed" fill-opacity="0.46"/>
<circle cx="200.5" cy="326.3" r="1.45" fill="#7c3aed" fill-opacity="0.46"/>
<circle cx="203.6" cy="325.5" r="1.45" fill="#7c3aed" fill-opacity="0.46"/>
<circle cx="179.1" cy="325.8" r="1.45" fill="#7c3aed" fill-opacity="0.46"/>
<circle cx="182.2" cy="325.6" r="1.45" fill="#7c3aed" fill-opacity="0.46"/>
<circle cx="185.2" cy="325.6" r="1.45" fill="#7c3aed" fill-opacity="0.46"/>
<circle cx="188.3" cy="325.3" r="1.45" fill="#7c3aed" fill-opacity="0.46"/>
<circle cx="191.3" cy="330.1" r="1.45" fill="#7c3aed" fill-opacity="0.46"/>
<circle cx="194.4" cy="330.0" r="1.45" fill="#7c3aed" fill-opacity="0.46"/>
<circle cx="197.5" cy="330.4" r="1.45" fill="#7c3aed" fill-opacity="0.46"/>
<circle cx="200.5" cy="330.3" r="1.45" fill="#7c3aed" fill-opacity="0.46"/>
<circle cx="203.6" cy="330.8" r="1.45" fill="#7c3aed" fill-opacity="0.46"/>
<circle cx="179.1" cy="329.7" r="1.45" fill="#7c3aed" fill-opacity="0.46"/>
<circle cx="182.2" cy="328.8" r="1.45" fill="#7c3aed" fill-opacity="0.46"/>
<circle cx="185.2" cy="329.3" r="1.45" fill="#7c3aed" fill-opacity="0.46"/>
<circle cx="188.3" cy="328.9" r="1.45" fill="#7c3aed" fill-opacity="0.46"/>
<circle cx="191.3" cy="328.1" r="1.45" fill="#7c3aed" fill-opacity="0.46"/>
<circle cx="194.4" cy="328.6" r="1.45" fill="#7c3aed" fill-opacity="0.46"/>
<circle cx="197.5" cy="328.6" r="1.45" fill="#7c3aed" fill-opacity="0.46"/>
<circle cx="200.5" cy="327.5" r="1.45" fill="#7c3aed" fill-opacity="0.46"/>
<circle cx="203.6" cy="327.9" r="1.45" fill="#7c3aed" fill-opacity="0.46"/>
<circle cx="179.1" cy="327.7" r="1.45" fill="#7c3aed" fill-opacity="0.46"/>
<line x1="191.3" y1="325.3" x2="191.3" y2="330.8" stroke="#7c3aed" stroke-opacity="0.86" stroke-width="1.8"/>
<line x1="179.1" y1="325.3" x2="203.6" y2="325.3" stroke="#7c3aed" stroke-opacity="0.86" stroke-width="1.8"/>
<line x1="179.1" y1="330.8" x2="203.6" y2="330.8" stroke="#7c3aed" stroke-opacity="0.86" stroke-width="1.8"/>
<rect x="174.3" y="326.5" width="34.0" height="1.8" rx="2" fill="#7c3aed" fill-opacity="0.18" stroke="#7c3aed" stroke-opacity="0.9" stroke-width="1.8"/>
<line x1="174.3" y1="327.4" x2="208.3" y2="327.4" stroke="#7c3aed" stroke-opacity="0.96" stroke-width="2.6"/>
<text x="214.3" y="331.4" text-anchor="start" font-family="Inter,Segoe UI,Arial,sans-serif" font-size="11" font-weight="700" fill="#111827" stroke="#ffffff" stroke-width="3" paint-order="stroke">49.7</text>
<circle cx="262.4" cy="325.7" r="1.45" fill="#1e3a8a" fill-opacity="0.46"/>
<circle cx="265.5" cy="324.6" r="1.45" fill="#1e3a8a" fill-opacity="0.46"/>
<circle cx="268.5" cy="323.8" r="1.45" fill="#1e3a8a" fill-opacity="0.46"/>
<circle cx="271.6" cy="323.9" r="1.45" fill="#1e3a8a" fill-opacity="0.46"/>
<circle cx="274.7" cy="324.0" r="1.45" fill="#1e3a8a" fill-opacity="0.46"/>
<circle cx="277.7" cy="328.4" r="1.45" fill="#1e3a8a" fill-opacity="0.46"/>
<circle cx="280.8" cy="327.6" r="1.45" fill="#1e3a8a" fill-opacity="0.46"/>
<circle cx="283.8" cy="328.2" r="1.45" fill="#1e3a8a" fill-opacity="0.46"/>
<circle cx="286.9" cy="328.4" r="1.45" fill="#1e3a8a" fill-opacity="0.46"/>
<circle cx="262.4" cy="327.9" r="1.45" fill="#1e3a8a" fill-opacity="0.46"/>
<circle cx="265.5" cy="327.5" r="1.45" fill="#1e3a8a" fill-opacity="0.46"/>
<circle cx="268.5" cy="327.7" r="1.45" fill="#1e3a8a" fill-opacity="0.46"/>
<circle cx="271.6" cy="327.5" r="1.45" fill="#1e3a8a" fill-opacity="0.46"/>
<circle cx="274.7" cy="327.1" r="1.45" fill="#1e3a8a" fill-opacity="0.46"/>
<circle cx="277.7" cy="327.1" r="1.45" fill="#1e3a8a" fill-opacity="0.46"/>
<circle cx="280.8" cy="324.4" r="1.45" fill="#1e3a8a" fill-opacity="0.46"/>
<circle cx="283.8" cy="324.5" r="1.45" fill="#1e3a8a" fill-opacity="0.46"/>
<circle cx="286.9" cy="324.3" r="1.45" fill="#1e3a8a" fill-opacity="0.46"/>
<circle cx="262.4" cy="324.2" r="1.45" fill="#1e3a8a" fill-opacity="0.46"/>
<circle cx="265.5" cy="324.3" r="1.45" fill="#1e3a8a" fill-opacity="0.46"/>
<circle cx="268.5" cy="322.5" r="1.45" fill="#1e3a8a" fill-opacity="0.46"/>
<circle cx="271.6" cy="322.4" r="1.45" fill="#1e3a8a" fill-opacity="0.46"/>
<circle cx="274.7" cy="322.4" r="1.45" fill="#1e3a8a" fill-opacity="0.46"/>
<circle cx="277.7" cy="322.5" r="1.45" fill="#1e3a8a" fill-opacity="0.46"/>
<circle cx="280.8" cy="322.2" r="1.45" fill="#1e3a8a" fill-opacity="0.46"/>
<circle cx="283.8" cy="324.8" r="1.45" fill="#1e3a8a" fill-opacity="0.46"/>
<circle cx="286.9" cy="323.8" r="1.45" fill="#1e3a8a" fill-opacity="0.46"/>
<circle cx="262.4" cy="324.1" r="1.45" fill="#1e3a8a" fill-opacity="0.46"/>
<circle cx="265.5" cy="324.5" r="1.45" fill="#1e3a8a" fill-opacity="0.46"/>
<circle cx="268.5" cy="325.0" r="1.45" fill="#1e3a8a" fill-opacity="0.46"/>
<circle cx="271.6" cy="322.7" r="1.45" fill="#1e3a8a" fill-opacity="0.46"/>
<circle cx="274.7" cy="324.6" r="1.45" fill="#1e3a8a" fill-opacity="0.46"/>
<circle cx="277.7" cy="322.2" r="1.45" fill="#1e3a8a" fill-opacity="0.46"/>
<circle cx="280.8" cy="324.8" r="1.45" fill="#1e3a8a" fill-opacity="0.46"/>
<circle cx="283.8" cy="324.7" r="1.45" fill="#1e3a8a" fill-opacity="0.46"/>
<circle cx="286.9" cy="324.9" r="1.45" fill="#1e3a8a" fill-opacity="0.46"/>
<circle cx="262.4" cy="325.0" r="1.45" fill="#1e3a8a" fill-opacity="0.46"/>
<circle cx="265.5" cy="324.7" r="1.45" fill="#1e3a8a" fill-opacity="0.46"/>
<circle cx="268.5" cy="324.6" r="1.45" fill="#1e3a8a" fill-opacity="0.46"/>
<circle cx="271.6" cy="324.9" r="1.45" fill="#1e3a8a" fill-opacity="0.46"/>
<circle cx="274.7" cy="330.4" r="1.45" fill="#1e3a8a" fill-opacity="0.46"/>
<circle cx="277.7" cy="330.7" r="1.45" fill="#1e3a8a" fill-opacity="0.46"/>
<circle cx="280.8" cy="329.4" r="1.45" fill="#1e3a8a" fill-opacity="0.46"/>
<circle cx="283.8" cy="330.0" r="1.45" fill="#1e3a8a" fill-opacity="0.46"/>
<circle cx="286.9" cy="330.8" r="1.45" fill="#1e3a8a" fill-opacity="0.46"/>
<circle cx="262.4" cy="329.9" r="1.45" fill="#1e3a8a" fill-opacity="0.46"/>
<circle cx="265.5" cy="329.2" r="1.45" fill="#1e3a8a" fill-opacity="0.46"/>
<circle cx="268.5" cy="330.2" r="1.45" fill="#1e3a8a" fill-opacity="0.46"/>
<circle cx="271.6" cy="330.1" r="1.45" fill="#1e3a8a" fill-opacity="0.46"/>
<circle cx="274.7" cy="329.1" r="1.45" fill="#1e3a8a" fill-opacity="0.46"/>
<circle cx="277.7" cy="329.4" r="1.45" fill="#1e3a8a" fill-opacity="0.46"/>
<circle cx="280.8" cy="328.5" r="1.45" fill="#1e3a8a" fill-opacity="0.46"/>
<circle cx="283.8" cy="328.5" r="1.45" fill="#1e3a8a" fill-opacity="0.46"/>
<circle cx="286.9" cy="328.7" r="1.45" fill="#1e3a8a" fill-opacity="0.46"/>
<circle cx="262.4" cy="329.9" r="1.45" fill="#1e3a8a" fill-opacity="0.46"/>
<line x1="274.7" y1="322.2" x2="274.7" y2="330.8" stroke="#1e3a8a" stroke-opacity="0.86" stroke-width="1.8"/>
<line x1="262.4" y1="322.2" x2="286.9" y2="322.2" stroke="#1e3a8a" stroke-opacity="0.86" stroke-width="1.8"/>
<line x1="262.4" y1="330.8" x2="286.9" y2="330.8" stroke="#1e3a8a" stroke-opacity="0.86" stroke-width="1.8"/>
<rect x="257.7" y="324.3" width="34.0" height="4.2" rx="2" fill="#1e3a8a" fill-opacity="0.18" stroke="#1e3a8a" stroke-opacity="0.9" stroke-width="1.8"/>
<line x1="257.7" y1="325.0" x2="291.7" y2="325.0" stroke="#1e3a8a" stroke-opacity="0.96" stroke-width="2.6"/>
<text x="297.7" y="329.0" text-anchor="start" font-family="Inter,Segoe UI,Arial,sans-serif" font-size="11" font-weight="700" fill="#111827" stroke="#ffffff" stroke-width="3" paint-order="stroke">54.1</text>
<circle cx="345.8" cy="319.3" r="1.45" fill="#eab308" fill-opacity="0.46"/>
<circle cx="348.8" cy="321.0" r="1.45" fill="#eab308" fill-opacity="0.46"/>
<circle cx="351.9" cy="322.0" r="1.45" fill="#eab308" fill-opacity="0.46"/>
<circle cx="354.9" cy="320.0" r="1.45" fill="#eab308" fill-opacity="0.46"/>
<circle cx="358.0" cy="315.4" r="1.45" fill="#eab308" fill-opacity="0.46"/>
<circle cx="361.1" cy="314.9" r="1.45" fill="#eab308" fill-opacity="0.46"/>
<circle cx="364.1" cy="316.8" r="1.45" fill="#eab308" fill-opacity="0.46"/>
<circle cx="367.2" cy="319.8" r="1.45" fill="#eab308" fill-opacity="0.46"/>
<circle cx="370.2" cy="320.0" r="1.45" fill="#eab308" fill-opacity="0.46"/>
<circle cx="345.8" cy="324.2" r="1.45" fill="#eab308" fill-opacity="0.46"/>
<circle cx="348.8" cy="321.6" r="1.45" fill="#eab308" fill-opacity="0.46"/>
<line x1="358.0" y1="314.9" x2="358.0" y2="324.2" stroke="#eab308" stroke-opacity="0.86" stroke-width="1.8"/>
<line x1="345.8" y1="314.9" x2="370.2" y2="314.9" stroke="#eab308" stroke-opacity="0.86" stroke-width="1.8"/>
<line x1="345.8" y1="324.2" x2="370.2" y2="324.2" stroke="#eab308" stroke-opacity="0.86" stroke-width="1.8"/>
<rect x="341.0" y="318.1" width="34.0" height="3.2" rx="2" fill="#eab308" fill-opacity="0.18" stroke="#eab308" stroke-opacity="0.9" stroke-width="1.8"/>
<line x1="341.0" y1="320.0" x2="375.0" y2="320.0" stroke="#eab308" stroke-opacity="0.96" stroke-width="2.6"/>
<text x="381.0" y="324.0" text-anchor="start" font-family="Inter,Segoe UI,Arial,sans-serif" font-size="11" font-weight="700" fill="#111827" stroke="#ffffff" stroke-width="3" paint-order="stroke">63.5</text>
<text x="571.0" y="398" text-anchor="middle" font-family="Inter,Segoe UI,Arial,sans-serif" font-size="11" font-weight="700" fill="#111827">35B-A3B</text>
<circle cx="433.8" cy="298.5" r="1.45" fill="#14532d" fill-opacity="0.46"/>
<circle cx="436.8" cy="298.9" r="1.45" fill="#14532d" fill-opacity="0.46"/>
<circle cx="439.9" cy="297.4" r="1.45" fill="#14532d" fill-opacity="0.46"/>
<circle cx="442.9" cy="297.9" r="1.45" fill="#14532d" fill-opacity="0.46"/>
<circle cx="446.0" cy="299.0" r="1.45" fill="#14532d" fill-opacity="0.46"/>
<circle cx="449.1" cy="293.0" r="1.45" fill="#14532d" fill-opacity="0.46"/>
<circle cx="452.1" cy="295.0" r="1.45" fill="#14532d" fill-opacity="0.46"/>
<circle cx="455.2" cy="292.6" r="1.45" fill="#14532d" fill-opacity="0.46"/>
<circle cx="458.2" cy="293.7" r="1.45" fill="#14532d" fill-opacity="0.46"/>
<circle cx="433.8" cy="292.7" r="1.45" fill="#14532d" fill-opacity="0.46"/>
<circle cx="436.8" cy="300.1" r="1.45" fill="#14532d" fill-opacity="0.46"/>
<circle cx="439.9" cy="300.5" r="1.45" fill="#14532d" fill-opacity="0.46"/>
<circle cx="442.9" cy="300.0" r="1.45" fill="#14532d" fill-opacity="0.46"/>
<circle cx="446.0" cy="300.0" r="1.45" fill="#14532d" fill-opacity="0.46"/>
<circle cx="449.1" cy="300.9" r="1.45" fill="#14532d" fill-opacity="0.46"/>
<circle cx="452.1" cy="296.7" r="1.45" fill="#14532d" fill-opacity="0.46"/>
<circle cx="455.2" cy="297.6" r="1.45" fill="#14532d" fill-opacity="0.46"/>
<circle cx="458.2" cy="297.0" r="1.45" fill="#14532d" fill-opacity="0.46"/>
<circle cx="433.8" cy="297.8" r="1.45" fill="#14532d" fill-opacity="0.46"/>
<circle cx="436.8" cy="297.0" r="1.45" fill="#14532d" fill-opacity="0.46"/>
<circle cx="439.9" cy="292.3" r="1.45" fill="#14532d" fill-opacity="0.46"/>
<circle cx="442.9" cy="291.8" r="1.45" fill="#14532d" fill-opacity="0.46"/>
<circle cx="446.0" cy="292.9" r="1.45" fill="#14532d" fill-opacity="0.46"/>
<circle cx="449.1" cy="291.6" r="1.45" fill="#14532d" fill-opacity="0.46"/>
<circle cx="452.1" cy="292.1" r="1.45" fill="#14532d" fill-opacity="0.46"/>
<circle cx="455.2" cy="297.0" r="1.45" fill="#14532d" fill-opacity="0.46"/>
<circle cx="458.2" cy="297.2" r="1.45" fill="#14532d" fill-opacity="0.46"/>
<circle cx="433.8" cy="296.1" r="1.45" fill="#14532d" fill-opacity="0.46"/>
<circle cx="436.8" cy="297.5" r="1.45" fill="#14532d" fill-opacity="0.46"/>
<circle cx="439.9" cy="297.5" r="1.45" fill="#14532d" fill-opacity="0.46"/>
<circle cx="442.9" cy="299.5" r="1.45" fill="#14532d" fill-opacity="0.46"/>
<circle cx="446.0" cy="299.7" r="1.45" fill="#14532d" fill-opacity="0.46"/>
<circle cx="449.1" cy="299.4" r="1.45" fill="#14532d" fill-opacity="0.46"/>
<circle cx="452.1" cy="298.4" r="1.45" fill="#14532d" fill-opacity="0.46"/>
<circle cx="455.2" cy="299.8" r="1.45" fill="#14532d" fill-opacity="0.46"/>
<circle cx="458.2" cy="299.9" r="1.45" fill="#14532d" fill-opacity="0.46"/>
<circle cx="433.8" cy="300.2" r="1.45" fill="#14532d" fill-opacity="0.46"/>
<circle cx="436.8" cy="299.8" r="1.45" fill="#14532d" fill-opacity="0.46"/>
<circle cx="439.9" cy="299.4" r="1.45" fill="#14532d" fill-opacity="0.46"/>
<circle cx="442.9" cy="299.7" r="1.45" fill="#14532d" fill-opacity="0.46"/>
<circle cx="446.0" cy="299.8" r="1.45" fill="#14532d" fill-opacity="0.46"/>
<circle cx="449.1" cy="299.8" r="1.45" fill="#14532d" fill-opacity="0.46"/>
<circle cx="452.1" cy="299.2" r="1.45" fill="#14532d" fill-opacity="0.46"/>
<circle cx="455.2" cy="300.0" r="1.45" fill="#14532d" fill-opacity="0.46"/>
<circle cx="458.2" cy="300.6" r="1.45" fill="#14532d" fill-opacity="0.46"/>
<circle cx="433.8" cy="298.9" r="1.45" fill="#14532d" fill-opacity="0.46"/>
<circle cx="436.8" cy="298.9" r="1.45" fill="#14532d" fill-opacity="0.46"/>
<circle cx="439.9" cy="300.1" r="1.45" fill="#14532d" fill-opacity="0.46"/>
<circle cx="442.9" cy="298.6" r="1.45" fill="#14532d" fill-opacity="0.46"/>
<circle cx="446.0" cy="297.8" r="1.45" fill="#14532d" fill-opacity="0.46"/>
<circle cx="449.1" cy="299.4" r="1.45" fill="#14532d" fill-opacity="0.46"/>
<circle cx="452.1" cy="300.3" r="1.45" fill="#14532d" fill-opacity="0.46"/>
<circle cx="455.2" cy="298.6" r="1.45" fill="#14532d" fill-opacity="0.46"/>
<circle cx="458.2" cy="298.5" r="1.45" fill="#14532d" fill-opacity="0.46"/>
<circle cx="433.8" cy="299.0" r="1.45" fill="#14532d" fill-opacity="0.46"/>
<line x1="446.0" y1="291.6" x2="446.0" y2="300.9" stroke="#14532d" stroke-opacity="0.86" stroke-width="1.8"/>
<line x1="433.8" y1="291.6" x2="458.2" y2="291.6" stroke="#14532d" stroke-opacity="0.86" stroke-width="1.8"/>
<line x1="433.8" y1="300.9" x2="458.2" y2="300.9" stroke="#14532d" stroke-opacity="0.86" stroke-width="1.8"/>
<rect x="429.0" y="297.0" width="34.0" height="2.8" rx="2" fill="#14532d" fill-opacity="0.18" stroke="#14532d" stroke-opacity="0.9" stroke-width="1.8"/>
<line x1="429.0" y1="298.6" x2="463.0" y2="298.6" stroke="#14532d" stroke-opacity="0.96" stroke-width="2.6"/>
<text x="469.0" y="302.6" text-anchor="start" font-family="Inter,Segoe UI,Arial,sans-serif" font-size="11" font-weight="700" fill="#111827" stroke="#ffffff" stroke-width="3" paint-order="stroke">103</text>
<circle cx="517.1" cy="273.3" r="1.45" fill="#7c3aed" fill-opacity="0.46"/>
<circle cx="520.2" cy="273.4" r="1.45" fill="#7c3aed" fill-opacity="0.46"/>
<circle cx="523.2" cy="274.2" r="1.45" fill="#7c3aed" fill-opacity="0.46"/>
<circle cx="526.3" cy="275.5" r="1.45" fill="#7c3aed" fill-opacity="0.46"/>
<circle cx="529.3" cy="274.7" r="1.45" fill="#7c3aed" fill-opacity="0.46"/>
<circle cx="532.4" cy="275.6" r="1.45" fill="#7c3aed" fill-opacity="0.46"/>
<circle cx="535.5" cy="275.7" r="1.45" fill="#7c3aed" fill-opacity="0.46"/>
<circle cx="538.5" cy="275.2" r="1.45" fill="#7c3aed" fill-opacity="0.46"/>
<circle cx="541.6" cy="274.9" r="1.45" fill="#7c3aed" fill-opacity="0.46"/>
<circle cx="517.1" cy="274.1" r="1.45" fill="#7c3aed" fill-opacity="0.46"/>
<circle cx="520.2" cy="275.9" r="1.45" fill="#7c3aed" fill-opacity="0.46"/>
<circle cx="523.2" cy="275.8" r="1.45" fill="#7c3aed" fill-opacity="0.46"/>
<circle cx="526.3" cy="275.2" r="1.45" fill="#7c3aed" fill-opacity="0.46"/>
<circle cx="529.3" cy="274.0" r="1.45" fill="#7c3aed" fill-opacity="0.46"/>
<circle cx="532.4" cy="274.1" r="1.45" fill="#7c3aed" fill-opacity="0.46"/>
<circle cx="535.5" cy="273.6" r="1.45" fill="#7c3aed" fill-opacity="0.46"/>
<circle cx="538.5" cy="273.2" r="1.45" fill="#7c3aed" fill-opacity="0.46"/>
<circle cx="541.6" cy="273.5" r="1.45" fill="#7c3aed" fill-opacity="0.46"/>
<circle cx="517.1" cy="273.1" r="1.45" fill="#7c3aed" fill-opacity="0.46"/>
<circle cx="520.2" cy="273.1" r="1.45" fill="#7c3aed" fill-opacity="0.46"/>
<circle cx="523.2" cy="274.2" r="1.45" fill="#7c3aed" fill-opacity="0.46"/>
<circle cx="526.3" cy="273.9" r="1.45" fill="#7c3aed" fill-opacity="0.46"/>
<circle cx="529.3" cy="273.8" r="1.45" fill="#7c3aed" fill-opacity="0.46"/>
<circle cx="532.4" cy="273.9" r="1.45" fill="#7c3aed" fill-opacity="0.46"/>
<circle cx="535.5" cy="273.5" r="1.45" fill="#7c3aed" fill-opacity="0.46"/>
<circle cx="538.5" cy="275.0" r="1.45" fill="#7c3aed" fill-opacity="0.46"/>
<circle cx="541.6" cy="274.9" r="1.45" fill="#7c3aed" fill-opacity="0.46"/>
<circle cx="517.1" cy="274.8" r="1.45" fill="#7c3aed" fill-opacity="0.46"/>
<circle cx="520.2" cy="275.1" r="1.45" fill="#7c3aed" fill-opacity="0.46"/>
<circle cx="523.2" cy="274.2" r="1.45" fill="#7c3aed" fill-opacity="0.46"/>
<circle cx="526.3" cy="274.5" r="1.45" fill="#7c3aed" fill-opacity="0.46"/>
<circle cx="529.3" cy="274.4" r="1.45" fill="#7c3aed" fill-opacity="0.46"/>
<circle cx="532.4" cy="274.2" r="1.45" fill="#7c3aed" fill-opacity="0.46"/>
<circle cx="535.5" cy="274.3" r="1.45" fill="#7c3aed" fill-opacity="0.46"/>
<circle cx="538.5" cy="274.7" r="1.45" fill="#7c3aed" fill-opacity="0.46"/>
<circle cx="541.6" cy="273.4" r="1.45" fill="#7c3aed" fill-opacity="0.46"/>
<circle cx="517.1" cy="273.4" r="1.45" fill="#7c3aed" fill-opacity="0.46"/>
<circle cx="520.2" cy="273.1" r="1.45" fill="#7c3aed" fill-opacity="0.46"/>
<circle cx="523.2" cy="273.3" r="1.45" fill="#7c3aed" fill-opacity="0.46"/>
<circle cx="526.3" cy="273.3" r="1.45" fill="#7c3aed" fill-opacity="0.46"/>
<circle cx="529.3" cy="275.2" r="1.45" fill="#7c3aed" fill-opacity="0.46"/>
<circle cx="532.4" cy="274.7" r="1.45" fill="#7c3aed" fill-opacity="0.46"/>
<circle cx="535.5" cy="274.8" r="1.45" fill="#7c3aed" fill-opacity="0.46"/>
<circle cx="538.5" cy="275.2" r="1.45" fill="#7c3aed" fill-opacity="0.46"/>
<circle cx="541.6" cy="274.9" r="1.45" fill="#7c3aed" fill-opacity="0.46"/>
<circle cx="517.1" cy="274.2" r="1.45" fill="#7c3aed" fill-opacity="0.46"/>
<circle cx="520.2" cy="273.8" r="1.45" fill="#7c3aed" fill-opacity="0.46"/>
<circle cx="523.2" cy="273.7" r="1.45" fill="#7c3aed" fill-opacity="0.46"/>
<circle cx="526.3" cy="274.2" r="1.45" fill="#7c3aed" fill-opacity="0.46"/>
<circle cx="529.3" cy="273.7" r="1.45" fill="#7c3aed" fill-opacity="0.46"/>
<circle cx="532.4" cy="275.0" r="1.45" fill="#7c3aed" fill-opacity="0.46"/>
<circle cx="535.5" cy="275.4" r="1.45" fill="#7c3aed" fill-opacity="0.46"/>
<circle cx="538.5" cy="274.0" r="1.45" fill="#7c3aed" fill-opacity="0.46"/>
<circle cx="541.6" cy="274.1" r="1.45" fill="#7c3aed" fill-opacity="0.46"/>
<circle cx="517.1" cy="274.3" r="1.45" fill="#7c3aed" fill-opacity="0.46"/>
<line x1="529.3" y1="273.1" x2="529.3" y2="275.9" stroke="#7c3aed" stroke-opacity="0.86" stroke-width="1.8"/>
<line x1="517.1" y1="273.1" x2="541.6" y2="273.1" stroke="#7c3aed" stroke-opacity="0.86" stroke-width="1.8"/>
<line x1="517.1" y1="275.9" x2="541.6" y2="275.9" stroke="#7c3aed" stroke-opacity="0.86" stroke-width="1.8"/>
<rect x="512.3" y="273.7" width="34.0" height="1.2" rx="2" fill="#7c3aed" fill-opacity="0.18" stroke="#7c3aed" stroke-opacity="0.9" stroke-width="1.8"/>
<line x1="512.3" y1="274.2" x2="546.3" y2="274.2" stroke="#7c3aed" stroke-opacity="0.96" stroke-width="2.6"/>
<text x="552.3" y="278.2" text-anchor="start" font-family="Inter,Segoe UI,Arial,sans-serif" font-size="11" font-weight="700" fill="#111827" stroke="#ffffff" stroke-width="3" paint-order="stroke">149</text>
<circle cx="600.4" cy="253.5" r="1.45" fill="#1e3a8a" fill-opacity="0.46"/>
<circle cx="603.5" cy="253.2" r="1.45" fill="#1e3a8a" fill-opacity="0.46"/>
<circle cx="606.5" cy="253.3" r="1.45" fill="#1e3a8a" fill-opacity="0.46"/>
<circle cx="609.6" cy="253.3" r="1.45" fill="#1e3a8a" fill-opacity="0.46"/>
<circle cx="612.7" cy="254.1" r="1.45" fill="#1e3a8a" fill-opacity="0.46"/>
<circle cx="615.7" cy="269.6" r="1.45" fill="#1e3a8a" fill-opacity="0.46"/>
<circle cx="618.8" cy="270.0" r="1.45" fill="#1e3a8a" fill-opacity="0.46"/>
<circle cx="621.8" cy="269.9" r="1.45" fill="#1e3a8a" fill-opacity="0.46"/>
<circle cx="624.9" cy="269.8" r="1.45" fill="#1e3a8a" fill-opacity="0.46"/>
<circle cx="600.4" cy="270.2" r="1.45" fill="#1e3a8a" fill-opacity="0.46"/>
<circle cx="603.5" cy="263.1" r="1.45" fill="#1e3a8a" fill-opacity="0.46"/>
<circle cx="606.5" cy="262.1" r="1.45" fill="#1e3a8a" fill-opacity="0.46"/>
<circle cx="609.6" cy="264.4" r="1.45" fill="#1e3a8a" fill-opacity="0.46"/>
<circle cx="612.7" cy="263.1" r="1.45" fill="#1e3a8a" fill-opacity="0.46"/>
<circle cx="615.7" cy="262.9" r="1.45" fill="#1e3a8a" fill-opacity="0.46"/>
<circle cx="618.8" cy="258.5" r="1.45" fill="#1e3a8a" fill-opacity="0.46"/>
<circle cx="621.8" cy="258.6" r="1.45" fill="#1e3a8a" fill-opacity="0.46"/>
<circle cx="624.9" cy="258.4" r="1.45" fill="#1e3a8a" fill-opacity="0.46"/>
<circle cx="600.4" cy="258.2" r="1.45" fill="#1e3a8a" fill-opacity="0.46"/>
<circle cx="603.5" cy="258.6" r="1.45" fill="#1e3a8a" fill-opacity="0.46"/>
<circle cx="606.5" cy="247.7" r="1.45" fill="#1e3a8a" fill-opacity="0.46"/>
<circle cx="609.6" cy="248.0" r="1.45" fill="#1e3a8a" fill-opacity="0.46"/>
<circle cx="612.7" cy="247.6" r="1.45" fill="#1e3a8a" fill-opacity="0.46"/>
<circle cx="615.7" cy="247.5" r="1.45" fill="#1e3a8a" fill-opacity="0.46"/>
<circle cx="618.8" cy="247.5" r="1.45" fill="#1e3a8a" fill-opacity="0.46"/>
<circle cx="621.8" cy="253.2" r="1.45" fill="#1e3a8a" fill-opacity="0.46"/>
<circle cx="624.9" cy="251.5" r="1.45" fill="#1e3a8a" fill-opacity="0.46"/>
<circle cx="600.4" cy="251.4" r="1.45" fill="#1e3a8a" fill-opacity="0.46"/>
<circle cx="603.5" cy="249.1" r="1.45" fill="#1e3a8a" fill-opacity="0.46"/>
<circle cx="606.5" cy="252.4" r="1.45" fill="#1e3a8a" fill-opacity="0.46"/>
<circle cx="609.6" cy="247.1" r="1.45" fill="#1e3a8a" fill-opacity="0.46"/>
<circle cx="612.7" cy="240.6" r="1.45" fill="#1e3a8a" fill-opacity="0.46"/>
<circle cx="615.7" cy="240.9" r="1.45" fill="#1e3a8a" fill-opacity="0.46"/>
<circle cx="618.8" cy="240.5" r="1.45" fill="#1e3a8a" fill-opacity="0.46"/>
<circle cx="621.8" cy="240.4" r="1.45" fill="#1e3a8a" fill-opacity="0.46"/>
<circle cx="624.9" cy="254.9" r="1.45" fill="#1e3a8a" fill-opacity="0.46"/>
<circle cx="600.4" cy="255.4" r="1.45" fill="#1e3a8a" fill-opacity="0.46"/>
<circle cx="603.5" cy="255.0" r="1.45" fill="#1e3a8a" fill-opacity="0.46"/>
<circle cx="606.5" cy="254.7" r="1.45" fill="#1e3a8a" fill-opacity="0.46"/>
<circle cx="609.6" cy="256.7" r="1.45" fill="#1e3a8a" fill-opacity="0.46"/>
<circle cx="612.7" cy="281.1" r="1.45" fill="#1e3a8a" fill-opacity="0.46"/>
<circle cx="615.7" cy="281.2" r="1.45" fill="#1e3a8a" fill-opacity="0.46"/>
<circle cx="618.8" cy="280.5" r="1.45" fill="#1e3a8a" fill-opacity="0.46"/>
<circle cx="621.8" cy="280.5" r="1.45" fill="#1e3a8a" fill-opacity="0.46"/>
<circle cx="624.9" cy="281.2" r="1.45" fill="#1e3a8a" fill-opacity="0.46"/>
<circle cx="600.4" cy="279.5" r="1.45" fill="#1e3a8a" fill-opacity="0.46"/>
<circle cx="603.5" cy="278.6" r="1.45" fill="#1e3a8a" fill-opacity="0.46"/>
<circle cx="606.5" cy="280.1" r="1.45" fill="#1e3a8a" fill-opacity="0.46"/>
<circle cx="609.6" cy="278.9" r="1.45" fill="#1e3a8a" fill-opacity="0.46"/>
<circle cx="612.7" cy="281.0" r="1.45" fill="#1e3a8a" fill-opacity="0.46"/>
<circle cx="615.7" cy="282.3" r="1.45" fill="#1e3a8a" fill-opacity="0.46"/>
<circle cx="618.8" cy="281.9" r="1.45" fill="#1e3a8a" fill-opacity="0.46"/>
<circle cx="621.8" cy="283.6" r="1.45" fill="#1e3a8a" fill-opacity="0.46"/>
<circle cx="624.9" cy="280.2" r="1.45" fill="#1e3a8a" fill-opacity="0.46"/>
<circle cx="600.4" cy="283.2" r="1.45" fill="#1e3a8a" fill-opacity="0.46"/>
<line x1="612.7" y1="240.4" x2="612.7" y2="283.6" stroke="#1e3a8a" stroke-opacity="0.86" stroke-width="1.8"/>
<line x1="600.4" y1="240.4" x2="624.9" y2="240.4" stroke="#1e3a8a" stroke-opacity="0.86" stroke-width="1.8"/>
<line x1="600.4" y1="283.6" x2="624.9" y2="283.6" stroke="#1e3a8a" stroke-opacity="0.86" stroke-width="1.8"/>
<rect x="595.7" y="252.8" width="34.0" height="25.9" rx="2" fill="#1e3a8a" fill-opacity="0.18" stroke="#1e3a8a" stroke-opacity="0.9" stroke-width="1.8"/>
<line x1="595.7" y1="258.5" x2="629.7" y2="258.5" stroke="#1e3a8a" stroke-opacity="0.96" stroke-width="2.6"/>
<text x="635.7" y="262.5" text-anchor="start" font-family="Inter,Segoe UI,Arial,sans-serif" font-size="11" font-weight="700" fill="#111827" stroke="#ffffff" stroke-width="3" paint-order="stroke">178</text>
<circle cx="683.8" cy="215.4" r="1.45" fill="#eab308" fill-opacity="0.46"/>
<circle cx="686.8" cy="213.3" r="1.45" fill="#eab308" fill-opacity="0.46"/>
<circle cx="689.9" cy="216.2" r="1.45" fill="#eab308" fill-opacity="0.46"/>
<circle cx="692.9" cy="230.2" r="1.45" fill="#eab308" fill-opacity="0.46"/>
<circle cx="696.0" cy="204.6" r="1.45" fill="#eab308" fill-opacity="0.46"/>
<circle cx="699.1" cy="211.8" r="1.45" fill="#eab308" fill-opacity="0.46"/>
<circle cx="702.1" cy="201.8" r="1.45" fill="#eab308" fill-opacity="0.46"/>
<circle cx="705.2" cy="214.3" r="1.45" fill="#eab308" fill-opacity="0.46"/>
<circle cx="708.2" cy="251.3" r="1.45" fill="#eab308" fill-opacity="0.46"/>
<circle cx="683.8" cy="268.0" r="1.45" fill="#eab308" fill-opacity="0.46"/>
<circle cx="686.8" cy="221.1" r="1.45" fill="#eab308" fill-opacity="0.46"/>
<line x1="696.0" y1="201.8" x2="696.0" y2="268.0" stroke="#eab308" stroke-opacity="0.86" stroke-width="1.8"/>
<line x1="683.8" y1="201.8" x2="708.2" y2="201.8" stroke="#eab308" stroke-opacity="0.86" stroke-width="1.8"/>
<line x1="683.8" y1="268.0" x2="708.2" y2="268.0" stroke="#eab308" stroke-opacity="0.86" stroke-width="1.8"/>
<rect x="679.0" y="212.6" width="34.0" height="13.1" rx="2" fill="#eab308" fill-opacity="0.18" stroke="#eab308" stroke-opacity="0.9" stroke-width="1.8"/>
<line x1="679.0" y1="215.4" x2="713.0" y2="215.4" stroke="#eab308" stroke-opacity="0.96" stroke-width="2.6"/>
<text x="719.0" y="219.4" text-anchor="start" font-family="Inter,Segoe UI,Arial,sans-serif" font-size="11" font-weight="700" fill="#111827" stroke="#ffffff" stroke-width="3" paint-order="stroke">259</text>
<rect x="64.0" y="433" width="10" height="10" rx="2" fill="#14532d" fill-opacity="0.72"/>
<text x="78.0" y="442" font-family="Inter,Segoe UI,Arial,sans-serif" font-size="10" fill="#374151">MTPLX 0.3.7</text>
<rect x="233.0" y="433" width="10" height="10" rx="2" fill="#7c3aed" fill-opacity="0.72"/>
<text x="247.0" y="442" font-family="Inter,Segoe UI,Arial,sans-serif" font-size="10" fill="#374151">Light. MTP</text>
<rect x="402.0" y="433" width="10" height="10" rx="2" fill="#1e3a8a" fill-opacity="0.72"/>
<text x="416.0" y="442" font-family="Inter,Segoe UI,Arial,sans-serif" font-size="10" fill="#374151">Light. ngram+MTP</text>
<rect x="571.0" y="433" width="10" height="10" rx="2" fill="#eab308" fill-opacity="0.72"/>
<text x="585.0" y="442" font-family="Inter,Segoe UI,Arial,sans-serif" font-size="10" fill="#374151">AX MTP+n-gram</text>
</svg>
