<svg xmlns="http://www.w3.org/2000/svg" width="760" height="430" viewBox="0 0 760 430" role="img" aria-labelledby="title desc">
<title>Qwen3.6 35B-A3B 4-bit MTP decode throughput</title>
<desc>Grouped box-and-whisker plot comparing MTPLX 0.3.7 across all suites.</desc>
<rect width="100%" height="100%" fill="#ffffff"/>
<text x="24" y="24" font-family="Inter,Segoe UI,Arial,sans-serif" font-size="16" font-weight="700" fill="#111827">Qwen3.6 35B-A3B 4-bit MTP decode throughput</text>
<text x="24" y="42" font-family="Inter,Segoe UI,Arial,sans-serif" font-size="10" fill="#6b7280">flappy, long_code, python_modules_long combined; box = IQR; whiskers = min/max; dots = measured runs</text>
<text x="732" y="24" text-anchor="end" font-family="Inter,Segoe UI,Arial,sans-serif" font-size="10" fill="#6b7280">tok/s</text>
<text x="732" y="42" text-anchor="end" font-family="Inter,Segoe UI,Arial,sans-serif" font-size="10" font-weight="700" fill="#374151">Higher is better</text>
<line x1="60" y1="338.0" x2="732" y2="338.0" stroke="#e5e7eb" stroke-width="1"/>
<text x="52" y="341.0" text-anchor="end" font-family="Inter,Segoe UI,Arial,sans-serif" font-size="10" fill="#6b7280">0.0</text>
<line x1="60" y1="203.0" x2="732" y2="203.0" stroke="#e5e7eb" stroke-width="1"/>
<text x="52" y="206.0" text-anchor="end" font-family="Inter,Segoe UI,Arial,sans-serif" font-size="10" fill="#6b7280">150</text>
<line x1="60" y1="68.0" x2="732" y2="68.0" stroke="#e5e7eb" stroke-width="1"/>
<text x="52" y="71.0" text-anchor="end" font-family="Inter,Segoe UI,Arial,sans-serif" font-size="10" fill="#6b7280">300</text>
<line x1="60" y1="246.2" x2="732" y2="246.2" stroke="#dc2626" stroke-width="1.2" stroke-dasharray="1 4" stroke-linecap="round"/>
<text x="396.0" y="375" text-anchor="middle" font-family="Inter,Segoe UI,Arial,sans-serif" font-size="11" font-weight="700" fill="#111827">all suites</text>
<line x1="396.0" y1="233.3" x2="396.0" y2="253.7" stroke="#a78bfa" stroke-opacity="0.82" stroke-width="1.7"/>
<line x1="387.4" y1="233.3" x2="404.6" y2="233.3" stroke="#a78bfa" stroke-opacity="0.82" stroke-width="1.7"/>
<line x1="387.4" y1="253.7" x2="404.6" y2="253.7" stroke="#a78bfa" stroke-opacity="0.82" stroke-width="1.7"/>
<rect x="384.0" y="242.3" width="24.0" height="5.4" rx="2" fill="#a78bfa" fill-opacity="0.18" stroke="#a78bfa" stroke-opacity="0.82" stroke-width="1.7"/>
<line x1="384.0" y1="246.2" x2="408.0" y2="246.2" stroke="#a78bfa" stroke-opacity="0.92" stroke-width="2.4"/>
<circle cx="393.0" cy="244.8" r="1.5" fill="#a78bfa" fill-opacity="0.72"/>
<circle cx="394.5" cy="245.4" r="1.5" fill="#a78bfa" fill-opacity="0.72"/>
<circle cx="396.0" cy="243.0" r="1.5" fill="#a78bfa" fill-opacity="0.72"/>
<circle cx="397.5" cy="243.7" r="1.5" fill="#a78bfa" fill-opacity="0.72"/>
<circle cx="399.0" cy="245.6" r="1.5" fill="#a78bfa" fill-opacity="0.72"/>
<circle cx="393.0" cy="235.6" r="1.5" fill="#a78bfa" fill-opacity="0.72"/>
<circle cx="394.5" cy="238.9" r="1.5" fill="#a78bfa" fill-opacity="0.72"/>
<circle cx="396.0" cy="234.9" r="1.5" fill="#a78bfa" fill-opacity="0.72"/>
<circle cx="397.5" cy="236.8" r="1.5" fill="#a78bfa" fill-opacity="0.72"/>
<circle cx="399.0" cy="235.1" r="1.5" fill="#a78bfa" fill-opacity="0.72"/>
<circle cx="393.0" cy="247.5" r="1.5" fill="#a78bfa" fill-opacity="0.72"/>
<circle cx="394.5" cy="248.2" r="1.5" fill="#a78bfa" fill-opacity="0.72"/>
<circle cx="396.0" cy="247.3" r="1.5" fill="#a78bfa" fill-opacity="0.72"/>
<circle cx="397.5" cy="247.3" r="1.5" fill="#a78bfa" fill-opacity="0.72"/>
<circle cx="399.0" cy="248.8" r="1.5" fill="#a78bfa" fill-opacity="0.72"/>
<circle cx="393.0" cy="241.9" r="1.5" fill="#a78bfa" fill-opacity="0.72"/>
<circle cx="394.5" cy="243.3" r="1.5" fill="#a78bfa" fill-opacity="0.72"/>
<circle cx="396.0" cy="242.2" r="1.5" fill="#a78bfa" fill-opacity="0.72"/>
<circle cx="397.5" cy="243.6" r="1.5" fill="#a78bfa" fill-opacity="0.72"/>
<circle cx="399.0" cy="242.2" r="1.5" fill="#a78bfa" fill-opacity="0.72"/>
<circle cx="393.0" cy="234.3" r="1.5" fill="#a78bfa" fill-opacity="0.72"/>
<circle cx="394.5" cy="233.6" r="1.5" fill="#a78bfa" fill-opacity="0.72"/>
<circle cx="396.0" cy="235.5" r="1.5" fill="#a78bfa" fill-opacity="0.72"/>
<circle cx="397.5" cy="233.3" r="1.5" fill="#a78bfa" fill-opacity="0.72"/>
<circle cx="399.0" cy="234.0" r="1.5" fill="#a78bfa" fill-opacity="0.72"/>
<circle cx="393.0" cy="242.3" r="1.5" fill="#a78bfa" fill-opacity="0.72"/>
<circle cx="394.5" cy="242.7" r="1.5" fill="#a78bfa" fill-opacity="0.72"/>
<circle cx="396.0" cy="240.8" r="1.5" fill="#a78bfa" fill-opacity="0.72"/>
<circle cx="397.5" cy="243.1" r="1.5" fill="#a78bfa" fill-opacity="0.72"/>
<circle cx="399.0" cy="243.1" r="1.5" fill="#a78bfa" fill-opacity="0.72"/>
<circle cx="393.0" cy="246.5" r="1.5" fill="#a78bfa" fill-opacity="0.72"/>
<circle cx="394.5" cy="246.9" r="1.5" fill="#a78bfa" fill-opacity="0.72"/>
<circle cx="396.0" cy="246.2" r="1.5" fill="#a78bfa" fill-opacity="0.72"/>
<circle cx="397.5" cy="244.6" r="1.5" fill="#a78bfa" fill-opacity="0.72"/>
<circle cx="399.0" cy="247.0" r="1.5" fill="#a78bfa" fill-opacity="0.72"/>
<circle cx="393.0" cy="247.2" r="1.5" fill="#a78bfa" fill-opacity="0.72"/>
<circle cx="394.5" cy="247.7" r="1.5" fill="#a78bfa" fill-opacity="0.72"/>
<circle cx="396.0" cy="247.0" r="1.5" fill="#a78bfa" fill-opacity="0.72"/>
<circle cx="397.5" cy="246.3" r="1.5" fill="#a78bfa" fill-opacity="0.72"/>
<circle cx="399.0" cy="246.9" r="1.5" fill="#a78bfa" fill-opacity="0.72"/>
<circle cx="393.0" cy="250.5" r="1.5" fill="#a78bfa" fill-opacity="0.72"/>
<circle cx="394.5" cy="248.5" r="1.5" fill="#a78bfa" fill-opacity="0.72"/>
<circle cx="396.0" cy="249.1" r="1.5" fill="#a78bfa" fill-opacity="0.72"/>
<circle cx="397.5" cy="248.8" r="1.5" fill="#a78bfa" fill-opacity="0.72"/>
<circle cx="399.0" cy="253.7" r="1.5" fill="#a78bfa" fill-opacity="0.72"/>
<circle cx="393.0" cy="249.7" r="1.5" fill="#a78bfa" fill-opacity="0.72"/>
<circle cx="394.5" cy="246.4" r="1.5" fill="#a78bfa" fill-opacity="0.72"/>
<circle cx="396.0" cy="247.7" r="1.5" fill="#a78bfa" fill-opacity="0.72"/>
<circle cx="397.5" cy="250.3" r="1.5" fill="#a78bfa" fill-opacity="0.72"/>
<circle cx="399.0" cy="247.5" r="1.5" fill="#a78bfa" fill-opacity="0.72"/>
<circle cx="393.0" cy="247.8" r="1.5" fill="#a78bfa" fill-opacity="0.72"/>
<circle cx="394.5" cy="249.0" r="1.5" fill="#a78bfa" fill-opacity="0.72"/>
<circle cx="396.0" cy="249.5" r="1.5" fill="#a78bfa" fill-opacity="0.72"/>
<circle cx="397.5" cy="246.0" r="1.5" fill="#a78bfa" fill-opacity="0.72"/>
<circle cx="399.0" cy="248.0" r="1.5" fill="#a78bfa" fill-opacity="0.72"/>
<rect x="60.0" y="405" width="10" height="10" rx="2" fill="#a78bfa" fill-opacity="0.72"/>
<text x="74.0" y="414" font-family="Inter,Segoe UI,Arial,sans-serif" font-size="10" fill="#374151">MTPLX 0.3.7</text>
</svg>
