<svg xmlns="http://www.w3.org/2000/svg" width="900" height="460" viewBox="0 0 900 460" role="img" aria-labelledby="title desc">
<title>Qwen3.6 MTP fair decode throughput</title>
<desc>Grouped box-and-whisker plot comparing MTPLX 0.3.7, Light. MTP, Light. ngram+MTP, AX MTP+n-gram across 27B, 35B-A3B.</desc>
<rect width="100%" height="100%" fill="#f8fafc"/>
<text x="24" y="24" font-family="Inter,Segoe UI,Arial,sans-serif" font-size="16" font-weight="700" fill="#111827">Qwen3.6 MTP fair decode throughput</text>
<text x="24" y="46" font-family="Inter,Segoe UI,Arial,sans-serif" font-size="11" fill="#4b5563">All suites combined per model | box=IQR | whiskers=min/max | dots=runs</text>
<rect x="807" y="13" width="59" height="22" rx="11" fill="#eef2ff" stroke="#c7d2fe"/>
<text x="836.5" y="28" text-anchor="middle" font-family="Inter,Segoe UI,Arial,sans-serif" font-size="10" font-weight="700" fill="#3730a3">tok/s</text>
<text x="866" y="52" text-anchor="end" font-family="Inter,Segoe UI,Arial,sans-serif" font-size="10" font-weight="700" fill="#374151">Higher is better</text>
<rect x="64" y="86" width="676" height="268" rx="6" fill="#ffffff" stroke="#dbe3ef"/>
<line x1="64" y1="354.0" x2="740" y2="354.0" stroke="#e5e7eb" stroke-width="1"/>
<text x="56" y="357.0" text-anchor="end" font-family="Inter,Segoe UI,Arial,sans-serif" font-size="11" fill="#6b7280">0.0</text>
<line x1="64" y1="287.0" x2="740" y2="287.0" stroke="#e5e7eb" stroke-width="1"/>
<text x="56" y="290.0" text-anchor="end" font-family="Inter,Segoe UI,Arial,sans-serif" font-size="11" fill="#6b7280">125</text>
<line x1="64" y1="220.0" x2="740" y2="220.0" stroke="#e5e7eb" stroke-width="1"/>
<text x="56" y="223.0" text-anchor="end" font-family="Inter,Segoe UI,Arial,sans-serif" font-size="11" fill="#6b7280">250</text>
<line x1="64" y1="153.0" x2="740" y2="153.0" stroke="#e5e7eb" stroke-width="1"/>
<text x="56" y="156.0" text-anchor="end" font-family="Inter,Segoe UI,Arial,sans-serif" font-size="11" fill="#6b7280">375</text>
<line x1="64" y1="86.0" x2="740" y2="86.0" stroke="#e5e7eb" stroke-width="1"/>
<text x="56" y="89.0" text-anchor="end" font-family="Inter,Segoe UI,Arial,sans-serif" font-size="11" fill="#6b7280">500</text>
<line x1="64" y1="215.4" x2="740" y2="215.4" stroke="#dc2626" stroke-width="1.2" stroke-dasharray="1 4" stroke-linecap="round"/>
<text x="748" y="210.4" text-anchor="start" font-family="Inter,Segoe UI,Arial,sans-serif" font-size="11" font-weight="700" fill="#dc2626" data-label="highest median">highest: 259</text>
<text x="233.0" y="398" text-anchor="middle" font-family="Inter,Segoe UI,Arial,sans-serif" font-size="11" font-weight="700" fill="#111827">27B</text>
<circle cx="95.8" cy="322.7" r="1.45" fill="#14532d" fill-opacity="0.46"/>
<circle cx="98.8" cy="322.4" r="1.45" fill="#14532d" fill-opacity="0.46"/>
<circle cx="101.9" cy="322.6" r="1.45" fill="#14532d" fill-opacity="0.46"/>
<circle cx="104.9" cy="322.6" r="1.45" fill="#14532d" fill-opacity="0.46"/>
<circle cx="108.0" cy="322.5" r="1.45" fill="#14532d" fill-opacity="0.46"/>
<circle cx="111.1" cy="322.6" r="1.45" fill="#14532d" fill-opacity="0.46"/>
<circle cx="114.1" cy="322.6" r="1.45" fill="#14532d" fill-opacity="0.46"/>
<circle cx="117.2" cy="322.4" r="1.45" fill="#14532d" fill-opacity="0.46"/>
<circle cx="120.2" cy="322.4" r="1.45" fill="#14532d" fill-opacity="0.46"/>
<circle cx="95.8" cy="322.5" r="1.45" fill="#14532d" fill-opacity="0.46"/>
<circle cx="98.8" cy="322.4" r="1.45" fill="#14532d" fill-opacity="0.46"/>
<circle cx="101.9" cy="322.5" r="1.45" fill="#14532d" fill-opacity="0.46"/>
<circle cx="104.9" cy="322.6" r="1.45" fill="#14532d" fill-opacity="0.46"/>
<circle cx="108.0" cy="322.4" r="1.45" fill="#14532d" fill-opacity="0.46"/>
<circle cx="111.1" cy="322.3" r="1.45" fill="#14532d" fill-opacity="0.46"/>
<circle cx="114.1" cy="322.3" r="1.45" fill="#14532d" fill-opacity="0.46"/>
<circle cx="117.2" cy="322.3" r="1.45" fill="#14532d" fill-opacity="0.46"/>
<circle cx="120.2" cy="322.4" r="1.45" fill="#14532d" fill-opacity="0.46"/>
<circle cx="95.8" cy="322.3" r="1.45" fill="#14532d" fill-opacity="0.46"/>
<circle cx="98.8" cy="322.4" r="1.45" fill="#14532d" fill-opacity="0.46"/>
<circle cx="101.9" cy="322.7" r="1.45" fill="#14532d" fill-opacity="0.46"/>
<circle cx="104.9" cy="322.7" r="1.45" fill="#14532d" fill-opacity="0.46"/>
<circle cx="108.0" cy="322.5" r="1.45" fill="#14532d" fill-opacity="0.46"/>
<circle cx="111.1" cy="322.5" r="1.45" fill="#14532d" fill-opacity="0.46"/>
<circle cx="114.1" cy="322.7" r="1.45" fill="#14532d" fill-opacity="0.46"/>
<circle cx="117.2" cy="322.9" r="1.45" fill="#14532d" fill-opacity="0.46"/>
<circle cx="120.2" cy="323.0" r="1.45" fill="#14532d" fill-opacity="0.46"/>
<circle cx="95.8" cy="322.8" r="1.45" fill="#14532d" fill-opacity="0.46"/>
<circle cx="98.8" cy="322.8" r="1.45" fill="#14532d" fill-opacity="0.46"/>
<circle cx="101.9" cy="322.9" r="1.45" fill="#14532d" fill-opacity="0.46"/>
<circle cx="104.9" cy="322.8" r="1.45" fill="#14532d" fill-opacity="0.46"/>
<circle cx="108.0" cy="322.7" r="1.45" fill="#14532d" fill-opacity="0.46"/>
<circle cx="111.1" cy="322.3" r="1.45" fill="#14532d" fill-opacity="0.46"/>
<circle cx="114.1" cy="322.7" r="1.45" fill="#14532d" fill-opacity="0.46"/>
<circle cx="117.2" cy="322.8" r="1.45" fill="#14532d" fill-opacity="0.46"/>
<circle cx="120.2" cy="322.3" r="1.45" fill="#14532d" fill-opacity="0.46"/>
<circle cx="95.8" cy="322.5" r="1.45" fill="#14532d" fill-opacity="0.46"/>
<circle cx="98.8" cy="322.5" r="1.45" fill="#14532d" fill-opacity="0.46"/>
<circle cx="101.9" cy="322.5" r="1.45" fill="#14532d" fill-opacity="0.46"/>
<circle cx="104.9" cy="322.5" r="1.45" fill="#14532d" fill-opacity="0.46"/>
<circle cx="108.0" cy="326.9" r="1.45" fill="#14532d" fill-opacity="0.46"/>
<circle cx="111.1" cy="326.3" r="1.45" fill="#14532d" fill-opacity="0.46"/>
<circle cx="114.1" cy="326.0" r="1.45" fill="#14532d" fill-opacity="0.46"/>
<circle cx="117.2" cy="325.9" r="1.45" fill="#14532d" fill-opacity="0.46"/>
<circle cx="120.2" cy="325.7" r="1.45" fill="#14532d" fill-opacity="0.46"/>
<circle cx="95.8" cy="324.7" r="1.45" fill="#14532d" fill-opacity="0.46"/>
<circle cx="98.8" cy="325.4" r="1.45" fill="#14532d" fill-opacity="0.46"/>
<circle cx="101.9" cy="324.6" r="1.45" fill="#14532d" fill-opacity="0.46"/>
<circle cx="104.9" cy="325.1" r="1.45" fill="#14532d" fill-opacity="0.46"/>
<circle cx="108.0" cy="324.4" r="1.45" fill="#14532d" fill-opacity="0.46"/>
<circle cx="111.1" cy="324.1" r="1.45" fill="#14532d" fill-opacity="0.46"/>
<circle cx="114.1" cy="324.3" r="1.45" fill="#14532d" fill-opacity="0.46"/>
<circle cx="117.2" cy="323.5" r="1.45" fill="#14532d" fill-opacity="0.46"/>
<circle cx="120.2" cy="323.0" r="1.45" fill="#14532d" fill-opacity="0.46"/>
<circle cx="95.8" cy="324.2" r="1.45" fill="#14532d" fill-opacity="0.46"/>
<line x1="108.0" y1="322.3" x2="108.0" y2="326.9" stroke="#14532d" stroke-opacity="0.86" stroke-width="1.8"/>
<line x1="95.8" y1="322.3" x2="120.2" y2="322.3" stroke="#14532d" stroke-opacity="0.86" stroke-width="1.8"/>
<line x1="95.8" y1="326.9" x2="120.2" y2="326.9" stroke="#14532d" stroke-opacity="0.86" stroke-width="1.8"/>
<rect x="91.0" y="322.5" width="34.0" height="1.0" rx="2" fill="#14532d" fill-opacity="0.18" stroke="#14532d" stroke-opacity="0.9" stroke-width="1.8"/>
<line x1="91.0" y1="322.7" x2="125.0" y2="322.7" stroke="#14532d" stroke-opacity="0.96" stroke-width="2.6"/>
<text x="131.0" y="326.7" text-anchor="start" font-family="Inter,Segoe UI,Arial,sans-serif" font-size="11" font-weight="700" fill="#111827" stroke="#ffffff" stroke-width="3" paint-order="stroke">58.5</text>
<circle cx="179.1" cy="316.8" r="1.45" fill="#7c3aed" fill-opacity="0.46"/>
<circle cx="182.2" cy="317.4" r="1.45" fill="#7c3aed" fill-opacity="0.46"/>
<circle cx="185.2" cy="316.1" r="1.45" fill="#7c3aed" fill-opacity="0.46"/>
<circle cx="188.3" cy="316.4" r="1.45" fill="#7c3aed" fill-opacity="0.46"/>
<circle cx="191.3" cy="316.2" r="1.45" fill="#7c3aed" fill-opacity="0.46"/>
<circle cx="194.4" cy="316.1" r="1.45" fill="#7c3aed" fill-opacity="0.46"/>
<circle cx="197.5" cy="315.1" r="1.45" fill="#7c3aed" fill-opacity="0.46"/>
<circle cx="200.5" cy="316.2" r="1.45" fill="#7c3aed" fill-opacity="0.46"/>
<circle cx="203.6" cy="317.1" r="1.45" fill="#7c3aed" fill-opacity="0.46"/>
<circle cx="179.1" cy="316.1" r="1.45" fill="#7c3aed" fill-opacity="0.46"/>
<circle cx="182.2" cy="316.0" r="1.45" fill="#7c3aed" fill-opacity="0.46"/>
<circle cx="185.2" cy="317.6" r="1.45" fill="#7c3aed" fill-opacity="0.46"/>
<circle cx="188.3" cy="316.0" r="1.45" fill="#7c3aed" fill-opacity="0.46"/>
<circle cx="191.3" cy="317.1" r="1.45" fill="#7c3aed" fill-opacity="0.46"/>
<circle cx="194.4" cy="316.3" r="1.45" fill="#7c3aed" fill-opacity="0.46"/>
<circle cx="197.5" cy="316.2" r="1.45" fill="#7c3aed" fill-opacity="0.46"/>
<circle cx="200.5" cy="316.2" r="1.45" fill="#7c3aed" fill-opacity="0.46"/>
<circle cx="203.6" cy="314.7" r="1.45" fill="#7c3aed" fill-opacity="0.46"/>
<circle cx="179.1" cy="316.4" r="1.45" fill="#7c3aed" fill-opacity="0.46"/>
<circle cx="182.2" cy="317.4" r="1.45" fill="#7c3aed" fill-opacity="0.46"/>
<circle cx="185.2" cy="315.8" r="1.45" fill="#7c3aed" fill-opacity="0.46"/>
<circle cx="188.3" cy="315.7" r="1.45" fill="#7c3aed" fill-opacity="0.46"/>
<circle cx="191.3" cy="315.4" r="1.45" fill="#7c3aed" fill-opacity="0.46"/>
<circle cx="194.4" cy="317.4" r="1.45" fill="#7c3aed" fill-opacity="0.46"/>
<circle cx="197.5" cy="317.6" r="1.45" fill="#7c3aed" fill-opacity="0.46"/>
<circle cx="200.5" cy="316.1" r="1.45" fill="#7c3aed" fill-opacity="0.46"/>
<circle cx="203.6" cy="316.2" r="1.45" fill="#7c3aed" fill-opacity="0.46"/>
<circle cx="179.1" cy="315.7" r="1.45" fill="#7c3aed" fill-opacity="0.46"/>
<circle cx="182.2" cy="317.3" r="1.45" fill="#7c3aed" fill-opacity="0.46"/>
<circle cx="185.2" cy="318.3" r="1.45" fill="#7c3aed" fill-opacity="0.46"/>
<circle cx="188.3" cy="315.9" r="1.45" fill="#7c3aed" fill-opacity="0.46"/>
<circle cx="191.3" cy="317.4" r="1.45" fill="#7c3aed" fill-opacity="0.46"/>
<circle cx="194.4" cy="317.4" r="1.45" fill="#7c3aed" fill-opacity="0.46"/>
<circle cx="197.5" cy="315.5" r="1.45" fill="#7c3aed" fill-opacity="0.46"/>
<circle cx="200.5" cy="315.1" r="1.45" fill="#7c3aed" fill-opacity="0.46"/>
<circle cx="203.6" cy="317.3" r="1.45" fill="#7c3aed" fill-opacity="0.46"/>
<circle cx="179.1" cy="316.6" r="1.45" fill="#7c3aed" fill-opacity="0.46"/>
<circle cx="182.2" cy="317.4" r="1.45" fill="#7c3aed" fill-opacity="0.46"/>
<circle cx="185.2" cy="317.5" r="1.45" fill="#7c3aed" fill-opacity="0.46"/>
<circle cx="188.3" cy="317.4" r="1.45" fill="#7c3aed" fill-opacity="0.46"/>
<circle cx="191.3" cy="317.5" r="1.45" fill="#7c3aed" fill-opacity="0.46"/>
<circle cx="194.4" cy="317.4" r="1.45" fill="#7c3aed" fill-opacity="0.46"/>
<circle cx="197.5" cy="317.6" r="1.45" fill="#7c3aed" fill-opacity="0.46"/>
<circle cx="200.5" cy="317.6" r="1.45" fill="#7c3aed" fill-opacity="0.46"/>
<circle cx="203.6" cy="317.4" r="1.45" fill="#7c3aed" fill-opacity="0.46"/>
<circle cx="179.1" cy="317.8" r="1.45" fill="#7c3aed" fill-opacity="0.46"/>
<line x1="191.3" y1="314.7" x2="191.3" y2="318.3" stroke="#7c3aed" stroke-opacity="0.86" stroke-width="1.8"/>
<line x1="179.1" y1="314.7" x2="203.6" y2="314.7" stroke="#7c3aed" stroke-opacity="0.86" stroke-width="1.8"/>
<line x1="179.1" y1="318.3" x2="203.6" y2="318.3" stroke="#7c3aed" stroke-opacity="0.86" stroke-width="1.8"/>
<rect x="174.3" y="316.1" width="34.0" height="1.3" rx="2" fill="#7c3aed" fill-opacity="0.18" stroke="#7c3aed" stroke-opacity="0.9" stroke-width="1.8"/>
<line x1="174.3" y1="316.5" x2="208.3" y2="316.5" stroke="#7c3aed" stroke-opacity="0.96" stroke-width="2.6"/>
<text x="214.3" y="320.5" text-anchor="start" font-family="Inter,Segoe UI,Arial,sans-serif" font-size="11" font-weight="700" fill="#111827" stroke="#ffffff" stroke-width="3" paint-order="stroke">69.9</text>
<circle cx="262.4" cy="318.6" r="1.45" fill="#1e3a8a" fill-opacity="0.46"/>
<circle cx="265.5" cy="318.4" r="1.45" fill="#1e3a8a" fill-opacity="0.46"/>
<circle cx="268.5" cy="313.9" r="1.45" fill="#1e3a8a" fill-opacity="0.46"/>
<circle cx="271.6" cy="316.9" r="1.45" fill="#1e3a8a" fill-opacity="0.46"/>
<circle cx="274.7" cy="317.7" r="1.45" fill="#1e3a8a" fill-opacity="0.46"/>
<circle cx="277.7" cy="318.6" r="1.45" fill="#1e3a8a" fill-opacity="0.46"/>
<circle cx="280.8" cy="317.3" r="1.45" fill="#1e3a8a" fill-opacity="0.46"/>
<circle cx="283.8" cy="317.6" r="1.45" fill="#1e3a8a" fill-opacity="0.46"/>
<circle cx="286.9" cy="313.8" r="1.45" fill="#1e3a8a" fill-opacity="0.46"/>
<circle cx="262.4" cy="318.2" r="1.45" fill="#1e3a8a" fill-opacity="0.46"/>
<circle cx="265.5" cy="318.6" r="1.45" fill="#1e3a8a" fill-opacity="0.46"/>
<circle cx="268.5" cy="311.6" r="1.45" fill="#1e3a8a" fill-opacity="0.46"/>
<circle cx="271.6" cy="317.0" r="1.45" fill="#1e3a8a" fill-opacity="0.46"/>
<circle cx="274.7" cy="315.8" r="1.45" fill="#1e3a8a" fill-opacity="0.46"/>
<circle cx="277.7" cy="313.8" r="1.45" fill="#1e3a8a" fill-opacity="0.46"/>
<circle cx="280.8" cy="316.0" r="1.45" fill="#1e3a8a" fill-opacity="0.46"/>
<circle cx="283.8" cy="313.8" r="1.45" fill="#1e3a8a" fill-opacity="0.46"/>
<circle cx="286.9" cy="316.7" r="1.45" fill="#1e3a8a" fill-opacity="0.46"/>
<circle cx="262.4" cy="313.6" r="1.45" fill="#1e3a8a" fill-opacity="0.46"/>
<circle cx="265.5" cy="317.7" r="1.45" fill="#1e3a8a" fill-opacity="0.46"/>
<circle cx="268.5" cy="315.7" r="1.45" fill="#1e3a8a" fill-opacity="0.46"/>
<circle cx="271.6" cy="315.1" r="1.45" fill="#1e3a8a" fill-opacity="0.46"/>
<circle cx="274.7" cy="317.5" r="1.45" fill="#1e3a8a" fill-opacity="0.46"/>
<circle cx="277.7" cy="318.2" r="1.45" fill="#1e3a8a" fill-opacity="0.46"/>
<circle cx="280.8" cy="314.0" r="1.45" fill="#1e3a8a" fill-opacity="0.46"/>
<circle cx="283.8" cy="314.5" r="1.45" fill="#1e3a8a" fill-opacity="0.46"/>
<circle cx="286.9" cy="317.0" r="1.45" fill="#1e3a8a" fill-opacity="0.46"/>
<circle cx="262.4" cy="315.3" r="1.45" fill="#1e3a8a" fill-opacity="0.46"/>
<circle cx="265.5" cy="317.1" r="1.45" fill="#1e3a8a" fill-opacity="0.46"/>
<circle cx="268.5" cy="315.0" r="1.45" fill="#1e3a8a" fill-opacity="0.46"/>
<circle cx="271.6" cy="318.2" r="1.45" fill="#1e3a8a" fill-opacity="0.46"/>
<circle cx="274.7" cy="315.2" r="1.45" fill="#1e3a8a" fill-opacity="0.46"/>
<circle cx="277.7" cy="316.7" r="1.45" fill="#1e3a8a" fill-opacity="0.46"/>
<circle cx="280.8" cy="316.6" r="1.45" fill="#1e3a8a" fill-opacity="0.46"/>
<circle cx="283.8" cy="315.8" r="1.45" fill="#1e3a8a" fill-opacity="0.46"/>
<circle cx="286.9" cy="317.5" r="1.45" fill="#1e3a8a" fill-opacity="0.46"/>
<circle cx="262.4" cy="316.7" r="1.45" fill="#1e3a8a" fill-opacity="0.46"/>
<circle cx="265.5" cy="314.6" r="1.45" fill="#1e3a8a" fill-opacity="0.46"/>
<circle cx="268.5" cy="319.0" r="1.45" fill="#1e3a8a" fill-opacity="0.46"/>
<circle cx="271.6" cy="318.2" r="1.45" fill="#1e3a8a" fill-opacity="0.46"/>
<circle cx="274.7" cy="316.0" r="1.45" fill="#1e3a8a" fill-opacity="0.46"/>
<line x1="274.7" y1="311.6" x2="274.7" y2="319.0" stroke="#1e3a8a" stroke-opacity="0.86" stroke-width="1.8"/>
<line x1="262.4" y1="311.6" x2="286.9" y2="311.6" stroke="#1e3a8a" stroke-opacity="0.86" stroke-width="1.8"/>
<line x1="262.4" y1="319.0" x2="286.9" y2="319.0" stroke="#1e3a8a" stroke-opacity="0.86" stroke-width="1.8"/>
<rect x="257.7" y="315.1" width="34.0" height="2.5" rx="2" fill="#1e3a8a" fill-opacity="0.18" stroke="#1e3a8a" stroke-opacity="0.9" stroke-width="1.8"/>
<line x1="257.7" y1="316.7" x2="291.7" y2="316.7" stroke="#1e3a8a" stroke-opacity="0.96" stroke-width="2.6"/>
<text x="297.7" y="320.7" text-anchor="start" font-family="Inter,Segoe UI,Arial,sans-serif" font-size="11" font-weight="700" fill="#111827" stroke="#ffffff" stroke-width="3" paint-order="stroke">69.5</text>
<circle cx="345.8" cy="319.3" r="1.45" fill="#eab308" fill-opacity="0.46"/>
<circle cx="348.8" cy="321.0" r="1.45" fill="#eab308" fill-opacity="0.46"/>
<circle cx="351.9" cy="322.0" r="1.45" fill="#eab308" fill-opacity="0.46"/>
<circle cx="354.9" cy="320.0" r="1.45" fill="#eab308" fill-opacity="0.46"/>
<circle cx="358.0" cy="315.4" r="1.45" fill="#eab308" fill-opacity="0.46"/>
<circle cx="361.1" cy="314.9" r="1.45" fill="#eab308" fill-opacity="0.46"/>
<circle cx="364.1" cy="316.8" r="1.45" fill="#eab308" fill-opacity="0.46"/>
<circle cx="367.2" cy="319.8" r="1.45" fill="#eab308" fill-opacity="0.46"/>
<circle cx="370.2" cy="320.0" r="1.45" fill="#eab308" fill-opacity="0.46"/>
<circle cx="345.8" cy="324.2" r="1.45" fill="#eab308" fill-opacity="0.46"/>
<circle cx="348.8" cy="321.6" r="1.45" fill="#eab308" fill-opacity="0.46"/>
<line x1="358.0" y1="314.9" x2="358.0" y2="324.2" stroke="#eab308" stroke-opacity="0.86" stroke-width="1.8"/>
<line x1="345.8" y1="314.9" x2="370.2" y2="314.9" stroke="#eab308" stroke-opacity="0.86" stroke-width="1.8"/>
<line x1="345.8" y1="324.2" x2="370.2" y2="324.2" stroke="#eab308" stroke-opacity="0.86" stroke-width="1.8"/>
<rect x="341.0" y="318.1" width="34.0" height="3.2" rx="2" fill="#eab308" fill-opacity="0.18" stroke="#eab308" stroke-opacity="0.9" stroke-width="1.8"/>
<line x1="341.0" y1="320.0" x2="375.0" y2="320.0" stroke="#eab308" stroke-opacity="0.96" stroke-width="2.6"/>
<text x="381.0" y="324.0" text-anchor="start" font-family="Inter,Segoe UI,Arial,sans-serif" font-size="11" font-weight="700" fill="#111827" stroke="#ffffff" stroke-width="3" paint-order="stroke">63.5</text>
<text x="571.0" y="398" text-anchor="middle" font-family="Inter,Segoe UI,Arial,sans-serif" font-size="11" font-weight="700" fill="#111827">35B-A3B</text>
<circle cx="433.8" cy="298.5" r="1.45" fill="#14532d" fill-opacity="0.46"/>
<circle cx="436.8" cy="298.9" r="1.45" fill="#14532d" fill-opacity="0.46"/>
<circle cx="439.9" cy="297.4" r="1.45" fill="#14532d" fill-opacity="0.46"/>
<circle cx="442.9" cy="297.9" r="1.45" fill="#14532d" fill-opacity="0.46"/>
<circle cx="446.0" cy="299.0" r="1.45" fill="#14532d" fill-opacity="0.46"/>
<circle cx="449.1" cy="293.0" r="1.45" fill="#14532d" fill-opacity="0.46"/>
<circle cx="452.1" cy="295.0" r="1.45" fill="#14532d" fill-opacity="0.46"/>
<circle cx="455.2" cy="292.6" r="1.45" fill="#14532d" fill-opacity="0.46"/>
<circle cx="458.2" cy="293.7" r="1.45" fill="#14532d" fill-opacity="0.46"/>
<circle cx="433.8" cy="292.7" r="1.45" fill="#14532d" fill-opacity="0.46"/>
<circle cx="436.8" cy="300.1" r="1.45" fill="#14532d" fill-opacity="0.46"/>
<circle cx="439.9" cy="300.5" r="1.45" fill="#14532d" fill-opacity="0.46"/>
<circle cx="442.9" cy="300.0" r="1.45" fill="#14532d" fill-opacity="0.46"/>
<circle cx="446.0" cy="300.0" r="1.45" fill="#14532d" fill-opacity="0.46"/>
<circle cx="449.1" cy="300.9" r="1.45" fill="#14532d" fill-opacity="0.46"/>
<circle cx="452.1" cy="296.7" r="1.45" fill="#14532d" fill-opacity="0.46"/>
<circle cx="455.2" cy="297.6" r="1.45" fill="#14532d" fill-opacity="0.46"/>
<circle cx="458.2" cy="297.0" r="1.45" fill="#14532d" fill-opacity="0.46"/>
<circle cx="433.8" cy="297.8" r="1.45" fill="#14532d" fill-opacity="0.46"/>
<circle cx="436.8" cy="297.0" r="1.45" fill="#14532d" fill-opacity="0.46"/>
<circle cx="439.9" cy="292.3" r="1.45" fill="#14532d" fill-opacity="0.46"/>
<circle cx="442.9" cy="291.8" r="1.45" fill="#14532d" fill-opacity="0.46"/>
<circle cx="446.0" cy="292.9" r="1.45" fill="#14532d" fill-opacity="0.46"/>
<circle cx="449.1" cy="291.6" r="1.45" fill="#14532d" fill-opacity="0.46"/>
<circle cx="452.1" cy="292.1" r="1.45" fill="#14532d" fill-opacity="0.46"/>
<circle cx="455.2" cy="297.0" r="1.45" fill="#14532d" fill-opacity="0.46"/>
<circle cx="458.2" cy="297.2" r="1.45" fill="#14532d" fill-opacity="0.46"/>
<circle cx="433.8" cy="296.1" r="1.45" fill="#14532d" fill-opacity="0.46"/>
<circle cx="436.8" cy="297.5" r="1.45" fill="#14532d" fill-opacity="0.46"/>
<circle cx="439.9" cy="297.5" r="1.45" fill="#14532d" fill-opacity="0.46"/>
<circle cx="442.9" cy="299.5" r="1.45" fill="#14532d" fill-opacity="0.46"/>
<circle cx="446.0" cy="299.7" r="1.45" fill="#14532d" fill-opacity="0.46"/>
<circle cx="449.1" cy="299.4" r="1.45" fill="#14532d" fill-opacity="0.46"/>
<circle cx="452.1" cy="298.4" r="1.45" fill="#14532d" fill-opacity="0.46"/>
<circle cx="455.2" cy="299.8" r="1.45" fill="#14532d" fill-opacity="0.46"/>
<circle cx="458.2" cy="299.9" r="1.45" fill="#14532d" fill-opacity="0.46"/>
<circle cx="433.8" cy="300.2" r="1.45" fill="#14532d" fill-opacity="0.46"/>
<circle cx="436.8" cy="299.8" r="1.45" fill="#14532d" fill-opacity="0.46"/>
<circle cx="439.9" cy="299.4" r="1.45" fill="#14532d" fill-opacity="0.46"/>
<circle cx="442.9" cy="299.7" r="1.45" fill="#14532d" fill-opacity="0.46"/>
<circle cx="446.0" cy="301.9" r="1.45" fill="#14532d" fill-opacity="0.46"/>
<circle cx="449.1" cy="300.7" r="1.45" fill="#14532d" fill-opacity="0.46"/>
<circle cx="452.1" cy="301.0" r="1.45" fill="#14532d" fill-opacity="0.46"/>
<circle cx="455.2" cy="300.9" r="1.45" fill="#14532d" fill-opacity="0.46"/>
<circle cx="458.2" cy="303.8" r="1.45" fill="#14532d" fill-opacity="0.46"/>
<circle cx="433.8" cy="301.4" r="1.45" fill="#14532d" fill-opacity="0.46"/>
<circle cx="436.8" cy="299.5" r="1.45" fill="#14532d" fill-opacity="0.46"/>
<circle cx="439.9" cy="300.2" r="1.45" fill="#14532d" fill-opacity="0.46"/>
<circle cx="442.9" cy="301.8" r="1.45" fill="#14532d" fill-opacity="0.46"/>
<circle cx="446.0" cy="300.1" r="1.45" fill="#14532d" fill-opacity="0.46"/>
<circle cx="449.1" cy="300.3" r="1.45" fill="#14532d" fill-opacity="0.46"/>
<circle cx="452.1" cy="301.0" r="1.45" fill="#14532d" fill-opacity="0.46"/>
<circle cx="455.2" cy="301.3" r="1.45" fill="#14532d" fill-opacity="0.46"/>
<circle cx="458.2" cy="299.2" r="1.45" fill="#14532d" fill-opacity="0.46"/>
<circle cx="433.8" cy="300.4" r="1.45" fill="#14532d" fill-opacity="0.46"/>
<line x1="446.0" y1="291.6" x2="446.0" y2="303.8" stroke="#14532d" stroke-opacity="0.86" stroke-width="1.8"/>
<line x1="433.8" y1="291.6" x2="458.2" y2="291.6" stroke="#14532d" stroke-opacity="0.86" stroke-width="1.8"/>
<line x1="433.8" y1="303.8" x2="458.2" y2="303.8" stroke="#14532d" stroke-opacity="0.86" stroke-width="1.8"/>
<rect x="429.0" y="297.0" width="34.0" height="3.2" rx="2" fill="#14532d" fill-opacity="0.18" stroke="#14532d" stroke-opacity="0.9" stroke-width="1.8"/>
<line x1="429.0" y1="299.4" x2="463.0" y2="299.4" stroke="#14532d" stroke-opacity="0.96" stroke-width="2.6"/>
<text x="469.0" y="303.4" text-anchor="start" font-family="Inter,Segoe UI,Arial,sans-serif" font-size="11" font-weight="700" fill="#111827" stroke="#ffffff" stroke-width="3" paint-order="stroke">102</text>
<circle cx="517.1" cy="255.9" r="1.45" fill="#7c3aed" fill-opacity="0.46"/>
<circle cx="520.2" cy="255.7" r="1.45" fill="#7c3aed" fill-opacity="0.46"/>
<circle cx="523.2" cy="256.1" r="1.45" fill="#7c3aed" fill-opacity="0.46"/>
<circle cx="526.3" cy="257.1" r="1.45" fill="#7c3aed" fill-opacity="0.46"/>
<circle cx="529.3" cy="257.3" r="1.45" fill="#7c3aed" fill-opacity="0.46"/>
<circle cx="532.4" cy="256.6" r="1.45" fill="#7c3aed" fill-opacity="0.46"/>
<circle cx="535.5" cy="251.0" r="1.45" fill="#7c3aed" fill-opacity="0.46"/>
<circle cx="538.5" cy="252.6" r="1.45" fill="#7c3aed" fill-opacity="0.46"/>
<circle cx="541.6" cy="252.3" r="1.45" fill="#7c3aed" fill-opacity="0.46"/>
<circle cx="517.1" cy="252.4" r="1.45" fill="#7c3aed" fill-opacity="0.46"/>
<circle cx="520.2" cy="252.9" r="1.45" fill="#7c3aed" fill-opacity="0.46"/>
<circle cx="523.2" cy="251.5" r="1.45" fill="#7c3aed" fill-opacity="0.46"/>
<circle cx="526.3" cy="253.9" r="1.45" fill="#7c3aed" fill-opacity="0.46"/>
<circle cx="529.3" cy="254.1" r="1.45" fill="#7c3aed" fill-opacity="0.46"/>
<circle cx="532.4" cy="253.3" r="1.45" fill="#7c3aed" fill-opacity="0.46"/>
<circle cx="535.5" cy="253.0" r="1.45" fill="#7c3aed" fill-opacity="0.46"/>
<circle cx="538.5" cy="253.5" r="1.45" fill="#7c3aed" fill-opacity="0.46"/>
<circle cx="541.6" cy="252.3" r="1.45" fill="#7c3aed" fill-opacity="0.46"/>
<circle cx="517.1" cy="253.2" r="1.45" fill="#7c3aed" fill-opacity="0.46"/>
<circle cx="520.2" cy="251.1" r="1.45" fill="#7c3aed" fill-opacity="0.46"/>
<circle cx="523.2" cy="256.7" r="1.45" fill="#7c3aed" fill-opacity="0.46"/>
<circle cx="526.3" cy="256.3" r="1.45" fill="#7c3aed" fill-opacity="0.46"/>
<circle cx="529.3" cy="256.5" r="1.45" fill="#7c3aed" fill-opacity="0.46"/>
<circle cx="532.4" cy="317.6" r="1.45" fill="#7c3aed" fill-opacity="0.46"/>
<circle cx="535.5" cy="284.7" r="1.45" fill="#7c3aed" fill-opacity="0.46"/>
<circle cx="538.5" cy="317.6" r="1.45" fill="#7c3aed" fill-opacity="0.46"/>
<circle cx="541.6" cy="319.9" r="1.45" fill="#7c3aed" fill-opacity="0.46"/>
<circle cx="517.1" cy="305.6" r="1.45" fill="#7c3aed" fill-opacity="0.46"/>
<circle cx="520.2" cy="255.6" r="1.45" fill="#7c3aed" fill-opacity="0.46"/>
<circle cx="523.2" cy="319.5" r="1.45" fill="#7c3aed" fill-opacity="0.46"/>
<circle cx="526.3" cy="298.3" r="1.45" fill="#7c3aed" fill-opacity="0.46"/>
<circle cx="529.3" cy="319.7" r="1.45" fill="#7c3aed" fill-opacity="0.46"/>
<circle cx="532.4" cy="317.2" r="1.45" fill="#7c3aed" fill-opacity="0.46"/>
<circle cx="535.5" cy="256.7" r="1.45" fill="#7c3aed" fill-opacity="0.46"/>
<circle cx="538.5" cy="257.1" r="1.45" fill="#7c3aed" fill-opacity="0.46"/>
<circle cx="541.6" cy="311.7" r="1.45" fill="#7c3aed" fill-opacity="0.46"/>
<circle cx="517.1" cy="319.6" r="1.45" fill="#7c3aed" fill-opacity="0.46"/>
<circle cx="520.2" cy="311.1" r="1.45" fill="#7c3aed" fill-opacity="0.46"/>
<circle cx="523.2" cy="256.5" r="1.45" fill="#7c3aed" fill-opacity="0.46"/>
<circle cx="526.3" cy="254.3" r="1.45" fill="#7c3aed" fill-opacity="0.46"/>
<circle cx="529.3" cy="255.0" r="1.45" fill="#7c3aed" fill-opacity="0.46"/>
<circle cx="532.4" cy="254.3" r="1.45" fill="#7c3aed" fill-opacity="0.46"/>
<circle cx="535.5" cy="253.3" r="1.45" fill="#7c3aed" fill-opacity="0.46"/>
<circle cx="538.5" cy="253.3" r="1.45" fill="#7c3aed" fill-opacity="0.46"/>
<circle cx="541.6" cy="253.5" r="1.45" fill="#7c3aed" fill-opacity="0.46"/>
<circle cx="517.1" cy="256.4" r="1.45" fill="#7c3aed" fill-opacity="0.46"/>
<circle cx="520.2" cy="255.3" r="1.45" fill="#7c3aed" fill-opacity="0.46"/>
<circle cx="523.2" cy="253.4" r="1.45" fill="#7c3aed" fill-opacity="0.46"/>
<circle cx="526.3" cy="253.1" r="1.45" fill="#7c3aed" fill-opacity="0.46"/>
<circle cx="529.3" cy="253.0" r="1.45" fill="#7c3aed" fill-opacity="0.46"/>
<circle cx="532.4" cy="253.9" r="1.45" fill="#7c3aed" fill-opacity="0.46"/>
<circle cx="535.5" cy="253.9" r="1.45" fill="#7c3aed" fill-opacity="0.46"/>
<circle cx="538.5" cy="254.1" r="1.45" fill="#7c3aed" fill-opacity="0.46"/>
<circle cx="541.6" cy="253.8" r="1.45" fill="#7c3aed" fill-opacity="0.46"/>
<circle cx="517.1" cy="253.6" r="1.45" fill="#7c3aed" fill-opacity="0.46"/>
<line x1="529.3" y1="251.0" x2="529.3" y2="319.9" stroke="#7c3aed" stroke-opacity="0.86" stroke-width="1.8"/>
<line x1="517.1" y1="251.0" x2="541.6" y2="251.0" stroke="#7c3aed" stroke-opacity="0.86" stroke-width="1.8"/>
<line x1="517.1" y1="319.9" x2="541.6" y2="319.9" stroke="#7c3aed" stroke-opacity="0.86" stroke-width="1.8"/>
<rect x="512.3" y="253.3" width="34.0" height="3.8" rx="2" fill="#7c3aed" fill-opacity="0.18" stroke="#7c3aed" stroke-opacity="0.9" stroke-width="1.8"/>
<line x1="512.3" y1="255.0" x2="546.3" y2="255.0" stroke="#7c3aed" stroke-opacity="0.96" stroke-width="2.6"/>
<text x="552.3" y="259.0" text-anchor="start" font-family="Inter,Segoe UI,Arial,sans-serif" font-size="11" font-weight="700" fill="#111827" stroke="#ffffff" stroke-width="3" paint-order="stroke">185</text>
<circle cx="600.4" cy="268.4" r="1.45" fill="#1e3a8a" fill-opacity="0.46"/>
<circle cx="603.5" cy="267.8" r="1.45" fill="#1e3a8a" fill-opacity="0.46"/>
<circle cx="606.5" cy="266.6" r="1.45" fill="#1e3a8a" fill-opacity="0.46"/>
<circle cx="609.6" cy="194.0" r="1.45" fill="#1e3a8a" fill-opacity="0.46"/>
<circle cx="612.7" cy="216.4" r="1.45" fill="#1e3a8a" fill-opacity="0.46"/>
<circle cx="615.7" cy="199.7" r="1.45" fill="#1e3a8a" fill-opacity="0.46"/>
<circle cx="618.8" cy="202.3" r="1.45" fill="#1e3a8a" fill-opacity="0.46"/>
<circle cx="621.8" cy="231.4" r="1.45" fill="#1e3a8a" fill-opacity="0.46"/>
<circle cx="624.9" cy="225.5" r="1.45" fill="#1e3a8a" fill-opacity="0.46"/>
<circle cx="600.4" cy="224.2" r="1.45" fill="#1e3a8a" fill-opacity="0.46"/>
<circle cx="603.5" cy="201.8" r="1.45" fill="#1e3a8a" fill-opacity="0.46"/>
<circle cx="606.5" cy="267.9" r="1.45" fill="#1e3a8a" fill-opacity="0.46"/>
<circle cx="609.6" cy="236.7" r="1.45" fill="#1e3a8a" fill-opacity="0.46"/>
<circle cx="612.7" cy="267.7" r="1.45" fill="#1e3a8a" fill-opacity="0.46"/>
<circle cx="615.7" cy="239.5" r="1.45" fill="#1e3a8a" fill-opacity="0.46"/>
<circle cx="618.8" cy="268.3" r="1.45" fill="#1e3a8a" fill-opacity="0.46"/>
<circle cx="621.8" cy="250.4" r="1.45" fill="#1e3a8a" fill-opacity="0.46"/>
<circle cx="624.9" cy="234.1" r="1.45" fill="#1e3a8a" fill-opacity="0.46"/>
<circle cx="600.4" cy="269.4" r="1.45" fill="#1e3a8a" fill-opacity="0.46"/>
<circle cx="603.5" cy="269.9" r="1.45" fill="#1e3a8a" fill-opacity="0.46"/>
<circle cx="606.5" cy="269.3" r="1.45" fill="#1e3a8a" fill-opacity="0.46"/>
<circle cx="609.6" cy="269.7" r="1.45" fill="#1e3a8a" fill-opacity="0.46"/>
<circle cx="612.7" cy="313.5" r="1.45" fill="#1e3a8a" fill-opacity="0.46"/>
<circle cx="615.7" cy="270.6" r="1.45" fill="#1e3a8a" fill-opacity="0.46"/>
<circle cx="618.8" cy="305.4" r="1.45" fill="#1e3a8a" fill-opacity="0.46"/>
<circle cx="621.8" cy="291.5" r="1.45" fill="#1e3a8a" fill-opacity="0.46"/>
<circle cx="624.9" cy="191.2" r="1.45" fill="#1e3a8a" fill-opacity="0.46"/>
<circle cx="600.4" cy="267.7" r="1.45" fill="#1e3a8a" fill-opacity="0.46"/>
<circle cx="603.5" cy="267.0" r="1.45" fill="#1e3a8a" fill-opacity="0.46"/>
<circle cx="606.5" cy="202.2" r="1.45" fill="#1e3a8a" fill-opacity="0.46"/>
<circle cx="609.6" cy="205.6" r="1.45" fill="#1e3a8a" fill-opacity="0.46"/>
<circle cx="612.7" cy="267.0" r="1.45" fill="#1e3a8a" fill-opacity="0.46"/>
<circle cx="615.7" cy="267.3" r="1.45" fill="#1e3a8a" fill-opacity="0.46"/>
<circle cx="618.8" cy="213.0" r="1.45" fill="#1e3a8a" fill-opacity="0.46"/>
<circle cx="621.8" cy="198.2" r="1.45" fill="#1e3a8a" fill-opacity="0.46"/>
<circle cx="624.9" cy="197.0" r="1.45" fill="#1e3a8a" fill-opacity="0.46"/>
<circle cx="600.4" cy="221.3" r="1.45" fill="#1e3a8a" fill-opacity="0.46"/>
<circle cx="603.5" cy="200.6" r="1.45" fill="#1e3a8a" fill-opacity="0.46"/>
<circle cx="606.5" cy="208.5" r="1.45" fill="#1e3a8a" fill-opacity="0.46"/>
<circle cx="609.6" cy="238.7" r="1.45" fill="#1e3a8a" fill-opacity="0.46"/>
<circle cx="612.7" cy="216.1" r="1.45" fill="#1e3a8a" fill-opacity="0.46"/>
<circle cx="615.7" cy="214.4" r="1.45" fill="#1e3a8a" fill-opacity="0.46"/>
<circle cx="618.8" cy="262.4" r="1.45" fill="#1e3a8a" fill-opacity="0.46"/>
<circle cx="621.8" cy="252.7" r="1.45" fill="#1e3a8a" fill-opacity="0.46"/>
<circle cx="624.9" cy="254.1" r="1.45" fill="#1e3a8a" fill-opacity="0.46"/>
<circle cx="600.4" cy="267.8" r="1.45" fill="#1e3a8a" fill-opacity="0.46"/>
<circle cx="603.5" cy="260.4" r="1.45" fill="#1e3a8a" fill-opacity="0.46"/>
<circle cx="606.5" cy="239.6" r="1.45" fill="#1e3a8a" fill-opacity="0.46"/>
<circle cx="609.6" cy="246.7" r="1.45" fill="#1e3a8a" fill-opacity="0.46"/>
<circle cx="612.7" cy="242.6" r="1.45" fill="#1e3a8a" fill-opacity="0.46"/>
<circle cx="615.7" cy="215.2" r="1.45" fill="#1e3a8a" fill-opacity="0.46"/>
<circle cx="618.8" cy="247.1" r="1.45" fill="#1e3a8a" fill-opacity="0.46"/>
<circle cx="621.8" cy="242.2" r="1.45" fill="#1e3a8a" fill-opacity="0.46"/>
<line x1="612.7" y1="191.2" x2="612.7" y2="313.5" stroke="#1e3a8a" stroke-opacity="0.86" stroke-width="1.8"/>
<line x1="600.4" y1="191.2" x2="624.9" y2="191.2" stroke="#1e3a8a" stroke-opacity="0.86" stroke-width="1.8"/>
<line x1="600.4" y1="313.5" x2="624.9" y2="313.5" stroke="#1e3a8a" stroke-opacity="0.86" stroke-width="1.8"/>
<rect x="595.7" y="215.2" width="34.0" height="52.5" rx="2" fill="#1e3a8a" fill-opacity="0.18" stroke="#1e3a8a" stroke-opacity="0.9" stroke-width="1.8"/>
<line x1="595.7" y1="242.6" x2="629.7" y2="242.6" stroke="#1e3a8a" stroke-opacity="0.96" stroke-width="2.6"/>
<text x="635.7" y="246.6" text-anchor="start" font-family="Inter,Segoe UI,Arial,sans-serif" font-size="11" font-weight="700" fill="#111827" stroke="#ffffff" stroke-width="3" paint-order="stroke">208</text>
<circle cx="683.8" cy="215.4" r="1.45" fill="#eab308" fill-opacity="0.46"/>
<circle cx="686.8" cy="213.3" r="1.45" fill="#eab308" fill-opacity="0.46"/>
<circle cx="689.9" cy="216.2" r="1.45" fill="#eab308" fill-opacity="0.46"/>
<circle cx="692.9" cy="230.2" r="1.45" fill="#eab308" fill-opacity="0.46"/>
<circle cx="696.0" cy="204.6" r="1.45" fill="#eab308" fill-opacity="0.46"/>
<circle cx="699.1" cy="211.8" r="1.45" fill="#eab308" fill-opacity="0.46"/>
<circle cx="702.1" cy="201.8" r="1.45" fill="#eab308" fill-opacity="0.46"/>
<circle cx="705.2" cy="214.3" r="1.45" fill="#eab308" fill-opacity="0.46"/>
<circle cx="708.2" cy="251.3" r="1.45" fill="#eab308" fill-opacity="0.46"/>
<circle cx="683.8" cy="268.0" r="1.45" fill="#eab308" fill-opacity="0.46"/>
<circle cx="686.8" cy="221.1" r="1.45" fill="#eab308" fill-opacity="0.46"/>
<line x1="696.0" y1="201.8" x2="696.0" y2="268.0" stroke="#eab308" stroke-opacity="0.86" stroke-width="1.8"/>
<line x1="683.8" y1="201.8" x2="708.2" y2="201.8" stroke="#eab308" stroke-opacity="0.86" stroke-width="1.8"/>
<line x1="683.8" y1="268.0" x2="708.2" y2="268.0" stroke="#eab308" stroke-opacity="0.86" stroke-width="1.8"/>
<rect x="679.0" y="212.6" width="34.0" height="13.1" rx="2" fill="#eab308" fill-opacity="0.18" stroke="#eab308" stroke-opacity="0.9" stroke-width="1.8"/>
<line x1="679.0" y1="215.4" x2="713.0" y2="215.4" stroke="#eab308" stroke-opacity="0.96" stroke-width="2.6"/>
<text x="719.0" y="219.4" text-anchor="start" font-family="Inter,Segoe UI,Arial,sans-serif" font-size="11" font-weight="700" fill="#111827" stroke="#ffffff" stroke-width="3" paint-order="stroke">259</text>
<rect x="64.0" y="433" width="10" height="10" rx="2" fill="#14532d" fill-opacity="0.72"/>
<text x="78.0" y="442" font-family="Inter,Segoe UI,Arial,sans-serif" font-size="10" fill="#374151">MTPLX 0.3.7</text>
<rect x="233.0" y="433" width="10" height="10" rx="2" fill="#7c3aed" fill-opacity="0.72"/>
<text x="247.0" y="442" font-family="Inter,Segoe UI,Arial,sans-serif" font-size="10" fill="#374151">Light. MTP</text>
<rect x="402.0" y="433" width="10" height="10" rx="2" fill="#1e3a8a" fill-opacity="0.72"/>
<text x="416.0" y="442" font-family="Inter,Segoe UI,Arial,sans-serif" font-size="10" fill="#374151">Light. ngram+MTP</text>
<rect x="571.0" y="433" width="10" height="10" rx="2" fill="#eab308" fill-opacity="0.72"/>
<text x="585.0" y="442" font-family="Inter,Segoe UI,Arial,sans-serif" font-size="10" fill="#374151">AX MTP+n-gram</text>
</svg>
