<svg xmlns="http://www.w3.org/2000/svg" width="900" height="460" viewBox="0 0 900 460" role="img" aria-labelledby="title desc">
<title>Qwen3.6 27B 4-bit MTP decode throughput</title>
<desc>Grouped box-and-whisker plot comparing MTPLX 0.3.7, Lightning v0.6.10, Lightning+ng v0.6.10, AX Engine v5.1.0, AX+ngram v5.1.0 across all suites.</desc>
<rect width="100%" height="100%" fill="#f8fafc"/>
<text x="24" y="24" font-family="Inter,Segoe UI,Arial,sans-serif" font-size="16" font-weight="700" fill="#111827">Qwen3.6 27B 4-bit MTP decode throughput</text>
<text x="24" y="46" font-family="Inter,Segoe UI,Arial,sans-serif" font-size="11" fill="#4b5563">All suites combined | box=IQR | whiskers=min/max | dots=runs</text>
<text x="24" y="62" font-family="Inter,Segoe UI,Arial,sans-serif" font-size="10" fill="#6b7280">MTPLX 0.3.7 · Lightning-MLX 0.6.10 · AX Engine v5.1.0</text>
<rect x="807" y="13" width="59" height="22" rx="11" fill="#eef2ff" stroke="#c7d2fe"/>
<text x="836.5" y="28" text-anchor="middle" font-family="Inter,Segoe UI,Arial,sans-serif" font-size="10" font-weight="700" fill="#3730a3">tok/s</text>
<text x="866" y="52" text-anchor="end" font-family="Inter,Segoe UI,Arial,sans-serif" font-size="10" font-weight="700" fill="#374151">Higher is better</text>
<rect x="64" y="86" width="676" height="268" rx="6" fill="#ffffff" stroke="#dbe3ef"/>
<line x1="64" y1="354.0" x2="740" y2="354.0" stroke="#e5e7eb" stroke-width="1"/>
<text x="56" y="357.0" text-anchor="end" font-family="Inter,Segoe UI,Arial,sans-serif" font-size="11" fill="#6b7280">0.0</text>
<line x1="64" y1="287.0" x2="740" y2="287.0" stroke="#e5e7eb" stroke-width="1"/>
<text x="56" y="290.0" text-anchor="end" font-family="Inter,Segoe UI,Arial,sans-serif" font-size="11" fill="#6b7280">20</text>
<line x1="64" y1="220.0" x2="740" y2="220.0" stroke="#e5e7eb" stroke-width="1"/>
<text x="56" y="223.0" text-anchor="end" font-family="Inter,Segoe UI,Arial,sans-serif" font-size="11" fill="#6b7280">40</text>
<line x1="64" y1="153.0" x2="740" y2="153.0" stroke="#e5e7eb" stroke-width="1"/>
<text x="56" y="156.0" text-anchor="end" font-family="Inter,Segoe UI,Arial,sans-serif" font-size="11" fill="#6b7280">60</text>
<line x1="64" y1="86.0" x2="740" y2="86.0" stroke="#e5e7eb" stroke-width="1"/>
<text x="56" y="89.0" text-anchor="end" font-family="Inter,Segoe UI,Arial,sans-serif" font-size="11" fill="#6b7280">80</text>
<line x1="64" y1="119.6" x2="740" y2="119.6" stroke="#dc2626" stroke-width="1.2" stroke-dasharray="1 4" stroke-linecap="round"/>
<text x="748" y="114.6" text-anchor="start" font-family="Inter,Segoe UI,Arial,sans-serif" font-size="11" font-weight="700" fill="#dc2626" data-label="highest median">highest: 70.0</text>
<text x="402.0" y="398" text-anchor="middle" font-family="Inter,Segoe UI,Arial,sans-serif" font-size="11" font-weight="700" fill="#111827">all suites</text>
<circle cx="127.8" cy="158.3" r="1.45" fill="#14532d" fill-opacity="0.46"/>
<circle cx="130.8" cy="156.5" r="1.45" fill="#14532d" fill-opacity="0.46"/>
<circle cx="133.9" cy="157.5" r="1.45" fill="#14532d" fill-opacity="0.46"/>
<circle cx="136.9" cy="157.8" r="1.45" fill="#14532d" fill-opacity="0.46"/>
<circle cx="140.0" cy="157.4" r="1.45" fill="#14532d" fill-opacity="0.46"/>
<circle cx="143.1" cy="157.8" r="1.45" fill="#14532d" fill-opacity="0.46"/>
<circle cx="146.1" cy="157.7" r="1.45" fill="#14532d" fill-opacity="0.46"/>
<circle cx="149.2" cy="156.7" r="1.45" fill="#14532d" fill-opacity="0.46"/>
<circle cx="152.2" cy="156.7" r="1.45" fill="#14532d" fill-opacity="0.46"/>
<circle cx="127.8" cy="157.3" r="1.45" fill="#14532d" fill-opacity="0.46"/>
<circle cx="130.8" cy="156.6" r="1.45" fill="#14532d" fill-opacity="0.46"/>
<circle cx="133.9" cy="157.2" r="1.45" fill="#14532d" fill-opacity="0.46"/>
<circle cx="136.9" cy="157.4" r="1.45" fill="#14532d" fill-opacity="0.46"/>
<circle cx="140.0" cy="156.7" r="1.45" fill="#14532d" fill-opacity="0.46"/>
<circle cx="143.1" cy="156.2" r="1.45" fill="#14532d" fill-opacity="0.46"/>
<circle cx="146.1" cy="156.1" r="1.45" fill="#14532d" fill-opacity="0.46"/>
<circle cx="149.2" cy="156.0" r="1.45" fill="#14532d" fill-opacity="0.46"/>
<circle cx="152.2" cy="156.7" r="1.45" fill="#14532d" fill-opacity="0.46"/>
<circle cx="127.8" cy="156.1" r="1.45" fill="#14532d" fill-opacity="0.46"/>
<circle cx="130.8" cy="156.2" r="1.45" fill="#14532d" fill-opacity="0.46"/>
<circle cx="133.9" cy="158.1" r="1.45" fill="#14532d" fill-opacity="0.46"/>
<circle cx="136.9" cy="158.5" r="1.45" fill="#14532d" fill-opacity="0.46"/>
<circle cx="140.0" cy="157.2" r="1.45" fill="#14532d" fill-opacity="0.46"/>
<circle cx="143.1" cy="157.1" r="1.45" fill="#14532d" fill-opacity="0.46"/>
<circle cx="146.1" cy="158.3" r="1.45" fill="#14532d" fill-opacity="0.46"/>
<circle cx="149.2" cy="159.8" r="1.45" fill="#14532d" fill-opacity="0.46"/>
<circle cx="152.2" cy="160.2" r="1.45" fill="#14532d" fill-opacity="0.46"/>
<circle cx="127.8" cy="158.9" r="1.45" fill="#14532d" fill-opacity="0.46"/>
<circle cx="130.8" cy="159.1" r="1.45" fill="#14532d" fill-opacity="0.46"/>
<circle cx="133.9" cy="159.8" r="1.45" fill="#14532d" fill-opacity="0.46"/>
<circle cx="136.9" cy="159.0" r="1.45" fill="#14532d" fill-opacity="0.46"/>
<circle cx="140.0" cy="158.3" r="1.45" fill="#14532d" fill-opacity="0.46"/>
<circle cx="143.1" cy="155.7" r="1.45" fill="#14532d" fill-opacity="0.46"/>
<circle cx="146.1" cy="158.5" r="1.45" fill="#14532d" fill-opacity="0.46"/>
<circle cx="149.2" cy="159.2" r="1.45" fill="#14532d" fill-opacity="0.46"/>
<circle cx="152.2" cy="156.1" r="1.45" fill="#14532d" fill-opacity="0.46"/>
<circle cx="127.8" cy="157.4" r="1.45" fill="#14532d" fill-opacity="0.46"/>
<circle cx="130.8" cy="156.9" r="1.45" fill="#14532d" fill-opacity="0.46"/>
<circle cx="133.9" cy="157.1" r="1.45" fill="#14532d" fill-opacity="0.46"/>
<circle cx="136.9" cy="157.4" r="1.45" fill="#14532d" fill-opacity="0.46"/>
<circle cx="140.0" cy="184.5" r="1.45" fill="#14532d" fill-opacity="0.46"/>
<circle cx="143.1" cy="180.6" r="1.45" fill="#14532d" fill-opacity="0.46"/>
<circle cx="146.1" cy="179.0" r="1.45" fill="#14532d" fill-opacity="0.46"/>
<circle cx="149.2" cy="178.3" r="1.45" fill="#14532d" fill-opacity="0.46"/>
<circle cx="152.2" cy="177.4" r="1.45" fill="#14532d" fill-opacity="0.46"/>
<circle cx="127.8" cy="171.1" r="1.45" fill="#14532d" fill-opacity="0.46"/>
<circle cx="130.8" cy="175.0" r="1.45" fill="#14532d" fill-opacity="0.46"/>
<circle cx="133.9" cy="169.9" r="1.45" fill="#14532d" fill-opacity="0.46"/>
<circle cx="136.9" cy="173.3" r="1.45" fill="#14532d" fill-opacity="0.46"/>
<circle cx="140.0" cy="169.1" r="1.45" fill="#14532d" fill-opacity="0.46"/>
<circle cx="143.1" cy="167.1" r="1.45" fill="#14532d" fill-opacity="0.46"/>
<circle cx="146.1" cy="168.4" r="1.45" fill="#14532d" fill-opacity="0.46"/>
<circle cx="149.2" cy="163.5" r="1.45" fill="#14532d" fill-opacity="0.46"/>
<circle cx="152.2" cy="160.3" r="1.45" fill="#14532d" fill-opacity="0.46"/>
<circle cx="127.8" cy="167.8" r="1.45" fill="#14532d" fill-opacity="0.46"/>
<line x1="140.0" y1="155.7" x2="140.0" y2="184.5" stroke="#14532d" stroke-opacity="0.86" stroke-width="1.8"/>
<line x1="127.8" y1="155.7" x2="152.2" y2="155.7" stroke="#14532d" stroke-opacity="0.86" stroke-width="1.8"/>
<line x1="127.8" y1="184.5" x2="152.2" y2="184.5" stroke="#14532d" stroke-opacity="0.86" stroke-width="1.8"/>
<rect x="123.0" y="157.0" width="34.0" height="4.9" rx="2" fill="#14532d" fill-opacity="0.18" stroke="#14532d" stroke-opacity="0.9" stroke-width="1.8"/>
<line x1="123.0" y1="158.1" x2="157.0" y2="158.1" stroke="#14532d" stroke-opacity="0.96" stroke-width="2.6"/>
<text x="163.0" y="162.1" text-anchor="start" font-family="Inter,Segoe UI,Arial,sans-serif" font-size="11" font-weight="700" fill="#111827" stroke="#ffffff" stroke-width="3" paint-order="stroke">58.5</text>
<circle cx="258.8" cy="121.2" r="1.45" fill="#7c3aed" fill-opacity="0.46"/>
<circle cx="261.8" cy="125.3" r="1.45" fill="#7c3aed" fill-opacity="0.46"/>
<circle cx="264.9" cy="117.1" r="1.45" fill="#7c3aed" fill-opacity="0.46"/>
<circle cx="267.9" cy="119.0" r="1.45" fill="#7c3aed" fill-opacity="0.46"/>
<circle cx="271.0" cy="117.7" r="1.45" fill="#7c3aed" fill-opacity="0.46"/>
<circle cx="274.1" cy="117.0" r="1.45" fill="#7c3aed" fill-opacity="0.46"/>
<circle cx="277.1" cy="111.0" r="1.45" fill="#7c3aed" fill-opacity="0.46"/>
<circle cx="280.2" cy="117.6" r="1.45" fill="#7c3aed" fill-opacity="0.46"/>
<circle cx="283.2" cy="123.6" r="1.45" fill="#7c3aed" fill-opacity="0.46"/>
<circle cx="258.8" cy="117.4" r="1.45" fill="#7c3aed" fill-opacity="0.46"/>
<circle cx="261.8" cy="116.4" r="1.45" fill="#7c3aed" fill-opacity="0.46"/>
<circle cx="264.9" cy="126.7" r="1.45" fill="#7c3aed" fill-opacity="0.46"/>
<circle cx="267.9" cy="116.6" r="1.45" fill="#7c3aed" fill-opacity="0.46"/>
<circle cx="271.0" cy="123.7" r="1.45" fill="#7c3aed" fill-opacity="0.46"/>
<circle cx="274.1" cy="118.3" r="1.45" fill="#7c3aed" fill-opacity="0.46"/>
<circle cx="277.1" cy="118.0" r="1.45" fill="#7c3aed" fill-opacity="0.46"/>
<circle cx="280.2" cy="118.0" r="1.45" fill="#7c3aed" fill-opacity="0.46"/>
<circle cx="283.2" cy="108.3" r="1.45" fill="#7c3aed" fill-opacity="0.46"/>
<circle cx="258.8" cy="119.0" r="1.45" fill="#7c3aed" fill-opacity="0.46"/>
<circle cx="261.8" cy="125.0" r="1.45" fill="#7c3aed" fill-opacity="0.46"/>
<circle cx="264.9" cy="115.0" r="1.45" fill="#7c3aed" fill-opacity="0.46"/>
<circle cx="267.9" cy="114.9" r="1.45" fill="#7c3aed" fill-opacity="0.46"/>
<circle cx="271.0" cy="112.5" r="1.45" fill="#7c3aed" fill-opacity="0.46"/>
<circle cx="274.1" cy="124.9" r="1.45" fill="#7c3aed" fill-opacity="0.46"/>
<circle cx="277.1" cy="126.6" r="1.45" fill="#7c3aed" fill-opacity="0.46"/>
<circle cx="280.2" cy="116.8" r="1.45" fill="#7c3aed" fill-opacity="0.46"/>
<circle cx="283.2" cy="118.0" r="1.45" fill="#7c3aed" fill-opacity="0.46"/>
<circle cx="258.8" cy="114.7" r="1.45" fill="#7c3aed" fill-opacity="0.46"/>
<circle cx="261.8" cy="124.7" r="1.45" fill="#7c3aed" fill-opacity="0.46"/>
<circle cx="264.9" cy="131.1" r="1.45" fill="#7c3aed" fill-opacity="0.46"/>
<circle cx="267.9" cy="115.9" r="1.45" fill="#7c3aed" fill-opacity="0.46"/>
<circle cx="271.0" cy="125.2" r="1.45" fill="#7c3aed" fill-opacity="0.46"/>
<circle cx="274.1" cy="125.2" r="1.45" fill="#7c3aed" fill-opacity="0.46"/>
<circle cx="277.1" cy="113.6" r="1.45" fill="#7c3aed" fill-opacity="0.46"/>
<circle cx="280.2" cy="110.7" r="1.45" fill="#7c3aed" fill-opacity="0.46"/>
<circle cx="283.2" cy="124.7" r="1.45" fill="#7c3aed" fill-opacity="0.46"/>
<circle cx="258.8" cy="120.4" r="1.45" fill="#7c3aed" fill-opacity="0.46"/>
<circle cx="261.8" cy="125.1" r="1.45" fill="#7c3aed" fill-opacity="0.46"/>
<circle cx="264.9" cy="125.6" r="1.45" fill="#7c3aed" fill-opacity="0.46"/>
<circle cx="267.9" cy="125.2" r="1.45" fill="#7c3aed" fill-opacity="0.46"/>
<circle cx="271.0" cy="125.7" r="1.45" fill="#7c3aed" fill-opacity="0.46"/>
<circle cx="274.1" cy="125.2" r="1.45" fill="#7c3aed" fill-opacity="0.46"/>
<circle cx="277.1" cy="126.5" r="1.45" fill="#7c3aed" fill-opacity="0.46"/>
<circle cx="280.2" cy="126.8" r="1.45" fill="#7c3aed" fill-opacity="0.46"/>
<circle cx="283.2" cy="125.5" r="1.45" fill="#7c3aed" fill-opacity="0.46"/>
<circle cx="258.8" cy="127.5" r="1.45" fill="#7c3aed" fill-opacity="0.46"/>
<line x1="271.0" y1="108.3" x2="271.0" y2="131.1" stroke="#7c3aed" stroke-opacity="0.86" stroke-width="1.8"/>
<line x1="258.8" y1="108.3" x2="283.2" y2="108.3" stroke="#7c3aed" stroke-opacity="0.86" stroke-width="1.8"/>
<line x1="258.8" y1="131.1" x2="283.2" y2="131.1" stroke="#7c3aed" stroke-opacity="0.86" stroke-width="1.8"/>
<rect x="254.0" y="116.9" width="34.0" height="8.4" rx="2" fill="#7c3aed" fill-opacity="0.18" stroke="#7c3aed" stroke-opacity="0.9" stroke-width="1.8"/>
<line x1="254.0" y1="119.7" x2="288.0" y2="119.7" stroke="#7c3aed" stroke-opacity="0.96" stroke-width="2.6"/>
<text x="294.0" y="123.7" text-anchor="start" font-family="Inter,Segoe UI,Arial,sans-serif" font-size="11" font-weight="700" fill="#111827" stroke="#ffffff" stroke-width="3" paint-order="stroke">69.9</text>
<circle cx="389.8" cy="132.6" r="1.45" fill="#1e3a8a" fill-opacity="0.46"/>
<circle cx="392.8" cy="131.2" r="1.45" fill="#1e3a8a" fill-opacity="0.46"/>
<circle cx="395.9" cy="103.6" r="1.45" fill="#1e3a8a" fill-opacity="0.46"/>
<circle cx="398.9" cy="122.2" r="1.45" fill="#1e3a8a" fill-opacity="0.46"/>
<circle cx="402.0" cy="126.9" r="1.45" fill="#1e3a8a" fill-opacity="0.46"/>
<circle cx="405.1" cy="132.4" r="1.45" fill="#1e3a8a" fill-opacity="0.46"/>
<circle cx="408.1" cy="124.4" r="1.45" fill="#1e3a8a" fill-opacity="0.46"/>
<circle cx="411.2" cy="126.7" r="1.45" fill="#1e3a8a" fill-opacity="0.46"/>
<circle cx="414.2" cy="102.9" r="1.45" fill="#1e3a8a" fill-opacity="0.46"/>
<circle cx="389.8" cy="130.4" r="1.45" fill="#1e3a8a" fill-opacity="0.46"/>
<circle cx="392.8" cy="133.0" r="1.45" fill="#1e3a8a" fill-opacity="0.46"/>
<circle cx="395.9" cy="88.8" r="1.45" fill="#1e3a8a" fill-opacity="0.46"/>
<circle cx="398.9" cy="122.6" r="1.45" fill="#1e3a8a" fill-opacity="0.46"/>
<circle cx="402.0" cy="115.5" r="1.45" fill="#1e3a8a" fill-opacity="0.46"/>
<circle cx="405.1" cy="102.5" r="1.45" fill="#1e3a8a" fill-opacity="0.46"/>
<circle cx="408.1" cy="116.3" r="1.45" fill="#1e3a8a" fill-opacity="0.46"/>
<circle cx="411.2" cy="102.7" r="1.45" fill="#1e3a8a" fill-opacity="0.46"/>
<circle cx="414.2" cy="121.1" r="1.45" fill="#1e3a8a" fill-opacity="0.46"/>
<circle cx="389.8" cy="101.3" r="1.45" fill="#1e3a8a" fill-opacity="0.46"/>
<circle cx="392.8" cy="127.0" r="1.45" fill="#1e3a8a" fill-opacity="0.46"/>
<circle cx="395.9" cy="114.7" r="1.45" fill="#1e3a8a" fill-opacity="0.46"/>
<circle cx="398.9" cy="111.1" r="1.45" fill="#1e3a8a" fill-opacity="0.46"/>
<circle cx="402.0" cy="126.2" r="1.45" fill="#1e3a8a" fill-opacity="0.46"/>
<circle cx="405.1" cy="130.3" r="1.45" fill="#1e3a8a" fill-opacity="0.46"/>
<circle cx="408.1" cy="104.2" r="1.45" fill="#1e3a8a" fill-opacity="0.46"/>
<circle cx="411.2" cy="107.1" r="1.45" fill="#1e3a8a" fill-opacity="0.46"/>
<circle cx="414.2" cy="122.5" r="1.45" fill="#1e3a8a" fill-opacity="0.46"/>
<circle cx="389.8" cy="112.0" r="1.45" fill="#1e3a8a" fill-opacity="0.46"/>
<circle cx="392.8" cy="123.5" r="1.45" fill="#1e3a8a" fill-opacity="0.46"/>
<circle cx="395.9" cy="110.4" r="1.45" fill="#1e3a8a" fill-opacity="0.46"/>
<circle cx="398.9" cy="130.0" r="1.45" fill="#1e3a8a" fill-opacity="0.46"/>
<circle cx="402.0" cy="111.8" r="1.45" fill="#1e3a8a" fill-opacity="0.46"/>
<circle cx="405.1" cy="121.1" r="1.45" fill="#1e3a8a" fill-opacity="0.46"/>
<circle cx="408.1" cy="119.9" r="1.45" fill="#1e3a8a" fill-opacity="0.46"/>
<circle cx="411.2" cy="115.2" r="1.45" fill="#1e3a8a" fill-opacity="0.46"/>
<circle cx="414.2" cy="125.7" r="1.45" fill="#1e3a8a" fill-opacity="0.46"/>
<circle cx="389.8" cy="121.1" r="1.45" fill="#1e3a8a" fill-opacity="0.46"/>
<circle cx="392.8" cy="107.6" r="1.45" fill="#1e3a8a" fill-opacity="0.46"/>
<circle cx="395.9" cy="135.3" r="1.45" fill="#1e3a8a" fill-opacity="0.46"/>
<circle cx="398.9" cy="130.3" r="1.45" fill="#1e3a8a" fill-opacity="0.46"/>
<circle cx="402.0" cy="116.7" r="1.45" fill="#1e3a8a" fill-opacity="0.46"/>
<line x1="402.0" y1="88.8" x2="402.0" y2="135.3" stroke="#1e3a8a" stroke-opacity="0.86" stroke-width="1.8"/>
<line x1="389.8" y1="88.8" x2="414.2" y2="88.8" stroke="#1e3a8a" stroke-opacity="0.86" stroke-width="1.8"/>
<line x1="389.8" y1="135.3" x2="414.2" y2="135.3" stroke="#1e3a8a" stroke-opacity="0.86" stroke-width="1.8"/>
<rect x="385.0" y="111.1" width="34.0" height="15.8" rx="2" fill="#1e3a8a" fill-opacity="0.18" stroke="#1e3a8a" stroke-opacity="0.9" stroke-width="1.8"/>
<line x1="385.0" y1="121.1" x2="419.0" y2="121.1" stroke="#1e3a8a" stroke-opacity="0.96" stroke-width="2.6"/>
<text x="425.0" y="125.1" text-anchor="start" font-family="Inter,Segoe UI,Arial,sans-serif" font-size="11" font-weight="700" fill="#111827" stroke="#ffffff" stroke-width="3" paint-order="stroke">69.5</text>
<circle cx="520.8" cy="132.8" r="1.45" fill="#f97316" fill-opacity="0.46"/>
<circle cx="523.8" cy="141.0" r="1.45" fill="#f97316" fill-opacity="0.46"/>
<circle cx="526.9" cy="134.9" r="1.45" fill="#f97316" fill-opacity="0.46"/>
<circle cx="529.9" cy="134.6" r="1.45" fill="#f97316" fill-opacity="0.46"/>
<circle cx="533.0" cy="147.1" r="1.45" fill="#f97316" fill-opacity="0.46"/>
<circle cx="536.1" cy="140.0" r="1.45" fill="#f97316" fill-opacity="0.46"/>
<circle cx="539.1" cy="142.3" r="1.45" fill="#f97316" fill-opacity="0.46"/>
<circle cx="542.2" cy="136.4" r="1.45" fill="#f97316" fill-opacity="0.46"/>
<circle cx="545.2" cy="164.6" r="1.45" fill="#f97316" fill-opacity="0.46"/>
<circle cx="520.8" cy="182.9" r="1.45" fill="#f97316" fill-opacity="0.46"/>
<circle cx="523.8" cy="173.0" r="1.45" fill="#f97316" fill-opacity="0.46"/>
<line x1="533.0" y1="132.8" x2="533.0" y2="182.9" stroke="#f97316" stroke-opacity="0.86" stroke-width="1.8"/>
<line x1="520.8" y1="132.8" x2="545.2" y2="132.8" stroke="#f97316" stroke-opacity="0.86" stroke-width="1.8"/>
<line x1="520.8" y1="182.9" x2="545.2" y2="182.9" stroke="#f97316" stroke-opacity="0.86" stroke-width="1.8"/>
<rect x="516.0" y="135.7" width="34.0" height="20.2" rx="2" fill="#f97316" fill-opacity="0.18" stroke="#f97316" stroke-opacity="0.9" stroke-width="1.8"/>
<line x1="516.0" y1="141.0" x2="550.0" y2="141.0" stroke="#f97316" stroke-opacity="0.96" stroke-width="2.6"/>
<text x="556.0" y="145.0" text-anchor="start" font-family="Inter,Segoe UI,Arial,sans-serif" font-size="11" font-weight="700" fill="#111827" stroke="#ffffff" stroke-width="3" paint-order="stroke">63.6</text>
<circle cx="651.8" cy="118.1" r="1.45" fill="#eab308" fill-opacity="0.46"/>
<circle cx="654.8" cy="137.7" r="1.45" fill="#eab308" fill-opacity="0.46"/>
<circle cx="657.9" cy="120.7" r="1.45" fill="#eab308" fill-opacity="0.46"/>
<circle cx="660.9" cy="137.1" r="1.45" fill="#eab308" fill-opacity="0.46"/>
<circle cx="664.0" cy="98.5" r="1.45" fill="#eab308" fill-opacity="0.46"/>
<circle cx="667.1" cy="111.4" r="1.45" fill="#eab308" fill-opacity="0.46"/>
<circle cx="670.1" cy="106.2" r="1.45" fill="#eab308" fill-opacity="0.46"/>
<circle cx="673.2" cy="86.0" r="1.45" fill="#eab308" fill-opacity="0.46"/>
<circle cx="676.2" cy="141.2" r="1.45" fill="#eab308" fill-opacity="0.46"/>
<circle cx="651.8" cy="172.9" r="1.45" fill="#eab308" fill-opacity="0.46"/>
<circle cx="654.8" cy="119.6" r="1.45" fill="#eab308" fill-opacity="0.46"/>
<line x1="664.0" y1="86.0" x2="664.0" y2="172.9" stroke="#eab308" stroke-opacity="0.86" stroke-width="1.8"/>
<line x1="651.8" y1="86.0" x2="676.2" y2="86.0" stroke="#eab308" stroke-opacity="0.86" stroke-width="1.8"/>
<line x1="651.8" y1="172.9" x2="676.2" y2="172.9" stroke="#eab308" stroke-opacity="0.86" stroke-width="1.8"/>
<rect x="647.0" y="108.8" width="34.0" height="28.6" rx="2" fill="#eab308" fill-opacity="0.18" stroke="#eab308" stroke-opacity="0.9" stroke-width="1.8"/>
<line x1="647.0" y1="119.6" x2="681.0" y2="119.6" stroke="#eab308" stroke-opacity="0.96" stroke-width="2.6"/>
<text x="687.0" y="123.6" text-anchor="start" font-family="Inter,Segoe UI,Arial,sans-serif" font-size="11" font-weight="700" fill="#111827" stroke="#ffffff" stroke-width="3" paint-order="stroke">70.0</text>
<rect x="64.0" y="433" width="10" height="10" rx="2" fill="#14532d" fill-opacity="0.72"/>
<text x="78.0" y="442" font-family="Inter,Segoe UI,Arial,sans-serif" font-size="10" fill="#374151">MTPLX 0.3.7</text>
<rect x="199.2" y="433" width="10" height="10" rx="2" fill="#7c3aed" fill-opacity="0.72"/>
<text x="213.2" y="442" font-family="Inter,Segoe UI,Arial,sans-serif" font-size="10" fill="#374151">Lightning v0.6.10</text>
<rect x="334.4" y="433" width="10" height="10" rx="2" fill="#1e3a8a" fill-opacity="0.72"/>
<text x="348.4" y="442" font-family="Inter,Segoe UI,Arial,sans-serif" font-size="10" fill="#374151">Lightning+ng v0.6.10</text>
<rect x="469.6" y="433" width="10" height="10" rx="2" fill="#f97316" fill-opacity="0.72"/>
<text x="483.6" y="442" font-family="Inter,Segoe UI,Arial,sans-serif" font-size="10" fill="#374151">AX Engine v5.1.0</text>
<rect x="604.8" y="433" width="10" height="10" rx="2" fill="#eab308" fill-opacity="0.72"/>
<text x="618.8" y="442" font-family="Inter,Segoe UI,Arial,sans-serif" font-size="10" fill="#374151">AX+ngram v5.1.0</text>
</svg>
