<svg xmlns="http://www.w3.org/2000/svg" width="900" height="460" viewBox="0 0 900 460" role="img" aria-labelledby="title desc">
<title>Qwen3.6 MTP fair decode throughput</title>
<desc>Grouped box-and-whisker plot comparing Lightning v0.7.0, Lightning+ng v0.7.0 across 27B, 35B-A3B.</desc>
<rect width="100%" height="100%" fill="#f8fafc"/>
<text x="24" y="24" font-family="Inter,Segoe UI,Arial,sans-serif" font-size="16" font-weight="700" fill="#111827">Qwen3.6 MTP fair decode throughput</text>
<text x="24" y="46" font-family="Inter,Segoe UI,Arial,sans-serif" font-size="11" fill="#4b5563">All suites combined per model | box=IQR | whiskers=min/max | dots=runs</text>
<text x="24" y="62" font-family="Inter,Segoe UI,Arial,sans-serif" font-size="10" fill="#6b7280">MTPLX 0.3.7 · Lightning-MLX 0.7.0 · AX Engine v5.1.6</text>
<rect x="807" y="13" width="59" height="22" rx="11" fill="#eef2ff" stroke="#c7d2fe"/>
<text x="836.5" y="28" text-anchor="middle" font-family="Inter,Segoe UI,Arial,sans-serif" font-size="10" font-weight="700" fill="#3730a3">tok/s</text>
<text x="866" y="52" text-anchor="end" font-family="Inter,Segoe UI,Arial,sans-serif" font-size="10" font-weight="700" fill="#374151">Higher is better</text>
<rect x="64" y="86" width="676" height="268" rx="6" fill="#ffffff" stroke="#dbe3ef"/>
<line x1="64" y1="354.0" x2="740" y2="354.0" stroke="#e5e7eb" stroke-width="1"/>
<text x="56" y="357.0" text-anchor="end" font-family="Inter,Segoe UI,Arial,sans-serif" font-size="11" fill="#6b7280">0.0</text>
<line x1="64" y1="287.0" x2="740" y2="287.0" stroke="#e5e7eb" stroke-width="1"/>
<text x="56" y="290.0" text-anchor="end" font-family="Inter,Segoe UI,Arial,sans-serif" font-size="11" fill="#6b7280">25</text>
<line x1="64" y1="220.0" x2="740" y2="220.0" stroke="#e5e7eb" stroke-width="1"/>
<text x="56" y="223.0" text-anchor="end" font-family="Inter,Segoe UI,Arial,sans-serif" font-size="11" fill="#6b7280">50</text>
<line x1="64" y1="153.0" x2="740" y2="153.0" stroke="#e5e7eb" stroke-width="1"/>
<text x="56" y="156.0" text-anchor="end" font-family="Inter,Segoe UI,Arial,sans-serif" font-size="11" fill="#6b7280">75</text>
<line x1="64" y1="86.0" x2="740" y2="86.0" stroke="#e5e7eb" stroke-width="1"/>
<text x="56" y="89.0" text-anchor="end" font-family="Inter,Segoe UI,Arial,sans-serif" font-size="11" fill="#6b7280">100</text>
<line x1="64" y1="265.1" x2="740" y2="265.1" stroke="#dc2626" stroke-width="1.2" stroke-dasharray="1 4" stroke-linecap="round"/>
<text x="748" y="260.1" text-anchor="start" font-family="Inter,Segoe UI,Arial,sans-serif" font-size="11" font-weight="700" fill="#dc2626" data-label="highest median">highest: 33.2</text>
<text x="233.0" y="398" text-anchor="middle" font-family="Inter,Segoe UI,Arial,sans-serif" font-size="11" font-weight="700" fill="#111827">27B</text>
<circle cx="95.8" cy="322.3" r="1.45" fill="#7c3aed" fill-opacity="0.46"/>
<circle cx="98.8" cy="333.9" r="1.45" fill="#7c3aed" fill-opacity="0.46"/>
<circle cx="101.9" cy="331.3" r="1.45" fill="#7c3aed" fill-opacity="0.46"/>
<circle cx="104.9" cy="333.4" r="1.45" fill="#7c3aed" fill-opacity="0.46"/>
<line x1="108.0" y1="322.3" x2="108.0" y2="333.9" stroke="#7c3aed" stroke-opacity="0.86" stroke-width="1.8"/>
<line x1="95.8" y1="322.3" x2="120.2" y2="322.3" stroke="#7c3aed" stroke-opacity="0.86" stroke-width="1.8"/>
<line x1="95.8" y1="333.9" x2="120.2" y2="333.9" stroke="#7c3aed" stroke-opacity="0.86" stroke-width="1.8"/>
<rect x="91.0" y="329.1" width="34.0" height="4.4" rx="2" fill="#7c3aed" fill-opacity="0.18" stroke="#7c3aed" stroke-opacity="0.9" stroke-width="1.8"/>
<line x1="91.0" y1="332.3" x2="125.0" y2="332.3" stroke="#7c3aed" stroke-opacity="0.96" stroke-width="2.6"/>
<text x="131.0" y="336.3" text-anchor="start" font-family="Inter,Segoe UI,Arial,sans-serif" font-size="11" font-weight="700" fill="#111827" stroke="#ffffff" stroke-width="3" paint-order="stroke">8.08</text>
<circle cx="345.8" cy="329.9" r="1.45" fill="#1e3a8a" fill-opacity="0.46"/>
<circle cx="348.8" cy="325.0" r="1.45" fill="#1e3a8a" fill-opacity="0.46"/>
<circle cx="351.9" cy="330.7" r="1.45" fill="#1e3a8a" fill-opacity="0.46"/>
<circle cx="354.9" cy="327.8" r="1.45" fill="#1e3a8a" fill-opacity="0.46"/>
<line x1="358.0" y1="325.0" x2="358.0" y2="330.7" stroke="#1e3a8a" stroke-opacity="0.86" stroke-width="1.8"/>
<line x1="345.8" y1="325.0" x2="370.2" y2="325.0" stroke="#1e3a8a" stroke-opacity="0.86" stroke-width="1.8"/>
<line x1="345.8" y1="330.7" x2="370.2" y2="330.7" stroke="#1e3a8a" stroke-opacity="0.86" stroke-width="1.8"/>
<rect x="341.0" y="327.1" width="34.0" height="3.0" rx="2" fill="#1e3a8a" fill-opacity="0.18" stroke="#1e3a8a" stroke-opacity="0.9" stroke-width="1.8"/>
<line x1="341.0" y1="328.8" x2="375.0" y2="328.8" stroke="#1e3a8a" stroke-opacity="0.96" stroke-width="2.6"/>
<text x="381.0" y="332.8" text-anchor="start" font-family="Inter,Segoe UI,Arial,sans-serif" font-size="11" font-weight="700" fill="#111827" stroke="#ffffff" stroke-width="3" paint-order="stroke">9.40</text>
<text x="571.0" y="398" text-anchor="middle" font-family="Inter,Segoe UI,Arial,sans-serif" font-size="11" font-weight="700" fill="#111827">35B-A3B</text>
<circle cx="433.8" cy="338.9" r="1.45" fill="#7c3aed" fill-opacity="0.46"/>
<circle cx="436.8" cy="275.0" r="1.45" fill="#7c3aed" fill-opacity="0.46"/>
<circle cx="439.9" cy="331.3" r="1.45" fill="#7c3aed" fill-opacity="0.46"/>
<circle cx="442.9" cy="263.1" r="1.45" fill="#7c3aed" fill-opacity="0.46"/>
<line x1="446.0" y1="263.1" x2="446.0" y2="338.9" stroke="#7c3aed" stroke-opacity="0.86" stroke-width="1.8"/>
<line x1="433.8" y1="263.1" x2="458.2" y2="263.1" stroke="#7c3aed" stroke-opacity="0.86" stroke-width="1.8"/>
<line x1="433.8" y1="338.9" x2="458.2" y2="338.9" stroke="#7c3aed" stroke-opacity="0.86" stroke-width="1.8"/>
<rect x="429.0" y="272.0" width="34.0" height="61.2" rx="2" fill="#7c3aed" fill-opacity="0.18" stroke="#7c3aed" stroke-opacity="0.9" stroke-width="1.8"/>
<line x1="429.0" y1="303.1" x2="463.0" y2="303.1" stroke="#7c3aed" stroke-opacity="0.96" stroke-width="2.6"/>
<text x="469.0" y="307.1" text-anchor="start" font-family="Inter,Segoe UI,Arial,sans-serif" font-size="11" font-weight="700" fill="#111827" stroke="#ffffff" stroke-width="3" paint-order="stroke">19.0</text>
<circle cx="683.8" cy="348.1" r="1.45" fill="#1e3a8a" fill-opacity="0.46"/>
<circle cx="686.8" cy="254.4" r="1.45" fill="#1e3a8a" fill-opacity="0.46"/>
<circle cx="689.9" cy="165.5" r="1.45" fill="#1e3a8a" fill-opacity="0.46"/>
<circle cx="692.9" cy="275.9" r="1.45" fill="#1e3a8a" fill-opacity="0.46"/>
<line x1="696.0" y1="165.5" x2="696.0" y2="348.1" stroke="#1e3a8a" stroke-opacity="0.86" stroke-width="1.8"/>
<line x1="683.8" y1="165.5" x2="708.2" y2="165.5" stroke="#1e3a8a" stroke-opacity="0.86" stroke-width="1.8"/>
<line x1="683.8" y1="348.1" x2="708.2" y2="348.1" stroke="#1e3a8a" stroke-opacity="0.86" stroke-width="1.8"/>
<rect x="679.0" y="232.2" width="34.0" height="61.8" rx="2" fill="#1e3a8a" fill-opacity="0.18" stroke="#1e3a8a" stroke-opacity="0.9" stroke-width="1.8"/>
<line x1="679.0" y1="265.1" x2="713.0" y2="265.1" stroke="#1e3a8a" stroke-opacity="0.96" stroke-width="2.6"/>
<text x="719.0" y="269.1" text-anchor="start" font-family="Inter,Segoe UI,Arial,sans-serif" font-size="11" font-weight="700" fill="#111827" stroke="#ffffff" stroke-width="3" paint-order="stroke">33.2</text>
<rect x="64.0" y="433" width="10" height="10" rx="2" fill="#7c3aed" fill-opacity="0.72"/>
<text x="78.0" y="442" font-family="Inter,Segoe UI,Arial,sans-serif" font-size="10" fill="#374151">Lightning v0.7.0</text>
<rect x="402.0" y="433" width="10" height="10" rx="2" fill="#1e3a8a" fill-opacity="0.72"/>
<text x="416.0" y="442" font-family="Inter,Segoe UI,Arial,sans-serif" font-size="10" fill="#374151">Lightning+ng v0.7.0</text>
</svg>
