<svg xmlns="http://www.w3.org/2000/svg" width="900" height="460" viewBox="0 0 900 460" role="img" aria-labelledby="title desc">
<title>Qwen3.6 35B-A3B 4-bit MTP decode throughput</title>
<desc>Grouped box-and-whisker plot comparing Lightning v0.7.0, Lightning+ng v0.7.0 across all suites.</desc>
<rect width="100%" height="100%" fill="#f8fafc"/>
<text x="24" y="24" font-family="Inter,Segoe UI,Arial,sans-serif" font-size="16" font-weight="700" fill="#111827">Qwen3.6 35B-A3B 4-bit MTP decode throughput</text>
<text x="24" y="46" font-family="Inter,Segoe UI,Arial,sans-serif" font-size="11" fill="#4b5563">All suites combined | box=IQR | whiskers=min/max | dots=runs</text>
<text x="24" y="62" font-family="Inter,Segoe UI,Arial,sans-serif" font-size="10" fill="#6b7280">MTPLX 0.3.7 · Lightning-MLX 0.7.0 · AX Engine v5.1.6</text>
<rect x="807" y="13" width="59" height="22" rx="11" fill="#eef2ff" stroke="#c7d2fe"/>
<text x="836.5" y="28" text-anchor="middle" font-family="Inter,Segoe UI,Arial,sans-serif" font-size="10" font-weight="700" fill="#3730a3">tok/s</text>
<text x="866" y="52" text-anchor="end" font-family="Inter,Segoe UI,Arial,sans-serif" font-size="10" font-weight="700" fill="#374151">Higher is better</text>
<rect x="64" y="86" width="676" height="268" rx="6" fill="#ffffff" stroke="#dbe3ef"/>
<line x1="64" y1="354.0" x2="740" y2="354.0" stroke="#e5e7eb" stroke-width="1"/>
<text x="56" y="357.0" text-anchor="end" font-family="Inter,Segoe UI,Arial,sans-serif" font-size="11" fill="#6b7280">0.0</text>
<line x1="64" y1="287.0" x2="740" y2="287.0" stroke="#e5e7eb" stroke-width="1"/>
<text x="56" y="290.0" text-anchor="end" font-family="Inter,Segoe UI,Arial,sans-serif" font-size="11" fill="#6b7280">75</text>
<line x1="64" y1="220.0" x2="740" y2="220.0" stroke="#e5e7eb" stroke-width="1"/>
<text x="56" y="223.0" text-anchor="end" font-family="Inter,Segoe UI,Arial,sans-serif" font-size="11" fill="#6b7280">150</text>
<line x1="64" y1="153.0" x2="740" y2="153.0" stroke="#e5e7eb" stroke-width="1"/>
<text x="56" y="156.0" text-anchor="end" font-family="Inter,Segoe UI,Arial,sans-serif" font-size="11" fill="#6b7280">225</text>
<line x1="64" y1="86.0" x2="740" y2="86.0" stroke="#e5e7eb" stroke-width="1"/>
<text x="56" y="89.0" text-anchor="end" font-family="Inter,Segoe UI,Arial,sans-serif" font-size="11" fill="#6b7280">300</text>
<line x1="64" y1="324.4" x2="740" y2="324.4" stroke="#dc2626" stroke-width="1.2" stroke-dasharray="1 4" stroke-linecap="round"/>
<text x="748" y="319.4" text-anchor="start" font-family="Inter,Segoe UI,Arial,sans-serif" font-size="11" font-weight="700" fill="#dc2626" data-label="highest median">highest: 33.2</text>
<text x="402.0" y="398" text-anchor="middle" font-family="Inter,Segoe UI,Arial,sans-serif" font-size="11" font-weight="700" fill="#111827">all suites</text>
<circle cx="127.8" cy="349.0" r="1.45" fill="#7c3aed" fill-opacity="0.46"/>
<circle cx="130.8" cy="327.7" r="1.45" fill="#7c3aed" fill-opacity="0.46"/>
<circle cx="133.9" cy="346.4" r="1.45" fill="#7c3aed" fill-opacity="0.46"/>
<circle cx="136.9" cy="323.7" r="1.45" fill="#7c3aed" fill-opacity="0.46"/>
<line x1="140.0" y1="323.7" x2="140.0" y2="349.0" stroke="#7c3aed" stroke-opacity="0.86" stroke-width="1.8"/>
<line x1="127.8" y1="323.7" x2="152.2" y2="323.7" stroke="#7c3aed" stroke-opacity="0.86" stroke-width="1.8"/>
<line x1="127.8" y1="349.0" x2="152.2" y2="349.0" stroke="#7c3aed" stroke-opacity="0.86" stroke-width="1.8"/>
<rect x="123.0" y="326.7" width="34.0" height="20.4" rx="2" fill="#7c3aed" fill-opacity="0.18" stroke="#7c3aed" stroke-opacity="0.9" stroke-width="1.8"/>
<line x1="123.0" y1="337.0" x2="157.0" y2="337.0" stroke="#7c3aed" stroke-opacity="0.96" stroke-width="2.6"/>
<text x="163.0" y="341.0" text-anchor="start" font-family="Inter,Segoe UI,Arial,sans-serif" font-size="11" font-weight="700" fill="#111827" stroke="#ffffff" stroke-width="3" paint-order="stroke">19.0</text>
<circle cx="651.8" cy="352.0" r="1.45" fill="#1e3a8a" fill-opacity="0.46"/>
<circle cx="654.8" cy="320.8" r="1.45" fill="#1e3a8a" fill-opacity="0.46"/>
<circle cx="657.9" cy="291.2" r="1.45" fill="#1e3a8a" fill-opacity="0.46"/>
<circle cx="660.9" cy="328.0" r="1.45" fill="#1e3a8a" fill-opacity="0.46"/>
<line x1="664.0" y1="291.2" x2="664.0" y2="352.0" stroke="#1e3a8a" stroke-opacity="0.86" stroke-width="1.8"/>
<line x1="651.8" y1="291.2" x2="676.2" y2="291.2" stroke="#1e3a8a" stroke-opacity="0.86" stroke-width="1.8"/>
<line x1="651.8" y1="352.0" x2="676.2" y2="352.0" stroke="#1e3a8a" stroke-opacity="0.86" stroke-width="1.8"/>
<rect x="647.0" y="313.4" width="34.0" height="20.6" rx="2" fill="#1e3a8a" fill-opacity="0.18" stroke="#1e3a8a" stroke-opacity="0.9" stroke-width="1.8"/>
<line x1="647.0" y1="324.4" x2="681.0" y2="324.4" stroke="#1e3a8a" stroke-opacity="0.96" stroke-width="2.6"/>
<text x="687.0" y="328.4" text-anchor="start" font-family="Inter,Segoe UI,Arial,sans-serif" font-size="11" font-weight="700" fill="#111827" stroke="#ffffff" stroke-width="3" paint-order="stroke">33.2</text>
<rect x="64.0" y="433" width="10" height="10" rx="2" fill="#7c3aed" fill-opacity="0.72"/>
<text x="78.0" y="442" font-family="Inter,Segoe UI,Arial,sans-serif" font-size="10" fill="#374151">Lightning v0.7.0</text>
<rect x="402.0" y="433" width="10" height="10" rx="2" fill="#1e3a8a" fill-opacity="0.72"/>
<text x="416.0" y="442" font-family="Inter,Segoe UI,Arial,sans-serif" font-size="10" fill="#374151">Lightning+ng v0.7.0</text>
</svg>
