<svg xmlns="http://www.w3.org/2000/svg" width="900" height="460" viewBox="0 0 900 460" role="img" aria-labelledby="title desc">
<title>Qwen3.6 27B 4-bit MTP decode throughput</title>
<desc>Grouped box-and-whisker plot comparing Lightning v0.7.0, Lightning+ng v0.7.0 across all suites.</desc>
<rect width="100%" height="100%" fill="#f8fafc"/>
<text x="24" y="24" font-family="Inter,Segoe UI,Arial,sans-serif" font-size="16" font-weight="700" fill="#111827">Qwen3.6 27B 4-bit MTP decode throughput</text>
<text x="24" y="46" font-family="Inter,Segoe UI,Arial,sans-serif" font-size="11" fill="#4b5563">All suites combined | box=IQR | whiskers=min/max | dots=runs</text>
<text x="24" y="62" font-family="Inter,Segoe UI,Arial,sans-serif" font-size="10" fill="#6b7280">MTPLX 0.3.7 · Lightning-MLX 0.7.0 · AX Engine v5.1.6</text>
<rect x="807" y="13" width="59" height="22" rx="11" fill="#eef2ff" stroke="#c7d2fe"/>
<text x="836.5" y="28" text-anchor="middle" font-family="Inter,Segoe UI,Arial,sans-serif" font-size="10" font-weight="700" fill="#3730a3">tok/s</text>
<text x="866" y="52" text-anchor="end" font-family="Inter,Segoe UI,Arial,sans-serif" font-size="10" font-weight="700" fill="#374151">Higher is better</text>
<rect x="64" y="86" width="676" height="268" rx="6" fill="#ffffff" stroke="#dbe3ef"/>
<line x1="64" y1="354.0" x2="740" y2="354.0" stroke="#e5e7eb" stroke-width="1"/>
<text x="56" y="357.0" text-anchor="end" font-family="Inter,Segoe UI,Arial,sans-serif" font-size="11" fill="#6b7280">0.0</text>
<line x1="64" y1="287.0" x2="740" y2="287.0" stroke="#e5e7eb" stroke-width="1"/>
<text x="56" y="290.0" text-anchor="end" font-family="Inter,Segoe UI,Arial,sans-serif" font-size="11" fill="#6b7280">20</text>
<line x1="64" y1="220.0" x2="740" y2="220.0" stroke="#e5e7eb" stroke-width="1"/>
<text x="56" y="223.0" text-anchor="end" font-family="Inter,Segoe UI,Arial,sans-serif" font-size="11" fill="#6b7280">40</text>
<line x1="64" y1="153.0" x2="740" y2="153.0" stroke="#e5e7eb" stroke-width="1"/>
<text x="56" y="156.0" text-anchor="end" font-family="Inter,Segoe UI,Arial,sans-serif" font-size="11" fill="#6b7280">60</text>
<line x1="64" y1="86.0" x2="740" y2="86.0" stroke="#e5e7eb" stroke-width="1"/>
<text x="56" y="89.0" text-anchor="end" font-family="Inter,Segoe UI,Arial,sans-serif" font-size="11" fill="#6b7280">80</text>
<line x1="64" y1="322.5" x2="740" y2="322.5" stroke="#dc2626" stroke-width="1.2" stroke-dasharray="1 4" stroke-linecap="round"/>
<text x="748" y="317.5" text-anchor="start" font-family="Inter,Segoe UI,Arial,sans-serif" font-size="11" font-weight="700" fill="#dc2626" data-label="highest median">highest: 9.40</text>
<text x="402.0" y="398" text-anchor="middle" font-family="Inter,Segoe UI,Arial,sans-serif" font-size="11" font-weight="700" fill="#111827">all suites</text>
<circle cx="127.8" cy="314.4" r="1.45" fill="#7c3aed" fill-opacity="0.46"/>
<circle cx="130.8" cy="328.8" r="1.45" fill="#7c3aed" fill-opacity="0.46"/>
<circle cx="133.9" cy="325.6" r="1.45" fill="#7c3aed" fill-opacity="0.46"/>
<circle cx="136.9" cy="328.2" r="1.45" fill="#7c3aed" fill-opacity="0.46"/>
<line x1="140.0" y1="314.4" x2="140.0" y2="328.8" stroke="#7c3aed" stroke-opacity="0.86" stroke-width="1.8"/>
<line x1="127.8" y1="314.4" x2="152.2" y2="314.4" stroke="#7c3aed" stroke-opacity="0.86" stroke-width="1.8"/>
<line x1="127.8" y1="328.8" x2="152.2" y2="328.8" stroke="#7c3aed" stroke-opacity="0.86" stroke-width="1.8"/>
<rect x="123.0" y="322.8" width="34.0" height="5.5" rx="2" fill="#7c3aed" fill-opacity="0.18" stroke="#7c3aed" stroke-opacity="0.9" stroke-width="1.8"/>
<line x1="123.0" y1="326.9" x2="157.0" y2="326.9" stroke="#7c3aed" stroke-opacity="0.96" stroke-width="2.6"/>
<text x="163.0" y="330.9" text-anchor="start" font-family="Inter,Segoe UI,Arial,sans-serif" font-size="11" font-weight="700" fill="#111827" stroke="#ffffff" stroke-width="3" paint-order="stroke">8.08</text>
<circle cx="651.8" cy="323.8" r="1.45" fill="#1e3a8a" fill-opacity="0.46"/>
<circle cx="654.8" cy="317.7" r="1.45" fill="#1e3a8a" fill-opacity="0.46"/>
<circle cx="657.9" cy="324.8" r="1.45" fill="#1e3a8a" fill-opacity="0.46"/>
<circle cx="660.9" cy="321.2" r="1.45" fill="#1e3a8a" fill-opacity="0.46"/>
<line x1="664.0" y1="317.7" x2="664.0" y2="324.8" stroke="#1e3a8a" stroke-opacity="0.86" stroke-width="1.8"/>
<line x1="651.8" y1="317.7" x2="676.2" y2="317.7" stroke="#1e3a8a" stroke-opacity="0.86" stroke-width="1.8"/>
<line x1="651.8" y1="324.8" x2="676.2" y2="324.8" stroke="#1e3a8a" stroke-opacity="0.86" stroke-width="1.8"/>
<rect x="647.0" y="320.3" width="34.0" height="3.7" rx="2" fill="#1e3a8a" fill-opacity="0.18" stroke="#1e3a8a" stroke-opacity="0.9" stroke-width="1.8"/>
<line x1="647.0" y1="322.5" x2="681.0" y2="322.5" stroke="#1e3a8a" stroke-opacity="0.96" stroke-width="2.6"/>
<text x="687.0" y="326.5" text-anchor="start" font-family="Inter,Segoe UI,Arial,sans-serif" font-size="11" font-weight="700" fill="#111827" stroke="#ffffff" stroke-width="3" paint-order="stroke">9.40</text>
<rect x="64.0" y="433" width="10" height="10" rx="2" fill="#7c3aed" fill-opacity="0.72"/>
<text x="78.0" y="442" font-family="Inter,Segoe UI,Arial,sans-serif" font-size="10" fill="#374151">Lightning v0.7.0</text>
<rect x="402.0" y="433" width="10" height="10" rx="2" fill="#1e3a8a" fill-opacity="0.72"/>
<text x="416.0" y="442" font-family="Inter,Segoe UI,Arial,sans-serif" font-size="10" fill="#374151">Lightning+ng v0.7.0</text>
</svg>
