<svg xmlns="http://www.w3.org/2000/svg" width="900" height="460" viewBox="0 0 900 460" role="img" aria-labelledby="title desc">
<title>Qwen3.6 35B-A3B 4-bit MTP decode throughput</title>
<desc>Grouped box-and-whisker plot comparing MTPLX 0.3.7, Lightning v0.6.10, Lightning+ng v0.6.10, AX Engine v5.1.1, AX+ngram v5.1.1 across all suites.</desc>
<rect width="100%" height="100%" fill="#f8fafc"/>
<text x="24" y="24" font-family="Inter,Segoe UI,Arial,sans-serif" font-size="16" font-weight="700" fill="#111827">Qwen3.6 35B-A3B 4-bit MTP decode throughput</text>
<text x="24" y="46" font-family="Inter,Segoe UI,Arial,sans-serif" font-size="11" fill="#4b5563">All suites combined | box=IQR | whiskers=min/max | dots=runs</text>
<text x="24" y="62" font-family="Inter,Segoe UI,Arial,sans-serif" font-size="10" fill="#6b7280">MTPLX 0.3.7 · Lightning-MLX 0.6.10 · AX Engine v5.1.1</text>
<rect x="807" y="13" width="59" height="22" rx="11" fill="#eef2ff" stroke="#c7d2fe"/>
<text x="836.5" y="28" text-anchor="middle" font-family="Inter,Segoe UI,Arial,sans-serif" font-size="10" font-weight="700" fill="#3730a3">tok/s</text>
<text x="866" y="52" text-anchor="end" font-family="Inter,Segoe UI,Arial,sans-serif" font-size="10" font-weight="700" fill="#374151">Higher is better</text>
<rect x="64" y="86" width="676" height="268" rx="6" fill="#ffffff" stroke="#dbe3ef"/>
<line x1="64" y1="354.0" x2="740" y2="354.0" stroke="#e5e7eb" stroke-width="1"/>
<text x="56" y="357.0" text-anchor="end" font-family="Inter,Segoe UI,Arial,sans-serif" font-size="11" fill="#6b7280">0.0</text>
<line x1="64" y1="287.0" x2="740" y2="287.0" stroke="#e5e7eb" stroke-width="1"/>
<text x="56" y="290.0" text-anchor="end" font-family="Inter,Segoe UI,Arial,sans-serif" font-size="11" fill="#6b7280">75</text>
<line x1="64" y1="220.0" x2="740" y2="220.0" stroke="#e5e7eb" stroke-width="1"/>
<text x="56" y="223.0" text-anchor="end" font-family="Inter,Segoe UI,Arial,sans-serif" font-size="11" fill="#6b7280">150</text>
<line x1="64" y1="153.0" x2="740" y2="153.0" stroke="#e5e7eb" stroke-width="1"/>
<text x="56" y="156.0" text-anchor="end" font-family="Inter,Segoe UI,Arial,sans-serif" font-size="11" fill="#6b7280">225</text>
<line x1="64" y1="86.0" x2="740" y2="86.0" stroke="#e5e7eb" stroke-width="1"/>
<text x="56" y="89.0" text-anchor="end" font-family="Inter,Segoe UI,Arial,sans-serif" font-size="11" fill="#6b7280">300</text>
<line x1="64" y1="105.1" x2="740" y2="105.1" stroke="#dc2626" stroke-width="1.2" stroke-dasharray="1 4" stroke-linecap="round"/>
<text x="748" y="100.1" text-anchor="start" font-family="Inter,Segoe UI,Arial,sans-serif" font-size="11" font-weight="700" fill="#dc2626" data-label="highest median">highest: 279</text>
<text x="402.0" y="398" text-anchor="middle" font-family="Inter,Segoe UI,Arial,sans-serif" font-size="11" font-weight="700" fill="#111827">all suites</text>
<circle cx="127.8" cy="261.5" r="1.45" fill="#14532d" fill-opacity="0.46"/>
<circle cx="130.8" cy="262.1" r="1.45" fill="#14532d" fill-opacity="0.46"/>
<circle cx="133.9" cy="259.7" r="1.45" fill="#14532d" fill-opacity="0.46"/>
<circle cx="136.9" cy="260.4" r="1.45" fill="#14532d" fill-opacity="0.46"/>
<circle cx="140.0" cy="262.3" r="1.45" fill="#14532d" fill-opacity="0.46"/>
<circle cx="143.1" cy="252.3" r="1.45" fill="#14532d" fill-opacity="0.46"/>
<circle cx="146.1" cy="255.6" r="1.45" fill="#14532d" fill-opacity="0.46"/>
<circle cx="149.2" cy="251.7" r="1.45" fill="#14532d" fill-opacity="0.46"/>
<circle cx="152.2" cy="253.5" r="1.45" fill="#14532d" fill-opacity="0.46"/>
<circle cx="127.8" cy="251.8" r="1.45" fill="#14532d" fill-opacity="0.46"/>
<circle cx="130.8" cy="264.2" r="1.45" fill="#14532d" fill-opacity="0.46"/>
<circle cx="133.9" cy="264.9" r="1.45" fill="#14532d" fill-opacity="0.46"/>
<circle cx="136.9" cy="263.9" r="1.45" fill="#14532d" fill-opacity="0.46"/>
<circle cx="140.0" cy="264.0" r="1.45" fill="#14532d" fill-opacity="0.46"/>
<circle cx="143.1" cy="265.5" r="1.45" fill="#14532d" fill-opacity="0.46"/>
<circle cx="146.1" cy="258.6" r="1.45" fill="#14532d" fill-opacity="0.46"/>
<circle cx="149.2" cy="260.0" r="1.45" fill="#14532d" fill-opacity="0.46"/>
<circle cx="152.2" cy="258.9" r="1.45" fill="#14532d" fill-opacity="0.46"/>
<circle cx="127.8" cy="260.3" r="1.45" fill="#14532d" fill-opacity="0.46"/>
<circle cx="130.8" cy="258.9" r="1.45" fill="#14532d" fill-opacity="0.46"/>
<circle cx="133.9" cy="251.1" r="1.45" fill="#14532d" fill-opacity="0.46"/>
<circle cx="136.9" cy="250.4" r="1.45" fill="#14532d" fill-opacity="0.46"/>
<circle cx="140.0" cy="252.2" r="1.45" fill="#14532d" fill-opacity="0.46"/>
<circle cx="143.1" cy="250.0" r="1.45" fill="#14532d" fill-opacity="0.46"/>
<circle cx="146.1" cy="250.8" r="1.45" fill="#14532d" fill-opacity="0.46"/>
<circle cx="149.2" cy="259.1" r="1.45" fill="#14532d" fill-opacity="0.46"/>
<circle cx="152.2" cy="259.4" r="1.45" fill="#14532d" fill-opacity="0.46"/>
<circle cx="127.8" cy="257.6" r="1.45" fill="#14532d" fill-opacity="0.46"/>
<circle cx="130.8" cy="259.8" r="1.45" fill="#14532d" fill-opacity="0.46"/>
<circle cx="133.9" cy="259.8" r="1.45" fill="#14532d" fill-opacity="0.46"/>
<circle cx="136.9" cy="263.1" r="1.45" fill="#14532d" fill-opacity="0.46"/>
<circle cx="140.0" cy="263.5" r="1.45" fill="#14532d" fill-opacity="0.46"/>
<circle cx="143.1" cy="262.9" r="1.45" fill="#14532d" fill-opacity="0.46"/>
<circle cx="146.1" cy="261.3" r="1.45" fill="#14532d" fill-opacity="0.46"/>
<circle cx="149.2" cy="263.7" r="1.45" fill="#14532d" fill-opacity="0.46"/>
<circle cx="152.2" cy="263.9" r="1.45" fill="#14532d" fill-opacity="0.46"/>
<circle cx="127.8" cy="264.4" r="1.45" fill="#14532d" fill-opacity="0.46"/>
<circle cx="130.8" cy="263.6" r="1.45" fill="#14532d" fill-opacity="0.46"/>
<circle cx="133.9" cy="263.0" r="1.45" fill="#14532d" fill-opacity="0.46"/>
<circle cx="136.9" cy="263.5" r="1.45" fill="#14532d" fill-opacity="0.46"/>
<circle cx="140.0" cy="267.1" r="1.45" fill="#14532d" fill-opacity="0.46"/>
<circle cx="143.1" cy="265.2" r="1.45" fill="#14532d" fill-opacity="0.46"/>
<circle cx="146.1" cy="265.7" r="1.45" fill="#14532d" fill-opacity="0.46"/>
<circle cx="149.2" cy="265.5" r="1.45" fill="#14532d" fill-opacity="0.46"/>
<circle cx="152.2" cy="270.3" r="1.45" fill="#14532d" fill-opacity="0.46"/>
<circle cx="127.8" cy="266.3" r="1.45" fill="#14532d" fill-opacity="0.46"/>
<circle cx="130.8" cy="263.1" r="1.45" fill="#14532d" fill-opacity="0.46"/>
<circle cx="133.9" cy="264.3" r="1.45" fill="#14532d" fill-opacity="0.46"/>
<circle cx="136.9" cy="266.9" r="1.45" fill="#14532d" fill-opacity="0.46"/>
<circle cx="140.0" cy="264.1" r="1.45" fill="#14532d" fill-opacity="0.46"/>
<circle cx="143.1" cy="264.5" r="1.45" fill="#14532d" fill-opacity="0.46"/>
<circle cx="146.1" cy="265.6" r="1.45" fill="#14532d" fill-opacity="0.46"/>
<circle cx="149.2" cy="266.1" r="1.45" fill="#14532d" fill-opacity="0.46"/>
<circle cx="152.2" cy="262.7" r="1.45" fill="#14532d" fill-opacity="0.46"/>
<circle cx="127.8" cy="264.7" r="1.45" fill="#14532d" fill-opacity="0.46"/>
<line x1="140.0" y1="250.0" x2="140.0" y2="270.3" stroke="#14532d" stroke-opacity="0.86" stroke-width="1.8"/>
<line x1="127.8" y1="250.0" x2="152.2" y2="250.0" stroke="#14532d" stroke-opacity="0.86" stroke-width="1.8"/>
<line x1="127.8" y1="270.3" x2="152.2" y2="270.3" stroke="#14532d" stroke-opacity="0.86" stroke-width="1.8"/>
<rect x="123.0" y="259.0" width="34.0" height="5.4" rx="2" fill="#14532d" fill-opacity="0.18" stroke="#14532d" stroke-opacity="0.9" stroke-width="1.8"/>
<line x1="123.0" y1="262.9" x2="157.0" y2="262.9" stroke="#14532d" stroke-opacity="0.96" stroke-width="2.6"/>
<text x="163.0" y="266.9" text-anchor="start" font-family="Inter,Segoe UI,Arial,sans-serif" font-size="11" font-weight="700" fill="#111827" stroke="#ffffff" stroke-width="3" paint-order="stroke">102</text>
<circle cx="258.8" cy="190.5" r="1.45" fill="#7c3aed" fill-opacity="0.46"/>
<circle cx="261.8" cy="190.2" r="1.45" fill="#7c3aed" fill-opacity="0.46"/>
<circle cx="264.9" cy="190.8" r="1.45" fill="#7c3aed" fill-opacity="0.46"/>
<circle cx="267.9" cy="192.6" r="1.45" fill="#7c3aed" fill-opacity="0.46"/>
<circle cx="271.0" cy="192.8" r="1.45" fill="#7c3aed" fill-opacity="0.46"/>
<circle cx="274.1" cy="191.6" r="1.45" fill="#7c3aed" fill-opacity="0.46"/>
<circle cx="277.1" cy="182.3" r="1.45" fill="#7c3aed" fill-opacity="0.46"/>
<circle cx="280.2" cy="184.9" r="1.45" fill="#7c3aed" fill-opacity="0.46"/>
<circle cx="283.2" cy="184.5" r="1.45" fill="#7c3aed" fill-opacity="0.46"/>
<circle cx="258.8" cy="184.6" r="1.45" fill="#7c3aed" fill-opacity="0.46"/>
<circle cx="261.8" cy="185.5" r="1.45" fill="#7c3aed" fill-opacity="0.46"/>
<circle cx="264.9" cy="183.2" r="1.45" fill="#7c3aed" fill-opacity="0.46"/>
<circle cx="267.9" cy="187.2" r="1.45" fill="#7c3aed" fill-opacity="0.46"/>
<circle cx="271.0" cy="187.4" r="1.45" fill="#7c3aed" fill-opacity="0.46"/>
<circle cx="274.1" cy="186.2" r="1.45" fill="#7c3aed" fill-opacity="0.46"/>
<circle cx="277.1" cy="185.7" r="1.45" fill="#7c3aed" fill-opacity="0.46"/>
<circle cx="280.2" cy="186.6" r="1.45" fill="#7c3aed" fill-opacity="0.46"/>
<circle cx="283.2" cy="184.4" r="1.45" fill="#7c3aed" fill-opacity="0.46"/>
<circle cx="258.8" cy="186.0" r="1.45" fill="#7c3aed" fill-opacity="0.46"/>
<circle cx="261.8" cy="182.4" r="1.45" fill="#7c3aed" fill-opacity="0.46"/>
<circle cx="264.9" cy="191.8" r="1.45" fill="#7c3aed" fill-opacity="0.46"/>
<circle cx="267.9" cy="191.2" r="1.45" fill="#7c3aed" fill-opacity="0.46"/>
<circle cx="271.0" cy="191.6" r="1.45" fill="#7c3aed" fill-opacity="0.46"/>
<circle cx="274.1" cy="293.3" r="1.45" fill="#7c3aed" fill-opacity="0.46"/>
<circle cx="277.1" cy="238.5" r="1.45" fill="#7c3aed" fill-opacity="0.46"/>
<circle cx="280.2" cy="293.3" r="1.45" fill="#7c3aed" fill-opacity="0.46"/>
<circle cx="283.2" cy="297.1" r="1.45" fill="#7c3aed" fill-opacity="0.46"/>
<circle cx="258.8" cy="273.3" r="1.45" fill="#7c3aed" fill-opacity="0.46"/>
<circle cx="261.8" cy="190.1" r="1.45" fill="#7c3aed" fill-opacity="0.46"/>
<circle cx="264.9" cy="296.6" r="1.45" fill="#7c3aed" fill-opacity="0.46"/>
<circle cx="267.9" cy="261.2" r="1.45" fill="#7c3aed" fill-opacity="0.46"/>
<circle cx="271.0" cy="296.9" r="1.45" fill="#7c3aed" fill-opacity="0.46"/>
<circle cx="274.1" cy="292.6" r="1.45" fill="#7c3aed" fill-opacity="0.46"/>
<circle cx="277.1" cy="191.9" r="1.45" fill="#7c3aed" fill-opacity="0.46"/>
<circle cx="280.2" cy="192.5" r="1.45" fill="#7c3aed" fill-opacity="0.46"/>
<circle cx="283.2" cy="283.5" r="1.45" fill="#7c3aed" fill-opacity="0.46"/>
<circle cx="258.8" cy="296.6" r="1.45" fill="#7c3aed" fill-opacity="0.46"/>
<circle cx="261.8" cy="282.5" r="1.45" fill="#7c3aed" fill-opacity="0.46"/>
<circle cx="264.9" cy="191.4" r="1.45" fill="#7c3aed" fill-opacity="0.46"/>
<circle cx="267.9" cy="187.9" r="1.45" fill="#7c3aed" fill-opacity="0.46"/>
<circle cx="271.0" cy="189.0" r="1.45" fill="#7c3aed" fill-opacity="0.46"/>
<circle cx="274.1" cy="187.8" r="1.45" fill="#7c3aed" fill-opacity="0.46"/>
<circle cx="277.1" cy="186.1" r="1.45" fill="#7c3aed" fill-opacity="0.46"/>
<circle cx="280.2" cy="186.1" r="1.45" fill="#7c3aed" fill-opacity="0.46"/>
<circle cx="283.2" cy="186.6" r="1.45" fill="#7c3aed" fill-opacity="0.46"/>
<circle cx="258.8" cy="191.3" r="1.45" fill="#7c3aed" fill-opacity="0.46"/>
<circle cx="261.8" cy="189.5" r="1.45" fill="#7c3aed" fill-opacity="0.46"/>
<circle cx="264.9" cy="186.4" r="1.45" fill="#7c3aed" fill-opacity="0.46"/>
<circle cx="267.9" cy="185.9" r="1.45" fill="#7c3aed" fill-opacity="0.46"/>
<circle cx="271.0" cy="185.7" r="1.45" fill="#7c3aed" fill-opacity="0.46"/>
<circle cx="274.1" cy="187.2" r="1.45" fill="#7c3aed" fill-opacity="0.46"/>
<circle cx="277.1" cy="187.1" r="1.45" fill="#7c3aed" fill-opacity="0.46"/>
<circle cx="280.2" cy="187.6" r="1.45" fill="#7c3aed" fill-opacity="0.46"/>
<circle cx="283.2" cy="187.0" r="1.45" fill="#7c3aed" fill-opacity="0.46"/>
<circle cx="258.8" cy="186.6" r="1.45" fill="#7c3aed" fill-opacity="0.46"/>
<line x1="271.0" y1="182.3" x2="271.0" y2="297.1" stroke="#7c3aed" stroke-opacity="0.86" stroke-width="1.8"/>
<line x1="258.8" y1="182.3" x2="283.2" y2="182.3" stroke="#7c3aed" stroke-opacity="0.86" stroke-width="1.8"/>
<line x1="258.8" y1="297.1" x2="283.2" y2="297.1" stroke="#7c3aed" stroke-opacity="0.86" stroke-width="1.8"/>
<rect x="254.0" y="186.2" width="34.0" height="6.4" rx="2" fill="#7c3aed" fill-opacity="0.18" stroke="#7c3aed" stroke-opacity="0.9" stroke-width="1.8"/>
<line x1="254.0" y1="189.0" x2="288.0" y2="189.0" stroke="#7c3aed" stroke-opacity="0.96" stroke-width="2.6"/>
<text x="294.0" y="193.0" text-anchor="start" font-family="Inter,Segoe UI,Arial,sans-serif" font-size="11" font-weight="700" fill="#111827" stroke="#ffffff" stroke-width="3" paint-order="stroke">185</text>
<circle cx="389.8" cy="211.4" r="1.45" fill="#1e3a8a" fill-opacity="0.46"/>
<circle cx="392.8" cy="210.4" r="1.45" fill="#1e3a8a" fill-opacity="0.46"/>
<circle cx="395.9" cy="208.4" r="1.45" fill="#1e3a8a" fill-opacity="0.46"/>
<circle cx="398.9" cy="87.3" r="1.45" fill="#1e3a8a" fill-opacity="0.46"/>
<circle cx="402.0" cy="124.6" r="1.45" fill="#1e3a8a" fill-opacity="0.46"/>
<circle cx="405.1" cy="96.8" r="1.45" fill="#1e3a8a" fill-opacity="0.46"/>
<circle cx="408.1" cy="101.2" r="1.45" fill="#1e3a8a" fill-opacity="0.46"/>
<circle cx="411.2" cy="149.7" r="1.45" fill="#1e3a8a" fill-opacity="0.46"/>
<circle cx="414.2" cy="139.9" r="1.45" fill="#1e3a8a" fill-opacity="0.46"/>
<circle cx="389.8" cy="137.7" r="1.45" fill="#1e3a8a" fill-opacity="0.46"/>
<circle cx="392.8" cy="100.3" r="1.45" fill="#1e3a8a" fill-opacity="0.46"/>
<circle cx="395.9" cy="210.5" r="1.45" fill="#1e3a8a" fill-opacity="0.46"/>
<circle cx="398.9" cy="158.4" r="1.45" fill="#1e3a8a" fill-opacity="0.46"/>
<circle cx="402.0" cy="210.1" r="1.45" fill="#1e3a8a" fill-opacity="0.46"/>
<circle cx="405.1" cy="163.1" r="1.45" fill="#1e3a8a" fill-opacity="0.46"/>
<circle cx="408.1" cy="211.2" r="1.45" fill="#1e3a8a" fill-opacity="0.46"/>
<circle cx="411.2" cy="181.3" r="1.45" fill="#1e3a8a" fill-opacity="0.46"/>
<circle cx="414.2" cy="154.2" r="1.45" fill="#1e3a8a" fill-opacity="0.46"/>
<circle cx="389.8" cy="213.0" r="1.45" fill="#1e3a8a" fill-opacity="0.46"/>
<circle cx="392.8" cy="213.8" r="1.45" fill="#1e3a8a" fill-opacity="0.46"/>
<circle cx="395.9" cy="212.8" r="1.45" fill="#1e3a8a" fill-opacity="0.46"/>
<circle cx="398.9" cy="213.5" r="1.45" fill="#1e3a8a" fill-opacity="0.46"/>
<circle cx="402.0" cy="286.5" r="1.45" fill="#1e3a8a" fill-opacity="0.46"/>
<circle cx="405.1" cy="215.1" r="1.45" fill="#1e3a8a" fill-opacity="0.46"/>
<circle cx="408.1" cy="273.0" r="1.45" fill="#1e3a8a" fill-opacity="0.46"/>
<circle cx="411.2" cy="249.8" r="1.45" fill="#1e3a8a" fill-opacity="0.46"/>
<circle cx="414.2" cy="86.0" r="1.45" fill="#1e3a8a" fill-opacity="0.46"/>
<circle cx="389.8" cy="210.2" r="1.45" fill="#1e3a8a" fill-opacity="0.46"/>
<circle cx="392.8" cy="209.1" r="1.45" fill="#1e3a8a" fill-opacity="0.46"/>
<circle cx="395.9" cy="101.1" r="1.45" fill="#1e3a8a" fill-opacity="0.46"/>
<circle cx="398.9" cy="106.6" r="1.45" fill="#1e3a8a" fill-opacity="0.46"/>
<circle cx="402.0" cy="209.0" r="1.45" fill="#1e3a8a" fill-opacity="0.46"/>
<circle cx="405.1" cy="209.5" r="1.45" fill="#1e3a8a" fill-opacity="0.46"/>
<circle cx="408.1" cy="119.0" r="1.45" fill="#1e3a8a" fill-opacity="0.46"/>
<circle cx="411.2" cy="94.4" r="1.45" fill="#1e3a8a" fill-opacity="0.46"/>
<circle cx="414.2" cy="92.3" r="1.45" fill="#1e3a8a" fill-opacity="0.46"/>
<circle cx="389.8" cy="132.9" r="1.45" fill="#1e3a8a" fill-opacity="0.46"/>
<circle cx="392.8" cy="98.3" r="1.45" fill="#1e3a8a" fill-opacity="0.46"/>
<circle cx="395.9" cy="111.5" r="1.45" fill="#1e3a8a" fill-opacity="0.46"/>
<circle cx="398.9" cy="161.8" r="1.45" fill="#1e3a8a" fill-opacity="0.46"/>
<circle cx="402.0" cy="124.2" r="1.45" fill="#1e3a8a" fill-opacity="0.46"/>
<circle cx="405.1" cy="121.3" r="1.45" fill="#1e3a8a" fill-opacity="0.46"/>
<circle cx="408.1" cy="201.3" r="1.45" fill="#1e3a8a" fill-opacity="0.46"/>
<circle cx="411.2" cy="185.2" r="1.45" fill="#1e3a8a" fill-opacity="0.46"/>
<circle cx="414.2" cy="187.6" r="1.45" fill="#1e3a8a" fill-opacity="0.46"/>
<circle cx="389.8" cy="210.3" r="1.45" fill="#1e3a8a" fill-opacity="0.46"/>
<circle cx="392.8" cy="197.9" r="1.45" fill="#1e3a8a" fill-opacity="0.46"/>
<circle cx="395.9" cy="163.4" r="1.45" fill="#1e3a8a" fill-opacity="0.46"/>
<circle cx="398.9" cy="175.2" r="1.45" fill="#1e3a8a" fill-opacity="0.46"/>
<circle cx="402.0" cy="168.4" r="1.45" fill="#1e3a8a" fill-opacity="0.46"/>
<circle cx="405.1" cy="122.7" r="1.45" fill="#1e3a8a" fill-opacity="0.46"/>
<circle cx="408.1" cy="175.9" r="1.45" fill="#1e3a8a" fill-opacity="0.46"/>
<circle cx="411.2" cy="167.6" r="1.45" fill="#1e3a8a" fill-opacity="0.46"/>
<line x1="402.0" y1="86.0" x2="402.0" y2="286.5" stroke="#1e3a8a" stroke-opacity="0.86" stroke-width="1.8"/>
<line x1="389.8" y1="86.0" x2="414.2" y2="86.0" stroke="#1e3a8a" stroke-opacity="0.86" stroke-width="1.8"/>
<line x1="389.8" y1="286.5" x2="414.2" y2="286.5" stroke="#1e3a8a" stroke-opacity="0.86" stroke-width="1.8"/>
<rect x="385.0" y="122.7" width="34.0" height="87.5" rx="2" fill="#1e3a8a" fill-opacity="0.18" stroke="#1e3a8a" stroke-opacity="0.9" stroke-width="1.8"/>
<line x1="385.0" y1="168.4" x2="419.0" y2="168.4" stroke="#1e3a8a" stroke-opacity="0.96" stroke-width="2.6"/>
<text x="425.0" y="172.4" text-anchor="start" font-family="Inter,Segoe UI,Arial,sans-serif" font-size="11" font-weight="700" fill="#111827" stroke="#ffffff" stroke-width="3" paint-order="stroke">208</text>
<circle cx="520.8" cy="194.1" r="1.45" fill="#f97316" fill-opacity="0.46"/>
<circle cx="523.8" cy="195.0" r="1.45" fill="#f97316" fill-opacity="0.46"/>
<circle cx="526.9" cy="194.6" r="1.45" fill="#f97316" fill-opacity="0.46"/>
<circle cx="529.9" cy="194.0" r="1.45" fill="#f97316" fill-opacity="0.46"/>
<circle cx="533.0" cy="194.6" r="1.45" fill="#f97316" fill-opacity="0.46"/>
<circle cx="536.1" cy="206.7" r="1.45" fill="#f97316" fill-opacity="0.46"/>
<circle cx="539.1" cy="205.7" r="1.45" fill="#f97316" fill-opacity="0.46"/>
<circle cx="542.2" cy="202.9" r="1.45" fill="#f97316" fill-opacity="0.46"/>
<circle cx="545.2" cy="199.0" r="1.45" fill="#f97316" fill-opacity="0.46"/>
<circle cx="520.8" cy="199.5" r="1.45" fill="#f97316" fill-opacity="0.46"/>
<circle cx="523.8" cy="199.7" r="1.45" fill="#f97316" fill-opacity="0.46"/>
<line x1="533.0" y1="194.0" x2="533.0" y2="206.7" stroke="#f97316" stroke-opacity="0.86" stroke-width="1.8"/>
<line x1="520.8" y1="194.0" x2="545.2" y2="194.0" stroke="#f97316" stroke-opacity="0.86" stroke-width="1.8"/>
<line x1="520.8" y1="206.7" x2="545.2" y2="206.7" stroke="#f97316" stroke-opacity="0.86" stroke-width="1.8"/>
<rect x="516.0" y="194.6" width="34.0" height="6.7" rx="2" fill="#f97316" fill-opacity="0.18" stroke="#f97316" stroke-opacity="0.9" stroke-width="1.8"/>
<line x1="516.0" y1="199.0" x2="550.0" y2="199.0" stroke="#f97316" stroke-opacity="0.96" stroke-width="2.6"/>
<text x="556.0" y="203.0" text-anchor="start" font-family="Inter,Segoe UI,Arial,sans-serif" font-size="11" font-weight="700" fill="#111827" stroke="#ffffff" stroke-width="3" paint-order="stroke">174</text>
<circle cx="651.8" cy="86.0" r="1.45" fill="#eab308" fill-opacity="0.46"/>
<circle cx="654.8" cy="86.0" r="1.45" fill="#eab308" fill-opacity="0.46"/>
<circle cx="657.9" cy="86.0" r="1.45" fill="#eab308" fill-opacity="0.46"/>
<circle cx="660.9" cy="149.4" r="1.45" fill="#eab308" fill-opacity="0.46"/>
<circle cx="664.0" cy="103.4" r="1.45" fill="#eab308" fill-opacity="0.46"/>
<circle cx="667.1" cy="105.1" r="1.45" fill="#eab308" fill-opacity="0.46"/>
<circle cx="670.1" cy="101.4" r="1.45" fill="#eab308" fill-opacity="0.46"/>
<circle cx="673.2" cy="116.2" r="1.45" fill="#eab308" fill-opacity="0.46"/>
<circle cx="676.2" cy="187.6" r="1.45" fill="#eab308" fill-opacity="0.46"/>
<circle cx="651.8" cy="172.4" r="1.45" fill="#eab308" fill-opacity="0.46"/>
<circle cx="654.8" cy="195.0" r="1.45" fill="#eab308" fill-opacity="0.46"/>
<line x1="664.0" y1="86.0" x2="664.0" y2="195.0" stroke="#eab308" stroke-opacity="0.86" stroke-width="1.8"/>
<line x1="651.8" y1="86.0" x2="676.2" y2="86.0" stroke="#eab308" stroke-opacity="0.86" stroke-width="1.8"/>
<line x1="651.8" y1="195.0" x2="676.2" y2="195.0" stroke="#eab308" stroke-opacity="0.86" stroke-width="1.8"/>
<rect x="647.0" y="91.0" width="34.0" height="69.9" rx="2" fill="#eab308" fill-opacity="0.18" stroke="#eab308" stroke-opacity="0.9" stroke-width="1.8"/>
<line x1="647.0" y1="105.1" x2="681.0" y2="105.1" stroke="#eab308" stroke-opacity="0.96" stroke-width="2.6"/>
<text x="687.0" y="109.1" text-anchor="start" font-family="Inter,Segoe UI,Arial,sans-serif" font-size="11" font-weight="700" fill="#111827" stroke="#ffffff" stroke-width="3" paint-order="stroke">279</text>
<rect x="64.0" y="433" width="10" height="10" rx="2" fill="#14532d" fill-opacity="0.72"/>
<text x="78.0" y="442" font-family="Inter,Segoe UI,Arial,sans-serif" font-size="10" fill="#374151">MTPLX 0.3.7</text>
<rect x="199.2" y="433" width="10" height="10" rx="2" fill="#7c3aed" fill-opacity="0.72"/>
<text x="213.2" y="442" font-family="Inter,Segoe UI,Arial,sans-serif" font-size="10" fill="#374151">Lightning v0.6.10</text>
<rect x="334.4" y="433" width="10" height="10" rx="2" fill="#1e3a8a" fill-opacity="0.72"/>
<text x="348.4" y="442" font-family="Inter,Segoe UI,Arial,sans-serif" font-size="10" fill="#374151">Lightning+ng v0.6.10</text>
<rect x="469.6" y="433" width="10" height="10" rx="2" fill="#f97316" fill-opacity="0.72"/>
<text x="483.6" y="442" font-family="Inter,Segoe UI,Arial,sans-serif" font-size="10" fill="#374151">AX Engine v5.1.1</text>
<rect x="604.8" y="433" width="10" height="10" rx="2" fill="#eab308" fill-opacity="0.72"/>
<text x="618.8" y="442" font-family="Inter,Segoe UI,Arial,sans-serif" font-size="10" fill="#374151">AX+ngram v5.1.1</text>
</svg>
