<svg xmlns="http://www.w3.org/2000/svg" width="900" height="460" viewBox="0 0 900 460" role="img" aria-labelledby="title desc">
<title>Qwen3.6 35B-A3B 4-bit MTP prefill throughput</title>
<desc>Grouped box-and-whisker plot comparing MTPLX 0.3.7, Light. MTP, Light. ngram+MTP, AX MTP, AX MTP+n-gram.</desc>
<rect width="100%" height="100%" fill="#f8fafc"/>
<text x="24" y="24" font-family="Inter,Segoe UI,Arial,sans-serif" font-size="16" font-weight="700" fill="#111827">Qwen3.6 35B-A3B 4-bit MTP prefill throughput</text>
<text x="24" y="46" font-family="Inter,Segoe UI,Arial,sans-serif" font-size="11" fill="#4b5563">All suites combined | box=IQR | dots=runs | Lightning ~= TTFT-derived</text>
<rect x="807" y="13" width="59" height="22" rx="11" fill="#eef2ff" stroke="#c7d2fe"/>
<text x="836.5" y="28" text-anchor="middle" font-family="Inter,Segoe UI,Arial,sans-serif" font-size="10" font-weight="700" fill="#3730a3">tok/s</text>
<text x="866" y="52" text-anchor="end" font-family="Inter,Segoe UI,Arial,sans-serif" font-size="10" font-weight="700" fill="#374151">Higher is better</text>
<rect x="64" y="86" width="676" height="268" rx="6" fill="#ffffff" stroke="#dbe3ef"/>
<line x1="64" y1="354.0" x2="740" y2="354.0" stroke="#e5e7eb" stroke-width="1"/>
<text x="56" y="357.0" text-anchor="end" font-family="Inter,Segoe UI,Arial,sans-serif" font-size="11" fill="#6b7280">0.0</text>
<line x1="64" y1="287.0" x2="740" y2="287.0" stroke="#e5e7eb" stroke-width="1"/>
<text x="56" y="290.0" text-anchor="end" font-family="Inter,Segoe UI,Arial,sans-serif" font-size="11" fill="#6b7280">1.25k</text>
<line x1="64" y1="220.0" x2="740" y2="220.0" stroke="#e5e7eb" stroke-width="1"/>
<text x="56" y="223.0" text-anchor="end" font-family="Inter,Segoe UI,Arial,sans-serif" font-size="11" fill="#6b7280">2.5k</text>
<line x1="64" y1="153.0" x2="740" y2="153.0" stroke="#e5e7eb" stroke-width="1"/>
<text x="56" y="156.0" text-anchor="end" font-family="Inter,Segoe UI,Arial,sans-serif" font-size="11" fill="#6b7280">3.75k</text>
<line x1="64" y1="86.0" x2="740" y2="86.0" stroke="#e5e7eb" stroke-width="1"/>
<text x="56" y="89.0" text-anchor="end" font-family="Inter,Segoe UI,Arial,sans-serif" font-size="11" fill="#6b7280">5k</text>
<line x1="64" y1="255.5" x2="740" y2="255.5" stroke="#dc2626" stroke-width="1.2" stroke-dasharray="1 4" stroke-linecap="round"/>
<text x="748" y="250.5" text-anchor="start" font-family="Inter,Segoe UI,Arial,sans-serif" font-size="11" font-weight="700" fill="#dc2626" data-label="highest median">highest: 1.8k</text>
<text x="402.0" y="398" text-anchor="middle" font-family="Inter,Segoe UI,Arial,sans-serif" font-size="11" font-weight="700" fill="#111827">all suites</text>
<circle cx="127.8" cy="280.6" r="1.45" fill="#14532d" fill-opacity="0.46"/>
<circle cx="130.8" cy="281.0" r="1.45" fill="#14532d" fill-opacity="0.46"/>
<circle cx="133.9" cy="281.4" r="1.45" fill="#14532d" fill-opacity="0.46"/>
<circle cx="136.9" cy="280.1" r="1.45" fill="#14532d" fill-opacity="0.46"/>
<circle cx="140.0" cy="280.4" r="1.45" fill="#14532d" fill-opacity="0.46"/>
<circle cx="143.1" cy="263.0" r="1.45" fill="#14532d" fill-opacity="0.46"/>
<circle cx="146.1" cy="262.7" r="1.45" fill="#14532d" fill-opacity="0.46"/>
<circle cx="149.2" cy="263.4" r="1.45" fill="#14532d" fill-opacity="0.46"/>
<circle cx="152.2" cy="263.6" r="1.45" fill="#14532d" fill-opacity="0.46"/>
<circle cx="127.8" cy="264.0" r="1.45" fill="#14532d" fill-opacity="0.46"/>
<circle cx="130.8" cy="254.5" r="1.45" fill="#14532d" fill-opacity="0.46"/>
<circle cx="133.9" cy="254.4" r="1.45" fill="#14532d" fill-opacity="0.46"/>
<circle cx="136.9" cy="253.9" r="1.45" fill="#14532d" fill-opacity="0.46"/>
<circle cx="140.0" cy="254.4" r="1.45" fill="#14532d" fill-opacity="0.46"/>
<circle cx="143.1" cy="252.2" r="1.45" fill="#14532d" fill-opacity="0.46"/>
<circle cx="146.1" cy="281.7" r="1.45" fill="#14532d" fill-opacity="0.46"/>
<circle cx="149.2" cy="283.1" r="1.45" fill="#14532d" fill-opacity="0.46"/>
<circle cx="152.2" cy="282.1" r="1.45" fill="#14532d" fill-opacity="0.46"/>
<circle cx="127.8" cy="283.6" r="1.45" fill="#14532d" fill-opacity="0.46"/>
<circle cx="130.8" cy="282.6" r="1.45" fill="#14532d" fill-opacity="0.46"/>
<circle cx="133.9" cy="221.0" r="1.45" fill="#14532d" fill-opacity="0.46"/>
<circle cx="136.9" cy="221.7" r="1.45" fill="#14532d" fill-opacity="0.46"/>
<circle cx="140.0" cy="213.8" r="1.45" fill="#14532d" fill-opacity="0.46"/>
<circle cx="143.1" cy="221.7" r="1.45" fill="#14532d" fill-opacity="0.46"/>
<circle cx="146.1" cy="222.8" r="1.45" fill="#14532d" fill-opacity="0.46"/>
<circle cx="149.2" cy="208.3" r="1.45" fill="#14532d" fill-opacity="0.46"/>
<circle cx="152.2" cy="207.0" r="1.45" fill="#14532d" fill-opacity="0.46"/>
<circle cx="127.8" cy="208.8" r="1.45" fill="#14532d" fill-opacity="0.46"/>
<circle cx="130.8" cy="203.3" r="1.45" fill="#14532d" fill-opacity="0.46"/>
<circle cx="133.9" cy="208.7" r="1.45" fill="#14532d" fill-opacity="0.46"/>
<circle cx="136.9" cy="227.9" r="1.45" fill="#14532d" fill-opacity="0.46"/>
<circle cx="140.0" cy="226.1" r="1.45" fill="#14532d" fill-opacity="0.46"/>
<circle cx="143.1" cy="223.6" r="1.45" fill="#14532d" fill-opacity="0.46"/>
<circle cx="146.1" cy="223.9" r="1.45" fill="#14532d" fill-opacity="0.46"/>
<circle cx="149.2" cy="221.6" r="1.45" fill="#14532d" fill-opacity="0.46"/>
<circle cx="152.2" cy="256.3" r="1.45" fill="#14532d" fill-opacity="0.46"/>
<circle cx="127.8" cy="252.5" r="1.45" fill="#14532d" fill-opacity="0.46"/>
<circle cx="130.8" cy="256.3" r="1.45" fill="#14532d" fill-opacity="0.46"/>
<circle cx="133.9" cy="254.6" r="1.45" fill="#14532d" fill-opacity="0.46"/>
<circle cx="136.9" cy="256.1" r="1.45" fill="#14532d" fill-opacity="0.46"/>
<circle cx="140.0" cy="273.5" r="1.45" fill="#14532d" fill-opacity="0.46"/>
<circle cx="143.1" cy="272.4" r="1.45" fill="#14532d" fill-opacity="0.46"/>
<circle cx="146.1" cy="274.0" r="1.45" fill="#14532d" fill-opacity="0.46"/>
<circle cx="149.2" cy="273.9" r="1.45" fill="#14532d" fill-opacity="0.46"/>
<circle cx="152.2" cy="273.7" r="1.45" fill="#14532d" fill-opacity="0.46"/>
<circle cx="127.8" cy="261.6" r="1.45" fill="#14532d" fill-opacity="0.46"/>
<circle cx="130.8" cy="260.5" r="1.45" fill="#14532d" fill-opacity="0.46"/>
<circle cx="133.9" cy="261.5" r="1.45" fill="#14532d" fill-opacity="0.46"/>
<circle cx="136.9" cy="261.3" r="1.45" fill="#14532d" fill-opacity="0.46"/>
<circle cx="140.0" cy="261.2" r="1.45" fill="#14532d" fill-opacity="0.46"/>
<circle cx="143.1" cy="263.3" r="1.45" fill="#14532d" fill-opacity="0.46"/>
<circle cx="146.1" cy="262.7" r="1.45" fill="#14532d" fill-opacity="0.46"/>
<circle cx="149.2" cy="261.5" r="1.45" fill="#14532d" fill-opacity="0.46"/>
<circle cx="152.2" cy="262.6" r="1.45" fill="#14532d" fill-opacity="0.46"/>
<circle cx="127.8" cy="262.1" r="1.45" fill="#14532d" fill-opacity="0.46"/>
<line x1="140.0" y1="203.3" x2="140.0" y2="283.6" stroke="#14532d" stroke-opacity="0.82" stroke-width="1.8"/>
<line x1="127.8" y1="203.3" x2="152.2" y2="203.3" stroke="#14532d" stroke-opacity="0.82" stroke-width="1.8"/>
<line x1="127.8" y1="283.6" x2="152.2" y2="283.6" stroke="#14532d" stroke-opacity="0.82" stroke-width="1.8"/>
<rect x="123.0" y="227.0" width="34.0" height="46.0" rx="2" fill="#14532d" fill-opacity="0.18" stroke="#14532d" stroke-opacity="0.82" stroke-width="1.8"/>
<line x1="123.0" y1="261.3" x2="157.0" y2="261.3" stroke="#14532d" stroke-opacity="0.82" stroke-width="2.6"/>
<text x="163.0" y="265.3" text-anchor="start" font-family="Inter,Segoe UI,Arial,sans-serif" font-size="11" font-weight="700" fill="#111827" stroke="#ffffff" stroke-width="3" paint-order="stroke">1.7k</text>
<circle cx="258.8" cy="311.8" r="1.45" fill="#7c3aed" fill-opacity="0.34"/>
<circle cx="261.8" cy="311.9" r="1.45" fill="#7c3aed" fill-opacity="0.34"/>
<circle cx="264.9" cy="311.9" r="1.45" fill="#7c3aed" fill-opacity="0.34"/>
<circle cx="267.9" cy="310.2" r="1.45" fill="#7c3aed" fill-opacity="0.34"/>
<circle cx="271.0" cy="311.8" r="1.45" fill="#7c3aed" fill-opacity="0.34"/>
<circle cx="274.1" cy="298.2" r="1.45" fill="#7c3aed" fill-opacity="0.34"/>
<circle cx="277.1" cy="297.6" r="1.45" fill="#7c3aed" fill-opacity="0.34"/>
<circle cx="280.2" cy="297.5" r="1.45" fill="#7c3aed" fill-opacity="0.34"/>
<circle cx="283.2" cy="298.1" r="1.45" fill="#7c3aed" fill-opacity="0.34"/>
<circle cx="258.8" cy="297.8" r="1.45" fill="#7c3aed" fill-opacity="0.34"/>
<circle cx="261.8" cy="291.6" r="1.45" fill="#7c3aed" fill-opacity="0.34"/>
<circle cx="264.9" cy="293.1" r="1.45" fill="#7c3aed" fill-opacity="0.34"/>
<circle cx="267.9" cy="291.1" r="1.45" fill="#7c3aed" fill-opacity="0.34"/>
<circle cx="271.0" cy="292.6" r="1.45" fill="#7c3aed" fill-opacity="0.34"/>
<circle cx="274.1" cy="290.7" r="1.45" fill="#7c3aed" fill-opacity="0.34"/>
<circle cx="277.1" cy="313.0" r="1.45" fill="#7c3aed" fill-opacity="0.34"/>
<circle cx="280.2" cy="312.8" r="1.45" fill="#7c3aed" fill-opacity="0.34"/>
<circle cx="283.2" cy="311.6" r="1.45" fill="#7c3aed" fill-opacity="0.34"/>
<circle cx="258.8" cy="313.3" r="1.45" fill="#7c3aed" fill-opacity="0.34"/>
<circle cx="261.8" cy="313.3" r="1.45" fill="#7c3aed" fill-opacity="0.34"/>
<circle cx="264.9" cy="265.1" r="1.45" fill="#7c3aed" fill-opacity="0.34"/>
<circle cx="267.9" cy="265.3" r="1.45" fill="#7c3aed" fill-opacity="0.34"/>
<circle cx="271.0" cy="264.8" r="1.45" fill="#7c3aed" fill-opacity="0.34"/>
<circle cx="274.1" cy="265.1" r="1.45" fill="#7c3aed" fill-opacity="0.34"/>
<circle cx="277.1" cy="265.5" r="1.45" fill="#7c3aed" fill-opacity="0.34"/>
<circle cx="280.2" cy="254.1" r="1.45" fill="#7c3aed" fill-opacity="0.34"/>
<circle cx="283.2" cy="254.0" r="1.45" fill="#7c3aed" fill-opacity="0.34"/>
<circle cx="258.8" cy="253.9" r="1.45" fill="#7c3aed" fill-opacity="0.34"/>
<circle cx="261.8" cy="253.1" r="1.45" fill="#7c3aed" fill-opacity="0.34"/>
<circle cx="264.9" cy="254.3" r="1.45" fill="#7c3aed" fill-opacity="0.34"/>
<circle cx="267.9" cy="264.6" r="1.45" fill="#7c3aed" fill-opacity="0.34"/>
<circle cx="271.0" cy="264.2" r="1.45" fill="#7c3aed" fill-opacity="0.34"/>
<circle cx="274.1" cy="266.7" r="1.45" fill="#7c3aed" fill-opacity="0.34"/>
<circle cx="277.1" cy="263.8" r="1.45" fill="#7c3aed" fill-opacity="0.34"/>
<circle cx="280.2" cy="264.4" r="1.45" fill="#7c3aed" fill-opacity="0.34"/>
<circle cx="283.2" cy="291.6" r="1.45" fill="#7c3aed" fill-opacity="0.34"/>
<circle cx="258.8" cy="292.1" r="1.45" fill="#7c3aed" fill-opacity="0.34"/>
<circle cx="261.8" cy="291.0" r="1.45" fill="#7c3aed" fill-opacity="0.34"/>
<circle cx="264.9" cy="291.3" r="1.45" fill="#7c3aed" fill-opacity="0.34"/>
<circle cx="267.9" cy="291.5" r="1.45" fill="#7c3aed" fill-opacity="0.34"/>
<circle cx="271.0" cy="308.5" r="1.45" fill="#7c3aed" fill-opacity="0.34"/>
<circle cx="274.1" cy="308.7" r="1.45" fill="#7c3aed" fill-opacity="0.34"/>
<circle cx="277.1" cy="308.3" r="1.45" fill="#7c3aed" fill-opacity="0.34"/>
<circle cx="280.2" cy="308.0" r="1.45" fill="#7c3aed" fill-opacity="0.34"/>
<circle cx="283.2" cy="309.1" r="1.45" fill="#7c3aed" fill-opacity="0.34"/>
<circle cx="258.8" cy="300.8" r="1.45" fill="#7c3aed" fill-opacity="0.34"/>
<circle cx="261.8" cy="300.3" r="1.45" fill="#7c3aed" fill-opacity="0.34"/>
<circle cx="264.9" cy="299.8" r="1.45" fill="#7c3aed" fill-opacity="0.34"/>
<circle cx="267.9" cy="300.0" r="1.45" fill="#7c3aed" fill-opacity="0.34"/>
<circle cx="271.0" cy="300.3" r="1.45" fill="#7c3aed" fill-opacity="0.34"/>
<circle cx="274.1" cy="300.5" r="1.45" fill="#7c3aed" fill-opacity="0.34"/>
<circle cx="277.1" cy="302.2" r="1.45" fill="#7c3aed" fill-opacity="0.34"/>
<circle cx="280.2" cy="300.0" r="1.45" fill="#7c3aed" fill-opacity="0.34"/>
<circle cx="283.2" cy="300.7" r="1.45" fill="#7c3aed" fill-opacity="0.34"/>
<circle cx="258.8" cy="301.0" r="1.45" fill="#7c3aed" fill-opacity="0.34"/>
<line x1="271.0" y1="253.1" x2="271.0" y2="313.3" stroke="#7c3aed" stroke-opacity="0.55" stroke-width="1.8"/>
<line x1="258.8" y1="253.1" x2="283.2" y2="253.1" stroke="#7c3aed" stroke-opacity="0.55" stroke-width="1.8"/>
<line x1="258.8" y1="313.3" x2="283.2" y2="313.3" stroke="#7c3aed" stroke-opacity="0.55" stroke-width="1.8"/>
<rect x="254.0" y="266.1" width="34.0" height="42.0" rx="2" fill="#7c3aed" fill-opacity="0.12" stroke="#7c3aed" stroke-opacity="0.55" stroke-width="1.8"/>
<line x1="254.0" y1="297.8" x2="288.0" y2="297.8" stroke="#7c3aed" stroke-opacity="0.55" stroke-width="2.6"/>
<text x="294.0" y="301.8" text-anchor="start" font-family="Inter,Segoe UI,Arial,sans-serif" font-size="11" font-weight="700" fill="#111827" stroke="#ffffff" stroke-width="3" paint-order="stroke">1.0k</text>
<circle cx="389.8" cy="313.6" r="1.45" fill="#1e3a8a" fill-opacity="0.34"/>
<circle cx="392.8" cy="313.0" r="1.45" fill="#1e3a8a" fill-opacity="0.34"/>
<circle cx="395.9" cy="313.2" r="1.45" fill="#1e3a8a" fill-opacity="0.34"/>
<circle cx="398.9" cy="313.4" r="1.45" fill="#1e3a8a" fill-opacity="0.34"/>
<circle cx="402.0" cy="314.0" r="1.45" fill="#1e3a8a" fill-opacity="0.34"/>
<circle cx="405.1" cy="301.0" r="1.45" fill="#1e3a8a" fill-opacity="0.34"/>
<circle cx="408.1" cy="300.7" r="1.45" fill="#1e3a8a" fill-opacity="0.34"/>
<circle cx="411.2" cy="300.9" r="1.45" fill="#1e3a8a" fill-opacity="0.34"/>
<circle cx="414.2" cy="300.4" r="1.45" fill="#1e3a8a" fill-opacity="0.34"/>
<circle cx="389.8" cy="300.2" r="1.45" fill="#1e3a8a" fill-opacity="0.34"/>
<circle cx="392.8" cy="295.5" r="1.45" fill="#1e3a8a" fill-opacity="0.34"/>
<circle cx="395.9" cy="294.2" r="1.45" fill="#1e3a8a" fill-opacity="0.34"/>
<circle cx="398.9" cy="292.9" r="1.45" fill="#1e3a8a" fill-opacity="0.34"/>
<circle cx="402.0" cy="293.7" r="1.45" fill="#1e3a8a" fill-opacity="0.34"/>
<circle cx="405.1" cy="293.2" r="1.45" fill="#1e3a8a" fill-opacity="0.34"/>
<circle cx="408.1" cy="315.0" r="1.45" fill="#1e3a8a" fill-opacity="0.34"/>
<circle cx="411.2" cy="315.5" r="1.45" fill="#1e3a8a" fill-opacity="0.34"/>
<circle cx="414.2" cy="315.6" r="1.45" fill="#1e3a8a" fill-opacity="0.34"/>
<circle cx="389.8" cy="315.4" r="1.45" fill="#1e3a8a" fill-opacity="0.34"/>
<circle cx="392.8" cy="315.2" r="1.45" fill="#1e3a8a" fill-opacity="0.34"/>
<circle cx="395.9" cy="268.1" r="1.45" fill="#1e3a8a" fill-opacity="0.34"/>
<circle cx="398.9" cy="268.0" r="1.45" fill="#1e3a8a" fill-opacity="0.34"/>
<circle cx="402.0" cy="267.9" r="1.45" fill="#1e3a8a" fill-opacity="0.34"/>
<circle cx="405.1" cy="268.3" r="1.45" fill="#1e3a8a" fill-opacity="0.34"/>
<circle cx="408.1" cy="268.1" r="1.45" fill="#1e3a8a" fill-opacity="0.34"/>
<circle cx="411.2" cy="256.3" r="1.45" fill="#1e3a8a" fill-opacity="0.34"/>
<circle cx="414.2" cy="256.0" r="1.45" fill="#1e3a8a" fill-opacity="0.34"/>
<circle cx="389.8" cy="257.4" r="1.45" fill="#1e3a8a" fill-opacity="0.34"/>
<circle cx="392.8" cy="257.5" r="1.45" fill="#1e3a8a" fill-opacity="0.34"/>
<circle cx="395.9" cy="256.9" r="1.45" fill="#1e3a8a" fill-opacity="0.34"/>
<circle cx="398.9" cy="267.8" r="1.45" fill="#1e3a8a" fill-opacity="0.34"/>
<circle cx="402.0" cy="267.7" r="1.45" fill="#1e3a8a" fill-opacity="0.34"/>
<circle cx="405.1" cy="267.1" r="1.45" fill="#1e3a8a" fill-opacity="0.34"/>
<circle cx="408.1" cy="267.4" r="1.45" fill="#1e3a8a" fill-opacity="0.34"/>
<circle cx="411.2" cy="267.7" r="1.45" fill="#1e3a8a" fill-opacity="0.34"/>
<circle cx="414.2" cy="293.7" r="1.45" fill="#1e3a8a" fill-opacity="0.34"/>
<circle cx="389.8" cy="293.5" r="1.45" fill="#1e3a8a" fill-opacity="0.34"/>
<circle cx="392.8" cy="293.5" r="1.45" fill="#1e3a8a" fill-opacity="0.34"/>
<circle cx="395.9" cy="293.3" r="1.45" fill="#1e3a8a" fill-opacity="0.34"/>
<circle cx="398.9" cy="293.6" r="1.45" fill="#1e3a8a" fill-opacity="0.34"/>
<circle cx="402.0" cy="310.8" r="1.45" fill="#1e3a8a" fill-opacity="0.34"/>
<circle cx="405.1" cy="310.9" r="1.45" fill="#1e3a8a" fill-opacity="0.34"/>
<circle cx="408.1" cy="310.1" r="1.45" fill="#1e3a8a" fill-opacity="0.34"/>
<circle cx="411.2" cy="310.0" r="1.45" fill="#1e3a8a" fill-opacity="0.34"/>
<circle cx="414.2" cy="310.1" r="1.45" fill="#1e3a8a" fill-opacity="0.34"/>
<circle cx="389.8" cy="302.1" r="1.45" fill="#1e3a8a" fill-opacity="0.34"/>
<circle cx="392.8" cy="301.9" r="1.45" fill="#1e3a8a" fill-opacity="0.34"/>
<circle cx="395.9" cy="301.3" r="1.45" fill="#1e3a8a" fill-opacity="0.34"/>
<circle cx="398.9" cy="302.2" r="1.45" fill="#1e3a8a" fill-opacity="0.34"/>
<circle cx="402.0" cy="298.8" r="1.45" fill="#1e3a8a" fill-opacity="0.34"/>
<circle cx="405.1" cy="302.5" r="1.45" fill="#1e3a8a" fill-opacity="0.34"/>
<circle cx="408.1" cy="302.0" r="1.45" fill="#1e3a8a" fill-opacity="0.34"/>
<circle cx="411.2" cy="301.9" r="1.45" fill="#1e3a8a" fill-opacity="0.34"/>
<circle cx="414.2" cy="302.4" r="1.45" fill="#1e3a8a" fill-opacity="0.34"/>
<circle cx="389.8" cy="302.4" r="1.45" fill="#1e3a8a" fill-opacity="0.34"/>
<line x1="402.0" y1="256.0" x2="402.0" y2="315.6" stroke="#1e3a8a" stroke-opacity="0.55" stroke-width="1.8"/>
<line x1="389.8" y1="256.0" x2="414.2" y2="256.0" stroke="#1e3a8a" stroke-opacity="0.55" stroke-width="1.8"/>
<line x1="389.8" y1="315.6" x2="414.2" y2="315.6" stroke="#1e3a8a" stroke-opacity="0.55" stroke-width="1.8"/>
<rect x="385.0" y="268.2" width="34.0" height="41.8" rx="2" fill="#1e3a8a" fill-opacity="0.12" stroke="#1e3a8a" stroke-opacity="0.55" stroke-width="1.8"/>
<line x1="385.0" y1="300.4" x2="419.0" y2="300.4" stroke="#1e3a8a" stroke-opacity="0.55" stroke-width="2.6"/>
<text x="425.0" y="304.4" text-anchor="start" font-family="Inter,Segoe UI,Arial,sans-serif" font-size="11" font-weight="700" fill="#111827" stroke="#ffffff" stroke-width="3" paint-order="stroke">999</text>
<circle cx="520.8" cy="272.3" r="1.45" fill="#f97316" fill-opacity="0.46"/>
<circle cx="523.8" cy="257.3" r="1.45" fill="#f97316" fill-opacity="0.46"/>
<circle cx="526.9" cy="251.8" r="1.45" fill="#f97316" fill-opacity="0.46"/>
<circle cx="529.9" cy="273.7" r="1.45" fill="#f97316" fill-opacity="0.46"/>
<circle cx="533.0" cy="229.6" r="1.45" fill="#f97316" fill-opacity="0.46"/>
<circle cx="536.1" cy="221.5" r="1.45" fill="#f97316" fill-opacity="0.46"/>
<circle cx="539.1" cy="231.2" r="1.45" fill="#f97316" fill-opacity="0.46"/>
<circle cx="542.2" cy="250.3" r="1.45" fill="#f97316" fill-opacity="0.46"/>
<circle cx="545.2" cy="265.7" r="1.45" fill="#f97316" fill-opacity="0.46"/>
<circle cx="520.8" cy="255.6" r="1.45" fill="#f97316" fill-opacity="0.46"/>
<circle cx="523.8" cy="256.7" r="1.45" fill="#f97316" fill-opacity="0.46"/>
<line x1="533.0" y1="221.5" x2="533.0" y2="273.7" stroke="#f97316" stroke-opacity="0.82" stroke-width="1.8"/>
<line x1="520.8" y1="221.5" x2="545.2" y2="221.5" stroke="#f97316" stroke-opacity="0.82" stroke-width="1.8"/>
<line x1="520.8" y1="273.7" x2="545.2" y2="273.7" stroke="#f97316" stroke-opacity="0.82" stroke-width="1.8"/>
<rect x="516.0" y="240.7" width="34.0" height="20.8" rx="2" fill="#f97316" fill-opacity="0.18" stroke="#f97316" stroke-opacity="0.82" stroke-width="1.8"/>
<line x1="516.0" y1="255.6" x2="550.0" y2="255.6" stroke="#f97316" stroke-opacity="0.82" stroke-width="2.6"/>
<text x="556.0" y="259.6" text-anchor="start" font-family="Inter,Segoe UI,Arial,sans-serif" font-size="11" font-weight="700" fill="#111827" stroke="#ffffff" stroke-width="3" paint-order="stroke">1.8k</text>
<circle cx="651.8" cy="272.1" r="1.45" fill="#eab308" fill-opacity="0.46"/>
<circle cx="654.8" cy="258.5" r="1.45" fill="#eab308" fill-opacity="0.46"/>
<circle cx="657.9" cy="251.9" r="1.45" fill="#eab308" fill-opacity="0.46"/>
<circle cx="660.9" cy="274.3" r="1.45" fill="#eab308" fill-opacity="0.46"/>
<circle cx="664.0" cy="230.9" r="1.45" fill="#eab308" fill-opacity="0.46"/>
<circle cx="667.1" cy="223.6" r="1.45" fill="#eab308" fill-opacity="0.46"/>
<circle cx="670.1" cy="232.4" r="1.45" fill="#eab308" fill-opacity="0.46"/>
<circle cx="673.2" cy="250.8" r="1.45" fill="#eab308" fill-opacity="0.46"/>
<circle cx="676.2" cy="266.2" r="1.45" fill="#eab308" fill-opacity="0.46"/>
<circle cx="651.8" cy="255.5" r="1.45" fill="#eab308" fill-opacity="0.46"/>
<circle cx="654.8" cy="257.2" r="1.45" fill="#eab308" fill-opacity="0.46"/>
<line x1="664.0" y1="223.6" x2="664.0" y2="274.3" stroke="#eab308" stroke-opacity="0.82" stroke-width="1.8"/>
<line x1="651.8" y1="223.6" x2="676.2" y2="223.6" stroke="#eab308" stroke-opacity="0.82" stroke-width="1.8"/>
<line x1="651.8" y1="274.3" x2="676.2" y2="274.3" stroke="#eab308" stroke-opacity="0.82" stroke-width="1.8"/>
<rect x="647.0" y="241.6" width="34.0" height="20.7" rx="2" fill="#eab308" fill-opacity="0.18" stroke="#eab308" stroke-opacity="0.82" stroke-width="1.8"/>
<line x1="647.0" y1="255.5" x2="681.0" y2="255.5" stroke="#eab308" stroke-opacity="0.82" stroke-width="2.6"/>
<text x="687.0" y="259.5" text-anchor="start" font-family="Inter,Segoe UI,Arial,sans-serif" font-size="11" font-weight="700" fill="#111827" stroke="#ffffff" stroke-width="3" paint-order="stroke">1.8k</text>
<rect x="64" y="433" width="10" height="10" rx="2" fill="#14532d" fill-opacity="0.86"/>
<text x="78" y="442" font-family="Inter,Segoe UI,Arial,sans-serif" font-size="10" fill="#374151">MTPLX 0.3.7</text>
<rect x="199.2" y="433" width="10" height="10" rx="2" fill="#7c3aed" fill-opacity="0.60"/>
<text x="213.2" y="442" font-family="Inter,Segoe UI,Arial,sans-serif" font-size="10" fill="#374151">Light. MTP</text>
<rect x="334.4" y="433" width="10" height="10" rx="2" fill="#1e3a8a" fill-opacity="0.60"/>
<text x="348.4" y="442" font-family="Inter,Segoe UI,Arial,sans-serif" font-size="10" fill="#374151">Light. ngram+MTP</text>
<rect x="469.59999999999997" y="433" width="10" height="10" rx="2" fill="#f97316" fill-opacity="0.86"/>
<text x="483.59999999999997" y="442" font-family="Inter,Segoe UI,Arial,sans-serif" font-size="10" fill="#374151">AX MTP</text>
<rect x="604.8" y="433" width="10" height="10" rx="2" fill="#eab308" fill-opacity="0.86"/>
<text x="618.8" y="442" font-family="Inter,Segoe UI,Arial,sans-serif" font-size="10" fill="#374151">AX MTP+n-gram</text>
</svg>
