<svg xmlns="http://www.w3.org/2000/svg" width="900" height="460" viewBox="0 0 900 460" role="img" aria-labelledby="title desc">
<title>Qwen3.6 27B 4-bit MTP prefill throughput</title>
<desc>Grouped box-and-whisker plot comparing MTPLX 0.3.7, Light. MTP, Light. ngram+MTP, AX MTP, AX MTP+n-gram.</desc>
<rect width="100%" height="100%" fill="#f8fafc"/>
<text x="24" y="24" font-family="Inter,Segoe UI,Arial,sans-serif" font-size="16" font-weight="700" fill="#111827">Qwen3.6 27B 4-bit MTP prefill throughput</text>
<text x="24" y="46" font-family="Inter,Segoe UI,Arial,sans-serif" font-size="11" fill="#4b5563">All suites combined | box=IQR | dots=runs | Lightning ~= TTFT-derived</text>
<rect x="807" y="13" width="59" height="22" rx="11" fill="#eef2ff" stroke="#c7d2fe"/>
<text x="836.5" y="28" text-anchor="middle" font-family="Inter,Segoe UI,Arial,sans-serif" font-size="10" font-weight="700" fill="#3730a3">tok/s</text>
<text x="866" y="52" text-anchor="end" font-family="Inter,Segoe UI,Arial,sans-serif" font-size="10" font-weight="700" fill="#374151">Higher is better</text>
<rect x="64" y="86" width="676" height="268" rx="6" fill="#ffffff" stroke="#dbe3ef"/>
<line x1="64" y1="354.0" x2="740" y2="354.0" stroke="#e5e7eb" stroke-width="1"/>
<text x="56" y="357.0" text-anchor="end" font-family="Inter,Segoe UI,Arial,sans-serif" font-size="11" fill="#6b7280">0.0</text>
<line x1="64" y1="287.0" x2="740" y2="287.0" stroke="#e5e7eb" stroke-width="1"/>
<text x="56" y="290.0" text-anchor="end" font-family="Inter,Segoe UI,Arial,sans-serif" font-size="11" fill="#6b7280">250</text>
<line x1="64" y1="220.0" x2="740" y2="220.0" stroke="#e5e7eb" stroke-width="1"/>
<text x="56" y="223.0" text-anchor="end" font-family="Inter,Segoe UI,Arial,sans-serif" font-size="11" fill="#6b7280">500</text>
<line x1="64" y1="153.0" x2="740" y2="153.0" stroke="#e5e7eb" stroke-width="1"/>
<text x="56" y="156.0" text-anchor="end" font-family="Inter,Segoe UI,Arial,sans-serif" font-size="11" fill="#6b7280">750</text>
<line x1="64" y1="86.0" x2="740" y2="86.0" stroke="#e5e7eb" stroke-width="1"/>
<text x="56" y="89.0" text-anchor="end" font-family="Inter,Segoe UI,Arial,sans-serif" font-size="11" fill="#6b7280">1k</text>
<line x1="64" y1="160.5" x2="740" y2="160.5" stroke="#dc2626" stroke-width="1.2" stroke-dasharray="1 4" stroke-linecap="round"/>
<text x="748" y="155.5" text-anchor="start" font-family="Inter,Segoe UI,Arial,sans-serif" font-size="11" font-weight="700" fill="#dc2626" data-label="highest median">highest: 722</text>
<text x="402.0" y="398" text-anchor="middle" font-family="Inter,Segoe UI,Arial,sans-serif" font-size="11" font-weight="700" fill="#111827">all suites</text>
<circle cx="127.8" cy="175.5" r="1.45" fill="#14532d" fill-opacity="0.46"/>
<circle cx="130.8" cy="182.2" r="1.45" fill="#14532d" fill-opacity="0.46"/>
<circle cx="133.9" cy="180.8" r="1.45" fill="#14532d" fill-opacity="0.46"/>
<circle cx="136.9" cy="179.5" r="1.45" fill="#14532d" fill-opacity="0.46"/>
<circle cx="140.0" cy="180.7" r="1.45" fill="#14532d" fill-opacity="0.46"/>
<circle cx="143.1" cy="151.7" r="1.45" fill="#14532d" fill-opacity="0.46"/>
<circle cx="146.1" cy="156.8" r="1.45" fill="#14532d" fill-opacity="0.46"/>
<circle cx="149.2" cy="144.5" r="1.45" fill="#14532d" fill-opacity="0.46"/>
<circle cx="152.2" cy="155.8" r="1.45" fill="#14532d" fill-opacity="0.46"/>
<circle cx="127.8" cy="156.9" r="1.45" fill="#14532d" fill-opacity="0.46"/>
<circle cx="130.8" cy="147.0" r="1.45" fill="#14532d" fill-opacity="0.46"/>
<circle cx="133.9" cy="152.7" r="1.45" fill="#14532d" fill-opacity="0.46"/>
<circle cx="136.9" cy="151.6" r="1.45" fill="#14532d" fill-opacity="0.46"/>
<circle cx="140.0" cy="149.4" r="1.45" fill="#14532d" fill-opacity="0.46"/>
<circle cx="143.1" cy="147.6" r="1.45" fill="#14532d" fill-opacity="0.46"/>
<circle cx="146.1" cy="190.5" r="1.45" fill="#14532d" fill-opacity="0.46"/>
<circle cx="149.2" cy="190.5" r="1.45" fill="#14532d" fill-opacity="0.46"/>
<circle cx="152.2" cy="191.6" r="1.45" fill="#14532d" fill-opacity="0.46"/>
<circle cx="127.8" cy="194.3" r="1.45" fill="#14532d" fill-opacity="0.46"/>
<circle cx="130.8" cy="192.0" r="1.45" fill="#14532d" fill-opacity="0.46"/>
<circle cx="133.9" cy="138.3" r="1.45" fill="#14532d" fill-opacity="0.46"/>
<circle cx="136.9" cy="141.5" r="1.45" fill="#14532d" fill-opacity="0.46"/>
<circle cx="140.0" cy="140.2" r="1.45" fill="#14532d" fill-opacity="0.46"/>
<circle cx="143.1" cy="140.8" r="1.45" fill="#14532d" fill-opacity="0.46"/>
<circle cx="146.1" cy="138.1" r="1.45" fill="#14532d" fill-opacity="0.46"/>
<circle cx="149.2" cy="133.9" r="1.45" fill="#14532d" fill-opacity="0.46"/>
<circle cx="152.2" cy="133.2" r="1.45" fill="#14532d" fill-opacity="0.46"/>
<circle cx="127.8" cy="131.4" r="1.45" fill="#14532d" fill-opacity="0.46"/>
<circle cx="130.8" cy="132.2" r="1.45" fill="#14532d" fill-opacity="0.46"/>
<circle cx="133.9" cy="137.1" r="1.45" fill="#14532d" fill-opacity="0.46"/>
<circle cx="136.9" cy="142.6" r="1.45" fill="#14532d" fill-opacity="0.46"/>
<circle cx="140.0" cy="141.4" r="1.45" fill="#14532d" fill-opacity="0.46"/>
<circle cx="143.1" cy="139.8" r="1.45" fill="#14532d" fill-opacity="0.46"/>
<circle cx="146.1" cy="142.2" r="1.45" fill="#14532d" fill-opacity="0.46"/>
<circle cx="149.2" cy="141.6" r="1.45" fill="#14532d" fill-opacity="0.46"/>
<circle cx="152.2" cy="156.5" r="1.45" fill="#14532d" fill-opacity="0.46"/>
<circle cx="127.8" cy="159.3" r="1.45" fill="#14532d" fill-opacity="0.46"/>
<circle cx="130.8" cy="160.5" r="1.45" fill="#14532d" fill-opacity="0.46"/>
<circle cx="133.9" cy="161.3" r="1.45" fill="#14532d" fill-opacity="0.46"/>
<circle cx="136.9" cy="161.1" r="1.45" fill="#14532d" fill-opacity="0.46"/>
<circle cx="140.0" cy="179.8" r="1.45" fill="#14532d" fill-opacity="0.46"/>
<circle cx="143.1" cy="180.8" r="1.45" fill="#14532d" fill-opacity="0.46"/>
<circle cx="146.1" cy="181.2" r="1.45" fill="#14532d" fill-opacity="0.46"/>
<circle cx="149.2" cy="180.7" r="1.45" fill="#14532d" fill-opacity="0.46"/>
<circle cx="152.2" cy="181.5" r="1.45" fill="#14532d" fill-opacity="0.46"/>
<circle cx="127.8" cy="170.1" r="1.45" fill="#14532d" fill-opacity="0.46"/>
<circle cx="130.8" cy="168.8" r="1.45" fill="#14532d" fill-opacity="0.46"/>
<circle cx="133.9" cy="170.5" r="1.45" fill="#14532d" fill-opacity="0.46"/>
<circle cx="136.9" cy="167.9" r="1.45" fill="#14532d" fill-opacity="0.46"/>
<circle cx="140.0" cy="168.5" r="1.45" fill="#14532d" fill-opacity="0.46"/>
<circle cx="143.1" cy="170.1" r="1.45" fill="#14532d" fill-opacity="0.46"/>
<circle cx="146.1" cy="169.0" r="1.45" fill="#14532d" fill-opacity="0.46"/>
<circle cx="149.2" cy="168.4" r="1.45" fill="#14532d" fill-opacity="0.46"/>
<circle cx="152.2" cy="165.8" r="1.45" fill="#14532d" fill-opacity="0.46"/>
<circle cx="127.8" cy="169.4" r="1.45" fill="#14532d" fill-opacity="0.46"/>
<line x1="140.0" y1="131.4" x2="140.0" y2="194.3" stroke="#14532d" stroke-opacity="0.82" stroke-width="1.8"/>
<line x1="127.8" y1="131.4" x2="152.2" y2="131.4" stroke="#14532d" stroke-opacity="0.82" stroke-width="1.8"/>
<line x1="127.8" y1="194.3" x2="152.2" y2="194.3" stroke="#14532d" stroke-opacity="0.82" stroke-width="1.8"/>
<rect x="123.0" y="142.4" width="34.0" height="35.1" rx="2" fill="#14532d" fill-opacity="0.18" stroke="#14532d" stroke-opacity="0.82" stroke-width="1.8"/>
<line x1="123.0" y1="160.5" x2="157.0" y2="160.5" stroke="#14532d" stroke-opacity="0.82" stroke-width="2.6"/>
<text x="163.0" y="164.5" text-anchor="start" font-family="Inter,Segoe UI,Arial,sans-serif" font-size="11" font-weight="700" fill="#111827" stroke="#ffffff" stroke-width="3" paint-order="stroke">722</text>
<circle cx="258.8" cy="247.1" r="1.45" fill="#7c3aed" fill-opacity="0.34"/>
<circle cx="261.8" cy="246.3" r="1.45" fill="#7c3aed" fill-opacity="0.34"/>
<circle cx="264.9" cy="246.7" r="1.45" fill="#7c3aed" fill-opacity="0.34"/>
<circle cx="267.9" cy="246.3" r="1.45" fill="#7c3aed" fill-opacity="0.34"/>
<circle cx="271.0" cy="246.9" r="1.45" fill="#7c3aed" fill-opacity="0.34"/>
<circle cx="274.1" cy="227.0" r="1.45" fill="#7c3aed" fill-opacity="0.34"/>
<circle cx="277.1" cy="226.5" r="1.45" fill="#7c3aed" fill-opacity="0.34"/>
<circle cx="280.2" cy="220.0" r="1.45" fill="#7c3aed" fill-opacity="0.34"/>
<circle cx="283.2" cy="225.6" r="1.45" fill="#7c3aed" fill-opacity="0.34"/>
<circle cx="258.8" cy="225.7" r="1.45" fill="#7c3aed" fill-opacity="0.34"/>
<circle cx="261.8" cy="215.8" r="1.45" fill="#7c3aed" fill-opacity="0.34"/>
<circle cx="264.9" cy="216.3" r="1.45" fill="#7c3aed" fill-opacity="0.34"/>
<circle cx="267.9" cy="215.9" r="1.45" fill="#7c3aed" fill-opacity="0.34"/>
<circle cx="271.0" cy="216.5" r="1.45" fill="#7c3aed" fill-opacity="0.34"/>
<circle cx="274.1" cy="215.3" r="1.45" fill="#7c3aed" fill-opacity="0.34"/>
<circle cx="277.1" cy="247.4" r="1.45" fill="#7c3aed" fill-opacity="0.34"/>
<circle cx="280.2" cy="249.6" r="1.45" fill="#7c3aed" fill-opacity="0.34"/>
<circle cx="283.2" cy="249.3" r="1.45" fill="#7c3aed" fill-opacity="0.34"/>
<circle cx="258.8" cy="250.6" r="1.45" fill="#7c3aed" fill-opacity="0.34"/>
<circle cx="261.8" cy="250.1" r="1.45" fill="#7c3aed" fill-opacity="0.34"/>
<circle cx="264.9" cy="183.0" r="1.45" fill="#7c3aed" fill-opacity="0.34"/>
<circle cx="267.9" cy="182.6" r="1.45" fill="#7c3aed" fill-opacity="0.34"/>
<circle cx="271.0" cy="190.3" r="1.45" fill="#7c3aed" fill-opacity="0.34"/>
<circle cx="274.1" cy="182.5" r="1.45" fill="#7c3aed" fill-opacity="0.34"/>
<circle cx="277.1" cy="182.5" r="1.45" fill="#7c3aed" fill-opacity="0.34"/>
<circle cx="280.2" cy="174.0" r="1.45" fill="#7c3aed" fill-opacity="0.34"/>
<circle cx="283.2" cy="181.4" r="1.45" fill="#7c3aed" fill-opacity="0.34"/>
<circle cx="258.8" cy="173.8" r="1.45" fill="#7c3aed" fill-opacity="0.34"/>
<circle cx="261.8" cy="173.0" r="1.45" fill="#7c3aed" fill-opacity="0.34"/>
<circle cx="264.9" cy="173.2" r="1.45" fill="#7c3aed" fill-opacity="0.34"/>
<circle cx="267.9" cy="186.0" r="1.45" fill="#7c3aed" fill-opacity="0.34"/>
<circle cx="271.0" cy="186.3" r="1.45" fill="#7c3aed" fill-opacity="0.34"/>
<circle cx="274.1" cy="186.6" r="1.45" fill="#7c3aed" fill-opacity="0.34"/>
<circle cx="277.1" cy="186.0" r="1.45" fill="#7c3aed" fill-opacity="0.34"/>
<circle cx="280.2" cy="191.9" r="1.45" fill="#7c3aed" fill-opacity="0.34"/>
<circle cx="283.2" cy="218.3" r="1.45" fill="#7c3aed" fill-opacity="0.34"/>
<circle cx="258.8" cy="217.9" r="1.45" fill="#7c3aed" fill-opacity="0.34"/>
<circle cx="261.8" cy="217.6" r="1.45" fill="#7c3aed" fill-opacity="0.34"/>
<circle cx="264.9" cy="218.2" r="1.45" fill="#7c3aed" fill-opacity="0.34"/>
<circle cx="267.9" cy="217.2" r="1.45" fill="#7c3aed" fill-opacity="0.34"/>
<circle cx="271.0" cy="243.5" r="1.45" fill="#7c3aed" fill-opacity="0.34"/>
<circle cx="274.1" cy="243.4" r="1.45" fill="#7c3aed" fill-opacity="0.34"/>
<circle cx="277.1" cy="243.2" r="1.45" fill="#7c3aed" fill-opacity="0.34"/>
<circle cx="280.2" cy="239.3" r="1.45" fill="#7c3aed" fill-opacity="0.34"/>
<circle cx="283.2" cy="245.0" r="1.45" fill="#7c3aed" fill-opacity="0.34"/>
<circle cx="258.8" cy="233.2" r="1.45" fill="#7c3aed" fill-opacity="0.34"/>
<circle cx="261.8" cy="225.3" r="1.45" fill="#7c3aed" fill-opacity="0.34"/>
<circle cx="264.9" cy="224.2" r="1.45" fill="#7c3aed" fill-opacity="0.34"/>
<circle cx="267.9" cy="224.8" r="1.45" fill="#7c3aed" fill-opacity="0.34"/>
<circle cx="271.0" cy="232.5" r="1.45" fill="#7c3aed" fill-opacity="0.34"/>
<circle cx="274.1" cy="232.5" r="1.45" fill="#7c3aed" fill-opacity="0.34"/>
<circle cx="277.1" cy="233.5" r="1.45" fill="#7c3aed" fill-opacity="0.34"/>
<circle cx="280.2" cy="232.9" r="1.45" fill="#7c3aed" fill-opacity="0.34"/>
<circle cx="283.2" cy="223.8" r="1.45" fill="#7c3aed" fill-opacity="0.34"/>
<circle cx="258.8" cy="232.9" r="1.45" fill="#7c3aed" fill-opacity="0.34"/>
<line x1="271.0" y1="173.0" x2="271.0" y2="250.6" stroke="#7c3aed" stroke-opacity="0.55" stroke-width="1.8"/>
<line x1="258.8" y1="173.0" x2="283.2" y2="173.0" stroke="#7c3aed" stroke-opacity="0.55" stroke-width="1.8"/>
<line x1="258.8" y1="250.6" x2="283.2" y2="250.6" stroke="#7c3aed" stroke-opacity="0.55" stroke-width="1.8"/>
<rect x="254.0" y="191.1" width="34.0" height="50.2" rx="2" fill="#7c3aed" fill-opacity="0.12" stroke="#7c3aed" stroke-opacity="0.55" stroke-width="1.8"/>
<line x1="254.0" y1="224.2" x2="288.0" y2="224.2" stroke="#7c3aed" stroke-opacity="0.55" stroke-width="2.6"/>
<text x="294.0" y="228.2" text-anchor="start" font-family="Inter,Segoe UI,Arial,sans-serif" font-size="11" font-weight="700" fill="#111827" stroke="#ffffff" stroke-width="3" paint-order="stroke">484</text>
<circle cx="389.8" cy="249.7" r="1.45" fill="#1e3a8a" fill-opacity="0.34"/>
<circle cx="392.8" cy="249.0" r="1.45" fill="#1e3a8a" fill-opacity="0.34"/>
<circle cx="395.9" cy="249.6" r="1.45" fill="#1e3a8a" fill-opacity="0.34"/>
<circle cx="398.9" cy="249.7" r="1.45" fill="#1e3a8a" fill-opacity="0.34"/>
<circle cx="402.0" cy="249.2" r="1.45" fill="#1e3a8a" fill-opacity="0.34"/>
<circle cx="405.1" cy="229.1" r="1.45" fill="#1e3a8a" fill-opacity="0.34"/>
<circle cx="408.1" cy="231.9" r="1.45" fill="#1e3a8a" fill-opacity="0.34"/>
<circle cx="411.2" cy="231.3" r="1.45" fill="#1e3a8a" fill-opacity="0.34"/>
<circle cx="414.2" cy="227.7" r="1.45" fill="#1e3a8a" fill-opacity="0.34"/>
<circle cx="389.8" cy="231.8" r="1.45" fill="#1e3a8a" fill-opacity="0.34"/>
<circle cx="392.8" cy="218.2" r="1.45" fill="#1e3a8a" fill-opacity="0.34"/>
<circle cx="395.9" cy="218.6" r="1.45" fill="#1e3a8a" fill-opacity="0.34"/>
<circle cx="398.9" cy="219.4" r="1.45" fill="#1e3a8a" fill-opacity="0.34"/>
<circle cx="402.0" cy="219.1" r="1.45" fill="#1e3a8a" fill-opacity="0.34"/>
<circle cx="405.1" cy="219.2" r="1.45" fill="#1e3a8a" fill-opacity="0.34"/>
<circle cx="408.1" cy="252.2" r="1.45" fill="#1e3a8a" fill-opacity="0.34"/>
<circle cx="411.2" cy="252.6" r="1.45" fill="#1e3a8a" fill-opacity="0.34"/>
<circle cx="414.2" cy="252.0" r="1.45" fill="#1e3a8a" fill-opacity="0.34"/>
<circle cx="389.8" cy="252.0" r="1.45" fill="#1e3a8a" fill-opacity="0.34"/>
<circle cx="392.8" cy="252.2" r="1.45" fill="#1e3a8a" fill-opacity="0.34"/>
<circle cx="395.9" cy="191.2" r="1.45" fill="#1e3a8a" fill-opacity="0.34"/>
<circle cx="398.9" cy="191.2" r="1.45" fill="#1e3a8a" fill-opacity="0.34"/>
<circle cx="402.0" cy="184.4" r="1.45" fill="#1e3a8a" fill-opacity="0.34"/>
<circle cx="405.1" cy="191.7" r="1.45" fill="#1e3a8a" fill-opacity="0.34"/>
<circle cx="408.1" cy="190.9" r="1.45" fill="#1e3a8a" fill-opacity="0.34"/>
<circle cx="411.2" cy="174.2" r="1.45" fill="#1e3a8a" fill-opacity="0.34"/>
<circle cx="414.2" cy="174.5" r="1.45" fill="#1e3a8a" fill-opacity="0.34"/>
<circle cx="389.8" cy="174.5" r="1.45" fill="#1e3a8a" fill-opacity="0.34"/>
<circle cx="392.8" cy="174.3" r="1.45" fill="#1e3a8a" fill-opacity="0.34"/>
<circle cx="395.9" cy="174.3" r="1.45" fill="#1e3a8a" fill-opacity="0.34"/>
<circle cx="398.9" cy="206.3" r="1.45" fill="#1e3a8a" fill-opacity="0.34"/>
<circle cx="402.0" cy="188.5" r="1.45" fill="#1e3a8a" fill-opacity="0.34"/>
<circle cx="405.1" cy="205.8" r="1.45" fill="#1e3a8a" fill-opacity="0.34"/>
<circle cx="408.1" cy="189.1" r="1.45" fill="#1e3a8a" fill-opacity="0.34"/>
<circle cx="411.2" cy="189.0" r="1.45" fill="#1e3a8a" fill-opacity="0.34"/>
<circle cx="414.2" cy="220.2" r="1.45" fill="#1e3a8a" fill-opacity="0.34"/>
<circle cx="389.8" cy="220.7" r="1.45" fill="#1e3a8a" fill-opacity="0.34"/>
<circle cx="392.8" cy="220.5" r="1.45" fill="#1e3a8a" fill-opacity="0.34"/>
<circle cx="395.9" cy="219.9" r="1.45" fill="#1e3a8a" fill-opacity="0.34"/>
<circle cx="398.9" cy="220.0" r="1.45" fill="#1e3a8a" fill-opacity="0.34"/>
<circle cx="402.0" cy="241.9" r="1.45" fill="#1e3a8a" fill-opacity="0.34"/>
<circle cx="405.1" cy="248.3" r="1.45" fill="#1e3a8a" fill-opacity="0.34"/>
<circle cx="408.1" cy="248.3" r="1.45" fill="#1e3a8a" fill-opacity="0.34"/>
<circle cx="411.2" cy="249.3" r="1.45" fill="#1e3a8a" fill-opacity="0.34"/>
<circle cx="414.2" cy="241.1" r="1.45" fill="#1e3a8a" fill-opacity="0.34"/>
<circle cx="389.8" cy="235.0" r="1.45" fill="#1e3a8a" fill-opacity="0.34"/>
<circle cx="392.8" cy="235.3" r="1.45" fill="#1e3a8a" fill-opacity="0.34"/>
<circle cx="395.9" cy="235.6" r="1.45" fill="#1e3a8a" fill-opacity="0.34"/>
<circle cx="398.9" cy="234.1" r="1.45" fill="#1e3a8a" fill-opacity="0.34"/>
<circle cx="402.0" cy="235.4" r="1.45" fill="#1e3a8a" fill-opacity="0.34"/>
<circle cx="405.1" cy="227.3" r="1.45" fill="#1e3a8a" fill-opacity="0.34"/>
<circle cx="408.1" cy="235.3" r="1.45" fill="#1e3a8a" fill-opacity="0.34"/>
<circle cx="411.2" cy="235.2" r="1.45" fill="#1e3a8a" fill-opacity="0.34"/>
<circle cx="414.2" cy="235.2" r="1.45" fill="#1e3a8a" fill-opacity="0.34"/>
<circle cx="389.8" cy="235.4" r="1.45" fill="#1e3a8a" fill-opacity="0.34"/>
<line x1="402.0" y1="174.2" x2="402.0" y2="252.6" stroke="#1e3a8a" stroke-opacity="0.55" stroke-width="1.8"/>
<line x1="389.8" y1="174.2" x2="414.2" y2="174.2" stroke="#1e3a8a" stroke-opacity="0.55" stroke-width="1.8"/>
<line x1="389.8" y1="252.6" x2="414.2" y2="252.6" stroke="#1e3a8a" stroke-opacity="0.55" stroke-width="1.8"/>
<rect x="385.0" y="206.1" width="34.0" height="35.4" rx="2" fill="#1e3a8a" fill-opacity="0.12" stroke="#1e3a8a" stroke-opacity="0.55" stroke-width="1.8"/>
<line x1="385.0" y1="229.1" x2="419.0" y2="229.1" stroke="#1e3a8a" stroke-opacity="0.55" stroke-width="2.6"/>
<text x="425.0" y="233.1" text-anchor="start" font-family="Inter,Segoe UI,Arial,sans-serif" font-size="11" font-weight="700" fill="#111827" stroke="#ffffff" stroke-width="3" paint-order="stroke">466</text>
<circle cx="520.8" cy="192.3" r="1.45" fill="#f97316" fill-opacity="0.46"/>
<circle cx="523.8" cy="172.4" r="1.45" fill="#f97316" fill-opacity="0.46"/>
<circle cx="526.9" cy="168.7" r="1.45" fill="#f97316" fill-opacity="0.46"/>
<circle cx="529.9" cy="194.1" r="1.45" fill="#f97316" fill-opacity="0.46"/>
<circle cx="533.0" cy="168.3" r="1.45" fill="#f97316" fill-opacity="0.46"/>
<circle cx="536.1" cy="162.6" r="1.45" fill="#f97316" fill-opacity="0.46"/>
<circle cx="539.1" cy="168.7" r="1.45" fill="#f97316" fill-opacity="0.46"/>
<circle cx="542.2" cy="178.9" r="1.45" fill="#f97316" fill-opacity="0.46"/>
<circle cx="545.2" cy="186.4" r="1.45" fill="#f97316" fill-opacity="0.46"/>
<circle cx="520.8" cy="179.5" r="1.45" fill="#f97316" fill-opacity="0.46"/>
<circle cx="523.8" cy="179.5" r="1.45" fill="#f97316" fill-opacity="0.46"/>
<line x1="533.0" y1="162.6" x2="533.0" y2="194.1" stroke="#f97316" stroke-opacity="0.82" stroke-width="1.8"/>
<line x1="520.8" y1="162.6" x2="545.2" y2="162.6" stroke="#f97316" stroke-opacity="0.82" stroke-width="1.8"/>
<line x1="520.8" y1="194.1" x2="545.2" y2="194.1" stroke="#f97316" stroke-opacity="0.82" stroke-width="1.8"/>
<rect x="516.0" y="168.7" width="34.0" height="14.3" rx="2" fill="#f97316" fill-opacity="0.18" stroke="#f97316" stroke-opacity="0.82" stroke-width="1.8"/>
<line x1="516.0" y1="178.9" x2="550.0" y2="178.9" stroke="#f97316" stroke-opacity="0.82" stroke-width="2.6"/>
<text x="556.0" y="182.9" text-anchor="start" font-family="Inter,Segoe UI,Arial,sans-serif" font-size="11" font-weight="700" fill="#111827" stroke="#ffffff" stroke-width="3" paint-order="stroke">653</text>
<circle cx="651.8" cy="190.4" r="1.45" fill="#eab308" fill-opacity="0.46"/>
<circle cx="654.8" cy="170.1" r="1.45" fill="#eab308" fill-opacity="0.46"/>
<circle cx="657.9" cy="168.6" r="1.45" fill="#eab308" fill-opacity="0.46"/>
<circle cx="660.9" cy="193.8" r="1.45" fill="#eab308" fill-opacity="0.46"/>
<circle cx="664.0" cy="167.8" r="1.45" fill="#eab308" fill-opacity="0.46"/>
<circle cx="667.1" cy="162.4" r="1.45" fill="#eab308" fill-opacity="0.46"/>
<circle cx="670.1" cy="168.1" r="1.45" fill="#eab308" fill-opacity="0.46"/>
<circle cx="673.2" cy="178.5" r="1.45" fill="#eab308" fill-opacity="0.46"/>
<circle cx="676.2" cy="186.9" r="1.45" fill="#eab308" fill-opacity="0.46"/>
<circle cx="651.8" cy="179.9" r="1.45" fill="#eab308" fill-opacity="0.46"/>
<circle cx="654.8" cy="180.3" r="1.45" fill="#eab308" fill-opacity="0.46"/>
<line x1="664.0" y1="162.4" x2="664.0" y2="193.8" stroke="#eab308" stroke-opacity="0.82" stroke-width="1.8"/>
<line x1="651.8" y1="162.4" x2="676.2" y2="162.4" stroke="#eab308" stroke-opacity="0.82" stroke-width="1.8"/>
<line x1="651.8" y1="193.8" x2="676.2" y2="193.8" stroke="#eab308" stroke-opacity="0.82" stroke-width="1.8"/>
<rect x="647.0" y="168.4" width="34.0" height="15.3" rx="2" fill="#eab308" fill-opacity="0.18" stroke="#eab308" stroke-opacity="0.82" stroke-width="1.8"/>
<line x1="647.0" y1="178.5" x2="681.0" y2="178.5" stroke="#eab308" stroke-opacity="0.82" stroke-width="2.6"/>
<text x="687.0" y="182.5" text-anchor="start" font-family="Inter,Segoe UI,Arial,sans-serif" font-size="11" font-weight="700" fill="#111827" stroke="#ffffff" stroke-width="3" paint-order="stroke">655</text>
<rect x="64" y="433" width="10" height="10" rx="2" fill="#14532d" fill-opacity="0.86"/>
<text x="78" y="442" font-family="Inter,Segoe UI,Arial,sans-serif" font-size="10" fill="#374151">MTPLX 0.3.7</text>
<rect x="199.2" y="433" width="10" height="10" rx="2" fill="#7c3aed" fill-opacity="0.60"/>
<text x="213.2" y="442" font-family="Inter,Segoe UI,Arial,sans-serif" font-size="10" fill="#374151">Light. MTP</text>
<rect x="334.4" y="433" width="10" height="10" rx="2" fill="#1e3a8a" fill-opacity="0.60"/>
<text x="348.4" y="442" font-family="Inter,Segoe UI,Arial,sans-serif" font-size="10" fill="#374151">Light. ngram+MTP</text>
<rect x="469.59999999999997" y="433" width="10" height="10" rx="2" fill="#f97316" fill-opacity="0.86"/>
<text x="483.59999999999997" y="442" font-family="Inter,Segoe UI,Arial,sans-serif" font-size="10" fill="#374151">AX MTP</text>
<rect x="604.8" y="433" width="10" height="10" rx="2" fill="#eab308" fill-opacity="0.86"/>
<text x="618.8" y="442" font-family="Inter,Segoe UI,Arial,sans-serif" font-size="10" fill="#374151">AX MTP+n-gram</text>
</svg>
