<svg xmlns="http://www.w3.org/2000/svg" width="900" height="460" viewBox="0 0 900 460" role="img" aria-labelledby="title desc">
<title>MTP prefill throughput</title>
<desc>Grouped box-and-whisker plot comparing MTPLX 0.3.7, AX Engine v5.2.2.</desc>
<rect width="100%" height="100%" fill="#f8fafc"/>
<text x="24" y="24" font-family="Inter,Segoe UI,Arial,sans-serif" font-size="16" font-weight="700" fill="#111827">MTP prefill throughput</text>
<text x="24" y="46" font-family="Inter,Segoe UI,Arial,sans-serif" font-size="11" fill="#4b5563">All suites combined per model | box=IQR | dots=runs</text>
<text x="24" y="62" font-family="Inter,Segoe UI,Arial,sans-serif" font-size="10" fill="#6b7280">MTPLX 0.3.7 · AX Engine v5.2.2</text>
<rect x="807" y="13" width="59" height="22" rx="11" fill="#eef2ff" stroke="#c7d2fe"/>
<text x="836.5" y="28" text-anchor="middle" font-family="Inter,Segoe UI,Arial,sans-serif" font-size="10" font-weight="700" fill="#3730a3">tok/s</text>
<text x="866" y="52" text-anchor="end" font-family="Inter,Segoe UI,Arial,sans-serif" font-size="10" font-weight="700" fill="#374151">Higher is better</text>
<rect x="64" y="86" width="676" height="268" rx="6" fill="#ffffff" stroke="#dbe3ef"/>
<line x1="64" y1="354.0" x2="740" y2="354.0" stroke="#e5e7eb" stroke-width="1"/>
<text x="56" y="357.0" text-anchor="end" font-family="Inter,Segoe UI,Arial,sans-serif" font-size="11" fill="#6b7280">0.0</text>
<line x1="64" y1="287.0" x2="740" y2="287.0" stroke="#e5e7eb" stroke-width="1"/>
<text x="56" y="290.0" text-anchor="end" font-family="Inter,Segoe UI,Arial,sans-serif" font-size="11" fill="#6b7280">1.25k</text>
<line x1="64" y1="220.0" x2="740" y2="220.0" stroke="#e5e7eb" stroke-width="1"/>
<text x="56" y="223.0" text-anchor="end" font-family="Inter,Segoe UI,Arial,sans-serif" font-size="11" fill="#6b7280">2.5k</text>
<line x1="64" y1="153.0" x2="740" y2="153.0" stroke="#e5e7eb" stroke-width="1"/>
<text x="56" y="156.0" text-anchor="end" font-family="Inter,Segoe UI,Arial,sans-serif" font-size="11" fill="#6b7280">3.75k</text>
<line x1="64" y1="86.0" x2="740" y2="86.0" stroke="#e5e7eb" stroke-width="1"/>
<text x="56" y="89.0" text-anchor="end" font-family="Inter,Segoe UI,Arial,sans-serif" font-size="11" fill="#6b7280">5k</text>
<line x1="64" y1="248.4" x2="740" y2="248.4" stroke="#dc2626" stroke-width="1.2" stroke-dasharray="1 4" stroke-linecap="round"/>
<text x="748" y="243.4" text-anchor="start" font-family="Inter,Segoe UI,Arial,sans-serif" font-size="11" font-weight="700" fill="#dc2626" data-label="highest median">highest: 2.0k</text>
<text x="233.0" y="398" text-anchor="middle" font-family="Inter,Segoe UI,Arial,sans-serif" font-size="11" font-weight="700" fill="#111827">27B</text>
<circle cx="95.8" cy="318.6" r="1.45" fill="#14532d" fill-opacity="0.46"/>
<circle cx="98.8" cy="318.7" r="1.45" fill="#14532d" fill-opacity="0.46"/>
<circle cx="101.9" cy="318.6" r="1.45" fill="#14532d" fill-opacity="0.46"/>
<circle cx="104.9" cy="318.8" r="1.45" fill="#14532d" fill-opacity="0.46"/>
<circle cx="108.0" cy="318.4" r="1.45" fill="#14532d" fill-opacity="0.46"/>
<circle cx="111.1" cy="312.4" r="1.45" fill="#14532d" fill-opacity="0.46"/>
<circle cx="114.1" cy="312.5" r="1.45" fill="#14532d" fill-opacity="0.46"/>
<circle cx="117.2" cy="312.4" r="1.45" fill="#14532d" fill-opacity="0.46"/>
<circle cx="120.2" cy="312.4" r="1.45" fill="#14532d" fill-opacity="0.46"/>
<circle cx="95.8" cy="312.3" r="1.45" fill="#14532d" fill-opacity="0.46"/>
<circle cx="98.8" cy="311.2" r="1.45" fill="#14532d" fill-opacity="0.46"/>
<circle cx="101.9" cy="311.2" r="1.45" fill="#14532d" fill-opacity="0.46"/>
<circle cx="104.9" cy="311.1" r="1.45" fill="#14532d" fill-opacity="0.46"/>
<circle cx="108.0" cy="311.3" r="1.45" fill="#14532d" fill-opacity="0.46"/>
<circle cx="111.1" cy="311.2" r="1.45" fill="#14532d" fill-opacity="0.46"/>
<circle cx="114.1" cy="319.3" r="1.45" fill="#14532d" fill-opacity="0.46"/>
<circle cx="117.2" cy="319.6" r="1.45" fill="#14532d" fill-opacity="0.46"/>
<circle cx="120.2" cy="319.4" r="1.45" fill="#14532d" fill-opacity="0.46"/>
<circle cx="95.8" cy="319.5" r="1.45" fill="#14532d" fill-opacity="0.46"/>
<circle cx="98.8" cy="319.6" r="1.45" fill="#14532d" fill-opacity="0.46"/>
<circle cx="101.9" cy="310.0" r="1.45" fill="#14532d" fill-opacity="0.46"/>
<circle cx="104.9" cy="309.9" r="1.45" fill="#14532d" fill-opacity="0.46"/>
<circle cx="108.0" cy="310.1" r="1.45" fill="#14532d" fill-opacity="0.46"/>
<circle cx="111.1" cy="309.8" r="1.45" fill="#14532d" fill-opacity="0.46"/>
<circle cx="114.1" cy="310.4" r="1.45" fill="#14532d" fill-opacity="0.46"/>
<circle cx="117.2" cy="309.1" r="1.45" fill="#14532d" fill-opacity="0.46"/>
<circle cx="120.2" cy="308.9" r="1.45" fill="#14532d" fill-opacity="0.46"/>
<circle cx="95.8" cy="309.1" r="1.45" fill="#14532d" fill-opacity="0.46"/>
<circle cx="98.8" cy="309.0" r="1.45" fill="#14532d" fill-opacity="0.46"/>
<circle cx="101.9" cy="309.0" r="1.45" fill="#14532d" fill-opacity="0.46"/>
<circle cx="104.9" cy="310.4" r="1.45" fill="#14532d" fill-opacity="0.46"/>
<circle cx="108.0" cy="310.2" r="1.45" fill="#14532d" fill-opacity="0.46"/>
<circle cx="111.1" cy="310.2" r="1.45" fill="#14532d" fill-opacity="0.46"/>
<circle cx="114.1" cy="310.2" r="1.45" fill="#14532d" fill-opacity="0.46"/>
<circle cx="117.2" cy="311.3" r="1.45" fill="#14532d" fill-opacity="0.46"/>
<circle cx="120.2" cy="314.6" r="1.45" fill="#14532d" fill-opacity="0.46"/>
<circle cx="95.8" cy="316.1" r="1.45" fill="#14532d" fill-opacity="0.46"/>
<circle cx="98.8" cy="316.4" r="1.45" fill="#14532d" fill-opacity="0.46"/>
<circle cx="101.9" cy="314.5" r="1.45" fill="#14532d" fill-opacity="0.46"/>
<circle cx="104.9" cy="314.3" r="1.45" fill="#14532d" fill-opacity="0.46"/>
<circle cx="108.0" cy="319.2" r="1.45" fill="#14532d" fill-opacity="0.46"/>
<circle cx="111.1" cy="319.2" r="1.45" fill="#14532d" fill-opacity="0.46"/>
<circle cx="114.1" cy="317.9" r="1.45" fill="#14532d" fill-opacity="0.46"/>
<circle cx="117.2" cy="318.8" r="1.45" fill="#14532d" fill-opacity="0.46"/>
<circle cx="120.2" cy="318.2" r="1.45" fill="#14532d" fill-opacity="0.46"/>
<circle cx="95.8" cy="316.6" r="1.45" fill="#14532d" fill-opacity="0.46"/>
<circle cx="98.8" cy="315.6" r="1.45" fill="#14532d" fill-opacity="0.46"/>
<circle cx="101.9" cy="316.1" r="1.45" fill="#14532d" fill-opacity="0.46"/>
<circle cx="104.9" cy="316.1" r="1.45" fill="#14532d" fill-opacity="0.46"/>
<circle cx="108.0" cy="316.1" r="1.45" fill="#14532d" fill-opacity="0.46"/>
<circle cx="111.1" cy="316.2" r="1.45" fill="#14532d" fill-opacity="0.46"/>
<circle cx="114.1" cy="316.1" r="1.45" fill="#14532d" fill-opacity="0.46"/>
<circle cx="117.2" cy="316.2" r="1.45" fill="#14532d" fill-opacity="0.46"/>
<circle cx="120.2" cy="315.9" r="1.45" fill="#14532d" fill-opacity="0.46"/>
<circle cx="95.8" cy="316.1" r="1.45" fill="#14532d" fill-opacity="0.46"/>
<line x1="108.0" y1="308.9" x2="108.0" y2="319.6" stroke="#14532d" stroke-opacity="0.82" stroke-width="1.8"/>
<line x1="95.8" y1="308.9" x2="120.2" y2="308.9" stroke="#14532d" stroke-opacity="0.82" stroke-width="1.8"/>
<line x1="95.8" y1="319.6" x2="120.2" y2="319.6" stroke="#14532d" stroke-opacity="0.82" stroke-width="1.8"/>
<rect x="91.0" y="310.8" width="34.0" height="7.3" rx="2" fill="#14532d" fill-opacity="0.18" stroke="#14532d" stroke-opacity="0.82" stroke-width="1.8"/>
<line x1="91.0" y1="314.6" x2="125.0" y2="314.6" stroke="#14532d" stroke-opacity="0.82" stroke-width="2.6"/>
<text x="131.0" y="318.6" text-anchor="start" font-family="Inter,Segoe UI,Arial,sans-serif" font-size="11" font-weight="700" fill="#111827" stroke="#ffffff" stroke-width="3" paint-order="stroke">736</text>
<circle cx="345.8" cy="320.8" r="1.45" fill="#f97316" fill-opacity="0.46"/>
<circle cx="348.8" cy="315.1" r="1.45" fill="#f97316" fill-opacity="0.46"/>
<circle cx="351.9" cy="313.8" r="1.45" fill="#f97316" fill-opacity="0.46"/>
<circle cx="354.9" cy="321.6" r="1.45" fill="#f97316" fill-opacity="0.46"/>
<circle cx="358.0" cy="311.9" r="1.45" fill="#f97316" fill-opacity="0.46"/>
<circle cx="361.1" cy="311.0" r="1.45" fill="#f97316" fill-opacity="0.46"/>
<circle cx="364.1" cy="312.4" r="1.45" fill="#f97316" fill-opacity="0.46"/>
<circle cx="367.2" cy="316.2" r="1.45" fill="#f97316" fill-opacity="0.46"/>
<circle cx="370.2" cy="320.1" r="1.45" fill="#f97316" fill-opacity="0.46"/>
<circle cx="345.8" cy="317.5" r="1.45" fill="#f97316" fill-opacity="0.46"/>
<circle cx="348.8" cy="317.5" r="1.45" fill="#f97316" fill-opacity="0.46"/>
<line x1="358.0" y1="311.0" x2="358.0" y2="321.6" stroke="#f97316" stroke-opacity="0.82" stroke-width="1.8"/>
<line x1="345.8" y1="311.0" x2="370.2" y2="311.0" stroke="#f97316" stroke-opacity="0.82" stroke-width="1.8"/>
<line x1="345.8" y1="321.6" x2="370.2" y2="321.6" stroke="#f97316" stroke-opacity="0.82" stroke-width="1.8"/>
<rect x="341.0" y="313.1" width="34.0" height="5.7" rx="2" fill="#f97316" fill-opacity="0.18" stroke="#f97316" stroke-opacity="0.82" stroke-width="1.8"/>
<line x1="341.0" y1="316.2" x2="375.0" y2="316.2" stroke="#f97316" stroke-opacity="0.82" stroke-width="2.6"/>
<text x="381.0" y="320.2" text-anchor="start" font-family="Inter,Segoe UI,Arial,sans-serif" font-size="11" font-weight="700" fill="#111827" stroke="#ffffff" stroke-width="3" paint-order="stroke">706</text>
<text x="571.0" y="398" text-anchor="middle" font-family="Inter,Segoe UI,Arial,sans-serif" font-size="11" font-weight="700" fill="#111827">35B-A3B</text>
<circle cx="433.8" cy="277.4" r="1.45" fill="#14532d" fill-opacity="0.46"/>
<circle cx="436.8" cy="277.4" r="1.45" fill="#14532d" fill-opacity="0.46"/>
<circle cx="439.9" cy="277.6" r="1.45" fill="#14532d" fill-opacity="0.46"/>
<circle cx="442.9" cy="277.8" r="1.45" fill="#14532d" fill-opacity="0.46"/>
<circle cx="446.0" cy="279.3" r="1.45" fill="#14532d" fill-opacity="0.46"/>
<circle cx="449.1" cy="258.7" r="1.45" fill="#14532d" fill-opacity="0.46"/>
<circle cx="452.1" cy="256.0" r="1.45" fill="#14532d" fill-opacity="0.46"/>
<circle cx="455.2" cy="255.8" r="1.45" fill="#14532d" fill-opacity="0.46"/>
<circle cx="458.2" cy="256.1" r="1.45" fill="#14532d" fill-opacity="0.46"/>
<circle cx="433.8" cy="256.2" r="1.45" fill="#14532d" fill-opacity="0.46"/>
<circle cx="436.8" cy="247.7" r="1.45" fill="#14532d" fill-opacity="0.46"/>
<circle cx="439.9" cy="248.1" r="1.45" fill="#14532d" fill-opacity="0.46"/>
<circle cx="442.9" cy="247.4" r="1.45" fill="#14532d" fill-opacity="0.46"/>
<circle cx="446.0" cy="246.9" r="1.45" fill="#14532d" fill-opacity="0.46"/>
<circle cx="449.1" cy="246.9" r="1.45" fill="#14532d" fill-opacity="0.46"/>
<circle cx="452.1" cy="277.0" r="1.45" fill="#14532d" fill-opacity="0.46"/>
<circle cx="455.2" cy="277.5" r="1.45" fill="#14532d" fill-opacity="0.46"/>
<circle cx="458.2" cy="277.1" r="1.45" fill="#14532d" fill-opacity="0.46"/>
<circle cx="433.8" cy="277.0" r="1.45" fill="#14532d" fill-opacity="0.46"/>
<circle cx="436.8" cy="277.8" r="1.45" fill="#14532d" fill-opacity="0.46"/>
<circle cx="439.9" cy="217.5" r="1.45" fill="#14532d" fill-opacity="0.46"/>
<circle cx="442.9" cy="219.2" r="1.45" fill="#14532d" fill-opacity="0.46"/>
<circle cx="446.0" cy="218.9" r="1.45" fill="#14532d" fill-opacity="0.46"/>
<circle cx="449.1" cy="219.0" r="1.45" fill="#14532d" fill-opacity="0.46"/>
<circle cx="452.1" cy="218.6" r="1.45" fill="#14532d" fill-opacity="0.46"/>
<circle cx="455.2" cy="203.1" r="1.45" fill="#14532d" fill-opacity="0.46"/>
<circle cx="458.2" cy="206.2" r="1.45" fill="#14532d" fill-opacity="0.46"/>
<circle cx="433.8" cy="205.1" r="1.45" fill="#14532d" fill-opacity="0.46"/>
<circle cx="436.8" cy="204.0" r="1.45" fill="#14532d" fill-opacity="0.46"/>
<circle cx="439.9" cy="208.5" r="1.45" fill="#14532d" fill-opacity="0.46"/>
<circle cx="442.9" cy="222.9" r="1.45" fill="#14532d" fill-opacity="0.46"/>
<circle cx="446.0" cy="219.7" r="1.45" fill="#14532d" fill-opacity="0.46"/>
<circle cx="449.1" cy="226.4" r="1.45" fill="#14532d" fill-opacity="0.46"/>
<circle cx="452.1" cy="224.6" r="1.45" fill="#14532d" fill-opacity="0.46"/>
<circle cx="455.2" cy="221.3" r="1.45" fill="#14532d" fill-opacity="0.46"/>
<circle cx="458.2" cy="252.4" r="1.45" fill="#14532d" fill-opacity="0.46"/>
<circle cx="433.8" cy="253.9" r="1.45" fill="#14532d" fill-opacity="0.46"/>
<circle cx="436.8" cy="255.9" r="1.45" fill="#14532d" fill-opacity="0.46"/>
<circle cx="439.9" cy="251.8" r="1.45" fill="#14532d" fill-opacity="0.46"/>
<circle cx="442.9" cy="255.2" r="1.45" fill="#14532d" fill-opacity="0.46"/>
<circle cx="446.0" cy="279.0" r="1.45" fill="#14532d" fill-opacity="0.46"/>
<circle cx="449.1" cy="280.6" r="1.45" fill="#14532d" fill-opacity="0.46"/>
<circle cx="452.1" cy="281.5" r="1.45" fill="#14532d" fill-opacity="0.46"/>
<circle cx="455.2" cy="280.6" r="1.45" fill="#14532d" fill-opacity="0.46"/>
<circle cx="458.2" cy="280.2" r="1.45" fill="#14532d" fill-opacity="0.46"/>
<circle cx="433.8" cy="267.6" r="1.45" fill="#14532d" fill-opacity="0.46"/>
<circle cx="436.8" cy="266.2" r="1.45" fill="#14532d" fill-opacity="0.46"/>
<circle cx="439.9" cy="266.0" r="1.45" fill="#14532d" fill-opacity="0.46"/>
<circle cx="442.9" cy="265.1" r="1.45" fill="#14532d" fill-opacity="0.46"/>
<circle cx="446.0" cy="266.0" r="1.45" fill="#14532d" fill-opacity="0.46"/>
<circle cx="449.1" cy="266.3" r="1.45" fill="#14532d" fill-opacity="0.46"/>
<circle cx="452.1" cy="266.8" r="1.45" fill="#14532d" fill-opacity="0.46"/>
<circle cx="455.2" cy="268.7" r="1.45" fill="#14532d" fill-opacity="0.46"/>
<circle cx="458.2" cy="266.7" r="1.45" fill="#14532d" fill-opacity="0.46"/>
<circle cx="433.8" cy="267.5" r="1.45" fill="#14532d" fill-opacity="0.46"/>
<line x1="446.0" y1="203.1" x2="446.0" y2="281.5" stroke="#14532d" stroke-opacity="0.82" stroke-width="1.8"/>
<line x1="433.8" y1="203.1" x2="458.2" y2="203.1" stroke="#14532d" stroke-opacity="0.82" stroke-width="1.8"/>
<line x1="433.8" y1="281.5" x2="458.2" y2="281.5" stroke="#14532d" stroke-opacity="0.82" stroke-width="1.8"/>
<rect x="429.0" y="225.5" width="34.0" height="51.5" rx="2" fill="#14532d" fill-opacity="0.18" stroke="#14532d" stroke-opacity="0.82" stroke-width="1.8"/>
<line x1="429.0" y1="256.1" x2="463.0" y2="256.1" stroke="#14532d" stroke-opacity="0.82" stroke-width="2.6"/>
<text x="469.0" y="260.1" text-anchor="start" font-family="Inter,Segoe UI,Arial,sans-serif" font-size="11" font-weight="700" fill="#111827" stroke="#ffffff" stroke-width="3" paint-order="stroke">1.8k</text>
<circle cx="683.8" cy="268.1" r="1.45" fill="#f97316" fill-opacity="0.46"/>
<circle cx="686.8" cy="250.5" r="1.45" fill="#f97316" fill-opacity="0.46"/>
<circle cx="689.9" cy="242.1" r="1.45" fill="#f97316" fill-opacity="0.46"/>
<circle cx="692.9" cy="271.4" r="1.45" fill="#f97316" fill-opacity="0.46"/>
<circle cx="696.0" cy="209.3" r="1.45" fill="#f97316" fill-opacity="0.46"/>
<circle cx="699.1" cy="197.5" r="1.45" fill="#f97316" fill-opacity="0.46"/>
<circle cx="702.1" cy="211.5" r="1.45" fill="#f97316" fill-opacity="0.46"/>
<circle cx="705.2" cy="244.1" r="1.45" fill="#f97316" fill-opacity="0.46"/>
<circle cx="708.2" cy="261.8" r="1.45" fill="#f97316" fill-opacity="0.46"/>
<circle cx="683.8" cy="248.4" r="1.45" fill="#f97316" fill-opacity="0.46"/>
<circle cx="686.8" cy="248.5" r="1.45" fill="#f97316" fill-opacity="0.46"/>
<line x1="696.0" y1="197.5" x2="696.0" y2="271.4" stroke="#f97316" stroke-opacity="0.82" stroke-width="1.8"/>
<line x1="683.8" y1="197.5" x2="708.2" y2="197.5" stroke="#f97316" stroke-opacity="0.82" stroke-width="1.8"/>
<line x1="683.8" y1="271.4" x2="708.2" y2="271.4" stroke="#f97316" stroke-opacity="0.82" stroke-width="1.8"/>
<rect x="679.0" y="226.8" width="34.0" height="29.4" rx="2" fill="#f97316" fill-opacity="0.18" stroke="#f97316" stroke-opacity="0.82" stroke-width="1.8"/>
<line x1="679.0" y1="248.4" x2="713.0" y2="248.4" stroke="#f97316" stroke-opacity="0.82" stroke-width="2.6"/>
<text x="719.0" y="252.4" text-anchor="start" font-family="Inter,Segoe UI,Arial,sans-serif" font-size="11" font-weight="700" fill="#111827" stroke="#ffffff" stroke-width="3" paint-order="stroke">2.0k</text>
<rect x="64" y="433" width="10" height="10" rx="2" fill="#14532d" fill-opacity="0.86"/>
<text x="78" y="442" font-family="Inter,Segoe UI,Arial,sans-serif" font-size="10" fill="#374151">MTPLX 0.3.7</text>
<rect x="402.0" y="433" width="10" height="10" rx="2" fill="#f97316" fill-opacity="0.86"/>
<text x="416.0" y="442" font-family="Inter,Segoe UI,Arial,sans-serif" font-size="10" fill="#374151">AX Engine v5.2.2</text>
</svg>
