<svg xmlns="http://www.w3.org/2000/svg" width="760" height="430" viewBox="0 0 760 430" role="img">
<rect width="100%" height="100%" fill="#ffffff"/>
<text x="24" y="30" font-family="Inter,Segoe UI,Arial,sans-serif" font-size="18" font-weight="700" fill="#111827">Qwen3.6 35B-A3B 4-bit MTP accept rate</text>
<text x="736" y="30" text-anchor="end" font-family="Inter,Segoe UI,Arial,sans-serif" font-size="11" fill="#4b5563">accepted/drafted, higher is better</text>
<line x1="60" y1="358.0" x2="732" y2="358.0" stroke="#e5e7eb" stroke-width="1"/>
<text x="52" y="361.0" text-anchor="end" font-family="Inter,Segoe UI,Arial,sans-serif" font-size="10" fill="#6b7280">0%</text>
<line x1="60" y1="261.3" x2="732" y2="261.3" stroke="#e5e7eb" stroke-width="1"/>
<text x="52" y="264.3" text-anchor="end" font-family="Inter,Segoe UI,Arial,sans-serif" font-size="10" fill="#6b7280">33%</text>
<line x1="60" y1="164.7" x2="732" y2="164.7" stroke="#e5e7eb" stroke-width="1"/>
<text x="52" y="167.7" text-anchor="end" font-family="Inter,Segoe UI,Arial,sans-serif" font-size="10" fill="#6b7280">67%</text>
<line x1="60" y1="68.0" x2="732" y2="68.0" stroke="#e5e7eb" stroke-width="1"/>
<text x="52" y="71.0" text-anchor="end" font-family="Inter,Segoe UI,Arial,sans-serif" font-size="10" fill="#6b7280">100%</text>
<text x="172.0" y="396" text-anchor="middle" font-family="Inter,Segoe UI,Arial,sans-serif" font-size="11" font-weight="700" fill="#111827">flappy</text>
<rect x="82.0" y="216.4" width="53.3" height="141.6" rx="2" fill="#7c3aed" fill-opacity="0.86"/>
<text x="108.7" y="211.4" text-anchor="middle" font-family="Inter,Segoe UI,Arial,sans-serif" font-size="10" font-weight="700" fill="#111827">48.8%</text>
<rect x="145.3" y="68.3" width="53.3" height="289.7" rx="2" fill="#16a34a" fill-opacity="0.86"/>
<text x="172.0" y="78.0" text-anchor="middle" font-family="Inter,Segoe UI,Arial,sans-serif" font-size="10" font-weight="700" fill="#111827">99.9%</text>
<rect x="208.7" y="70.6" width="53.3" height="287.4" rx="2" fill="#f59e0b" fill-opacity="0.86"/>
<text x="235.3" y="78.0" text-anchor="middle" font-family="Inter,Segoe UI,Arial,sans-serif" font-size="10" font-weight="700" fill="#111827">99.1%</text>
<text x="396.0" y="396" text-anchor="middle" font-family="Inter,Segoe UI,Arial,sans-serif" font-size="11" font-weight="700" fill="#111827">long_code</text>
<rect x="306.0" y="206.4" width="53.3" height="151.6" rx="2" fill="#7c3aed" fill-opacity="0.86"/>
<text x="332.7" y="201.4" text-anchor="middle" font-family="Inter,Segoe UI,Arial,sans-serif" font-size="10" font-weight="700" fill="#111827">52.3%</text>
<rect x="369.3" y="68.6" width="53.3" height="289.4" rx="2" fill="#16a34a" fill-opacity="0.86"/>
<text x="396.0" y="78.0" text-anchor="middle" font-family="Inter,Segoe UI,Arial,sans-serif" font-size="10" font-weight="700" fill="#111827">99.8%</text>
<rect x="432.7" y="72.1" width="53.3" height="285.9" rx="2" fill="#f59e0b" fill-opacity="0.86"/>
<text x="459.3" y="78.0" text-anchor="middle" font-family="Inter,Segoe UI,Arial,sans-serif" font-size="10" font-weight="700" fill="#111827">98.6%</text>
<text x="620.0" y="396" text-anchor="middle" font-family="Inter,Segoe UI,Arial,sans-serif" font-size="11" font-weight="700" fill="#111827">python_modules_long</text>
<rect x="530.0" y="235.3" width="53.3" height="122.7" rx="2" fill="#7c3aed" fill-opacity="0.86"/>
<text x="556.7" y="230.3" text-anchor="middle" font-family="Inter,Segoe UI,Arial,sans-serif" font-size="10" font-weight="700" fill="#111827">42.3%</text>
<rect x="593.3" y="87.6" width="53.3" height="270.4" rx="2" fill="#16a34a" fill-opacity="0.86"/>
<text x="620.0" y="82.6" text-anchor="middle" font-family="Inter,Segoe UI,Arial,sans-serif" font-size="10" font-weight="700" fill="#111827">93.2%</text>
<rect x="656.7" y="77.3" width="53.3" height="280.7" rx="2" fill="#f59e0b" fill-opacity="0.86"/>
<text x="683.3" y="78.0" text-anchor="middle" font-family="Inter,Segoe UI,Arial,sans-serif" font-size="10" font-weight="700" fill="#111827">96.8%</text>
<rect x="60" y="407" width="10" height="10" rx="2" fill="#7c3aed" fill-opacity="0.86"/>
<text x="74" y="416" font-family="Inter,Segoe UI,Arial,sans-serif" font-size="10" fill="#374151">MTPLX 0.3.7</text>
<rect x="190" y="407" width="10" height="10" rx="2" fill="#16a34a" fill-opacity="0.86"/>
<text x="204" y="416" font-family="Inter,Segoe UI,Arial,sans-serif" font-size="10" fill="#374151">AX Engine MTP</text>
<rect x="320" y="407" width="10" height="10" rx="2" fill="#f59e0b" fill-opacity="0.86"/>
<text x="334" y="416" font-family="Inter,Segoe UI,Arial,sans-serif" font-size="10" fill="#374151">Lightning MLX</text>
</svg>
