<svg xmlns="http://www.w3.org/2000/svg" width="900" height="460" viewBox="0 0 900 460" role="img" aria-labelledby="title desc">
<title>Qwen3.6 35B-A3B 4-bit MTP prefill throughput</title>
<desc>Grouped box-and-whisker plot comparing MTPLX 0.3.7, AX Engine v5.1.6, AX+ngram v5.1.6.</desc>
<rect width="100%" height="100%" fill="#f8fafc"/>
<text x="24" y="24" font-family="Inter,Segoe UI,Arial,sans-serif" font-size="16" font-weight="700" fill="#111827">Qwen3.6 35B-A3B 4-bit MTP prefill throughput</text>
<text x="24" y="46" font-family="Inter,Segoe UI,Arial,sans-serif" font-size="11" fill="#4b5563">All suites combined | box=IQR | dots=runs | Lightning ~= TTFT-derived</text>
<text x="24" y="62" font-family="Inter,Segoe UI,Arial,sans-serif" font-size="10" fill="#6b7280">MTPLX 0.3.7 · Lightning-MLX 0.6.32 · AX Engine v5.1.6</text>
<rect x="807" y="13" width="59" height="22" rx="11" fill="#eef2ff" stroke="#c7d2fe"/>
<text x="836.5" y="28" text-anchor="middle" font-family="Inter,Segoe UI,Arial,sans-serif" font-size="10" font-weight="700" fill="#3730a3">tok/s</text>
<text x="866" y="52" text-anchor="end" font-family="Inter,Segoe UI,Arial,sans-serif" font-size="10" font-weight="700" fill="#374151">Higher is better</text>
<rect x="64" y="86" width="676" height="268" rx="6" fill="#ffffff" stroke="#dbe3ef"/>
<line x1="64" y1="354.0" x2="740" y2="354.0" stroke="#e5e7eb" stroke-width="1"/>
<text x="56" y="357.0" text-anchor="end" font-family="Inter,Segoe UI,Arial,sans-serif" font-size="11" fill="#6b7280">0.0</text>
<line x1="64" y1="287.0" x2="740" y2="287.0" stroke="#e5e7eb" stroke-width="1"/>
<text x="56" y="290.0" text-anchor="end" font-family="Inter,Segoe UI,Arial,sans-serif" font-size="11" fill="#6b7280">1.25k</text>
<line x1="64" y1="220.0" x2="740" y2="220.0" stroke="#e5e7eb" stroke-width="1"/>
<text x="56" y="223.0" text-anchor="end" font-family="Inter,Segoe UI,Arial,sans-serif" font-size="11" fill="#6b7280">2.5k</text>
<line x1="64" y1="153.0" x2="740" y2="153.0" stroke="#e5e7eb" stroke-width="1"/>
<text x="56" y="156.0" text-anchor="end" font-family="Inter,Segoe UI,Arial,sans-serif" font-size="11" fill="#6b7280">3.75k</text>
<line x1="64" y1="86.0" x2="740" y2="86.0" stroke="#e5e7eb" stroke-width="1"/>
<text x="56" y="89.0" text-anchor="end" font-family="Inter,Segoe UI,Arial,sans-serif" font-size="11" fill="#6b7280">5k</text>
<line x1="64" y1="246.4" x2="740" y2="246.4" stroke="#dc2626" stroke-width="1.2" stroke-dasharray="1 4" stroke-linecap="round"/>
<text x="748" y="241.4" text-anchor="start" font-family="Inter,Segoe UI,Arial,sans-serif" font-size="11" font-weight="700" fill="#dc2626" data-label="highest median">highest: 2.0k</text>
<text x="402.0" y="398" text-anchor="middle" font-family="Inter,Segoe UI,Arial,sans-serif" font-size="11" font-weight="700" fill="#111827">all suites</text>
<circle cx="127.8" cy="281.3" r="1.45" fill="#14532d" fill-opacity="0.46"/>
<circle cx="130.8" cy="282.3" r="1.45" fill="#14532d" fill-opacity="0.46"/>
<circle cx="133.9" cy="276.3" r="1.45" fill="#14532d" fill-opacity="0.46"/>
<circle cx="136.9" cy="281.4" r="1.45" fill="#14532d" fill-opacity="0.46"/>
<circle cx="140.0" cy="282.9" r="1.45" fill="#14532d" fill-opacity="0.46"/>
<circle cx="143.1" cy="264.6" r="1.45" fill="#14532d" fill-opacity="0.46"/>
<circle cx="146.1" cy="265.7" r="1.45" fill="#14532d" fill-opacity="0.46"/>
<circle cx="149.2" cy="257.6" r="1.45" fill="#14532d" fill-opacity="0.46"/>
<circle cx="152.2" cy="266.2" r="1.45" fill="#14532d" fill-opacity="0.46"/>
<circle cx="127.8" cy="265.3" r="1.45" fill="#14532d" fill-opacity="0.46"/>
<circle cx="130.8" cy="256.8" r="1.45" fill="#14532d" fill-opacity="0.46"/>
<circle cx="133.9" cy="254.5" r="1.45" fill="#14532d" fill-opacity="0.46"/>
<circle cx="136.9" cy="257.0" r="1.45" fill="#14532d" fill-opacity="0.46"/>
<circle cx="140.0" cy="256.9" r="1.45" fill="#14532d" fill-opacity="0.46"/>
<circle cx="143.1" cy="259.4" r="1.45" fill="#14532d" fill-opacity="0.46"/>
<circle cx="146.1" cy="283.8" r="1.45" fill="#14532d" fill-opacity="0.46"/>
<circle cx="149.2" cy="285.5" r="1.45" fill="#14532d" fill-opacity="0.46"/>
<circle cx="152.2" cy="284.4" r="1.45" fill="#14532d" fill-opacity="0.46"/>
<circle cx="127.8" cy="279.1" r="1.45" fill="#14532d" fill-opacity="0.46"/>
<circle cx="130.8" cy="279.0" r="1.45" fill="#14532d" fill-opacity="0.46"/>
<circle cx="133.9" cy="239.7" r="1.45" fill="#14532d" fill-opacity="0.46"/>
<circle cx="136.9" cy="239.8" r="1.45" fill="#14532d" fill-opacity="0.46"/>
<circle cx="140.0" cy="238.2" r="1.45" fill="#14532d" fill-opacity="0.46"/>
<circle cx="143.1" cy="241.2" r="1.45" fill="#14532d" fill-opacity="0.46"/>
<circle cx="146.1" cy="228.4" r="1.45" fill="#14532d" fill-opacity="0.46"/>
<circle cx="149.2" cy="211.2" r="1.45" fill="#14532d" fill-opacity="0.46"/>
<circle cx="152.2" cy="217.6" r="1.45" fill="#14532d" fill-opacity="0.46"/>
<circle cx="127.8" cy="220.4" r="1.45" fill="#14532d" fill-opacity="0.46"/>
<circle cx="130.8" cy="217.6" r="1.45" fill="#14532d" fill-opacity="0.46"/>
<circle cx="133.9" cy="226.8" r="1.45" fill="#14532d" fill-opacity="0.46"/>
<circle cx="136.9" cy="246.4" r="1.45" fill="#14532d" fill-opacity="0.46"/>
<circle cx="140.0" cy="240.5" r="1.45" fill="#14532d" fill-opacity="0.46"/>
<circle cx="143.1" cy="242.4" r="1.45" fill="#14532d" fill-opacity="0.46"/>
<circle cx="146.1" cy="229.1" r="1.45" fill="#14532d" fill-opacity="0.46"/>
<circle cx="149.2" cy="244.3" r="1.45" fill="#14532d" fill-opacity="0.46"/>
<circle cx="152.2" cy="266.3" r="1.45" fill="#14532d" fill-opacity="0.46"/>
<circle cx="127.8" cy="281.4" r="1.45" fill="#14532d" fill-opacity="0.46"/>
<circle cx="130.8" cy="269.8" r="1.45" fill="#14532d" fill-opacity="0.46"/>
<circle cx="133.9" cy="268.5" r="1.45" fill="#14532d" fill-opacity="0.46"/>
<circle cx="136.9" cy="281.2" r="1.45" fill="#14532d" fill-opacity="0.46"/>
<circle cx="140.0" cy="284.9" r="1.45" fill="#14532d" fill-opacity="0.46"/>
<circle cx="143.1" cy="292.7" r="1.45" fill="#14532d" fill-opacity="0.46"/>
<circle cx="146.1" cy="301.7" r="1.45" fill="#14532d" fill-opacity="0.46"/>
<circle cx="149.2" cy="274.9" r="1.45" fill="#14532d" fill-opacity="0.46"/>
<circle cx="152.2" cy="277.0" r="1.45" fill="#14532d" fill-opacity="0.46"/>
<circle cx="127.8" cy="280.1" r="1.45" fill="#14532d" fill-opacity="0.46"/>
<circle cx="130.8" cy="279.7" r="1.45" fill="#14532d" fill-opacity="0.46"/>
<circle cx="133.9" cy="267.7" r="1.45" fill="#14532d" fill-opacity="0.46"/>
<circle cx="136.9" cy="348.0" r="1.45" fill="#14532d" fill-opacity="0.46"/>
<circle cx="140.0" cy="352.8" r="1.45" fill="#14532d" fill-opacity="0.46"/>
<circle cx="143.1" cy="346.4" r="1.45" fill="#14532d" fill-opacity="0.46"/>
<circle cx="146.1" cy="346.5" r="1.45" fill="#14532d" fill-opacity="0.46"/>
<circle cx="149.2" cy="346.8" r="1.45" fill="#14532d" fill-opacity="0.46"/>
<circle cx="152.2" cy="346.0" r="1.45" fill="#14532d" fill-opacity="0.46"/>
<circle cx="127.8" cy="345.7" r="1.45" fill="#14532d" fill-opacity="0.46"/>
<line x1="140.0" y1="211.2" x2="140.0" y2="352.8" stroke="#14532d" stroke-opacity="0.82" stroke-width="1.8"/>
<line x1="127.8" y1="211.2" x2="152.2" y2="211.2" stroke="#14532d" stroke-opacity="0.82" stroke-width="1.8"/>
<line x1="127.8" y1="352.8" x2="152.2" y2="352.8" stroke="#14532d" stroke-opacity="0.82" stroke-width="1.8"/>
<rect x="123.0" y="245.3" width="34.0" height="37.3" rx="2" fill="#14532d" fill-opacity="0.18" stroke="#14532d" stroke-opacity="0.82" stroke-width="1.8"/>
<line x1="123.0" y1="268.5" x2="157.0" y2="268.5" stroke="#14532d" stroke-opacity="0.82" stroke-width="2.6"/>
<text x="163.0" y="272.5" text-anchor="start" font-family="Inter,Segoe UI,Arial,sans-serif" font-size="11" font-weight="700" fill="#111827" stroke="#ffffff" stroke-width="3" paint-order="stroke">1.6k</text>
<circle cx="389.8" cy="266.9" r="1.45" fill="#f97316" fill-opacity="0.46"/>
<circle cx="392.8" cy="247.5" r="1.45" fill="#f97316" fill-opacity="0.46"/>
<circle cx="395.9" cy="239.7" r="1.45" fill="#f97316" fill-opacity="0.46"/>
<circle cx="398.9" cy="268.7" r="1.45" fill="#f97316" fill-opacity="0.46"/>
<circle cx="402.0" cy="215.4" r="1.45" fill="#f97316" fill-opacity="0.46"/>
<circle cx="405.1" cy="206.5" r="1.45" fill="#f97316" fill-opacity="0.46"/>
<circle cx="408.1" cy="216.9" r="1.45" fill="#f97316" fill-opacity="0.46"/>
<circle cx="411.2" cy="238.2" r="1.45" fill="#f97316" fill-opacity="0.46"/>
<circle cx="414.2" cy="259.7" r="1.45" fill="#f97316" fill-opacity="0.46"/>
<circle cx="389.8" cy="246.7" r="1.45" fill="#f97316" fill-opacity="0.46"/>
<circle cx="392.8" cy="248.4" r="1.45" fill="#f97316" fill-opacity="0.46"/>
<line x1="402.0" y1="206.5" x2="402.0" y2="268.7" stroke="#f97316" stroke-opacity="0.82" stroke-width="1.8"/>
<line x1="389.8" y1="206.5" x2="414.2" y2="206.5" stroke="#f97316" stroke-opacity="0.82" stroke-width="1.8"/>
<line x1="389.8" y1="268.7" x2="414.2" y2="268.7" stroke="#f97316" stroke-opacity="0.82" stroke-width="1.8"/>
<rect x="385.0" y="227.6" width="34.0" height="26.5" rx="2" fill="#f97316" fill-opacity="0.18" stroke="#f97316" stroke-opacity="0.82" stroke-width="1.8"/>
<line x1="385.0" y1="246.7" x2="419.0" y2="246.7" stroke="#f97316" stroke-opacity="0.82" stroke-width="2.6"/>
<text x="425.0" y="250.7" text-anchor="start" font-family="Inter,Segoe UI,Arial,sans-serif" font-size="11" font-weight="700" fill="#111827" stroke="#ffffff" stroke-width="3" paint-order="stroke">2.0k</text>
<circle cx="651.8" cy="266.4" r="1.45" fill="#eab308" fill-opacity="0.46"/>
<circle cx="654.8" cy="247.2" r="1.45" fill="#eab308" fill-opacity="0.46"/>
<circle cx="657.9" cy="239.6" r="1.45" fill="#eab308" fill-opacity="0.46"/>
<circle cx="660.9" cy="268.4" r="1.45" fill="#eab308" fill-opacity="0.46"/>
<circle cx="664.0" cy="213.4" r="1.45" fill="#eab308" fill-opacity="0.46"/>
<circle cx="667.1" cy="208.5" r="1.45" fill="#eab308" fill-opacity="0.46"/>
<circle cx="670.1" cy="219.0" r="1.45" fill="#eab308" fill-opacity="0.46"/>
<circle cx="673.2" cy="238.2" r="1.45" fill="#eab308" fill-opacity="0.46"/>
<circle cx="676.2" cy="261.4" r="1.45" fill="#eab308" fill-opacity="0.46"/>
<circle cx="651.8" cy="246.4" r="1.45" fill="#eab308" fill-opacity="0.46"/>
<circle cx="654.8" cy="247.0" r="1.45" fill="#eab308" fill-opacity="0.46"/>
<line x1="664.0" y1="208.5" x2="664.0" y2="268.4" stroke="#eab308" stroke-opacity="0.82" stroke-width="1.8"/>
<line x1="651.8" y1="208.5" x2="676.2" y2="208.5" stroke="#eab308" stroke-opacity="0.82" stroke-width="1.8"/>
<line x1="651.8" y1="268.4" x2="676.2" y2="268.4" stroke="#eab308" stroke-opacity="0.82" stroke-width="1.8"/>
<rect x="647.0" y="228.6" width="34.0" height="25.7" rx="2" fill="#eab308" fill-opacity="0.18" stroke="#eab308" stroke-opacity="0.82" stroke-width="1.8"/>
<line x1="647.0" y1="246.4" x2="681.0" y2="246.4" stroke="#eab308" stroke-opacity="0.82" stroke-width="2.6"/>
<text x="687.0" y="250.4" text-anchor="start" font-family="Inter,Segoe UI,Arial,sans-serif" font-size="11" font-weight="700" fill="#111827" stroke="#ffffff" stroke-width="3" paint-order="stroke">2.0k</text>
<rect x="64" y="433" width="10" height="10" rx="2" fill="#14532d" fill-opacity="0.86"/>
<text x="78" y="442" font-family="Inter,Segoe UI,Arial,sans-serif" font-size="10" fill="#374151">MTPLX 0.3.7</text>
<rect x="289.33333333333337" y="433" width="10" height="10" rx="2" fill="#f97316" fill-opacity="0.86"/>
<text x="303.33333333333337" y="442" font-family="Inter,Segoe UI,Arial,sans-serif" font-size="10" fill="#374151">AX Engine v5.1.6</text>
<rect x="514.6666666666667" y="433" width="10" height="10" rx="2" fill="#eab308" fill-opacity="0.86"/>
<text x="528.6666666666667" y="442" font-family="Inter,Segoe UI,Arial,sans-serif" font-size="10" fill="#374151">AX+ngram v5.1.6</text>
</svg>
