<svg xmlns="http://www.w3.org/2000/svg" width="900" height="460" viewBox="0 0 900 460" role="img" aria-labelledby="title desc">
<title>MTP time-to-first-token (TTFT)</title>
<desc>Grouped box-and-whisker plot comparing MTPLX 0.3.7, AX Engine v5.1.6, AX+ngram v5.1.6.</desc>
<rect width="100%" height="100%" fill="#f8fafc"/>
<text x="24" y="24" font-family="Inter,Segoe UI,Arial,sans-serif" font-size="16" font-weight="700" fill="#111827">MTP time-to-first-token (TTFT)</text>
<text x="24" y="46" font-family="Inter,Segoe UI,Arial,sans-serif" font-size="11" fill="#4b5563"><tspan>All suites combined per model | </tspan><tspan fill="#dc2626" font-weight="700">lower is better</tspan><tspan> | box=IQR | dots=runs</tspan></text>
<text x="24" y="62" font-family="Inter,Segoe UI,Arial,sans-serif" font-size="10" fill="#6b7280">MTPLX 0.3.7 · Lightning-MLX 0.6.32 · AX Engine v5.1.6</text>
<rect x="818" y="13" width="48" height="22" rx="11" fill="#eef2ff" stroke="#c7d2fe"/>
<text x="842.0" y="28" text-anchor="middle" font-family="Inter,Segoe UI,Arial,sans-serif" font-size="10" font-weight="700" fill="#3730a3">ms</text>
<text x="866" y="52" text-anchor="end" font-family="Inter,Segoe UI,Arial,sans-serif" font-size="10" font-weight="700" fill="#dc2626">Lower is better</text>
<rect x="64" y="86" width="676" height="268" rx="6" fill="#ffffff" stroke="#dbe3ef"/>
<line x1="64" y1="354.0" x2="740" y2="354.0" stroke="#e5e7eb" stroke-width="1"/>
<text x="56" y="357.0" text-anchor="end" font-family="Inter,Segoe UI,Arial,sans-serif" font-size="11" fill="#6b7280">0</text>
<line x1="64" y1="287.0" x2="740" y2="287.0" stroke="#e5e7eb" stroke-width="1"/>
<text x="56" y="290.0" text-anchor="end" font-family="Inter,Segoe UI,Arial,sans-serif" font-size="11" fill="#6b7280">5000</text>
<line x1="64" y1="220.0" x2="740" y2="220.0" stroke="#e5e7eb" stroke-width="1"/>
<text x="56" y="223.0" text-anchor="end" font-family="Inter,Segoe UI,Arial,sans-serif" font-size="11" fill="#6b7280">10000</text>
<line x1="64" y1="153.0" x2="740" y2="153.0" stroke="#e5e7eb" stroke-width="1"/>
<text x="56" y="156.0" text-anchor="end" font-family="Inter,Segoe UI,Arial,sans-serif" font-size="11" fill="#6b7280">15000</text>
<line x1="64" y1="86.0" x2="740" y2="86.0" stroke="#e5e7eb" stroke-width="1"/>
<text x="56" y="89.0" text-anchor="end" font-family="Inter,Segoe UI,Arial,sans-serif" font-size="11" fill="#6b7280">20000</text>
<line x1="64" y1="351.5" x2="740" y2="351.5" stroke="#dc2626" stroke-width="1.2" stroke-dasharray="1 4" stroke-linecap="round"/>
<text x="748" y="346.5" text-anchor="start" font-family="Inter,Segoe UI,Arial,sans-serif" font-size="11" font-weight="700" fill="#dc2626" data-label="lowest median">lowest: 188</text>
<text x="233.0" y="398" text-anchor="middle" font-family="Inter,Segoe UI,Arial,sans-serif" font-size="11" font-weight="700" fill="#111827">27B</text>
<circle cx="95.8" cy="347.9" r="1.45" fill="#14532d" fill-opacity="0.46"/>
<circle cx="98.8" cy="348.3" r="1.45" fill="#14532d" fill-opacity="0.46"/>
<circle cx="101.9" cy="348.0" r="1.45" fill="#14532d" fill-opacity="0.46"/>
<circle cx="104.9" cy="348.0" r="1.45" fill="#14532d" fill-opacity="0.46"/>
<circle cx="108.0" cy="348.2" r="1.45" fill="#14532d" fill-opacity="0.46"/>
<circle cx="111.1" cy="347.0" r="1.45" fill="#14532d" fill-opacity="0.46"/>
<circle cx="114.1" cy="347.3" r="1.45" fill="#14532d" fill-opacity="0.46"/>
<circle cx="117.2" cy="347.1" r="1.45" fill="#14532d" fill-opacity="0.46"/>
<circle cx="120.2" cy="346.9" r="1.45" fill="#14532d" fill-opacity="0.46"/>
<circle cx="95.8" cy="347.3" r="1.45" fill="#14532d" fill-opacity="0.46"/>
<circle cx="98.8" cy="346.5" r="1.45" fill="#14532d" fill-opacity="0.46"/>
<circle cx="101.9" cy="346.1" r="1.45" fill="#14532d" fill-opacity="0.46"/>
<circle cx="104.9" cy="346.0" r="1.45" fill="#14532d" fill-opacity="0.46"/>
<circle cx="108.0" cy="346.0" r="1.45" fill="#14532d" fill-opacity="0.46"/>
<circle cx="111.1" cy="346.0" r="1.45" fill="#14532d" fill-opacity="0.46"/>
<circle cx="114.1" cy="348.2" r="1.45" fill="#14532d" fill-opacity="0.46"/>
<circle cx="117.2" cy="348.4" r="1.45" fill="#14532d" fill-opacity="0.46"/>
<circle cx="120.2" cy="348.2" r="1.45" fill="#14532d" fill-opacity="0.46"/>
<circle cx="95.8" cy="348.1" r="1.45" fill="#14532d" fill-opacity="0.46"/>
<circle cx="98.8" cy="348.1" r="1.45" fill="#14532d" fill-opacity="0.46"/>
<circle cx="101.9" cy="341.7" r="1.45" fill="#14532d" fill-opacity="0.46"/>
<circle cx="104.9" cy="341.7" r="1.45" fill="#14532d" fill-opacity="0.46"/>
<circle cx="108.0" cy="341.7" r="1.45" fill="#14532d" fill-opacity="0.46"/>
<circle cx="111.1" cy="342.2" r="1.45" fill="#14532d" fill-opacity="0.46"/>
<circle cx="114.1" cy="341.8" r="1.45" fill="#14532d" fill-opacity="0.46"/>
<circle cx="117.2" cy="340.3" r="1.45" fill="#14532d" fill-opacity="0.46"/>
<circle cx="120.2" cy="340.0" r="1.45" fill="#14532d" fill-opacity="0.46"/>
<circle cx="95.8" cy="340.0" r="1.45" fill="#14532d" fill-opacity="0.46"/>
<circle cx="98.8" cy="340.0" r="1.45" fill="#14532d" fill-opacity="0.46"/>
<circle cx="101.9" cy="339.9" r="1.45" fill="#14532d" fill-opacity="0.46"/>
<circle cx="104.9" cy="341.6" r="1.45" fill="#14532d" fill-opacity="0.46"/>
<circle cx="108.0" cy="341.8" r="1.45" fill="#14532d" fill-opacity="0.46"/>
<circle cx="111.1" cy="341.7" r="1.45" fill="#14532d" fill-opacity="0.46"/>
<circle cx="114.1" cy="341.8" r="1.45" fill="#14532d" fill-opacity="0.46"/>
<circle cx="117.2" cy="341.9" r="1.45" fill="#14532d" fill-opacity="0.46"/>
<circle cx="120.2" cy="345.8" r="1.45" fill="#14532d" fill-opacity="0.46"/>
<circle cx="95.8" cy="345.6" r="1.45" fill="#14532d" fill-opacity="0.46"/>
<circle cx="98.8" cy="345.5" r="1.45" fill="#14532d" fill-opacity="0.46"/>
<circle cx="101.9" cy="345.5" r="1.45" fill="#14532d" fill-opacity="0.46"/>
<circle cx="104.9" cy="345.5" r="1.45" fill="#14532d" fill-opacity="0.46"/>
<circle cx="108.0" cy="347.9" r="1.45" fill="#14532d" fill-opacity="0.46"/>
<circle cx="111.1" cy="348.0" r="1.45" fill="#14532d" fill-opacity="0.46"/>
<circle cx="114.1" cy="347.9" r="1.45" fill="#14532d" fill-opacity="0.46"/>
<circle cx="117.2" cy="347.8" r="1.45" fill="#14532d" fill-opacity="0.46"/>
<circle cx="120.2" cy="347.9" r="1.45" fill="#14532d" fill-opacity="0.46"/>
<circle cx="95.8" cy="347.0" r="1.45" fill="#14532d" fill-opacity="0.46"/>
<circle cx="98.8" cy="347.0" r="1.45" fill="#14532d" fill-opacity="0.46"/>
<circle cx="101.9" cy="347.1" r="1.45" fill="#14532d" fill-opacity="0.46"/>
<circle cx="104.9" cy="346.9" r="1.45" fill="#14532d" fill-opacity="0.46"/>
<circle cx="108.0" cy="347.2" r="1.45" fill="#14532d" fill-opacity="0.46"/>
<circle cx="111.1" cy="347.0" r="1.45" fill="#14532d" fill-opacity="0.46"/>
<circle cx="114.1" cy="347.0" r="1.45" fill="#14532d" fill-opacity="0.46"/>
<circle cx="117.2" cy="347.1" r="1.45" fill="#14532d" fill-opacity="0.46"/>
<circle cx="120.2" cy="347.0" r="1.45" fill="#14532d" fill-opacity="0.46"/>
<circle cx="95.8" cy="347.1" r="1.45" fill="#14532d" fill-opacity="0.46"/>
<line x1="108.0" y1="339.9" x2="108.0" y2="348.4" stroke="#14532d" stroke-opacity="0.82" stroke-width="1.8"/>
<line x1="95.8" y1="339.9" x2="120.2" y2="339.9" stroke="#14532d" stroke-opacity="0.82" stroke-width="1.8"/>
<line x1="95.8" y1="348.4" x2="120.2" y2="348.4" stroke="#14532d" stroke-opacity="0.82" stroke-width="1.8"/>
<rect x="91.0" y="342.0" width="34.0" height="5.8" rx="2" fill="#14532d" fill-opacity="0.18" stroke="#14532d" stroke-opacity="0.82" stroke-width="1.8"/>
<line x1="91.0" y1="347.0" x2="125.0" y2="347.0" stroke="#14532d" stroke-opacity="0.82" stroke-width="2.6"/>
<text x="131.0" y="351.0" text-anchor="start" font-family="Inter,Segoe UI,Arial,sans-serif" font-size="11" font-weight="700" fill="#111827" stroke="#ffffff" stroke-width="3" paint-order="stroke">526</text>
<circle cx="220.8" cy="348.2" r="1.45" fill="#f97316" fill-opacity="0.46"/>
<circle cx="223.8" cy="347.2" r="1.45" fill="#f97316" fill-opacity="0.46"/>
<circle cx="226.9" cy="346.3" r="1.45" fill="#f97316" fill-opacity="0.46"/>
<circle cx="229.9" cy="348.2" r="1.45" fill="#f97316" fill-opacity="0.46"/>
<circle cx="233.0" cy="341.8" r="1.45" fill="#f97316" fill-opacity="0.46"/>
<circle cx="236.1" cy="340.1" r="1.45" fill="#f97316" fill-opacity="0.46"/>
<circle cx="239.1" cy="341.9" r="1.45" fill="#f97316" fill-opacity="0.46"/>
<circle cx="242.2" cy="345.6" r="1.45" fill="#f97316" fill-opacity="0.46"/>
<circle cx="245.2" cy="348.1" r="1.45" fill="#f97316" fill-opacity="0.46"/>
<circle cx="220.8" cy="347.2" r="1.45" fill="#f97316" fill-opacity="0.46"/>
<circle cx="223.8" cy="347.2" r="1.45" fill="#f97316" fill-opacity="0.46"/>
<line x1="233.0" y1="340.1" x2="233.0" y2="348.2" stroke="#f97316" stroke-opacity="0.82" stroke-width="1.8"/>
<line x1="220.8" y1="340.1" x2="245.2" y2="340.1" stroke="#f97316" stroke-opacity="0.82" stroke-width="1.8"/>
<line x1="220.8" y1="348.2" x2="245.2" y2="348.2" stroke="#f97316" stroke-opacity="0.82" stroke-width="1.8"/>
<rect x="216.0" y="343.7" width="34.0" height="4.0" rx="2" fill="#f97316" fill-opacity="0.18" stroke="#f97316" stroke-opacity="0.82" stroke-width="1.8"/>
<line x1="216.0" y1="347.2" x2="250.0" y2="347.2" stroke="#f97316" stroke-opacity="0.82" stroke-width="2.6"/>
<text x="256.0" y="351.2" text-anchor="start" font-family="Inter,Segoe UI,Arial,sans-serif" font-size="11" font-weight="700" fill="#111827" stroke="#ffffff" stroke-width="3" paint-order="stroke">507</text>
<circle cx="345.8" cy="348.2" r="1.45" fill="#eab308" fill-opacity="0.46"/>
<circle cx="348.8" cy="347.2" r="1.45" fill="#eab308" fill-opacity="0.46"/>
<circle cx="351.9" cy="346.4" r="1.45" fill="#eab308" fill-opacity="0.46"/>
<circle cx="354.9" cy="348.2" r="1.45" fill="#eab308" fill-opacity="0.46"/>
<circle cx="358.0" cy="341.8" r="1.45" fill="#eab308" fill-opacity="0.46"/>
<circle cx="361.1" cy="340.0" r="1.45" fill="#eab308" fill-opacity="0.46"/>
<circle cx="364.1" cy="341.8" r="1.45" fill="#eab308" fill-opacity="0.46"/>
<circle cx="367.2" cy="345.5" r="1.45" fill="#eab308" fill-opacity="0.46"/>
<circle cx="370.2" cy="348.1" r="1.45" fill="#eab308" fill-opacity="0.46"/>
<circle cx="345.8" cy="347.2" r="1.45" fill="#eab308" fill-opacity="0.46"/>
<circle cx="348.8" cy="347.2" r="1.45" fill="#eab308" fill-opacity="0.46"/>
<line x1="358.0" y1="340.0" x2="358.0" y2="348.2" stroke="#eab308" stroke-opacity="0.82" stroke-width="1.8"/>
<line x1="345.8" y1="340.0" x2="370.2" y2="340.0" stroke="#eab308" stroke-opacity="0.82" stroke-width="1.8"/>
<line x1="345.8" y1="348.2" x2="370.2" y2="348.2" stroke="#eab308" stroke-opacity="0.82" stroke-width="1.8"/>
<rect x="341.0" y="343.7" width="34.0" height="4.0" rx="2" fill="#eab308" fill-opacity="0.18" stroke="#eab308" stroke-opacity="0.82" stroke-width="1.8"/>
<line x1="341.0" y1="347.2" x2="375.0" y2="347.2" stroke="#eab308" stroke-opacity="0.82" stroke-width="2.6"/>
<text x="381.0" y="351.2" text-anchor="start" font-family="Inter,Segoe UI,Arial,sans-serif" font-size="11" font-weight="700" fill="#111827" stroke="#ffffff" stroke-width="3" paint-order="stroke">506</text>
<text x="571.0" y="398" text-anchor="middle" font-family="Inter,Segoe UI,Arial,sans-serif" font-size="11" font-weight="700" fill="#111827">35B-A3B</text>
<circle cx="433.8" cy="351.3" r="1.45" fill="#14532d" fill-opacity="0.46"/>
<circle cx="436.8" cy="351.3" r="1.45" fill="#14532d" fill-opacity="0.46"/>
<circle cx="439.9" cy="351.5" r="1.45" fill="#14532d" fill-opacity="0.46"/>
<circle cx="442.9" cy="351.3" r="1.45" fill="#14532d" fill-opacity="0.46"/>
<circle cx="446.0" cy="351.2" r="1.45" fill="#14532d" fill-opacity="0.46"/>
<circle cx="449.1" cy="351.0" r="1.45" fill="#14532d" fill-opacity="0.46"/>
<circle cx="452.1" cy="351.0" r="1.45" fill="#14532d" fill-opacity="0.46"/>
<circle cx="455.2" cy="351.2" r="1.45" fill="#14532d" fill-opacity="0.46"/>
<circle cx="458.2" cy="350.9" r="1.45" fill="#14532d" fill-opacity="0.46"/>
<circle cx="433.8" cy="351.0" r="1.45" fill="#14532d" fill-opacity="0.46"/>
<circle cx="436.8" cy="350.8" r="1.45" fill="#14532d" fill-opacity="0.46"/>
<circle cx="439.9" cy="350.9" r="1.45" fill="#14532d" fill-opacity="0.46"/>
<circle cx="442.9" cy="350.8" r="1.45" fill="#14532d" fill-opacity="0.46"/>
<circle cx="446.0" cy="350.8" r="1.45" fill="#14532d" fill-opacity="0.46"/>
<circle cx="449.1" cy="350.7" r="1.45" fill="#14532d" fill-opacity="0.46"/>
<circle cx="452.1" cy="351.3" r="1.45" fill="#14532d" fill-opacity="0.46"/>
<circle cx="455.2" cy="351.2" r="1.45" fill="#14532d" fill-opacity="0.46"/>
<circle cx="458.2" cy="351.3" r="1.45" fill="#14532d" fill-opacity="0.46"/>
<circle cx="433.8" cy="351.5" r="1.45" fill="#14532d" fill-opacity="0.46"/>
<circle cx="436.8" cy="351.5" r="1.45" fill="#14532d" fill-opacity="0.46"/>
<circle cx="439.9" cy="349.5" r="1.45" fill="#14532d" fill-opacity="0.46"/>
<circle cx="442.9" cy="349.5" r="1.45" fill="#14532d" fill-opacity="0.46"/>
<circle cx="446.0" cy="349.5" r="1.45" fill="#14532d" fill-opacity="0.46"/>
<circle cx="449.1" cy="349.4" r="1.45" fill="#14532d" fill-opacity="0.46"/>
<circle cx="452.1" cy="349.9" r="1.45" fill="#14532d" fill-opacity="0.46"/>
<circle cx="455.2" cy="349.7" r="1.45" fill="#14532d" fill-opacity="0.46"/>
<circle cx="458.2" cy="349.5" r="1.45" fill="#14532d" fill-opacity="0.46"/>
<circle cx="433.8" cy="349.4" r="1.45" fill="#14532d" fill-opacity="0.46"/>
<circle cx="436.8" cy="349.5" r="1.45" fill="#14532d" fill-opacity="0.46"/>
<circle cx="439.9" cy="349.2" r="1.45" fill="#14532d" fill-opacity="0.46"/>
<circle cx="442.9" cy="349.2" r="1.45" fill="#14532d" fill-opacity="0.46"/>
<circle cx="446.0" cy="349.5" r="1.45" fill="#14532d" fill-opacity="0.46"/>
<circle cx="449.1" cy="349.4" r="1.45" fill="#14532d" fill-opacity="0.46"/>
<circle cx="452.1" cy="349.9" r="1.45" fill="#14532d" fill-opacity="0.46"/>
<circle cx="455.2" cy="349.3" r="1.45" fill="#14532d" fill-opacity="0.46"/>
<circle cx="458.2" cy="350.3" r="1.45" fill="#14532d" fill-opacity="0.46"/>
<circle cx="433.8" cy="349.5" r="1.45" fill="#14532d" fill-opacity="0.46"/>
<circle cx="436.8" cy="350.2" r="1.45" fill="#14532d" fill-opacity="0.46"/>
<circle cx="439.9" cy="350.2" r="1.45" fill="#14532d" fill-opacity="0.46"/>
<circle cx="442.9" cy="349.6" r="1.45" fill="#14532d" fill-opacity="0.46"/>
<circle cx="446.0" cy="351.0" r="1.45" fill="#14532d" fill-opacity="0.46"/>
<circle cx="449.1" cy="350.7" r="1.45" fill="#14532d" fill-opacity="0.46"/>
<circle cx="452.1" cy="350.1" r="1.45" fill="#14532d" fill-opacity="0.46"/>
<circle cx="455.2" cy="351.4" r="1.45" fill="#14532d" fill-opacity="0.46"/>
<circle cx="458.2" cy="351.3" r="1.45" fill="#14532d" fill-opacity="0.46"/>
<circle cx="433.8" cy="350.6" r="1.45" fill="#14532d" fill-opacity="0.46"/>
<circle cx="436.8" cy="350.6" r="1.45" fill="#14532d" fill-opacity="0.46"/>
<circle cx="439.9" cy="351.1" r="1.45" fill="#14532d" fill-opacity="0.46"/>
<circle cx="442.9" cy="312.0" r="1.45" fill="#14532d" fill-opacity="0.46"/>
<circle cx="446.0" cy="142.7" r="1.45" fill="#14532d" fill-opacity="0.46"/>
<circle cx="449.1" cy="320.9" r="1.45" fill="#14532d" fill-opacity="0.46"/>
<circle cx="452.1" cy="320.3" r="1.45" fill="#14532d" fill-opacity="0.46"/>
<circle cx="455.2" cy="319.1" r="1.45" fill="#14532d" fill-opacity="0.46"/>
<circle cx="458.2" cy="322.7" r="1.45" fill="#14532d" fill-opacity="0.46"/>
<circle cx="433.8" cy="323.8" r="1.45" fill="#14532d" fill-opacity="0.46"/>
<line x1="446.0" y1="142.7" x2="446.0" y2="351.5" stroke="#14532d" stroke-opacity="0.82" stroke-width="1.8"/>
<line x1="433.8" y1="142.7" x2="458.2" y2="142.7" stroke="#14532d" stroke-opacity="0.82" stroke-width="1.8"/>
<line x1="433.8" y1="351.5" x2="458.2" y2="351.5" stroke="#14532d" stroke-opacity="0.82" stroke-width="1.8"/>
<rect x="429.0" y="349.5" width="34.0" height="1.6" rx="2" fill="#14532d" fill-opacity="0.18" stroke="#14532d" stroke-opacity="0.82" stroke-width="1.8"/>
<line x1="429.0" y1="350.3" x2="463.0" y2="350.3" stroke="#14532d" stroke-opacity="0.82" stroke-width="2.6"/>
<text x="469.0" y="354.3" text-anchor="start" font-family="Inter,Segoe UI,Arial,sans-serif" font-size="11" font-weight="700" fill="#111827" stroke="#ffffff" stroke-width="3" paint-order="stroke">276</text>
<circle cx="558.8" cy="351.7" r="1.45" fill="#f97316" fill-opacity="0.46"/>
<circle cx="561.8" cy="351.5" r="1.45" fill="#f97316" fill-opacity="0.46"/>
<circle cx="564.9" cy="351.3" r="1.45" fill="#f97316" fill-opacity="0.46"/>
<circle cx="567.9" cy="351.8" r="1.45" fill="#f97316" fill-opacity="0.46"/>
<circle cx="571.0" cy="350.3" r="1.45" fill="#f97316" fill-opacity="0.46"/>
<circle cx="574.1" cy="349.9" r="1.45" fill="#f97316" fill-opacity="0.46"/>
<circle cx="577.1" cy="350.3" r="1.45" fill="#f97316" fill-opacity="0.46"/>
<circle cx="580.2" cy="351.2" r="1.45" fill="#f97316" fill-opacity="0.46"/>
<circle cx="583.2" cy="351.8" r="1.45" fill="#f97316" fill-opacity="0.46"/>
<circle cx="558.8" cy="351.7" r="1.45" fill="#f97316" fill-opacity="0.46"/>
<circle cx="561.8" cy="351.6" r="1.45" fill="#f97316" fill-opacity="0.46"/>
<line x1="571.0" y1="349.9" x2="571.0" y2="351.8" stroke="#f97316" stroke-opacity="0.82" stroke-width="1.8"/>
<line x1="558.8" y1="349.9" x2="583.2" y2="349.9" stroke="#f97316" stroke-opacity="0.82" stroke-width="1.8"/>
<line x1="558.8" y1="351.8" x2="583.2" y2="351.8" stroke="#f97316" stroke-opacity="0.82" stroke-width="1.8"/>
<rect x="554.0" y="350.7" width="34.0" height="1.0" rx="2" fill="#f97316" fill-opacity="0.18" stroke="#f97316" stroke-opacity="0.82" stroke-width="1.8"/>
<line x1="554.0" y1="351.5" x2="588.0" y2="351.5" stroke="#f97316" stroke-opacity="0.82" stroke-width="2.6"/>
<text x="594.0" y="355.5" text-anchor="start" font-family="Inter,Segoe UI,Arial,sans-serif" font-size="11" font-weight="700" fill="#111827" stroke="#ffffff" stroke-width="3" paint-order="stroke">188</text>
<circle cx="683.8" cy="351.8" r="1.45" fill="#eab308" fill-opacity="0.46"/>
<circle cx="686.8" cy="351.5" r="1.45" fill="#eab308" fill-opacity="0.46"/>
<circle cx="689.9" cy="351.3" r="1.45" fill="#eab308" fill-opacity="0.46"/>
<circle cx="692.9" cy="351.8" r="1.45" fill="#eab308" fill-opacity="0.46"/>
<circle cx="696.0" cy="350.3" r="1.45" fill="#eab308" fill-opacity="0.46"/>
<circle cx="699.1" cy="349.8" r="1.45" fill="#eab308" fill-opacity="0.46"/>
<circle cx="702.1" cy="350.2" r="1.45" fill="#eab308" fill-opacity="0.46"/>
<circle cx="705.2" cy="351.2" r="1.45" fill="#eab308" fill-opacity="0.46"/>
<circle cx="708.2" cy="351.8" r="1.45" fill="#eab308" fill-opacity="0.46"/>
<circle cx="683.8" cy="351.7" r="1.45" fill="#eab308" fill-opacity="0.46"/>
<circle cx="686.8" cy="351.7" r="1.45" fill="#eab308" fill-opacity="0.46"/>
<line x1="696.0" y1="349.8" x2="696.0" y2="351.8" stroke="#eab308" stroke-opacity="0.82" stroke-width="1.8"/>
<line x1="683.8" y1="349.8" x2="708.2" y2="349.8" stroke="#eab308" stroke-opacity="0.82" stroke-width="1.8"/>
<line x1="683.8" y1="351.8" x2="708.2" y2="351.8" stroke="#eab308" stroke-opacity="0.82" stroke-width="1.8"/>
<rect x="679.0" y="350.8" width="34.0" height="1.0" rx="2" fill="#eab308" fill-opacity="0.18" stroke="#eab308" stroke-opacity="0.82" stroke-width="1.8"/>
<line x1="679.0" y1="351.5" x2="713.0" y2="351.5" stroke="#eab308" stroke-opacity="0.82" stroke-width="2.6"/>
<text x="719.0" y="355.5" text-anchor="start" font-family="Inter,Segoe UI,Arial,sans-serif" font-size="11" font-weight="700" fill="#111827" stroke="#ffffff" stroke-width="3" paint-order="stroke">188</text>
<rect x="64" y="433" width="10" height="10" rx="2" fill="#14532d" fill-opacity="0.86"/>
<text x="78" y="442" font-family="Inter,Segoe UI,Arial,sans-serif" font-size="10" fill="#374151">MTPLX 0.3.7</text>
<rect x="289.33333333333337" y="433" width="10" height="10" rx="2" fill="#f97316" fill-opacity="0.86"/>
<text x="303.33333333333337" y="442" font-family="Inter,Segoe UI,Arial,sans-serif" font-size="10" fill="#374151">AX Engine v5.1.6</text>
<rect x="514.6666666666667" y="433" width="10" height="10" rx="2" fill="#eab308" fill-opacity="0.86"/>
<text x="528.6666666666667" y="442" font-family="Inter,Segoe UI,Arial,sans-serif" font-size="10" fill="#374151">AX+ngram v5.1.6</text>
</svg>
