<svg xmlns="http://www.w3.org/2000/svg" width="540" height="278" viewBox="0 0 540 278" role="img" aria-labelledby="title desc"><title>Qwen 3.6 — Decode rate</title><desc>Grouped box-and-whisker plot comparing llama.cpp, mlx_lm, ax_engine, ax+n-gram at 128/512/2048 prompt tokens for Qwen 3.6 models. A red dotted line marks the highest median.</desc><rect width="540" height="278" fill="#ffffff"/><text x="52" y="22" font-family="Inter,Segoe UI,Arial,sans-serif" font-size="16" font-weight="700" fill="#111827">Qwen 3.6 — Decode rate</text><text x="52" y="40" font-family="Inter,Segoe UI,Arial,sans-serif" font-size="10" fill="#6b7280">AX n-gram is the default policy</text><text x="524" y="22" text-anchor="end" font-family="Inter,Segoe UI,Arial,sans-serif" font-size="10" fill="#6b7280">tok/s</text><text x="524" y="40" text-anchor="end" font-family="Inter,Segoe UI,Arial,sans-serif" font-size="10" font-weight="700" fill="#374151">Higher is better</text><line x1="52" y1="214.0" x2="524" y2="214.0" stroke="#e5e7eb" stroke-width="1"/><text x="44" y="217.0" text-anchor="end" font-family="Inter,Segoe UI,Arial,sans-serif" font-size="10" fill="#6b7280">0</text><line x1="52" y1="130.0" x2="524" y2="130.0" stroke="#e5e7eb" stroke-width="1"/><text x="44" y="133.0" text-anchor="end" font-family="Inter,Segoe UI,Arial,sans-serif" font-size="10" fill="#6b7280">200</text><line x1="52" y1="46.0" x2="524" y2="46.0" stroke="#e5e7eb" stroke-width="1"/><text x="44" y="49.0" text-anchor="end" font-family="Inter,Segoe UI,Arial,sans-serif" font-size="10" fill="#6b7280">400</text><line x1="52" y1="202.2" x2="524" y2="202.2" stroke="#dc2626" stroke-width="1.2" stroke-dasharray="1 4" stroke-linecap="round"/><line x1="81" y1="168.7" x2="81" y2="206.7" stroke="#f97316" stroke-opacity="0.55" stroke-width="1.7"/><line x1="75.24" y1="168.7" x2="86.76" y2="168.7" stroke="#f97316" stroke-opacity="0.55" stroke-width="1.7"/><line x1="75.24" y1="206.7" x2="86.76" y2="206.7" stroke="#f97316" stroke-opacity="0.55" stroke-width="1.7"/><rect x="73" y="205.7" width="16" height="1.0" rx="2" fill="#f97316" fill-opacity="0.08" stroke="#f97316" stroke-opacity="0.55" stroke-width="1.7"/><line x1="73" y1="205.8" x2="89" y2="205.8" stroke="#f97316" stroke-opacity="0.55" stroke-width="2.4"/><text x="81" y="229" text-anchor="middle" font-family="Inter,Segoe UI,Arial,sans-serif" font-size="8" fill="#6b7280">128</text><circle cx="78" cy="205.8" r="1.4" fill="#c2410c" fill-opacity="0.5"/><circle cx="79.5" cy="205.7" r="1.4" fill="#c2410c" fill-opacity="0.5"/><circle cx="81" cy="205.8" r="1.4" fill="#c2410c" fill-opacity="0.5"/><circle cx="82.5" cy="206.7" r="1.4" fill="#c2410c" fill-opacity="0.5"/><circle cx="84" cy="168.7" r="1.4" fill="#c2410c" fill-opacity="0.5"/><line x1="111" y1="168.7" x2="111" y2="206.8" stroke="#f97316" stroke-opacity="0.78" stroke-width="1.7"/><line x1="105.24" y1="168.7" x2="116.76" y2="168.7" stroke="#f97316" stroke-opacity="0.78" stroke-width="1.7"/><line x1="105.24" y1="206.8" x2="116.76" y2="206.8" stroke="#f97316" stroke-opacity="0.78" stroke-width="1.7"/><rect x="103" y="204.9" width="16" height="1.0" rx="2" fill="#f97316" fill-opacity="0.17" stroke="#f97316" stroke-opacity="0.78" stroke-width="1.7"/><line x1="103" y1="205.3" x2="119" y2="205.3" stroke="#f97316" stroke-opacity="0.78" stroke-width="2.4"/><text x="111" y="229" text-anchor="middle" font-family="Inter,Segoe UI,Arial,sans-serif" font-size="8" fill="#6b7280">512</text><circle cx="108" cy="204.9" r="1.4" fill="#c2410c" fill-opacity="0.7"/><circle cx="109.5" cy="205.3" r="1.4" fill="#c2410c" fill-opacity="0.7"/><circle cx="111" cy="205.8" r="1.4" fill="#c2410c" fill-opacity="0.7"/><circle cx="112.5" cy="206.8" r="1.4" fill="#c2410c" fill-opacity="0.7"/><circle cx="114" cy="168.7" r="1.4" fill="#c2410c" fill-opacity="0.7"/><line x1="141" y1="168.8" x2="141" y2="206.8" stroke="#f97316" stroke-opacity="1.0" stroke-width="1.7"/><line x1="135.24" y1="168.8" x2="146.76" y2="168.8" stroke="#f97316" stroke-opacity="1.0" stroke-width="1.7"/><line x1="135.24" y1="206.8" x2="146.76" y2="206.8" stroke="#f97316" stroke-opacity="1.0" stroke-width="1.7"/><rect x="133" y="203.6" width="16" height="2.2" rx="2" fill="#f97316" fill-opacity="0.3" stroke="#f97316" stroke-opacity="1.0" stroke-width="1.7"/><line x1="133" y1="205.3" x2="149" y2="205.3" stroke="#f97316" stroke-opacity="1.0" stroke-width="2.4"/><text x="141" y="229" text-anchor="middle" font-family="Inter,Segoe UI,Arial,sans-serif" font-size="8" fill="#6b7280">2048</text><circle cx="138" cy="203.6" r="1.4" fill="#c2410c" fill-opacity="0.9"/><circle cx="139.5" cy="205.3" r="1.4" fill="#c2410c" fill-opacity="0.9"/><circle cx="141" cy="205.8" r="1.4" fill="#c2410c" fill-opacity="0.9"/><circle cx="142.5" cy="206.8" r="1.4" fill="#c2410c" fill-opacity="0.9"/><circle cx="144" cy="168.8" r="1.4" fill="#c2410c" fill-opacity="0.9"/><text x="111" y="246" text-anchor="middle" font-family="Inter,Segoe UI,Arial,sans-serif" font-size="9" font-weight="700" fill="#111827">llama.cpp</text><line x1="199" y1="155.2" x2="199" y2="206.2" stroke="#f2b705" stroke-opacity="0.55" stroke-width="1.7"/><line x1="193.24" y1="155.2" x2="204.76" y2="155.2" stroke="#f2b705" stroke-opacity="0.55" stroke-width="1.7"/><line x1="193.24" y1="206.2" x2="204.76" y2="206.2" stroke="#f2b705" stroke-opacity="0.55" stroke-width="1.7"/><rect x="191" y="199.7" width="16" height="5.2" rx="2" fill="#f2b705" fill-opacity="0.08" stroke="#f2b705" stroke-opacity="0.55" stroke-width="1.7"/><line x1="191" y1="203.9" x2="207" y2="203.9" stroke="#f2b705" stroke-opacity="0.55" stroke-width="2.4"/><text x="199" y="229" text-anchor="middle" font-family="Inter,Segoe UI,Arial,sans-serif" font-size="8" fill="#6b7280">128</text><circle cx="196" cy="199.7" r="1.4" fill="#9a6a00" fill-opacity="0.5"/><circle cx="197.5" cy="204.9" r="1.4" fill="#9a6a00" fill-opacity="0.5"/><circle cx="199" cy="203.9" r="1.4" fill="#9a6a00" fill-opacity="0.5"/><circle cx="200.5" cy="206.2" r="1.4" fill="#9a6a00" fill-opacity="0.5"/><circle cx="202" cy="155.2" r="1.4" fill="#9a6a00" fill-opacity="0.5"/><line x1="229" y1="156.7" x2="229" y2="206.2" stroke="#f2b705" stroke-opacity="0.78" stroke-width="1.7"/><line x1="223.24" y1="156.7" x2="234.76" y2="156.7" stroke="#f2b705" stroke-opacity="0.78" stroke-width="1.7"/><line x1="223.24" y1="206.2" x2="234.76" y2="206.2" stroke="#f2b705" stroke-opacity="0.78" stroke-width="1.7"/><rect x="221" y="199.8" width="16" height="3.8" rx="2" fill="#f2b705" fill-opacity="0.17" stroke="#f2b705" stroke-opacity="0.78" stroke-width="1.7"/><line x1="221" y1="202.2" x2="237" y2="202.2" stroke="#f2b705" stroke-opacity="0.78" stroke-width="2.4"/><text x="229" y="229" text-anchor="middle" font-family="Inter,Segoe UI,Arial,sans-serif" font-size="8" fill="#6b7280">512</text><circle cx="226" cy="199.8" r="1.4" fill="#9a6a00" fill-opacity="0.7"/><circle cx="227.5" cy="202.2" r="1.4" fill="#9a6a00" fill-opacity="0.7"/><circle cx="229" cy="203.6" r="1.4" fill="#9a6a00" fill-opacity="0.7"/><circle cx="230.5" cy="206.2" r="1.4" fill="#9a6a00" fill-opacity="0.7"/><circle cx="232" cy="156.7" r="1.4" fill="#9a6a00" fill-opacity="0.7"/><line x1="259" y1="157.5" x2="259" y2="206.3" stroke="#f2b705" stroke-opacity="1.0" stroke-width="1.7"/><line x1="253.24" y1="157.5" x2="264.76" y2="157.5" stroke="#f2b705" stroke-opacity="1.0" stroke-width="1.7"/><line x1="253.24" y1="206.3" x2="264.76" y2="206.3" stroke="#f2b705" stroke-opacity="1.0" stroke-width="1.7"/><rect x="251" y="200.0" width="16" height="3.7" rx="2" fill="#f2b705" fill-opacity="0.3" stroke="#f2b705" stroke-opacity="1.0" stroke-width="1.7"/><line x1="251" y1="202.3" x2="267" y2="202.3" stroke="#f2b705" stroke-opacity="1.0" stroke-width="2.4"/><text x="259" y="229" text-anchor="middle" font-family="Inter,Segoe UI,Arial,sans-serif" font-size="8" fill="#6b7280">2048</text><circle cx="256" cy="200.0" r="1.4" fill="#9a6a00" fill-opacity="0.9"/><circle cx="257.5" cy="202.3" r="1.4" fill="#9a6a00" fill-opacity="0.9"/><circle cx="259" cy="203.7" r="1.4" fill="#9a6a00" fill-opacity="0.9"/><circle cx="260.5" cy="206.3" r="1.4" fill="#9a6a00" fill-opacity="0.9"/><circle cx="262" cy="157.5" r="1.4" fill="#9a6a00" fill-opacity="0.9"/><text x="229" y="246" text-anchor="middle" font-family="Inter,Segoe UI,Arial,sans-serif" font-size="9" font-weight="700" fill="#111827">mlx_lm</text><line x1="317" y1="151.2" x2="317" y2="206.3" stroke="#2eaf5f" stroke-opacity="0.55" stroke-width="1.7"/><line x1="311.24" y1="151.2" x2="322.76" y2="151.2" stroke="#2eaf5f" stroke-opacity="0.55" stroke-width="1.7"/><line x1="311.24" y1="206.3" x2="322.76" y2="206.3" stroke="#2eaf5f" stroke-opacity="0.55" stroke-width="1.7"/><rect x="309" y="199.9" width="16" height="3.6" rx="2" fill="#2eaf5f" fill-opacity="0.08" stroke="#2eaf5f" stroke-opacity="0.55" stroke-width="1.7"/><line x1="309" y1="202.3" x2="325" y2="202.3" stroke="#2eaf5f" stroke-opacity="0.55" stroke-width="2.4"/><text x="317" y="229" text-anchor="middle" font-family="Inter,Segoe UI,Arial,sans-serif" font-size="8" fill="#6b7280">128</text><circle cx="314" cy="199.9" r="1.4" fill="#176c37" fill-opacity="0.5"/><circle cx="315.5" cy="202.3" r="1.4" fill="#176c37" fill-opacity="0.5"/><circle cx="317" cy="203.5" r="1.4" fill="#176c37" fill-opacity="0.5"/><circle cx="318.5" cy="206.3" r="1.4" fill="#176c37" fill-opacity="0.5"/><circle cx="320" cy="151.2" r="1.4" fill="#176c37" fill-opacity="0.5"/><line x1="347" y1="151.6" x2="347" y2="206.3" stroke="#2eaf5f" stroke-opacity="0.78" stroke-width="1.7"/><line x1="341.24" y1="151.6" x2="352.76" y2="151.6" stroke="#2eaf5f" stroke-opacity="0.78" stroke-width="1.7"/><line x1="341.24" y1="206.3" x2="352.76" y2="206.3" stroke="#2eaf5f" stroke-opacity="0.78" stroke-width="1.7"/><rect x="339" y="199.9" width="16" height="3.6" rx="2" fill="#2eaf5f" fill-opacity="0.17" stroke="#2eaf5f" stroke-opacity="0.78" stroke-width="1.7"/><line x1="339" y1="202.4" x2="355" y2="202.4" stroke="#2eaf5f" stroke-opacity="0.78" stroke-width="2.4"/><text x="347" y="229" text-anchor="middle" font-family="Inter,Segoe UI,Arial,sans-serif" font-size="8" fill="#6b7280">512</text><circle cx="344" cy="199.9" r="1.4" fill="#176c37" fill-opacity="0.7"/><circle cx="345.5" cy="202.4" r="1.4" fill="#176c37" fill-opacity="0.7"/><circle cx="347" cy="203.5" r="1.4" fill="#176c37" fill-opacity="0.7"/><circle cx="348.5" cy="206.3" r="1.4" fill="#176c37" fill-opacity="0.7"/><circle cx="350" cy="151.6" r="1.4" fill="#176c37" fill-opacity="0.7"/><line x1="377" y1="152.6" x2="377" y2="206.3" stroke="#2eaf5f" stroke-opacity="1.0" stroke-width="1.7"/><line x1="371.24" y1="152.6" x2="382.76" y2="152.6" stroke="#2eaf5f" stroke-opacity="1.0" stroke-width="1.7"/><line x1="371.24" y1="206.3" x2="382.76" y2="206.3" stroke="#2eaf5f" stroke-opacity="1.0" stroke-width="1.7"/><rect x="369" y="200.1" width="16" height="3.5" rx="2" fill="#2eaf5f" fill-opacity="0.3" stroke="#2eaf5f" stroke-opacity="1.0" stroke-width="1.7"/><line x1="369" y1="202.4" x2="385" y2="202.4" stroke="#2eaf5f" stroke-opacity="1.0" stroke-width="2.4"/><text x="377" y="229" text-anchor="middle" font-family="Inter,Segoe UI,Arial,sans-serif" font-size="8" fill="#6b7280">2048</text><circle cx="374" cy="200.1" r="1.4" fill="#176c37" fill-opacity="0.9"/><circle cx="375.5" cy="202.4" r="1.4" fill="#176c37" fill-opacity="0.9"/><circle cx="377" cy="203.6" r="1.4" fill="#176c37" fill-opacity="0.9"/><circle cx="378.5" cy="206.3" r="1.4" fill="#176c37" fill-opacity="0.9"/><circle cx="380" cy="152.6" r="1.4" fill="#176c37" fill-opacity="0.9"/><text x="347" y="246" text-anchor="middle" font-family="Inter,Segoe UI,Arial,sans-serif" font-size="9" font-weight="700" fill="#111827">ax_engine</text><line x1="435" y1="84.6" x2="435" y2="206.3" stroke="#137a3d" stroke-opacity="0.55" stroke-width="1.7"/><line x1="429.24" y1="84.6" x2="440.76" y2="84.6" stroke="#137a3d" stroke-opacity="0.55" stroke-width="1.7"/><line x1="429.24" y1="206.3" x2="440.76" y2="206.3" stroke="#137a3d" stroke-opacity="0.55" stroke-width="1.7"/><rect x="427" y="200.0" width="16" height="3.9" rx="2" fill="#137a3d" fill-opacity="0.08" stroke="#137a3d" stroke-opacity="0.55" stroke-width="1.7"/><line x1="427" y1="202.3" x2="443" y2="202.3" stroke="#137a3d" stroke-opacity="0.55" stroke-width="2.4"/><text x="435" y="229" text-anchor="middle" font-family="Inter,Segoe UI,Arial,sans-serif" font-size="8" fill="#6b7280">128</text><circle cx="432" cy="200.0" r="1.4" fill="#0b4f28" fill-opacity="0.5"/><circle cx="433.5" cy="202.3" r="1.4" fill="#0b4f28" fill-opacity="0.5"/><circle cx="435" cy="203.8" r="1.4" fill="#0b4f28" fill-opacity="0.5"/><circle cx="436.5" cy="206.3" r="1.4" fill="#0b4f28" fill-opacity="0.5"/><circle cx="438" cy="84.6" r="1.4" fill="#0b4f28" fill-opacity="0.5"/><line x1="465" y1="151.6" x2="465" y2="206.5" stroke="#137a3d" stroke-opacity="0.78" stroke-width="1.7"/><line x1="459.24" y1="151.6" x2="470.76" y2="151.6" stroke="#137a3d" stroke-opacity="0.78" stroke-width="1.7"/><line x1="459.24" y1="206.5" x2="470.76" y2="206.5" stroke="#137a3d" stroke-opacity="0.78" stroke-width="1.7"/><rect x="457" y="200.1" width="16" height="3.5" rx="2" fill="#137a3d" fill-opacity="0.17" stroke="#137a3d" stroke-opacity="0.78" stroke-width="1.7"/><line x1="457" y1="202.4" x2="473" y2="202.4" stroke="#137a3d" stroke-opacity="0.78" stroke-width="2.4"/><text x="465" y="229" text-anchor="middle" font-family="Inter,Segoe UI,Arial,sans-serif" font-size="8" fill="#6b7280">512</text><circle cx="462" cy="200.1" r="1.4" fill="#0b4f28" fill-opacity="0.7"/><circle cx="463.5" cy="202.4" r="1.4" fill="#0b4f28" fill-opacity="0.7"/><circle cx="465" cy="203.6" r="1.4" fill="#0b4f28" fill-opacity="0.7"/><circle cx="466.5" cy="206.5" r="1.4" fill="#0b4f28" fill-opacity="0.7"/><circle cx="468" cy="151.6" r="1.4" fill="#0b4f28" fill-opacity="0.7"/><line x1="495" y1="154.5" x2="495" y2="206.5" stroke="#137a3d" stroke-opacity="1.0" stroke-width="1.7"/><line x1="489.24" y1="154.5" x2="500.76" y2="154.5" stroke="#137a3d" stroke-opacity="1.0" stroke-width="1.7"/><line x1="489.24" y1="206.5" x2="500.76" y2="206.5" stroke="#137a3d" stroke-opacity="1.0" stroke-width="1.7"/><rect x="487" y="200.1" width="16" height="3.5" rx="2" fill="#137a3d" fill-opacity="0.3" stroke="#137a3d" stroke-opacity="1.0" stroke-width="1.7"/><line x1="487" y1="202.5" x2="503" y2="202.5" stroke="#137a3d" stroke-opacity="1.0" stroke-width="2.4"/><text x="495" y="229" text-anchor="middle" font-family="Inter,Segoe UI,Arial,sans-serif" font-size="8" fill="#6b7280">2048</text><circle cx="492" cy="200.1" r="1.4" fill="#0b4f28" fill-opacity="0.9"/><circle cx="493.5" cy="202.5" r="1.4" fill="#0b4f28" fill-opacity="0.9"/><circle cx="495" cy="203.6" r="1.4" fill="#0b4f28" fill-opacity="0.9"/><circle cx="496.5" cy="206.5" r="1.4" fill="#0b4f28" fill-opacity="0.9"/><circle cx="498" cy="154.5" r="1.4" fill="#0b4f28" fill-opacity="0.9"/><text x="465" y="246" text-anchor="middle" font-family="Inter,Segoe UI,Arial,sans-serif" font-size="9" font-weight="700" fill="#111827">ax+n-gram</text></svg>
