<svg xmlns="http://www.w3.org/2000/svg" width="900" height="460" viewBox="0 0 900 460" role="img" aria-labelledby="title desc">
<title>Qwen3.6 35B-A3B 4-bit MTP TTFT</title>
<desc>Grouped box-and-whisker plot comparing MTPLX 0.3.7, AX Engine v5.2.2, AX+ngram v5.2.2.</desc>
<rect width="100%" height="100%" fill="#f8fafc"/>
<text x="24" y="24" font-family="Inter,Segoe UI,Arial,sans-serif" font-size="16" font-weight="700" fill="#111827">Qwen3.6 35B-A3B 4-bit MTP TTFT</text>
<text x="24" y="46" font-family="Inter,Segoe UI,Arial,sans-serif" font-size="11" fill="#4b5563"><tspan>All suites combined | </tspan><tspan fill="#dc2626" font-weight="700">lower is better</tspan><tspan> | box=IQR | dots=runs</tspan></text>
<text x="24" y="62" font-family="Inter,Segoe UI,Arial,sans-serif" font-size="10" fill="#6b7280">MTPLX 0.3.7 · AX Engine v5.2.2</text>
<rect x="818" y="13" width="48" height="22" rx="11" fill="#eef2ff" stroke="#c7d2fe"/>
<text x="842.0" y="28" text-anchor="middle" font-family="Inter,Segoe UI,Arial,sans-serif" font-size="10" font-weight="700" fill="#3730a3">ms</text>
<text x="866" y="52" text-anchor="end" font-family="Inter,Segoe UI,Arial,sans-serif" font-size="10" font-weight="700" fill="#dc2626">Lower is better</text>
<rect x="64" y="86" width="676" height="268" rx="6" fill="#ffffff" stroke="#dbe3ef"/>
<line x1="64" y1="354.0" x2="740" y2="354.0" stroke="#e5e7eb" stroke-width="1"/>
<text x="56" y="357.0" text-anchor="end" font-family="Inter,Segoe UI,Arial,sans-serif" font-size="11" fill="#6b7280">0</text>
<line x1="64" y1="287.0" x2="740" y2="287.0" stroke="#e5e7eb" stroke-width="1"/>
<text x="56" y="290.0" text-anchor="end" font-family="Inter,Segoe UI,Arial,sans-serif" font-size="11" fill="#6b7280">125</text>
<line x1="64" y1="220.0" x2="740" y2="220.0" stroke="#e5e7eb" stroke-width="1"/>
<text x="56" y="223.0" text-anchor="end" font-family="Inter,Segoe UI,Arial,sans-serif" font-size="11" fill="#6b7280">250</text>
<line x1="64" y1="153.0" x2="740" y2="153.0" stroke="#e5e7eb" stroke-width="1"/>
<text x="56" y="156.0" text-anchor="end" font-family="Inter,Segoe UI,Arial,sans-serif" font-size="11" fill="#6b7280">375</text>
<line x1="64" y1="86.0" x2="740" y2="86.0" stroke="#e5e7eb" stroke-width="1"/>
<text x="56" y="89.0" text-anchor="end" font-family="Inter,Segoe UI,Arial,sans-serif" font-size="11" fill="#6b7280">500</text>
<line x1="64" y1="253.0" x2="740" y2="253.0" stroke="#dc2626" stroke-width="1.2" stroke-dasharray="1 4" stroke-linecap="round"/>
<text x="748" y="248.0" text-anchor="start" font-family="Inter,Segoe UI,Arial,sans-serif" font-size="11" font-weight="700" fill="#dc2626" data-label="lowest median">lowest: 188</text>
<text x="402.0" y="398" text-anchor="middle" font-family="Inter,Segoe UI,Arial,sans-serif" font-size="11" font-weight="700" fill="#111827">all suites</text>
<circle cx="127.8" cy="248.0" r="1.45" fill="#14532d" fill-opacity="0.46"/>
<circle cx="130.8" cy="244.8" r="1.45" fill="#14532d" fill-opacity="0.46"/>
<circle cx="133.9" cy="241.3" r="1.45" fill="#14532d" fill-opacity="0.46"/>
<circle cx="136.9" cy="247.1" r="1.45" fill="#14532d" fill-opacity="0.46"/>
<circle cx="140.0" cy="243.2" r="1.45" fill="#14532d" fill-opacity="0.46"/>
<circle cx="143.1" cy="228.8" r="1.45" fill="#14532d" fill-opacity="0.46"/>
<circle cx="146.1" cy="233.1" r="1.45" fill="#14532d" fill-opacity="0.46"/>
<circle cx="149.2" cy="232.9" r="1.45" fill="#14532d" fill-opacity="0.46"/>
<circle cx="152.2" cy="235.2" r="1.45" fill="#14532d" fill-opacity="0.46"/>
<circle cx="127.8" cy="233.8" r="1.45" fill="#14532d" fill-opacity="0.46"/>
<circle cx="130.8" cy="230.9" r="1.45" fill="#14532d" fill-opacity="0.46"/>
<circle cx="133.9" cy="225.1" r="1.45" fill="#14532d" fill-opacity="0.46"/>
<circle cx="136.9" cy="229.8" r="1.45" fill="#14532d" fill-opacity="0.46"/>
<circle cx="140.0" cy="223.7" r="1.45" fill="#14532d" fill-opacity="0.46"/>
<circle cx="143.1" cy="233.5" r="1.45" fill="#14532d" fill-opacity="0.46"/>
<circle cx="146.1" cy="241.6" r="1.45" fill="#14532d" fill-opacity="0.46"/>
<circle cx="149.2" cy="247.1" r="1.45" fill="#14532d" fill-opacity="0.46"/>
<circle cx="152.2" cy="244.6" r="1.45" fill="#14532d" fill-opacity="0.46"/>
<circle cx="127.8" cy="249.3" r="1.45" fill="#14532d" fill-opacity="0.46"/>
<circle cx="130.8" cy="248.0" r="1.45" fill="#14532d" fill-opacity="0.46"/>
<circle cx="133.9" cy="171.0" r="1.45" fill="#14532d" fill-opacity="0.46"/>
<circle cx="136.9" cy="162.1" r="1.45" fill="#14532d" fill-opacity="0.46"/>
<circle cx="140.0" cy="186.7" r="1.45" fill="#14532d" fill-opacity="0.46"/>
<circle cx="143.1" cy="193.5" r="1.45" fill="#14532d" fill-opacity="0.46"/>
<circle cx="146.1" cy="191.2" r="1.45" fill="#14532d" fill-opacity="0.46"/>
<circle cx="149.2" cy="162.1" r="1.45" fill="#14532d" fill-opacity="0.46"/>
<circle cx="152.2" cy="146.6" r="1.45" fill="#14532d" fill-opacity="0.46"/>
<circle cx="127.8" cy="140.4" r="1.45" fill="#14532d" fill-opacity="0.46"/>
<circle cx="130.8" cy="145.7" r="1.45" fill="#14532d" fill-opacity="0.46"/>
<circle cx="133.9" cy="156.3" r="1.45" fill="#14532d" fill-opacity="0.46"/>
<circle cx="136.9" cy="149.4" r="1.45" fill="#14532d" fill-opacity="0.46"/>
<circle cx="140.0" cy="149.4" r="1.45" fill="#14532d" fill-opacity="0.46"/>
<circle cx="143.1" cy="151.1" r="1.45" fill="#14532d" fill-opacity="0.46"/>
<circle cx="146.1" cy="151.6" r="1.45" fill="#14532d" fill-opacity="0.46"/>
<circle cx="149.2" cy="153.1" r="1.45" fill="#14532d" fill-opacity="0.46"/>
<circle cx="152.2" cy="164.6" r="1.45" fill="#14532d" fill-opacity="0.46"/>
<circle cx="127.8" cy="178.8" r="1.45" fill="#14532d" fill-opacity="0.46"/>
<circle cx="130.8" cy="199.2" r="1.45" fill="#14532d" fill-opacity="0.46"/>
<circle cx="133.9" cy="158.1" r="1.45" fill="#14532d" fill-opacity="0.46"/>
<circle cx="136.9" cy="188.1" r="1.45" fill="#14532d" fill-opacity="0.46"/>
<circle cx="140.0" cy="182.2" r="1.45" fill="#14532d" fill-opacity="0.46"/>
<circle cx="143.1" cy="168.1" r="1.45" fill="#14532d" fill-opacity="0.46"/>
<circle cx="146.1" cy="177.3" r="1.45" fill="#14532d" fill-opacity="0.46"/>
<circle cx="149.2" cy="173.1" r="1.45" fill="#14532d" fill-opacity="0.46"/>
<circle cx="152.2" cy="167.7" r="1.45" fill="#14532d" fill-opacity="0.46"/>
<circle cx="127.8" cy="170.9" r="1.45" fill="#14532d" fill-opacity="0.46"/>
<circle cx="130.8" cy="188.5" r="1.45" fill="#14532d" fill-opacity="0.46"/>
<circle cx="133.9" cy="163.4" r="1.45" fill="#14532d" fill-opacity="0.46"/>
<circle cx="136.9" cy="206.8" r="1.45" fill="#14532d" fill-opacity="0.46"/>
<circle cx="140.0" cy="198.5" r="1.45" fill="#14532d" fill-opacity="0.46"/>
<circle cx="143.1" cy="200.7" r="1.45" fill="#14532d" fill-opacity="0.46"/>
<circle cx="146.1" cy="194.5" r="1.45" fill="#14532d" fill-opacity="0.46"/>
<circle cx="149.2" cy="164.4" r="1.45" fill="#14532d" fill-opacity="0.46"/>
<circle cx="152.2" cy="180.4" r="1.45" fill="#14532d" fill-opacity="0.46"/>
<circle cx="127.8" cy="159.5" r="1.45" fill="#14532d" fill-opacity="0.46"/>
<line x1="140.0" y1="140.4" x2="140.0" y2="249.3" stroke="#14532d" stroke-opacity="0.82" stroke-width="1.8"/>
<line x1="127.8" y1="140.4" x2="152.2" y2="140.4" stroke="#14532d" stroke-opacity="0.82" stroke-width="1.8"/>
<line x1="127.8" y1="249.3" x2="152.2" y2="249.3" stroke="#14532d" stroke-opacity="0.82" stroke-width="1.8"/>
<rect x="123.0" y="163.9" width="34.0" height="69.1" rx="2" fill="#14532d" fill-opacity="0.18" stroke="#14532d" stroke-opacity="0.82" stroke-width="1.8"/>
<line x1="123.0" y1="188.5" x2="157.0" y2="188.5" stroke="#14532d" stroke-opacity="0.82" stroke-width="2.6"/>
<text x="163.0" y="192.5" text-anchor="start" font-family="Inter,Segoe UI,Arial,sans-serif" font-size="11" font-weight="700" fill="#111827" stroke="#ffffff" stroke-width="3" paint-order="stroke">309</text>
<circle cx="389.8" cy="262.8" r="1.45" fill="#f97316" fill-opacity="0.46"/>
<circle cx="392.8" cy="249.3" r="1.45" fill="#f97316" fill-opacity="0.46"/>
<circle cx="395.9" cy="241.8" r="1.45" fill="#f97316" fill-opacity="0.46"/>
<circle cx="398.9" cy="262.8" r="1.45" fill="#f97316" fill-opacity="0.46"/>
<circle cx="402.0" cy="212.1" r="1.45" fill="#f97316" fill-opacity="0.46"/>
<circle cx="405.1" cy="198.7" r="1.45" fill="#f97316" fill-opacity="0.46"/>
<circle cx="408.1" cy="211.9" r="1.45" fill="#f97316" fill-opacity="0.46"/>
<circle cx="411.2" cy="242.3" r="1.45" fill="#f97316" fill-opacity="0.46"/>
<circle cx="414.2" cy="267.6" r="1.45" fill="#f97316" fill-opacity="0.46"/>
<circle cx="389.8" cy="259.4" r="1.45" fill="#f97316" fill-opacity="0.46"/>
<circle cx="392.8" cy="258.5" r="1.45" fill="#f97316" fill-opacity="0.46"/>
<line x1="402.0" y1="198.7" x2="402.0" y2="267.6" stroke="#f97316" stroke-opacity="0.82" stroke-width="1.8"/>
<line x1="389.8" y1="198.7" x2="414.2" y2="198.7" stroke="#f97316" stroke-opacity="0.82" stroke-width="1.8"/>
<line x1="389.8" y1="267.6" x2="414.2" y2="267.6" stroke="#f97316" stroke-opacity="0.82" stroke-width="1.8"/>
<rect x="385.0" y="227.0" width="34.0" height="34.1" rx="2" fill="#f97316" fill-opacity="0.18" stroke="#f97316" stroke-opacity="0.82" stroke-width="1.8"/>
<line x1="385.0" y1="249.3" x2="419.0" y2="249.3" stroke="#f97316" stroke-opacity="0.82" stroke-width="2.6"/>
<text x="425.0" y="253.3" text-anchor="start" font-family="Inter,Segoe UI,Arial,sans-serif" font-size="11" font-weight="700" fill="#111827" stroke="#ffffff" stroke-width="3" paint-order="stroke">195</text>
<circle cx="651.8" cy="263.3" r="1.45" fill="#eab308" fill-opacity="0.46"/>
<circle cx="654.8" cy="253.0" r="1.45" fill="#eab308" fill-opacity="0.46"/>
<circle cx="657.9" cy="244.3" r="1.45" fill="#eab308" fill-opacity="0.46"/>
<circle cx="660.9" cy="264.2" r="1.45" fill="#eab308" fill-opacity="0.46"/>
<circle cx="664.0" cy="213.4" r="1.45" fill="#eab308" fill-opacity="0.46"/>
<circle cx="667.1" cy="199.4" r="1.45" fill="#eab308" fill-opacity="0.46"/>
<circle cx="670.1" cy="210.6" r="1.45" fill="#eab308" fill-opacity="0.46"/>
<circle cx="673.2" cy="241.9" r="1.45" fill="#eab308" fill-opacity="0.46"/>
<circle cx="676.2" cy="265.7" r="1.45" fill="#eab308" fill-opacity="0.46"/>
<circle cx="651.8" cy="259.4" r="1.45" fill="#eab308" fill-opacity="0.46"/>
<circle cx="654.8" cy="257.8" r="1.45" fill="#eab308" fill-opacity="0.46"/>
<line x1="664.0" y1="199.4" x2="664.0" y2="265.7" stroke="#eab308" stroke-opacity="0.82" stroke-width="1.8"/>
<line x1="651.8" y1="199.4" x2="676.2" y2="199.4" stroke="#eab308" stroke-opacity="0.82" stroke-width="1.8"/>
<line x1="651.8" y1="265.7" x2="676.2" y2="265.7" stroke="#eab308" stroke-opacity="0.82" stroke-width="1.8"/>
<rect x="647.0" y="227.7" width="34.0" height="33.7" rx="2" fill="#eab308" fill-opacity="0.18" stroke="#eab308" stroke-opacity="0.82" stroke-width="1.8"/>
<line x1="647.0" y1="253.0" x2="681.0" y2="253.0" stroke="#eab308" stroke-opacity="0.82" stroke-width="2.6"/>
<text x="687.0" y="257.0" text-anchor="start" font-family="Inter,Segoe UI,Arial,sans-serif" font-size="11" font-weight="700" fill="#111827" stroke="#ffffff" stroke-width="3" paint-order="stroke">188</text>
<rect x="64" y="433" width="10" height="10" rx="2" fill="#14532d" fill-opacity="0.86"/>
<text x="78" y="442" font-family="Inter,Segoe UI,Arial,sans-serif" font-size="10" fill="#374151">MTPLX 0.3.7</text>
<rect x="289.33333333333337" y="433" width="10" height="10" rx="2" fill="#f97316" fill-opacity="0.86"/>
<text x="303.33333333333337" y="442" font-family="Inter,Segoe UI,Arial,sans-serif" font-size="10" fill="#374151">AX Engine v5.2.2</text>
<rect x="514.6666666666667" y="433" width="10" height="10" rx="2" fill="#eab308" fill-opacity="0.86"/>
<text x="528.6666666666667" y="442" font-family="Inter,Segoe UI,Arial,sans-serif" font-size="10" fill="#374151">AX+ngram v5.2.2</text>
</svg>
