<svg xmlns="http://www.w3.org/2000/svg" width="920" height="430" viewBox="0 0 920 430" role="img" aria-labelledby="title desc">
<title>Gemma 4 12B multimodal chat latency</title>
<desc>OpenAI chat endpoint latency, matched output-token cases only 9 measured peer case(s).</desc>
<rect width="100%" height="100%" fill="#f8fafc"/>
<text id="title" x="82" y="28" font-family="Inter,Segoe UI,Arial,sans-serif" font-size="16" font-weight="700" fill="#111827">Gemma 4 12B multimodal chat latency</text>
<text x="82" y="48" font-family="Inter,Segoe UI,Arial,sans-serif" font-size="11" fill="#4b5563">OpenAI chat endpoint latency, matched output-token cases only</text>
<text x="888" y="31" text-anchor="end" font-family="Inter,Segoe UI,Arial,sans-serif" font-size="10" font-weight="700" fill="#dc2626">Lower is better</text>
<rect x="82" y="82" width="658" height="230" rx="6" fill="#ffffff" stroke="#dbe3ef"/>
<line x1="82" y1="312.0" x2="740" y2="312.0" stroke="#e5e7eb" stroke-width="1"/>
<text x="72" y="316.0" text-anchor="end" font-family="Inter,Segoe UI,Arial,sans-serif" font-size="11" fill="#6b7280">0.00</text>
<line x1="82" y1="254.5" x2="740" y2="254.5" stroke="#e5e7eb" stroke-width="1"/>
<text x="72" y="258.5" text-anchor="end" font-family="Inter,Segoe UI,Arial,sans-serif" font-size="11" fill="#6b7280">625.0</text>
<line x1="82" y1="197.0" x2="740" y2="197.0" stroke="#e5e7eb" stroke-width="1"/>
<text x="72" y="201.0" text-anchor="end" font-family="Inter,Segoe UI,Arial,sans-serif" font-size="11" fill="#6b7280">1,250</text>
<line x1="82" y1="139.5" x2="740" y2="139.5" stroke="#e5e7eb" stroke-width="1"/>
<text x="72" y="143.5" text-anchor="end" font-family="Inter,Segoe UI,Arial,sans-serif" font-size="11" fill="#6b7280">1,875</text>
<line x1="82" y1="82.0" x2="740" y2="82.0" stroke="#e5e7eb" stroke-width="1"/>
<text x="72" y="86.0" text-anchor="end" font-family="Inter,Segoe UI,Arial,sans-serif" font-size="11" fill="#6b7280">2,500</text>
<rect x="96.0" y="265.5" width="24.0" height="46.5" rx="3" fill="#f59e0b" fill-opacity="0.30" stroke="#b45309" stroke-width="1.5"/>
<line x1="96.0" y1="265.5" x2="120.0" y2="265.5" stroke="#b45309" stroke-width="2"/>
<text x="108.0" y="259.5" text-anchor="middle" font-family="Inter,Segoe UI,Arial,sans-serif" font-size="8" font-weight="700" fill="#111827">505.6</text>
<rect x="124.0" y="151.5" width="24.0" height="160.5" rx="3" fill="#2eaf5f" fill-opacity="0.30" stroke="#176c37" stroke-width="1.5"/>
<line x1="124.0" y1="151.5" x2="148.0" y2="151.5" stroke="#176c37" stroke-width="2"/>
<text x="136.0" y="145.5" text-anchor="middle" font-family="Inter,Segoe UI,Arial,sans-serif" font-size="8" font-weight="700" fill="#111827">1,745</text>
<text x="124.8" y="330.0" text-anchor="middle" font-family="Inter,Segoe UI,Arial,sans-serif" font-size="9" fill="#111827" transform="rotate(45 124.8 330.0)">image_multi_2x256soft</text>
<rect x="167.6" y="276.9" width="24.0" height="35.1" rx="3" fill="#f59e0b" fill-opacity="0.30" stroke="#b45309" stroke-width="1.5"/>
<line x1="167.6" y1="276.9" x2="191.6" y2="276.9" stroke="#b45309" stroke-width="2"/>
<text x="179.6" y="270.9" text-anchor="middle" font-family="Inter,Segoe UI,Arial,sans-serif" font-size="8" font-weight="700" fill="#111827">381.1</text>
<rect x="195.6" y="148.5" width="24.0" height="163.5" rx="3" fill="#2eaf5f" fill-opacity="0.30" stroke="#176c37" stroke-width="1.5"/>
<line x1="195.6" y1="148.5" x2="219.6" y2="148.5" stroke="#176c37" stroke-width="2"/>
<text x="207.6" y="142.5" text-anchor="middle" font-family="Inter,Segoe UI,Arial,sans-serif" font-size="8" font-weight="700" fill="#111827">1,778</text>
<text x="196.3" y="330.0" text-anchor="middle" font-family="Inter,Segoe UI,Arial,sans-serif" font-size="9" fill="#111827" transform="rotate(45 196.3 330.0)">image_aspect_portrait</text>
<rect x="239.1" y="276.2" width="24.0" height="35.8" rx="3" fill="#f59e0b" fill-opacity="0.30" stroke="#b45309" stroke-width="1.5"/>
<line x1="239.1" y1="276.2" x2="263.1" y2="276.2" stroke="#b45309" stroke-width="2"/>
<text x="251.1" y="270.2" text-anchor="middle" font-family="Inter,Segoe UI,Arial,sans-serif" font-size="8" font-weight="700" fill="#111827">388.9</text>
<rect x="267.1" y="160.6" width="24.0" height="151.4" rx="3" fill="#2eaf5f" fill-opacity="0.30" stroke="#176c37" stroke-width="1.5"/>
<line x1="267.1" y1="160.6" x2="291.1" y2="160.6" stroke="#176c37" stroke-width="2"/>
<text x="279.1" y="154.6" text-anchor="middle" font-family="Inter,Segoe UI,Arial,sans-serif" font-size="8" font-weight="700" fill="#111827">1,646</text>
<text x="267.9" y="330.0" text-anchor="middle" font-family="Inter,Segoe UI,Arial,sans-serif" font-size="9" fill="#111827" transform="rotate(45 267.9 330.0)">image_aspect_landscape</text>
<rect x="310.7" y="275.3" width="24.0" height="36.7" rx="3" fill="#f59e0b" fill-opacity="0.30" stroke="#b45309" stroke-width="1.5"/>
<line x1="310.7" y1="275.3" x2="334.7" y2="275.3" stroke="#b45309" stroke-width="2"/>
<text x="322.7" y="269.3" text-anchor="middle" font-family="Inter,Segoe UI,Arial,sans-serif" font-size="8" font-weight="700" fill="#111827">398.5</text>
<rect x="338.7" y="164.5" width="24.0" height="147.5" rx="3" fill="#2eaf5f" fill-opacity="0.30" stroke="#176c37" stroke-width="1.5"/>
<line x1="338.7" y1="164.5" x2="362.7" y2="164.5" stroke="#176c37" stroke-width="2"/>
<text x="350.7" y="158.5" text-anchor="middle" font-family="Inter,Segoe UI,Arial,sans-serif" font-size="8" font-weight="700" fill="#111827">1,604</text>
<text x="339.4" y="330.0" text-anchor="middle" font-family="Inter,Segoe UI,Arial,sans-serif" font-size="9" fill="#111827" transform="rotate(45 339.4 330.0)">image_max_soft_tokens</text>
<rect x="382.2" y="282.1" width="24.0" height="29.9" rx="3" fill="#f59e0b" fill-opacity="0.30" stroke="#b45309" stroke-width="1.5"/>
<line x1="382.2" y1="282.1" x2="406.2" y2="282.1" stroke="#b45309" stroke-width="2"/>
<text x="394.2" y="276.1" text-anchor="middle" font-family="Inter,Segoe UI,Arial,sans-serif" font-size="8" font-weight="700" fill="#111827">324.9</text>
<rect x="410.2" y="176.6" width="24.0" height="135.4" rx="3" fill="#2eaf5f" fill-opacity="0.30" stroke="#176c37" stroke-width="1.5"/>
<line x1="410.2" y1="176.6" x2="434.2" y2="176.6" stroke="#176c37" stroke-width="2"/>
<text x="422.2" y="170.6" text-anchor="middle" font-family="Inter,Segoe UI,Arial,sans-serif" font-size="8" font-weight="700" fill="#111827">1,472</text>
<text x="411.0" y="330.0" text-anchor="middle" font-family="Inter,Segoe UI,Arial,sans-serif" font-size="9" fill="#111827" transform="rotate(45 411.0 330.0)">audio_0_5s</text>
<rect x="453.8" y="278.0" width="24.0" height="34.0" rx="3" fill="#f59e0b" fill-opacity="0.30" stroke="#b45309" stroke-width="1.5"/>
<line x1="453.8" y1="278.0" x2="477.8" y2="278.0" stroke="#b45309" stroke-width="2"/>
<text x="465.8" y="272.0" text-anchor="middle" font-family="Inter,Segoe UI,Arial,sans-serif" font-size="8" font-weight="700" fill="#111827">370.1</text>
<rect x="481.8" y="174.1" width="24.0" height="137.9" rx="3" fill="#2eaf5f" fill-opacity="0.30" stroke="#176c37" stroke-width="1.5"/>
<line x1="481.8" y1="174.1" x2="505.8" y2="174.1" stroke="#176c37" stroke-width="2"/>
<text x="493.8" y="168.1" text-anchor="middle" font-family="Inter,Segoe UI,Arial,sans-serif" font-size="8" font-weight="700" fill="#111827">1,499</text>
<text x="482.6" y="330.0" text-anchor="middle" font-family="Inter,Segoe UI,Arial,sans-serif" font-size="9" fill="#111827" transform="rotate(45 482.6 330.0)">audio_2s</text>
<rect x="525.3" y="294.6" width="24.0" height="17.4" rx="3" fill="#f59e0b" fill-opacity="0.30" stroke="#b45309" stroke-width="1.5"/>
<line x1="525.3" y1="294.6" x2="549.3" y2="294.6" stroke="#b45309" stroke-width="2"/>
<text x="537.3" y="288.6" text-anchor="middle" font-family="Inter,Segoe UI,Arial,sans-serif" font-size="8" font-weight="700" fill="#111827">188.7</text>
<rect x="553.3" y="150.5" width="24.0" height="161.5" rx="3" fill="#2eaf5f" fill-opacity="0.30" stroke="#176c37" stroke-width="1.5"/>
<line x1="553.3" y1="150.5" x2="577.3" y2="150.5" stroke="#176c37" stroke-width="2"/>
<text x="565.3" y="144.5" text-anchor="middle" font-family="Inter,Segoe UI,Arial,sans-serif" font-size="8" font-weight="700" fill="#111827">1,755</text>
<text x="554.1" y="330.0" text-anchor="middle" font-family="Inter,Segoe UI,Arial,sans-serif" font-size="9" fill="#111827" transform="rotate(45 554.1 330.0)">audio_10s</text>
<rect x="596.9" y="292.3" width="24.0" height="19.7" rx="3" fill="#f59e0b" fill-opacity="0.30" stroke="#b45309" stroke-width="1.5"/>
<line x1="596.9" y1="292.3" x2="620.9" y2="292.3" stroke="#b45309" stroke-width="2"/>
<text x="608.9" y="286.3" text-anchor="middle" font-family="Inter,Segoe UI,Arial,sans-serif" font-size="8" font-weight="700" fill="#111827">214.6</text>
<rect x="624.9" y="127.6" width="24.0" height="184.4" rx="3" fill="#2eaf5f" fill-opacity="0.30" stroke="#176c37" stroke-width="1.5"/>
<line x1="624.9" y1="127.6" x2="648.9" y2="127.6" stroke="#176c37" stroke-width="2"/>
<text x="636.9" y="121.6" text-anchor="middle" font-family="Inter,Segoe UI,Arial,sans-serif" font-size="8" font-weight="700" fill="#111827">2,004</text>
<text x="625.7" y="330.0" text-anchor="middle" font-family="Inter,Segoe UI,Arial,sans-serif" font-size="9" fill="#111827" transform="rotate(45 625.7 330.0)">audio_cap</text>
<rect x="668.4" y="267.3" width="24.0" height="44.7" rx="3" fill="#f59e0b" fill-opacity="0.30" stroke="#b45309" stroke-width="1.5"/>
<line x1="668.4" y1="267.3" x2="692.4" y2="267.3" stroke="#b45309" stroke-width="2"/>
<text x="680.4" y="261.3" text-anchor="middle" font-family="Inter,Segoe UI,Arial,sans-serif" font-size="8" font-weight="700" fill="#111827">486.4</text>
<rect x="696.4" y="164.3" width="24.0" height="147.7" rx="3" fill="#2eaf5f" fill-opacity="0.30" stroke="#176c37" stroke-width="1.5"/>
<line x1="696.4" y1="164.3" x2="720.4" y2="164.3" stroke="#176c37" stroke-width="2"/>
<text x="708.4" y="158.3" text-anchor="middle" font-family="Inter,Segoe UI,Arial,sans-serif" font-size="8" font-weight="700" fill="#111827">1,605</text>
<text x="697.2" y="330.0" text-anchor="middle" font-family="Inter,Segoe UI,Arial,sans-serif" font-size="9" fill="#111827" transform="rotate(45 697.2 330.0)">image_audio</text>
<rect x="756" y="102" width="12" height="12" rx="2" fill="#f59e0b" fill-opacity="0.30" stroke="#b45309"/>
<text x="776" y="112" font-family="Inter,Segoe UI,Arial,sans-serif" font-size="11" fill="#374151">llama.cpp</text>
<rect x="756" y="124" width="12" height="12" rx="2" fill="#2eaf5f" fill-opacity="0.30" stroke="#176c37"/>
<text x="776" y="134" font-family="Inter,Segoe UI,Arial,sans-serif" font-size="11" fill="#374151">AX Engine</text>
<text x="756" y="172" font-family="Inter,Segoe UI,Arial,sans-serif" font-size="10" fill="#6b7280">unit: endpoint ms</text>
<text x="756" y="190" font-family="Inter,Segoe UI,Arial,sans-serif" font-size="10" fill="#6b7280">not throughput</text>
<text x="82" y="410" font-family="Inter,Segoe UI,Arial,sans-serif" font-size="10" fill="#6b7280">Endpoint latency only; prompt token accounting differs by engine; 1 measured peer case(s) excluded for output-token mismatch; 3 reps, max_output_tokens=8</text>
</svg>
