<svg xmlns="http://www.w3.org/2000/svg" width="460" height="276" viewBox="0 0 460 276" role="img" aria-labelledby="title desc"><title>Prefill rate</title><desc>Box-and-Whisker Plot comparing llama.cpp Metal, mlx_lm, ax_engine, and ax_engine plus n-gram across README benchmark rows. A red dotted horizontal line marks the ax_engine plus n-gram median.</desc><rect width="460" height="276" fill="#ffffff"/><text x="52" y="22" font-family="Inter,Segoe UI,Arial,sans-serif" font-size="16" font-weight="700" fill="#111827">Prefill rate</text><text x="442" y="22" text-anchor="end" font-family="Inter,Segoe UI,Arial,sans-serif" font-size="10" fill="#6b7280">tok/s</text><text x="442" y="40" text-anchor="end" font-family="Inter,Segoe UI,Arial,sans-serif" font-size="10" font-weight="700" fill="#374151">Higher is better</text><line x1="52" y1="206.0" x2="442" y2="206.0" stroke="#e5e7eb" stroke-width="1"/><text x="44" y="209.0" text-anchor="end" font-family="Inter,Segoe UI,Arial,sans-serif" font-size="10" fill="#6b7280">0</text><line x1="52" y1="126.0" x2="442" y2="126.0" stroke="#e5e7eb" stroke-width="1"/><text x="44" y="129.0" text-anchor="end" font-family="Inter,Segoe UI,Arial,sans-serif" font-size="10" fill="#6b7280">4.5k</text><line x1="52" y1="46.0" x2="442" y2="46.0" stroke="#e5e7eb" stroke-width="1"/><text x="44" y="49.0" text-anchor="end" font-family="Inter,Segoe UI,Arial,sans-serif" font-size="10" fill="#6b7280">9k</text><line x1="52" y1="151.2" x2="442" y2="151.2" stroke="#dc2626" stroke-width="1.2" stroke-dasharray="2 4"/><rect x="300" y="50" width="135" height="160" fill="none" stroke="#dc2626" stroke-width="1.4"/><line x1="78" y1="63.1" x2="78" y2="196.8" stroke="#f97316" stroke-width="2"/><line x1="68" y1="63.1" x2="88" y2="63.1" stroke="#f97316" stroke-width="2"/><line x1="68" y1="196.8" x2="88" y2="196.8" stroke="#f97316" stroke-width="2"/><rect x="61" y="127.3" width="34" height="68.5" rx="4" fill="#f97316" fill-opacity="0.18" stroke="#f97316" stroke-width="2"/><line x1="61" y1="156.9" x2="95" y2="156.9" stroke="#f97316" stroke-width="3"/><text x="78" y="230" text-anchor="middle" font-family="Inter,Segoe UI,Arial,sans-serif" font-size="9" fill="#111827">llama.cpp</text><text x="78" y="246" text-anchor="middle" font-family="Inter,Segoe UI,Arial,sans-serif" font-size="10" fill="#6b7280">med 2.8k</text><circle cx="69.5" cy="138.5" r="2" fill="#c2410c" fill-opacity="0.9"/><circle cx="73" cy="76.7" r="2" fill="#c2410c" fill-opacity="0.9"/><circle cx="76" cy="69.9" r="2" fill="#c2410c" fill-opacity="0.9"/><circle cx="79.5" cy="145.6" r="2" fill="#c2410c" fill-opacity="0.9"/><circle cx="83" cy="80.3" r="2" fill="#c2410c" fill-opacity="0.9"/><circle cx="86.5" cy="72.9" r="2" fill="#c2410c" fill-opacity="0.9"/><circle cx="71.5" cy="140.4" r="2" fill="#c2410c" fill-opacity="0.9"/><circle cx="81.5" cy="75.9" r="2" fill="#c2410c" fill-opacity="0.9"/><circle cx="69.5" cy="69.8" r="2" fill="#c2410c" fill-opacity="0.9"/><circle cx="73" cy="140.1" r="2" fill="#c2410c" fill-opacity="0.9"/><circle cx="76" cy="72.5" r="2" fill="#c2410c" fill-opacity="0.9"/><circle cx="79.5" cy="63.1" r="2" fill="#c2410c" fill-opacity="0.9"/><circle cx="83" cy="164.8" r="2" fill="#c2410c" fill-opacity="0.9"/><circle cx="86.5" cy="127.1" r="2" fill="#c2410c" fill-opacity="0.9"/><circle cx="71.5" cy="127.4" r="2" fill="#c2410c" fill-opacity="0.9"/><circle cx="81.5" cy="171.4" r="2" fill="#c2410c" fill-opacity="0.9"/><circle cx="69.5" cy="144.0" r="2" fill="#c2410c" fill-opacity="0.9"/><circle cx="73" cy="141.9" r="2" fill="#c2410c" fill-opacity="0.9"/><circle cx="76" cy="196.6" r="2" fill="#c2410c" fill-opacity="0.9"/><circle cx="79.5" cy="194.1" r="2" fill="#c2410c" fill-opacity="0.9"/><circle cx="83" cy="196.7" r="2" fill="#c2410c" fill-opacity="0.9"/><circle cx="86.5" cy="196.6" r="2" fill="#c2410c" fill-opacity="0.9"/><circle cx="71.5" cy="196.4" r="2" fill="#c2410c" fill-opacity="0.9"/><circle cx="81.5" cy="193.9" r="2" fill="#c2410c" fill-opacity="0.9"/><circle cx="69.5" cy="196.8" r="2" fill="#c2410c" fill-opacity="0.9"/><circle cx="73" cy="196.1" r="2" fill="#c2410c" fill-opacity="0.9"/><circle cx="76" cy="196.2" r="2" fill="#c2410c" fill-opacity="0.9"/><circle cx="79.5" cy="196.4" r="2" fill="#c2410c" fill-opacity="0.9"/><circle cx="83" cy="195.2" r="2" fill="#c2410c" fill-opacity="0.9"/><circle cx="86.5" cy="195.7" r="2" fill="#c2410c" fill-opacity="0.9"/><circle cx="71.5" cy="196.1" r="2" fill="#c2410c" fill-opacity="0.9"/><circle cx="81.5" cy="194.4" r="2" fill="#c2410c" fill-opacity="0.9"/><circle cx="69.5" cy="195.1" r="2" fill="#c2410c" fill-opacity="0.9"/><circle cx="73" cy="175.0" r="2" fill="#c2410c" fill-opacity="0.9"/><circle cx="76" cy="149.0" r="2" fill="#c2410c" fill-opacity="0.9"/><circle cx="79.5" cy="142.4" r="2" fill="#c2410c" fill-opacity="0.9"/><line x1="159.25" y1="46.0" x2="159.25" y2="202.1" stroke="#f2b705" stroke-width="2"/><line x1="149.25" y1="46.0" x2="169.25" y2="46.0" stroke="#f2b705" stroke-width="2"/><line x1="149.25" y1="202.1" x2="169.25" y2="202.1" stroke="#f2b705" stroke-width="2"/><rect x="142.25" y="123.2" width="34" height="72.3" rx="4" fill="#f2b705" fill-opacity="0.18" stroke="#f2b705" stroke-width="2"/><line x1="142.25" y1="178.3" x2="176.25" y2="178.3" stroke="#f2b705" stroke-width="3"/><text x="159.25" y="230" text-anchor="middle" font-family="Inter,Segoe UI,Arial,sans-serif" font-size="9" fill="#111827">mlx_lm</text><text x="159.25" y="246" text-anchor="middle" font-family="Inter,Segoe UI,Arial,sans-serif" font-size="10" fill="#6b7280">med 1.6k</text><circle cx="150.75" cy="164.4" r="2" fill="#9a6a00" fill-opacity="0.9"/><circle cx="154.25" cy="66.1" r="2" fill="#9a6a00" fill-opacity="0.9"/><circle cx="157.25" cy="46.0" r="2" fill="#9a6a00" fill-opacity="0.9"/><circle cx="160.75" cy="166.2" r="2" fill="#9a6a00" fill-opacity="0.9"/><circle cx="164.25" cy="73.2" r="2" fill="#9a6a00" fill-opacity="0.9"/><circle cx="167.75" cy="46.0" r="2" fill="#9a6a00" fill-opacity="0.9"/><circle cx="152.75" cy="173.6" r="2" fill="#9a6a00" fill-opacity="0.9"/><circle cx="162.75" cy="98.5" r="2" fill="#9a6a00" fill-opacity="0.9"/><circle cx="150.75" cy="46.0" r="2" fill="#9a6a00" fill-opacity="0.9"/><circle cx="154.25" cy="177.5" r="2" fill="#9a6a00" fill-opacity="0.9"/><circle cx="157.25" cy="93.4" r="2" fill="#9a6a00" fill-opacity="0.9"/><circle cx="160.75" cy="46.0" r="2" fill="#9a6a00" fill-opacity="0.9"/><circle cx="164.25" cy="179.1" r="2" fill="#9a6a00" fill-opacity="0.9"/><circle cx="167.75" cy="131.4" r="2" fill="#9a6a00" fill-opacity="0.9"/><circle cx="152.75" cy="75.8" r="2" fill="#9a6a00" fill-opacity="0.9"/><circle cx="162.75" cy="197.2" r="2" fill="#9a6a00" fill-opacity="0.9"/><circle cx="150.75" cy="177.2" r="2" fill="#9a6a00" fill-opacity="0.9"/><circle cx="154.25" cy="147.3" r="2" fill="#9a6a00" fill-opacity="0.9"/><circle cx="157.25" cy="201.0" r="2" fill="#9a6a00" fill-opacity="0.9"/><circle cx="160.75" cy="195.0" r="2" fill="#9a6a00" fill-opacity="0.9"/><circle cx="164.25" cy="193.0" r="2" fill="#9a6a00" fill-opacity="0.9"/><circle cx="167.75" cy="199.3" r="2" fill="#9a6a00" fill-opacity="0.9"/><circle cx="152.75" cy="193.5" r="2" fill="#9a6a00" fill-opacity="0.9"/><circle cx="162.75" cy="190.1" r="2" fill="#9a6a00" fill-opacity="0.9"/><circle cx="150.75" cy="201.0" r="2" fill="#9a6a00" fill-opacity="0.9"/><circle cx="154.25" cy="195.3" r="2" fill="#9a6a00" fill-opacity="0.9"/><circle cx="157.25" cy="191.3" r="2" fill="#9a6a00" fill-opacity="0.9"/><circle cx="160.75" cy="201.2" r="2" fill="#9a6a00" fill-opacity="0.9"/><circle cx="164.25" cy="195.7" r="2" fill="#9a6a00" fill-opacity="0.9"/><circle cx="167.75" cy="191.8" r="2" fill="#9a6a00" fill-opacity="0.9"/><circle cx="152.75" cy="202.1" r="2" fill="#9a6a00" fill-opacity="0.9"/><circle cx="162.75" cy="196.8" r="2" fill="#9a6a00" fill-opacity="0.9"/><circle cx="150.75" cy="192.0" r="2" fill="#9a6a00" fill-opacity="0.9"/><circle cx="154.25" cy="196.4" r="2" fill="#9a6a00" fill-opacity="0.9"/><circle cx="157.25" cy="177.6" r="2" fill="#9a6a00" fill-opacity="0.9"/><circle cx="160.75" cy="143.5" r="2" fill="#9a6a00" fill-opacity="0.9"/><line x1="240.5" y1="47.4" x2="240.5" y2="193.7" stroke="#2eaf5f" stroke-width="2"/><line x1="230.5" y1="47.4" x2="250.5" y2="47.4" stroke="#2eaf5f" stroke-width="2"/><line x1="230.5" y1="193.7" x2="250.5" y2="193.7" stroke="#2eaf5f" stroke-width="2"/><rect x="223.5" y="119.5" width="34" height="70.9" rx="4" fill="#2eaf5f" fill-opacity="0.18" stroke="#2eaf5f" stroke-width="2"/><line x1="223.5" y1="151.3" x2="257.5" y2="151.3" stroke="#2eaf5f" stroke-width="3"/><text x="240.5" y="230" text-anchor="middle" font-family="Inter,Segoe UI,Arial,sans-serif" font-size="9" fill="#111827">ax_engine</text><text x="240.5" y="246" text-anchor="middle" font-family="Inter,Segoe UI,Arial,sans-serif" font-size="10" fill="#6b7280">med 3.1k</text><circle cx="232" cy="134.4" r="2" fill="#176c37" fill-opacity="0.9"/><circle cx="235.5" cy="47.4" r="2" fill="#176c37" fill-opacity="0.9"/><circle cx="238.5" cy="59.2" r="2" fill="#176c37" fill-opacity="0.9"/><circle cx="242" cy="136.0" r="2" fill="#176c37" fill-opacity="0.9"/><circle cx="245.5" cy="49.8" r="2" fill="#176c37" fill-opacity="0.9"/><circle cx="249" cy="63.7" r="2" fill="#176c37" fill-opacity="0.9"/><circle cx="234" cy="136.9" r="2" fill="#176c37" fill-opacity="0.9"/><circle cx="244" cy="52.6" r="2" fill="#176c37" fill-opacity="0.9"/><circle cx="232" cy="64.4" r="2" fill="#176c37" fill-opacity="0.9"/><circle cx="235.5" cy="137.7" r="2" fill="#176c37" fill-opacity="0.9"/><circle cx="238.5" cy="53.1" r="2" fill="#176c37" fill-opacity="0.9"/><circle cx="242" cy="62.2" r="2" fill="#176c37" fill-opacity="0.9"/><circle cx="245.5" cy="149.2" r="2" fill="#176c37" fill-opacity="0.9"/><circle cx="249" cy="117.9" r="2" fill="#176c37" fill-opacity="0.9"/><circle cx="234" cy="120.1" r="2" fill="#176c37" fill-opacity="0.9"/><circle cx="244" cy="180.3" r="2" fill="#176c37" fill-opacity="0.9"/><circle cx="232" cy="151.1" r="2" fill="#176c37" fill-opacity="0.9"/><circle cx="235.5" cy="126.1" r="2" fill="#176c37" fill-opacity="0.9"/><circle cx="238.5" cy="193.7" r="2" fill="#176c37" fill-opacity="0.9"/><circle cx="242" cy="191.7" r="2" fill="#176c37" fill-opacity="0.9"/><circle cx="245.5" cy="192.8" r="2" fill="#176c37" fill-opacity="0.9"/><circle cx="249" cy="191.8" r="2" fill="#176c37" fill-opacity="0.9"/><circle cx="234" cy="189.5" r="2" fill="#176c37" fill-opacity="0.9"/><circle cx="244" cy="189.5" r="2" fill="#176c37" fill-opacity="0.9"/><circle cx="232" cy="192.6" r="2" fill="#176c37" fill-opacity="0.9"/><circle cx="235.5" cy="190.4" r="2" fill="#176c37" fill-opacity="0.9"/><circle cx="238.5" cy="190.4" r="2" fill="#176c37" fill-opacity="0.9"/><circle cx="242" cy="193.1" r="2" fill="#176c37" fill-opacity="0.9"/><circle cx="245.5" cy="190.7" r="2" fill="#176c37" fill-opacity="0.9"/><circle cx="249" cy="190.6" r="2" fill="#176c37" fill-opacity="0.9"/><circle cx="234" cy="193.2" r="2" fill="#176c37" fill-opacity="0.9"/><circle cx="244" cy="190.5" r="2" fill="#176c37" fill-opacity="0.9"/><circle cx="232" cy="190.4" r="2" fill="#176c37" fill-opacity="0.9"/><circle cx="235.5" cy="181.8" r="2" fill="#176c37" fill-opacity="0.9"/><circle cx="238.5" cy="151.5" r="2" fill="#176c37" fill-opacity="0.9"/><circle cx="242" cy="150.5" r="2" fill="#176c37" fill-opacity="0.9"/><line x1="321.75" y1="46.8" x2="321.75" y2="193.7" stroke="#137a3d" stroke-width="2"/><line x1="311.75" y1="46.8" x2="331.75" y2="46.8" stroke="#137a3d" stroke-width="2"/><line x1="311.75" y1="193.7" x2="331.75" y2="193.7" stroke="#137a3d" stroke-width="2"/><rect x="304.75" y="119.6" width="34" height="70.9" rx="4" fill="#137a3d" fill-opacity="0.18" stroke="#137a3d" stroke-width="2"/><line x1="304.75" y1="151.2" x2="338.75" y2="151.2" stroke="#137a3d" stroke-width="3"/><text x="321.75" y="230" text-anchor="middle" font-family="Inter,Segoe UI,Arial,sans-serif" font-size="9" fill="#111827">ax_engine + n-gram</text><text x="321.75" y="246" text-anchor="middle" font-family="Inter,Segoe UI,Arial,sans-serif" font-size="10" fill="#6b7280">med 3.1k</text><circle cx="313.25" cy="133.5" r="2" fill="#0b4f28" fill-opacity="0.9"/><circle cx="316.75" cy="46.8" r="2" fill="#0b4f28" fill-opacity="0.9"/><circle cx="319.75" cy="58.8" r="2" fill="#0b4f28" fill-opacity="0.9"/><circle cx="323.25" cy="135.4" r="2" fill="#0b4f28" fill-opacity="0.9"/><circle cx="326.75" cy="50.6" r="2" fill="#0b4f28" fill-opacity="0.9"/><circle cx="330.25" cy="62.7" r="2" fill="#0b4f28" fill-opacity="0.9"/><circle cx="315.25" cy="136.7" r="2" fill="#0b4f28" fill-opacity="0.9"/><circle cx="325.25" cy="56.8" r="2" fill="#0b4f28" fill-opacity="0.9"/><circle cx="313.25" cy="64.7" r="2" fill="#0b4f28" fill-opacity="0.9"/><circle cx="316.75" cy="137.6" r="2" fill="#0b4f28" fill-opacity="0.9"/><circle cx="319.75" cy="54.1" r="2" fill="#0b4f28" fill-opacity="0.9"/><circle cx="323.25" cy="62.6" r="2" fill="#0b4f28" fill-opacity="0.9"/><circle cx="326.75" cy="148.7" r="2" fill="#0b4f28" fill-opacity="0.9"/><circle cx="330.25" cy="118.0" r="2" fill="#0b4f28" fill-opacity="0.9"/><circle cx="315.25" cy="120.1" r="2" fill="#0b4f28" fill-opacity="0.9"/><circle cx="325.25" cy="180.2" r="2" fill="#0b4f28" fill-opacity="0.9"/><circle cx="313.25" cy="150.8" r="2" fill="#0b4f28" fill-opacity="0.9"/><circle cx="316.75" cy="126.1" r="2" fill="#0b4f28" fill-opacity="0.9"/><circle cx="319.75" cy="193.7" r="2" fill="#0b4f28" fill-opacity="0.9"/><circle cx="323.25" cy="191.8" r="2" fill="#0b4f28" fill-opacity="0.9"/><circle cx="326.75" cy="192.7" r="2" fill="#0b4f28" fill-opacity="0.9"/><circle cx="330.25" cy="191.8" r="2" fill="#0b4f28" fill-opacity="0.9"/><circle cx="315.25" cy="189.5" r="2" fill="#0b4f28" fill-opacity="0.9"/><circle cx="325.25" cy="189.4" r="2" fill="#0b4f28" fill-opacity="0.9"/><circle cx="313.25" cy="192.6" r="2" fill="#0b4f28" fill-opacity="0.9"/><circle cx="316.75" cy="190.4" r="2" fill="#0b4f28" fill-opacity="0.9"/><circle cx="319.75" cy="190.4" r="2" fill="#0b4f28" fill-opacity="0.9"/><circle cx="323.25" cy="193.0" r="2" fill="#0b4f28" fill-opacity="0.9"/><circle cx="326.75" cy="190.7" r="2" fill="#0b4f28" fill-opacity="0.9"/><circle cx="330.25" cy="190.6" r="2" fill="#0b4f28" fill-opacity="0.9"/><circle cx="315.25" cy="193.2" r="2" fill="#0b4f28" fill-opacity="0.9"/><circle cx="325.25" cy="190.4" r="2" fill="#0b4f28" fill-opacity="0.9"/><circle cx="313.25" cy="190.4" r="2" fill="#0b4f28" fill-opacity="0.9"/><circle cx="316.75" cy="181.9" r="2" fill="#0b4f28" fill-opacity="0.9"/><circle cx="319.75" cy="151.5" r="2" fill="#0b4f28" fill-opacity="0.9"/><circle cx="323.25" cy="150.5" r="2" fill="#0b4f28" fill-opacity="0.9"/></svg>
