<svg xmlns="http://www.w3.org/2000/svg" width="800" height="430" viewBox="0 0 800 430" role="img" aria-labelledby="title desc"><title>Qwen 3.6 — Decode rate</title><desc>Grouped box-and-whisker plot comparing llama.cpp b9910, mlx-lm 0.31.3, AX Engine v6.8.2 at 128/512/2048 prompt tokens for Qwen 3.6 models. The x-axis is grouped by prompt-token count, with engines nested inside each group. Within each prompt-token group, the best median value label is red.</desc><rect width="800" height="430" fill="#f8fafc"/><text x="64" y="24" font-family="Inter,Segoe UI,Arial,sans-serif" font-size="16" font-weight="700" fill="#111827">Qwen 3.6 — Decode rate</text><text x="64" y="46" font-family="Inter,Segoe UI,Arial,sans-serif" font-size="11" fill="#4b5563">AX direct baseline, no speculative drafting</text><text x="64" y="62" font-family="Inter,Segoe UI,Arial,sans-serif" font-size="10" fill="#6b7280">llama.cpp b9910 · mlx-lm 0.31.3 · AX Engine v6.8.2</text><rect x="707" y="13" width="59" height="22" rx="11" fill="#eef2ff" stroke="#c7d2fe"/><text x="736.5" y="28" text-anchor="middle" font-family="Inter,Segoe UI,Arial,sans-serif" font-size="10" font-weight="700" fill="#3730a3">tok/s</text><text x="766" y="52" text-anchor="end" font-family="Inter,Segoe UI,Arial,sans-serif" font-size="10" font-weight="700" fill="#dc2626">Higher is better</text><rect x="64" y="86" width="576" height="230" rx="6" fill="#ffffff" stroke="#dbe3ef"/><line x1="64" y1="316.0" x2="640" y2="316.0" stroke="#e5e7eb" stroke-width="1"/><text x="56" y="319.0" text-anchor="end" font-family="Inter,Segoe UI,Arial,sans-serif" font-size="11" fill="#6b7280">0</text><line x1="64" y1="258.5" x2="640" y2="258.5" stroke="#e5e7eb" stroke-width="1"/><text x="56" y="261.5" text-anchor="end" font-family="Inter,Segoe UI,Arial,sans-serif" font-size="11" fill="#6b7280">50</text><line x1="64" y1="201.0" x2="640" y2="201.0" stroke="#e5e7eb" stroke-width="1"/><text x="56" y="204.0" text-anchor="end" font-family="Inter,Segoe UI,Arial,sans-serif" font-size="11" fill="#6b7280">100</text><line x1="64" y1="143.5" x2="640" y2="143.5" stroke="#e5e7eb" stroke-width="1"/><text x="56" y="146.5" text-anchor="end" font-family="Inter,Segoe UI,Arial,sans-serif" font-size="11" fill="#6b7280">150</text><line x1="64" y1="86.0" x2="640" y2="86.0" stroke="#e5e7eb" stroke-width="1"/><text x="56" y="89.0" text-anchor="end" font-family="Inter,Segoe UI,Arial,sans-serif" font-size="11" fill="#6b7280">200</text><line x1="106" y1="210.8" x2="106" y2="290.9" stroke="#f97316" stroke-opacity="0.9" stroke-width="1.7"/><line x1="99.52" y1="210.8" x2="112.48" y2="210.8" stroke="#f97316" stroke-opacity="0.9" stroke-width="1.7"/><line x1="99.52" y1="290.9" x2="112.48" y2="290.9" stroke="#f97316" stroke-opacity="0.9" stroke-width="1.7"/><rect x="97" y="212.4" width="18" height="73.5" rx="2" fill="#f97316" fill-opacity="0.26" stroke="#f97316" stroke-opacity="0.9" stroke-width="1.7"/><line x1="97" y1="248.6" x2="115" y2="248.6" stroke="#f97316" stroke-opacity="0.9" stroke-width="2.4"/><text x="119" y="252.1" text-anchor="start" font-family="Inter,Segoe UI,Arial,sans-serif" font-size="9" font-weight="700" fill="#111827" stroke="#ffffff" stroke-width="3" paint-order="stroke">58.6</text><circle cx="103" cy="284.3" r="1.4" fill="#c2410c" fill-opacity="0.82"/><circle cx="104.5" cy="290.9" r="1.4" fill="#c2410c" fill-opacity="0.82"/><circle cx="106" cy="210.8" r="1.4" fill="#c2410c" fill-opacity="0.82"/><circle cx="107.5" cy="213.0" r="1.4" fill="#c2410c" fill-opacity="0.82"/><line x1="160" y1="166.9" x2="160" y2="288.0" stroke="#f2b705" stroke-opacity="0.9" stroke-width="1.7"/><line x1="153.52" y1="166.9" x2="166.48" y2="166.9" stroke="#f2b705" stroke-opacity="0.9" stroke-width="1.7"/><line x1="153.52" y1="288.0" x2="166.48" y2="288.0" stroke="#f2b705" stroke-opacity="0.9" stroke-width="1.7"/><rect x="151" y="182.7" width="18" height="97.6" rx="2" fill="#f2b705" fill-opacity="0.26" stroke="#f2b705" stroke-opacity="0.9" stroke-width="1.7"/><line x1="151" y1="232.9" x2="169" y2="232.9" stroke="#f2b705" stroke-opacity="0.9" stroke-width="2.4"/><text x="173" y="236.4" text-anchor="start" font-family="Inter,Segoe UI,Arial,sans-serif" font-size="9" font-weight="700" fill="#111827" stroke="#ffffff" stroke-width="3" paint-order="stroke">72.3</text><circle cx="157" cy="277.8" r="1.4" fill="#9a6a00" fill-opacity="0.82"/><circle cx="158.5" cy="288.0" r="1.4" fill="#9a6a00" fill-opacity="0.82"/><circle cx="160" cy="166.9" r="1.4" fill="#9a6a00" fill-opacity="0.82"/><circle cx="161.5" cy="188.0" r="1.4" fill="#9a6a00" fill-opacity="0.82"/><line x1="214" y1="136.1" x2="214" y2="287.1" stroke="#2eaf5f" stroke-opacity="0.9" stroke-width="1.7"/><line x1="207.52" y1="136.1" x2="220.48" y2="136.1" stroke="#2eaf5f" stroke-opacity="0.9" stroke-width="1.7"/><line x1="207.52" y1="287.1" x2="220.48" y2="287.1" stroke="#2eaf5f" stroke-opacity="0.9" stroke-width="1.7"/><rect x="205" y="161.7" width="18" height="116.9" rx="2" fill="#2eaf5f" fill-opacity="0.26" stroke="#2eaf5f" stroke-opacity="0.9" stroke-width="1.7"/><line x1="205" y1="223.0" x2="223" y2="223.0" stroke="#2eaf5f" stroke-opacity="0.9" stroke-width="2.4"/><text x="227" y="226.5" text-anchor="start" font-family="Inter,Segoe UI,Arial,sans-serif" font-size="9" font-weight="700" fill="#dc2626" stroke="#ffffff" stroke-width="3" paint-order="stroke">80.9</text><circle cx="211" cy="275.8" r="1.4" fill="#176c37" fill-opacity="0.82"/><circle cx="212.5" cy="287.1" r="1.4" fill="#176c37" fill-opacity="0.82"/><circle cx="214" cy="136.1" r="1.4" fill="#176c37" fill-opacity="0.82"/><circle cx="215.5" cy="170.2" r="1.4" fill="#176c37" fill-opacity="0.82"/><text x="160" y="336" text-anchor="middle" font-family="Inter,Segoe UI,Arial,sans-serif" font-size="11" font-weight="700" fill="#111827">128 tok</text><line x1="298" y1="210.9" x2="298" y2="291.0" stroke="#f97316" stroke-opacity="0.9" stroke-width="1.7"/><line x1="291.52" y1="210.9" x2="304.48" y2="210.9" stroke="#f97316" stroke-opacity="0.9" stroke-width="1.7"/><line x1="291.52" y1="291.0" x2="304.48" y2="291.0" stroke="#f97316" stroke-opacity="0.9" stroke-width="1.7"/><rect x="289" y="213.0" width="18" height="73.0" rx="2" fill="#f97316" fill-opacity="0.26" stroke="#f97316" stroke-opacity="0.9" stroke-width="1.7"/><line x1="289" y1="249.0" x2="307" y2="249.0" stroke="#f97316" stroke-opacity="0.9" stroke-width="2.4"/><text x="311" y="252.5" text-anchor="start" font-family="Inter,Segoe UI,Arial,sans-serif" font-size="9" font-weight="700" fill="#111827" stroke="#ffffff" stroke-width="3" paint-order="stroke">58.3</text><circle cx="295" cy="284.3" r="1.4" fill="#c2410c" fill-opacity="0.82"/><circle cx="296.5" cy="291.0" r="1.4" fill="#c2410c" fill-opacity="0.82"/><circle cx="298" cy="210.9" r="1.4" fill="#c2410c" fill-opacity="0.82"/><circle cx="299.5" cy="213.6" r="1.4" fill="#c2410c" fill-opacity="0.82"/><line x1="352" y1="168.5" x2="352" y2="288.1" stroke="#f2b705" stroke-opacity="0.9" stroke-width="1.7"/><line x1="345.52" y1="168.5" x2="358.48" y2="168.5" stroke="#f2b705" stroke-opacity="0.9" stroke-width="1.7"/><line x1="345.52" y1="288.1" x2="358.48" y2="288.1" stroke="#f2b705" stroke-opacity="0.9" stroke-width="1.7"/><rect x="343" y="183.9" width="18" height="96.6" rx="2" fill="#f2b705" fill-opacity="0.26" stroke="#f2b705" stroke-opacity="0.9" stroke-width="1.7"/><line x1="343" y1="233.5" x2="361" y2="233.5" stroke="#f2b705" stroke-opacity="0.9" stroke-width="2.4"/><text x="365" y="237.0" text-anchor="start" font-family="Inter,Segoe UI,Arial,sans-serif" font-size="9" font-weight="700" fill="#111827" stroke="#ffffff" stroke-width="3" paint-order="stroke">71.7</text><circle cx="349" cy="278.0" r="1.4" fill="#9a6a00" fill-opacity="0.82"/><circle cx="350.5" cy="288.1" r="1.4" fill="#9a6a00" fill-opacity="0.82"/><circle cx="352" cy="168.5" r="1.4" fill="#9a6a00" fill-opacity="0.82"/><circle cx="353.5" cy="189.0" r="1.4" fill="#9a6a00" fill-opacity="0.82"/><line x1="406" y1="137.3" x2="406" y2="286.8" stroke="#2eaf5f" stroke-opacity="0.9" stroke-width="1.7"/><line x1="399.52" y1="137.3" x2="412.48" y2="137.3" stroke="#2eaf5f" stroke-opacity="0.9" stroke-width="1.7"/><line x1="399.52" y1="286.8" x2="412.48" y2="286.8" stroke="#2eaf5f" stroke-opacity="0.9" stroke-width="1.7"/><rect x="397" y="163.2" width="18" height="115.4" rx="2" fill="#2eaf5f" fill-opacity="0.26" stroke="#2eaf5f" stroke-opacity="0.9" stroke-width="1.7"/><line x1="397" y1="223.8" x2="415" y2="223.8" stroke="#2eaf5f" stroke-opacity="0.9" stroke-width="2.4"/><text x="419" y="227.3" text-anchor="start" font-family="Inter,Segoe UI,Arial,sans-serif" font-size="9" font-weight="700" fill="#dc2626" stroke="#ffffff" stroke-width="3" paint-order="stroke">80.1</text><circle cx="403" cy="275.8" r="1.4" fill="#176c37" fill-opacity="0.82"/><circle cx="404.5" cy="286.8" r="1.4" fill="#176c37" fill-opacity="0.82"/><circle cx="406" cy="137.3" r="1.4" fill="#176c37" fill-opacity="0.82"/><circle cx="407.5" cy="171.8" r="1.4" fill="#176c37" fill-opacity="0.82"/><text x="352" y="336" text-anchor="middle" font-family="Inter,Segoe UI,Arial,sans-serif" font-size="11" font-weight="700" fill="#111827">512 tok</text><line x1="490" y1="212.7" x2="490" y2="291.3" stroke="#f97316" stroke-opacity="0.9" stroke-width="1.7"/><line x1="483.52" y1="212.7" x2="496.48" y2="212.7" stroke="#f97316" stroke-opacity="0.9" stroke-width="1.7"/><line x1="483.52" y1="291.3" x2="496.48" y2="291.3" stroke="#f97316" stroke-opacity="0.9" stroke-width="1.7"/><rect x="481" y="214.1" width="18" height="72.4" rx="2" fill="#f97316" fill-opacity="0.26" stroke="#f97316" stroke-opacity="0.9" stroke-width="1.7"/><line x1="481" y1="249.8" x2="499" y2="249.8" stroke="#f97316" stroke-opacity="0.9" stroke-width="2.4"/><text x="503" y="253.3" text-anchor="start" font-family="Inter,Segoe UI,Arial,sans-serif" font-size="9" font-weight="700" fill="#111827" stroke="#ffffff" stroke-width="3" paint-order="stroke">57.6</text><circle cx="487" cy="284.9" r="1.4" fill="#c2410c" fill-opacity="0.82"/><circle cx="488.5" cy="291.3" r="1.4" fill="#c2410c" fill-opacity="0.82"/><circle cx="490" cy="212.7" r="1.4" fill="#c2410c" fill-opacity="0.82"/><circle cx="491.5" cy="214.6" r="1.4" fill="#c2410c" fill-opacity="0.82"/><line x1="544" y1="172.0" x2="544" y2="288.3" stroke="#f2b705" stroke-opacity="0.9" stroke-width="1.7"/><line x1="537.52" y1="172.0" x2="550.48" y2="172.0" stroke="#f2b705" stroke-opacity="0.9" stroke-width="1.7"/><line x1="537.52" y1="288.3" x2="550.48" y2="288.3" stroke="#f2b705" stroke-opacity="0.9" stroke-width="1.7"/><rect x="535" y="188.8" width="18" height="92.2" rx="2" fill="#f2b705" fill-opacity="0.26" stroke="#f2b705" stroke-opacity="0.9" stroke-width="1.7"/><line x1="535" y1="236.4" x2="553" y2="236.4" stroke="#f2b705" stroke-opacity="0.9" stroke-width="2.4"/><text x="557" y="239.9" text-anchor="start" font-family="Inter,Segoe UI,Arial,sans-serif" font-size="9" font-weight="700" fill="#111827" stroke="#ffffff" stroke-width="3" paint-order="stroke">69.2</text><circle cx="541" cy="278.5" r="1.4" fill="#9a6a00" fill-opacity="0.82"/><circle cx="542.5" cy="288.3" r="1.4" fill="#9a6a00" fill-opacity="0.82"/><circle cx="544" cy="172.0" r="1.4" fill="#9a6a00" fill-opacity="0.82"/><circle cx="545.5" cy="194.3" r="1.4" fill="#9a6a00" fill-opacity="0.82"/><line x1="598" y1="139.9" x2="598" y2="287.4" stroke="#2eaf5f" stroke-opacity="0.9" stroke-width="1.7"/><line x1="591.52" y1="139.9" x2="604.48" y2="139.9" stroke="#2eaf5f" stroke-opacity="0.9" stroke-width="1.7"/><line x1="591.52" y1="287.4" x2="604.48" y2="287.4" stroke="#2eaf5f" stroke-opacity="0.9" stroke-width="1.7"/><rect x="589" y="165.1" width="18" height="114.0" rx="2" fill="#2eaf5f" fill-opacity="0.26" stroke="#2eaf5f" stroke-opacity="0.9" stroke-width="1.7"/><line x1="589" y1="224.9" x2="607" y2="224.9" stroke="#2eaf5f" stroke-opacity="0.9" stroke-width="2.4"/><text x="611" y="228.4" text-anchor="start" font-family="Inter,Segoe UI,Arial,sans-serif" font-size="9" font-weight="700" fill="#dc2626" stroke="#ffffff" stroke-width="3" paint-order="stroke">79.2</text><circle cx="595" cy="276.3" r="1.4" fill="#176c37" fill-opacity="0.82"/><circle cx="596.5" cy="287.4" r="1.4" fill="#176c37" fill-opacity="0.82"/><circle cx="598" cy="139.9" r="1.4" fill="#176c37" fill-opacity="0.82"/><circle cx="599.5" cy="173.5" r="1.4" fill="#176c37" fill-opacity="0.82"/><text x="544" y="336" text-anchor="middle" font-family="Inter,Segoe UI,Arial,sans-serif" font-size="11" font-weight="700" fill="#111827">2048 tok</text><rect x="64" y="363" width="10" height="10" rx="2" fill="#f97316" fill-opacity="0.5" stroke="#f97316" stroke-width="1.4"/><text x="78" y="372" font-family="Inter,Segoe UI,Arial,sans-serif" font-size="10" fill="#374151">llama.cpp b9910</text><rect x="234" y="363" width="10" height="10" rx="2" fill="#f2b705" fill-opacity="0.5" stroke="#f2b705" stroke-width="1.4"/><text x="248" y="372" font-family="Inter,Segoe UI,Arial,sans-serif" font-size="10" fill="#374151">mlx-lm 0.31.3</text><rect x="404" y="363" width="10" height="10" rx="2" fill="#2eaf5f" fill-opacity="0.5" stroke="#2eaf5f" stroke-width="1.4"/><text x="418" y="372" font-family="Inter,Segoe UI,Arial,sans-serif" font-size="10" fill="#374151">AX Engine v6.8.2</text></svg>
