<svg xmlns="http://www.w3.org/2000/svg" width="700" height="340" viewBox="0 0 700 340" role="img" aria-labelledby="title desc"><title>Qwen 3.6 — Prefill rate</title><desc>Grouped box-and-whisker plot comparing llama.cpp, mlx_lm, ax_engine at 128/512/2048 prompt tokens for Qwen 3.6 models. A red dotted line marks the highest median.</desc><rect width="700" height="340" fill="#ffffff"/><text x="52" y="22" font-family="Inter,Segoe UI,Arial,sans-serif" font-size="16" font-weight="700" fill="#111827">Qwen 3.6 — Prefill rate</text><text x="684" y="22" text-anchor="end" font-family="Inter,Segoe UI,Arial,sans-serif" font-size="10" fill="#6b7280">tok/s</text><text x="684" y="40" text-anchor="end" font-family="Inter,Segoe UI,Arial,sans-serif" font-size="10" font-weight="700" fill="#374151">Higher is better</text><line x1="52" y1="276.0" x2="684" y2="276.0" stroke="#e5e7eb" stroke-width="1"/><text x="44" y="279.0" text-anchor="end" font-family="Inter,Segoe UI,Arial,sans-serif" font-size="10" fill="#6b7280">0</text><line x1="52" y1="161.0" x2="684" y2="161.0" stroke="#e5e7eb" stroke-width="1"/><text x="44" y="164.0" text-anchor="end" font-family="Inter,Segoe UI,Arial,sans-serif" font-size="10" fill="#6b7280">2k</text><line x1="52" y1="46.0" x2="684" y2="46.0" stroke="#e5e7eb" stroke-width="1"/><text x="44" y="49.0" text-anchor="end" font-family="Inter,Segoe UI,Arial,sans-serif" font-size="10" fill="#6b7280">4k</text><line x1="52" y1="225.3" x2="684" y2="225.3" stroke="#dc2626" stroke-width="1.2" stroke-dasharray="1 4" stroke-linecap="round"/><line x1="127.333" y1="175.7" x2="127.333" y2="246.2" stroke="#f97316" stroke-opacity="0.55" stroke-width="1.7"/><line x1="121.573" y1="175.7" x2="133.093" y2="175.7" stroke="#f97316" stroke-opacity="0.55" stroke-width="1.7"/><line x1="121.573" y1="246.2" x2="133.093" y2="246.2" stroke="#f97316" stroke-opacity="0.55" stroke-width="1.7"/><rect x="119.333" y="243.9" width="16" height="1.8" rx="2" fill="#f97316" fill-opacity="0.08" stroke="#f97316" stroke-opacity="0.55" stroke-width="1.7"/><line x1="119.333" y1="244.8" x2="135.333" y2="244.8" stroke="#f97316" stroke-opacity="0.55" stroke-width="2.4"/><text x="127.333" y="291" text-anchor="middle" font-family="Inter,Segoe UI,Arial,sans-serif" font-size="8" fill="#6b7280">128</text><circle cx="124.333" cy="245.7" r="1.4" fill="#c2410c" fill-opacity="0.5"/><circle cx="125.833" cy="246.2" r="1.4" fill="#c2410c" fill-opacity="0.5"/><circle cx="127.333" cy="244.8" r="1.4" fill="#c2410c" fill-opacity="0.5"/><circle cx="128.833" cy="243.9" r="1.4" fill="#c2410c" fill-opacity="0.5"/><circle cx="130.333" cy="175.7" r="1.4" fill="#c2410c" fill-opacity="0.5"/><line x1="157.333" y1="91.5" x2="157.333" y2="245.1" stroke="#f97316" stroke-opacity="0.78" stroke-width="1.7"/><line x1="151.573" y1="91.5" x2="163.093" y2="91.5" stroke="#f97316" stroke-opacity="0.78" stroke-width="1.7"/><line x1="151.573" y1="245.1" x2="163.093" y2="245.1" stroke="#f97316" stroke-opacity="0.78" stroke-width="1.7"/><rect x="149.333" y="238.5" width="16" height="5.4" rx="2" fill="#f97316" fill-opacity="0.17" stroke="#f97316" stroke-opacity="0.78" stroke-width="1.7"/><line x1="149.333" y1="241.0" x2="165.333" y2="241.0" stroke="#f97316" stroke-opacity="0.78" stroke-width="2.4"/><text x="157.333" y="291" text-anchor="middle" font-family="Inter,Segoe UI,Arial,sans-serif" font-size="8" fill="#6b7280">512</text><circle cx="154.333" cy="245.1" r="1.4" fill="#c2410c" fill-opacity="0.7"/><circle cx="155.833" cy="243.9" r="1.4" fill="#c2410c" fill-opacity="0.7"/><circle cx="157.333" cy="241.0" r="1.4" fill="#c2410c" fill-opacity="0.7"/><circle cx="158.833" cy="238.5" r="1.4" fill="#c2410c" fill-opacity="0.7"/><circle cx="160.333" cy="91.5" r="1.4" fill="#c2410c" fill-opacity="0.7"/><line x1="187.333" y1="70.3" x2="187.333" y2="244.4" stroke="#f97316" stroke-opacity="1.0" stroke-width="1.7"/><line x1="181.573" y1="70.3" x2="193.093" y2="70.3" stroke="#f97316" stroke-opacity="1.0" stroke-width="1.7"/><line x1="181.573" y1="244.4" x2="193.093" y2="244.4" stroke="#f97316" stroke-opacity="1.0" stroke-width="1.7"/><rect x="179.333" y="236.9" width="16" height="5.9" rx="2" fill="#f97316" fill-opacity="0.3" stroke="#f97316" stroke-opacity="1.0" stroke-width="1.7"/><line x1="179.333" y1="240.6" x2="195.333" y2="240.6" stroke="#f97316" stroke-opacity="1.0" stroke-width="2.4"/><text x="187.333" y="291" text-anchor="middle" font-family="Inter,Segoe UI,Arial,sans-serif" font-size="8" fill="#6b7280">2048</text><circle cx="184.333" cy="236.9" r="1.4" fill="#c2410c" fill-opacity="0.9"/><circle cx="185.833" cy="244.4" r="1.4" fill="#c2410c" fill-opacity="0.9"/><circle cx="187.333" cy="242.8" r="1.4" fill="#c2410c" fill-opacity="0.9"/><circle cx="188.833" cy="240.6" r="1.4" fill="#c2410c" fill-opacity="0.9"/><circle cx="190.333" cy="70.3" r="1.4" fill="#c2410c" fill-opacity="0.9"/><text x="157.333" y="308" text-anchor="middle" font-family="Inter,Segoe UI,Arial,sans-serif" font-size="9" font-weight="700" fill="#111827">llama.cpp</text><line x1="338" y1="245.0" x2="338" y2="263.4" stroke="#f2b705" stroke-opacity="0.55" stroke-width="1.7"/><line x1="332.24" y1="245.0" x2="343.76" y2="245.0" stroke="#f2b705" stroke-opacity="0.55" stroke-width="1.7"/><line x1="332.24" y1="263.4" x2="343.76" y2="263.4" stroke="#f2b705" stroke-opacity="0.55" stroke-width="1.7"/><rect x="330" y="254.2" width="16" height="6.2" rx="2" fill="#f2b705" fill-opacity="0.08" stroke="#f2b705" stroke-opacity="0.55" stroke-width="1.7"/><line x1="330" y1="260.0" x2="346" y2="260.0" stroke="#f2b705" stroke-opacity="0.55" stroke-width="2.4"/><text x="338" y="291" text-anchor="middle" font-family="Inter,Segoe UI,Arial,sans-serif" font-size="8" fill="#6b7280">128</text><circle cx="335" cy="254.2" r="1.4" fill="#9a6a00" fill-opacity="0.5"/><circle cx="336.5" cy="260.0" r="1.4" fill="#9a6a00" fill-opacity="0.5"/><circle cx="338" cy="260.4" r="1.4" fill="#9a6a00" fill-opacity="0.5"/><circle cx="339.5" cy="263.4" r="1.4" fill="#9a6a00" fill-opacity="0.5"/><circle cx="341" cy="245.0" r="1.4" fill="#9a6a00" fill-opacity="0.5"/><line x1="368" y1="184.0" x2="368" y2="246.1" stroke="#f2b705" stroke-opacity="0.78" stroke-width="1.7"/><line x1="362.24" y1="184.0" x2="373.76" y2="184.0" stroke="#f2b705" stroke-opacity="0.78" stroke-width="1.7"/><line x1="362.24" y1="246.1" x2="373.76" y2="246.1" stroke="#f2b705" stroke-opacity="0.78" stroke-width="1.7"/><rect x="360" y="235.4" width="16" height="7.4" rx="2" fill="#f2b705" fill-opacity="0.17" stroke="#f2b705" stroke-opacity="0.78" stroke-width="1.7"/><line x1="360" y1="241.5" x2="376" y2="241.5" stroke="#f2b705" stroke-opacity="0.78" stroke-width="2.4"/><text x="368" y="291" text-anchor="middle" font-family="Inter,Segoe UI,Arial,sans-serif" font-size="8" fill="#6b7280">512</text><circle cx="365" cy="235.4" r="1.4" fill="#9a6a00" fill-opacity="0.7"/><circle cx="366.5" cy="241.5" r="1.4" fill="#9a6a00" fill-opacity="0.7"/><circle cx="368" cy="242.8" r="1.4" fill="#9a6a00" fill-opacity="0.7"/><circle cx="369.5" cy="246.1" r="1.4" fill="#9a6a00" fill-opacity="0.7"/><circle cx="371" cy="184.0" r="1.4" fill="#9a6a00" fill-opacity="0.7"/><line x1="398" y1="74.0" x2="398" y2="230.7" stroke="#f2b705" stroke-opacity="1.0" stroke-width="1.7"/><line x1="392.24" y1="74.0" x2="403.76" y2="74.0" stroke="#f2b705" stroke-opacity="1.0" stroke-width="1.7"/><line x1="392.24" y1="230.7" x2="403.76" y2="230.7" stroke="#f2b705" stroke-opacity="1.0" stroke-width="1.7"/><rect x="390" y="224.5" width="16" height="5.6" rx="2" fill="#f2b705" fill-opacity="0.3" stroke="#f2b705" stroke-opacity="1.0" stroke-width="1.7"/><line x1="390" y1="228.4" x2="406" y2="228.4" stroke="#f2b705" stroke-opacity="1.0" stroke-width="2.4"/><text x="398" y="291" text-anchor="middle" font-family="Inter,Segoe UI,Arial,sans-serif" font-size="8" fill="#6b7280">2048</text><circle cx="395" cy="224.5" r="1.4" fill="#9a6a00" fill-opacity="0.9"/><circle cx="396.5" cy="228.4" r="1.4" fill="#9a6a00" fill-opacity="0.9"/><circle cx="398" cy="230.1" r="1.4" fill="#9a6a00" fill-opacity="0.9"/><circle cx="399.5" cy="230.7" r="1.4" fill="#9a6a00" fill-opacity="0.9"/><circle cx="401" cy="74.0" r="1.4" fill="#9a6a00" fill-opacity="0.9"/><text x="368" y="308" text-anchor="middle" font-family="Inter,Segoe UI,Arial,sans-serif" font-size="9" font-weight="700" fill="#111827">mlx_lm</text><line x1="548.667" y1="211.7" x2="548.667" y2="249.9" stroke="#2eaf5f" stroke-opacity="0.55" stroke-width="1.7"/><line x1="542.907" y1="211.7" x2="554.427" y2="211.7" stroke="#2eaf5f" stroke-opacity="0.55" stroke-width="1.7"/><line x1="542.907" y1="249.9" x2="554.427" y2="249.9" stroke="#2eaf5f" stroke-opacity="0.55" stroke-width="1.7"/><rect x="540.667" y="242.4" width="16" height="4.3" rx="2" fill="#2eaf5f" fill-opacity="0.08" stroke="#2eaf5f" stroke-opacity="0.55" stroke-width="1.7"/><line x1="540.667" y1="245.3" x2="556.667" y2="245.3" stroke="#2eaf5f" stroke-opacity="0.55" stroke-width="2.4"/><text x="548.667" y="291" text-anchor="middle" font-family="Inter,Segoe UI,Arial,sans-serif" font-size="8" fill="#6b7280">128</text><circle cx="545.667" cy="242.4" r="1.4" fill="#176c37" fill-opacity="0.5"/><circle cx="547.167" cy="245.3" r="1.4" fill="#176c37" fill-opacity="0.5"/><circle cx="548.667" cy="246.8" r="1.4" fill="#176c37" fill-opacity="0.5"/><circle cx="550.167" cy="249.9" r="1.4" fill="#176c37" fill-opacity="0.5"/><circle cx="551.667" cy="211.7" r="1.4" fill="#176c37" fill-opacity="0.5"/><line x1="578.667" y1="124.9" x2="578.667" y2="233.9" stroke="#2eaf5f" stroke-opacity="0.78" stroke-width="1.7"/><line x1="572.907" y1="124.9" x2="584.427" y2="124.9" stroke="#2eaf5f" stroke-opacity="0.78" stroke-width="1.7"/><line x1="572.907" y1="233.9" x2="584.427" y2="233.9" stroke="#2eaf5f" stroke-opacity="0.78" stroke-width="1.7"/><rect x="570.667" y="227.9" width="16" height="4.3" rx="2" fill="#2eaf5f" fill-opacity="0.17" stroke="#2eaf5f" stroke-opacity="0.78" stroke-width="1.7"/><line x1="570.667" y1="230.9" x2="586.667" y2="230.9" stroke="#2eaf5f" stroke-opacity="0.78" stroke-width="2.4"/><text x="578.667" y="291" text-anchor="middle" font-family="Inter,Segoe UI,Arial,sans-serif" font-size="8" fill="#6b7280">512</text><circle cx="575.667" cy="227.9" r="1.4" fill="#176c37" fill-opacity="0.7"/><circle cx="577.167" cy="230.9" r="1.4" fill="#176c37" fill-opacity="0.7"/><circle cx="578.667" cy="232.1" r="1.4" fill="#176c37" fill-opacity="0.7"/><circle cx="580.167" cy="233.9" r="1.4" fill="#176c37" fill-opacity="0.7"/><circle cx="581.667" cy="124.9" r="1.4" fill="#176c37" fill-opacity="0.7"/><line x1="608.667" y1="62.7" x2="608.667" y2="226.1" stroke="#2eaf5f" stroke-opacity="1.0" stroke-width="1.7"/><line x1="602.907" y1="62.7" x2="614.427" y2="62.7" stroke="#2eaf5f" stroke-opacity="1.0" stroke-width="1.7"/><line x1="602.907" y1="226.1" x2="614.427" y2="226.1" stroke="#2eaf5f" stroke-opacity="1.0" stroke-width="1.7"/><rect x="600.667" y="222.1" width="16" height="4.0" rx="2" fill="#2eaf5f" fill-opacity="0.3" stroke="#2eaf5f" stroke-opacity="1.0" stroke-width="1.7"/><line x1="600.667" y1="225.3" x2="616.667" y2="225.3" stroke="#2eaf5f" stroke-opacity="1.0" stroke-width="2.4"/><text x="608.667" y="291" text-anchor="middle" font-family="Inter,Segoe UI,Arial,sans-serif" font-size="8" fill="#6b7280">2048</text><circle cx="605.667" cy="222.1" r="1.4" fill="#176c37" fill-opacity="0.9"/><circle cx="607.167" cy="225.3" r="1.4" fill="#176c37" fill-opacity="0.9"/><circle cx="608.667" cy="226.1" r="1.4" fill="#176c37" fill-opacity="0.9"/><circle cx="610.167" cy="226.1" r="1.4" fill="#176c37" fill-opacity="0.9"/><circle cx="611.667" cy="62.7" r="1.4" fill="#176c37" fill-opacity="0.9"/><text x="578.667" y="308" text-anchor="middle" font-family="Inter,Segoe UI,Arial,sans-serif" font-size="9" font-weight="700" fill="#111827">ax_engine</text></svg>
