<svg xmlns="http://www.w3.org/2000/svg" width="540" height="292" viewBox="0 0 540 292" role="img" aria-labelledby="title desc"><title>N-gram accept rate — ax-engine vs lightning</title><desc>N-gram accept rate — ax-engine vs lightning</desc><rect width="540" height="292" fill="#ffffff"/><text x="52" y="22" font-family="Inter,Segoe UI,Arial,sans-serif" font-size="15" font-weight="700" fill="#111827">N-gram accept rate — ax-engine vs lightning</text><text x="52" y="38" font-family="Inter,Segoe UI,Arial,sans-serif" font-size="9" fill="#6b7280">draft token acceptance at temp=0.6 · higher = better speculation quality</text><text x="512" y="22" text-anchor="end" font-family="Inter,Segoe UI,Arial,sans-serif" font-size="10" fill="#6b7280">accept %</text><text x="512" y="38" text-anchor="end" font-family="Inter,Segoe UI,Arial,sans-serif" font-size="10" font-weight="700" fill="#374151">Higher is better</text><line x1="52" y1="228.0" x2="512" y2="228.0" stroke="#e5e7eb" stroke-width="1"/><text x="46" y="231.0" text-anchor="end" font-family="Inter,Segoe UI,Arial,sans-serif" font-size="10" fill="#6b7280">0%</text><line x1="52" y1="142.0" x2="512" y2="142.0" stroke="#e5e7eb" stroke-width="1"/><text x="46" y="145.0" text-anchor="end" font-family="Inter,Segoe UI,Arial,sans-serif" font-size="10" fill="#6b7280">38%</text><line x1="52" y1="56.0" x2="512" y2="56.0" stroke="#e5e7eb" stroke-width="1"/><text x="46" y="59.0" text-anchor="end" font-family="Inter,Segoe UI,Arial,sans-serif" font-size="10" fill="#6b7280">75%</text><line x1="52" y1="103.7" x2="512" y2="103.7" stroke="#dc2626" stroke-width="1.2" stroke-dasharray="1 4" stroke-linecap="round"/><rect x="99.7" y="110.5" width="26" height="117.5" rx="2" fill="#2eaf5f" fill-opacity="0.30" stroke="#176c37" stroke-width="1.6"/><line x1="99.7" y1="110.5" x2="125.7" y2="110.5" stroke="#176c37" stroke-width="2.4"/><text x="112.7" y="106.5" text-anchor="middle" font-family="Inter,Segoe UI,Arial,sans-serif" font-size="8" fill="#176c37">51%</text><rect x="131.7" y="199.3" width="26" height="28.7" rx="2" fill="#f2b705" fill-opacity="0.30" stroke="#9a6a00" stroke-width="1.6"/><line x1="131.7" y1="199.3" x2="157.7" y2="199.3" stroke="#9a6a00" stroke-width="2.4"/><text x="144.7" y="195.3" text-anchor="middle" font-family="Inter,Segoe UI,Arial,sans-serif" font-size="8" fill="#9a6a00">12%</text><text x="128.7" y="244" text-anchor="middle" font-family="Inter,Segoe UI,Arial,sans-serif" font-size="10" font-weight="700" fill="#111827">high repeat</text><rect x="253.0" y="103.7" width="26" height="124.3" rx="2" fill="#2eaf5f" fill-opacity="0.30" stroke="#176c37" stroke-width="1.6"/><line x1="253.0" y1="103.7" x2="279.0" y2="103.7" stroke="#176c37" stroke-width="2.4"/><text x="266.0" y="99.7" text-anchor="middle" font-family="Inter,Segoe UI,Arial,sans-serif" font-size="8" fill="#176c37">54%</text><rect x="285.0" y="225.1" width="26" height="2.9" rx="2" fill="#f2b705" fill-opacity="0.30" stroke="#9a6a00" stroke-width="1.6"/><line x1="285.0" y1="225.1" x2="311.0" y2="225.1" stroke="#9a6a00" stroke-width="2.4"/><text x="298.0" y="221.1" text-anchor="middle" font-family="Inter,Segoe UI,Arial,sans-serif" font-size="8" fill="#9a6a00">1%</text><text x="282.0" y="244" text-anchor="middle" font-family="Inter,Segoe UI,Arial,sans-serif" font-size="10" font-weight="700" fill="#111827">med repeat</text><rect x="406.3" y="123.7" width="26" height="104.3" rx="2" fill="#2eaf5f" fill-opacity="0.30" stroke="#176c37" stroke-width="1.6"/><line x1="406.3" y1="123.7" x2="432.3" y2="123.7" stroke="#176c37" stroke-width="2.4"/><text x="419.3" y="119.7" text-anchor="middle" font-family="Inter,Segoe UI,Arial,sans-serif" font-size="8" fill="#176c37">45%</text><rect x="438.3" y="228.0" width="26" height="0.0" rx="2" fill="#f2b705" fill-opacity="0.30" stroke="#9a6a00" stroke-width="1.6"/><line x1="438.3" y1="228.0" x2="464.3" y2="228.0" stroke="#9a6a00" stroke-width="2.4"/><text x="435.3" y="244" text-anchor="middle" font-family="Inter,Segoe UI,Arial,sans-serif" font-size="10" font-weight="700" fill="#111827">low repeat</text><rect x="52" y="260" width="10" height="10" rx="2" fill="#2eaf5f" fill-opacity="0.40" stroke="#176c37" stroke-width="1.4"/><text x="68" y="269" font-family="Inter,Segoe UI,Arial,sans-serif" font-size="9" fill="#374151">ax n-gram</text><rect x="192" y="260" width="10" height="10" rx="2" fill="#f2b705" fill-opacity="0.40" stroke="#9a6a00" stroke-width="1.4"/><text x="208" y="269" font-family="Inter,Segoe UI,Arial,sans-serif" font-size="9" fill="#374151">lightning (temp=0.6)</text></svg>
