<svg xmlns="http://www.w3.org/2000/svg" width="460" height="276" viewBox="0 0 460 276" role="img" aria-labelledby="title desc"><title>TTFT</title><desc>Box-and-Whisker Plot comparing llama.cpp Metal, mlx_lm, mlx_swift_lm, ax_engine, and ax_engine plus n-gram across 28 README benchmark rows. A red dotted horizontal line marks the ax_engine plus n-gram median.</desc><rect width="460" height="276" fill="#ffffff"/><text x="52" y="22" font-family="Inter,Segoe UI,Arial,sans-serif" font-size="16" font-weight="700" fill="#111827">TTFT</text><text x="442" y="22" text-anchor="end" font-family="Inter,Segoe UI,Arial,sans-serif" font-size="10" fill="#6b7280">ms</text><text x="442" y="40" text-anchor="end" font-family="Inter,Segoe UI,Arial,sans-serif" font-size="10" font-weight="700" fill="#374151">Lower is better</text><line x1="52" y1="206.0" x2="442" y2="206.0" stroke="#e5e7eb" stroke-width="1"/><text x="44" y="209.0" text-anchor="end" font-family="Inter,Segoe UI,Arial,sans-serif" font-size="10" fill="#6b7280">0</text><line x1="52" y1="126.0" x2="442" y2="126.0" stroke="#e5e7eb" stroke-width="1"/><text x="44" y="129.0" text-anchor="end" font-family="Inter,Segoe UI,Arial,sans-serif" font-size="10" fill="#6b7280">450</text><line x1="52" y1="46.0" x2="442" y2="46.0" stroke="#e5e7eb" stroke-width="1"/><text x="44" y="49.0" text-anchor="end" font-family="Inter,Segoe UI,Arial,sans-serif" font-size="10" fill="#6b7280">900</text><line x1="52" y1="184.5" x2="442" y2="184.5" stroke="#dc2626" stroke-width="1.2" stroke-dasharray="2 4"/><rect x="300" y="50" width="135" height="160" fill="none" stroke="#dc2626" stroke-width="1.4"/><line x1="78" y1="66.3" x2="78" y2="199.8" stroke="#f97316" stroke-width="2"/><line x1="68" y1="66.3" x2="88" y2="66.3" stroke="#f97316" stroke-width="2"/><line x1="68" y1="199.8" x2="88" y2="199.8" stroke="#f97316" stroke-width="2"/><rect x="61" y="176.5" width="34" height="17.1" rx="4" fill="#f97316" fill-opacity="0.18" stroke="#f97316" stroke-width="2"/><line x1="61" y1="191.6" x2="95" y2="191.6" stroke="#f97316" stroke-width="3"/><text x="78" y="230" text-anchor="middle" font-family="Inter,Segoe UI,Arial,sans-serif" font-size="9" fill="#111827">llama.cpp</text><text x="78" y="246" text-anchor="middle" font-family="Inter,Segoe UI,Arial,sans-serif" font-size="10" fill="#6b7280">med 81</text><circle cx="69.5" cy="199.6" r="2" fill="#c2410c" fill-opacity="0.9"/><circle cx="73" cy="193.4" r="2" fill="#c2410c" fill-opacity="0.9"/><circle cx="76" cy="199.4" r="2" fill="#c2410c" fill-opacity="0.9"/><circle cx="79.5" cy="193.3" r="2" fill="#c2410c" fill-opacity="0.9"/><circle cx="83" cy="199.4" r="2" fill="#c2410c" fill-opacity="0.9"/><circle cx="86.5" cy="193.1" r="2" fill="#c2410c" fill-opacity="0.9"/><circle cx="71.5" cy="199.8" r="2" fill="#c2410c" fill-opacity="0.9"/><circle cx="81.5" cy="194.3" r="2" fill="#c2410c" fill-opacity="0.9"/><circle cx="69.5" cy="195.8" r="2" fill="#c2410c" fill-opacity="0.9"/><circle cx="73" cy="185.0" r="2" fill="#c2410c" fill-opacity="0.9"/><circle cx="76" cy="194.3" r="2" fill="#c2410c" fill-opacity="0.9"/><circle cx="79.5" cy="179.1" r="2" fill="#c2410c" fill-opacity="0.9"/><circle cx="83" cy="161.5" r="2" fill="#c2410c" fill-opacity="0.9"/><circle cx="86.5" cy="66.3" r="2" fill="#c2410c" fill-opacity="0.9"/><circle cx="71.5" cy="193.3" r="2" fill="#c2410c" fill-opacity="0.9"/><circle cx="81.5" cy="169.2" r="2" fill="#c2410c" fill-opacity="0.9"/><circle cx="69.5" cy="192.7" r="2" fill="#c2410c" fill-opacity="0.9"/><circle cx="73" cy="177.0" r="2" fill="#c2410c" fill-opacity="0.9"/><circle cx="76" cy="191.4" r="2" fill="#c2410c" fill-opacity="0.9"/><circle cx="79.5" cy="174.4" r="2" fill="#c2410c" fill-opacity="0.9"/><circle cx="83" cy="191.8" r="2" fill="#c2410c" fill-opacity="0.9"/><circle cx="86.5" cy="175.5" r="2" fill="#c2410c" fill-opacity="0.9"/><circle cx="71.5" cy="192.3" r="2" fill="#c2410c" fill-opacity="0.9"/><circle cx="81.5" cy="176.9" r="2" fill="#c2410c" fill-opacity="0.9"/><circle cx="69.5" cy="187.0" r="2" fill="#c2410c" fill-opacity="0.9"/><circle cx="73" cy="160.5" r="2" fill="#c2410c" fill-opacity="0.9"/><circle cx="76" cy="189.4" r="2" fill="#c2410c" fill-opacity="0.9"/><circle cx="79.5" cy="173.5" r="2" fill="#c2410c" fill-opacity="0.9"/><line x1="159.25" y1="64.5" x2="159.25" y2="196.3" stroke="#f2b705" stroke-width="2"/><line x1="149.25" y1="64.5" x2="169.25" y2="64.5" stroke="#f2b705" stroke-width="2"/><line x1="149.25" y1="196.3" x2="169.25" y2="196.3" stroke="#f2b705" stroke-width="2"/><rect x="142.25" y="148.6" width="34" height="44.2" rx="4" fill="#f2b705" fill-opacity="0.18" stroke="#f2b705" stroke-width="2"/><line x1="142.25" y1="160.1" x2="176.25" y2="160.1" stroke="#f2b705" stroke-width="3"/><text x="159.25" y="230" text-anchor="middle" font-family="Inter,Segoe UI,Arial,sans-serif" font-size="9" fill="#111827">mlx_lm</text><text x="159.25" y="246" text-anchor="middle" font-family="Inter,Segoe UI,Arial,sans-serif" font-size="10" fill="#6b7280">med 258</text><circle cx="150.75" cy="196.3" r="2" fill="#9a6a00" fill-opacity="0.9"/><circle cx="154.25" cy="193.9" r="2" fill="#9a6a00" fill-opacity="0.9"/><circle cx="157.25" cy="195.3" r="2" fill="#9a6a00" fill-opacity="0.9"/><circle cx="160.75" cy="192.8" r="2" fill="#9a6a00" fill-opacity="0.9"/><circle cx="164.25" cy="195.1" r="2" fill="#9a6a00" fill-opacity="0.9"/><circle cx="167.75" cy="192.8" r="2" fill="#9a6a00" fill-opacity="0.9"/><circle cx="152.75" cy="194.6" r="2" fill="#9a6a00" fill-opacity="0.9"/><circle cx="162.75" cy="192.8" r="2" fill="#9a6a00" fill-opacity="0.9"/><circle cx="150.75" cy="192.3" r="2" fill="#9a6a00" fill-opacity="0.9"/><circle cx="154.25" cy="185.2" r="2" fill="#9a6a00" fill-opacity="0.9"/><circle cx="157.25" cy="173.6" r="2" fill="#9a6a00" fill-opacity="0.9"/><circle cx="160.75" cy="160.8" r="2" fill="#9a6a00" fill-opacity="0.9"/><circle cx="164.25" cy="143.3" r="2" fill="#9a6a00" fill-opacity="0.9"/><circle cx="167.75" cy="64.5" r="2" fill="#9a6a00" fill-opacity="0.9"/><circle cx="152.75" cy="181.4" r="2" fill="#9a6a00" fill-opacity="0.9"/><circle cx="162.75" cy="153.8" r="2" fill="#9a6a00" fill-opacity="0.9"/><circle cx="150.75" cy="162.6" r="2" fill="#9a6a00" fill-opacity="0.9"/><circle cx="154.25" cy="149.4" r="2" fill="#9a6a00" fill-opacity="0.9"/><circle cx="157.25" cy="157.8" r="2" fill="#9a6a00" fill-opacity="0.9"/><circle cx="160.75" cy="146.4" r="2" fill="#9a6a00" fill-opacity="0.9"/><circle cx="164.25" cy="153.0" r="2" fill="#9a6a00" fill-opacity="0.9"/><circle cx="167.75" cy="141.7" r="2" fill="#9a6a00" fill-opacity="0.9"/><circle cx="152.75" cy="149.3" r="2" fill="#9a6a00" fill-opacity="0.9"/><circle cx="162.75" cy="135.3" r="2" fill="#9a6a00" fill-opacity="0.9"/><circle cx="150.75" cy="122.8" r="2" fill="#9a6a00" fill-opacity="0.9"/><circle cx="154.25" cy="102.0" r="2" fill="#9a6a00" fill-opacity="0.9"/><circle cx="157.25" cy="159.5" r="2" fill="#9a6a00" fill-opacity="0.9"/><circle cx="160.75" cy="149.4" r="2" fill="#9a6a00" fill-opacity="0.9"/><line x1="240.5" y1="93.7" x2="240.5" y2="196.2" stroke="#4062bb" stroke-width="2"/><line x1="230.5" y1="93.7" x2="250.5" y2="93.7" stroke="#4062bb" stroke-width="2"/><line x1="230.5" y1="196.2" x2="250.5" y2="196.2" stroke="#4062bb" stroke-width="2"/><rect x="223.5" y="169.7" width="34" height="20.9" rx="4" fill="#4062bb" fill-opacity="0.18" stroke="#4062bb" stroke-width="2"/><line x1="223.5" y1="181.1" x2="257.5" y2="181.1" stroke="#4062bb" stroke-width="3"/><text x="240.5" y="230" text-anchor="middle" font-family="Inter,Segoe UI,Arial,sans-serif" font-size="9" fill="#111827">mlx_swift_lm</text><text x="240.5" y="246" text-anchor="middle" font-family="Inter,Segoe UI,Arial,sans-serif" font-size="10" fill="#6b7280">med 140</text><circle cx="232" cy="195.7" r="2" fill="#243b87" fill-opacity="0.9"/><circle cx="235.5" cy="191.1" r="2" fill="#243b87" fill-opacity="0.9"/><circle cx="238.5" cy="194.7" r="2" fill="#243b87" fill-opacity="0.9"/><circle cx="242" cy="190.0" r="2" fill="#243b87" fill-opacity="0.9"/><circle cx="245.5" cy="194.8" r="2" fill="#243b87" fill-opacity="0.9"/><circle cx="249" cy="190.1" r="2" fill="#243b87" fill-opacity="0.9"/><circle cx="234" cy="196.2" r="2" fill="#243b87" fill-opacity="0.9"/><circle cx="244" cy="190.5" r="2" fill="#243b87" fill-opacity="0.9"/><circle cx="232" cy="194.1" r="2" fill="#243b87" fill-opacity="0.9"/><circle cx="235.5" cy="185.0" r="2" fill="#243b87" fill-opacity="0.9"/><circle cx="238.5" cy="187.7" r="2" fill="#243b87" fill-opacity="0.9"/><circle cx="242" cy="174.8" r="2" fill="#243b87" fill-opacity="0.9"/><circle cx="245.5" cy="170.5" r="2" fill="#243b87" fill-opacity="0.9"/><circle cx="249" cy="93.7" r="2" fill="#243b87" fill-opacity="0.9"/><circle cx="234" cy="192.1" r="2" fill="#243b87" fill-opacity="0.9"/><circle cx="244" cy="167.6" r="2" fill="#243b87" fill-opacity="0.9"/><circle cx="232" cy="182.7" r="2" fill="#243b87" fill-opacity="0.9"/><circle cx="235.5" cy="170.9" r="2" fill="#243b87" fill-opacity="0.9"/><circle cx="238.5" cy="179.8" r="2" fill="#243b87" fill-opacity="0.9"/><circle cx="242" cy="169.1" r="2" fill="#243b87" fill-opacity="0.9"/><circle cx="245.5" cy="176.8" r="2" fill="#243b87" fill-opacity="0.9"/><circle cx="249" cy="168.2" r="2" fill="#243b87" fill-opacity="0.9"/><circle cx="234" cy="171.7" r="2" fill="#243b87" fill-opacity="0.9"/><circle cx="244" cy="167.9" r="2" fill="#243b87" fill-opacity="0.9"/><circle cx="232" cy="153.8" r="2" fill="#243b87" fill-opacity="0.9"/><circle cx="235.5" cy="149.0" r="2" fill="#243b87" fill-opacity="0.9"/><circle cx="238.5" cy="182.5" r="2" fill="#243b87" fill-opacity="0.9"/><circle cx="242" cy="169.9" r="2" fill="#243b87" fill-opacity="0.9"/><line x1="321.75" y1="89.6" x2="321.75" y2="200.2" stroke="#2eaf5f" stroke-width="2"/><line x1="311.75" y1="89.6" x2="331.75" y2="89.6" stroke="#2eaf5f" stroke-width="2"/><line x1="311.75" y1="200.2" x2="331.75" y2="200.2" stroke="#2eaf5f" stroke-width="2"/><rect x="304.75" y="173.8" width="34" height="21.3" rx="4" fill="#2eaf5f" fill-opacity="0.18" stroke="#2eaf5f" stroke-width="2"/><line x1="304.75" y1="184.6" x2="338.75" y2="184.6" stroke="#2eaf5f" stroke-width="3"/><text x="321.75" y="230" text-anchor="middle" font-family="Inter,Segoe UI,Arial,sans-serif" font-size="9" fill="#111827">ax_engine</text><text x="321.75" y="246" text-anchor="middle" font-family="Inter,Segoe UI,Arial,sans-serif" font-size="10" fill="#6b7280">med 120</text><circle cx="313.25" cy="200.2" r="2" fill="#176c37" fill-opacity="0.9"/><circle cx="316.75" cy="195.3" r="2" fill="#176c37" fill-opacity="0.9"/><circle cx="319.75" cy="200.1" r="2" fill="#176c37" fill-opacity="0.9"/><circle cx="323.25" cy="194.9" r="2" fill="#176c37" fill-opacity="0.9"/><circle cx="326.75" cy="200.0" r="2" fill="#176c37" fill-opacity="0.9"/><circle cx="330.25" cy="194.8" r="2" fill="#176c37" fill-opacity="0.9"/><circle cx="315.25" cy="200.0" r="2" fill="#176c37" fill-opacity="0.9"/><circle cx="325.25" cy="195.0" r="2" fill="#176c37" fill-opacity="0.9"/><circle cx="313.25" cy="198.4" r="2" fill="#176c37" fill-opacity="0.9"/><circle cx="316.75" cy="186.4" r="2" fill="#176c37" fill-opacity="0.9"/><circle cx="319.75" cy="188.7" r="2" fill="#176c37" fill-opacity="0.9"/><circle cx="323.25" cy="176.9" r="2" fill="#176c37" fill-opacity="0.9"/><circle cx="326.75" cy="171.1" r="2" fill="#176c37" fill-opacity="0.9"/><circle cx="330.25" cy="89.6" r="2" fill="#176c37" fill-opacity="0.9"/><circle cx="315.25" cy="196.1" r="2" fill="#176c37" fill-opacity="0.9"/><circle cx="325.25" cy="176.1" r="2" fill="#176c37" fill-opacity="0.9"/><circle cx="313.25" cy="185.6" r="2" fill="#176c37" fill-opacity="0.9"/><circle cx="316.75" cy="174.0" r="2" fill="#176c37" fill-opacity="0.9"/><circle cx="319.75" cy="184.9" r="2" fill="#176c37" fill-opacity="0.9"/><circle cx="323.25" cy="173.0" r="2" fill="#176c37" fill-opacity="0.9"/><circle cx="326.75" cy="184.3" r="2" fill="#176c37" fill-opacity="0.9"/><circle cx="330.25" cy="171.6" r="2" fill="#176c37" fill-opacity="0.9"/><circle cx="315.25" cy="183.9" r="2" fill="#176c37" fill-opacity="0.9"/><circle cx="325.25" cy="171.2" r="2" fill="#176c37" fill-opacity="0.9"/><circle cx="313.25" cy="180.6" r="2" fill="#176c37" fill-opacity="0.9"/><circle cx="316.75" cy="156.7" r="2" fill="#176c37" fill-opacity="0.9"/><circle cx="319.75" cy="181.6" r="2" fill="#176c37" fill-opacity="0.9"/><circle cx="323.25" cy="170.0" r="2" fill="#176c37" fill-opacity="0.9"/><line x1="403" y1="89.7" x2="403" y2="200.2" stroke="#137a3d" stroke-width="2"/><line x1="393" y1="89.7" x2="413" y2="89.7" stroke="#137a3d" stroke-width="2"/><line x1="393" y1="200.2" x2="413" y2="200.2" stroke="#137a3d" stroke-width="2"/><rect x="386" y="173.6" width="34" height="21.4" rx="4" fill="#137a3d" fill-opacity="0.18" stroke="#137a3d" stroke-width="2"/><line x1="386" y1="184.5" x2="420" y2="184.5" stroke="#137a3d" stroke-width="3"/><text x="403" y="230" text-anchor="middle" font-family="Inter,Segoe UI,Arial,sans-serif" font-size="9" fill="#111827">ax_engine + n-gram</text><text x="403" y="246" text-anchor="middle" font-family="Inter,Segoe UI,Arial,sans-serif" font-size="10" fill="#6b7280">med 121</text><circle cx="394.5" cy="200.2" r="2" fill="#0b4f28" fill-opacity="0.9"/><circle cx="398" cy="195.3" r="2" fill="#0b4f28" fill-opacity="0.9"/><circle cx="401" cy="200.1" r="2" fill="#0b4f28" fill-opacity="0.9"/><circle cx="404.5" cy="195.0" r="2" fill="#0b4f28" fill-opacity="0.9"/><circle cx="408" cy="200.0" r="2" fill="#0b4f28" fill-opacity="0.9"/><circle cx="411.5" cy="193.7" r="2" fill="#0b4f28" fill-opacity="0.9"/><circle cx="396.5" cy="200.0" r="2" fill="#0b4f28" fill-opacity="0.9"/><circle cx="406.5" cy="195.0" r="2" fill="#0b4f28" fill-opacity="0.9"/><circle cx="394.5" cy="198.4" r="2" fill="#0b4f28" fill-opacity="0.9"/><circle cx="398" cy="186.5" r="2" fill="#0b4f28" fill-opacity="0.9"/><circle cx="401" cy="188.7" r="2" fill="#0b4f28" fill-opacity="0.9"/><circle cx="404.5" cy="177.0" r="2" fill="#0b4f28" fill-opacity="0.9"/><circle cx="408" cy="171.0" r="2" fill="#0b4f28" fill-opacity="0.9"/><circle cx="411.5" cy="89.7" r="2" fill="#0b4f28" fill-opacity="0.9"/><circle cx="396.5" cy="196.1" r="2" fill="#0b4f28" fill-opacity="0.9"/><circle cx="406.5" cy="176.2" r="2" fill="#0b4f28" fill-opacity="0.9"/><circle cx="394.5" cy="185.8" r="2" fill="#0b4f28" fill-opacity="0.9"/><circle cx="398" cy="173.9" r="2" fill="#0b4f28" fill-opacity="0.9"/><circle cx="401" cy="184.6" r="2" fill="#0b4f28" fill-opacity="0.9"/><circle cx="404.5" cy="172.9" r="2" fill="#0b4f28" fill-opacity="0.9"/><circle cx="408" cy="184.3" r="2" fill="#0b4f28" fill-opacity="0.9"/><circle cx="411.5" cy="171.5" r="2" fill="#0b4f28" fill-opacity="0.9"/><circle cx="396.5" cy="184.0" r="2" fill="#0b4f28" fill-opacity="0.9"/><circle cx="406.5" cy="171.3" r="2" fill="#0b4f28" fill-opacity="0.9"/><circle cx="394.5" cy="180.5" r="2" fill="#0b4f28" fill-opacity="0.9"/><circle cx="398" cy="156.7" r="2" fill="#0b4f28" fill-opacity="0.9"/><circle cx="401" cy="181.7" r="2" fill="#0b4f28" fill-opacity="0.9"/><circle cx="404.5" cy="169.9" r="2" fill="#0b4f28" fill-opacity="0.9"/></svg>
