<svg xmlns="http://www.w3.org/2000/svg" width="900" height="460" viewBox="0 0 900 460" role="img" aria-labelledby="title desc">
<title>Qwen3.6 27B 4-bit MTP prefill throughput</title>
<desc>Grouped box-and-whisker plot comparing MTPLX 0.3.7, Lightning v0.6.10, Lightning+ng v0.6.10, AX Engine v5.1.1, AX+ngram v5.1.1.</desc>
<rect width="100%" height="100%" fill="#f8fafc"/>
<text x="24" y="24" font-family="Inter,Segoe UI,Arial,sans-serif" font-size="16" font-weight="700" fill="#111827">Qwen3.6 27B 4-bit MTP prefill throughput</text>
<text x="24" y="46" font-family="Inter,Segoe UI,Arial,sans-serif" font-size="11" fill="#4b5563">F=flappy · L=long_code · P=python_modules | box=IQR | dots=runs | Lightning ~= TTFT-derived</text>
<text x="24" y="62" font-family="Inter,Segoe UI,Arial,sans-serif" font-size="10" fill="#6b7280">MTPLX 0.3.7 · Lightning-MLX 0.6.10 · AX Engine v5.1.1</text>
<rect x="807" y="13" width="59" height="22" rx="11" fill="#eef2ff" stroke="#c7d2fe"/>
<text x="836.5" y="28" text-anchor="middle" font-family="Inter,Segoe UI,Arial,sans-serif" font-size="10" font-weight="700" fill="#3730a3">tok/s</text>
<text x="866" y="52" text-anchor="end" font-family="Inter,Segoe UI,Arial,sans-serif" font-size="10" font-weight="700" fill="#374151">Higher is better</text>
<rect x="64" y="86" width="676" height="268" rx="6" fill="#ffffff" stroke="#dbe3ef"/>
<line x1="64" y1="354.0" x2="740" y2="354.0" stroke="#e5e7eb" stroke-width="1"/>
<text x="56" y="357.0" text-anchor="end" font-family="Inter,Segoe UI,Arial,sans-serif" font-size="11" fill="#6b7280">0.0</text>
<line x1="64" y1="287.0" x2="740" y2="287.0" stroke="#e5e7eb" stroke-width="1"/>
<text x="56" y="290.0" text-anchor="end" font-family="Inter,Segoe UI,Arial,sans-serif" font-size="11" fill="#6b7280">250</text>
<line x1="64" y1="220.0" x2="740" y2="220.0" stroke="#e5e7eb" stroke-width="1"/>
<text x="56" y="223.0" text-anchor="end" font-family="Inter,Segoe UI,Arial,sans-serif" font-size="11" fill="#6b7280">500</text>
<line x1="64" y1="153.0" x2="740" y2="153.0" stroke="#e5e7eb" stroke-width="1"/>
<text x="56" y="156.0" text-anchor="end" font-family="Inter,Segoe UI,Arial,sans-serif" font-size="11" fill="#6b7280">750</text>
<line x1="64" y1="86.0" x2="740" y2="86.0" stroke="#e5e7eb" stroke-width="1"/>
<text x="56" y="89.0" text-anchor="end" font-family="Inter,Segoe UI,Arial,sans-serif" font-size="11" fill="#6b7280">1k</text>
<line x1="64" y1="141.1" x2="740" y2="141.1" stroke="#dc2626" stroke-width="1.2" stroke-dasharray="1 4" stroke-linecap="round"/>
<text x="748" y="136.1" text-anchor="start" font-family="Inter,Segoe UI,Arial,sans-serif" font-size="11" font-weight="700" fill="#dc2626" data-label="highest median">highest: 794</text>
<text x="176.7" y="398" text-anchor="middle" font-family="Inter,Segoe UI,Arial,sans-serif" font-size="11" font-weight="700" fill="#111827">F</text>
<circle cx="95.8" cy="175.5" r="1.45" fill="#14532d" fill-opacity="0.46"/>
<circle cx="98.3" cy="182.2" r="1.45" fill="#14532d" fill-opacity="0.46"/>
<circle cx="100.8" cy="180.8" r="1.45" fill="#14532d" fill-opacity="0.46"/>
<circle cx="103.3" cy="179.5" r="1.45" fill="#14532d" fill-opacity="0.46"/>
<circle cx="105.7" cy="180.7" r="1.45" fill="#14532d" fill-opacity="0.46"/>
<circle cx="108.2" cy="151.7" r="1.45" fill="#14532d" fill-opacity="0.46"/>
<circle cx="110.7" cy="156.8" r="1.45" fill="#14532d" fill-opacity="0.46"/>
<circle cx="113.1" cy="144.5" r="1.45" fill="#14532d" fill-opacity="0.46"/>
<circle cx="115.6" cy="155.8" r="1.45" fill="#14532d" fill-opacity="0.46"/>
<circle cx="95.8" cy="156.9" r="1.45" fill="#14532d" fill-opacity="0.46"/>
<circle cx="98.3" cy="147.0" r="1.45" fill="#14532d" fill-opacity="0.46"/>
<circle cx="100.8" cy="152.7" r="1.45" fill="#14532d" fill-opacity="0.46"/>
<circle cx="103.3" cy="151.6" r="1.45" fill="#14532d" fill-opacity="0.46"/>
<circle cx="105.7" cy="149.4" r="1.45" fill="#14532d" fill-opacity="0.46"/>
<circle cx="108.2" cy="147.6" r="1.45" fill="#14532d" fill-opacity="0.46"/>
<circle cx="110.7" cy="190.5" r="1.45" fill="#14532d" fill-opacity="0.46"/>
<circle cx="113.1" cy="190.5" r="1.45" fill="#14532d" fill-opacity="0.46"/>
<circle cx="115.6" cy="191.6" r="1.45" fill="#14532d" fill-opacity="0.46"/>
<circle cx="95.8" cy="194.3" r="1.45" fill="#14532d" fill-opacity="0.46"/>
<circle cx="98.3" cy="192.0" r="1.45" fill="#14532d" fill-opacity="0.46"/>
<line x1="105.7" y1="144.5" x2="105.7" y2="194.3" stroke="#14532d" stroke-opacity="0.82" stroke-width="1.8"/>
<line x1="95.8" y1="144.5" x2="115.6" y2="144.5" stroke="#14532d" stroke-opacity="0.82" stroke-width="1.8"/>
<line x1="95.8" y1="194.3" x2="115.6" y2="194.3" stroke="#14532d" stroke-opacity="0.82" stroke-width="1.8"/>
<rect x="92.0" y="151.6" width="27.5" height="32.6" rx="2" fill="#14532d" fill-opacity="0.18" stroke="#14532d" stroke-opacity="0.82" stroke-width="1.8"/>
<line x1="92.0" y1="166.2" x2="119.5" y2="166.2" stroke="#14532d" stroke-opacity="0.82" stroke-width="2.6"/>
<text x="125.5" y="170.2" text-anchor="start" font-family="Inter,Segoe UI,Arial,sans-serif" font-size="11" font-weight="700" fill="#111827" stroke="#ffffff" stroke-width="3" paint-order="stroke">701</text>
<circle cx="131.3" cy="243.3" r="1.45" fill="#7c3aed" fill-opacity="0.34"/>
<circle cx="133.8" cy="240.7" r="1.45" fill="#7c3aed" fill-opacity="0.34"/>
<circle cx="136.3" cy="241.2" r="1.45" fill="#7c3aed" fill-opacity="0.34"/>
<circle cx="138.7" cy="237.6" r="1.45" fill="#7c3aed" fill-opacity="0.34"/>
<circle cx="141.2" cy="240.6" r="1.45" fill="#7c3aed" fill-opacity="0.34"/>
<circle cx="143.7" cy="214.1" r="1.45" fill="#7c3aed" fill-opacity="0.34"/>
<circle cx="146.1" cy="213.9" r="1.45" fill="#7c3aed" fill-opacity="0.34"/>
<circle cx="148.6" cy="213.8" r="1.45" fill="#7c3aed" fill-opacity="0.34"/>
<circle cx="151.1" cy="213.0" r="1.45" fill="#7c3aed" fill-opacity="0.34"/>
<circle cx="131.3" cy="210.9" r="1.45" fill="#7c3aed" fill-opacity="0.34"/>
<circle cx="133.8" cy="203.7" r="1.45" fill="#7c3aed" fill-opacity="0.34"/>
<circle cx="136.3" cy="205.2" r="1.45" fill="#7c3aed" fill-opacity="0.34"/>
<circle cx="138.7" cy="205.7" r="1.45" fill="#7c3aed" fill-opacity="0.34"/>
<circle cx="141.2" cy="205.3" r="1.45" fill="#7c3aed" fill-opacity="0.34"/>
<circle cx="143.7" cy="203.8" r="1.45" fill="#7c3aed" fill-opacity="0.34"/>
<circle cx="146.1" cy="244.3" r="1.45" fill="#7c3aed" fill-opacity="0.34"/>
<circle cx="148.6" cy="243.7" r="1.45" fill="#7c3aed" fill-opacity="0.34"/>
<circle cx="151.1" cy="243.9" r="1.45" fill="#7c3aed" fill-opacity="0.34"/>
<circle cx="131.3" cy="244.5" r="1.45" fill="#7c3aed" fill-opacity="0.34"/>
<circle cx="133.8" cy="243.5" r="1.45" fill="#7c3aed" fill-opacity="0.34"/>
<line x1="141.2" y1="203.7" x2="141.2" y2="244.5" stroke="#7c3aed" stroke-opacity="0.55" stroke-width="1.8"/>
<line x1="131.3" y1="203.7" x2="151.1" y2="203.7" stroke="#7c3aed" stroke-opacity="0.55" stroke-width="1.8"/>
<line x1="131.3" y1="244.5" x2="151.1" y2="244.5" stroke="#7c3aed" stroke-opacity="0.55" stroke-width="1.8"/>
<rect x="127.5" y="209.6" width="27.5" height="33.7" rx="2" fill="#7c3aed" fill-opacity="0.12" stroke="#7c3aed" stroke-opacity="0.55" stroke-width="1.8"/>
<line x1="127.5" y1="225.9" x2="154.9" y2="225.9" stroke="#7c3aed" stroke-opacity="0.55" stroke-width="2.6"/>
<text x="160.9" y="229.9" text-anchor="start" font-family="Inter,Segoe UI,Arial,sans-serif" font-size="11" font-weight="700" fill="#111827" stroke="#ffffff" stroke-width="3" paint-order="stroke">478</text>
<circle cx="166.8" cy="242.2" r="1.45" fill="#1e3a8a" fill-opacity="0.34"/>
<circle cx="169.3" cy="241.8" r="1.45" fill="#1e3a8a" fill-opacity="0.34"/>
<circle cx="171.7" cy="241.4" r="1.45" fill="#1e3a8a" fill-opacity="0.34"/>
<circle cx="174.2" cy="242.4" r="1.45" fill="#1e3a8a" fill-opacity="0.34"/>
<circle cx="176.7" cy="241.0" r="1.45" fill="#1e3a8a" fill-opacity="0.34"/>
<circle cx="179.1" cy="216.6" r="1.45" fill="#1e3a8a" fill-opacity="0.34"/>
<circle cx="181.6" cy="215.8" r="1.45" fill="#1e3a8a" fill-opacity="0.34"/>
<circle cx="184.1" cy="216.3" r="1.45" fill="#1e3a8a" fill-opacity="0.34"/>
<circle cx="186.6" cy="216.3" r="1.45" fill="#1e3a8a" fill-opacity="0.34"/>
<circle cx="166.8" cy="215.3" r="1.45" fill="#1e3a8a" fill-opacity="0.34"/>
<circle cx="169.3" cy="206.5" r="1.45" fill="#1e3a8a" fill-opacity="0.34"/>
<circle cx="171.7" cy="206.8" r="1.45" fill="#1e3a8a" fill-opacity="0.34"/>
<circle cx="174.2" cy="205.7" r="1.45" fill="#1e3a8a" fill-opacity="0.34"/>
<circle cx="176.7" cy="202.4" r="1.45" fill="#1e3a8a" fill-opacity="0.34"/>
<circle cx="179.1" cy="207.2" r="1.45" fill="#1e3a8a" fill-opacity="0.34"/>
<circle cx="181.6" cy="242.6" r="1.45" fill="#1e3a8a" fill-opacity="0.34"/>
<circle cx="184.1" cy="243.3" r="1.45" fill="#1e3a8a" fill-opacity="0.34"/>
<circle cx="186.6" cy="245.2" r="1.45" fill="#1e3a8a" fill-opacity="0.34"/>
<circle cx="166.8" cy="244.8" r="1.45" fill="#1e3a8a" fill-opacity="0.34"/>
<circle cx="169.3" cy="245.9" r="1.45" fill="#1e3a8a" fill-opacity="0.34"/>
<line x1="176.7" y1="202.4" x2="176.7" y2="245.9" stroke="#1e3a8a" stroke-opacity="0.55" stroke-width="1.8"/>
<line x1="166.8" y1="202.4" x2="186.6" y2="202.4" stroke="#1e3a8a" stroke-opacity="0.55" stroke-width="1.8"/>
<line x1="166.8" y1="245.9" x2="186.6" y2="245.9" stroke="#1e3a8a" stroke-opacity="0.55" stroke-width="1.8"/>
<rect x="162.9" y="213.3" width="27.5" height="29.1" rx="2" fill="#1e3a8a" fill-opacity="0.12" stroke="#1e3a8a" stroke-opacity="0.55" stroke-width="1.8"/>
<line x1="162.9" y1="228.8" x2="190.4" y2="228.8" stroke="#1e3a8a" stroke-opacity="0.55" stroke-width="2.6"/>
<text x="196.4" y="232.8" text-anchor="start" font-family="Inter,Segoe UI,Arial,sans-serif" font-size="11" font-weight="700" fill="#111827" stroke="#ffffff" stroke-width="3" paint-order="stroke">467</text>
<circle cx="202.2" cy="189.4" r="1.45" fill="#f97316" fill-opacity="0.46"/>
<circle cx="204.7" cy="160.3" r="1.45" fill="#f97316" fill-opacity="0.46"/>
<circle cx="207.2" cy="155.2" r="1.45" fill="#f97316" fill-opacity="0.46"/>
<circle cx="209.7" cy="193.7" r="1.45" fill="#f97316" fill-opacity="0.46"/>
<line x1="212.1" y1="155.2" x2="212.1" y2="193.7" stroke="#f97316" stroke-opacity="0.82" stroke-width="1.8"/>
<line x1="202.2" y1="155.2" x2="222.0" y2="155.2" stroke="#f97316" stroke-opacity="0.82" stroke-width="1.8"/>
<line x1="202.2" y1="193.7" x2="222.0" y2="193.7" stroke="#f97316" stroke-opacity="0.82" stroke-width="1.8"/>
<rect x="198.4" y="159.1" width="27.5" height="31.4" rx="2" fill="#f97316" fill-opacity="0.18" stroke="#f97316" stroke-opacity="0.82" stroke-width="1.8"/>
<line x1="198.4" y1="174.9" x2="225.9" y2="174.9" stroke="#f97316" stroke-opacity="0.82" stroke-width="2.6"/>
<text x="231.9" y="178.9" text-anchor="start" font-family="Inter,Segoe UI,Arial,sans-serif" font-size="11" font-weight="700" fill="#111827" stroke="#ffffff" stroke-width="3" paint-order="stroke">668</text>
<circle cx="237.7" cy="189.6" r="1.45" fill="#eab308" fill-opacity="0.46"/>
<circle cx="240.2" cy="160.7" r="1.45" fill="#eab308" fill-opacity="0.46"/>
<circle cx="242.7" cy="154.9" r="1.45" fill="#eab308" fill-opacity="0.46"/>
<circle cx="245.1" cy="193.2" r="1.45" fill="#eab308" fill-opacity="0.46"/>
<line x1="247.6" y1="154.9" x2="247.6" y2="193.2" stroke="#eab308" stroke-opacity="0.82" stroke-width="1.8"/>
<line x1="237.7" y1="154.9" x2="257.5" y2="154.9" stroke="#eab308" stroke-opacity="0.82" stroke-width="1.8"/>
<line x1="237.7" y1="193.2" x2="257.5" y2="193.2" stroke="#eab308" stroke-opacity="0.82" stroke-width="1.8"/>
<rect x="233.9" y="159.3" width="27.5" height="31.2" rx="2" fill="#eab308" fill-opacity="0.18" stroke="#eab308" stroke-opacity="0.82" stroke-width="1.8"/>
<line x1="233.9" y1="175.2" x2="261.3" y2="175.2" stroke="#eab308" stroke-opacity="0.82" stroke-width="2.6"/>
<text x="267.3" y="179.2" text-anchor="start" font-family="Inter,Segoe UI,Arial,sans-serif" font-size="11" font-weight="700" fill="#111827" stroke="#ffffff" stroke-width="3" paint-order="stroke">667</text>
<text x="402.0" y="398" text-anchor="middle" font-family="Inter,Segoe UI,Arial,sans-serif" font-size="11" font-weight="700" fill="#111827">L</text>
<circle cx="321.2" cy="138.3" r="1.45" fill="#14532d" fill-opacity="0.46"/>
<circle cx="323.7" cy="141.5" r="1.45" fill="#14532d" fill-opacity="0.46"/>
<circle cx="326.1" cy="140.2" r="1.45" fill="#14532d" fill-opacity="0.46"/>
<circle cx="328.6" cy="140.8" r="1.45" fill="#14532d" fill-opacity="0.46"/>
<circle cx="331.1" cy="138.1" r="1.45" fill="#14532d" fill-opacity="0.46"/>
<circle cx="333.5" cy="133.9" r="1.45" fill="#14532d" fill-opacity="0.46"/>
<circle cx="336.0" cy="133.2" r="1.45" fill="#14532d" fill-opacity="0.46"/>
<circle cx="338.5" cy="131.4" r="1.45" fill="#14532d" fill-opacity="0.46"/>
<circle cx="341.0" cy="132.2" r="1.45" fill="#14532d" fill-opacity="0.46"/>
<circle cx="321.2" cy="137.1" r="1.45" fill="#14532d" fill-opacity="0.46"/>
<circle cx="323.7" cy="142.6" r="1.45" fill="#14532d" fill-opacity="0.46"/>
<circle cx="326.1" cy="141.4" r="1.45" fill="#14532d" fill-opacity="0.46"/>
<circle cx="328.6" cy="139.8" r="1.45" fill="#14532d" fill-opacity="0.46"/>
<circle cx="331.1" cy="142.2" r="1.45" fill="#14532d" fill-opacity="0.46"/>
<circle cx="333.5" cy="141.6" r="1.45" fill="#14532d" fill-opacity="0.46"/>
<circle cx="336.0" cy="156.5" r="1.45" fill="#14532d" fill-opacity="0.46"/>
<circle cx="338.5" cy="159.3" r="1.45" fill="#14532d" fill-opacity="0.46"/>
<circle cx="341.0" cy="160.5" r="1.45" fill="#14532d" fill-opacity="0.46"/>
<circle cx="321.2" cy="161.3" r="1.45" fill="#14532d" fill-opacity="0.46"/>
<circle cx="323.7" cy="161.1" r="1.45" fill="#14532d" fill-opacity="0.46"/>
<line x1="331.1" y1="131.4" x2="331.1" y2="161.3" stroke="#14532d" stroke-opacity="0.82" stroke-width="1.8"/>
<line x1="321.2" y1="131.4" x2="341.0" y2="131.4" stroke="#14532d" stroke-opacity="0.82" stroke-width="1.8"/>
<line x1="321.2" y1="161.3" x2="341.0" y2="161.3" stroke="#14532d" stroke-opacity="0.82" stroke-width="1.8"/>
<rect x="317.3" y="137.8" width="27.5" height="8.3" rx="2" fill="#14532d" fill-opacity="0.18" stroke="#14532d" stroke-opacity="0.82" stroke-width="1.8"/>
<line x1="317.3" y1="141.1" x2="344.8" y2="141.1" stroke="#14532d" stroke-opacity="0.82" stroke-width="2.6"/>
<text x="350.8" y="145.1" text-anchor="start" font-family="Inter,Segoe UI,Arial,sans-serif" font-size="11" font-weight="700" fill="#111827" stroke="#ffffff" stroke-width="3" paint-order="stroke">794</text>
<circle cx="356.6" cy="176.5" r="1.45" fill="#7c3aed" fill-opacity="0.34"/>
<circle cx="359.1" cy="177.0" r="1.45" fill="#7c3aed" fill-opacity="0.34"/>
<circle cx="361.6" cy="176.0" r="1.45" fill="#7c3aed" fill-opacity="0.34"/>
<circle cx="364.1" cy="176.6" r="1.45" fill="#7c3aed" fill-opacity="0.34"/>
<circle cx="366.5" cy="177.1" r="1.45" fill="#7c3aed" fill-opacity="0.34"/>
<circle cx="369.0" cy="166.1" r="1.45" fill="#7c3aed" fill-opacity="0.34"/>
<circle cx="371.5" cy="164.5" r="1.45" fill="#7c3aed" fill-opacity="0.34"/>
<circle cx="373.9" cy="167.2" r="1.45" fill="#7c3aed" fill-opacity="0.34"/>
<circle cx="376.4" cy="166.8" r="1.45" fill="#7c3aed" fill-opacity="0.34"/>
<circle cx="356.6" cy="166.7" r="1.45" fill="#7c3aed" fill-opacity="0.34"/>
<circle cx="359.1" cy="177.8" r="1.45" fill="#7c3aed" fill-opacity="0.34"/>
<circle cx="361.6" cy="178.2" r="1.45" fill="#7c3aed" fill-opacity="0.34"/>
<circle cx="364.1" cy="178.0" r="1.45" fill="#7c3aed" fill-opacity="0.34"/>
<circle cx="366.5" cy="178.8" r="1.45" fill="#7c3aed" fill-opacity="0.34"/>
<circle cx="369.0" cy="178.2" r="1.45" fill="#7c3aed" fill-opacity="0.34"/>
<circle cx="371.5" cy="210.4" r="1.45" fill="#7c3aed" fill-opacity="0.34"/>
<circle cx="373.9" cy="207.7" r="1.45" fill="#7c3aed" fill-opacity="0.34"/>
<circle cx="376.4" cy="208.8" r="1.45" fill="#7c3aed" fill-opacity="0.34"/>
<circle cx="356.6" cy="206.9" r="1.45" fill="#7c3aed" fill-opacity="0.34"/>
<circle cx="359.1" cy="206.0" r="1.45" fill="#7c3aed" fill-opacity="0.34"/>
<line x1="366.5" y1="164.5" x2="366.5" y2="210.4" stroke="#7c3aed" stroke-opacity="0.55" stroke-width="1.8"/>
<line x1="356.6" y1="164.5" x2="376.4" y2="164.5" stroke="#7c3aed" stroke-opacity="0.55" stroke-width="1.8"/>
<line x1="356.6" y1="210.4" x2="376.4" y2="210.4" stroke="#7c3aed" stroke-opacity="0.55" stroke-width="1.8"/>
<rect x="352.8" y="173.8" width="27.5" height="11.8" rx="2" fill="#7c3aed" fill-opacity="0.12" stroke="#7c3aed" stroke-opacity="0.55" stroke-width="1.8"/>
<line x1="352.8" y1="177.4" x2="380.3" y2="177.4" stroke="#7c3aed" stroke-opacity="0.55" stroke-width="2.6"/>
<text x="386.3" y="181.4" text-anchor="start" font-family="Inter,Segoe UI,Arial,sans-serif" font-size="11" font-weight="700" fill="#111827" stroke="#ffffff" stroke-width="3" paint-order="stroke">659</text>
<circle cx="392.1" cy="176.4" r="1.45" fill="#1e3a8a" fill-opacity="0.34"/>
<circle cx="394.6" cy="177.1" r="1.45" fill="#1e3a8a" fill-opacity="0.34"/>
<circle cx="397.1" cy="178.2" r="1.45" fill="#1e3a8a" fill-opacity="0.34"/>
<circle cx="399.5" cy="177.5" r="1.45" fill="#1e3a8a" fill-opacity="0.34"/>
<circle cx="402.0" cy="177.1" r="1.45" fill="#1e3a8a" fill-opacity="0.34"/>
<circle cx="404.5" cy="167.9" r="1.45" fill="#1e3a8a" fill-opacity="0.34"/>
<circle cx="406.9" cy="167.4" r="1.45" fill="#1e3a8a" fill-opacity="0.34"/>
<circle cx="409.4" cy="167.4" r="1.45" fill="#1e3a8a" fill-opacity="0.34"/>
<circle cx="411.9" cy="167.7" r="1.45" fill="#1e3a8a" fill-opacity="0.34"/>
<circle cx="392.1" cy="167.4" r="1.45" fill="#1e3a8a" fill-opacity="0.34"/>
<circle cx="394.6" cy="178.8" r="1.45" fill="#1e3a8a" fill-opacity="0.34"/>
<circle cx="397.1" cy="179.3" r="1.45" fill="#1e3a8a" fill-opacity="0.34"/>
<circle cx="399.5" cy="178.5" r="1.45" fill="#1e3a8a" fill-opacity="0.34"/>
<circle cx="402.0" cy="177.7" r="1.45" fill="#1e3a8a" fill-opacity="0.34"/>
<circle cx="404.5" cy="179.0" r="1.45" fill="#1e3a8a" fill-opacity="0.34"/>
<circle cx="406.9" cy="209.3" r="1.45" fill="#1e3a8a" fill-opacity="0.34"/>
<circle cx="409.4" cy="209.5" r="1.45" fill="#1e3a8a" fill-opacity="0.34"/>
<circle cx="411.9" cy="209.5" r="1.45" fill="#1e3a8a" fill-opacity="0.34"/>
<circle cx="392.1" cy="208.5" r="1.45" fill="#1e3a8a" fill-opacity="0.34"/>
<circle cx="394.6" cy="209.3" r="1.45" fill="#1e3a8a" fill-opacity="0.34"/>
<line x1="402.0" y1="167.4" x2="402.0" y2="209.5" stroke="#1e3a8a" stroke-opacity="0.55" stroke-width="1.8"/>
<line x1="392.1" y1="167.4" x2="411.9" y2="167.4" stroke="#1e3a8a" stroke-opacity="0.55" stroke-width="1.8"/>
<line x1="392.1" y1="209.5" x2="411.9" y2="209.5" stroke="#1e3a8a" stroke-opacity="0.55" stroke-width="1.8"/>
<rect x="388.3" y="174.3" width="27.5" height="12.3" rx="2" fill="#1e3a8a" fill-opacity="0.12" stroke="#1e3a8a" stroke-opacity="0.55" stroke-width="1.8"/>
<line x1="388.3" y1="177.9" x2="415.7" y2="177.9" stroke="#1e3a8a" stroke-opacity="0.55" stroke-width="2.6"/>
<text x="421.7" y="181.9" text-anchor="start" font-family="Inter,Segoe UI,Arial,sans-serif" font-size="11" font-weight="700" fill="#111827" stroke="#ffffff" stroke-width="3" paint-order="stroke">657</text>
<circle cx="427.6" cy="146.7" r="1.45" fill="#f97316" fill-opacity="0.46"/>
<circle cx="430.1" cy="138.0" r="1.45" fill="#f97316" fill-opacity="0.46"/>
<circle cx="432.5" cy="145.6" r="1.45" fill="#f97316" fill-opacity="0.46"/>
<circle cx="435.0" cy="165.7" r="1.45" fill="#f97316" fill-opacity="0.46"/>
<line x1="437.5" y1="138.0" x2="437.5" y2="165.7" stroke="#f97316" stroke-opacity="0.82" stroke-width="1.8"/>
<line x1="427.6" y1="138.0" x2="447.4" y2="138.0" stroke="#f97316" stroke-opacity="0.82" stroke-width="1.8"/>
<line x1="427.6" y1="165.7" x2="447.4" y2="165.7" stroke="#f97316" stroke-opacity="0.82" stroke-width="1.8"/>
<rect x="423.7" y="143.7" width="27.5" height="7.7" rx="2" fill="#f97316" fill-opacity="0.18" stroke="#f97316" stroke-opacity="0.82" stroke-width="1.8"/>
<line x1="423.7" y1="146.2" x2="451.2" y2="146.2" stroke="#f97316" stroke-opacity="0.82" stroke-width="2.6"/>
<text x="457.2" y="150.2" text-anchor="start" font-family="Inter,Segoe UI,Arial,sans-serif" font-size="11" font-weight="700" fill="#111827" stroke="#ffffff" stroke-width="3" paint-order="stroke">776</text>
<circle cx="463.0" cy="144.3" r="1.45" fill="#eab308" fill-opacity="0.46"/>
<circle cx="465.5" cy="137.1" r="1.45" fill="#eab308" fill-opacity="0.46"/>
<circle cx="468.0" cy="145.4" r="1.45" fill="#eab308" fill-opacity="0.46"/>
<circle cx="470.5" cy="165.5" r="1.45" fill="#eab308" fill-opacity="0.46"/>
<line x1="472.9" y1="137.1" x2="472.9" y2="165.5" stroke="#eab308" stroke-opacity="0.82" stroke-width="1.8"/>
<line x1="463.0" y1="137.1" x2="482.8" y2="137.1" stroke="#eab308" stroke-opacity="0.82" stroke-width="1.8"/>
<line x1="463.0" y1="165.5" x2="482.8" y2="165.5" stroke="#eab308" stroke-opacity="0.82" stroke-width="1.8"/>
<rect x="459.2" y="142.5" width="27.5" height="7.9" rx="2" fill="#eab308" fill-opacity="0.18" stroke="#eab308" stroke-opacity="0.82" stroke-width="1.8"/>
<line x1="459.2" y1="144.9" x2="486.7" y2="144.9" stroke="#eab308" stroke-opacity="0.82" stroke-width="2.6"/>
<text x="492.7" y="148.9" text-anchor="start" font-family="Inter,Segoe UI,Arial,sans-serif" font-size="11" font-weight="700" fill="#111827" stroke="#ffffff" stroke-width="3" paint-order="stroke">780</text>
<text x="627.3" y="398" text-anchor="middle" font-family="Inter,Segoe UI,Arial,sans-serif" font-size="11" font-weight="700" fill="#111827">P</text>
<circle cx="546.5" cy="179.8" r="1.45" fill="#14532d" fill-opacity="0.46"/>
<circle cx="549.0" cy="180.8" r="1.45" fill="#14532d" fill-opacity="0.46"/>
<circle cx="551.5" cy="181.2" r="1.45" fill="#14532d" fill-opacity="0.46"/>
<circle cx="553.9" cy="180.7" r="1.45" fill="#14532d" fill-opacity="0.46"/>
<circle cx="556.4" cy="181.5" r="1.45" fill="#14532d" fill-opacity="0.46"/>
<circle cx="558.9" cy="170.1" r="1.45" fill="#14532d" fill-opacity="0.46"/>
<circle cx="561.3" cy="168.8" r="1.45" fill="#14532d" fill-opacity="0.46"/>
<circle cx="563.8" cy="170.5" r="1.45" fill="#14532d" fill-opacity="0.46"/>
<circle cx="566.3" cy="167.9" r="1.45" fill="#14532d" fill-opacity="0.46"/>
<circle cx="546.5" cy="168.5" r="1.45" fill="#14532d" fill-opacity="0.46"/>
<circle cx="549.0" cy="170.1" r="1.45" fill="#14532d" fill-opacity="0.46"/>
<circle cx="551.5" cy="169.0" r="1.45" fill="#14532d" fill-opacity="0.46"/>
<circle cx="553.9" cy="168.4" r="1.45" fill="#14532d" fill-opacity="0.46"/>
<circle cx="556.4" cy="165.8" r="1.45" fill="#14532d" fill-opacity="0.46"/>
<circle cx="558.9" cy="169.4" r="1.45" fill="#14532d" fill-opacity="0.46"/>
<line x1="556.4" y1="165.8" x2="556.4" y2="181.5" stroke="#14532d" stroke-opacity="0.82" stroke-width="1.8"/>
<line x1="546.5" y1="165.8" x2="566.3" y2="165.8" stroke="#14532d" stroke-opacity="0.82" stroke-width="1.8"/>
<line x1="546.5" y1="181.5" x2="566.3" y2="181.5" stroke="#14532d" stroke-opacity="0.82" stroke-width="1.8"/>
<rect x="542.7" y="168.6" width="27.5" height="11.6" rx="2" fill="#14532d" fill-opacity="0.18" stroke="#14532d" stroke-opacity="0.82" stroke-width="1.8"/>
<line x1="542.7" y1="170.1" x2="570.1" y2="170.1" stroke="#14532d" stroke-opacity="0.82" stroke-width="2.6"/>
<text x="576.1" y="174.1" text-anchor="start" font-family="Inter,Segoe UI,Arial,sans-serif" font-size="11" font-weight="700" fill="#111827" stroke="#ffffff" stroke-width="3" paint-order="stroke">686</text>
<circle cx="582.0" cy="238.8" r="1.45" fill="#7c3aed" fill-opacity="0.34"/>
<circle cx="584.5" cy="235.5" r="1.45" fill="#7c3aed" fill-opacity="0.34"/>
<circle cx="586.9" cy="237.9" r="1.45" fill="#7c3aed" fill-opacity="0.34"/>
<circle cx="589.4" cy="238.2" r="1.45" fill="#7c3aed" fill-opacity="0.34"/>
<circle cx="591.9" cy="237.0" r="1.45" fill="#7c3aed" fill-opacity="0.34"/>
<circle cx="594.3" cy="224.2" r="1.45" fill="#7c3aed" fill-opacity="0.34"/>
<circle cx="596.8" cy="224.8" r="1.45" fill="#7c3aed" fill-opacity="0.34"/>
<circle cx="599.3" cy="224.7" r="1.45" fill="#7c3aed" fill-opacity="0.34"/>
<circle cx="601.8" cy="224.4" r="1.45" fill="#7c3aed" fill-opacity="0.34"/>
<circle cx="582.0" cy="224.6" r="1.45" fill="#7c3aed" fill-opacity="0.34"/>
<circle cx="584.5" cy="223.4" r="1.45" fill="#7c3aed" fill-opacity="0.34"/>
<circle cx="586.9" cy="223.3" r="1.45" fill="#7c3aed" fill-opacity="0.34"/>
<circle cx="589.4" cy="224.4" r="1.45" fill="#7c3aed" fill-opacity="0.34"/>
<circle cx="591.9" cy="224.0" r="1.45" fill="#7c3aed" fill-opacity="0.34"/>
<circle cx="594.3" cy="222.9" r="1.45" fill="#7c3aed" fill-opacity="0.34"/>
<line x1="591.9" y1="222.9" x2="591.9" y2="238.8" stroke="#7c3aed" stroke-opacity="0.55" stroke-width="1.8"/>
<line x1="582.0" y1="222.9" x2="601.8" y2="222.9" stroke="#7c3aed" stroke-opacity="0.55" stroke-width="1.8"/>
<line x1="582.0" y1="238.8" x2="601.8" y2="238.8" stroke="#7c3aed" stroke-opacity="0.55" stroke-width="1.8"/>
<rect x="578.1" y="224.1" width="27.5" height="12.1" rx="2" fill="#7c3aed" fill-opacity="0.12" stroke="#7c3aed" stroke-opacity="0.55" stroke-width="1.8"/>
<line x1="578.1" y1="224.6" x2="605.6" y2="224.6" stroke="#7c3aed" stroke-opacity="0.55" stroke-width="2.6"/>
<text x="611.6" y="228.6" text-anchor="start" font-family="Inter,Segoe UI,Arial,sans-serif" font-size="11" font-weight="700" fill="#111827" stroke="#ffffff" stroke-width="3" paint-order="stroke">483</text>
<circle cx="617.4" cy="239.2" r="1.45" fill="#1e3a8a" fill-opacity="0.34"/>
<circle cx="619.9" cy="239.3" r="1.45" fill="#1e3a8a" fill-opacity="0.34"/>
<circle cx="622.4" cy="239.0" r="1.45" fill="#1e3a8a" fill-opacity="0.34"/>
<circle cx="624.9" cy="239.0" r="1.45" fill="#1e3a8a" fill-opacity="0.34"/>
<circle cx="627.3" cy="240.0" r="1.45" fill="#1e3a8a" fill-opacity="0.34"/>
<circle cx="629.8" cy="225.9" r="1.45" fill="#1e3a8a" fill-opacity="0.34"/>
<circle cx="632.3" cy="223.8" r="1.45" fill="#1e3a8a" fill-opacity="0.34"/>
<circle cx="634.7" cy="225.0" r="1.45" fill="#1e3a8a" fill-opacity="0.34"/>
<circle cx="637.2" cy="224.5" r="1.45" fill="#1e3a8a" fill-opacity="0.34"/>
<circle cx="617.4" cy="225.8" r="1.45" fill="#1e3a8a" fill-opacity="0.34"/>
<circle cx="619.9" cy="226.4" r="1.45" fill="#1e3a8a" fill-opacity="0.34"/>
<circle cx="622.4" cy="225.4" r="1.45" fill="#1e3a8a" fill-opacity="0.34"/>
<circle cx="624.9" cy="226.7" r="1.45" fill="#1e3a8a" fill-opacity="0.34"/>
<circle cx="627.3" cy="226.1" r="1.45" fill="#1e3a8a" fill-opacity="0.34"/>
<circle cx="629.8" cy="225.8" r="1.45" fill="#1e3a8a" fill-opacity="0.34"/>
<line x1="627.3" y1="223.8" x2="627.3" y2="240.0" stroke="#1e3a8a" stroke-opacity="0.55" stroke-width="1.8"/>
<line x1="617.4" y1="223.8" x2="637.2" y2="223.8" stroke="#1e3a8a" stroke-opacity="0.55" stroke-width="1.8"/>
<line x1="617.4" y1="240.0" x2="637.2" y2="240.0" stroke="#1e3a8a" stroke-opacity="0.55" stroke-width="1.8"/>
<rect x="613.6" y="225.6" width="27.5" height="13.4" rx="2" fill="#1e3a8a" fill-opacity="0.12" stroke="#1e3a8a" stroke-opacity="0.55" stroke-width="1.8"/>
<line x1="613.6" y1="226.1" x2="641.1" y2="226.1" stroke="#1e3a8a" stroke-opacity="0.55" stroke-width="2.6"/>
<text x="647.1" y="230.1" text-anchor="start" font-family="Inter,Segoe UI,Arial,sans-serif" font-size="11" font-weight="700" fill="#111827" stroke="#ffffff" stroke-width="3" paint-order="stroke">477</text>
<circle cx="652.9" cy="184.4" r="1.45" fill="#f97316" fill-opacity="0.46"/>
<circle cx="655.4" cy="172.4" r="1.45" fill="#f97316" fill-opacity="0.46"/>
<circle cx="657.9" cy="172.4" r="1.45" fill="#f97316" fill-opacity="0.46"/>
<line x1="662.8" y1="172.4" x2="662.8" y2="184.4" stroke="#f97316" stroke-opacity="0.82" stroke-width="1.8"/>
<line x1="652.9" y1="172.4" x2="672.7" y2="172.4" stroke="#f97316" stroke-opacity="0.82" stroke-width="1.8"/>
<line x1="652.9" y1="184.4" x2="672.7" y2="184.4" stroke="#f97316" stroke-opacity="0.82" stroke-width="1.8"/>
<rect x="649.1" y="172.4" width="27.5" height="6.0" rx="2" fill="#f97316" fill-opacity="0.18" stroke="#f97316" stroke-opacity="0.82" stroke-width="1.8"/>
<line x1="649.1" y1="172.4" x2="676.5" y2="172.4" stroke="#f97316" stroke-opacity="0.82" stroke-width="2.6"/>
<text x="682.5" y="176.4" text-anchor="start" font-family="Inter,Segoe UI,Arial,sans-serif" font-size="11" font-weight="700" fill="#111827" stroke="#ffffff" stroke-width="3" paint-order="stroke">678</text>
<circle cx="688.4" cy="184.1" r="1.45" fill="#eab308" fill-opacity="0.46"/>
<circle cx="690.9" cy="172.3" r="1.45" fill="#eab308" fill-opacity="0.46"/>
<circle cx="693.3" cy="172.3" r="1.45" fill="#eab308" fill-opacity="0.46"/>
<line x1="698.3" y1="172.3" x2="698.3" y2="184.1" stroke="#eab308" stroke-opacity="0.82" stroke-width="1.8"/>
<line x1="688.4" y1="172.3" x2="708.2" y2="172.3" stroke="#eab308" stroke-opacity="0.82" stroke-width="1.8"/>
<line x1="688.4" y1="184.1" x2="708.2" y2="184.1" stroke="#eab308" stroke-opacity="0.82" stroke-width="1.8"/>
<rect x="684.5" y="172.3" width="27.5" height="5.9" rx="2" fill="#eab308" fill-opacity="0.18" stroke="#eab308" stroke-opacity="0.82" stroke-width="1.8"/>
<line x1="684.5" y1="172.3" x2="712.0" y2="172.3" stroke="#eab308" stroke-opacity="0.82" stroke-width="2.6"/>
<text x="718.0" y="176.3" text-anchor="start" font-family="Inter,Segoe UI,Arial,sans-serif" font-size="11" font-weight="700" fill="#111827" stroke="#ffffff" stroke-width="3" paint-order="stroke">678</text>
<rect x="64" y="433" width="10" height="10" rx="2" fill="#14532d" fill-opacity="0.86"/>
<text x="78" y="442" font-family="Inter,Segoe UI,Arial,sans-serif" font-size="10" fill="#374151">MTPLX 0.3.7</text>
<rect x="199.2" y="433" width="10" height="10" rx="2" fill="#7c3aed" fill-opacity="0.60"/>
<text x="213.2" y="442" font-family="Inter,Segoe UI,Arial,sans-serif" font-size="10" fill="#374151">Lightning v0.6.10</text>
<rect x="334.4" y="433" width="10" height="10" rx="2" fill="#1e3a8a" fill-opacity="0.60"/>
<text x="348.4" y="442" font-family="Inter,Segoe UI,Arial,sans-serif" font-size="10" fill="#374151">Lightning+ng v0.6.10</text>
<rect x="469.59999999999997" y="433" width="10" height="10" rx="2" fill="#f97316" fill-opacity="0.86"/>
<text x="483.59999999999997" y="442" font-family="Inter,Segoe UI,Arial,sans-serif" font-size="10" fill="#374151">AX Engine v5.1.1</text>
<rect x="604.8" y="433" width="10" height="10" rx="2" fill="#eab308" fill-opacity="0.86"/>
<text x="618.8" y="442" font-family="Inter,Segoe UI,Arial,sans-serif" font-size="10" fill="#374151">AX+ngram v5.1.1</text>
</svg>
