<svg xmlns="http://www.w3.org/2000/svg" width="760" height="460" viewBox="0 0 760 460" role="img" aria-labelledby="title desc">
<title>Gemma 4 26B A4B 4-bit — Assistant accept rate</title>
<desc>Grouped box-and-whisker plot comparing AX assistant MTP, AX assistant MTP+n-gram across flappy, long_code, python_modules_long prompt suites.</desc>
<rect width="100%" height="100%" fill="#f8fafc"/>
<text x="24" y="24" font-family="Inter,Segoe UI,Arial,sans-serif" font-size="16" font-weight="700" fill="#111827">Gemma 4 26B A4B 4-bit — Assistant accept rate</text>
<text x="24" y="46" font-family="Inter,Segoe UI,Arial,sans-serif" font-size="11" fill="#4b5563">All suites | box=IQR | whiskers=min/max | dots=runs</text>
<text x="24" y="62" font-family="Inter,Segoe UI,Arial,sans-serif" font-size="10" fill="#6b7280">Apple M5 Max · AX Engine v5.2.4 · gate 0.999 · T=0.6/top_p=0.95/top_k=20</text>
<rect x="678" y="13" width="48" height="22" rx="11" fill="#eef2ff" stroke="#c7d2fe"/>
<text x="702.0" y="28" text-anchor="middle" font-family="Inter,Segoe UI,Arial,sans-serif" font-size="10" font-weight="700" fill="#3730a3">%</text>
<text x="726" y="52" text-anchor="end" font-family="Inter,Segoe UI,Arial,sans-serif" font-size="10" font-weight="700" fill="#374151">Higher is better</text>
<rect x="64" y="86" width="496" height="268" rx="6" fill="#ffffff" stroke="#dbe3ef"/>
<line x1="64" y1="354.0" x2="560" y2="354.0" stroke="#e5e7eb" stroke-width="1"/>
<text x="56" y="357.0" text-anchor="end" font-family="Inter,Segoe UI,Arial,sans-serif" font-size="11" fill="#6b7280">98%</text>
<line x1="64" y1="287.0" x2="560" y2="287.0" stroke="#e5e7eb" stroke-width="1"/>
<text x="56" y="290.0" text-anchor="end" font-family="Inter,Segoe UI,Arial,sans-serif" font-size="11" fill="#6b7280">98%</text>
<line x1="64" y1="220.0" x2="560" y2="220.0" stroke="#e5e7eb" stroke-width="1"/>
<text x="56" y="223.0" text-anchor="end" font-family="Inter,Segoe UI,Arial,sans-serif" font-size="11" fill="#6b7280">99%</text>
<line x1="64" y1="153.0" x2="560" y2="153.0" stroke="#e5e7eb" stroke-width="1"/>
<text x="56" y="156.0" text-anchor="end" font-family="Inter,Segoe UI,Arial,sans-serif" font-size="11" fill="#6b7280">100%</text>
<line x1="64" y1="86.0" x2="560" y2="86.0" stroke="#e5e7eb" stroke-width="1"/>
<text x="56" y="89.0" text-anchor="end" font-family="Inter,Segoe UI,Arial,sans-serif" font-size="11" fill="#6b7280">100%</text>
<line x1="64" y1="164.3" x2="560" y2="164.3" stroke="#dc2626" stroke-width="1.2" stroke-dasharray="1 4" stroke-linecap="round"/>
<text x="568" y="159.3" text-anchor="start" font-family="Inter,Segoe UI,Arial,sans-serif" font-size="11" font-weight="700" fill="#dc2626" data-label="highest median">highest: 99.4%</text>
<text x="146.7" y="398" text-anchor="middle" font-family="Inter,Segoe UI,Arial,sans-serif" font-size="11" font-weight="700" fill="#111827">flappy</text>
<circle cx="95.8" cy="172.0" r="1.45" fill="#2eaf5f" fill-opacity="0.46"/>
<circle cx="98.8" cy="190.0" r="1.45" fill="#2eaf5f" fill-opacity="0.46"/>
<circle cx="101.9" cy="168.6" r="1.45" fill="#2eaf5f" fill-opacity="0.46"/>
<circle cx="104.9" cy="169.2" r="1.45" fill="#2eaf5f" fill-opacity="0.46"/>
<line x1="108.0" y1="168.6" x2="108.0" y2="190.0" stroke="#2eaf5f" stroke-opacity="0.86" stroke-width="1.8"/>
<line x1="95.8" y1="168.6" x2="120.2" y2="168.6" stroke="#2eaf5f" stroke-opacity="0.86" stroke-width="1.8"/>
<line x1="95.8" y1="190.0" x2="120.2" y2="190.0" stroke="#2eaf5f" stroke-opacity="0.86" stroke-width="1.8"/>
<rect x="91.0" y="169.0" width="34.0" height="7.5" rx="2" fill="#2eaf5f" fill-opacity="0.18" stroke="#2eaf5f" stroke-opacity="0.9" stroke-width="1.8"/>
<line x1="91.0" y1="170.6" x2="125.0" y2="170.6" stroke="#2eaf5f" stroke-opacity="0.96" stroke-width="2.6"/>
<text x="131.0" y="174.6" text-anchor="start" font-family="Inter,Segoe UI,Arial,sans-serif" font-size="11" font-weight="700" fill="#111827" stroke="#ffffff" stroke-width="3" paint-order="stroke">99.4%</text>
<circle cx="173.1" cy="166.2" r="1.45" fill="#137a3d" fill-opacity="0.46"/>
<circle cx="176.2" cy="160.3" r="1.45" fill="#137a3d" fill-opacity="0.46"/>
<circle cx="179.2" cy="162.5" r="1.45" fill="#137a3d" fill-opacity="0.46"/>
<circle cx="182.3" cy="167.2" r="1.45" fill="#137a3d" fill-opacity="0.46"/>
<line x1="185.3" y1="160.3" x2="185.3" y2="167.2" stroke="#137a3d" stroke-opacity="0.86" stroke-width="1.8"/>
<line x1="173.1" y1="160.3" x2="197.6" y2="160.3" stroke="#137a3d" stroke-opacity="0.86" stroke-width="1.8"/>
<line x1="173.1" y1="167.2" x2="197.6" y2="167.2" stroke="#137a3d" stroke-opacity="0.86" stroke-width="1.8"/>
<rect x="168.3" y="161.9" width="34.0" height="4.5" rx="2" fill="#137a3d" fill-opacity="0.18" stroke="#137a3d" stroke-opacity="0.9" stroke-width="1.8"/>
<line x1="168.3" y1="164.3" x2="202.3" y2="164.3" stroke="#137a3d" stroke-opacity="0.96" stroke-width="2.6"/>
<text x="208.3" y="168.3" text-anchor="start" font-family="Inter,Segoe UI,Arial,sans-serif" font-size="11" font-weight="700" fill="#111827" stroke="#ffffff" stroke-width="3" paint-order="stroke">99.4%</text>
<text x="312.0" y="398" text-anchor="middle" font-family="Inter,Segoe UI,Arial,sans-serif" font-size="11" font-weight="700" fill="#111827">long_code</text>
<circle cx="261.1" cy="245.6" r="1.45" fill="#2eaf5f" fill-opacity="0.46"/>
<circle cx="264.2" cy="251.9" r="1.45" fill="#2eaf5f" fill-opacity="0.46"/>
<circle cx="267.2" cy="187.8" r="1.45" fill="#2eaf5f" fill-opacity="0.46"/>
<circle cx="270.3" cy="162.2" r="1.45" fill="#2eaf5f" fill-opacity="0.46"/>
<line x1="273.3" y1="162.2" x2="273.3" y2="251.9" stroke="#2eaf5f" stroke-opacity="0.86" stroke-width="1.8"/>
<line x1="261.1" y1="162.2" x2="285.6" y2="162.2" stroke="#2eaf5f" stroke-opacity="0.86" stroke-width="1.8"/>
<line x1="261.1" y1="251.9" x2="285.6" y2="251.9" stroke="#2eaf5f" stroke-opacity="0.86" stroke-width="1.8"/>
<rect x="256.3" y="181.4" width="34.0" height="65.8" rx="2" fill="#2eaf5f" fill-opacity="0.18" stroke="#2eaf5f" stroke-opacity="0.9" stroke-width="1.8"/>
<line x1="256.3" y1="216.7" x2="290.3" y2="216.7" stroke="#2eaf5f" stroke-opacity="0.96" stroke-width="2.6"/>
<text x="296.3" y="220.7" text-anchor="start" font-family="Inter,Segoe UI,Arial,sans-serif" font-size="11" font-weight="700" fill="#111827" stroke="#ffffff" stroke-width="3" paint-order="stroke">99.0%</text>
<circle cx="338.4" cy="260.4" r="1.45" fill="#137a3d" fill-opacity="0.46"/>
<circle cx="341.5" cy="183.3" r="1.45" fill="#137a3d" fill-opacity="0.46"/>
<circle cx="344.5" cy="222.3" r="1.45" fill="#137a3d" fill-opacity="0.46"/>
<circle cx="347.6" cy="161.8" r="1.45" fill="#137a3d" fill-opacity="0.46"/>
<line x1="350.7" y1="161.8" x2="350.7" y2="260.4" stroke="#137a3d" stroke-opacity="0.86" stroke-width="1.8"/>
<line x1="338.4" y1="161.8" x2="362.9" y2="161.8" stroke="#137a3d" stroke-opacity="0.86" stroke-width="1.8"/>
<line x1="338.4" y1="260.4" x2="362.9" y2="260.4" stroke="#137a3d" stroke-opacity="0.86" stroke-width="1.8"/>
<rect x="333.7" y="177.9" width="34.0" height="53.9" rx="2" fill="#137a3d" fill-opacity="0.18" stroke="#137a3d" stroke-opacity="0.9" stroke-width="1.8"/>
<line x1="333.7" y1="202.8" x2="367.7" y2="202.8" stroke="#137a3d" stroke-opacity="0.96" stroke-width="2.6"/>
<text x="373.7" y="206.8" text-anchor="start" font-family="Inter,Segoe UI,Arial,sans-serif" font-size="11" font-weight="700" fill="#111827" stroke="#ffffff" stroke-width="3" paint-order="stroke">99.1%</text>
<text x="477.3" y="398" text-anchor="middle" font-family="Inter,Segoe UI,Arial,sans-serif" font-size="11" font-weight="700" fill="#111827">python_modules_long</text>
<circle cx="426.4" cy="241.8" r="1.45" fill="#2eaf5f" fill-opacity="0.46"/>
<circle cx="429.5" cy="315.6" r="1.45" fill="#2eaf5f" fill-opacity="0.46"/>
<circle cx="432.5" cy="315.3" r="1.45" fill="#2eaf5f" fill-opacity="0.46"/>
<line x1="438.7" y1="241.8" x2="438.7" y2="315.6" stroke="#2eaf5f" stroke-opacity="0.86" stroke-width="1.8"/>
<line x1="426.4" y1="241.8" x2="450.9" y2="241.8" stroke="#2eaf5f" stroke-opacity="0.86" stroke-width="1.8"/>
<line x1="426.4" y1="315.6" x2="450.9" y2="315.6" stroke="#2eaf5f" stroke-opacity="0.86" stroke-width="1.8"/>
<rect x="421.7" y="278.6" width="34.0" height="36.9" rx="2" fill="#2eaf5f" fill-opacity="0.18" stroke="#2eaf5f" stroke-opacity="0.9" stroke-width="1.8"/>
<line x1="421.7" y1="315.3" x2="455.7" y2="315.3" stroke="#2eaf5f" stroke-opacity="0.96" stroke-width="2.6"/>
<text x="461.7" y="319.3" text-anchor="start" font-family="Inter,Segoe UI,Arial,sans-serif" font-size="11" font-weight="700" fill="#111827" stroke="#ffffff" stroke-width="3" paint-order="stroke">98.3%</text>
<circle cx="503.8" cy="271.3" r="1.45" fill="#137a3d" fill-opacity="0.46"/>
<circle cx="506.8" cy="227.8" r="1.45" fill="#137a3d" fill-opacity="0.46"/>
<circle cx="509.9" cy="273.9" r="1.45" fill="#137a3d" fill-opacity="0.46"/>
<line x1="516.0" y1="227.8" x2="516.0" y2="273.9" stroke="#137a3d" stroke-opacity="0.86" stroke-width="1.8"/>
<line x1="503.8" y1="227.8" x2="528.2" y2="227.8" stroke="#137a3d" stroke-opacity="0.86" stroke-width="1.8"/>
<line x1="503.8" y1="273.9" x2="528.2" y2="273.9" stroke="#137a3d" stroke-opacity="0.86" stroke-width="1.8"/>
<rect x="499.0" y="249.5" width="34.0" height="23.1" rx="2" fill="#137a3d" fill-opacity="0.18" stroke="#137a3d" stroke-opacity="0.9" stroke-width="1.8"/>
<line x1="499.0" y1="271.3" x2="533.0" y2="271.3" stroke="#137a3d" stroke-opacity="0.96" stroke-width="2.6"/>
<text x="539.0" y="275.3" text-anchor="start" font-family="Inter,Segoe UI,Arial,sans-serif" font-size="11" font-weight="700" fill="#111827" stroke="#ffffff" stroke-width="3" paint-order="stroke">98.6%</text>
<rect x="64.0" y="433" width="10" height="10" rx="2" fill="#2eaf5f" fill-opacity="0.72"/>
<text x="78.0" y="442" font-family="Inter,Segoe UI,Arial,sans-serif" font-size="10" fill="#374151">AX assistant MTP</text>
<rect x="312.0" y="433" width="10" height="10" rx="2" fill="#137a3d" fill-opacity="0.72"/>
<text x="326.0" y="442" font-family="Inter,Segoe UI,Arial,sans-serif" font-size="10" fill="#374151">AX assistant MTP+n-gram</text>
</svg>
