<svg xmlns="http://www.w3.org/2000/svg" width="800" height="430" viewBox="0 0 800 430" role="img" aria-labelledby="title desc"><title>Qwen 3.6 — TTFT</title><desc>Grouped box-and-whisker plot comparing llama.cpp b9430, mlx-lm 0.31.3, AX Engine v5.1.8 at 128/512/2048 prompt tokens for Qwen 3.6 models. The x-axis is grouped by prompt-token count, with engines nested inside each group. Within each prompt-token group, the best median value label is red.</desc><rect width="800" height="430" fill="#f8fafc"/><text x="64" y="24" font-family="Inter,Segoe UI,Arial,sans-serif" font-size="16" font-weight="700" fill="#111827">Qwen 3.6 — TTFT</text><text x="64" y="46" font-family="Inter,Segoe UI,Arial,sans-serif" font-size="11" fill="#4b5563">grouped by prompt tokens | box=IQR | whiskers=min/max | dots=runs</text><text x="64" y="62" font-family="Inter,Segoe UI,Arial,sans-serif" font-size="10" fill="#6b7280">llama.cpp b9430 · mlx-lm 0.31.3 · AX Engine v5.1.8</text><rect x="718" y="13" width="48" height="22" rx="11" fill="#eef2ff" stroke="#c7d2fe"/><text x="742.0" y="28" text-anchor="middle" font-family="Inter,Segoe UI,Arial,sans-serif" font-size="10" font-weight="700" fill="#3730a3">ms</text><text x="766" y="52" text-anchor="end" font-family="Inter,Segoe UI,Arial,sans-serif" font-size="10" font-weight="700" fill="#dc2626">Lower is better</text><rect x="64" y="86" width="576" height="230" rx="6" fill="#ffffff" stroke="#dbe3ef"/><line x1="64" y1="316.0" x2="640" y2="316.0" stroke="#e5e7eb" stroke-width="1"/><text x="56" y="319.0" text-anchor="end" font-family="Inter,Segoe UI,Arial,sans-serif" font-size="11" fill="#6b7280">0</text><line x1="64" y1="258.5" x2="640" y2="258.5" stroke="#e5e7eb" stroke-width="1"/><text x="56" y="261.5" text-anchor="end" font-family="Inter,Segoe UI,Arial,sans-serif" font-size="11" fill="#6b7280">1k</text><line x1="64" y1="201.0" x2="640" y2="201.0" stroke="#e5e7eb" stroke-width="1"/><text x="56" y="204.0" text-anchor="end" font-family="Inter,Segoe UI,Arial,sans-serif" font-size="11" fill="#6b7280">2k</text><line x1="64" y1="143.5" x2="640" y2="143.5" stroke="#e5e7eb" stroke-width="1"/><text x="56" y="146.5" text-anchor="end" font-family="Inter,Segoe UI,Arial,sans-serif" font-size="11" fill="#6b7280">3k</text><line x1="64" y1="86.0" x2="640" y2="86.0" stroke="#e5e7eb" stroke-width="1"/><text x="56" y="89.0" text-anchor="end" font-family="Inter,Segoe UI,Arial,sans-serif" font-size="11" fill="#6b7280">4k</text><line x1="106" y1="302.2" x2="106" y2="311.6" stroke="#f97316" stroke-opacity="0.9" stroke-width="1.7"/><line x1="99.52" y1="302.2" x2="112.48" y2="302.2" stroke="#f97316" stroke-opacity="0.9" stroke-width="1.7"/><line x1="99.52" y1="311.6" x2="112.48" y2="311.6" stroke="#f97316" stroke-opacity="0.9" stroke-width="1.7"/><rect x="97" y="302.2" width="18" height="9.1" rx="2" fill="#f97316" fill-opacity="0.26" stroke="#f97316" stroke-opacity="0.9" stroke-width="1.7"/><line x1="97" y1="306.7" x2="115" y2="306.7" stroke="#f97316" stroke-opacity="0.9" stroke-width="2.4"/><text x="119" y="310.2" text-anchor="start" font-family="Inter,Segoe UI,Arial,sans-serif" font-size="9" font-weight="700" fill="#dc2626" stroke="#ffffff" stroke-width="3" paint-order="stroke">161.1</text><circle cx="103" cy="302.2" r="1.4" fill="#c2410c" fill-opacity="0.82"/><circle cx="104.5" cy="302.2" r="1.4" fill="#c2410c" fill-opacity="0.82"/><circle cx="106" cy="311.6" r="1.4" fill="#c2410c" fill-opacity="0.82"/><circle cx="107.5" cy="311.2" r="1.4" fill="#c2410c" fill-opacity="0.82"/><line x1="160" y1="294.8" x2="160" y2="302.9" stroke="#f2b705" stroke-opacity="0.9" stroke-width="1.7"/><line x1="153.52" y1="294.8" x2="166.48" y2="294.8" stroke="#f2b705" stroke-opacity="0.9" stroke-width="1.7"/><line x1="153.52" y1="302.9" x2="166.48" y2="302.9" stroke="#f2b705" stroke-opacity="0.9" stroke-width="1.7"/><rect x="151" y="297.7" width="18" height="2.2" rx="2" fill="#f2b705" fill-opacity="0.26" stroke="#f2b705" stroke-opacity="0.9" stroke-width="1.7"/><line x1="151" y1="298.8" x2="169" y2="298.8" stroke="#f2b705" stroke-opacity="0.9" stroke-width="2.4"/><text x="173" y="302.3" text-anchor="start" font-family="Inter,Segoe UI,Arial,sans-serif" font-size="9" font-weight="700" fill="#111827" stroke="#ffffff" stroke-width="3" paint-order="stroke">299.0</text><circle cx="157" cy="298.7" r="1.4" fill="#9a6a00" fill-opacity="0.82"/><circle cx="158.5" cy="294.8" r="1.4" fill="#9a6a00" fill-opacity="0.82"/><circle cx="160" cy="302.9" r="1.4" fill="#9a6a00" fill-opacity="0.82"/><circle cx="161.5" cy="298.9" r="1.4" fill="#9a6a00" fill-opacity="0.82"/><line x1="214" y1="301.0" x2="214" y2="309.4" stroke="#2eaf5f" stroke-opacity="0.9" stroke-width="1.7"/><line x1="207.52" y1="301.0" x2="220.48" y2="301.0" stroke="#2eaf5f" stroke-opacity="0.9" stroke-width="1.7"/><line x1="207.52" y1="309.4" x2="220.48" y2="309.4" stroke="#2eaf5f" stroke-opacity="0.9" stroke-width="1.7"/><rect x="205" y="302.8" width="18" height="5.3" rx="2" fill="#2eaf5f" fill-opacity="0.26" stroke="#2eaf5f" stroke-opacity="0.9" stroke-width="1.7"/><line x1="205" y1="305.5" x2="223" y2="305.5" stroke="#2eaf5f" stroke-opacity="0.9" stroke-width="2.4"/><text x="227" y="309.0" text-anchor="start" font-family="Inter,Segoe UI,Arial,sans-serif" font-size="9" font-weight="700" fill="#111827" stroke="#ffffff" stroke-width="3" paint-order="stroke">183.0</text><circle cx="211" cy="303.4" r="1.4" fill="#176c37" fill-opacity="0.82"/><circle cx="212.5" cy="301.0" r="1.4" fill="#176c37" fill-opacity="0.82"/><circle cx="214" cy="309.4" r="1.4" fill="#176c37" fill-opacity="0.82"/><circle cx="215.5" cy="307.6" r="1.4" fill="#176c37" fill-opacity="0.82"/><text x="160" y="336" text-anchor="middle" font-family="Inter,Segoe UI,Arial,sans-serif" font-size="11" font-weight="700" fill="#111827">128 tok</text><line x1="298" y1="250.1" x2="298" y2="306.4" stroke="#f97316" stroke-opacity="0.9" stroke-width="1.7"/><line x1="291.52" y1="250.1" x2="304.48" y2="250.1" stroke="#f97316" stroke-opacity="0.9" stroke-width="1.7"/><line x1="291.52" y1="306.4" x2="304.48" y2="306.4" stroke="#f97316" stroke-opacity="0.9" stroke-width="1.7"/><rect x="289" y="268.5" width="18" height="34.6" rx="2" fill="#f97316" fill-opacity="0.26" stroke="#f97316" stroke-opacity="0.9" stroke-width="1.7"/><line x1="289" y1="288.4" x2="307" y2="288.4" stroke="#f97316" stroke-opacity="0.9" stroke-width="2.4"/><text x="311" y="291.9" text-anchor="start" font-family="Inter,Segoe UI,Arial,sans-serif" font-size="9" font-weight="700" fill="#111827" stroke="#ffffff" stroke-width="3" paint-order="stroke">480.6</text><circle cx="295" cy="274.7" r="1.4" fill="#c2410c" fill-opacity="0.82"/><circle cx="296.5" cy="250.1" r="1.4" fill="#c2410c" fill-opacity="0.82"/><circle cx="298" cy="306.4" r="1.4" fill="#c2410c" fill-opacity="0.82"/><circle cx="299.5" cy="302.0" r="1.4" fill="#c2410c" fill-opacity="0.82"/><line x1="352" y1="271.1" x2="352" y2="297.8" stroke="#f2b705" stroke-opacity="0.9" stroke-width="1.7"/><line x1="345.52" y1="271.1" x2="358.48" y2="271.1" stroke="#f2b705" stroke-opacity="0.9" stroke-width="1.7"/><line x1="345.52" y1="297.8" x2="358.48" y2="297.8" stroke="#f2b705" stroke-opacity="0.9" stroke-width="1.7"/><rect x="343" y="274.9" width="18" height="20.7" rx="2" fill="#f2b705" fill-opacity="0.26" stroke="#f2b705" stroke-opacity="0.9" stroke-width="1.7"/><line x1="343" y1="285.5" x2="361" y2="285.5" stroke="#f2b705" stroke-opacity="0.9" stroke-width="2.4"/><text x="365" y="289.0" text-anchor="start" font-family="Inter,Segoe UI,Arial,sans-serif" font-size="9" font-weight="700" fill="#111827" stroke="#ffffff" stroke-width="3" paint-order="stroke">530.0</text><circle cx="349" cy="276.2" r="1.4" fill="#9a6a00" fill-opacity="0.82"/><circle cx="350.5" cy="271.1" r="1.4" fill="#9a6a00" fill-opacity="0.82"/><circle cx="352" cy="297.8" r="1.4" fill="#9a6a00" fill-opacity="0.82"/><circle cx="353.5" cy="294.9" r="1.4" fill="#9a6a00" fill-opacity="0.82"/><line x1="406" y1="277.3" x2="406" y2="304.6" stroke="#2eaf5f" stroke-opacity="0.9" stroke-width="1.7"/><line x1="399.52" y1="277.3" x2="412.48" y2="277.3" stroke="#2eaf5f" stroke-opacity="0.9" stroke-width="1.7"/><line x1="399.52" y1="304.6" x2="412.48" y2="304.6" stroke="#2eaf5f" stroke-opacity="0.9" stroke-width="1.7"/><rect x="397" y="280.2" width="18" height="23.7" rx="2" fill="#2eaf5f" fill-opacity="0.26" stroke="#2eaf5f" stroke-opacity="0.9" stroke-width="1.7"/><line x1="397" y1="292.4" x2="415" y2="292.4" stroke="#2eaf5f" stroke-opacity="0.9" stroke-width="2.4"/><text x="419" y="295.9" text-anchor="start" font-family="Inter,Segoe UI,Arial,sans-serif" font-size="9" font-weight="700" fill="#dc2626" stroke="#ffffff" stroke-width="3" paint-order="stroke">409.7</text><circle cx="403" cy="281.2" r="1.4" fill="#176c37" fill-opacity="0.82"/><circle cx="404.5" cy="277.3" r="1.4" fill="#176c37" fill-opacity="0.82"/><circle cx="406" cy="304.6" r="1.4" fill="#176c37" fill-opacity="0.82"/><circle cx="407.5" cy="303.7" r="1.4" fill="#176c37" fill-opacity="0.82"/><text x="352" y="336" text-anchor="middle" font-family="Inter,Segoe UI,Arial,sans-serif" font-size="11" font-weight="700" fill="#111827">512 tok</text><line x1="490" y1="125.5" x2="490" y2="282.7" stroke="#f97316" stroke-opacity="0.9" stroke-width="1.7"/><line x1="483.52" y1="125.5" x2="496.48" y2="125.5" stroke="#f97316" stroke-opacity="0.9" stroke-width="1.7"/><line x1="483.52" y1="282.7" x2="496.48" y2="282.7" stroke="#f97316" stroke-opacity="0.9" stroke-width="1.7"/><rect x="481" y="130.3" width="18" height="142.9" rx="2" fill="#f97316" fill-opacity="0.26" stroke="#f97316" stroke-opacity="0.9" stroke-width="1.7"/><line x1="481" y1="201.0" x2="499" y2="201.0" stroke="#f97316" stroke-opacity="0.9" stroke-width="2.4"/><text x="503" y="204.5" text-anchor="start" font-family="Inter,Segoe UI,Arial,sans-serif" font-size="9" font-weight="700" fill="#111827" stroke="#ffffff" stroke-width="3" paint-order="stroke">2.0k</text><circle cx="487" cy="131.9" r="1.4" fill="#c2410c" fill-opacity="0.82"/><circle cx="488.5" cy="125.5" r="1.4" fill="#c2410c" fill-opacity="0.82"/><circle cx="490" cy="282.7" r="1.4" fill="#c2410c" fill-opacity="0.82"/><circle cx="491.5" cy="270.1" r="1.4" fill="#c2410c" fill-opacity="0.82"/><line x1="544" y1="174.5" x2="544" y2="281.9" stroke="#f2b705" stroke-opacity="0.9" stroke-width="1.7"/><line x1="537.52" y1="174.5" x2="550.48" y2="174.5" stroke="#f2b705" stroke-opacity="0.9" stroke-width="1.7"/><line x1="537.52" y1="281.9" x2="550.48" y2="281.9" stroke="#f2b705" stroke-opacity="0.9" stroke-width="1.7"/><rect x="535" y="184.1" width="18" height="88.0" rx="2" fill="#f2b705" fill-opacity="0.26" stroke="#f2b705" stroke-opacity="0.9" stroke-width="1.7"/><line x1="535" y1="228.0" x2="553" y2="228.0" stroke="#f2b705" stroke-opacity="0.9" stroke-width="2.4"/><text x="557" y="231.5" text-anchor="start" font-family="Inter,Segoe UI,Arial,sans-serif" font-size="9" font-weight="700" fill="#111827" stroke="#ffffff" stroke-width="3" paint-order="stroke">1.5k</text><circle cx="541" cy="187.3" r="1.4" fill="#9a6a00" fill-opacity="0.82"/><circle cx="542.5" cy="174.5" r="1.4" fill="#9a6a00" fill-opacity="0.82"/><circle cx="544" cy="281.9" r="1.4" fill="#9a6a00" fill-opacity="0.82"/><circle cx="545.5" cy="268.8" r="1.4" fill="#9a6a00" fill-opacity="0.82"/><line x1="598" y1="175.8" x2="598" y2="284.6" stroke="#2eaf5f" stroke-opacity="0.9" stroke-width="1.7"/><line x1="591.52" y1="175.8" x2="604.48" y2="175.8" stroke="#2eaf5f" stroke-opacity="0.9" stroke-width="1.7"/><line x1="591.52" y1="284.6" x2="604.48" y2="284.6" stroke="#2eaf5f" stroke-opacity="0.9" stroke-width="1.7"/><rect x="589" y="186.5" width="18" height="96.3" rx="2" fill="#2eaf5f" fill-opacity="0.26" stroke="#2eaf5f" stroke-opacity="0.9" stroke-width="1.7"/><line x1="589" y1="236.2" x2="607" y2="236.2" stroke="#2eaf5f" stroke-opacity="0.9" stroke-width="2.4"/><text x="611" y="239.7" text-anchor="start" font-family="Inter,Segoe UI,Arial,sans-serif" font-size="9" font-weight="700" fill="#dc2626" stroke="#ffffff" stroke-width="3" paint-order="stroke">1.4k</text><circle cx="595" cy="190.1" r="1.4" fill="#176c37" fill-opacity="0.82"/><circle cx="596.5" cy="175.8" r="1.4" fill="#176c37" fill-opacity="0.82"/><circle cx="598" cy="284.6" r="1.4" fill="#176c37" fill-opacity="0.82"/><circle cx="599.5" cy="282.2" r="1.4" fill="#176c37" fill-opacity="0.82"/><text x="544" y="336" text-anchor="middle" font-family="Inter,Segoe UI,Arial,sans-serif" font-size="11" font-weight="700" fill="#111827">2048 tok</text><rect x="64" y="363" width="10" height="10" rx="2" fill="#f97316" fill-opacity="0.5" stroke="#f97316" stroke-width="1.4"/><text x="78" y="372" font-family="Inter,Segoe UI,Arial,sans-serif" font-size="10" fill="#374151">llama.cpp b9430</text><rect x="234" y="363" width="10" height="10" rx="2" fill="#f2b705" fill-opacity="0.5" stroke="#f2b705" stroke-width="1.4"/><text x="248" y="372" font-family="Inter,Segoe UI,Arial,sans-serif" font-size="10" fill="#374151">mlx-lm 0.31.3</text><rect x="404" y="363" width="10" height="10" rx="2" fill="#2eaf5f" fill-opacity="0.5" stroke="#2eaf5f" stroke-width="1.4"/><text x="418" y="372" font-family="Inter,Segoe UI,Arial,sans-serif" font-size="10" fill="#374151">AX Engine v5.1.8</text></svg>
