<svg xmlns="http://www.w3.org/2000/svg" width="800" height="430" viewBox="0 0 800 430" role="img" aria-labelledby="title desc"><title>Qwen 3.6 — TTFT</title><desc>Grouped box-and-whisker plot comparing llama.cpp b9430, mlx-lm 0.31.3, AX Engine v5.1.1 at 128/512/2048 prompt tokens for Qwen 3.6 models. A red dotted line marks the lowest median.</desc><rect width="800" height="430" fill="#f8fafc"/><text x="64" y="24" font-family="Inter,Segoe UI,Arial,sans-serif" font-size="16" font-weight="700" fill="#111827">Qwen 3.6 — TTFT</text><text x="64" y="46" font-family="Inter,Segoe UI,Arial,sans-serif" font-size="11" fill="#4b5563">box=IQR | whiskers=min/max | dots=runs | opacity: 128/512/2048 tok</text><text x="64" y="62" font-family="Inter,Segoe UI,Arial,sans-serif" font-size="10" fill="#6b7280">llama.cpp b9430 · mlx-lm 0.31.3 · AX Engine v5.1.1</text><rect x="718" y="13" width="48" height="22" rx="11" fill="#eef2ff" stroke="#c7d2fe"/><text x="742.0" y="28" text-anchor="middle" font-family="Inter,Segoe UI,Arial,sans-serif" font-size="10" font-weight="700" fill="#3730a3">ms</text><text x="766" y="52" text-anchor="end" font-family="Inter,Segoe UI,Arial,sans-serif" font-size="10" font-weight="700" fill="#dc2626">Lower is better</text><rect x="64" y="86" width="576" height="230" rx="6" fill="#ffffff" stroke="#dbe3ef"/><line x1="64" y1="316.0" x2="640" y2="316.0" stroke="#e5e7eb" stroke-width="1"/><text x="56" y="319.0" text-anchor="end" font-family="Inter,Segoe UI,Arial,sans-serif" font-size="11" fill="#6b7280">0</text><line x1="64" y1="258.5" x2="640" y2="258.5" stroke="#e5e7eb" stroke-width="1"/><text x="56" y="261.5" text-anchor="end" font-family="Inter,Segoe UI,Arial,sans-serif" font-size="11" fill="#6b7280">1k</text><line x1="64" y1="201.0" x2="640" y2="201.0" stroke="#e5e7eb" stroke-width="1"/><text x="56" y="204.0" text-anchor="end" font-family="Inter,Segoe UI,Arial,sans-serif" font-size="11" fill="#6b7280">2k</text><line x1="64" y1="143.5" x2="640" y2="143.5" stroke="#e5e7eb" stroke-width="1"/><text x="56" y="146.5" text-anchor="end" font-family="Inter,Segoe UI,Arial,sans-serif" font-size="11" fill="#6b7280">3k</text><line x1="64" y1="86.0" x2="640" y2="86.0" stroke="#e5e7eb" stroke-width="1"/><text x="56" y="89.0" text-anchor="end" font-family="Inter,Segoe UI,Arial,sans-serif" font-size="11" fill="#6b7280">4k</text><line x1="64" y1="302.4" x2="640" y2="302.4" stroke="#dc2626" stroke-width="1.2" stroke-dasharray="1 4" stroke-linecap="round"/><text x="648" y="297.4" text-anchor="start" font-family="Inter,Segoe UI,Arial,sans-serif" font-size="11" font-weight="700" fill="#dc2626" data-label="lowest median">lowest: 236.0</text><line x1="130" y1="301.8" x2="130" y2="311.8" stroke="#f97316" stroke-opacity="0.55" stroke-width="1.7"/><line x1="124.24" y1="301.8" x2="135.76" y2="301.8" stroke="#f97316" stroke-opacity="0.55" stroke-width="1.7"/><line x1="124.24" y1="311.8" x2="135.76" y2="311.8" stroke="#f97316" stroke-opacity="0.55" stroke-width="1.7"/><rect x="122" y="302.1" width="16" height="1.0" rx="2" fill="#f97316" fill-opacity="0.08" stroke="#f97316" stroke-opacity="0.55" stroke-width="1.7"/><line x1="122" y1="302.4" x2="138" y2="302.4" stroke="#f97316" stroke-opacity="0.55" stroke-width="2.4"/><text x="130" y="331" text-anchor="middle" font-family="Inter,Segoe UI,Arial,sans-serif" font-size="9" fill="#6b7280">128</text><circle cx="127" cy="302.1" r="1.4" fill="#c2410c" fill-opacity="0.5"/><circle cx="128.5" cy="301.8" r="1.4" fill="#c2410c" fill-opacity="0.5"/><circle cx="130" cy="302.4" r="1.4" fill="#c2410c" fill-opacity="0.5"/><circle cx="131.5" cy="302.8" r="1.4" fill="#c2410c" fill-opacity="0.5"/><circle cx="133" cy="311.8" r="1.4" fill="#c2410c" fill-opacity="0.5"/><line x1="160" y1="261.3" x2="160" y2="306.8" stroke="#f97316" stroke-opacity="0.78" stroke-width="1.7"/><line x1="154.24" y1="261.3" x2="165.76" y2="261.3" stroke="#f97316" stroke-opacity="0.78" stroke-width="1.7"/><line x1="154.24" y1="306.8" x2="165.76" y2="306.8" stroke="#f97316" stroke-opacity="0.78" stroke-width="1.7"/><rect x="152" y="263.2" width="16" height="7.6" rx="2" fill="#f97316" fill-opacity="0.17" stroke="#f97316" stroke-opacity="0.78" stroke-width="1.7"/><line x1="152" y1="267.6" x2="168" y2="267.6" stroke="#f97316" stroke-opacity="0.78" stroke-width="2.4"/><text x="160" y="331" text-anchor="middle" font-family="Inter,Segoe UI,Arial,sans-serif" font-size="9" fill="#6b7280">512</text><circle cx="157" cy="261.3" r="1.4" fill="#c2410c" fill-opacity="0.7"/><circle cx="158.5" cy="263.2" r="1.4" fill="#c2410c" fill-opacity="0.7"/><circle cx="160" cy="267.6" r="1.4" fill="#c2410c" fill-opacity="0.7"/><circle cx="161.5" cy="270.8" r="1.4" fill="#c2410c" fill-opacity="0.7"/><circle cx="163" cy="306.8" r="1.4" fill="#c2410c" fill-opacity="0.7"/><line x1="190" y1="101.6" x2="190" y2="283.1" stroke="#f97316" stroke-opacity="1.0" stroke-width="1.7"/><line x1="184.24" y1="101.6" x2="195.76" y2="101.6" stroke="#f97316" stroke-opacity="1.0" stroke-width="1.7"/><line x1="184.24" y1="283.1" x2="195.76" y2="283.1" stroke="#f97316" stroke-opacity="1.0" stroke-width="1.7"/><rect x="182" y="111.8" width="16" height="31.0" rx="2" fill="#f97316" fill-opacity="0.3" stroke="#f97316" stroke-opacity="1.0" stroke-width="1.7"/><line x1="182" y1="124.6" x2="198" y2="124.6" stroke="#f97316" stroke-opacity="1.0" stroke-width="2.4"/><text x="190" y="331" text-anchor="middle" font-family="Inter,Segoe UI,Arial,sans-serif" font-size="9" fill="#6b7280">2048</text><circle cx="187" cy="142.8" r="1.4" fill="#c2410c" fill-opacity="0.9"/><circle cx="188.5" cy="101.6" r="1.4" fill="#c2410c" fill-opacity="0.9"/><circle cx="190" cy="111.8" r="1.4" fill="#c2410c" fill-opacity="0.9"/><circle cx="191.5" cy="124.6" r="1.4" fill="#c2410c" fill-opacity="0.9"/><circle cx="193" cy="283.1" r="1.4" fill="#c2410c" fill-opacity="0.9"/><text x="160" y="348" text-anchor="middle" font-family="Inter,Segoe UI,Arial,sans-serif" font-size="10" font-weight="700" fill="#111827">llama.cpp b9430</text><line x1="322" y1="282.4" x2="322" y2="302.4" stroke="#f2b705" stroke-opacity="0.55" stroke-width="1.7"/><line x1="316.24" y1="282.4" x2="327.76" y2="282.4" stroke="#f2b705" stroke-opacity="0.55" stroke-width="1.7"/><line x1="316.24" y1="302.4" x2="327.76" y2="302.4" stroke="#f2b705" stroke-opacity="0.55" stroke-width="1.7"/><rect x="314" y="288.8" width="16" height="7.8" rx="2" fill="#f2b705" fill-opacity="0.08" stroke="#f2b705" stroke-opacity="0.55" stroke-width="1.7"/><line x1="314" y1="289.6" x2="330" y2="289.6" stroke="#f2b705" stroke-opacity="0.55" stroke-width="2.4"/><text x="322" y="331" text-anchor="middle" font-family="Inter,Segoe UI,Arial,sans-serif" font-size="9" fill="#6b7280">128</text><circle cx="319" cy="296.6" r="1.4" fill="#9a6a00" fill-opacity="0.5"/><circle cx="320.5" cy="289.6" r="1.4" fill="#9a6a00" fill-opacity="0.5"/><circle cx="322" cy="288.8" r="1.4" fill="#9a6a00" fill-opacity="0.5"/><circle cx="323.5" cy="282.4" r="1.4" fill="#9a6a00" fill-opacity="0.5"/><circle cx="325" cy="302.4" r="1.4" fill="#9a6a00" fill-opacity="0.5"/><line x1="352" y1="259.4" x2="352" y2="297.6" stroke="#f2b705" stroke-opacity="0.78" stroke-width="1.7"/><line x1="346.24" y1="259.4" x2="357.76" y2="259.4" stroke="#f2b705" stroke-opacity="0.78" stroke-width="1.7"/><line x1="346.24" y1="297.6" x2="357.76" y2="297.6" stroke="#f2b705" stroke-opacity="0.78" stroke-width="1.7"/><rect x="344" y="265.0" width="16" height="9.3" rx="2" fill="#f2b705" fill-opacity="0.17" stroke="#f2b705" stroke-opacity="0.78" stroke-width="1.7"/><line x1="344" y1="266.9" x2="360" y2="266.9" stroke="#f2b705" stroke-opacity="0.78" stroke-width="2.4"/><text x="352" y="331" text-anchor="middle" font-family="Inter,Segoe UI,Arial,sans-serif" font-size="9" fill="#6b7280">512</text><circle cx="349" cy="274.3" r="1.4" fill="#9a6a00" fill-opacity="0.7"/><circle cx="350.5" cy="266.9" r="1.4" fill="#9a6a00" fill-opacity="0.7"/><circle cx="352" cy="265.0" r="1.4" fill="#9a6a00" fill-opacity="0.7"/><circle cx="353.5" cy="259.4" r="1.4" fill="#9a6a00" fill-opacity="0.7"/><circle cx="355" cy="297.6" r="1.4" fill="#9a6a00" fill-opacity="0.7"/><line x1="382" y1="166.4" x2="382" y2="282.5" stroke="#f2b705" stroke-opacity="1.0" stroke-width="1.7"/><line x1="376.24" y1="166.4" x2="387.76" y2="166.4" stroke="#f2b705" stroke-opacity="1.0" stroke-width="1.7"/><line x1="376.24" y1="282.5" x2="387.76" y2="282.5" stroke="#f2b705" stroke-opacity="1.0" stroke-width="1.7"/><rect x="374" y="168.5" width="16" height="16.0" rx="2" fill="#f2b705" fill-opacity="0.3" stroke="#f2b705" stroke-opacity="1.0" stroke-width="1.7"/><line x1="374" y1="173.7" x2="390" y2="173.7" stroke="#f2b705" stroke-opacity="1.0" stroke-width="2.4"/><text x="382" y="331" text-anchor="middle" font-family="Inter,Segoe UI,Arial,sans-serif" font-size="9" fill="#6b7280">2048</text><circle cx="379" cy="184.5" r="1.4" fill="#9a6a00" fill-opacity="0.9"/><circle cx="380.5" cy="173.7" r="1.4" fill="#9a6a00" fill-opacity="0.9"/><circle cx="382" cy="168.5" r="1.4" fill="#9a6a00" fill-opacity="0.9"/><circle cx="383.5" cy="166.4" r="1.4" fill="#9a6a00" fill-opacity="0.9"/><circle cx="385" cy="282.5" r="1.4" fill="#9a6a00" fill-opacity="0.9"/><text x="352" y="348" text-anchor="middle" font-family="Inter,Segoe UI,Arial,sans-serif" font-size="10" font-weight="700" fill="#111827">mlx-lm 0.31.3</text><line x1="514" y1="299.8" x2="514" y2="309.4" stroke="#2eaf5f" stroke-opacity="0.55" stroke-width="1.7"/><line x1="508.24" y1="299.8" x2="519.76" y2="299.8" stroke="#2eaf5f" stroke-opacity="0.55" stroke-width="1.7"/><line x1="508.24" y1="309.4" x2="519.76" y2="309.4" stroke="#2eaf5f" stroke-opacity="0.55" stroke-width="1.7"/><rect x="506" y="301.5" width="16" height="1.9" rx="2" fill="#2eaf5f" fill-opacity="0.08" stroke="#2eaf5f" stroke-opacity="0.55" stroke-width="1.7"/><line x1="506" y1="302.2" x2="522" y2="302.2" stroke="#2eaf5f" stroke-opacity="0.55" stroke-width="2.4"/><text x="514" y="331" text-anchor="middle" font-family="Inter,Segoe UI,Arial,sans-serif" font-size="9" fill="#6b7280">128</text><circle cx="511" cy="303.4" r="1.4" fill="#176c37" fill-opacity="0.5"/><circle cx="512.5" cy="302.2" r="1.4" fill="#176c37" fill-opacity="0.5"/><circle cx="514" cy="301.5" r="1.4" fill="#176c37" fill-opacity="0.5"/><circle cx="515.5" cy="299.8" r="1.4" fill="#176c37" fill-opacity="0.5"/><circle cx="517" cy="309.4" r="1.4" fill="#176c37" fill-opacity="0.5"/><line x1="544" y1="275.8" x2="544" y2="304.8" stroke="#2eaf5f" stroke-opacity="0.78" stroke-width="1.7"/><line x1="538.24" y1="275.8" x2="549.76" y2="275.8" stroke="#2eaf5f" stroke-opacity="0.78" stroke-width="1.7"/><line x1="538.24" y1="304.8" x2="549.76" y2="304.8" stroke="#2eaf5f" stroke-opacity="0.78" stroke-width="1.7"/><rect x="536" y="277.4" width="16" height="3.4" rx="2" fill="#2eaf5f" fill-opacity="0.17" stroke="#2eaf5f" stroke-opacity="0.78" stroke-width="1.7"/><line x1="536" y1="278.4" x2="552" y2="278.4" stroke="#2eaf5f" stroke-opacity="0.78" stroke-width="2.4"/><text x="544" y="331" text-anchor="middle" font-family="Inter,Segoe UI,Arial,sans-serif" font-size="9" fill="#6b7280">512</text><circle cx="541" cy="280.8" r="1.4" fill="#176c37" fill-opacity="0.7"/><circle cx="542.5" cy="278.4" r="1.4" fill="#176c37" fill-opacity="0.7"/><circle cx="544" cy="277.4" r="1.4" fill="#176c37" fill-opacity="0.7"/><circle cx="545.5" cy="275.8" r="1.4" fill="#176c37" fill-opacity="0.7"/><circle cx="547" cy="304.8" r="1.4" fill="#176c37" fill-opacity="0.7"/><line x1="574" y1="180.3" x2="574" y2="284.3" stroke="#2eaf5f" stroke-opacity="1.0" stroke-width="1.7"/><line x1="568.24" y1="180.3" x2="579.76" y2="180.3" stroke="#2eaf5f" stroke-opacity="1.0" stroke-width="1.7"/><line x1="568.24" y1="284.3" x2="579.76" y2="284.3" stroke="#2eaf5f" stroke-opacity="1.0" stroke-width="1.7"/><rect x="566" y="180.3" width="16" height="10.0" rx="2" fill="#2eaf5f" fill-opacity="0.3" stroke="#2eaf5f" stroke-opacity="1.0" stroke-width="1.7"/><line x1="566" y1="182.5" x2="582" y2="182.5" stroke="#2eaf5f" stroke-opacity="1.0" stroke-width="2.4"/><text x="574" y="331" text-anchor="middle" font-family="Inter,Segoe UI,Arial,sans-serif" font-size="9" fill="#6b7280">2048</text><circle cx="571" cy="190.3" r="1.4" fill="#176c37" fill-opacity="0.9"/><circle cx="572.5" cy="182.5" r="1.4" fill="#176c37" fill-opacity="0.9"/><circle cx="574" cy="180.3" r="1.4" fill="#176c37" fill-opacity="0.9"/><circle cx="575.5" cy="180.3" r="1.4" fill="#176c37" fill-opacity="0.9"/><circle cx="577" cy="284.3" r="1.4" fill="#176c37" fill-opacity="0.9"/><text x="544" y="348" text-anchor="middle" font-family="Inter,Segoe UI,Arial,sans-serif" font-size="10" font-weight="700" fill="#111827">AX Engine v5.1.1</text><rect x="64" y="363" width="10" height="10" rx="2" fill="#6b7280" fill-opacity="0.08" stroke="#6b7280" stroke-opacity="0.55" stroke-width="1.4"/><text x="78" y="372" font-family="Inter,Segoe UI,Arial,sans-serif" font-size="10" fill="#374151">128 tok</text><rect x="184" y="363" width="10" height="10" rx="2" fill="#6b7280" fill-opacity="0.17" stroke="#6b7280" stroke-opacity="0.78" stroke-width="1.4"/><text x="198" y="372" font-family="Inter,Segoe UI,Arial,sans-serif" font-size="10" fill="#374151">512 tok</text><rect x="304" y="363" width="10" height="10" rx="2" fill="#6b7280" fill-opacity="0.3" stroke="#6b7280" stroke-opacity="1.0" stroke-width="1.4"/><text x="318" y="372" font-family="Inter,Segoe UI,Arial,sans-serif" font-size="10" fill="#374151">2048 tok</text></svg>
