<svg xmlns="http://www.w3.org/2000/svg" width="760" height="460" viewBox="0 0 760 460" role="img" aria-labelledby="title desc">
<title>Gemma 4 31B 4-bit — Assistant accept rate</title>
<desc>Grouped box-and-whisker plot comparing AX assistant MTP, AX assistant MTP+n-gram across flappy, long_code, python_modules_long prompt suites.</desc>
<rect width="100%" height="100%" fill="#f8fafc"/>
<text x="24" y="24" font-family="Inter,Segoe UI,Arial,sans-serif" font-size="16" font-weight="700" fill="#111827">Gemma 4 31B 4-bit — Assistant accept rate</text>
<text x="24" y="46" font-family="Inter,Segoe UI,Arial,sans-serif" font-size="11" fill="#4b5563">All suites | box=IQR | whiskers=min/max | dots=runs</text>
<text x="24" y="62" font-family="Inter,Segoe UI,Arial,sans-serif" font-size="10" fill="#6b7280">Apple M5 Max · gate 0.90 first / 0.999 deep · GPU exact · T=0.6/top_p=0.95/top_k=20</text>
<rect x="678" y="13" width="48" height="22" rx="11" fill="#eef2ff" stroke="#c7d2fe"/>
<text x="702.0" y="28" text-anchor="middle" font-family="Inter,Segoe UI,Arial,sans-serif" font-size="10" font-weight="700" fill="#3730a3">%</text>
<text x="726" y="52" text-anchor="end" font-family="Inter,Segoe UI,Arial,sans-serif" font-size="10" font-weight="700" fill="#374151">Higher is better</text>
<rect x="64" y="86" width="496" height="268" rx="6" fill="#ffffff" stroke="#dbe3ef"/>
<line x1="64" y1="354.0" x2="560" y2="354.0" stroke="#e5e7eb" stroke-width="1"/>
<text x="56" y="357.0" text-anchor="end" font-family="Inter,Segoe UI,Arial,sans-serif" font-size="11" fill="#6b7280">90%</text>
<line x1="64" y1="287.0" x2="560" y2="287.0" stroke="#e5e7eb" stroke-width="1"/>
<text x="56" y="290.0" text-anchor="end" font-family="Inter,Segoe UI,Arial,sans-serif" font-size="11" fill="#6b7280">92%</text>
<line x1="64" y1="220.0" x2="560" y2="220.0" stroke="#e5e7eb" stroke-width="1"/>
<text x="56" y="223.0" text-anchor="end" font-family="Inter,Segoe UI,Arial,sans-serif" font-size="11" fill="#6b7280">95%</text>
<line x1="64" y1="153.0" x2="560" y2="153.0" stroke="#e5e7eb" stroke-width="1"/>
<text x="56" y="156.0" text-anchor="end" font-family="Inter,Segoe UI,Arial,sans-serif" font-size="11" fill="#6b7280">98%</text>
<line x1="64" y1="86.0" x2="560" y2="86.0" stroke="#e5e7eb" stroke-width="1"/>
<text x="56" y="89.0" text-anchor="end" font-family="Inter,Segoe UI,Arial,sans-serif" font-size="11" fill="#6b7280">100%</text>
<line x1="64" y1="101.1" x2="560" y2="101.1" stroke="#dc2626" stroke-width="1.2" stroke-dasharray="1 4" stroke-linecap="round"/>
<text x="568" y="97.0" text-anchor="start" font-family="Inter,Segoe UI,Arial,sans-serif" font-size="11" font-weight="700" fill="#dc2626" data-label="highest median">highest: 99.4%</text>
<text x="146.7" y="398" text-anchor="middle" font-family="Inter,Segoe UI,Arial,sans-serif" font-size="11" font-weight="700" fill="#111827">flappy</text>
<circle cx="95.8" cy="101.4" r="1.45" fill="#2eaf5f" fill-opacity="0.46"/>
<circle cx="98.8" cy="107.6" r="1.45" fill="#2eaf5f" fill-opacity="0.46"/>
<circle cx="101.9" cy="103.5" r="1.45" fill="#2eaf5f" fill-opacity="0.46"/>
<circle cx="104.9" cy="104.0" r="1.45" fill="#2eaf5f" fill-opacity="0.46"/>
<line x1="108.0" y1="101.4" x2="108.0" y2="107.6" stroke="#2eaf5f" stroke-opacity="0.86" stroke-width="1.8"/>
<line x1="95.8" y1="101.4" x2="120.2" y2="101.4" stroke="#2eaf5f" stroke-opacity="0.86" stroke-width="1.8"/>
<line x1="95.8" y1="107.6" x2="120.2" y2="107.6" stroke="#2eaf5f" stroke-opacity="0.86" stroke-width="1.8"/>
<rect x="91.0" y="103.0" width="34.0" height="1.9" rx="2" fill="#2eaf5f" fill-opacity="0.18" stroke="#2eaf5f" stroke-opacity="0.9" stroke-width="1.8"/>
<line x1="91.0" y1="103.7" x2="125.0" y2="103.7" stroke="#2eaf5f" stroke-opacity="0.96" stroke-width="2.6"/>
<text x="131.0" y="107.7" text-anchor="start" font-family="Inter,Segoe UI,Arial,sans-serif" font-size="11" font-weight="700" fill="#111827" stroke="#ffffff" stroke-width="3" paint-order="stroke">99.3%</text>
<circle cx="173.1" cy="107.0" r="1.45" fill="#137a3d" fill-opacity="0.46"/>
<circle cx="176.2" cy="112.2" r="1.45" fill="#137a3d" fill-opacity="0.46"/>
<circle cx="179.2" cy="101.3" r="1.45" fill="#137a3d" fill-opacity="0.46"/>
<circle cx="182.3" cy="107.2" r="1.45" fill="#137a3d" fill-opacity="0.46"/>
<line x1="185.3" y1="101.3" x2="185.3" y2="112.2" stroke="#137a3d" stroke-opacity="0.86" stroke-width="1.8"/>
<line x1="173.1" y1="101.3" x2="197.6" y2="101.3" stroke="#137a3d" stroke-opacity="0.86" stroke-width="1.8"/>
<line x1="173.1" y1="112.2" x2="197.6" y2="112.2" stroke="#137a3d" stroke-opacity="0.86" stroke-width="1.8"/>
<rect x="168.3" y="105.6" width="34.0" height="2.9" rx="2" fill="#137a3d" fill-opacity="0.18" stroke="#137a3d" stroke-opacity="0.9" stroke-width="1.8"/>
<line x1="168.3" y1="107.1" x2="202.3" y2="107.1" stroke="#137a3d" stroke-opacity="0.96" stroke-width="2.6"/>
<text x="208.3" y="111.1" text-anchor="start" font-family="Inter,Segoe UI,Arial,sans-serif" font-size="11" font-weight="700" fill="#111827" stroke="#ffffff" stroke-width="3" paint-order="stroke">99.2%</text>
<text x="312.0" y="398" text-anchor="middle" font-family="Inter,Segoe UI,Arial,sans-serif" font-size="11" font-weight="700" fill="#111827">long_code</text>
<circle cx="261.1" cy="99.3" r="1.45" fill="#2eaf5f" fill-opacity="0.46"/>
<circle cx="264.2" cy="126.5" r="1.45" fill="#2eaf5f" fill-opacity="0.46"/>
<circle cx="267.2" cy="101.9" r="1.45" fill="#2eaf5f" fill-opacity="0.46"/>
<circle cx="270.3" cy="100.4" r="1.45" fill="#2eaf5f" fill-opacity="0.46"/>
<line x1="273.3" y1="99.3" x2="273.3" y2="126.5" stroke="#2eaf5f" stroke-opacity="0.86" stroke-width="1.8"/>
<line x1="261.1" y1="99.3" x2="285.6" y2="99.3" stroke="#2eaf5f" stroke-opacity="0.86" stroke-width="1.8"/>
<line x1="261.1" y1="126.5" x2="285.6" y2="126.5" stroke="#2eaf5f" stroke-opacity="0.86" stroke-width="1.8"/>
<rect x="256.3" y="100.1" width="34.0" height="7.9" rx="2" fill="#2eaf5f" fill-opacity="0.18" stroke="#2eaf5f" stroke-opacity="0.9" stroke-width="1.8"/>
<line x1="256.3" y1="101.1" x2="290.3" y2="101.1" stroke="#2eaf5f" stroke-opacity="0.96" stroke-width="2.6"/>
<text x="296.3" y="105.1" text-anchor="start" font-family="Inter,Segoe UI,Arial,sans-serif" font-size="11" font-weight="700" fill="#111827" stroke="#ffffff" stroke-width="3" paint-order="stroke">99.4%</text>
<circle cx="338.4" cy="98.6" r="1.45" fill="#137a3d" fill-opacity="0.46"/>
<circle cx="341.5" cy="131.4" r="1.45" fill="#137a3d" fill-opacity="0.46"/>
<circle cx="344.5" cy="110.4" r="1.45" fill="#137a3d" fill-opacity="0.46"/>
<circle cx="347.6" cy="97.1" r="1.45" fill="#137a3d" fill-opacity="0.46"/>
<line x1="350.7" y1="97.1" x2="350.7" y2="131.4" stroke="#137a3d" stroke-opacity="0.86" stroke-width="1.8"/>
<line x1="338.4" y1="97.1" x2="362.9" y2="97.1" stroke="#137a3d" stroke-opacity="0.86" stroke-width="1.8"/>
<line x1="338.4" y1="131.4" x2="362.9" y2="131.4" stroke="#137a3d" stroke-opacity="0.86" stroke-width="1.8"/>
<rect x="333.7" y="98.3" width="34.0" height="17.4" rx="2" fill="#137a3d" fill-opacity="0.18" stroke="#137a3d" stroke-opacity="0.9" stroke-width="1.8"/>
<line x1="333.7" y1="104.5" x2="367.7" y2="104.5" stroke="#137a3d" stroke-opacity="0.96" stroke-width="2.6"/>
<text x="373.7" y="108.5" text-anchor="start" font-family="Inter,Segoe UI,Arial,sans-serif" font-size="11" font-weight="700" fill="#111827" stroke="#ffffff" stroke-width="3" paint-order="stroke">99.3%</text>
<text x="477.3" y="398" text-anchor="middle" font-family="Inter,Segoe UI,Arial,sans-serif" font-size="11" font-weight="700" fill="#111827">python_modules_long</text>
<circle cx="426.4" cy="131.1" r="1.45" fill="#2eaf5f" fill-opacity="0.46"/>
<circle cx="429.5" cy="121.2" r="1.45" fill="#2eaf5f" fill-opacity="0.46"/>
<circle cx="432.5" cy="131.5" r="1.45" fill="#2eaf5f" fill-opacity="0.46"/>
<line x1="438.7" y1="121.2" x2="438.7" y2="131.5" stroke="#2eaf5f" stroke-opacity="0.86" stroke-width="1.8"/>
<line x1="426.4" y1="121.2" x2="450.9" y2="121.2" stroke="#2eaf5f" stroke-opacity="0.86" stroke-width="1.8"/>
<line x1="426.4" y1="131.5" x2="450.9" y2="131.5" stroke="#2eaf5f" stroke-opacity="0.86" stroke-width="1.8"/>
<rect x="421.7" y="126.1" width="34.0" height="5.2" rx="2" fill="#2eaf5f" fill-opacity="0.18" stroke="#2eaf5f" stroke-opacity="0.9" stroke-width="1.8"/>
<line x1="421.7" y1="131.1" x2="455.7" y2="131.1" stroke="#2eaf5f" stroke-opacity="0.96" stroke-width="2.6"/>
<text x="461.7" y="135.1" text-anchor="start" font-family="Inter,Segoe UI,Arial,sans-serif" font-size="11" font-weight="700" fill="#111827" stroke="#ffffff" stroke-width="3" paint-order="stroke">98.3%</text>
<circle cx="503.8" cy="123.9" r="1.45" fill="#137a3d" fill-opacity="0.46"/>
<circle cx="506.8" cy="114.8" r="1.45" fill="#137a3d" fill-opacity="0.46"/>
<circle cx="509.9" cy="134.4" r="1.45" fill="#137a3d" fill-opacity="0.46"/>
<line x1="516.0" y1="114.8" x2="516.0" y2="134.4" stroke="#137a3d" stroke-opacity="0.86" stroke-width="1.8"/>
<line x1="503.8" y1="114.8" x2="528.2" y2="114.8" stroke="#137a3d" stroke-opacity="0.86" stroke-width="1.8"/>
<line x1="503.8" y1="134.4" x2="528.2" y2="134.4" stroke="#137a3d" stroke-opacity="0.86" stroke-width="1.8"/>
<rect x="499.0" y="119.3" width="34.0" height="9.8" rx="2" fill="#137a3d" fill-opacity="0.18" stroke="#137a3d" stroke-opacity="0.9" stroke-width="1.8"/>
<line x1="499.0" y1="123.9" x2="533.0" y2="123.9" stroke="#137a3d" stroke-opacity="0.96" stroke-width="2.6"/>
<text x="539.0" y="127.9" text-anchor="start" font-family="Inter,Segoe UI,Arial,sans-serif" font-size="11" font-weight="700" fill="#111827" stroke="#ffffff" stroke-width="3" paint-order="stroke">98.6%</text>
<rect x="64.0" y="433" width="10" height="10" rx="2" fill="#2eaf5f" fill-opacity="0.72"/>
<text x="78.0" y="442" font-family="Inter,Segoe UI,Arial,sans-serif" font-size="10" fill="#374151">AX assistant MTP</text>
<rect x="312.0" y="433" width="10" height="10" rx="2" fill="#137a3d" fill-opacity="0.72"/>
<text x="326.0" y="442" font-family="Inter,Segoe UI,Arial,sans-serif" font-size="10" fill="#374151">AX assistant MTP+n-gram</text>
</svg>
