<svg xmlns="http://www.w3.org/2000/svg" width="1080" height="776" viewBox="0 0 1080 776" role="img" aria-labelledby="title desc">
<title id="title">AX MTP decode (2026-07-16): MTP off vs MTP on</title>
<desc id="desc">Horizontal grouped bar chart comparing AX direct decode throughput with MTP off against AX MTP decode throughput with MTP on for each supported 6-bit AX MTP package and prompt suite. The winning throughput label in each row is red.</desc>
<rect width="1080" height="776" fill="#ffffff"/>
<text x="72" y="32" font-family="Inter,Segoe UI,Arial,sans-serif" font-size="20" font-weight="700" fill="#111827">AX MTP decode (2026-07-16): MTP off vs MTP on</text>
<text x="72" y="54" font-family="Inter,Segoe UI,Arial,sans-serif" font-size="12" fill="#4b5563">Each row compares the same prepared 6-bit package and prompt suite: AX direct has MTP off; AX MTP has MTP on.</text>
<text x="1008" y="54" text-anchor="end" font-family="Inter,Segoe UI,Arial,sans-serif" font-size="11" font-weight="700" fill="#374151">Decode throughput, tok/s</text>
<line x1="210.0" y1="68" x2="210.0" y2="674.0" stroke="#9ca3af" stroke-width="1.4"/>
<text x="210.0" y="692.0" text-anchor="middle" font-family="Inter,Segoe UI,Arial,sans-serif" font-size="11" fill="#4b5563">0</text>
<line x1="409.5" y1="68" x2="409.5" y2="674.0" stroke="#d1d5db" stroke-width="1.2"/>
<text x="409.5" y="692.0" text-anchor="middle" font-family="Inter,Segoe UI,Arial,sans-serif" font-size="11" fill="#4b5563">50</text>
<line x1="609.0" y1="68" x2="609.0" y2="674.0" stroke="#d1d5db" stroke-width="1.2"/>
<text x="609.0" y="692.0" text-anchor="middle" font-family="Inter,Segoe UI,Arial,sans-serif" font-size="11" fill="#4b5563">100</text>
<line x1="808.5" y1="68" x2="808.5" y2="674.0" stroke="#d1d5db" stroke-width="1.2"/>
<text x="808.5" y="692.0" text-anchor="middle" font-family="Inter,Segoe UI,Arial,sans-serif" font-size="11" fill="#4b5563">150</text>
<line x1="1008.0" y1="68" x2="1008.0" y2="674.0" stroke="#d1d5db" stroke-width="1.2"/>
<text x="1008.0" y="692.0" text-anchor="middle" font-family="Inter,Segoe UI,Arial,sans-serif" font-size="11" fill="#4b5563">200</text>
<text x="609.0" y="714.0" text-anchor="middle" font-family="Inter,Segoe UI,Arial,sans-serif" font-size="11" font-weight="700" fill="#dc2626">Higher is better</text>
<rect x="72" y="70" width="12" height="12" rx="2" fill="#2eaf5f"/>
<text x="90" y="80" font-family="Inter,Segoe UI,Arial,sans-serif" font-size="12" fill="#374151">MTP off / AX direct</text>
<rect x="232" y="70" width="12" height="12" rx="2" fill="#c084fc"/>
<text x="250" y="80" font-family="Inter,Segoe UI,Arial,sans-serif" font-size="12" fill="#374151">MTP on / AX MTP</text>
<text x="72" y="100.0" font-family="Inter,Segoe UI,Arial,sans-serif" font-size="11" fill="#111827"><tspan x="72" y="100.0" font-weight="700">Qwen3.6 27B</tspan><tspan x="72" y="114.0" font-size="10" fill="#4b5563">flappy</tspan></text>
<rect x="210" y="91.0" width="90.7" height="10" rx="2" fill="#2eaf5f"/>
<rect x="210" y="104.0" width="244.3" height="10" rx="2" fill="#c084fc"/>
<text x="305.7" y="99.0" font-family="Inter,Segoe UI,Arial,sans-serif" font-size="10" font-weight="700" fill="#176c37">22.7</text>
<text x="459.3" y="112.0" font-family="Inter,Segoe UI,Arial,sans-serif" font-size="10" font-weight="700" fill="#dc2626">61.2</text>
<text x="72" y="132.0" font-family="Inter,Segoe UI,Arial,sans-serif" font-size="11" fill="#111827"><tspan x="72" y="132.0" font-weight="700">Qwen3.6 27B</tspan><tspan x="72" y="146.0" font-size="10" fill="#4b5563">long_code</tspan></text>
<rect x="210" y="123.0" width="90.7" height="10" rx="2" fill="#2eaf5f"/>
<rect x="210" y="136.0" width="205.4" height="10" rx="2" fill="#c084fc"/>
<text x="305.7" y="131.0" font-family="Inter,Segoe UI,Arial,sans-serif" font-size="10" font-weight="700" fill="#176c37">22.7</text>
<text x="420.4" y="144.0" font-family="Inter,Segoe UI,Arial,sans-serif" font-size="10" font-weight="700" fill="#dc2626">51.5</text>
<text x="72" y="164.0" font-family="Inter,Segoe UI,Arial,sans-serif" font-size="11" fill="#111827"><tspan x="72" y="164.0" font-weight="700">Qwen3.6 27B</tspan><tspan x="72" y="178.0" font-size="10" fill="#4b5563">python_modules</tspan></text>
<rect x="210" y="155.0" width="90.9" height="10" rx="2" fill="#2eaf5f"/>
<rect x="210" y="168.0" width="170.5" height="10" rx="2" fill="#c084fc"/>
<text x="305.9" y="163.0" font-family="Inter,Segoe UI,Arial,sans-serif" font-size="10" font-weight="700" fill="#176c37">22.8</text>
<text x="385.5" y="176.0" font-family="Inter,Segoe UI,Arial,sans-serif" font-size="10" font-weight="700" fill="#dc2626">42.7</text>
<line x1="72" y1="193.0" x2="1008" y2="193.0" stroke="#eef2f7" stroke-width="1"/>
<text x="72" y="214.0" font-family="Inter,Segoe UI,Arial,sans-serif" font-size="11" fill="#111827"><tspan x="72" y="214.0" font-weight="700">Qwen3.6 35B-A3B</tspan><tspan x="72" y="228.0" font-size="10" fill="#4b5563">flappy</tspan></text>
<rect x="210" y="205.0" width="398.8" height="10" rx="2" fill="#2eaf5f"/>
<rect x="210" y="218.0" width="573.0" height="10" rx="2" fill="#c084fc"/>
<text x="613.8" y="213.0" font-family="Inter,Segoe UI,Arial,sans-serif" font-size="10" font-weight="700" fill="#176c37">100.0</text>
<text x="788.0" y="226.0" font-family="Inter,Segoe UI,Arial,sans-serif" font-size="10" font-weight="700" fill="#dc2626">143.6</text>
<text x="72" y="246.0" font-family="Inter,Segoe UI,Arial,sans-serif" font-size="11" fill="#111827"><tspan x="72" y="246.0" font-weight="700">Qwen3.6 35B-A3B</tspan><tspan x="72" y="260.0" font-size="10" fill="#4b5563">long_code</tspan></text>
<rect x="210" y="237.0" width="396.9" height="10" rx="2" fill="#2eaf5f"/>
<rect x="210" y="250.0" width="557.0" height="10" rx="2" fill="#c084fc"/>
<text x="611.9" y="245.0" font-family="Inter,Segoe UI,Arial,sans-serif" font-size="10" font-weight="700" fill="#176c37">99.5</text>
<text x="772.0" y="258.0" font-family="Inter,Segoe UI,Arial,sans-serif" font-size="10" font-weight="700" fill="#dc2626">139.6</text>
<text x="72" y="278.0" font-family="Inter,Segoe UI,Arial,sans-serif" font-size="11" fill="#111827"><tspan x="72" y="278.0" font-weight="700">Qwen3.6 35B-A3B</tspan><tspan x="72" y="292.0" font-size="10" fill="#4b5563">python_modules</tspan></text>
<rect x="210" y="269.0" width="399.2" height="10" rx="2" fill="#2eaf5f"/>
<rect x="210" y="282.0" width="574.1" height="10" rx="2" fill="#c084fc"/>
<text x="614.2" y="277.0" font-family="Inter,Segoe UI,Arial,sans-serif" font-size="10" font-weight="700" fill="#176c37">100.0</text>
<text x="789.1" y="290.0" font-family="Inter,Segoe UI,Arial,sans-serif" font-size="10" font-weight="700" fill="#dc2626">143.9</text>
<line x1="72" y1="307.0" x2="1008" y2="307.0" stroke="#eef2f7" stroke-width="1"/>
<text x="72" y="328.0" font-family="Inter,Segoe UI,Arial,sans-serif" font-size="11" fill="#111827"><tspan x="72" y="328.0" font-weight="700">Gemma 4 12B</tspan><tspan x="72" y="342.0" font-size="10" fill="#4b5563">flappy</tspan></text>
<rect x="210" y="319.0" width="151.6" height="10" rx="2" fill="#2eaf5f"/>
<rect x="210" y="332.0" width="386.1" height="10" rx="2" fill="#c084fc"/>
<text x="366.6" y="327.0" font-family="Inter,Segoe UI,Arial,sans-serif" font-size="10" font-weight="700" fill="#176c37">38.0</text>
<text x="601.1" y="340.0" font-family="Inter,Segoe UI,Arial,sans-serif" font-size="10" font-weight="700" fill="#dc2626">96.8</text>
<text x="72" y="360.0" font-family="Inter,Segoe UI,Arial,sans-serif" font-size="11" fill="#111827"><tspan x="72" y="360.0" font-weight="700">Gemma 4 12B</tspan><tspan x="72" y="374.0" font-size="10" fill="#4b5563">long_code</tspan></text>
<rect x="210" y="351.0" width="150.6" height="10" rx="2" fill="#2eaf5f"/>
<rect x="210" y="364.0" width="380.3" height="10" rx="2" fill="#c084fc"/>
<text x="365.6" y="359.0" font-family="Inter,Segoe UI,Arial,sans-serif" font-size="10" font-weight="700" fill="#176c37">37.8</text>
<text x="595.3" y="372.0" font-family="Inter,Segoe UI,Arial,sans-serif" font-size="10" font-weight="700" fill="#dc2626">95.3</text>
<text x="72" y="392.0" font-family="Inter,Segoe UI,Arial,sans-serif" font-size="11" fill="#111827"><tspan x="72" y="392.0" font-weight="700">Gemma 4 12B</tspan><tspan x="72" y="406.0" font-size="10" fill="#4b5563">python_modules</tspan></text>
<rect x="210" y="383.0" width="151.9" height="10" rx="2" fill="#2eaf5f"/>
<rect x="210" y="396.0" width="304.1" height="10" rx="2" fill="#c084fc"/>
<text x="366.9" y="391.0" font-family="Inter,Segoe UI,Arial,sans-serif" font-size="10" font-weight="700" fill="#176c37">38.1</text>
<text x="519.1" y="404.0" font-family="Inter,Segoe UI,Arial,sans-serif" font-size="10" font-weight="700" fill="#dc2626">76.2</text>
<line x1="72" y1="421.0" x2="1008" y2="421.0" stroke="#eef2f7" stroke-width="1"/>
<text x="72" y="442.0" font-family="Inter,Segoe UI,Arial,sans-serif" font-size="11" fill="#111827"><tspan x="72" y="442.0" font-weight="700">Gemma 4 26B</tspan><tspan x="72" y="456.0" font-size="10" fill="#4b5563">flappy</tspan></text>
<rect x="210" y="433.0" width="353.2" height="10" rx="2" fill="#2eaf5f"/>
<rect x="210" y="446.0" width="586.3" height="10" rx="2" fill="#c084fc"/>
<text x="568.2" y="441.0" font-family="Inter,Segoe UI,Arial,sans-serif" font-size="10" font-weight="700" fill="#176c37">88.5</text>
<text x="801.3" y="454.0" font-family="Inter,Segoe UI,Arial,sans-serif" font-size="10" font-weight="700" fill="#dc2626">146.9</text>
<text x="72" y="474.0" font-family="Inter,Segoe UI,Arial,sans-serif" font-size="11" fill="#111827"><tspan x="72" y="474.0" font-weight="700">Gemma 4 26B</tspan><tspan x="72" y="488.0" font-size="10" fill="#4b5563">long_code</tspan></text>
<rect x="210" y="465.0" width="349.6" height="10" rx="2" fill="#2eaf5f"/>
<rect x="210" y="478.0" width="576.2" height="10" rx="2" fill="#c084fc"/>
<text x="564.6" y="473.0" font-family="Inter,Segoe UI,Arial,sans-serif" font-size="10" font-weight="700" fill="#176c37">87.6</text>
<text x="791.2" y="486.0" font-family="Inter,Segoe UI,Arial,sans-serif" font-size="10" font-weight="700" fill="#dc2626">144.4</text>
<text x="72" y="506.0" font-family="Inter,Segoe UI,Arial,sans-serif" font-size="11" fill="#111827"><tspan x="72" y="506.0" font-weight="700">Gemma 4 26B</tspan><tspan x="72" y="520.0" font-size="10" fill="#4b5563">python_modules</tspan></text>
<rect x="210" y="497.0" width="354.7" height="10" rx="2" fill="#2eaf5f"/>
<rect x="210" y="510.0" width="525.4" height="10" rx="2" fill="#c084fc"/>
<text x="569.7" y="505.0" font-family="Inter,Segoe UI,Arial,sans-serif" font-size="10" font-weight="700" fill="#176c37">88.9</text>
<text x="740.4" y="518.0" font-family="Inter,Segoe UI,Arial,sans-serif" font-size="10" font-weight="700" fill="#dc2626">131.7</text>
<line x1="72" y1="535.0" x2="1008" y2="535.0" stroke="#eef2f7" stroke-width="1"/>
<text x="72" y="556.0" font-family="Inter,Segoe UI,Arial,sans-serif" font-size="11" fill="#111827"><tspan x="72" y="556.0" font-weight="700">Gemma 4 31B</tspan><tspan x="72" y="570.0" font-size="10" fill="#4b5563">flappy</tspan></text>
<rect x="210" y="547.0" width="70.5" height="10" rx="2" fill="#2eaf5f"/>
<rect x="210" y="560.0" width="181.5" height="10" rx="2" fill="#c084fc"/>
<text x="285.5" y="555.0" font-family="Inter,Segoe UI,Arial,sans-serif" font-size="10" font-weight="700" fill="#176c37">17.7</text>
<text x="396.5" y="568.0" font-family="Inter,Segoe UI,Arial,sans-serif" font-size="10" font-weight="700" fill="#dc2626">45.5</text>
<text x="72" y="588.0" font-family="Inter,Segoe UI,Arial,sans-serif" font-size="11" fill="#111827"><tspan x="72" y="588.0" font-weight="700">Gemma 4 31B</tspan><tspan x="72" y="602.0" font-size="10" fill="#4b5563">long_code</tspan></text>
<rect x="210" y="579.0" width="71.7" height="10" rx="2" fill="#2eaf5f"/>
<rect x="210" y="592.0" width="181.3" height="10" rx="2" fill="#c084fc"/>
<text x="286.7" y="587.0" font-family="Inter,Segoe UI,Arial,sans-serif" font-size="10" font-weight="700" fill="#176c37">18.0</text>
<text x="396.3" y="600.0" font-family="Inter,Segoe UI,Arial,sans-serif" font-size="10" font-weight="700" fill="#dc2626">45.4</text>
<text x="72" y="620.0" font-family="Inter,Segoe UI,Arial,sans-serif" font-size="11" fill="#111827"><tspan x="72" y="620.0" font-weight="700">Gemma 4 31B</tspan><tspan x="72" y="634.0" font-size="10" fill="#4b5563">python_modules</tspan></text>
<rect x="210" y="611.0" width="72.9" height="10" rx="2" fill="#2eaf5f"/>
<rect x="210" y="624.0" width="160.3" height="10" rx="2" fill="#c084fc"/>
<text x="287.9" y="619.0" font-family="Inter,Segoe UI,Arial,sans-serif" font-size="10" font-weight="700" fill="#176c37">18.3</text>
<text x="375.3" y="632.0" font-family="Inter,Segoe UI,Arial,sans-serif" font-size="10" font-weight="700" fill="#dc2626">40.2</text>
<text x="72" y="734.0" font-family="Inter,Segoe UI,Arial,sans-serif" font-size="10" fill="#6b7280">Runtime: AX Engine v6.9.0 (2026-07-16).</text>
<text x="72" y="750.0" font-family="Inter,Segoe UI,Arial,sans-serif" font-size="10" fill="#6b7280">Source: benchmarks/results/speculative/mtp-6bit/2026-07-16-v6.9.0-clean-provenance-exact-retry / summary.json. Pure MTP; no MTP+n-gram stacking.</text>
</svg>
