<svg xmlns="http://www.w3.org/2000/svg" width="700" height="340" viewBox="0 0 700 340" role="img" aria-labelledby="title desc"><title>Qwen 3.6 — Decode rate</title><desc>Grouped box-and-whisker plot comparing llama.cpp, mlx_lm, ax_engine, ax+n-gram at 128/512/2048 prompt tokens for Qwen 3.6 models. A red dotted line marks the highest median.</desc><rect width="700" height="340" fill="#ffffff"/><text x="52" y="22" font-family="Inter,Segoe UI,Arial,sans-serif" font-size="16" font-weight="700" fill="#111827">Qwen 3.6 — Decode rate</text><text x="52" y="40" font-family="Inter,Segoe UI,Arial,sans-serif" font-size="10" fill="#6b7280">AX n-gram is the default policy</text><text x="684" y="22" text-anchor="end" font-family="Inter,Segoe UI,Arial,sans-serif" font-size="10" fill="#6b7280">tok/s</text><text x="684" y="40" text-anchor="end" font-family="Inter,Segoe UI,Arial,sans-serif" font-size="10" font-weight="700" fill="#374151">Higher is better</text><line x1="52" y1="276.0" x2="684" y2="276.0" stroke="#e5e7eb" stroke-width="1"/><text x="44" y="279.0" text-anchor="end" font-family="Inter,Segoe UI,Arial,sans-serif" font-size="10" fill="#6b7280">0</text><line x1="52" y1="161.0" x2="684" y2="161.0" stroke="#e5e7eb" stroke-width="1"/><text x="44" y="164.0" text-anchor="end" font-family="Inter,Segoe UI,Arial,sans-serif" font-size="10" fill="#6b7280">100</text><line x1="52" y1="46.0" x2="684" y2="46.0" stroke="#e5e7eb" stroke-width="1"/><text x="44" y="49.0" text-anchor="end" font-family="Inter,Segoe UI,Arial,sans-serif" font-size="10" fill="#6b7280">200</text><line x1="52" y1="242.6" x2="684" y2="242.6" stroke="#dc2626" stroke-width="1.2" stroke-dasharray="1 4" stroke-linecap="round"/><line x1="101" y1="152.1" x2="101" y2="256.0" stroke="#f97316" stroke-opacity="0.55" stroke-width="1.7"/><line x1="95.24" y1="152.1" x2="106.76" y2="152.1" stroke="#f97316" stroke-opacity="0.55" stroke-width="1.7"/><line x1="95.24" y1="256.0" x2="106.76" y2="256.0" stroke="#f97316" stroke-opacity="0.55" stroke-width="1.7"/><rect x="93" y="253.2" width="16" height="1.0" rx="2" fill="#f97316" fill-opacity="0.08" stroke="#f97316" stroke-opacity="0.55" stroke-width="1.7"/><line x1="93" y1="253.7" x2="109" y2="253.7" stroke="#f97316" stroke-opacity="0.55" stroke-width="2.4"/><text x="101" y="291" text-anchor="middle" font-family="Inter,Segoe UI,Arial,sans-serif" font-size="8" fill="#6b7280">128</text><circle cx="98" cy="253.7" r="1.4" fill="#c2410c" fill-opacity="0.5"/><circle cx="99.5" cy="253.2" r="1.4" fill="#c2410c" fill-opacity="0.5"/><circle cx="101" cy="253.7" r="1.4" fill="#c2410c" fill-opacity="0.5"/><circle cx="102.5" cy="256.0" r="1.4" fill="#c2410c" fill-opacity="0.5"/><circle cx="104" cy="152.1" r="1.4" fill="#c2410c" fill-opacity="0.5"/><line x1="131" y1="152.0" x2="131" y2="256.3" stroke="#f97316" stroke-opacity="0.78" stroke-width="1.7"/><line x1="125.24" y1="152.0" x2="136.76" y2="152.0" stroke="#f97316" stroke-opacity="0.78" stroke-width="1.7"/><line x1="125.24" y1="256.3" x2="136.76" y2="256.3" stroke="#f97316" stroke-opacity="0.78" stroke-width="1.7"/><rect x="123" y="251.2" width="16" height="2.5" rx="2" fill="#f97316" fill-opacity="0.17" stroke="#f97316" stroke-opacity="0.78" stroke-width="1.7"/><line x1="123" y1="252.1" x2="139" y2="252.1" stroke="#f97316" stroke-opacity="0.78" stroke-width="2.4"/><text x="131" y="291" text-anchor="middle" font-family="Inter,Segoe UI,Arial,sans-serif" font-size="8" fill="#6b7280">512</text><circle cx="128" cy="251.2" r="1.4" fill="#c2410c" fill-opacity="0.7"/><circle cx="129.5" cy="252.1" r="1.4" fill="#c2410c" fill-opacity="0.7"/><circle cx="131" cy="253.6" r="1.4" fill="#c2410c" fill-opacity="0.7"/><circle cx="132.5" cy="256.3" r="1.4" fill="#c2410c" fill-opacity="0.7"/><circle cx="134" cy="152.0" r="1.4" fill="#c2410c" fill-opacity="0.7"/><line x1="161" y1="152.3" x2="161" y2="256.3" stroke="#f97316" stroke-opacity="1.0" stroke-width="1.7"/><line x1="155.24" y1="152.3" x2="166.76" y2="152.3" stroke="#f97316" stroke-opacity="1.0" stroke-width="1.7"/><line x1="155.24" y1="256.3" x2="166.76" y2="256.3" stroke="#f97316" stroke-opacity="1.0" stroke-width="1.7"/><rect x="153" y="247.6" width="16" height="6.1" rx="2" fill="#f97316" fill-opacity="0.3" stroke="#f97316" stroke-opacity="1.0" stroke-width="1.7"/><line x1="153" y1="252.1" x2="169" y2="252.1" stroke="#f97316" stroke-opacity="1.0" stroke-width="2.4"/><text x="161" y="291" text-anchor="middle" font-family="Inter,Segoe UI,Arial,sans-serif" font-size="8" fill="#6b7280">2048</text><circle cx="158" cy="247.6" r="1.4" fill="#c2410c" fill-opacity="0.9"/><circle cx="159.5" cy="252.1" r="1.4" fill="#c2410c" fill-opacity="0.9"/><circle cx="161" cy="253.7" r="1.4" fill="#c2410c" fill-opacity="0.9"/><circle cx="162.5" cy="256.3" r="1.4" fill="#c2410c" fill-opacity="0.9"/><circle cx="164" cy="152.3" r="1.4" fill="#c2410c" fill-opacity="0.9"/><text x="131" y="308" text-anchor="middle" font-family="Inter,Segoe UI,Arial,sans-serif" font-size="9" font-weight="700" fill="#111827">llama.cpp</text><line x1="259" y1="114.9" x2="259" y2="254.5" stroke="#f2b705" stroke-opacity="0.55" stroke-width="1.7"/><line x1="253.24" y1="114.9" x2="264.76" y2="114.9" stroke="#f2b705" stroke-opacity="0.55" stroke-width="1.7"/><line x1="253.24" y1="254.5" x2="264.76" y2="254.5" stroke="#f2b705" stroke-opacity="0.55" stroke-width="1.7"/><rect x="251" y="236.9" width="16" height="14.2" rx="2" fill="#f2b705" fill-opacity="0.08" stroke="#f2b705" stroke-opacity="0.55" stroke-width="1.7"/><line x1="251" y1="248.4" x2="267" y2="248.4" stroke="#f2b705" stroke-opacity="0.55" stroke-width="2.4"/><text x="259" y="291" text-anchor="middle" font-family="Inter,Segoe UI,Arial,sans-serif" font-size="8" fill="#6b7280">128</text><circle cx="256" cy="236.9" r="1.4" fill="#9a6a00" fill-opacity="0.5"/><circle cx="257.5" cy="251.2" r="1.4" fill="#9a6a00" fill-opacity="0.5"/><circle cx="259" cy="248.4" r="1.4" fill="#9a6a00" fill-opacity="0.5"/><circle cx="260.5" cy="254.5" r="1.4" fill="#9a6a00" fill-opacity="0.5"/><circle cx="262" cy="114.9" r="1.4" fill="#9a6a00" fill-opacity="0.5"/><line x1="289" y1="119.1" x2="289" y2="254.6" stroke="#f2b705" stroke-opacity="0.78" stroke-width="1.7"/><line x1="283.24" y1="119.1" x2="294.76" y2="119.1" stroke="#f2b705" stroke-opacity="0.78" stroke-width="1.7"/><line x1="283.24" y1="254.6" x2="294.76" y2="254.6" stroke="#f2b705" stroke-opacity="0.78" stroke-width="1.7"/><rect x="281" y="237.0" width="16" height="10.5" rx="2" fill="#f2b705" fill-opacity="0.17" stroke="#f2b705" stroke-opacity="0.78" stroke-width="1.7"/><line x1="281" y1="243.6" x2="297" y2="243.6" stroke="#f2b705" stroke-opacity="0.78" stroke-width="2.4"/><text x="289" y="291" text-anchor="middle" font-family="Inter,Segoe UI,Arial,sans-serif" font-size="8" fill="#6b7280">512</text><circle cx="286" cy="237.0" r="1.4" fill="#9a6a00" fill-opacity="0.7"/><circle cx="287.5" cy="243.6" r="1.4" fill="#9a6a00" fill-opacity="0.7"/><circle cx="289" cy="247.5" r="1.4" fill="#9a6a00" fill-opacity="0.7"/><circle cx="290.5" cy="254.6" r="1.4" fill="#9a6a00" fill-opacity="0.7"/><circle cx="292" cy="119.1" r="1.4" fill="#9a6a00" fill-opacity="0.7"/><line x1="319" y1="121.4" x2="319" y2="254.8" stroke="#f2b705" stroke-opacity="1.0" stroke-width="1.7"/><line x1="313.24" y1="121.4" x2="324.76" y2="121.4" stroke="#f2b705" stroke-opacity="1.0" stroke-width="1.7"/><line x1="313.24" y1="254.8" x2="324.76" y2="254.8" stroke="#f2b705" stroke-opacity="1.0" stroke-width="1.7"/><rect x="311" y="237.5" width="16" height="10.1" rx="2" fill="#f2b705" fill-opacity="0.3" stroke="#f2b705" stroke-opacity="1.0" stroke-width="1.7"/><line x1="311" y1="244.0" x2="327" y2="244.0" stroke="#f2b705" stroke-opacity="1.0" stroke-width="2.4"/><text x="319" y="291" text-anchor="middle" font-family="Inter,Segoe UI,Arial,sans-serif" font-size="8" fill="#6b7280">2048</text><circle cx="316" cy="237.5" r="1.4" fill="#9a6a00" fill-opacity="0.9"/><circle cx="317.5" cy="244.0" r="1.4" fill="#9a6a00" fill-opacity="0.9"/><circle cx="319" cy="247.7" r="1.4" fill="#9a6a00" fill-opacity="0.9"/><circle cx="320.5" cy="254.8" r="1.4" fill="#9a6a00" fill-opacity="0.9"/><circle cx="322" cy="121.4" r="1.4" fill="#9a6a00" fill-opacity="0.9"/><text x="289" y="308" text-anchor="middle" font-family="Inter,Segoe UI,Arial,sans-serif" font-size="9" font-weight="700" fill="#111827">mlx_lm</text><line x1="417" y1="94.9" x2="417" y2="253.7" stroke="#2eaf5f" stroke-opacity="0.55" stroke-width="1.7"/><line x1="411.24" y1="94.9" x2="422.76" y2="94.9" stroke="#2eaf5f" stroke-opacity="0.55" stroke-width="1.7"/><line x1="411.24" y1="253.7" x2="422.76" y2="253.7" stroke="#2eaf5f" stroke-opacity="0.55" stroke-width="1.7"/><rect x="409" y="235.6" width="16" height="10.9" rx="2" fill="#2eaf5f" fill-opacity="0.08" stroke="#2eaf5f" stroke-opacity="0.55" stroke-width="1.7"/><line x1="409" y1="242.7" x2="425" y2="242.7" stroke="#2eaf5f" stroke-opacity="0.55" stroke-width="2.4"/><text x="417" y="291" text-anchor="middle" font-family="Inter,Segoe UI,Arial,sans-serif" font-size="8" fill="#6b7280">128</text><circle cx="414" cy="235.6" r="1.4" fill="#176c37" fill-opacity="0.5"/><circle cx="415.5" cy="242.7" r="1.4" fill="#176c37" fill-opacity="0.5"/><circle cx="417" cy="246.5" r="1.4" fill="#176c37" fill-opacity="0.5"/><circle cx="418.5" cy="253.7" r="1.4" fill="#176c37" fill-opacity="0.5"/><circle cx="420" cy="94.9" r="1.4" fill="#176c37" fill-opacity="0.5"/><line x1="447" y1="96.5" x2="447" y2="253.8" stroke="#2eaf5f" stroke-opacity="0.78" stroke-width="1.7"/><line x1="441.24" y1="96.5" x2="452.76" y2="96.5" stroke="#2eaf5f" stroke-opacity="0.78" stroke-width="1.7"/><line x1="441.24" y1="253.8" x2="452.76" y2="253.8" stroke="#2eaf5f" stroke-opacity="0.78" stroke-width="1.7"/><rect x="439" y="235.9" width="16" height="10.6" rx="2" fill="#2eaf5f" fill-opacity="0.17" stroke="#2eaf5f" stroke-opacity="0.78" stroke-width="1.7"/><line x1="439" y1="242.8" x2="455" y2="242.8" stroke="#2eaf5f" stroke-opacity="0.78" stroke-width="2.4"/><text x="447" y="291" text-anchor="middle" font-family="Inter,Segoe UI,Arial,sans-serif" font-size="8" fill="#6b7280">512</text><circle cx="444" cy="235.9" r="1.4" fill="#176c37" fill-opacity="0.7"/><circle cx="445.5" cy="242.8" r="1.4" fill="#176c37" fill-opacity="0.7"/><circle cx="447" cy="246.5" r="1.4" fill="#176c37" fill-opacity="0.7"/><circle cx="448.5" cy="253.8" r="1.4" fill="#176c37" fill-opacity="0.7"/><circle cx="450" cy="96.5" r="1.4" fill="#176c37" fill-opacity="0.7"/><line x1="477" y1="99.5" x2="477" y2="253.9" stroke="#2eaf5f" stroke-opacity="1.0" stroke-width="1.7"/><line x1="471.24" y1="99.5" x2="482.76" y2="99.5" stroke="#2eaf5f" stroke-opacity="1.0" stroke-width="1.7"/><line x1="471.24" y1="253.9" x2="482.76" y2="253.9" stroke="#2eaf5f" stroke-opacity="1.0" stroke-width="1.7"/><rect x="469" y="236.4" width="16" height="10.4" rx="2" fill="#2eaf5f" fill-opacity="0.3" stroke="#2eaf5f" stroke-opacity="1.0" stroke-width="1.7"/><line x1="469" y1="243.0" x2="485" y2="243.0" stroke="#2eaf5f" stroke-opacity="1.0" stroke-width="2.4"/><text x="477" y="291" text-anchor="middle" font-family="Inter,Segoe UI,Arial,sans-serif" font-size="8" fill="#6b7280">2048</text><circle cx="474" cy="236.4" r="1.4" fill="#176c37" fill-opacity="0.9"/><circle cx="475.5" cy="243.0" r="1.4" fill="#176c37" fill-opacity="0.9"/><circle cx="477" cy="246.8" r="1.4" fill="#176c37" fill-opacity="0.9"/><circle cx="478.5" cy="253.9" r="1.4" fill="#176c37" fill-opacity="0.9"/><circle cx="480" cy="99.5" r="1.4" fill="#176c37" fill-opacity="0.9"/><text x="447" y="308" text-anchor="middle" font-family="Inter,Segoe UI,Arial,sans-serif" font-size="9" font-weight="700" fill="#111827">ax_engine</text><line x1="575" y1="95.2" x2="575" y2="253.7" stroke="#137a3d" stroke-opacity="0.55" stroke-width="1.7"/><line x1="569.24" y1="95.2" x2="580.76" y2="95.2" stroke="#137a3d" stroke-opacity="0.55" stroke-width="1.7"/><line x1="569.24" y1="253.7" x2="580.76" y2="253.7" stroke="#137a3d" stroke-opacity="0.55" stroke-width="1.7"/><rect x="567" y="236.1" width="16" height="10.3" rx="2" fill="#137a3d" fill-opacity="0.08" stroke="#137a3d" stroke-opacity="0.55" stroke-width="1.7"/><line x1="567" y1="242.6" x2="583" y2="242.6" stroke="#137a3d" stroke-opacity="0.55" stroke-width="2.4"/><text x="575" y="291" text-anchor="middle" font-family="Inter,Segoe UI,Arial,sans-serif" font-size="8" fill="#6b7280">128</text><circle cx="572" cy="236.1" r="1.4" fill="#0b4f28" fill-opacity="0.5"/><circle cx="573.5" cy="242.6" r="1.4" fill="#0b4f28" fill-opacity="0.5"/><circle cx="575" cy="246.4" r="1.4" fill="#0b4f28" fill-opacity="0.5"/><circle cx="576.5" cy="253.7" r="1.4" fill="#0b4f28" fill-opacity="0.5"/><circle cx="578" cy="95.2" r="1.4" fill="#0b4f28" fill-opacity="0.5"/><line x1="605" y1="96.7" x2="605" y2="253.8" stroke="#137a3d" stroke-opacity="0.78" stroke-width="1.7"/><line x1="599.24" y1="96.7" x2="610.76" y2="96.7" stroke="#137a3d" stroke-opacity="0.78" stroke-width="1.7"/><line x1="599.24" y1="253.8" x2="610.76" y2="253.8" stroke="#137a3d" stroke-opacity="0.78" stroke-width="1.7"/><rect x="597" y="236.7" width="16" height="9.8" rx="2" fill="#137a3d" fill-opacity="0.17" stroke="#137a3d" stroke-opacity="0.78" stroke-width="1.7"/><line x1="597" y1="242.7" x2="613" y2="242.7" stroke="#137a3d" stroke-opacity="0.78" stroke-width="2.4"/><text x="605" y="291" text-anchor="middle" font-family="Inter,Segoe UI,Arial,sans-serif" font-size="8" fill="#6b7280">512</text><circle cx="602" cy="236.7" r="1.4" fill="#0b4f28" fill-opacity="0.7"/><circle cx="603.5" cy="242.7" r="1.4" fill="#0b4f28" fill-opacity="0.7"/><circle cx="605" cy="246.5" r="1.4" fill="#0b4f28" fill-opacity="0.7"/><circle cx="606.5" cy="253.8" r="1.4" fill="#0b4f28" fill-opacity="0.7"/><circle cx="608" cy="96.7" r="1.4" fill="#0b4f28" fill-opacity="0.7"/><line x1="635" y1="99.5" x2="635" y2="254.0" stroke="#137a3d" stroke-opacity="1.0" stroke-width="1.7"/><line x1="629.24" y1="99.5" x2="640.76" y2="99.5" stroke="#137a3d" stroke-opacity="1.0" stroke-width="1.7"/><line x1="629.24" y1="254.0" x2="640.76" y2="254.0" stroke="#137a3d" stroke-opacity="1.0" stroke-width="1.7"/><rect x="627" y="237.4" width="16" height="9.3" rx="2" fill="#137a3d" fill-opacity="0.3" stroke="#137a3d" stroke-opacity="1.0" stroke-width="1.7"/><line x1="627" y1="242.9" x2="643" y2="242.9" stroke="#137a3d" stroke-opacity="1.0" stroke-width="2.4"/><text x="635" y="291" text-anchor="middle" font-family="Inter,Segoe UI,Arial,sans-serif" font-size="8" fill="#6b7280">2048</text><circle cx="632" cy="237.4" r="1.4" fill="#0b4f28" fill-opacity="0.9"/><circle cx="633.5" cy="242.9" r="1.4" fill="#0b4f28" fill-opacity="0.9"/><circle cx="635" cy="246.7" r="1.4" fill="#0b4f28" fill-opacity="0.9"/><circle cx="636.5" cy="254.0" r="1.4" fill="#0b4f28" fill-opacity="0.9"/><circle cx="638" cy="99.5" r="1.4" fill="#0b4f28" fill-opacity="0.9"/><text x="605" y="308" text-anchor="middle" font-family="Inter,Segoe UI,Arial,sans-serif" font-size="9" font-weight="700" fill="#111827">ax+n-gram</text></svg>
