<svg xmlns="http://www.w3.org/2000/svg" width="540" height="278" viewBox="0 0 540 278" role="img" aria-labelledby="title desc"><title>Qwen 3.6 — Prefill rate</title><desc>Grouped box-and-whisker plot comparing llama.cpp, mlx_lm, ax_engine at 128/512/2048 prompt tokens for Qwen 3.6 models. A red dotted line marks the highest median.</desc><rect width="540" height="278" fill="#ffffff"/><text x="52" y="22" font-family="Inter,Segoe UI,Arial,sans-serif" font-size="16" font-weight="700" fill="#111827">Qwen 3.6 — Prefill rate</text><text x="524" y="22" text-anchor="end" font-family="Inter,Segoe UI,Arial,sans-serif" font-size="10" fill="#6b7280">tok/s</text><text x="524" y="40" text-anchor="end" font-family="Inter,Segoe UI,Arial,sans-serif" font-size="10" font-weight="700" fill="#374151">Higher is better</text><line x1="52" y1="214.0" x2="524" y2="214.0" stroke="#e5e7eb" stroke-width="1"/><text x="44" y="217.0" text-anchor="end" font-family="Inter,Segoe UI,Arial,sans-serif" font-size="10" fill="#6b7280">0</text><line x1="52" y1="130.0" x2="524" y2="130.0" stroke="#e5e7eb" stroke-width="1"/><text x="44" y="133.0" text-anchor="end" font-family="Inter,Segoe UI,Arial,sans-serif" font-size="10" fill="#6b7280">2.5k</text><line x1="52" y1="46.0" x2="524" y2="46.0" stroke="#e5e7eb" stroke-width="1"/><text x="44" y="49.0" text-anchor="end" font-family="Inter,Segoe UI,Arial,sans-serif" font-size="10" fill="#6b7280">5k</text><line x1="52" y1="184.8" x2="524" y2="184.8" stroke="#dc2626" stroke-width="1.2" stroke-dasharray="1 4" stroke-linecap="round"/><line x1="100.667" y1="155.4" x2="100.667" y2="196.6" stroke="#f97316" stroke-opacity="0.55" stroke-width="1.7"/><line x1="94.9067" y1="155.4" x2="106.427" y2="155.4" stroke="#f97316" stroke-opacity="0.55" stroke-width="1.7"/><line x1="94.9067" y1="196.6" x2="106.427" y2="196.6" stroke="#f97316" stroke-opacity="0.55" stroke-width="1.7"/><rect x="92.6667" y="195.2" width="16" height="1.0" rx="2" fill="#f97316" fill-opacity="0.08" stroke="#f97316" stroke-opacity="0.55" stroke-width="1.7"/><line x1="92.6667" y1="195.8" x2="108.667" y2="195.8" stroke="#f97316" stroke-opacity="0.55" stroke-width="2.4"/><text x="100.667" y="229" text-anchor="middle" font-family="Inter,Segoe UI,Arial,sans-serif" font-size="8" fill="#6b7280">128</text><circle cx="97.6667" cy="196.3" r="1.4" fill="#c2410c" fill-opacity="0.5"/><circle cx="99.1667" cy="196.6" r="1.4" fill="#c2410c" fill-opacity="0.5"/><circle cx="100.667" cy="195.8" r="1.4" fill="#c2410c" fill-opacity="0.5"/><circle cx="102.167" cy="195.2" r="1.4" fill="#c2410c" fill-opacity="0.5"/><circle cx="103.667" cy="155.4" r="1.4" fill="#c2410c" fill-opacity="0.5"/><line x1="130.667" y1="106.2" x2="130.667" y2="195.9" stroke="#f97316" stroke-opacity="0.78" stroke-width="1.7"/><line x1="124.907" y1="106.2" x2="136.427" y2="106.2" stroke="#f97316" stroke-opacity="0.78" stroke-width="1.7"/><line x1="124.907" y1="195.9" x2="136.427" y2="195.9" stroke="#f97316" stroke-opacity="0.78" stroke-width="1.7"/><rect x="122.667" y="192.1" width="16" height="3.1" rx="2" fill="#f97316" fill-opacity="0.17" stroke="#f97316" stroke-opacity="0.78" stroke-width="1.7"/><line x1="122.667" y1="193.6" x2="138.667" y2="193.6" stroke="#f97316" stroke-opacity="0.78" stroke-width="2.4"/><text x="130.667" y="229" text-anchor="middle" font-family="Inter,Segoe UI,Arial,sans-serif" font-size="8" fill="#6b7280">512</text><circle cx="127.667" cy="195.9" r="1.4" fill="#c2410c" fill-opacity="0.7"/><circle cx="129.167" cy="195.3" r="1.4" fill="#c2410c" fill-opacity="0.7"/><circle cx="130.667" cy="193.6" r="1.4" fill="#c2410c" fill-opacity="0.7"/><circle cx="132.167" cy="192.1" r="1.4" fill="#c2410c" fill-opacity="0.7"/><circle cx="133.667" cy="106.2" r="1.4" fill="#c2410c" fill-opacity="0.7"/><line x1="160.667" y1="93.8" x2="160.667" y2="195.5" stroke="#f97316" stroke-opacity="1.0" stroke-width="1.7"/><line x1="154.907" y1="93.8" x2="166.427" y2="93.8" stroke="#f97316" stroke-opacity="1.0" stroke-width="1.7"/><line x1="154.907" y1="195.5" x2="166.427" y2="195.5" stroke="#f97316" stroke-opacity="1.0" stroke-width="1.7"/><rect x="152.667" y="191.2" width="16" height="3.5" rx="2" fill="#f97316" fill-opacity="0.3" stroke="#f97316" stroke-opacity="1.0" stroke-width="1.7"/><line x1="152.667" y1="193.3" x2="168.667" y2="193.3" stroke="#f97316" stroke-opacity="1.0" stroke-width="2.4"/><text x="160.667" y="229" text-anchor="middle" font-family="Inter,Segoe UI,Arial,sans-serif" font-size="8" fill="#6b7280">2048</text><circle cx="157.667" cy="191.2" r="1.4" fill="#c2410c" fill-opacity="0.9"/><circle cx="159.167" cy="195.5" r="1.4" fill="#c2410c" fill-opacity="0.9"/><circle cx="160.667" cy="194.6" r="1.4" fill="#c2410c" fill-opacity="0.9"/><circle cx="162.167" cy="193.3" r="1.4" fill="#c2410c" fill-opacity="0.9"/><circle cx="163.667" cy="93.8" r="1.4" fill="#c2410c" fill-opacity="0.9"/><text x="130.667" y="246" text-anchor="middle" font-family="Inter,Segoe UI,Arial,sans-serif" font-size="9" font-weight="700" fill="#111827">llama.cpp</text><line x1="258" y1="193.4" x2="258" y2="203.9" stroke="#f2b705" stroke-opacity="0.55" stroke-width="1.7"/><line x1="252.24" y1="193.4" x2="263.76" y2="193.4" stroke="#f2b705" stroke-opacity="0.55" stroke-width="1.7"/><line x1="252.24" y1="203.9" x2="263.76" y2="203.9" stroke="#f2b705" stroke-opacity="0.55" stroke-width="1.7"/><rect x="250" y="199.2" width="16" height="2.5" rx="2" fill="#f2b705" fill-opacity="0.08" stroke="#f2b705" stroke-opacity="0.55" stroke-width="1.7"/><line x1="250" y1="200.9" x2="266" y2="200.9" stroke="#f2b705" stroke-opacity="0.55" stroke-width="2.4"/><text x="258" y="229" text-anchor="middle" font-family="Inter,Segoe UI,Arial,sans-serif" font-size="8" fill="#6b7280">128</text><circle cx="255" cy="199.2" r="1.4" fill="#9a6a00" fill-opacity="0.5"/><circle cx="256.5" cy="200.9" r="1.4" fill="#9a6a00" fill-opacity="0.5"/><circle cx="258" cy="201.7" r="1.4" fill="#9a6a00" fill-opacity="0.5"/><circle cx="259.5" cy="203.9" r="1.4" fill="#9a6a00" fill-opacity="0.5"/><circle cx="261" cy="193.4" r="1.4" fill="#9a6a00" fill-opacity="0.5"/><line x1="288" y1="155.0" x2="288" y2="193.5" stroke="#f2b705" stroke-opacity="0.78" stroke-width="1.7"/><line x1="282.24" y1="155.0" x2="293.76" y2="155.0" stroke="#f2b705" stroke-opacity="0.78" stroke-width="1.7"/><line x1="282.24" y1="193.5" x2="293.76" y2="193.5" stroke="#f2b705" stroke-opacity="0.78" stroke-width="1.7"/><rect x="280" y="188.5" width="16" height="3.0" rx="2" fill="#f2b705" fill-opacity="0.17" stroke="#f2b705" stroke-opacity="0.78" stroke-width="1.7"/><line x1="280" y1="190.9" x2="296" y2="190.9" stroke="#f2b705" stroke-opacity="0.78" stroke-width="2.4"/><text x="288" y="229" text-anchor="middle" font-family="Inter,Segoe UI,Arial,sans-serif" font-size="8" fill="#6b7280">512</text><circle cx="285" cy="188.5" r="1.4" fill="#9a6a00" fill-opacity="0.7"/><circle cx="286.5" cy="190.9" r="1.4" fill="#9a6a00" fill-opacity="0.7"/><circle cx="288" cy="191.5" r="1.4" fill="#9a6a00" fill-opacity="0.7"/><circle cx="289.5" cy="193.5" r="1.4" fill="#9a6a00" fill-opacity="0.7"/><circle cx="291" cy="155.0" r="1.4" fill="#9a6a00" fill-opacity="0.7"/><line x1="318" y1="90.3" x2="318" y2="186.4" stroke="#f2b705" stroke-opacity="1.0" stroke-width="1.7"/><line x1="312.24" y1="90.3" x2="323.76" y2="90.3" stroke="#f2b705" stroke-opacity="1.0" stroke-width="1.7"/><line x1="312.24" y1="186.4" x2="323.76" y2="186.4" stroke="#f2b705" stroke-opacity="1.0" stroke-width="1.7"/><rect x="310" y="183.1" width="16" height="2.7" rx="2" fill="#f2b705" fill-opacity="0.3" stroke="#f2b705" stroke-opacity="1.0" stroke-width="1.7"/><line x1="310" y1="185.2" x2="326" y2="185.2" stroke="#f2b705" stroke-opacity="1.0" stroke-width="2.4"/><text x="318" y="229" text-anchor="middle" font-family="Inter,Segoe UI,Arial,sans-serif" font-size="8" fill="#6b7280">2048</text><circle cx="315" cy="183.1" r="1.4" fill="#9a6a00" fill-opacity="0.9"/><circle cx="316.5" cy="185.2" r="1.4" fill="#9a6a00" fill-opacity="0.9"/><circle cx="318" cy="185.8" r="1.4" fill="#9a6a00" fill-opacity="0.9"/><circle cx="319.5" cy="186.4" r="1.4" fill="#9a6a00" fill-opacity="0.9"/><circle cx="321" cy="90.3" r="1.4" fill="#9a6a00" fill-opacity="0.9"/><text x="288" y="246" text-anchor="middle" font-family="Inter,Segoe UI,Arial,sans-serif" font-size="9" font-weight="700" fill="#111827">mlx_lm</text><line x1="415.333" y1="172.9" x2="415.333" y2="195.5" stroke="#2eaf5f" stroke-opacity="0.55" stroke-width="1.7"/><line x1="409.573" y1="172.9" x2="421.093" y2="172.9" stroke="#2eaf5f" stroke-opacity="0.55" stroke-width="1.7"/><line x1="409.573" y1="195.5" x2="421.093" y2="195.5" stroke="#2eaf5f" stroke-opacity="0.55" stroke-width="1.7"/><rect x="407.333" y="190.8" width="16" height="2.7" rx="2" fill="#2eaf5f" fill-opacity="0.08" stroke="#2eaf5f" stroke-opacity="0.55" stroke-width="1.7"/><line x1="407.333" y1="192.4" x2="423.333" y2="192.4" stroke="#2eaf5f" stroke-opacity="0.55" stroke-width="2.4"/><text x="415.333" y="229" text-anchor="middle" font-family="Inter,Segoe UI,Arial,sans-serif" font-size="8" fill="#6b7280">128</text><circle cx="412.333" cy="190.8" r="1.4" fill="#176c37" fill-opacity="0.5"/><circle cx="413.833" cy="192.4" r="1.4" fill="#176c37" fill-opacity="0.5"/><circle cx="415.333" cy="193.5" r="1.4" fill="#176c37" fill-opacity="0.5"/><circle cx="416.833" cy="195.5" r="1.4" fill="#176c37" fill-opacity="0.5"/><circle cx="418.333" cy="172.9" r="1.4" fill="#176c37" fill-opacity="0.5"/><line x1="445.333" y1="112.1" x2="445.333" y2="186.7" stroke="#2eaf5f" stroke-opacity="0.78" stroke-width="1.7"/><line x1="439.573" y1="112.1" x2="451.093" y2="112.1" stroke="#2eaf5f" stroke-opacity="0.78" stroke-width="1.7"/><line x1="439.573" y1="186.7" x2="451.093" y2="186.7" stroke="#2eaf5f" stroke-opacity="0.78" stroke-width="1.7"/><rect x="437.333" y="183.9" width="16" height="2.4" rx="2" fill="#2eaf5f" fill-opacity="0.17" stroke="#2eaf5f" stroke-opacity="0.78" stroke-width="1.7"/><line x1="437.333" y1="185.7" x2="453.333" y2="185.7" stroke="#2eaf5f" stroke-opacity="0.78" stroke-width="2.4"/><text x="445.333" y="229" text-anchor="middle" font-family="Inter,Segoe UI,Arial,sans-serif" font-size="8" fill="#6b7280">512</text><circle cx="442.333" cy="183.9" r="1.4" fill="#176c37" fill-opacity="0.7"/><circle cx="443.833" cy="185.7" r="1.4" fill="#176c37" fill-opacity="0.7"/><circle cx="445.333" cy="186.3" r="1.4" fill="#176c37" fill-opacity="0.7"/><circle cx="446.833" cy="186.7" r="1.4" fill="#176c37" fill-opacity="0.7"/><circle cx="448.333" cy="112.1" r="1.4" fill="#176c37" fill-opacity="0.7"/><line x1="475.333" y1="85.8" x2="475.333" y2="185.4" stroke="#2eaf5f" stroke-opacity="1.0" stroke-width="1.7"/><line x1="469.573" y1="85.8" x2="481.093" y2="85.8" stroke="#2eaf5f" stroke-opacity="1.0" stroke-width="1.7"/><line x1="469.573" y1="185.4" x2="481.093" y2="185.4" stroke="#2eaf5f" stroke-opacity="1.0" stroke-width="1.7"/><rect x="467.333" y="182.8" width="16" height="2.4" rx="2" fill="#2eaf5f" fill-opacity="0.3" stroke="#2eaf5f" stroke-opacity="1.0" stroke-width="1.7"/><line x1="467.333" y1="184.8" x2="483.333" y2="184.8" stroke="#2eaf5f" stroke-opacity="1.0" stroke-width="2.4"/><text x="475.333" y="229" text-anchor="middle" font-family="Inter,Segoe UI,Arial,sans-serif" font-size="8" fill="#6b7280">2048</text><circle cx="472.333" cy="182.8" r="1.4" fill="#176c37" fill-opacity="0.9"/><circle cx="473.833" cy="184.8" r="1.4" fill="#176c37" fill-opacity="0.9"/><circle cx="475.333" cy="185.2" r="1.4" fill="#176c37" fill-opacity="0.9"/><circle cx="476.833" cy="185.4" r="1.4" fill="#176c37" fill-opacity="0.9"/><circle cx="478.333" cy="85.8" r="1.4" fill="#176c37" fill-opacity="0.9"/><text x="445.333" y="246" text-anchor="middle" font-family="Inter,Segoe UI,Arial,sans-serif" font-size="9" font-weight="700" fill="#111827">ax_engine</text></svg>
