<svg xmlns="http://www.w3.org/2000/svg" width="760" height="460" viewBox="0 0 760 460" role="img" aria-labelledby="title desc">
<title>Gemma 4 31B 4-bit — Time to first token</title>
<desc>Grouped box-and-whisker plot comparing AX assistant MTP, AX assistant MTP+n-gram across flappy, long_code, python_modules_long prompt suites.</desc>
<rect width="100%" height="100%" fill="#f8fafc"/>
<text x="24" y="24" font-family="Inter,Segoe UI,Arial,sans-serif" font-size="16" font-weight="700" fill="#111827">Gemma 4 31B 4-bit — Time to first token</text>
<text x="24" y="46" font-family="Inter,Segoe UI,Arial,sans-serif" font-size="11" fill="#4b5563">All suites | box=IQR | whiskers=min/max | dots=runs</text>
<text x="24" y="62" font-family="Inter,Segoe UI,Arial,sans-serif" font-size="10" fill="#6b7280">Apple M5 Max · AX Engine v5.2.4 · gate 0.999 · T=0.6/top_p=0.95/top_k=20</text>
<rect x="678" y="13" width="48" height="22" rx="11" fill="#eef2ff" stroke="#c7d2fe"/>
<text x="702.0" y="28" text-anchor="middle" font-family="Inter,Segoe UI,Arial,sans-serif" font-size="10" font-weight="700" fill="#3730a3">ms</text>
<text x="726" y="52" text-anchor="end" font-family="Inter,Segoe UI,Arial,sans-serif" font-size="10" font-weight="700" fill="#dc2626">Lower is better</text>
<rect x="64" y="86" width="496" height="268" rx="6" fill="#ffffff" stroke="#dbe3ef"/>
<line x1="64" y1="354.0" x2="560" y2="354.0" stroke="#e5e7eb" stroke-width="1"/>
<text x="56" y="357.0" text-anchor="end" font-family="Inter,Segoe UI,Arial,sans-serif" font-size="11" fill="#6b7280">0.0</text>
<line x1="64" y1="287.0" x2="560" y2="287.0" stroke="#e5e7eb" stroke-width="1"/>
<text x="56" y="290.0" text-anchor="end" font-family="Inter,Segoe UI,Arial,sans-serif" font-size="11" fill="#6b7280">500</text>
<line x1="64" y1="220.0" x2="560" y2="220.0" stroke="#e5e7eb" stroke-width="1"/>
<text x="56" y="223.0" text-anchor="end" font-family="Inter,Segoe UI,Arial,sans-serif" font-size="11" fill="#6b7280">1k</text>
<line x1="64" y1="153.0" x2="560" y2="153.0" stroke="#e5e7eb" stroke-width="1"/>
<text x="56" y="156.0" text-anchor="end" font-family="Inter,Segoe UI,Arial,sans-serif" font-size="11" fill="#6b7280">1.5k</text>
<line x1="64" y1="86.0" x2="560" y2="86.0" stroke="#e5e7eb" stroke-width="1"/>
<text x="56" y="89.0" text-anchor="end" font-family="Inter,Segoe UI,Arial,sans-serif" font-size="11" fill="#6b7280">2k</text>
<line x1="64" y1="290.8" x2="560" y2="290.8" stroke="#dc2626" stroke-width="1.2" stroke-dasharray="1 4" stroke-linecap="round"/>
<text x="568" y="285.8" text-anchor="start" font-family="Inter,Segoe UI,Arial,sans-serif" font-size="11" font-weight="700" fill="#dc2626" data-label="lowest median">lowest: 472</text>
<text x="146.7" y="398" text-anchor="middle" font-family="Inter,Segoe UI,Arial,sans-serif" font-size="11" font-weight="700" fill="#111827">flappy</text>
<circle cx="95.8" cy="297.2" r="1.45" fill="#2eaf5f" fill-opacity="0.46"/>
<circle cx="98.8" cy="298.1" r="1.45" fill="#2eaf5f" fill-opacity="0.46"/>
<circle cx="101.9" cy="298.0" r="1.45" fill="#2eaf5f" fill-opacity="0.46"/>
<circle cx="104.9" cy="297.4" r="1.45" fill="#2eaf5f" fill-opacity="0.46"/>
<circle cx="108.0" cy="297.4" r="1.45" fill="#2eaf5f" fill-opacity="0.46"/>
<circle cx="111.1" cy="279.0" r="1.45" fill="#2eaf5f" fill-opacity="0.46"/>
<circle cx="114.1" cy="280.0" r="1.45" fill="#2eaf5f" fill-opacity="0.46"/>
<circle cx="117.2" cy="280.3" r="1.45" fill="#2eaf5f" fill-opacity="0.46"/>
<circle cx="120.2" cy="280.1" r="1.45" fill="#2eaf5f" fill-opacity="0.46"/>
<circle cx="95.8" cy="280.9" r="1.45" fill="#2eaf5f" fill-opacity="0.46"/>
<circle cx="98.8" cy="257.5" r="1.45" fill="#2eaf5f" fill-opacity="0.46"/>
<circle cx="101.9" cy="258.1" r="1.45" fill="#2eaf5f" fill-opacity="0.46"/>
<circle cx="104.9" cy="257.8" r="1.45" fill="#2eaf5f" fill-opacity="0.46"/>
<circle cx="108.0" cy="256.6" r="1.45" fill="#2eaf5f" fill-opacity="0.46"/>
<circle cx="111.1" cy="257.9" r="1.45" fill="#2eaf5f" fill-opacity="0.46"/>
<circle cx="114.1" cy="296.7" r="1.45" fill="#2eaf5f" fill-opacity="0.46"/>
<circle cx="117.2" cy="296.4" r="1.45" fill="#2eaf5f" fill-opacity="0.46"/>
<circle cx="120.2" cy="296.7" r="1.45" fill="#2eaf5f" fill-opacity="0.46"/>
<circle cx="95.8" cy="296.7" r="1.45" fill="#2eaf5f" fill-opacity="0.46"/>
<circle cx="98.8" cy="297.1" r="1.45" fill="#2eaf5f" fill-opacity="0.46"/>
<line x1="108.0" y1="256.6" x2="108.0" y2="298.1" stroke="#2eaf5f" stroke-opacity="0.86" stroke-width="1.8"/>
<line x1="95.8" y1="256.6" x2="120.2" y2="256.6" stroke="#2eaf5f" stroke-opacity="0.86" stroke-width="1.8"/>
<line x1="95.8" y1="298.1" x2="120.2" y2="298.1" stroke="#2eaf5f" stroke-opacity="0.86" stroke-width="1.8"/>
<rect x="91.0" y="273.7" width="34.0" height="23.4" rx="2" fill="#2eaf5f" fill-opacity="0.18" stroke="#2eaf5f" stroke-opacity="0.9" stroke-width="1.8"/>
<line x1="91.0" y1="288.6" x2="125.0" y2="288.6" stroke="#2eaf5f" stroke-opacity="0.96" stroke-width="2.6"/>
<text x="131.0" y="292.6" text-anchor="start" font-family="Inter,Segoe UI,Arial,sans-serif" font-size="11" font-weight="700" fill="#111827" stroke="#ffffff" stroke-width="3" paint-order="stroke">488</text>
<circle cx="173.1" cy="297.2" r="1.45" fill="#137a3d" fill-opacity="0.46"/>
<circle cx="176.2" cy="297.5" r="1.45" fill="#137a3d" fill-opacity="0.46"/>
<circle cx="179.2" cy="297.5" r="1.45" fill="#137a3d" fill-opacity="0.46"/>
<circle cx="182.3" cy="296.8" r="1.45" fill="#137a3d" fill-opacity="0.46"/>
<circle cx="185.3" cy="297.6" r="1.45" fill="#137a3d" fill-opacity="0.46"/>
<circle cx="188.4" cy="279.5" r="1.45" fill="#137a3d" fill-opacity="0.46"/>
<circle cx="191.5" cy="279.1" r="1.45" fill="#137a3d" fill-opacity="0.46"/>
<circle cx="194.5" cy="279.6" r="1.45" fill="#137a3d" fill-opacity="0.46"/>
<circle cx="197.6" cy="278.3" r="1.45" fill="#137a3d" fill-opacity="0.46"/>
<circle cx="173.1" cy="279.5" r="1.45" fill="#137a3d" fill-opacity="0.46"/>
<circle cx="176.2" cy="257.4" r="1.45" fill="#137a3d" fill-opacity="0.46"/>
<circle cx="179.2" cy="257.6" r="1.45" fill="#137a3d" fill-opacity="0.46"/>
<circle cx="182.3" cy="257.2" r="1.45" fill="#137a3d" fill-opacity="0.46"/>
<circle cx="185.3" cy="258.5" r="1.45" fill="#137a3d" fill-opacity="0.46"/>
<circle cx="188.4" cy="257.9" r="1.45" fill="#137a3d" fill-opacity="0.46"/>
<circle cx="191.5" cy="297.5" r="1.45" fill="#137a3d" fill-opacity="0.46"/>
<circle cx="194.5" cy="297.3" r="1.45" fill="#137a3d" fill-opacity="0.46"/>
<circle cx="197.6" cy="296.9" r="1.45" fill="#137a3d" fill-opacity="0.46"/>
<circle cx="173.1" cy="297.1" r="1.45" fill="#137a3d" fill-opacity="0.46"/>
<circle cx="176.2" cy="296.8" r="1.45" fill="#137a3d" fill-opacity="0.46"/>
<line x1="185.3" y1="257.2" x2="185.3" y2="297.6" stroke="#137a3d" stroke-opacity="0.86" stroke-width="1.8"/>
<line x1="173.1" y1="257.2" x2="197.6" y2="257.2" stroke="#137a3d" stroke-opacity="0.86" stroke-width="1.8"/>
<line x1="173.1" y1="297.6" x2="197.6" y2="297.6" stroke="#137a3d" stroke-opacity="0.86" stroke-width="1.8"/>
<rect x="168.3" y="273.3" width="34.0" height="23.9" rx="2" fill="#137a3d" fill-opacity="0.18" stroke="#137a3d" stroke-opacity="0.9" stroke-width="1.8"/>
<line x1="168.3" y1="288.2" x2="202.3" y2="288.2" stroke="#137a3d" stroke-opacity="0.96" stroke-width="2.6"/>
<text x="208.3" y="292.2" text-anchor="start" font-family="Inter,Segoe UI,Arial,sans-serif" font-size="11" font-weight="700" fill="#111827" stroke="#ffffff" stroke-width="3" paint-order="stroke">491</text>
<text x="312.0" y="398" text-anchor="middle" font-family="Inter,Segoe UI,Arial,sans-serif" font-size="11" font-weight="700" fill="#111827">long_code</text>
<circle cx="261.1" cy="227.8" r="1.45" fill="#2eaf5f" fill-opacity="0.46"/>
<circle cx="264.2" cy="226.4" r="1.45" fill="#2eaf5f" fill-opacity="0.46"/>
<circle cx="267.2" cy="228.5" r="1.45" fill="#2eaf5f" fill-opacity="0.46"/>
<circle cx="270.3" cy="227.7" r="1.45" fill="#2eaf5f" fill-opacity="0.46"/>
<circle cx="273.3" cy="228.4" r="1.45" fill="#2eaf5f" fill-opacity="0.46"/>
<circle cx="276.4" cy="186.4" r="1.45" fill="#2eaf5f" fill-opacity="0.46"/>
<circle cx="279.5" cy="184.4" r="1.45" fill="#2eaf5f" fill-opacity="0.46"/>
<circle cx="282.5" cy="186.8" r="1.45" fill="#2eaf5f" fill-opacity="0.46"/>
<circle cx="285.6" cy="186.1" r="1.45" fill="#2eaf5f" fill-opacity="0.46"/>
<circle cx="261.1" cy="186.1" r="1.45" fill="#2eaf5f" fill-opacity="0.46"/>
<circle cx="264.2" cy="207.4" r="1.45" fill="#2eaf5f" fill-opacity="0.46"/>
<circle cx="267.2" cy="206.8" r="1.45" fill="#2eaf5f" fill-opacity="0.46"/>
<circle cx="270.3" cy="207.3" r="1.45" fill="#2eaf5f" fill-opacity="0.46"/>
<circle cx="273.3" cy="207.2" r="1.45" fill="#2eaf5f" fill-opacity="0.46"/>
<circle cx="276.4" cy="206.4" r="1.45" fill="#2eaf5f" fill-opacity="0.46"/>
<circle cx="279.5" cy="258.3" r="1.45" fill="#2eaf5f" fill-opacity="0.46"/>
<circle cx="282.5" cy="257.2" r="1.45" fill="#2eaf5f" fill-opacity="0.46"/>
<circle cx="285.6" cy="258.4" r="1.45" fill="#2eaf5f" fill-opacity="0.46"/>
<circle cx="261.1" cy="257.5" r="1.45" fill="#2eaf5f" fill-opacity="0.46"/>
<circle cx="264.2" cy="257.2" r="1.45" fill="#2eaf5f" fill-opacity="0.46"/>
<line x1="273.3" y1="184.4" x2="273.3" y2="258.4" stroke="#2eaf5f" stroke-opacity="0.86" stroke-width="1.8"/>
<line x1="261.1" y1="184.4" x2="285.6" y2="184.4" stroke="#2eaf5f" stroke-opacity="0.86" stroke-width="1.8"/>
<line x1="261.1" y1="258.4" x2="285.6" y2="258.4" stroke="#2eaf5f" stroke-opacity="0.86" stroke-width="1.8"/>
<rect x="256.3" y="201.5" width="34.0" height="34.2" rx="2" fill="#2eaf5f" fill-opacity="0.18" stroke="#2eaf5f" stroke-opacity="0.9" stroke-width="1.8"/>
<line x1="256.3" y1="216.9" x2="290.3" y2="216.9" stroke="#2eaf5f" stroke-opacity="0.96" stroke-width="2.6"/>
<text x="296.3" y="220.9" text-anchor="start" font-family="Inter,Segoe UI,Arial,sans-serif" font-size="11" font-weight="700" fill="#111827" stroke="#ffffff" stroke-width="3" paint-order="stroke">1023</text>
<circle cx="338.4" cy="227.7" r="1.45" fill="#137a3d" fill-opacity="0.46"/>
<circle cx="341.5" cy="228.2" r="1.45" fill="#137a3d" fill-opacity="0.46"/>
<circle cx="344.5" cy="227.2" r="1.45" fill="#137a3d" fill-opacity="0.46"/>
<circle cx="347.6" cy="228.1" r="1.45" fill="#137a3d" fill-opacity="0.46"/>
<circle cx="350.7" cy="227.1" r="1.45" fill="#137a3d" fill-opacity="0.46"/>
<circle cx="353.7" cy="186.6" r="1.45" fill="#137a3d" fill-opacity="0.46"/>
<circle cx="356.8" cy="186.5" r="1.45" fill="#137a3d" fill-opacity="0.46"/>
<circle cx="359.8" cy="186.8" r="1.45" fill="#137a3d" fill-opacity="0.46"/>
<circle cx="362.9" cy="186.7" r="1.45" fill="#137a3d" fill-opacity="0.46"/>
<circle cx="338.4" cy="187.0" r="1.45" fill="#137a3d" fill-opacity="0.46"/>
<circle cx="341.5" cy="206.4" r="1.45" fill="#137a3d" fill-opacity="0.46"/>
<circle cx="344.5" cy="208.0" r="1.45" fill="#137a3d" fill-opacity="0.46"/>
<circle cx="347.6" cy="208.0" r="1.45" fill="#137a3d" fill-opacity="0.46"/>
<circle cx="350.7" cy="207.8" r="1.45" fill="#137a3d" fill-opacity="0.46"/>
<circle cx="353.7" cy="207.2" r="1.45" fill="#137a3d" fill-opacity="0.46"/>
<circle cx="356.8" cy="257.6" r="1.45" fill="#137a3d" fill-opacity="0.46"/>
<circle cx="359.8" cy="257.1" r="1.45" fill="#137a3d" fill-opacity="0.46"/>
<circle cx="362.9" cy="256.9" r="1.45" fill="#137a3d" fill-opacity="0.46"/>
<circle cx="338.4" cy="257.7" r="1.45" fill="#137a3d" fill-opacity="0.46"/>
<circle cx="341.5" cy="257.8" r="1.45" fill="#137a3d" fill-opacity="0.46"/>
<line x1="350.7" y1="186.5" x2="350.7" y2="257.8" stroke="#137a3d" stroke-opacity="0.86" stroke-width="1.8"/>
<line x1="338.4" y1="186.5" x2="362.9" y2="186.5" stroke="#137a3d" stroke-opacity="0.86" stroke-width="1.8"/>
<line x1="338.4" y1="257.8" x2="362.9" y2="257.8" stroke="#137a3d" stroke-opacity="0.86" stroke-width="1.8"/>
<rect x="333.7" y="201.6" width="34.0" height="33.8" rx="2" fill="#137a3d" fill-opacity="0.18" stroke="#137a3d" stroke-opacity="0.9" stroke-width="1.8"/>
<line x1="333.7" y1="217.6" x2="367.7" y2="217.6" stroke="#137a3d" stroke-opacity="0.96" stroke-width="2.6"/>
<text x="373.7" y="221.6" text-anchor="start" font-family="Inter,Segoe UI,Arial,sans-serif" font-size="11" font-weight="700" fill="#111827" stroke="#ffffff" stroke-width="3" paint-order="stroke">1018</text>
<text x="477.3" y="398" text-anchor="middle" font-family="Inter,Segoe UI,Arial,sans-serif" font-size="11" font-weight="700" fill="#111827">python_modules_long</text>
<circle cx="426.4" cy="292.4" r="1.45" fill="#2eaf5f" fill-opacity="0.46"/>
<circle cx="429.5" cy="292.4" r="1.45" fill="#2eaf5f" fill-opacity="0.46"/>
<circle cx="432.5" cy="292.4" r="1.45" fill="#2eaf5f" fill-opacity="0.46"/>
<circle cx="435.6" cy="277.4" r="1.45" fill="#2eaf5f" fill-opacity="0.46"/>
<circle cx="438.7" cy="292.6" r="1.45" fill="#2eaf5f" fill-opacity="0.46"/>
<circle cx="441.7" cy="290.6" r="1.45" fill="#2eaf5f" fill-opacity="0.46"/>
<circle cx="444.8" cy="285.1" r="1.45" fill="#2eaf5f" fill-opacity="0.46"/>
<circle cx="447.8" cy="290.8" r="1.45" fill="#2eaf5f" fill-opacity="0.46"/>
<circle cx="450.9" cy="290.9" r="1.45" fill="#2eaf5f" fill-opacity="0.46"/>
<circle cx="426.4" cy="290.6" r="1.45" fill="#2eaf5f" fill-opacity="0.46"/>
<circle cx="429.5" cy="282.0" r="1.45" fill="#2eaf5f" fill-opacity="0.46"/>
<circle cx="432.5" cy="282.2" r="1.45" fill="#2eaf5f" fill-opacity="0.46"/>
<circle cx="435.6" cy="282.1" r="1.45" fill="#2eaf5f" fill-opacity="0.46"/>
<circle cx="438.7" cy="282.1" r="1.45" fill="#2eaf5f" fill-opacity="0.46"/>
<circle cx="441.7" cy="282.4" r="1.45" fill="#2eaf5f" fill-opacity="0.46"/>
<line x1="438.7" y1="277.4" x2="438.7" y2="292.6" stroke="#2eaf5f" stroke-opacity="0.86" stroke-width="1.8"/>
<line x1="426.4" y1="277.4" x2="450.9" y2="277.4" stroke="#2eaf5f" stroke-opacity="0.86" stroke-width="1.8"/>
<line x1="426.4" y1="292.6" x2="450.9" y2="292.6" stroke="#2eaf5f" stroke-opacity="0.86" stroke-width="1.8"/>
<rect x="421.7" y="282.1" width="34.0" height="9.5" rx="2" fill="#2eaf5f" fill-opacity="0.18" stroke="#2eaf5f" stroke-opacity="0.9" stroke-width="1.8"/>
<line x1="421.7" y1="290.6" x2="455.7" y2="290.6" stroke="#2eaf5f" stroke-opacity="0.96" stroke-width="2.6"/>
<text x="461.7" y="294.6" text-anchor="start" font-family="Inter,Segoe UI,Arial,sans-serif" font-size="11" font-weight="700" fill="#111827" stroke="#ffffff" stroke-width="3" paint-order="stroke">473</text>
<circle cx="503.8" cy="292.6" r="1.45" fill="#137a3d" fill-opacity="0.46"/>
<circle cx="506.8" cy="292.6" r="1.45" fill="#137a3d" fill-opacity="0.46"/>
<circle cx="509.9" cy="292.4" r="1.45" fill="#137a3d" fill-opacity="0.46"/>
<circle cx="512.9" cy="292.5" r="1.45" fill="#137a3d" fill-opacity="0.46"/>
<circle cx="516.0" cy="292.6" r="1.45" fill="#137a3d" fill-opacity="0.46"/>
<circle cx="519.1" cy="290.9" r="1.45" fill="#137a3d" fill-opacity="0.46"/>
<circle cx="522.1" cy="290.8" r="1.45" fill="#137a3d" fill-opacity="0.46"/>
<circle cx="525.2" cy="290.8" r="1.45" fill="#137a3d" fill-opacity="0.46"/>
<circle cx="528.2" cy="290.8" r="1.45" fill="#137a3d" fill-opacity="0.46"/>
<circle cx="503.8" cy="290.7" r="1.45" fill="#137a3d" fill-opacity="0.46"/>
<circle cx="506.8" cy="278.6" r="1.45" fill="#137a3d" fill-opacity="0.46"/>
<circle cx="509.9" cy="282.3" r="1.45" fill="#137a3d" fill-opacity="0.46"/>
<circle cx="512.9" cy="282.3" r="1.45" fill="#137a3d" fill-opacity="0.46"/>
<circle cx="516.0" cy="282.4" r="1.45" fill="#137a3d" fill-opacity="0.46"/>
<circle cx="519.1" cy="282.4" r="1.45" fill="#137a3d" fill-opacity="0.46"/>
<line x1="516.0" y1="278.6" x2="516.0" y2="292.6" stroke="#137a3d" stroke-opacity="0.86" stroke-width="1.8"/>
<line x1="503.8" y1="278.6" x2="528.2" y2="278.6" stroke="#137a3d" stroke-opacity="0.86" stroke-width="1.8"/>
<line x1="503.8" y1="292.6" x2="528.2" y2="292.6" stroke="#137a3d" stroke-opacity="0.86" stroke-width="1.8"/>
<rect x="499.0" y="282.4" width="34.0" height="10.1" rx="2" fill="#137a3d" fill-opacity="0.18" stroke="#137a3d" stroke-opacity="0.9" stroke-width="1.8"/>
<line x1="499.0" y1="290.8" x2="533.0" y2="290.8" stroke="#137a3d" stroke-opacity="0.96" stroke-width="2.6"/>
<text x="539.0" y="294.8" text-anchor="start" font-family="Inter,Segoe UI,Arial,sans-serif" font-size="11" font-weight="700" fill="#111827" stroke="#ffffff" stroke-width="3" paint-order="stroke">472</text>
<rect x="64.0" y="433" width="10" height="10" rx="2" fill="#2eaf5f" fill-opacity="0.72"/>
<text x="78.0" y="442" font-family="Inter,Segoe UI,Arial,sans-serif" font-size="10" fill="#374151">AX assistant MTP</text>
<rect x="312.0" y="433" width="10" height="10" rx="2" fill="#137a3d" fill-opacity="0.72"/>
<text x="326.0" y="442" font-family="Inter,Segoe UI,Arial,sans-serif" font-size="10" fill="#374151">AX assistant MTP+n-gram</text>
</svg>
