<svg xmlns="http://www.w3.org/2000/svg" width="800" height="430" viewBox="0 0 800 430" role="img" aria-labelledby="title desc"><title>Gemma 4 — TTFT</title><desc>Grouped box-and-whisker plot comparing llama.cpp b9910, mlx-lm 0.31.3, AX Engine v6.8.2 (2026-07-11) at 128/512/2048 prompt tokens for Gemma 4 models. The x-axis is grouped by prompt-token count, with engines nested inside each group. Within each prompt-token group, the best median value label is red.</desc><rect width="800" height="430" fill="#f8fafc"/><text x="64" y="24" font-family="Inter,Segoe UI,Arial,sans-serif" font-size="16" font-weight="700" fill="#111827">Gemma 4 — TTFT</text><text x="64" y="46" font-family="Inter,Segoe UI,Arial,sans-serif" font-size="11" fill="#4b5563">grouped by prompt tokens | box=IQR | whiskers=min/max | dots=runs</text><text x="64" y="62" font-family="Inter,Segoe UI,Arial,sans-serif" font-size="10" fill="#6b7280">llama.cpp b9910 · mlx-lm 0.31.3 · AX Engine v6.8.2 (2026-07-11)</text><rect x="718" y="13" width="48" height="22" rx="11" fill="#eef2ff" stroke="#c7d2fe"/><text x="742.0" y="28" text-anchor="middle" font-family="Inter,Segoe UI,Arial,sans-serif" font-size="10" font-weight="700" fill="#3730a3">ms</text><text x="766" y="52" text-anchor="end" font-family="Inter,Segoe UI,Arial,sans-serif" font-size="10" font-weight="700" fill="#dc2626">Lower is better</text><rect x="64" y="86" width="576" height="230" rx="6" fill="#ffffff" stroke="#dbe3ef"/><line x1="64" y1="316.0" x2="640" y2="316.0" stroke="#e5e7eb" stroke-width="1"/><text x="56" y="319.0" text-anchor="end" font-family="Inter,Segoe UI,Arial,sans-serif" font-size="11" fill="#6b7280">0</text><line x1="64" y1="258.5" x2="640" y2="258.5" stroke="#e5e7eb" stroke-width="1"/><text x="56" y="261.5" text-anchor="end" font-family="Inter,Segoe UI,Arial,sans-serif" font-size="11" fill="#6b7280">3.8k</text><line x1="64" y1="201.0" x2="640" y2="201.0" stroke="#e5e7eb" stroke-width="1"/><text x="56" y="204.0" text-anchor="end" font-family="Inter,Segoe UI,Arial,sans-serif" font-size="11" fill="#6b7280">7.5k</text><line x1="64" y1="143.5" x2="640" y2="143.5" stroke="#e5e7eb" stroke-width="1"/><text x="56" y="146.5" text-anchor="end" font-family="Inter,Segoe UI,Arial,sans-serif" font-size="11" fill="#6b7280">11.2k</text><line x1="64" y1="86.0" x2="640" y2="86.0" stroke="#e5e7eb" stroke-width="1"/><text x="56" y="89.0" text-anchor="end" font-family="Inter,Segoe UI,Arial,sans-serif" font-size="11" fill="#6b7280">15k</text><line x1="106" y1="312.1" x2="106" y2="315.5" stroke="#f97316" stroke-opacity="0.9" stroke-width="1.7"/><line x1="99.52" y1="312.1" x2="112.48" y2="312.1" stroke="#f97316" stroke-opacity="0.9" stroke-width="1.7"/><line x1="99.52" y1="315.5" x2="112.48" y2="315.5" stroke="#f97316" stroke-opacity="0.9" stroke-width="1.7"/><rect x="97" y="313.6" width="18" height="1.7" rx="2" fill="#f97316" fill-opacity="0.26" stroke="#f97316" stroke-opacity="0.9" stroke-width="1.7"/><line x1="97" y1="315.0" x2="115" y2="315.0" stroke="#f97316" stroke-opacity="0.9" stroke-width="2.4"/><text x="119" y="318.5" text-anchor="start" font-family="Inter,Segoe UI,Arial,sans-serif" font-size="9" font-weight="700" fill="#dc2626" stroke="#ffffff" stroke-width="3" paint-order="stroke">67.8</text><circle cx="103" cy="315.5" r="1.4" fill="#c2410c" fill-opacity="0.82"/><circle cx="104.5" cy="315.5" r="1.4" fill="#c2410c" fill-opacity="0.82"/><circle cx="106" cy="315.1" r="1.4" fill="#c2410c" fill-opacity="0.82"/><circle cx="107.5" cy="315.0" r="1.4" fill="#c2410c" fill-opacity="0.82"/><circle cx="109" cy="314.8" r="1.4" fill="#c2410c" fill-opacity="0.82"/><circle cx="103" cy="312.3" r="1.4" fill="#c2410c" fill-opacity="0.82"/><circle cx="104.5" cy="312.1" r="1.4" fill="#c2410c" fill-opacity="0.82"/><line x1="160" y1="309.0" x2="160" y2="315.2" stroke="#f2b705" stroke-opacity="0.9" stroke-width="1.7"/><line x1="153.52" y1="309.0" x2="166.48" y2="309.0" stroke="#f2b705" stroke-opacity="0.9" stroke-width="1.7"/><line x1="153.52" y1="315.2" x2="166.48" y2="315.2" stroke="#f2b705" stroke-opacity="0.9" stroke-width="1.7"/><rect x="151" y="310.6" width="18" height="4.3" rx="2" fill="#f2b705" fill-opacity="0.26" stroke="#f2b705" stroke-opacity="0.9" stroke-width="1.7"/><line x1="151" y1="312.6" x2="169" y2="312.6" stroke="#f2b705" stroke-opacity="0.9" stroke-width="2.4"/><text x="173" y="316.1" text-anchor="start" font-family="Inter,Segoe UI,Arial,sans-serif" font-size="9" font-weight="700" fill="#111827" stroke="#ffffff" stroke-width="3" paint-order="stroke">222.8</text><circle cx="157" cy="315.2" r="1.4" fill="#9a6a00" fill-opacity="0.82"/><circle cx="158.5" cy="314.9" r="1.4" fill="#9a6a00" fill-opacity="0.82"/><circle cx="160" cy="314.7" r="1.4" fill="#9a6a00" fill-opacity="0.82"/><circle cx="161.5" cy="312.0" r="1.4" fill="#9a6a00" fill-opacity="0.82"/><circle cx="163" cy="309.1" r="1.4" fill="#9a6a00" fill-opacity="0.82"/><circle cx="157" cy="312.6" r="1.4" fill="#9a6a00" fill-opacity="0.82"/><circle cx="158.5" cy="309.0" r="1.4" fill="#9a6a00" fill-opacity="0.82"/><line x1="214" y1="302.1" x2="214" y2="315.4" stroke="#2eaf5f" stroke-opacity="0.9" stroke-width="1.7"/><line x1="207.52" y1="302.1" x2="220.48" y2="302.1" stroke="#2eaf5f" stroke-opacity="0.9" stroke-width="1.7"/><line x1="207.52" y1="315.4" x2="220.48" y2="315.4" stroke="#2eaf5f" stroke-opacity="0.9" stroke-width="1.7"/><rect x="205" y="307.9" width="18" height="7.1" rx="2" fill="#2eaf5f" fill-opacity="0.26" stroke="#2eaf5f" stroke-opacity="0.9" stroke-width="1.7"/><line x1="205" y1="312.7" x2="223" y2="312.7" stroke="#2eaf5f" stroke-opacity="0.9" stroke-width="2.4"/><text x="227" y="316.2" text-anchor="start" font-family="Inter,Segoe UI,Arial,sans-serif" font-size="9" font-weight="700" fill="#111827" stroke="#ffffff" stroke-width="3" paint-order="stroke">213.4</text><circle cx="211" cy="315.1" r="1.4" fill="#176c37" fill-opacity="0.82"/><circle cx="212.5" cy="314.9" r="1.4" fill="#176c37" fill-opacity="0.82"/><circle cx="214" cy="315.4" r="1.4" fill="#176c37" fill-opacity="0.82"/><circle cx="215.5" cy="312.7" r="1.4" fill="#176c37" fill-opacity="0.82"/><circle cx="217" cy="312.2" r="1.4" fill="#176c37" fill-opacity="0.82"/><circle cx="211" cy="303.6" r="1.4" fill="#176c37" fill-opacity="0.82"/><circle cx="212.5" cy="302.1" r="1.4" fill="#176c37" fill-opacity="0.82"/><text x="160" y="336" text-anchor="middle" font-family="Inter,Segoe UI,Arial,sans-serif" font-size="11" font-weight="700" fill="#111827">128 tok</text><line x1="298" y1="304.1" x2="298" y2="314.9" stroke="#f97316" stroke-opacity="0.9" stroke-width="1.7"/><line x1="291.52" y1="304.1" x2="304.48" y2="304.1" stroke="#f97316" stroke-opacity="0.9" stroke-width="1.7"/><line x1="291.52" y1="314.9" x2="304.48" y2="314.9" stroke="#f97316" stroke-opacity="0.9" stroke-width="1.7"/><rect x="289" y="308.9" width="18" height="5.6" rx="2" fill="#f97316" fill-opacity="0.26" stroke="#f97316" stroke-opacity="0.9" stroke-width="1.7"/><line x1="289" y1="313.7" x2="307" y2="313.7" stroke="#f97316" stroke-opacity="0.9" stroke-width="2.4"/><text x="311" y="317.2" text-anchor="start" font-family="Inter,Segoe UI,Arial,sans-serif" font-size="9" font-weight="700" fill="#dc2626" stroke="#ffffff" stroke-width="3" paint-order="stroke">148.9</text><circle cx="295" cy="314.9" r="1.4" fill="#c2410c" fill-opacity="0.82"/><circle cx="296.5" cy="314.9" r="1.4" fill="#c2410c" fill-opacity="0.82"/><circle cx="298" cy="314.1" r="1.4" fill="#c2410c" fill-opacity="0.82"/><circle cx="299.5" cy="313.7" r="1.4" fill="#c2410c" fill-opacity="0.82"/><circle cx="301" cy="313.5" r="1.4" fill="#c2410c" fill-opacity="0.82"/><circle cx="295" cy="304.2" r="1.4" fill="#c2410c" fill-opacity="0.82"/><circle cx="296.5" cy="304.1" r="1.4" fill="#c2410c" fill-opacity="0.82"/><line x1="352" y1="301.5" x2="352" y2="315.0" stroke="#f2b705" stroke-opacity="0.9" stroke-width="1.7"/><line x1="345.52" y1="301.5" x2="358.48" y2="301.5" stroke="#f2b705" stroke-opacity="0.9" stroke-width="1.7"/><line x1="345.52" y1="315.0" x2="358.48" y2="315.0" stroke="#f2b705" stroke-opacity="0.9" stroke-width="1.7"/><rect x="343" y="307.2" width="18" height="7.2" rx="2" fill="#f2b705" fill-opacity="0.26" stroke="#f2b705" stroke-opacity="0.9" stroke-width="1.7"/><line x1="343" y1="311.5" x2="361" y2="311.5" stroke="#f2b705" stroke-opacity="0.9" stroke-width="2.4"/><text x="365" y="315.0" text-anchor="start" font-family="Inter,Segoe UI,Arial,sans-serif" font-size="9" font-weight="700" fill="#111827" stroke="#ffffff" stroke-width="3" paint-order="stroke">296.0</text><circle cx="349" cy="315.0" r="1.4" fill="#9a6a00" fill-opacity="0.82"/><circle cx="350.5" cy="314.7" r="1.4" fill="#9a6a00" fill-opacity="0.82"/><circle cx="352" cy="314.1" r="1.4" fill="#9a6a00" fill-opacity="0.82"/><circle cx="353.5" cy="311.2" r="1.4" fill="#9a6a00" fill-opacity="0.82"/><circle cx="355" cy="303.3" r="1.4" fill="#9a6a00" fill-opacity="0.82"/><circle cx="349" cy="311.5" r="1.4" fill="#9a6a00" fill-opacity="0.82"/><circle cx="350.5" cy="301.5" r="1.4" fill="#9a6a00" fill-opacity="0.82"/><line x1="406" y1="275.6" x2="406" y2="314.9" stroke="#2eaf5f" stroke-opacity="0.9" stroke-width="1.7"/><line x1="399.52" y1="275.6" x2="412.48" y2="275.6" stroke="#2eaf5f" stroke-opacity="0.9" stroke-width="1.7"/><line x1="399.52" y1="314.9" x2="412.48" y2="314.9" stroke="#2eaf5f" stroke-opacity="0.9" stroke-width="1.7"/><rect x="397" y="293.2" width="18" height="21.1" rx="2" fill="#2eaf5f" fill-opacity="0.26" stroke="#2eaf5f" stroke-opacity="0.9" stroke-width="1.7"/><line x1="397" y1="309.5" x2="415" y2="309.5" stroke="#2eaf5f" stroke-opacity="0.9" stroke-width="2.4"/><text x="419" y="313.0" text-anchor="start" font-family="Inter,Segoe UI,Arial,sans-serif" font-size="9" font-weight="700" fill="#111827" stroke="#ffffff" stroke-width="3" paint-order="stroke">422.7</text><circle cx="403" cy="314.4" r="1.4" fill="#176c37" fill-opacity="0.82"/><circle cx="404.5" cy="314.3" r="1.4" fill="#176c37" fill-opacity="0.82"/><circle cx="406" cy="314.9" r="1.4" fill="#176c37" fill-opacity="0.82"/><circle cx="407.5" cy="309.5" r="1.4" fill="#176c37" fill-opacity="0.82"/><circle cx="409" cy="308.9" r="1.4" fill="#176c37" fill-opacity="0.82"/><circle cx="403" cy="277.5" r="1.4" fill="#176c37" fill-opacity="0.82"/><circle cx="404.5" cy="275.6" r="1.4" fill="#176c37" fill-opacity="0.82"/><text x="352" y="336" text-anchor="middle" font-family="Inter,Segoe UI,Arial,sans-serif" font-size="11" font-weight="700" fill="#111827">512 tok</text><line x1="490" y1="260.8" x2="490" y2="311.7" stroke="#f97316" stroke-opacity="0.9" stroke-width="1.7"/><line x1="483.52" y1="260.8" x2="496.48" y2="260.8" stroke="#f97316" stroke-opacity="0.9" stroke-width="1.7"/><line x1="483.52" y1="311.7" x2="496.48" y2="311.7" stroke="#f97316" stroke-opacity="0.9" stroke-width="1.7"/><rect x="481" y="284.2" width="18" height="25.8" rx="2" fill="#f97316" fill-opacity="0.26" stroke="#f97316" stroke-opacity="0.9" stroke-width="1.7"/><line x1="481" y1="307.1" x2="499" y2="307.1" stroke="#f97316" stroke-opacity="0.9" stroke-width="2.4"/><text x="503" y="310.6" text-anchor="start" font-family="Inter,Segoe UI,Arial,sans-serif" font-size="9" font-weight="700" fill="#dc2626" stroke="#ffffff" stroke-width="3" paint-order="stroke">581.1</text><circle cx="487" cy="311.6" r="1.4" fill="#c2410c" fill-opacity="0.82"/><circle cx="488.5" cy="311.7" r="1.4" fill="#c2410c" fill-opacity="0.82"/><circle cx="490" cy="308.5" r="1.4" fill="#c2410c" fill-opacity="0.82"/><circle cx="491.5" cy="307.1" r="1.4" fill="#c2410c" fill-opacity="0.82"/><circle cx="493" cy="306.6" r="1.4" fill="#c2410c" fill-opacity="0.82"/><circle cx="487" cy="261.8" r="1.4" fill="#c2410c" fill-opacity="0.82"/><circle cx="488.5" cy="260.8" r="1.4" fill="#c2410c" fill-opacity="0.82"/><line x1="544" y1="269.6" x2="544" y2="314.3" stroke="#f2b705" stroke-opacity="0.9" stroke-width="1.7"/><line x1="537.52" y1="269.6" x2="550.48" y2="269.6" stroke="#f2b705" stroke-opacity="0.9" stroke-width="1.7"/><line x1="537.52" y1="314.3" x2="550.48" y2="314.3" stroke="#f2b705" stroke-opacity="0.9" stroke-width="1.7"/><rect x="535" y="289.8" width="18" height="23.0" rx="2" fill="#f2b705" fill-opacity="0.26" stroke="#f2b705" stroke-opacity="0.9" stroke-width="1.7"/><line x1="535" y1="306.8" x2="553" y2="306.8" stroke="#f2b705" stroke-opacity="0.9" stroke-width="2.4"/><text x="557" y="310.3" text-anchor="start" font-family="Inter,Segoe UI,Arial,sans-serif" font-size="9" font-weight="700" fill="#111827" stroke="#ffffff" stroke-width="3" paint-order="stroke">600.4</text><circle cx="541" cy="314.3" r="1.4" fill="#9a6a00" fill-opacity="0.82"/><circle cx="542.5" cy="314.0" r="1.4" fill="#9a6a00" fill-opacity="0.82"/><circle cx="544" cy="311.7" r="1.4" fill="#9a6a00" fill-opacity="0.82"/><circle cx="545.5" cy="306.5" r="1.4" fill="#9a6a00" fill-opacity="0.82"/><circle cx="547" cy="273.2" r="1.4" fill="#9a6a00" fill-opacity="0.82"/><circle cx="541" cy="306.8" r="1.4" fill="#9a6a00" fill-opacity="0.82"/><circle cx="542.5" cy="269.6" r="1.4" fill="#9a6a00" fill-opacity="0.82"/><line x1="598" y1="163.1" x2="598" y2="312.4" stroke="#2eaf5f" stroke-opacity="0.9" stroke-width="1.7"/><line x1="591.52" y1="163.1" x2="604.48" y2="163.1" stroke="#2eaf5f" stroke-opacity="0.9" stroke-width="1.7"/><line x1="591.52" y1="312.4" x2="604.48" y2="312.4" stroke="#2eaf5f" stroke-opacity="0.9" stroke-width="1.7"/><rect x="589" y="230.6" width="18" height="81.1" rx="2" fill="#2eaf5f" fill-opacity="0.26" stroke="#2eaf5f" stroke-opacity="0.9" stroke-width="1.7"/><line x1="589" y1="295.8" x2="607" y2="295.8" stroke="#2eaf5f" stroke-opacity="0.9" stroke-width="2.4"/><text x="611" y="299.3" text-anchor="start" font-family="Inter,Segoe UI,Arial,sans-serif" font-size="9" font-weight="700" fill="#111827" stroke="#ffffff" stroke-width="3" paint-order="stroke">1.3k</text><circle cx="595" cy="311.8" r="1.4" fill="#176c37" fill-opacity="0.82"/><circle cx="596.5" cy="311.6" r="1.4" fill="#176c37" fill-opacity="0.82"/><circle cx="598" cy="312.4" r="1.4" fill="#176c37" fill-opacity="0.82"/><circle cx="599.5" cy="295.8" r="1.4" fill="#176c37" fill-opacity="0.82"/><circle cx="601" cy="294.8" r="1.4" fill="#176c37" fill-opacity="0.82"/><circle cx="595" cy="166.5" r="1.4" fill="#176c37" fill-opacity="0.82"/><circle cx="596.5" cy="163.1" r="1.4" fill="#176c37" fill-opacity="0.82"/><text x="544" y="336" text-anchor="middle" font-family="Inter,Segoe UI,Arial,sans-serif" font-size="11" font-weight="700" fill="#111827">2048 tok</text><rect x="64" y="363" width="10" height="10" rx="2" fill="#f97316" fill-opacity="0.5" stroke="#f97316" stroke-width="1.4"/><text x="78" y="372" font-family="Inter,Segoe UI,Arial,sans-serif" font-size="10" fill="#374151">llama.cpp b9910</text><rect x="234" y="363" width="10" height="10" rx="2" fill="#f2b705" fill-opacity="0.5" stroke="#f2b705" stroke-width="1.4"/><text x="248" y="372" font-family="Inter,Segoe UI,Arial,sans-serif" font-size="10" fill="#374151">mlx-lm 0.31.3</text><rect x="404" y="363" width="10" height="10" rx="2" fill="#2eaf5f" fill-opacity="0.5" stroke="#2eaf5f" stroke-width="1.4"/><text x="418" y="372" font-family="Inter,Segoe UI,Arial,sans-serif" font-size="10" fill="#374151">AX Engine v6.8.2 (2026-07-11)</text></svg>
