<svg xmlns="http://www.w3.org/2000/svg" width="900" height="460" viewBox="0 0 900 460" role="img" aria-labelledby="title desc">
<title>Qwen3.6 27B 4-bit MTP accept rate</title>
<desc>Grouped box-and-whisker plot comparing MTPLX 0.3.7, Light. MTP, Light. ngram+MTP, AX MTP, AX MTP+n-gram across all suites.</desc>
<rect width="100%" height="100%" fill="#f8fafc"/>
<text x="24" y="24" font-family="Inter,Segoe UI,Arial,sans-serif" font-size="16" font-weight="700" fill="#111827">Qwen3.6 27B 4-bit MTP accept rate</text>
<text x="24" y="46" font-family="Inter,Segoe UI,Arial,sans-serif" font-size="11" fill="#4b5563">All suites combined | accepted/drafted | box=IQR | dots=runs</text>
<rect x="818" y="13" width="48" height="22" rx="11" fill="#eef2ff" stroke="#c7d2fe"/>
<text x="842.0" y="28" text-anchor="middle" font-family="Inter,Segoe UI,Arial,sans-serif" font-size="10" font-weight="700" fill="#3730a3">%</text>
<text x="866" y="52" text-anchor="end" font-family="Inter,Segoe UI,Arial,sans-serif" font-size="10" font-weight="700" fill="#374151">Higher is better</text>
<rect x="64" y="86" width="676" height="268" rx="6" fill="#ffffff" stroke="#dbe3ef"/>
<line x1="64" y1="354.0" x2="740" y2="354.0" stroke="#e5e7eb" stroke-width="1"/>
<text x="56" y="357.0" text-anchor="end" font-family="Inter,Segoe UI,Arial,sans-serif" font-size="11" fill="#6b7280">0%</text>
<line x1="64" y1="287.0" x2="740" y2="287.0" stroke="#e5e7eb" stroke-width="1"/>
<text x="56" y="290.0" text-anchor="end" font-family="Inter,Segoe UI,Arial,sans-serif" font-size="11" fill="#6b7280">25%</text>
<line x1="64" y1="220.0" x2="740" y2="220.0" stroke="#e5e7eb" stroke-width="1"/>
<text x="56" y="223.0" text-anchor="end" font-family="Inter,Segoe UI,Arial,sans-serif" font-size="11" fill="#6b7280">50%</text>
<line x1="64" y1="153.0" x2="740" y2="153.0" stroke="#e5e7eb" stroke-width="1"/>
<text x="56" y="156.0" text-anchor="end" font-family="Inter,Segoe UI,Arial,sans-serif" font-size="11" fill="#6b7280">75%</text>
<line x1="64" y1="86.0" x2="740" y2="86.0" stroke="#e5e7eb" stroke-width="1"/>
<text x="56" y="89.0" text-anchor="end" font-family="Inter,Segoe UI,Arial,sans-serif" font-size="11" fill="#6b7280">100%</text>
<line x1="64" y1="87.1" x2="740" y2="87.1" stroke="#dc2626" stroke-width="1.2" stroke-dasharray="1 4" stroke-linecap="round"/>
<text x="748" y="97.0" text-anchor="start" font-family="Inter,Segoe UI,Arial,sans-serif" font-size="11" font-weight="700" fill="#dc2626" data-label="highest median">highest: 99.6%</text>
<text x="402.0" y="398" text-anchor="middle" font-family="Inter,Segoe UI,Arial,sans-serif" font-size="11" font-weight="700" fill="#111827">all suites</text>
<circle cx="127.8" cy="86.0" r="1.45" fill="#14532d" fill-opacity="0.46"/>
<circle cx="130.8" cy="86.0" r="1.45" fill="#14532d" fill-opacity="0.46"/>
<circle cx="133.9" cy="86.0" r="1.45" fill="#14532d" fill-opacity="0.46"/>
<circle cx="136.9" cy="86.0" r="1.45" fill="#14532d" fill-opacity="0.46"/>
<circle cx="140.0" cy="86.0" r="1.45" fill="#14532d" fill-opacity="0.46"/>
<circle cx="143.1" cy="89.1" r="1.45" fill="#14532d" fill-opacity="0.46"/>
<circle cx="146.1" cy="92.6" r="1.45" fill="#14532d" fill-opacity="0.46"/>
<circle cx="149.2" cy="89.1" r="1.45" fill="#14532d" fill-opacity="0.46"/>
<circle cx="152.2" cy="95.6" r="1.45" fill="#14532d" fill-opacity="0.46"/>
<circle cx="127.8" cy="96.6" r="1.45" fill="#14532d" fill-opacity="0.46"/>
<circle cx="130.8" cy="86.0" r="1.45" fill="#14532d" fill-opacity="0.46"/>
<circle cx="133.9" cy="86.0" r="1.45" fill="#14532d" fill-opacity="0.46"/>
<circle cx="136.9" cy="86.0" r="1.45" fill="#14532d" fill-opacity="0.46"/>
<circle cx="140.0" cy="86.0" r="1.45" fill="#14532d" fill-opacity="0.46"/>
<circle cx="143.1" cy="86.0" r="1.45" fill="#14532d" fill-opacity="0.46"/>
<circle cx="146.1" cy="86.0" r="1.45" fill="#14532d" fill-opacity="0.46"/>
<circle cx="149.2" cy="86.0" r="1.45" fill="#14532d" fill-opacity="0.46"/>
<circle cx="152.2" cy="86.0" r="1.45" fill="#14532d" fill-opacity="0.46"/>
<circle cx="127.8" cy="86.0" r="1.45" fill="#14532d" fill-opacity="0.46"/>
<circle cx="130.8" cy="86.0" r="1.45" fill="#14532d" fill-opacity="0.46"/>
<circle cx="133.9" cy="86.0" r="1.45" fill="#14532d" fill-opacity="0.46"/>
<circle cx="136.9" cy="86.4" r="1.45" fill="#14532d" fill-opacity="0.46"/>
<circle cx="140.0" cy="86.0" r="1.45" fill="#14532d" fill-opacity="0.46"/>
<circle cx="143.1" cy="86.0" r="1.45" fill="#14532d" fill-opacity="0.46"/>
<circle cx="146.1" cy="86.0" r="1.45" fill="#14532d" fill-opacity="0.46"/>
<circle cx="149.2" cy="88.5" r="1.45" fill="#14532d" fill-opacity="0.46"/>
<circle cx="152.2" cy="90.2" r="1.45" fill="#14532d" fill-opacity="0.46"/>
<circle cx="127.8" cy="87.4" r="1.45" fill="#14532d" fill-opacity="0.46"/>
<circle cx="130.8" cy="87.4" r="1.45" fill="#14532d" fill-opacity="0.46"/>
<circle cx="133.9" cy="89.2" r="1.45" fill="#14532d" fill-opacity="0.46"/>
<circle cx="136.9" cy="87.1" r="1.45" fill="#14532d" fill-opacity="0.46"/>
<circle cx="140.0" cy="87.1" r="1.45" fill="#14532d" fill-opacity="0.46"/>
<circle cx="143.1" cy="87.1" r="1.45" fill="#14532d" fill-opacity="0.46"/>
<circle cx="146.1" cy="88.5" r="1.45" fill="#14532d" fill-opacity="0.46"/>
<circle cx="149.2" cy="87.1" r="1.45" fill="#14532d" fill-opacity="0.46"/>
<circle cx="152.2" cy="86.0" r="1.45" fill="#14532d" fill-opacity="0.46"/>
<circle cx="127.8" cy="86.0" r="1.45" fill="#14532d" fill-opacity="0.46"/>
<circle cx="130.8" cy="86.0" r="1.45" fill="#14532d" fill-opacity="0.46"/>
<circle cx="133.9" cy="86.0" r="1.45" fill="#14532d" fill-opacity="0.46"/>
<circle cx="136.9" cy="86.0" r="1.45" fill="#14532d" fill-opacity="0.46"/>
<circle cx="140.0" cy="136.3" r="1.45" fill="#14532d" fill-opacity="0.46"/>
<circle cx="143.1" cy="129.1" r="1.45" fill="#14532d" fill-opacity="0.46"/>
<circle cx="146.1" cy="131.6" r="1.45" fill="#14532d" fill-opacity="0.46"/>
<circle cx="149.2" cy="131.3" r="1.45" fill="#14532d" fill-opacity="0.46"/>
<circle cx="152.2" cy="128.5" r="1.45" fill="#14532d" fill-opacity="0.46"/>
<circle cx="127.8" cy="117.6" r="1.45" fill="#14532d" fill-opacity="0.46"/>
<circle cx="130.8" cy="124.9" r="1.45" fill="#14532d" fill-opacity="0.46"/>
<circle cx="133.9" cy="116.4" r="1.45" fill="#14532d" fill-opacity="0.46"/>
<circle cx="136.9" cy="122.0" r="1.45" fill="#14532d" fill-opacity="0.46"/>
<circle cx="140.0" cy="115.5" r="1.45" fill="#14532d" fill-opacity="0.46"/>
<circle cx="143.1" cy="108.4" r="1.45" fill="#14532d" fill-opacity="0.46"/>
<circle cx="146.1" cy="115.8" r="1.45" fill="#14532d" fill-opacity="0.46"/>
<circle cx="149.2" cy="104.9" r="1.45" fill="#14532d" fill-opacity="0.46"/>
<circle cx="152.2" cy="99.4" r="1.45" fill="#14532d" fill-opacity="0.46"/>
<circle cx="127.8" cy="110.0" r="1.45" fill="#14532d" fill-opacity="0.46"/>
<line x1="140.0" y1="86.0" x2="140.0" y2="136.3" stroke="#14532d" stroke-opacity="0.86" stroke-width="1.8"/>
<line x1="127.8" y1="86.0" x2="152.2" y2="86.0" stroke="#14532d" stroke-opacity="0.86" stroke-width="1.8"/>
<line x1="127.8" y1="136.3" x2="152.2" y2="136.3" stroke="#14532d" stroke-opacity="0.86" stroke-width="1.8"/>
<rect x="123.0" y="86.0" width="34.0" height="16.2" rx="2" fill="#14532d" fill-opacity="0.18" stroke="#14532d" stroke-opacity="0.9" stroke-width="1.8"/>
<line x1="123.0" y1="87.1" x2="157.0" y2="87.1" stroke="#14532d" stroke-opacity="0.96" stroke-width="2.6"/>
<text x="163.0" y="91.1" text-anchor="start" font-family="Inter,Segoe UI,Arial,sans-serif" font-size="11" font-weight="700" fill="#111827" stroke="#ffffff" stroke-width="3" paint-order="stroke">99.6%</text>
<circle cx="258.8" cy="92.4" r="1.45" fill="#7c3aed" fill-opacity="0.46"/>
<circle cx="261.8" cy="92.4" r="1.45" fill="#7c3aed" fill-opacity="0.46"/>
<circle cx="264.9" cy="91.3" r="1.45" fill="#7c3aed" fill-opacity="0.46"/>
<circle cx="267.9" cy="93.4" r="1.45" fill="#7c3aed" fill-opacity="0.46"/>
<circle cx="271.0" cy="94.5" r="1.45" fill="#7c3aed" fill-opacity="0.46"/>
<circle cx="274.1" cy="109.0" r="1.45" fill="#7c3aed" fill-opacity="0.46"/>
<circle cx="277.1" cy="113.6" r="1.45" fill="#7c3aed" fill-opacity="0.46"/>
<circle cx="280.2" cy="110.5" r="1.45" fill="#7c3aed" fill-opacity="0.46"/>
<circle cx="283.2" cy="114.8" r="1.45" fill="#7c3aed" fill-opacity="0.46"/>
<circle cx="258.8" cy="113.4" r="1.45" fill="#7c3aed" fill-opacity="0.46"/>
<circle cx="261.8" cy="97.6" r="1.45" fill="#7c3aed" fill-opacity="0.46"/>
<circle cx="264.9" cy="101.8" r="1.45" fill="#7c3aed" fill-opacity="0.46"/>
<circle cx="267.9" cy="97.6" r="1.45" fill="#7c3aed" fill-opacity="0.46"/>
<circle cx="271.0" cy="98.7" r="1.45" fill="#7c3aed" fill-opacity="0.46"/>
<circle cx="274.1" cy="100.8" r="1.45" fill="#7c3aed" fill-opacity="0.46"/>
<circle cx="277.1" cy="93.4" r="1.45" fill="#7c3aed" fill-opacity="0.46"/>
<circle cx="280.2" cy="92.4" r="1.45" fill="#7c3aed" fill-opacity="0.46"/>
<circle cx="283.2" cy="93.4" r="1.45" fill="#7c3aed" fill-opacity="0.46"/>
<circle cx="258.8" cy="92.4" r="1.45" fill="#7c3aed" fill-opacity="0.46"/>
<circle cx="261.8" cy="92.4" r="1.45" fill="#7c3aed" fill-opacity="0.46"/>
<circle cx="264.9" cy="101.8" r="1.45" fill="#7c3aed" fill-opacity="0.46"/>
<circle cx="267.9" cy="102.8" r="1.45" fill="#7c3aed" fill-opacity="0.46"/>
<circle cx="271.0" cy="102.8" r="1.45" fill="#7c3aed" fill-opacity="0.46"/>
<circle cx="274.1" cy="102.8" r="1.45" fill="#7c3aed" fill-opacity="0.46"/>
<circle cx="277.1" cy="102.8" r="1.45" fill="#7c3aed" fill-opacity="0.46"/>
<circle cx="280.2" cy="108.0" r="1.45" fill="#7c3aed" fill-opacity="0.46"/>
<circle cx="283.2" cy="108.0" r="1.45" fill="#7c3aed" fill-opacity="0.46"/>
<circle cx="258.8" cy="109.0" r="1.45" fill="#7c3aed" fill-opacity="0.46"/>
<circle cx="261.8" cy="112.1" r="1.45" fill="#7c3aed" fill-opacity="0.46"/>
<circle cx="264.9" cy="112.1" r="1.45" fill="#7c3aed" fill-opacity="0.46"/>
<circle cx="267.9" cy="102.8" r="1.45" fill="#7c3aed" fill-opacity="0.46"/>
<circle cx="271.0" cy="104.9" r="1.45" fill="#7c3aed" fill-opacity="0.46"/>
<circle cx="274.1" cy="104.9" r="1.45" fill="#7c3aed" fill-opacity="0.46"/>
<circle cx="277.1" cy="101.7" r="1.45" fill="#7c3aed" fill-opacity="0.46"/>
<circle cx="280.2" cy="107.9" r="1.45" fill="#7c3aed" fill-opacity="0.46"/>
<circle cx="283.2" cy="98.7" r="1.45" fill="#7c3aed" fill-opacity="0.46"/>
<circle cx="258.8" cy="102.9" r="1.45" fill="#7c3aed" fill-opacity="0.46"/>
<circle cx="261.8" cy="101.8" r="1.45" fill="#7c3aed" fill-opacity="0.46"/>
<circle cx="264.9" cy="101.8" r="1.45" fill="#7c3aed" fill-opacity="0.46"/>
<circle cx="267.9" cy="98.7" r="1.45" fill="#7c3aed" fill-opacity="0.46"/>
<circle cx="271.0" cy="164.0" r="1.45" fill="#7c3aed" fill-opacity="0.46"/>
<circle cx="274.1" cy="163.3" r="1.45" fill="#7c3aed" fill-opacity="0.46"/>
<circle cx="277.1" cy="171.3" r="1.45" fill="#7c3aed" fill-opacity="0.46"/>
<circle cx="280.2" cy="168.0" r="1.45" fill="#7c3aed" fill-opacity="0.46"/>
<circle cx="283.2" cy="174.0" r="1.45" fill="#7c3aed" fill-opacity="0.46"/>
<circle cx="258.8" cy="158.3" r="1.45" fill="#7c3aed" fill-opacity="0.46"/>
<circle cx="261.8" cy="147.1" r="1.45" fill="#7c3aed" fill-opacity="0.46"/>
<circle cx="264.9" cy="155.0" r="1.45" fill="#7c3aed" fill-opacity="0.46"/>
<circle cx="267.9" cy="148.9" r="1.45" fill="#7c3aed" fill-opacity="0.46"/>
<circle cx="271.0" cy="140.6" r="1.45" fill="#7c3aed" fill-opacity="0.46"/>
<circle cx="274.1" cy="146.1" r="1.45" fill="#7c3aed" fill-opacity="0.46"/>
<circle cx="277.1" cy="147.6" r="1.45" fill="#7c3aed" fill-opacity="0.46"/>
<circle cx="280.2" cy="133.4" r="1.45" fill="#7c3aed" fill-opacity="0.46"/>
<circle cx="283.2" cy="137.1" r="1.45" fill="#7c3aed" fill-opacity="0.46"/>
<circle cx="258.8" cy="137.5" r="1.45" fill="#7c3aed" fill-opacity="0.46"/>
<line x1="271.0" y1="91.3" x2="271.0" y2="174.0" stroke="#7c3aed" stroke-opacity="0.86" stroke-width="1.8"/>
<line x1="258.8" y1="91.3" x2="283.2" y2="91.3" stroke="#7c3aed" stroke-opacity="0.86" stroke-width="1.8"/>
<line x1="258.8" y1="174.0" x2="283.2" y2="174.0" stroke="#7c3aed" stroke-opacity="0.86" stroke-width="1.8"/>
<rect x="254.0" y="98.7" width="34.0" height="36.6" rx="2" fill="#7c3aed" fill-opacity="0.18" stroke="#7c3aed" stroke-opacity="0.9" stroke-width="1.8"/>
<line x1="254.0" y1="104.9" x2="288.0" y2="104.9" stroke="#7c3aed" stroke-opacity="0.96" stroke-width="2.6"/>
<text x="294.0" y="108.9" text-anchor="start" font-family="Inter,Segoe UI,Arial,sans-serif" font-size="11" font-weight="700" fill="#111827" stroke="#ffffff" stroke-width="3" paint-order="stroke">92.9%</text>
<circle cx="389.8" cy="105.1" r="1.45" fill="#1e3a8a" fill-opacity="0.46"/>
<circle cx="392.8" cy="105.1" r="1.45" fill="#1e3a8a" fill-opacity="0.46"/>
<circle cx="395.9" cy="106.5" r="1.45" fill="#1e3a8a" fill-opacity="0.46"/>
<circle cx="398.9" cy="106.5" r="1.45" fill="#1e3a8a" fill-opacity="0.46"/>
<circle cx="402.0" cy="106.5" r="1.45" fill="#1e3a8a" fill-opacity="0.46"/>
<circle cx="405.1" cy="161.0" r="1.45" fill="#1e3a8a" fill-opacity="0.46"/>
<circle cx="408.1" cy="153.0" r="1.45" fill="#1e3a8a" fill-opacity="0.46"/>
<circle cx="411.2" cy="158.2" r="1.45" fill="#1e3a8a" fill-opacity="0.46"/>
<circle cx="414.2" cy="161.0" r="1.45" fill="#1e3a8a" fill-opacity="0.46"/>
<circle cx="389.8" cy="156.3" r="1.45" fill="#1e3a8a" fill-opacity="0.46"/>
<circle cx="392.8" cy="145.1" r="1.45" fill="#1e3a8a" fill-opacity="0.46"/>
<circle cx="395.9" cy="143.8" r="1.45" fill="#1e3a8a" fill-opacity="0.46"/>
<circle cx="398.9" cy="146.4" r="1.45" fill="#1e3a8a" fill-opacity="0.46"/>
<circle cx="402.0" cy="139.9" r="1.45" fill="#1e3a8a" fill-opacity="0.46"/>
<circle cx="405.1" cy="139.9" r="1.45" fill="#1e3a8a" fill-opacity="0.46"/>
<circle cx="408.1" cy="104.9" r="1.45" fill="#1e3a8a" fill-opacity="0.46"/>
<circle cx="411.2" cy="107.4" r="1.45" fill="#1e3a8a" fill-opacity="0.46"/>
<circle cx="414.2" cy="106.1" r="1.45" fill="#1e3a8a" fill-opacity="0.46"/>
<circle cx="389.8" cy="104.9" r="1.45" fill="#1e3a8a" fill-opacity="0.46"/>
<circle cx="392.8" cy="106.1" r="1.45" fill="#1e3a8a" fill-opacity="0.46"/>
<circle cx="395.9" cy="99.2" r="1.45" fill="#1e3a8a" fill-opacity="0.46"/>
<circle cx="398.9" cy="99.2" r="1.45" fill="#1e3a8a" fill-opacity="0.46"/>
<circle cx="402.0" cy="97.6" r="1.45" fill="#1e3a8a" fill-opacity="0.46"/>
<circle cx="405.1" cy="97.5" r="1.45" fill="#1e3a8a" fill-opacity="0.46"/>
<circle cx="408.1" cy="97.5" r="1.45" fill="#1e3a8a" fill-opacity="0.46"/>
<circle cx="411.2" cy="125.5" r="1.45" fill="#1e3a8a" fill-opacity="0.46"/>
<circle cx="414.2" cy="111.8" r="1.45" fill="#1e3a8a" fill-opacity="0.46"/>
<circle cx="389.8" cy="119.1" r="1.45" fill="#1e3a8a" fill-opacity="0.46"/>
<circle cx="392.8" cy="117.9" r="1.45" fill="#1e3a8a" fill-opacity="0.46"/>
<circle cx="395.9" cy="129.6" r="1.45" fill="#1e3a8a" fill-opacity="0.46"/>
<circle cx="398.9" cy="111.5" r="1.45" fill="#1e3a8a" fill-opacity="0.46"/>
<circle cx="402.0" cy="133.1" r="1.45" fill="#1e3a8a" fill-opacity="0.46"/>
<circle cx="405.1" cy="105.4" r="1.45" fill="#1e3a8a" fill-opacity="0.46"/>
<circle cx="408.1" cy="137.0" r="1.45" fill="#1e3a8a" fill-opacity="0.46"/>
<circle cx="411.2" cy="133.1" r="1.45" fill="#1e3a8a" fill-opacity="0.46"/>
<circle cx="414.2" cy="120.8" r="1.45" fill="#1e3a8a" fill-opacity="0.46"/>
<circle cx="389.8" cy="122.3" r="1.45" fill="#1e3a8a" fill-opacity="0.46"/>
<circle cx="392.8" cy="119.3" r="1.45" fill="#1e3a8a" fill-opacity="0.46"/>
<circle cx="395.9" cy="117.8" r="1.45" fill="#1e3a8a" fill-opacity="0.46"/>
<circle cx="398.9" cy="119.3" r="1.45" fill="#1e3a8a" fill-opacity="0.46"/>
<circle cx="402.0" cy="173.3" r="1.45" fill="#1e3a8a" fill-opacity="0.46"/>
<circle cx="405.1" cy="177.7" r="1.45" fill="#1e3a8a" fill-opacity="0.46"/>
<circle cx="408.1" cy="159.1" r="1.45" fill="#1e3a8a" fill-opacity="0.46"/>
<circle cx="411.2" cy="166.0" r="1.45" fill="#1e3a8a" fill-opacity="0.46"/>
<circle cx="414.2" cy="173.7" r="1.45" fill="#1e3a8a" fill-opacity="0.46"/>
<circle cx="389.8" cy="160.4" r="1.45" fill="#1e3a8a" fill-opacity="0.46"/>
<circle cx="392.8" cy="154.8" r="1.45" fill="#1e3a8a" fill-opacity="0.46"/>
<circle cx="395.9" cy="168.0" r="1.45" fill="#1e3a8a" fill-opacity="0.46"/>
<circle cx="398.9" cy="168.3" r="1.45" fill="#1e3a8a" fill-opacity="0.46"/>
<circle cx="402.0" cy="152.5" r="1.45" fill="#1e3a8a" fill-opacity="0.46"/>
<circle cx="405.1" cy="156.3" r="1.45" fill="#1e3a8a" fill-opacity="0.46"/>
<circle cx="408.1" cy="142.5" r="1.45" fill="#1e3a8a" fill-opacity="0.46"/>
<circle cx="411.2" cy="143.4" r="1.45" fill="#1e3a8a" fill-opacity="0.46"/>
<circle cx="414.2" cy="148.4" r="1.45" fill="#1e3a8a" fill-opacity="0.46"/>
<circle cx="389.8" cy="162.0" r="1.45" fill="#1e3a8a" fill-opacity="0.46"/>
<line x1="402.0" y1="97.5" x2="402.0" y2="177.7" stroke="#1e3a8a" stroke-opacity="0.86" stroke-width="1.8"/>
<line x1="389.8" y1="97.5" x2="414.2" y2="97.5" stroke="#1e3a8a" stroke-opacity="0.86" stroke-width="1.8"/>
<line x1="389.8" y1="177.7" x2="414.2" y2="177.7" stroke="#1e3a8a" stroke-opacity="0.86" stroke-width="1.8"/>
<rect x="385.0" y="106.5" width="34.0" height="49.0" rx="2" fill="#1e3a8a" fill-opacity="0.18" stroke="#1e3a8a" stroke-opacity="0.9" stroke-width="1.8"/>
<line x1="385.0" y1="133.1" x2="419.0" y2="133.1" stroke="#1e3a8a" stroke-opacity="0.96" stroke-width="2.6"/>
<text x="425.0" y="137.1" text-anchor="start" font-family="Inter,Segoe UI,Arial,sans-serif" font-size="11" font-weight="700" fill="#111827" stroke="#ffffff" stroke-width="3" paint-order="stroke">82.4%</text>
<circle cx="520.8" cy="87.4" r="1.45" fill="#f97316" fill-opacity="0.46"/>
<circle cx="523.8" cy="87.4" r="1.45" fill="#f97316" fill-opacity="0.46"/>
<circle cx="526.9" cy="87.4" r="1.45" fill="#f97316" fill-opacity="0.46"/>
<circle cx="529.9" cy="87.4" r="1.45" fill="#f97316" fill-opacity="0.46"/>
<circle cx="533.0" cy="87.4" r="1.45" fill="#f97316" fill-opacity="0.46"/>
<circle cx="536.1" cy="98.2" r="1.45" fill="#f97316" fill-opacity="0.46"/>
<circle cx="539.1" cy="99.5" r="1.45" fill="#f97316" fill-opacity="0.46"/>
<circle cx="542.2" cy="153.0" r="1.45" fill="#f97316" fill-opacity="0.46"/>
<circle cx="545.2" cy="93.7" r="1.45" fill="#f97316" fill-opacity="0.46"/>
<circle cx="520.8" cy="98.9" r="1.45" fill="#f97316" fill-opacity="0.46"/>
<circle cx="523.8" cy="86.0" r="1.45" fill="#f97316" fill-opacity="0.46"/>
<circle cx="526.9" cy="86.0" r="1.45" fill="#f97316" fill-opacity="0.46"/>
<circle cx="529.9" cy="86.0" r="1.45" fill="#f97316" fill-opacity="0.46"/>
<circle cx="533.0" cy="86.0" r="1.45" fill="#f97316" fill-opacity="0.46"/>
<circle cx="536.1" cy="86.0" r="1.45" fill="#f97316" fill-opacity="0.46"/>
<circle cx="539.1" cy="86.7" r="1.45" fill="#f97316" fill-opacity="0.46"/>
<circle cx="542.2" cy="86.7" r="1.45" fill="#f97316" fill-opacity="0.46"/>
<circle cx="545.2" cy="87.4" r="1.45" fill="#f97316" fill-opacity="0.46"/>
<circle cx="520.8" cy="88.8" r="1.45" fill="#f97316" fill-opacity="0.46"/>
<circle cx="523.8" cy="86.7" r="1.45" fill="#f97316" fill-opacity="0.46"/>
<circle cx="526.9" cy="88.5" r="1.45" fill="#f97316" fill-opacity="0.46"/>
<circle cx="529.9" cy="86.7" r="1.45" fill="#f97316" fill-opacity="0.46"/>
<circle cx="533.0" cy="87.4" r="1.45" fill="#f97316" fill-opacity="0.46"/>
<circle cx="536.1" cy="86.7" r="1.45" fill="#f97316" fill-opacity="0.46"/>
<circle cx="539.1" cy="86.7" r="1.45" fill="#f97316" fill-opacity="0.46"/>
<circle cx="542.2" cy="97.8" r="1.45" fill="#f97316" fill-opacity="0.46"/>
<circle cx="545.2" cy="93.7" r="1.45" fill="#f97316" fill-opacity="0.46"/>
<circle cx="520.8" cy="95.8" r="1.45" fill="#f97316" fill-opacity="0.46"/>
<circle cx="523.8" cy="97.8" r="1.45" fill="#f97316" fill-opacity="0.46"/>
<circle cx="526.9" cy="95.1" r="1.45" fill="#f97316" fill-opacity="0.46"/>
<circle cx="529.9" cy="91.3" r="1.45" fill="#f97316" fill-opacity="0.46"/>
<circle cx="533.0" cy="91.3" r="1.45" fill="#f97316" fill-opacity="0.46"/>
<circle cx="536.1" cy="89.2" r="1.45" fill="#f97316" fill-opacity="0.46"/>
<circle cx="539.1" cy="95.4" r="1.45" fill="#f97316" fill-opacity="0.46"/>
<circle cx="542.2" cy="90.6" r="1.45" fill="#f97316" fill-opacity="0.46"/>
<circle cx="545.2" cy="88.8" r="1.45" fill="#f97316" fill-opacity="0.46"/>
<circle cx="520.8" cy="88.8" r="1.45" fill="#f97316" fill-opacity="0.46"/>
<circle cx="523.8" cy="88.8" r="1.45" fill="#f97316" fill-opacity="0.46"/>
<circle cx="526.9" cy="88.8" r="1.45" fill="#f97316" fill-opacity="0.46"/>
<circle cx="529.9" cy="88.8" r="1.45" fill="#f97316" fill-opacity="0.46"/>
<circle cx="533.0" cy="153.3" r="1.45" fill="#f97316" fill-opacity="0.46"/>
<circle cx="536.1" cy="208.1" r="1.45" fill="#f97316" fill-opacity="0.46"/>
<circle cx="539.1" cy="163.9" r="1.45" fill="#f97316" fill-opacity="0.46"/>
<circle cx="542.2" cy="158.2" r="1.45" fill="#f97316" fill-opacity="0.46"/>
<circle cx="545.2" cy="165.3" r="1.45" fill="#f97316" fill-opacity="0.46"/>
<circle cx="520.8" cy="126.9" r="1.45" fill="#f97316" fill-opacity="0.46"/>
<circle cx="523.8" cy="96.8" r="1.45" fill="#f97316" fill-opacity="0.46"/>
<circle cx="526.9" cy="100.5" r="1.45" fill="#f97316" fill-opacity="0.46"/>
<circle cx="529.9" cy="143.9" r="1.45" fill="#f97316" fill-opacity="0.46"/>
<circle cx="533.0" cy="109.4" r="1.45" fill="#f97316" fill-opacity="0.46"/>
<circle cx="536.1" cy="156.8" r="1.45" fill="#f97316" fill-opacity="0.46"/>
<circle cx="539.1" cy="149.2" r="1.45" fill="#f97316" fill-opacity="0.46"/>
<circle cx="542.2" cy="177.4" r="1.45" fill="#f97316" fill-opacity="0.46"/>
<circle cx="545.2" cy="138.7" r="1.45" fill="#f97316" fill-opacity="0.46"/>
<circle cx="520.8" cy="142.5" r="1.45" fill="#f97316" fill-opacity="0.46"/>
<line x1="533.0" y1="86.0" x2="533.0" y2="208.1" stroke="#f97316" stroke-opacity="0.86" stroke-width="1.8"/>
<line x1="520.8" y1="86.0" x2="545.2" y2="86.0" stroke="#f97316" stroke-opacity="0.86" stroke-width="1.8"/>
<line x1="520.8" y1="208.1" x2="545.2" y2="208.1" stroke="#f97316" stroke-opacity="0.86" stroke-width="1.8"/>
<rect x="516.0" y="87.4" width="34.0" height="17.5" rx="2" fill="#f97316" fill-opacity="0.18" stroke="#f97316" stroke-opacity="0.9" stroke-width="1.8"/>
<line x1="516.0" y1="91.3" x2="550.0" y2="91.3" stroke="#f97316" stroke-opacity="0.96" stroke-width="2.6"/>
<text x="556.0" y="95.3" text-anchor="start" font-family="Inter,Segoe UI,Arial,sans-serif" font-size="11" font-weight="700" fill="#111827" stroke="#ffffff" stroke-width="3" paint-order="stroke">98.0%</text>
<circle cx="651.8" cy="130.8" r="1.45" fill="#eab308" fill-opacity="0.46"/>
<circle cx="654.8" cy="138.0" r="1.45" fill="#eab308" fill-opacity="0.46"/>
<circle cx="657.9" cy="127.5" r="1.45" fill="#eab308" fill-opacity="0.46"/>
<circle cx="660.9" cy="122.1" r="1.45" fill="#eab308" fill-opacity="0.46"/>
<circle cx="664.0" cy="135.3" r="1.45" fill="#eab308" fill-opacity="0.46"/>
<circle cx="667.1" cy="130.8" r="1.45" fill="#eab308" fill-opacity="0.46"/>
<circle cx="670.1" cy="152.3" r="1.45" fill="#eab308" fill-opacity="0.46"/>
<circle cx="673.2" cy="157.3" r="1.45" fill="#eab308" fill-opacity="0.46"/>
<circle cx="676.2" cy="156.2" r="1.45" fill="#eab308" fill-opacity="0.46"/>
<circle cx="651.8" cy="139.0" r="1.45" fill="#eab308" fill-opacity="0.46"/>
<circle cx="654.8" cy="161.9" r="1.45" fill="#eab308" fill-opacity="0.46"/>
<circle cx="657.9" cy="124.4" r="1.45" fill="#eab308" fill-opacity="0.46"/>
<circle cx="660.9" cy="182.8" r="1.45" fill="#eab308" fill-opacity="0.46"/>
<circle cx="664.0" cy="157.4" r="1.45" fill="#eab308" fill-opacity="0.46"/>
<circle cx="667.1" cy="156.8" r="1.45" fill="#eab308" fill-opacity="0.46"/>
<circle cx="670.1" cy="89.5" r="1.45" fill="#eab308" fill-opacity="0.46"/>
<circle cx="673.2" cy="153.5" r="1.45" fill="#eab308" fill-opacity="0.46"/>
<circle cx="676.2" cy="89.5" r="1.45" fill="#eab308" fill-opacity="0.46"/>
<circle cx="651.8" cy="151.8" r="1.45" fill="#eab308" fill-opacity="0.46"/>
<circle cx="654.8" cy="143.4" r="1.45" fill="#eab308" fill-opacity="0.46"/>
<circle cx="657.9" cy="108.2" r="1.45" fill="#eab308" fill-opacity="0.46"/>
<circle cx="660.9" cy="108.8" r="1.45" fill="#eab308" fill-opacity="0.46"/>
<circle cx="664.0" cy="114.0" r="1.45" fill="#eab308" fill-opacity="0.46"/>
<circle cx="667.1" cy="106.0" r="1.45" fill="#eab308" fill-opacity="0.46"/>
<circle cx="670.1" cy="115.2" r="1.45" fill="#eab308" fill-opacity="0.46"/>
<circle cx="673.2" cy="106.4" r="1.45" fill="#eab308" fill-opacity="0.46"/>
<circle cx="676.2" cy="109.2" r="1.45" fill="#eab308" fill-opacity="0.46"/>
<circle cx="651.8" cy="103.7" r="1.45" fill="#eab308" fill-opacity="0.46"/>
<circle cx="654.8" cy="108.9" r="1.45" fill="#eab308" fill-opacity="0.46"/>
<circle cx="657.9" cy="118.7" r="1.45" fill="#eab308" fill-opacity="0.46"/>
<circle cx="660.9" cy="121.3" r="1.45" fill="#eab308" fill-opacity="0.46"/>
<circle cx="664.0" cy="127.4" r="1.45" fill="#eab308" fill-opacity="0.46"/>
<circle cx="667.1" cy="119.2" r="1.45" fill="#eab308" fill-opacity="0.46"/>
<circle cx="670.1" cy="118.6" r="1.45" fill="#eab308" fill-opacity="0.46"/>
<circle cx="673.2" cy="121.7" r="1.45" fill="#eab308" fill-opacity="0.46"/>
<circle cx="676.2" cy="127.2" r="1.45" fill="#eab308" fill-opacity="0.46"/>
<circle cx="651.8" cy="127.2" r="1.45" fill="#eab308" fill-opacity="0.46"/>
<circle cx="654.8" cy="99.1" r="1.45" fill="#eab308" fill-opacity="0.46"/>
<circle cx="657.9" cy="121.1" r="1.45" fill="#eab308" fill-opacity="0.46"/>
<circle cx="660.9" cy="97.1" r="1.45" fill="#eab308" fill-opacity="0.46"/>
<circle cx="664.0" cy="109.8" r="1.45" fill="#eab308" fill-opacity="0.46"/>
<circle cx="667.1" cy="163.2" r="1.45" fill="#eab308" fill-opacity="0.46"/>
<circle cx="670.1" cy="112.0" r="1.45" fill="#eab308" fill-opacity="0.46"/>
<circle cx="673.2" cy="108.3" r="1.45" fill="#eab308" fill-opacity="0.46"/>
<circle cx="676.2" cy="203.3" r="1.45" fill="#eab308" fill-opacity="0.46"/>
<circle cx="651.8" cy="104.8" r="1.45" fill="#eab308" fill-opacity="0.46"/>
<circle cx="654.8" cy="186.1" r="1.45" fill="#eab308" fill-opacity="0.46"/>
<circle cx="657.9" cy="183.8" r="1.45" fill="#eab308" fill-opacity="0.46"/>
<circle cx="660.9" cy="152.5" r="1.45" fill="#eab308" fill-opacity="0.46"/>
<circle cx="664.0" cy="151.5" r="1.45" fill="#eab308" fill-opacity="0.46"/>
<circle cx="667.1" cy="126.7" r="1.45" fill="#eab308" fill-opacity="0.46"/>
<circle cx="670.1" cy="116.1" r="1.45" fill="#eab308" fill-opacity="0.46"/>
<circle cx="673.2" cy="155.5" r="1.45" fill="#eab308" fill-opacity="0.46"/>
<circle cx="676.2" cy="205.2" r="1.45" fill="#eab308" fill-opacity="0.46"/>
<circle cx="651.8" cy="108.4" r="1.45" fill="#eab308" fill-opacity="0.46"/>
<line x1="664.0" y1="89.5" x2="664.0" y2="205.2" stroke="#eab308" stroke-opacity="0.86" stroke-width="1.8"/>
<line x1="651.8" y1="89.5" x2="676.2" y2="89.5" stroke="#eab308" stroke-opacity="0.86" stroke-width="1.8"/>
<line x1="651.8" y1="205.2" x2="676.2" y2="205.2" stroke="#eab308" stroke-opacity="0.86" stroke-width="1.8"/>
<rect x="647.0" y="109.5" width="34.0" height="42.9" rx="2" fill="#eab308" fill-opacity="0.18" stroke="#eab308" stroke-opacity="0.9" stroke-width="1.8"/>
<line x1="647.0" y1="126.7" x2="681.0" y2="126.7" stroke="#eab308" stroke-opacity="0.96" stroke-width="2.6"/>
<text x="687.0" y="130.7" text-anchor="start" font-family="Inter,Segoe UI,Arial,sans-serif" font-size="11" font-weight="700" fill="#111827" stroke="#ffffff" stroke-width="3" paint-order="stroke">84.8%</text>
<rect x="64.0" y="433" width="10" height="10" rx="2" fill="#14532d" fill-opacity="0.72"/>
<text x="78.0" y="442" font-family="Inter,Segoe UI,Arial,sans-serif" font-size="10" fill="#374151">MTPLX 0.3.7</text>
<rect x="199.2" y="433" width="10" height="10" rx="2" fill="#7c3aed" fill-opacity="0.72"/>
<text x="213.2" y="442" font-family="Inter,Segoe UI,Arial,sans-serif" font-size="10" fill="#374151">Light. MTP</text>
<rect x="334.4" y="433" width="10" height="10" rx="2" fill="#1e3a8a" fill-opacity="0.72"/>
<text x="348.4" y="442" font-family="Inter,Segoe UI,Arial,sans-serif" font-size="10" fill="#374151">Light. ngram+MTP</text>
<rect x="469.6" y="433" width="10" height="10" rx="2" fill="#f97316" fill-opacity="0.72"/>
<text x="483.6" y="442" font-family="Inter,Segoe UI,Arial,sans-serif" font-size="10" fill="#374151">AX MTP</text>
<rect x="604.8" y="433" width="10" height="10" rx="2" fill="#eab308" fill-opacity="0.72"/>
<text x="618.8" y="442" font-family="Inter,Segoe UI,Arial,sans-serif" font-size="10" fill="#374151">AX MTP+n-gram</text>
</svg>
