<svg xmlns="http://www.w3.org/2000/svg" width="760" height="460" viewBox="0 0 760 460" role="img" aria-labelledby="title desc">
<title>Gemma 4 12B 4-bit-FFN — Prefill throughput</title>
<desc>Grouped box-and-whisker plot comparing AX assistant MTP across flappy, long_code, python_modules_long prompt suites.</desc>
<rect width="100%" height="100%" fill="#f8fafc"/>
<text x="24" y="24" font-family="Inter,Segoe UI,Arial,sans-serif" font-size="16" font-weight="700" fill="#111827">Gemma 4 12B 4-bit-FFN — Prefill throughput</text>
<text x="24" y="46" font-family="Inter,Segoe UI,Arial,sans-serif" font-size="11" fill="#4b5563">All suites | box=IQR | whiskers=min/max | dots=runs</text>
<text x="24" y="62" font-family="Inter,Segoe UI,Arial,sans-serif" font-size="10" fill="#6b7280">Apple M5 Max · gate 0.90 first / 0.999 deep · GPU exact · T=0.6/top_p=0.95/top_k=20</text>
<rect x="667" y="13" width="59" height="22" rx="11" fill="#eef2ff" stroke="#c7d2fe"/>
<text x="696.5" y="28" text-anchor="middle" font-family="Inter,Segoe UI,Arial,sans-serif" font-size="10" font-weight="700" fill="#3730a3">tok/s</text>
<text x="726" y="52" text-anchor="end" font-family="Inter,Segoe UI,Arial,sans-serif" font-size="10" font-weight="700" fill="#dc2626">Higher is better</text>
<rect x="64" y="86" width="496" height="268" rx="6" fill="#ffffff" stroke="#dbe3ef"/>
<line x1="64" y1="354.0" x2="560" y2="354.0" stroke="#e5e7eb" stroke-width="1"/>
<text x="56" y="357.0" text-anchor="end" font-family="Inter,Segoe UI,Arial,sans-serif" font-size="11" fill="#6b7280">0.0</text>
<line x1="64" y1="287.0" x2="560" y2="287.0" stroke="#e5e7eb" stroke-width="1"/>
<text x="56" y="290.0" text-anchor="end" font-family="Inter,Segoe UI,Arial,sans-serif" font-size="11" fill="#6b7280">625</text>
<line x1="64" y1="220.0" x2="560" y2="220.0" stroke="#e5e7eb" stroke-width="1"/>
<text x="56" y="223.0" text-anchor="end" font-family="Inter,Segoe UI,Arial,sans-serif" font-size="11" fill="#6b7280">1.25k</text>
<line x1="64" y1="153.0" x2="560" y2="153.0" stroke="#e5e7eb" stroke-width="1"/>
<text x="56" y="156.0" text-anchor="end" font-family="Inter,Segoe UI,Arial,sans-serif" font-size="11" fill="#6b7280">1.875k</text>
<line x1="64" y1="86.0" x2="560" y2="86.0" stroke="#e5e7eb" stroke-width="1"/>
<text x="56" y="89.0" text-anchor="end" font-family="Inter,Segoe UI,Arial,sans-serif" font-size="11" fill="#6b7280">2.5k</text>
<line x1="64" y1="137.9" x2="560" y2="137.9" stroke="#dc2626" stroke-width="1.2" stroke-dasharray="1 4" stroke-linecap="round"/>
<text x="568" y="132.9" text-anchor="start" font-family="Inter,Segoe UI,Arial,sans-serif" font-size="11" font-weight="700" fill="#dc2626" data-label="highest median">highest: 2.0k</text>
<text x="146.7" y="398" text-anchor="middle" font-family="Inter,Segoe UI,Arial,sans-serif" font-size="11" font-weight="700" fill="#111827">flappy</text>
<circle cx="134.4" cy="168.6" r="1.45" fill="#2eaf5f" fill-opacity="0.46"/>
<circle cx="137.5" cy="143.9" r="1.45" fill="#2eaf5f" fill-opacity="0.46"/>
<circle cx="140.5" cy="168.8" r="1.45" fill="#2eaf5f" fill-opacity="0.46"/>
<circle cx="143.6" cy="160.5" r="1.45" fill="#2eaf5f" fill-opacity="0.46"/>
<circle cx="146.7" cy="168.9" r="1.45" fill="#2eaf5f" fill-opacity="0.46"/>
<circle cx="149.7" cy="155.8" r="1.45" fill="#2eaf5f" fill-opacity="0.46"/>
<circle cx="152.8" cy="172.2" r="1.45" fill="#2eaf5f" fill-opacity="0.46"/>
<circle cx="155.8" cy="156.0" r="1.45" fill="#2eaf5f" fill-opacity="0.46"/>
<circle cx="158.9" cy="171.6" r="1.45" fill="#2eaf5f" fill-opacity="0.46"/>
<circle cx="134.4" cy="166.9" r="1.45" fill="#2eaf5f" fill-opacity="0.46"/>
<circle cx="137.5" cy="160.6" r="1.45" fill="#2eaf5f" fill-opacity="0.46"/>
<circle cx="140.5" cy="171.5" r="1.45" fill="#2eaf5f" fill-opacity="0.46"/>
<circle cx="143.6" cy="143.3" r="1.45" fill="#2eaf5f" fill-opacity="0.46"/>
<circle cx="146.7" cy="159.8" r="1.45" fill="#2eaf5f" fill-opacity="0.46"/>
<circle cx="149.7" cy="157.8" r="1.45" fill="#2eaf5f" fill-opacity="0.46"/>
<circle cx="152.8" cy="169.0" r="1.45" fill="#2eaf5f" fill-opacity="0.46"/>
<circle cx="155.8" cy="142.9" r="1.45" fill="#2eaf5f" fill-opacity="0.46"/>
<circle cx="158.9" cy="141.8" r="1.45" fill="#2eaf5f" fill-opacity="0.46"/>
<circle cx="134.4" cy="146.1" r="1.45" fill="#2eaf5f" fill-opacity="0.46"/>
<circle cx="137.5" cy="156.0" r="1.45" fill="#2eaf5f" fill-opacity="0.46"/>
<line x1="146.7" y1="141.8" x2="146.7" y2="172.2" stroke="#2eaf5f" stroke-opacity="0.86" stroke-width="1.8"/>
<line x1="134.4" y1="141.8" x2="158.9" y2="141.8" stroke="#2eaf5f" stroke-opacity="0.86" stroke-width="1.8"/>
<line x1="134.4" y1="172.2" x2="158.9" y2="172.2" stroke="#2eaf5f" stroke-opacity="0.86" stroke-width="1.8"/>
<rect x="129.7" y="153.3" width="34.0" height="15.5" rx="2" fill="#2eaf5f" fill-opacity="0.18" stroke="#2eaf5f" stroke-opacity="0.9" stroke-width="1.8"/>
<line x1="129.7" y1="160.2" x2="163.7" y2="160.2" stroke="#2eaf5f" stroke-opacity="0.96" stroke-width="2.6"/>
<text x="169.7" y="164.2" text-anchor="start" font-family="Inter,Segoe UI,Arial,sans-serif" font-size="11" font-weight="700" fill="#111827" stroke="#ffffff" stroke-width="3" paint-order="stroke">1.8k</text>
<text x="312.0" y="398" text-anchor="middle" font-family="Inter,Segoe UI,Arial,sans-serif" font-size="11" font-weight="700" fill="#111827">long_code</text>
<circle cx="299.8" cy="150.7" r="1.45" fill="#2eaf5f" fill-opacity="0.46"/>
<circle cx="302.8" cy="139.5" r="1.45" fill="#2eaf5f" fill-opacity="0.46"/>
<circle cx="305.9" cy="149.8" r="1.45" fill="#2eaf5f" fill-opacity="0.46"/>
<circle cx="308.9" cy="137.9" r="1.45" fill="#2eaf5f" fill-opacity="0.46"/>
<circle cx="312.0" cy="138.0" r="1.45" fill="#2eaf5f" fill-opacity="0.46"/>
<circle cx="315.1" cy="135.4" r="1.45" fill="#2eaf5f" fill-opacity="0.46"/>
<circle cx="318.1" cy="137.0" r="1.45" fill="#2eaf5f" fill-opacity="0.46"/>
<circle cx="321.2" cy="135.9" r="1.45" fill="#2eaf5f" fill-opacity="0.46"/>
<circle cx="324.2" cy="142.2" r="1.45" fill="#2eaf5f" fill-opacity="0.46"/>
<circle cx="299.8" cy="135.4" r="1.45" fill="#2eaf5f" fill-opacity="0.46"/>
<circle cx="302.8" cy="131.0" r="1.45" fill="#2eaf5f" fill-opacity="0.46"/>
<circle cx="305.9" cy="123.7" r="1.45" fill="#2eaf5f" fill-opacity="0.46"/>
<circle cx="308.9" cy="126.0" r="1.45" fill="#2eaf5f" fill-opacity="0.46"/>
<circle cx="312.0" cy="128.8" r="1.45" fill="#2eaf5f" fill-opacity="0.46"/>
<circle cx="315.1" cy="122.6" r="1.45" fill="#2eaf5f" fill-opacity="0.46"/>
<circle cx="318.1" cy="167.4" r="1.45" fill="#2eaf5f" fill-opacity="0.46"/>
<circle cx="321.2" cy="146.9" r="1.45" fill="#2eaf5f" fill-opacity="0.46"/>
<circle cx="324.2" cy="147.4" r="1.45" fill="#2eaf5f" fill-opacity="0.46"/>
<circle cx="299.8" cy="148.0" r="1.45" fill="#2eaf5f" fill-opacity="0.46"/>
<circle cx="302.8" cy="153.3" r="1.45" fill="#2eaf5f" fill-opacity="0.46"/>
<line x1="312.0" y1="122.6" x2="312.0" y2="167.4" stroke="#2eaf5f" stroke-opacity="0.86" stroke-width="1.8"/>
<line x1="299.8" y1="122.6" x2="324.2" y2="122.6" stroke="#2eaf5f" stroke-opacity="0.86" stroke-width="1.8"/>
<line x1="299.8" y1="167.4" x2="324.2" y2="167.4" stroke="#2eaf5f" stroke-opacity="0.86" stroke-width="1.8"/>
<rect x="295.0" y="134.3" width="34.0" height="13.3" rx="2" fill="#2eaf5f" fill-opacity="0.18" stroke="#2eaf5f" stroke-opacity="0.9" stroke-width="1.8"/>
<line x1="295.0" y1="137.9" x2="329.0" y2="137.9" stroke="#2eaf5f" stroke-opacity="0.96" stroke-width="2.6"/>
<text x="335.0" y="141.9" text-anchor="start" font-family="Inter,Segoe UI,Arial,sans-serif" font-size="11" font-weight="700" fill="#111827" stroke="#ffffff" stroke-width="3" paint-order="stroke">2.0k</text>
<text x="477.3" y="398" text-anchor="middle" font-family="Inter,Segoe UI,Arial,sans-serif" font-size="11" font-weight="700" fill="#111827">python_modules_long</text>
<circle cx="465.1" cy="168.6" r="1.45" fill="#2eaf5f" fill-opacity="0.46"/>
<circle cx="468.2" cy="169.9" r="1.45" fill="#2eaf5f" fill-opacity="0.46"/>
<circle cx="471.2" cy="172.7" r="1.45" fill="#2eaf5f" fill-opacity="0.46"/>
<circle cx="474.3" cy="171.6" r="1.45" fill="#2eaf5f" fill-opacity="0.46"/>
<circle cx="477.3" cy="170.7" r="1.45" fill="#2eaf5f" fill-opacity="0.46"/>
<circle cx="480.4" cy="138.7" r="1.45" fill="#2eaf5f" fill-opacity="0.46"/>
<circle cx="483.5" cy="152.9" r="1.45" fill="#2eaf5f" fill-opacity="0.46"/>
<circle cx="486.5" cy="139.6" r="1.45" fill="#2eaf5f" fill-opacity="0.46"/>
<circle cx="489.6" cy="139.6" r="1.45" fill="#2eaf5f" fill-opacity="0.46"/>
<circle cx="465.1" cy="138.5" r="1.45" fill="#2eaf5f" fill-opacity="0.46"/>
<circle cx="468.2" cy="150.7" r="1.45" fill="#2eaf5f" fill-opacity="0.46"/>
<circle cx="471.2" cy="160.4" r="1.45" fill="#2eaf5f" fill-opacity="0.46"/>
<circle cx="474.3" cy="151.4" r="1.45" fill="#2eaf5f" fill-opacity="0.46"/>
<circle cx="477.3" cy="151.1" r="1.45" fill="#2eaf5f" fill-opacity="0.46"/>
<circle cx="480.4" cy="151.7" r="1.45" fill="#2eaf5f" fill-opacity="0.46"/>
<line x1="477.3" y1="138.5" x2="477.3" y2="172.7" stroke="#2eaf5f" stroke-opacity="0.86" stroke-width="1.8"/>
<line x1="465.1" y1="138.5" x2="489.6" y2="138.5" stroke="#2eaf5f" stroke-opacity="0.86" stroke-width="1.8"/>
<line x1="465.1" y1="172.7" x2="489.6" y2="172.7" stroke="#2eaf5f" stroke-opacity="0.86" stroke-width="1.8"/>
<rect x="460.3" y="145.1" width="34.0" height="24.2" rx="2" fill="#2eaf5f" fill-opacity="0.18" stroke="#2eaf5f" stroke-opacity="0.9" stroke-width="1.8"/>
<line x1="460.3" y1="151.7" x2="494.3" y2="151.7" stroke="#2eaf5f" stroke-opacity="0.96" stroke-width="2.6"/>
<text x="500.3" y="155.7" text-anchor="start" font-family="Inter,Segoe UI,Arial,sans-serif" font-size="11" font-weight="700" fill="#111827" stroke="#ffffff" stroke-width="3" paint-order="stroke">1.9k</text>
<rect x="64.0" y="433" width="10" height="10" rx="2" fill="#2eaf5f" fill-opacity="0.72"/>
<text x="78.0" y="442" font-family="Inter,Segoe UI,Arial,sans-serif" font-size="10" fill="#374151">AX assistant MTP</text>
</svg>
