<svg xmlns="http://www.w3.org/2000/svg" width="700" height="340" viewBox="0 0 700 340" role="img" aria-labelledby="title desc"><title>Gemma 4 — Decode rate</title><desc>Grouped box-and-whisker plot comparing llama.cpp, mlx_lm, ax_engine, ax+n-gram at 128/512/2048 prompt tokens for Gemma 4 models. A red dotted line marks the highest median.</desc><rect width="700" height="340" fill="#ffffff"/><text x="52" y="22" font-family="Inter,Segoe UI,Arial,sans-serif" font-size="16" font-weight="700" fill="#111827">Gemma 4 — Decode rate</text><text x="52" y="40" font-family="Inter,Segoe UI,Arial,sans-serif" font-size="10" fill="#6b7280">AX n-gram is the default policy</text><text x="684" y="22" text-anchor="end" font-family="Inter,Segoe UI,Arial,sans-serif" font-size="10" fill="#6b7280">tok/s</text><text x="684" y="40" text-anchor="end" font-family="Inter,Segoe UI,Arial,sans-serif" font-size="10" font-weight="700" fill="#374151">Higher is better</text><line x1="52" y1="276.0" x2="684" y2="276.0" stroke="#e5e7eb" stroke-width="1"/><text x="44" y="279.0" text-anchor="end" font-family="Inter,Segoe UI,Arial,sans-serif" font-size="10" fill="#6b7280">0</text><line x1="52" y1="161.0" x2="684" y2="161.0" stroke="#e5e7eb" stroke-width="1"/><text x="44" y="164.0" text-anchor="end" font-family="Inter,Segoe UI,Arial,sans-serif" font-size="10" fill="#6b7280">375</text><line x1="52" y1="46.0" x2="684" y2="46.0" stroke="#e5e7eb" stroke-width="1"/><text x="44" y="49.0" text-anchor="end" font-family="Inter,Segoe UI,Arial,sans-serif" font-size="10" fill="#6b7280">750</text><line x1="52" y1="149.1" x2="684" y2="149.1" stroke="#dc2626" stroke-width="1.2" stroke-dasharray="1 4" stroke-linecap="round"/><line x1="101" y1="223.8" x2="101" y2="268.2" stroke="#f97316" stroke-opacity="0.55" stroke-width="1.7"/><line x1="95.24" y1="223.8" x2="106.76" y2="223.8" stroke="#f97316" stroke-opacity="0.55" stroke-width="1.7"/><line x1="95.24" y1="268.2" x2="106.76" y2="268.2" stroke="#f97316" stroke-opacity="0.55" stroke-width="1.7"/><rect x="93" y="227.9" width="16" height="13.9" rx="2" fill="#f97316" fill-opacity="0.08" stroke="#f97316" stroke-opacity="0.55" stroke-width="1.7"/><line x1="93" y1="234.5" x2="109" y2="234.5" stroke="#f97316" stroke-opacity="0.55" stroke-width="2.4"/><text x="101" y="291" text-anchor="middle" font-family="Inter,Segoe UI,Arial,sans-serif" font-size="8" fill="#6b7280">128</text><circle cx="98" cy="223.8" r="1.4" fill="#c2410c" fill-opacity="0.5"/><circle cx="99.5" cy="226.9" r="1.4" fill="#c2410c" fill-opacity="0.5"/><circle cx="101" cy="228.8" r="1.4" fill="#c2410c" fill-opacity="0.5"/><circle cx="102.5" cy="234.5" r="1.4" fill="#c2410c" fill-opacity="0.5"/><circle cx="104" cy="242.1" r="1.4" fill="#c2410c" fill-opacity="0.5"/><circle cx="98" cy="241.4" r="1.4" fill="#c2410c" fill-opacity="0.5"/><circle cx="99.5" cy="268.2" r="1.4" fill="#c2410c" fill-opacity="0.5"/><line x1="131" y1="223.4" x2="131" y2="268.5" stroke="#f97316" stroke-opacity="0.78" stroke-width="1.7"/><line x1="125.24" y1="223.4" x2="136.76" y2="223.4" stroke="#f97316" stroke-opacity="0.78" stroke-width="1.7"/><line x1="125.24" y1="268.5" x2="136.76" y2="268.5" stroke="#f97316" stroke-opacity="0.78" stroke-width="1.7"/><rect x="123" y="228.1" width="16" height="13.7" rx="2" fill="#f97316" fill-opacity="0.17" stroke="#f97316" stroke-opacity="0.78" stroke-width="1.7"/><line x1="123" y1="232.9" x2="139" y2="232.9" stroke="#f97316" stroke-opacity="0.78" stroke-width="2.4"/><text x="131" y="291" text-anchor="middle" font-family="Inter,Segoe UI,Arial,sans-serif" font-size="8" fill="#6b7280">512</text><circle cx="128" cy="223.4" r="1.4" fill="#c2410c" fill-opacity="0.7"/><circle cx="129.5" cy="227.2" r="1.4" fill="#c2410c" fill-opacity="0.7"/><circle cx="131" cy="229.1" r="1.4" fill="#c2410c" fill-opacity="0.7"/><circle cx="132.5" cy="232.9" r="1.4" fill="#c2410c" fill-opacity="0.7"/><circle cx="134" cy="242.2" r="1.4" fill="#c2410c" fill-opacity="0.7"/><circle cx="128" cy="241.5" r="1.4" fill="#c2410c" fill-opacity="0.7"/><circle cx="129.5" cy="268.5" r="1.4" fill="#c2410c" fill-opacity="0.7"/><line x1="161" y1="223.3" x2="161" y2="268.6" stroke="#f97316" stroke-opacity="1.0" stroke-width="1.7"/><line x1="155.24" y1="223.3" x2="166.76" y2="223.3" stroke="#f97316" stroke-opacity="1.0" stroke-width="1.7"/><line x1="155.24" y1="268.6" x2="166.76" y2="268.6" stroke="#f97316" stroke-opacity="1.0" stroke-width="1.7"/><rect x="153" y="227.9" width="16" height="13.9" rx="2" fill="#f97316" fill-opacity="0.3" stroke="#f97316" stroke-opacity="1.0" stroke-width="1.7"/><line x1="153" y1="233.0" x2="169" y2="233.0" stroke="#f97316" stroke-opacity="1.0" stroke-width="2.4"/><text x="161" y="291" text-anchor="middle" font-family="Inter,Segoe UI,Arial,sans-serif" font-size="8" fill="#6b7280">2048</text><circle cx="158" cy="223.3" r="1.4" fill="#c2410c" fill-opacity="0.9"/><circle cx="159.5" cy="227.1" r="1.4" fill="#c2410c" fill-opacity="0.9"/><circle cx="161" cy="228.7" r="1.4" fill="#c2410c" fill-opacity="0.9"/><circle cx="162.5" cy="233.0" r="1.4" fill="#c2410c" fill-opacity="0.9"/><circle cx="164" cy="242.1" r="1.4" fill="#c2410c" fill-opacity="0.9"/><circle cx="158" cy="241.5" r="1.4" fill="#c2410c" fill-opacity="0.9"/><circle cx="159.5" cy="268.6" r="1.4" fill="#c2410c" fill-opacity="0.9"/><text x="131" y="308" text-anchor="middle" font-family="Inter,Segoe UI,Arial,sans-serif" font-size="9" font-weight="700" fill="#111827">llama.cpp</text><line x1="259" y1="210.4" x2="259" y2="267.1" stroke="#f2b705" stroke-opacity="0.55" stroke-width="1.7"/><line x1="253.24" y1="210.4" x2="264.76" y2="210.4" stroke="#f2b705" stroke-opacity="0.55" stroke-width="1.7"/><line x1="253.24" y1="267.1" x2="264.76" y2="267.1" stroke="#f2b705" stroke-opacity="0.55" stroke-width="1.7"/><rect x="251" y="219.7" width="16" height="15.7" rx="2" fill="#f2b705" fill-opacity="0.08" stroke="#f2b705" stroke-opacity="0.55" stroke-width="1.7"/><line x1="251" y1="229.1" x2="267" y2="229.1" stroke="#f2b705" stroke-opacity="0.55" stroke-width="2.4"/><text x="259" y="291" text-anchor="middle" font-family="Inter,Segoe UI,Arial,sans-serif" font-size="8" fill="#6b7280">128</text><circle cx="256" cy="210.4" r="1.4" fill="#9a6a00" fill-opacity="0.5"/><circle cx="257.5" cy="216.2" r="1.4" fill="#9a6a00" fill-opacity="0.5"/><circle cx="259" cy="223.2" r="1.4" fill="#9a6a00" fill-opacity="0.5"/><circle cx="260.5" cy="229.1" r="1.4" fill="#9a6a00" fill-opacity="0.5"/><circle cx="262" cy="234.0" r="1.4" fill="#9a6a00" fill-opacity="0.5"/><circle cx="256" cy="236.8" r="1.4" fill="#9a6a00" fill-opacity="0.5"/><circle cx="257.5" cy="267.1" r="1.4" fill="#9a6a00" fill-opacity="0.5"/><line x1="289" y1="211.5" x2="289" y2="267.3" stroke="#f2b705" stroke-opacity="0.78" stroke-width="1.7"/><line x1="283.24" y1="211.5" x2="294.76" y2="211.5" stroke="#f2b705" stroke-opacity="0.78" stroke-width="1.7"/><line x1="283.24" y1="267.3" x2="294.76" y2="267.3" stroke="#f2b705" stroke-opacity="0.78" stroke-width="1.7"/><rect x="281" y="222.6" width="16" height="13.8" rx="2" fill="#f2b705" fill-opacity="0.17" stroke="#f2b705" stroke-opacity="0.78" stroke-width="1.7"/><line x1="281" y1="230.4" x2="297" y2="230.4" stroke="#f2b705" stroke-opacity="0.78" stroke-width="2.4"/><text x="289" y="291" text-anchor="middle" font-family="Inter,Segoe UI,Arial,sans-serif" font-size="8" fill="#6b7280">512</text><circle cx="286" cy="211.5" r="1.4" fill="#9a6a00" fill-opacity="0.7"/><circle cx="287.5" cy="220.2" r="1.4" fill="#9a6a00" fill-opacity="0.7"/><circle cx="289" cy="225.0" r="1.4" fill="#9a6a00" fill-opacity="0.7"/><circle cx="290.5" cy="230.4" r="1.4" fill="#9a6a00" fill-opacity="0.7"/><circle cx="292" cy="235.0" r="1.4" fill="#9a6a00" fill-opacity="0.7"/><circle cx="286" cy="237.7" r="1.4" fill="#9a6a00" fill-opacity="0.7"/><circle cx="287.5" cy="267.3" r="1.4" fill="#9a6a00" fill-opacity="0.7"/><line x1="319" y1="214.4" x2="319" y2="267.7" stroke="#f2b705" stroke-opacity="1.0" stroke-width="1.7"/><line x1="313.24" y1="214.4" x2="324.76" y2="214.4" stroke="#f2b705" stroke-opacity="1.0" stroke-width="1.7"/><line x1="313.24" y1="267.7" x2="324.76" y2="267.7" stroke="#f2b705" stroke-opacity="1.0" stroke-width="1.7"/><rect x="311" y="223.2" width="16" height="14.5" rx="2" fill="#f2b705" fill-opacity="0.3" stroke="#f2b705" stroke-opacity="1.0" stroke-width="1.7"/><line x1="311" y1="231.8" x2="327" y2="231.8" stroke="#f2b705" stroke-opacity="1.0" stroke-width="2.4"/><text x="319" y="291" text-anchor="middle" font-family="Inter,Segoe UI,Arial,sans-serif" font-size="8" fill="#6b7280">2048</text><circle cx="316" cy="214.4" r="1.4" fill="#9a6a00" fill-opacity="0.9"/><circle cx="317.5" cy="220.2" r="1.4" fill="#9a6a00" fill-opacity="0.9"/><circle cx="319" cy="226.2" r="1.4" fill="#9a6a00" fill-opacity="0.9"/><circle cx="320.5" cy="231.8" r="1.4" fill="#9a6a00" fill-opacity="0.9"/><circle cx="322" cy="236.0" r="1.4" fill="#9a6a00" fill-opacity="0.9"/><circle cx="316" cy="239.4" r="1.4" fill="#9a6a00" fill-opacity="0.9"/><circle cx="317.5" cy="267.7" r="1.4" fill="#9a6a00" fill-opacity="0.9"/><text x="289" y="308" text-anchor="middle" font-family="Inter,Segoe UI,Arial,sans-serif" font-size="9" font-weight="700" fill="#111827">mlx_lm</text><line x1="417" y1="203.8" x2="417" y2="267.0" stroke="#2eaf5f" stroke-opacity="0.55" stroke-width="1.7"/><line x1="411.24" y1="203.8" x2="422.76" y2="203.8" stroke="#2eaf5f" stroke-opacity="0.55" stroke-width="1.7"/><line x1="411.24" y1="267.0" x2="422.76" y2="267.0" stroke="#2eaf5f" stroke-opacity="0.55" stroke-width="1.7"/><rect x="409" y="215.3" width="16" height="18.0" rx="2" fill="#2eaf5f" fill-opacity="0.08" stroke="#2eaf5f" stroke-opacity="0.55" stroke-width="1.7"/><line x1="409" y1="226.0" x2="425" y2="226.0" stroke="#2eaf5f" stroke-opacity="0.55" stroke-width="2.4"/><text x="417" y="291" text-anchor="middle" font-family="Inter,Segoe UI,Arial,sans-serif" font-size="8" fill="#6b7280">128</text><circle cx="414" cy="203.8" r="1.4" fill="#176c37" fill-opacity="0.5"/><circle cx="415.5" cy="211.7" r="1.4" fill="#176c37" fill-opacity="0.5"/><circle cx="417" cy="218.8" r="1.4" fill="#176c37" fill-opacity="0.5"/><circle cx="418.5" cy="226.0" r="1.4" fill="#176c37" fill-opacity="0.5"/><circle cx="420" cy="231.9" r="1.4" fill="#176c37" fill-opacity="0.5"/><circle cx="414" cy="234.6" r="1.4" fill="#176c37" fill-opacity="0.5"/><circle cx="415.5" cy="267.0" r="1.4" fill="#176c37" fill-opacity="0.5"/><line x1="447" y1="206.6" x2="447" y2="267.2" stroke="#2eaf5f" stroke-opacity="0.78" stroke-width="1.7"/><line x1="441.24" y1="206.6" x2="452.76" y2="206.6" stroke="#2eaf5f" stroke-opacity="0.78" stroke-width="1.7"/><line x1="441.24" y1="267.2" x2="452.76" y2="267.2" stroke="#2eaf5f" stroke-opacity="0.78" stroke-width="1.7"/><rect x="439" y="217.3" width="16" height="16.9" rx="2" fill="#2eaf5f" fill-opacity="0.17" stroke="#2eaf5f" stroke-opacity="0.78" stroke-width="1.7"/><line x1="439" y1="227.4" x2="455" y2="227.4" stroke="#2eaf5f" stroke-opacity="0.78" stroke-width="2.4"/><text x="447" y="291" text-anchor="middle" font-family="Inter,Segoe UI,Arial,sans-serif" font-size="8" fill="#6b7280">512</text><circle cx="444" cy="206.6" r="1.4" fill="#176c37" fill-opacity="0.7"/><circle cx="445.5" cy="213.9" r="1.4" fill="#176c37" fill-opacity="0.7"/><circle cx="447" cy="220.6" r="1.4" fill="#176c37" fill-opacity="0.7"/><circle cx="448.5" cy="227.4" r="1.4" fill="#176c37" fill-opacity="0.7"/><circle cx="450" cy="232.8" r="1.4" fill="#176c37" fill-opacity="0.7"/><circle cx="444" cy="235.6" r="1.4" fill="#176c37" fill-opacity="0.7"/><circle cx="445.5" cy="267.2" r="1.4" fill="#176c37" fill-opacity="0.7"/><line x1="477" y1="209.7" x2="477" y2="267.6" stroke="#2eaf5f" stroke-opacity="1.0" stroke-width="1.7"/><line x1="471.24" y1="209.7" x2="482.76" y2="209.7" stroke="#2eaf5f" stroke-opacity="1.0" stroke-width="1.7"/><line x1="471.24" y1="267.6" x2="482.76" y2="267.6" stroke="#2eaf5f" stroke-opacity="1.0" stroke-width="1.7"/><rect x="469" y="219.6" width="16" height="15.7" rx="2" fill="#2eaf5f" fill-opacity="0.3" stroke="#2eaf5f" stroke-opacity="1.0" stroke-width="1.7"/><line x1="469" y1="228.8" x2="485" y2="228.8" stroke="#2eaf5f" stroke-opacity="1.0" stroke-width="2.4"/><text x="477" y="291" text-anchor="middle" font-family="Inter,Segoe UI,Arial,sans-serif" font-size="8" fill="#6b7280">2048</text><circle cx="474" cy="209.7" r="1.4" fill="#176c37" fill-opacity="0.9"/><circle cx="475.5" cy="216.5" r="1.4" fill="#176c37" fill-opacity="0.9"/><circle cx="477" cy="222.6" r="1.4" fill="#176c37" fill-opacity="0.9"/><circle cx="478.5" cy="228.8" r="1.4" fill="#176c37" fill-opacity="0.9"/><circle cx="480" cy="233.7" r="1.4" fill="#176c37" fill-opacity="0.9"/><circle cx="474" cy="236.9" r="1.4" fill="#176c37" fill-opacity="0.9"/><circle cx="475.5" cy="267.6" r="1.4" fill="#176c37" fill-opacity="0.9"/><text x="447" y="308" text-anchor="middle" font-family="Inter,Segoe UI,Arial,sans-serif" font-size="9" font-weight="700" fill="#111827">ax_engine</text><line x1="575" y1="101.6" x2="575" y2="257.1" stroke="#137a3d" stroke-opacity="0.55" stroke-width="1.7"/><line x1="569.24" y1="101.6" x2="580.76" y2="101.6" stroke="#137a3d" stroke-opacity="0.55" stroke-width="1.7"/><line x1="569.24" y1="257.1" x2="580.76" y2="257.1" stroke="#137a3d" stroke-opacity="0.55" stroke-width="1.7"/><rect x="567" y="140.5" width="16" height="75.8" rx="2" fill="#137a3d" fill-opacity="0.08" stroke="#137a3d" stroke-opacity="0.55" stroke-width="1.7"/><line x1="567" y1="149.1" x2="583" y2="149.1" stroke="#137a3d" stroke-opacity="0.55" stroke-width="2.4"/><text x="575" y="291" text-anchor="middle" font-family="Inter,Segoe UI,Arial,sans-serif" font-size="8" fill="#6b7280">128</text><circle cx="572" cy="101.6" r="1.4" fill="#0b4f28" fill-opacity="0.5"/><circle cx="573.5" cy="137.5" r="1.4" fill="#0b4f28" fill-opacity="0.5"/><circle cx="575" cy="149.1" r="1.4" fill="#0b4f28" fill-opacity="0.5"/><circle cx="576.5" cy="143.6" r="1.4" fill="#0b4f28" fill-opacity="0.5"/><circle cx="578" cy="231.4" r="1.4" fill="#0b4f28" fill-opacity="0.5"/><circle cx="572" cy="201.2" r="1.4" fill="#0b4f28" fill-opacity="0.5"/><circle cx="573.5" cy="257.1" r="1.4" fill="#0b4f28" fill-opacity="0.5"/><line x1="605" y1="114.4" x2="605" y2="257.5" stroke="#137a3d" stroke-opacity="0.78" stroke-width="1.7"/><line x1="599.24" y1="114.4" x2="610.76" y2="114.4" stroke="#137a3d" stroke-opacity="0.78" stroke-width="1.7"/><line x1="599.24" y1="257.5" x2="610.76" y2="257.5" stroke="#137a3d" stroke-opacity="0.78" stroke-width="1.7"/><rect x="597" y="150.3" width="16" height="47.6" rx="2" fill="#137a3d" fill-opacity="0.17" stroke="#137a3d" stroke-opacity="0.78" stroke-width="1.7"/><line x1="597" y1="164.4" x2="613" y2="164.4" stroke="#137a3d" stroke-opacity="0.78" stroke-width="2.4"/><text x="605" y="291" text-anchor="middle" font-family="Inter,Segoe UI,Arial,sans-serif" font-size="8" fill="#6b7280">512</text><circle cx="602" cy="114.4" r="1.4" fill="#0b4f28" fill-opacity="0.7"/><circle cx="603.5" cy="148.7" r="1.4" fill="#0b4f28" fill-opacity="0.7"/><circle cx="605" cy="164.4" r="1.4" fill="#0b4f28" fill-opacity="0.7"/><circle cx="606.5" cy="151.8" r="1.4" fill="#0b4f28" fill-opacity="0.7"/><circle cx="608" cy="176.5" r="1.4" fill="#0b4f28" fill-opacity="0.7"/><circle cx="602" cy="219.3" r="1.4" fill="#0b4f28" fill-opacity="0.7"/><circle cx="603.5" cy="257.5" r="1.4" fill="#0b4f28" fill-opacity="0.7"/><line x1="635" y1="126.6" x2="635" y2="259.0" stroke="#137a3d" stroke-opacity="1.0" stroke-width="1.7"/><line x1="629.24" y1="126.6" x2="640.76" y2="126.6" stroke="#137a3d" stroke-opacity="1.0" stroke-width="1.7"/><line x1="629.24" y1="259.0" x2="640.76" y2="259.0" stroke="#137a3d" stroke-opacity="1.0" stroke-width="1.7"/><rect x="627" y="151.3" width="16" height="39.1" rx="2" fill="#137a3d" fill-opacity="0.3" stroke="#137a3d" stroke-opacity="1.0" stroke-width="1.7"/><line x1="627" y1="161.2" x2="643" y2="161.2" stroke="#137a3d" stroke-opacity="1.0" stroke-width="2.4"/><text x="635" y="291" text-anchor="middle" font-family="Inter,Segoe UI,Arial,sans-serif" font-size="8" fill="#6b7280">2048</text><circle cx="632" cy="126.6" r="1.4" fill="#0b4f28" fill-opacity="0.9"/><circle cx="633.5" cy="149.1" r="1.4" fill="#0b4f28" fill-opacity="0.9"/><circle cx="635" cy="161.2" r="1.4" fill="#0b4f28" fill-opacity="0.9"/><circle cx="636.5" cy="153.4" r="1.4" fill="#0b4f28" fill-opacity="0.9"/><circle cx="638" cy="177.0" r="1.4" fill="#0b4f28" fill-opacity="0.9"/><circle cx="632" cy="203.7" r="1.4" fill="#0b4f28" fill-opacity="0.9"/><circle cx="633.5" cy="259.0" r="1.4" fill="#0b4f28" fill-opacity="0.9"/><text x="605" y="308" text-anchor="middle" font-family="Inter,Segoe UI,Arial,sans-serif" font-size="9" font-weight="700" fill="#111827">ax+n-gram</text></svg>
