<svg xmlns="http://www.w3.org/2000/svg" width="900" height="460" viewBox="0 0 900 460" role="img" aria-labelledby="title desc">
<title>Qwen3.6 27B 4-bit MTP decode throughput</title>
<desc>Grouped box-and-whisker plot comparing MTPLX 0.3.7, Lightning v0.6.10, Lightning+ng v0.6.10, AX Engine v5.1.1, AX+ngram v5.1.1 across F, L, P.</desc>
<rect width="100%" height="100%" fill="#f8fafc"/>
<text x="24" y="24" font-family="Inter,Segoe UI,Arial,sans-serif" font-size="16" font-weight="700" fill="#111827">Qwen3.6 27B 4-bit MTP decode throughput</text>
<text x="24" y="46" font-family="Inter,Segoe UI,Arial,sans-serif" font-size="11" fill="#4b5563">F=flappy · L=long_code · P=python_modules | box=IQR | whiskers=min/max | dots=runs</text>
<text x="24" y="62" font-family="Inter,Segoe UI,Arial,sans-serif" font-size="10" fill="#6b7280">MTPLX 0.3.7 · Lightning-MLX 0.6.10 · AX Engine v5.1.1</text>
<rect x="807" y="13" width="59" height="22" rx="11" fill="#eef2ff" stroke="#c7d2fe"/>
<text x="836.5" y="28" text-anchor="middle" font-family="Inter,Segoe UI,Arial,sans-serif" font-size="10" font-weight="700" fill="#3730a3">tok/s</text>
<text x="866" y="52" text-anchor="end" font-family="Inter,Segoe UI,Arial,sans-serif" font-size="10" font-weight="700" fill="#374151">Higher is better</text>
<rect x="64" y="86" width="676" height="268" rx="6" fill="#ffffff" stroke="#dbe3ef"/>
<line x1="64" y1="354.0" x2="740" y2="354.0" stroke="#e5e7eb" stroke-width="1"/>
<text x="56" y="357.0" text-anchor="end" font-family="Inter,Segoe UI,Arial,sans-serif" font-size="11" fill="#6b7280">0.0</text>
<line x1="64" y1="287.0" x2="740" y2="287.0" stroke="#e5e7eb" stroke-width="1"/>
<text x="56" y="290.0" text-anchor="end" font-family="Inter,Segoe UI,Arial,sans-serif" font-size="11" fill="#6b7280">20</text>
<line x1="64" y1="220.0" x2="740" y2="220.0" stroke="#e5e7eb" stroke-width="1"/>
<text x="56" y="223.0" text-anchor="end" font-family="Inter,Segoe UI,Arial,sans-serif" font-size="11" fill="#6b7280">40</text>
<line x1="64" y1="153.0" x2="740" y2="153.0" stroke="#e5e7eb" stroke-width="1"/>
<text x="56" y="156.0" text-anchor="end" font-family="Inter,Segoe UI,Arial,sans-serif" font-size="11" fill="#6b7280">60</text>
<line x1="64" y1="86.0" x2="740" y2="86.0" stroke="#e5e7eb" stroke-width="1"/>
<text x="56" y="89.0" text-anchor="end" font-family="Inter,Segoe UI,Arial,sans-serif" font-size="11" fill="#6b7280">80</text>
<line x1="64" y1="97.8" x2="740" y2="97.8" stroke="#dc2626" stroke-width="1.2" stroke-dasharray="1 4" stroke-linecap="round"/>
<text x="748" y="97.0" text-anchor="start" font-family="Inter,Segoe UI,Arial,sans-serif" font-size="11" font-weight="700" fill="#dc2626" data-label="highest median">highest: 76.5</text>
<text x="176.7" y="398" text-anchor="middle" font-family="Inter,Segoe UI,Arial,sans-serif" font-size="11" font-weight="700" fill="#111827">F</text>
<circle cx="95.8" cy="158.3" r="1.45" fill="#14532d" fill-opacity="0.46"/>
<circle cx="98.3" cy="156.5" r="1.45" fill="#14532d" fill-opacity="0.46"/>
<circle cx="100.8" cy="157.5" r="1.45" fill="#14532d" fill-opacity="0.46"/>
<circle cx="103.3" cy="157.8" r="1.45" fill="#14532d" fill-opacity="0.46"/>
<circle cx="105.7" cy="157.4" r="1.45" fill="#14532d" fill-opacity="0.46"/>
<circle cx="108.2" cy="157.8" r="1.45" fill="#14532d" fill-opacity="0.46"/>
<circle cx="110.7" cy="157.7" r="1.45" fill="#14532d" fill-opacity="0.46"/>
<circle cx="113.1" cy="156.7" r="1.45" fill="#14532d" fill-opacity="0.46"/>
<circle cx="115.6" cy="156.7" r="1.45" fill="#14532d" fill-opacity="0.46"/>
<circle cx="95.8" cy="157.3" r="1.45" fill="#14532d" fill-opacity="0.46"/>
<circle cx="98.3" cy="156.6" r="1.45" fill="#14532d" fill-opacity="0.46"/>
<circle cx="100.8" cy="157.2" r="1.45" fill="#14532d" fill-opacity="0.46"/>
<circle cx="103.3" cy="157.4" r="1.45" fill="#14532d" fill-opacity="0.46"/>
<circle cx="105.7" cy="156.7" r="1.45" fill="#14532d" fill-opacity="0.46"/>
<circle cx="108.2" cy="156.2" r="1.45" fill="#14532d" fill-opacity="0.46"/>
<circle cx="110.7" cy="156.1" r="1.45" fill="#14532d" fill-opacity="0.46"/>
<circle cx="113.1" cy="156.0" r="1.45" fill="#14532d" fill-opacity="0.46"/>
<circle cx="115.6" cy="156.7" r="1.45" fill="#14532d" fill-opacity="0.46"/>
<circle cx="95.8" cy="156.1" r="1.45" fill="#14532d" fill-opacity="0.46"/>
<circle cx="98.3" cy="156.2" r="1.45" fill="#14532d" fill-opacity="0.46"/>
<line x1="105.7" y1="156.0" x2="105.7" y2="158.3" stroke="#14532d" stroke-opacity="0.86" stroke-width="1.8"/>
<line x1="95.8" y1="156.0" x2="115.6" y2="156.0" stroke="#14532d" stroke-opacity="0.86" stroke-width="1.8"/>
<line x1="95.8" y1="158.3" x2="115.6" y2="158.3" stroke="#14532d" stroke-opacity="0.86" stroke-width="1.8"/>
<rect x="92.0" y="156.4" width="27.5" height="1.1" rx="2" fill="#14532d" fill-opacity="0.18" stroke="#14532d" stroke-opacity="0.9" stroke-width="1.8"/>
<line x1="92.0" y1="156.7" x2="119.5" y2="156.7" stroke="#14532d" stroke-opacity="0.96" stroke-width="2.6"/>
<text x="125.5" y="160.7" text-anchor="start" font-family="Inter,Segoe UI,Arial,sans-serif" font-size="11" font-weight="700" fill="#111827" stroke="#ffffff" stroke-width="3" paint-order="stroke">58.9</text>
<circle cx="131.3" cy="121.2" r="1.45" fill="#7c3aed" fill-opacity="0.46"/>
<circle cx="133.8" cy="125.3" r="1.45" fill="#7c3aed" fill-opacity="0.46"/>
<circle cx="136.3" cy="117.1" r="1.45" fill="#7c3aed" fill-opacity="0.46"/>
<circle cx="138.7" cy="119.0" r="1.45" fill="#7c3aed" fill-opacity="0.46"/>
<circle cx="141.2" cy="117.7" r="1.45" fill="#7c3aed" fill-opacity="0.46"/>
<circle cx="143.7" cy="117.0" r="1.45" fill="#7c3aed" fill-opacity="0.46"/>
<circle cx="146.1" cy="111.0" r="1.45" fill="#7c3aed" fill-opacity="0.46"/>
<circle cx="148.6" cy="117.6" r="1.45" fill="#7c3aed" fill-opacity="0.46"/>
<circle cx="151.1" cy="123.6" r="1.45" fill="#7c3aed" fill-opacity="0.46"/>
<circle cx="131.3" cy="117.4" r="1.45" fill="#7c3aed" fill-opacity="0.46"/>
<circle cx="133.8" cy="116.4" r="1.45" fill="#7c3aed" fill-opacity="0.46"/>
<circle cx="136.3" cy="126.7" r="1.45" fill="#7c3aed" fill-opacity="0.46"/>
<circle cx="138.7" cy="116.6" r="1.45" fill="#7c3aed" fill-opacity="0.46"/>
<circle cx="141.2" cy="123.7" r="1.45" fill="#7c3aed" fill-opacity="0.46"/>
<line x1="141.2" y1="111.0" x2="141.2" y2="126.7" stroke="#7c3aed" stroke-opacity="0.86" stroke-width="1.8"/>
<line x1="131.3" y1="111.0" x2="151.1" y2="111.0" stroke="#7c3aed" stroke-opacity="0.86" stroke-width="1.8"/>
<line x1="131.3" y1="126.7" x2="151.1" y2="126.7" stroke="#7c3aed" stroke-opacity="0.86" stroke-width="1.8"/>
<rect x="127.5" y="117.0" width="27.5" height="6.0" rx="2" fill="#7c3aed" fill-opacity="0.18" stroke="#7c3aed" stroke-opacity="0.9" stroke-width="1.8"/>
<line x1="127.5" y1="117.7" x2="154.9" y2="117.7" stroke="#7c3aed" stroke-opacity="0.96" stroke-width="2.6"/>
<text x="160.9" y="121.7" text-anchor="start" font-family="Inter,Segoe UI,Arial,sans-serif" font-size="11" font-weight="700" fill="#111827" stroke="#ffffff" stroke-width="3" paint-order="stroke">70.5</text>
<circle cx="166.8" cy="132.6" r="1.45" fill="#1e3a8a" fill-opacity="0.46"/>
<circle cx="169.3" cy="131.2" r="1.45" fill="#1e3a8a" fill-opacity="0.46"/>
<circle cx="171.7" cy="103.6" r="1.45" fill="#1e3a8a" fill-opacity="0.46"/>
<circle cx="174.2" cy="122.2" r="1.45" fill="#1e3a8a" fill-opacity="0.46"/>
<circle cx="176.7" cy="126.9" r="1.45" fill="#1e3a8a" fill-opacity="0.46"/>
<circle cx="179.1" cy="132.4" r="1.45" fill="#1e3a8a" fill-opacity="0.46"/>
<circle cx="181.6" cy="124.4" r="1.45" fill="#1e3a8a" fill-opacity="0.46"/>
<circle cx="184.1" cy="126.7" r="1.45" fill="#1e3a8a" fill-opacity="0.46"/>
<circle cx="186.6" cy="102.9" r="1.45" fill="#1e3a8a" fill-opacity="0.46"/>
<circle cx="166.8" cy="130.4" r="1.45" fill="#1e3a8a" fill-opacity="0.46"/>
<circle cx="169.3" cy="133.0" r="1.45" fill="#1e3a8a" fill-opacity="0.46"/>
<line x1="176.7" y1="102.9" x2="176.7" y2="133.0" stroke="#1e3a8a" stroke-opacity="0.86" stroke-width="1.8"/>
<line x1="166.8" y1="102.9" x2="186.6" y2="102.9" stroke="#1e3a8a" stroke-opacity="0.86" stroke-width="1.8"/>
<line x1="166.8" y1="133.0" x2="186.6" y2="133.0" stroke="#1e3a8a" stroke-opacity="0.86" stroke-width="1.8"/>
<rect x="162.9" y="123.3" width="27.5" height="8.5" rx="2" fill="#1e3a8a" fill-opacity="0.18" stroke="#1e3a8a" stroke-opacity="0.9" stroke-width="1.8"/>
<line x1="162.9" y1="126.9" x2="190.4" y2="126.9" stroke="#1e3a8a" stroke-opacity="0.96" stroke-width="2.6"/>
<text x="196.4" y="130.9" text-anchor="start" font-family="Inter,Segoe UI,Arial,sans-serif" font-size="11" font-weight="700" fill="#111827" stroke="#ffffff" stroke-width="3" paint-order="stroke">67.8</text>
<circle cx="202.2" cy="133.0" r="1.45" fill="#f97316" fill-opacity="0.46"/>
<circle cx="204.7" cy="147.6" r="1.45" fill="#f97316" fill-opacity="0.46"/>
<circle cx="207.2" cy="136.4" r="1.45" fill="#f97316" fill-opacity="0.46"/>
<circle cx="209.7" cy="136.3" r="1.45" fill="#f97316" fill-opacity="0.46"/>
<line x1="212.1" y1="133.0" x2="212.1" y2="147.6" stroke="#f97316" stroke-opacity="0.86" stroke-width="1.8"/>
<line x1="202.2" y1="133.0" x2="222.0" y2="133.0" stroke="#f97316" stroke-opacity="0.86" stroke-width="1.8"/>
<line x1="202.2" y1="147.6" x2="222.0" y2="147.6" stroke="#f97316" stroke-opacity="0.86" stroke-width="1.8"/>
<rect x="198.4" y="135.4" width="27.5" height="3.8" rx="2" fill="#f97316" fill-opacity="0.18" stroke="#f97316" stroke-opacity="0.9" stroke-width="1.8"/>
<line x1="198.4" y1="136.3" x2="225.9" y2="136.3" stroke="#f97316" stroke-opacity="0.96" stroke-width="2.6"/>
<text x="231.9" y="140.3" text-anchor="start" font-family="Inter,Segoe UI,Arial,sans-serif" font-size="11" font-weight="700" fill="#111827" stroke="#ffffff" stroke-width="3" paint-order="stroke">65.0</text>
<circle cx="237.7" cy="119.9" r="1.45" fill="#eab308" fill-opacity="0.46"/>
<circle cx="240.2" cy="138.4" r="1.45" fill="#eab308" fill-opacity="0.46"/>
<circle cx="242.7" cy="138.5" r="1.45" fill="#eab308" fill-opacity="0.46"/>
<circle cx="245.1" cy="134.1" r="1.45" fill="#eab308" fill-opacity="0.46"/>
<line x1="247.6" y1="119.9" x2="247.6" y2="138.5" stroke="#eab308" stroke-opacity="0.86" stroke-width="1.8"/>
<line x1="237.7" y1="119.9" x2="257.5" y2="119.9" stroke="#eab308" stroke-opacity="0.86" stroke-width="1.8"/>
<line x1="237.7" y1="138.5" x2="257.5" y2="138.5" stroke="#eab308" stroke-opacity="0.86" stroke-width="1.8"/>
<rect x="233.9" y="130.5" width="27.5" height="7.9" rx="2" fill="#eab308" fill-opacity="0.18" stroke="#eab308" stroke-opacity="0.9" stroke-width="1.8"/>
<line x1="233.9" y1="136.2" x2="261.3" y2="136.2" stroke="#eab308" stroke-opacity="0.96" stroke-width="2.6"/>
<text x="267.3" y="140.2" text-anchor="start" font-family="Inter,Segoe UI,Arial,sans-serif" font-size="11" font-weight="700" fill="#111827" stroke="#ffffff" stroke-width="3" paint-order="stroke">65.0</text>
<text x="402.0" y="398" text-anchor="middle" font-family="Inter,Segoe UI,Arial,sans-serif" font-size="11" font-weight="700" fill="#111827">L</text>
<circle cx="321.2" cy="158.1" r="1.45" fill="#14532d" fill-opacity="0.46"/>
<circle cx="323.7" cy="158.5" r="1.45" fill="#14532d" fill-opacity="0.46"/>
<circle cx="326.1" cy="157.2" r="1.45" fill="#14532d" fill-opacity="0.46"/>
<circle cx="328.6" cy="157.1" r="1.45" fill="#14532d" fill-opacity="0.46"/>
<circle cx="331.1" cy="158.3" r="1.45" fill="#14532d" fill-opacity="0.46"/>
<circle cx="333.5" cy="159.8" r="1.45" fill="#14532d" fill-opacity="0.46"/>
<circle cx="336.0" cy="160.2" r="1.45" fill="#14532d" fill-opacity="0.46"/>
<circle cx="338.5" cy="158.9" r="1.45" fill="#14532d" fill-opacity="0.46"/>
<circle cx="341.0" cy="159.1" r="1.45" fill="#14532d" fill-opacity="0.46"/>
<circle cx="321.2" cy="159.8" r="1.45" fill="#14532d" fill-opacity="0.46"/>
<circle cx="323.7" cy="159.0" r="1.45" fill="#14532d" fill-opacity="0.46"/>
<circle cx="326.1" cy="158.3" r="1.45" fill="#14532d" fill-opacity="0.46"/>
<circle cx="328.6" cy="155.7" r="1.45" fill="#14532d" fill-opacity="0.46"/>
<circle cx="331.1" cy="158.5" r="1.45" fill="#14532d" fill-opacity="0.46"/>
<circle cx="333.5" cy="159.2" r="1.45" fill="#14532d" fill-opacity="0.46"/>
<circle cx="336.0" cy="156.1" r="1.45" fill="#14532d" fill-opacity="0.46"/>
<circle cx="338.5" cy="157.4" r="1.45" fill="#14532d" fill-opacity="0.46"/>
<circle cx="341.0" cy="156.9" r="1.45" fill="#14532d" fill-opacity="0.46"/>
<circle cx="321.2" cy="157.1" r="1.45" fill="#14532d" fill-opacity="0.46"/>
<circle cx="323.7" cy="157.4" r="1.45" fill="#14532d" fill-opacity="0.46"/>
<line x1="331.1" y1="155.7" x2="331.1" y2="160.2" stroke="#14532d" stroke-opacity="0.86" stroke-width="1.8"/>
<line x1="321.2" y1="155.7" x2="341.0" y2="155.7" stroke="#14532d" stroke-opacity="0.86" stroke-width="1.8"/>
<line x1="321.2" y1="160.2" x2="341.0" y2="160.2" stroke="#14532d" stroke-opacity="0.86" stroke-width="1.8"/>
<rect x="317.3" y="157.2" width="27.5" height="1.8" rx="2" fill="#14532d" fill-opacity="0.18" stroke="#14532d" stroke-opacity="0.9" stroke-width="1.8"/>
<line x1="317.3" y1="158.3" x2="344.8" y2="158.3" stroke="#14532d" stroke-opacity="0.96" stroke-width="2.6"/>
<text x="350.8" y="162.3" text-anchor="start" font-family="Inter,Segoe UI,Arial,sans-serif" font-size="11" font-weight="700" fill="#111827" stroke="#ffffff" stroke-width="3" paint-order="stroke">58.4</text>
<circle cx="356.6" cy="118.3" r="1.45" fill="#7c3aed" fill-opacity="0.46"/>
<circle cx="359.1" cy="118.0" r="1.45" fill="#7c3aed" fill-opacity="0.46"/>
<circle cx="361.6" cy="118.0" r="1.45" fill="#7c3aed" fill-opacity="0.46"/>
<circle cx="364.1" cy="108.3" r="1.45" fill="#7c3aed" fill-opacity="0.46"/>
<circle cx="366.5" cy="119.0" r="1.45" fill="#7c3aed" fill-opacity="0.46"/>
<circle cx="369.0" cy="125.0" r="1.45" fill="#7c3aed" fill-opacity="0.46"/>
<circle cx="371.5" cy="115.0" r="1.45" fill="#7c3aed" fill-opacity="0.46"/>
<circle cx="373.9" cy="114.9" r="1.45" fill="#7c3aed" fill-opacity="0.46"/>
<circle cx="376.4" cy="112.5" r="1.45" fill="#7c3aed" fill-opacity="0.46"/>
<circle cx="356.6" cy="124.9" r="1.45" fill="#7c3aed" fill-opacity="0.46"/>
<circle cx="359.1" cy="126.6" r="1.45" fill="#7c3aed" fill-opacity="0.46"/>
<circle cx="361.6" cy="116.8" r="1.45" fill="#7c3aed" fill-opacity="0.46"/>
<circle cx="364.1" cy="118.0" r="1.45" fill="#7c3aed" fill-opacity="0.46"/>
<circle cx="366.5" cy="114.7" r="1.45" fill="#7c3aed" fill-opacity="0.46"/>
<circle cx="369.0" cy="124.7" r="1.45" fill="#7c3aed" fill-opacity="0.46"/>
<circle cx="371.5" cy="131.1" r="1.45" fill="#7c3aed" fill-opacity="0.46"/>
<circle cx="373.9" cy="115.9" r="1.45" fill="#7c3aed" fill-opacity="0.46"/>
<line x1="366.5" y1="108.3" x2="366.5" y2="131.1" stroke="#7c3aed" stroke-opacity="0.86" stroke-width="1.8"/>
<line x1="356.6" y1="108.3" x2="376.4" y2="108.3" stroke="#7c3aed" stroke-opacity="0.86" stroke-width="1.8"/>
<line x1="356.6" y1="131.1" x2="376.4" y2="131.1" stroke="#7c3aed" stroke-opacity="0.86" stroke-width="1.8"/>
<rect x="352.8" y="115.0" width="27.5" height="9.8" rx="2" fill="#7c3aed" fill-opacity="0.18" stroke="#7c3aed" stroke-opacity="0.9" stroke-width="1.8"/>
<line x1="352.8" y1="118.0" x2="380.3" y2="118.0" stroke="#7c3aed" stroke-opacity="0.96" stroke-width="2.6"/>
<text x="386.3" y="122.0" text-anchor="start" font-family="Inter,Segoe UI,Arial,sans-serif" font-size="11" font-weight="700" fill="#111827" stroke="#ffffff" stroke-width="3" paint-order="stroke">70.4</text>
<circle cx="392.1" cy="88.8" r="1.45" fill="#1e3a8a" fill-opacity="0.46"/>
<circle cx="394.6" cy="122.6" r="1.45" fill="#1e3a8a" fill-opacity="0.46"/>
<circle cx="397.1" cy="115.5" r="1.45" fill="#1e3a8a" fill-opacity="0.46"/>
<circle cx="399.5" cy="102.5" r="1.45" fill="#1e3a8a" fill-opacity="0.46"/>
<circle cx="402.0" cy="116.3" r="1.45" fill="#1e3a8a" fill-opacity="0.46"/>
<circle cx="404.5" cy="102.7" r="1.45" fill="#1e3a8a" fill-opacity="0.46"/>
<circle cx="406.9" cy="121.1" r="1.45" fill="#1e3a8a" fill-opacity="0.46"/>
<circle cx="409.4" cy="101.3" r="1.45" fill="#1e3a8a" fill-opacity="0.46"/>
<circle cx="411.9" cy="127.0" r="1.45" fill="#1e3a8a" fill-opacity="0.46"/>
<circle cx="392.1" cy="114.7" r="1.45" fill="#1e3a8a" fill-opacity="0.46"/>
<circle cx="394.6" cy="111.1" r="1.45" fill="#1e3a8a" fill-opacity="0.46"/>
<circle cx="397.1" cy="126.2" r="1.45" fill="#1e3a8a" fill-opacity="0.46"/>
<circle cx="399.5" cy="130.3" r="1.45" fill="#1e3a8a" fill-opacity="0.46"/>
<circle cx="402.0" cy="104.2" r="1.45" fill="#1e3a8a" fill-opacity="0.46"/>
<circle cx="404.5" cy="107.1" r="1.45" fill="#1e3a8a" fill-opacity="0.46"/>
<line x1="402.0" y1="88.8" x2="402.0" y2="130.3" stroke="#1e3a8a" stroke-opacity="0.86" stroke-width="1.8"/>
<line x1="392.1" y1="88.8" x2="411.9" y2="88.8" stroke="#1e3a8a" stroke-opacity="0.86" stroke-width="1.8"/>
<line x1="392.1" y1="130.3" x2="411.9" y2="130.3" stroke="#1e3a8a" stroke-opacity="0.86" stroke-width="1.8"/>
<rect x="388.3" y="103.4" width="27.5" height="18.4" rx="2" fill="#1e3a8a" fill-opacity="0.18" stroke="#1e3a8a" stroke-opacity="0.9" stroke-width="1.8"/>
<line x1="388.3" y1="114.7" x2="415.7" y2="114.7" stroke="#1e3a8a" stroke-opacity="0.96" stroke-width="2.6"/>
<text x="421.7" y="118.7" text-anchor="start" font-family="Inter,Segoe UI,Arial,sans-serif" font-size="11" font-weight="700" fill="#111827" stroke="#ffffff" stroke-width="3" paint-order="stroke">71.4</text>
<circle cx="427.6" cy="147.5" r="1.45" fill="#f97316" fill-opacity="0.46"/>
<circle cx="430.1" cy="142.3" r="1.45" fill="#f97316" fill-opacity="0.46"/>
<circle cx="432.5" cy="143.1" r="1.45" fill="#f97316" fill-opacity="0.46"/>
<circle cx="435.0" cy="135.2" r="1.45" fill="#f97316" fill-opacity="0.46"/>
<line x1="437.5" y1="135.2" x2="437.5" y2="147.5" stroke="#f97316" stroke-opacity="0.86" stroke-width="1.8"/>
<line x1="427.6" y1="135.2" x2="447.4" y2="135.2" stroke="#f97316" stroke-opacity="0.86" stroke-width="1.8"/>
<line x1="427.6" y1="147.5" x2="447.4" y2="147.5" stroke="#f97316" stroke-opacity="0.86" stroke-width="1.8"/>
<rect x="423.7" y="140.5" width="27.5" height="3.7" rx="2" fill="#f97316" fill-opacity="0.18" stroke="#f97316" stroke-opacity="0.9" stroke-width="1.8"/>
<line x1="423.7" y1="142.7" x2="451.2" y2="142.7" stroke="#f97316" stroke-opacity="0.96" stroke-width="2.6"/>
<text x="457.2" y="146.7" text-anchor="start" font-family="Inter,Segoe UI,Arial,sans-serif" font-size="11" font-weight="700" fill="#111827" stroke="#ffffff" stroke-width="3" paint-order="stroke">63.1</text>
<circle cx="463.0" cy="86.7" r="1.45" fill="#eab308" fill-opacity="0.46"/>
<circle cx="465.5" cy="112.5" r="1.45" fill="#eab308" fill-opacity="0.46"/>
<circle cx="468.0" cy="108.9" r="1.45" fill="#eab308" fill-opacity="0.46"/>
<circle cx="470.5" cy="86.0" r="1.45" fill="#eab308" fill-opacity="0.46"/>
<line x1="472.9" y1="86.0" x2="472.9" y2="112.5" stroke="#eab308" stroke-opacity="0.86" stroke-width="1.8"/>
<line x1="463.0" y1="86.0" x2="482.8" y2="86.0" stroke="#eab308" stroke-opacity="0.86" stroke-width="1.8"/>
<line x1="463.0" y1="112.5" x2="482.8" y2="112.5" stroke="#eab308" stroke-opacity="0.86" stroke-width="1.8"/>
<rect x="459.2" y="86.1" width="27.5" height="23.7" rx="2" fill="#eab308" fill-opacity="0.18" stroke="#eab308" stroke-opacity="0.9" stroke-width="1.8"/>
<line x1="459.2" y1="97.8" x2="486.7" y2="97.8" stroke="#eab308" stroke-opacity="0.96" stroke-width="2.6"/>
<text x="492.7" y="101.8" text-anchor="start" font-family="Inter,Segoe UI,Arial,sans-serif" font-size="11" font-weight="700" fill="#111827" stroke="#ffffff" stroke-width="3" paint-order="stroke">76.5</text>
<text x="627.3" y="398" text-anchor="middle" font-family="Inter,Segoe UI,Arial,sans-serif" font-size="11" font-weight="700" fill="#111827">P</text>
<circle cx="546.5" cy="184.5" r="1.45" fill="#14532d" fill-opacity="0.46"/>
<circle cx="549.0" cy="180.6" r="1.45" fill="#14532d" fill-opacity="0.46"/>
<circle cx="551.5" cy="179.0" r="1.45" fill="#14532d" fill-opacity="0.46"/>
<circle cx="553.9" cy="178.3" r="1.45" fill="#14532d" fill-opacity="0.46"/>
<circle cx="556.4" cy="177.4" r="1.45" fill="#14532d" fill-opacity="0.46"/>
<circle cx="558.9" cy="171.1" r="1.45" fill="#14532d" fill-opacity="0.46"/>
<circle cx="561.3" cy="175.0" r="1.45" fill="#14532d" fill-opacity="0.46"/>
<circle cx="563.8" cy="169.9" r="1.45" fill="#14532d" fill-opacity="0.46"/>
<circle cx="566.3" cy="173.3" r="1.45" fill="#14532d" fill-opacity="0.46"/>
<circle cx="546.5" cy="169.1" r="1.45" fill="#14532d" fill-opacity="0.46"/>
<circle cx="549.0" cy="167.1" r="1.45" fill="#14532d" fill-opacity="0.46"/>
<circle cx="551.5" cy="168.4" r="1.45" fill="#14532d" fill-opacity="0.46"/>
<circle cx="553.9" cy="163.5" r="1.45" fill="#14532d" fill-opacity="0.46"/>
<circle cx="556.4" cy="160.3" r="1.45" fill="#14532d" fill-opacity="0.46"/>
<circle cx="558.9" cy="167.8" r="1.45" fill="#14532d" fill-opacity="0.46"/>
<line x1="556.4" y1="160.3" x2="556.4" y2="184.5" stroke="#14532d" stroke-opacity="0.86" stroke-width="1.8"/>
<line x1="546.5" y1="160.3" x2="566.3" y2="160.3" stroke="#14532d" stroke-opacity="0.86" stroke-width="1.8"/>
<line x1="546.5" y1="184.5" x2="566.3" y2="184.5" stroke="#14532d" stroke-opacity="0.86" stroke-width="1.8"/>
<rect x="542.7" y="168.1" width="27.5" height="9.8" rx="2" fill="#14532d" fill-opacity="0.18" stroke="#14532d" stroke-opacity="0.9" stroke-width="1.8"/>
<line x1="542.7" y1="171.1" x2="570.1" y2="171.1" stroke="#14532d" stroke-opacity="0.96" stroke-width="2.6"/>
<text x="576.1" y="175.1" text-anchor="start" font-family="Inter,Segoe UI,Arial,sans-serif" font-size="11" font-weight="700" fill="#111827" stroke="#ffffff" stroke-width="3" paint-order="stroke">54.6</text>
<circle cx="582.0" cy="125.2" r="1.45" fill="#7c3aed" fill-opacity="0.46"/>
<circle cx="584.5" cy="125.2" r="1.45" fill="#7c3aed" fill-opacity="0.46"/>
<circle cx="586.9" cy="113.6" r="1.45" fill="#7c3aed" fill-opacity="0.46"/>
<circle cx="589.4" cy="110.7" r="1.45" fill="#7c3aed" fill-opacity="0.46"/>
<circle cx="591.9" cy="124.7" r="1.45" fill="#7c3aed" fill-opacity="0.46"/>
<circle cx="594.3" cy="120.4" r="1.45" fill="#7c3aed" fill-opacity="0.46"/>
<circle cx="596.8" cy="125.1" r="1.45" fill="#7c3aed" fill-opacity="0.46"/>
<circle cx="599.3" cy="125.6" r="1.45" fill="#7c3aed" fill-opacity="0.46"/>
<circle cx="601.8" cy="125.2" r="1.45" fill="#7c3aed" fill-opacity="0.46"/>
<circle cx="582.0" cy="125.7" r="1.45" fill="#7c3aed" fill-opacity="0.46"/>
<circle cx="584.5" cy="125.2" r="1.45" fill="#7c3aed" fill-opacity="0.46"/>
<circle cx="586.9" cy="126.5" r="1.45" fill="#7c3aed" fill-opacity="0.46"/>
<circle cx="589.4" cy="126.8" r="1.45" fill="#7c3aed" fill-opacity="0.46"/>
<circle cx="591.9" cy="125.5" r="1.45" fill="#7c3aed" fill-opacity="0.46"/>
<circle cx="594.3" cy="127.5" r="1.45" fill="#7c3aed" fill-opacity="0.46"/>
<line x1="591.9" y1="110.7" x2="591.9" y2="127.5" stroke="#7c3aed" stroke-opacity="0.86" stroke-width="1.8"/>
<line x1="582.0" y1="110.7" x2="601.8" y2="110.7" stroke="#7c3aed" stroke-opacity="0.86" stroke-width="1.8"/>
<line x1="582.0" y1="127.5" x2="601.8" y2="127.5" stroke="#7c3aed" stroke-opacity="0.86" stroke-width="1.8"/>
<rect x="578.1" y="124.9" width="27.5" height="1.0" rx="2" fill="#7c3aed" fill-opacity="0.18" stroke="#7c3aed" stroke-opacity="0.9" stroke-width="1.8"/>
<line x1="578.1" y1="125.2" x2="605.6" y2="125.2" stroke="#7c3aed" stroke-opacity="0.96" stroke-width="2.6"/>
<text x="611.6" y="129.2" text-anchor="start" font-family="Inter,Segoe UI,Arial,sans-serif" font-size="11" font-weight="700" fill="#111827" stroke="#ffffff" stroke-width="3" paint-order="stroke">68.3</text>
<circle cx="617.4" cy="122.5" r="1.45" fill="#1e3a8a" fill-opacity="0.46"/>
<circle cx="619.9" cy="112.0" r="1.45" fill="#1e3a8a" fill-opacity="0.46"/>
<circle cx="622.4" cy="123.5" r="1.45" fill="#1e3a8a" fill-opacity="0.46"/>
<circle cx="624.9" cy="110.4" r="1.45" fill="#1e3a8a" fill-opacity="0.46"/>
<circle cx="627.3" cy="130.0" r="1.45" fill="#1e3a8a" fill-opacity="0.46"/>
<circle cx="629.8" cy="111.8" r="1.45" fill="#1e3a8a" fill-opacity="0.46"/>
<circle cx="632.3" cy="121.1" r="1.45" fill="#1e3a8a" fill-opacity="0.46"/>
<circle cx="634.7" cy="119.9" r="1.45" fill="#1e3a8a" fill-opacity="0.46"/>
<circle cx="637.2" cy="115.2" r="1.45" fill="#1e3a8a" fill-opacity="0.46"/>
<circle cx="617.4" cy="125.7" r="1.45" fill="#1e3a8a" fill-opacity="0.46"/>
<circle cx="619.9" cy="121.1" r="1.45" fill="#1e3a8a" fill-opacity="0.46"/>
<circle cx="622.4" cy="107.6" r="1.45" fill="#1e3a8a" fill-opacity="0.46"/>
<circle cx="624.9" cy="135.3" r="1.45" fill="#1e3a8a" fill-opacity="0.46"/>
<circle cx="627.3" cy="130.3" r="1.45" fill="#1e3a8a" fill-opacity="0.46"/>
<circle cx="629.8" cy="116.7" r="1.45" fill="#1e3a8a" fill-opacity="0.46"/>
<line x1="627.3" y1="107.6" x2="627.3" y2="135.3" stroke="#1e3a8a" stroke-opacity="0.86" stroke-width="1.8"/>
<line x1="617.4" y1="107.6" x2="637.2" y2="107.6" stroke="#1e3a8a" stroke-opacity="0.86" stroke-width="1.8"/>
<line x1="617.4" y1="135.3" x2="637.2" y2="135.3" stroke="#1e3a8a" stroke-opacity="0.86" stroke-width="1.8"/>
<rect x="613.6" y="113.6" width="27.5" height="11.0" rx="2" fill="#1e3a8a" fill-opacity="0.18" stroke="#1e3a8a" stroke-opacity="0.9" stroke-width="1.8"/>
<line x1="613.6" y1="121.1" x2="641.1" y2="121.1" stroke="#1e3a8a" stroke-opacity="0.96" stroke-width="2.6"/>
<text x="647.1" y="125.1" text-anchor="start" font-family="Inter,Segoe UI,Arial,sans-serif" font-size="11" font-weight="700" fill="#111827" stroke="#ffffff" stroke-width="3" paint-order="stroke">69.5</text>
<circle cx="652.9" cy="161.9" r="1.45" fill="#f97316" fill-opacity="0.46"/>
<circle cx="655.4" cy="175.0" r="1.45" fill="#f97316" fill-opacity="0.46"/>
<circle cx="657.9" cy="170.3" r="1.45" fill="#f97316" fill-opacity="0.46"/>
<line x1="662.8" y1="161.9" x2="662.8" y2="175.0" stroke="#f97316" stroke-opacity="0.86" stroke-width="1.8"/>
<line x1="652.9" y1="161.9" x2="672.7" y2="161.9" stroke="#f97316" stroke-opacity="0.86" stroke-width="1.8"/>
<line x1="652.9" y1="175.0" x2="672.7" y2="175.0" stroke="#f97316" stroke-opacity="0.86" stroke-width="1.8"/>
<rect x="649.1" y="166.1" width="27.5" height="6.5" rx="2" fill="#f97316" fill-opacity="0.18" stroke="#f97316" stroke-opacity="0.9" stroke-width="1.8"/>
<line x1="649.1" y1="170.3" x2="676.5" y2="170.3" stroke="#f97316" stroke-opacity="0.96" stroke-width="2.6"/>
<text x="682.5" y="174.3" text-anchor="start" font-family="Inter,Segoe UI,Arial,sans-serif" font-size="11" font-weight="700" fill="#111827" stroke="#ffffff" stroke-width="3" paint-order="stroke">54.9</text>
<circle cx="688.4" cy="102.5" r="1.45" fill="#eab308" fill-opacity="0.46"/>
<circle cx="690.9" cy="128.6" r="1.45" fill="#eab308" fill-opacity="0.46"/>
<circle cx="693.3" cy="118.3" r="1.45" fill="#eab308" fill-opacity="0.46"/>
<line x1="698.3" y1="102.5" x2="698.3" y2="128.6" stroke="#eab308" stroke-opacity="0.86" stroke-width="1.8"/>
<line x1="688.4" y1="102.5" x2="708.2" y2="102.5" stroke="#eab308" stroke-opacity="0.86" stroke-width="1.8"/>
<line x1="688.4" y1="128.6" x2="708.2" y2="128.6" stroke="#eab308" stroke-opacity="0.86" stroke-width="1.8"/>
<rect x="684.5" y="110.4" width="27.5" height="13.0" rx="2" fill="#eab308" fill-opacity="0.18" stroke="#eab308" stroke-opacity="0.9" stroke-width="1.8"/>
<line x1="684.5" y1="118.3" x2="712.0" y2="118.3" stroke="#eab308" stroke-opacity="0.96" stroke-width="2.6"/>
<text x="718.0" y="122.3" text-anchor="start" font-family="Inter,Segoe UI,Arial,sans-serif" font-size="11" font-weight="700" fill="#111827" stroke="#ffffff" stroke-width="3" paint-order="stroke">70.3</text>
<rect x="64.0" y="433" width="10" height="10" rx="2" fill="#14532d" fill-opacity="0.72"/>
<text x="78.0" y="442" font-family="Inter,Segoe UI,Arial,sans-serif" font-size="10" fill="#374151">MTPLX 0.3.7</text>
<rect x="199.2" y="433" width="10" height="10" rx="2" fill="#7c3aed" fill-opacity="0.72"/>
<text x="213.2" y="442" font-family="Inter,Segoe UI,Arial,sans-serif" font-size="10" fill="#374151">Lightning v0.6.10</text>
<rect x="334.4" y="433" width="10" height="10" rx="2" fill="#1e3a8a" fill-opacity="0.72"/>
<text x="348.4" y="442" font-family="Inter,Segoe UI,Arial,sans-serif" font-size="10" fill="#374151">Lightning+ng v0.6.10</text>
<rect x="469.6" y="433" width="10" height="10" rx="2" fill="#f97316" fill-opacity="0.72"/>
<text x="483.6" y="442" font-family="Inter,Segoe UI,Arial,sans-serif" font-size="10" fill="#374151">AX Engine v5.1.1</text>
<rect x="604.8" y="433" width="10" height="10" rx="2" fill="#eab308" fill-opacity="0.72"/>
<text x="618.8" y="442" font-family="Inter,Segoe UI,Arial,sans-serif" font-size="10" fill="#374151">AX+ngram v5.1.1</text>
</svg>
