<svg xmlns="http://www.w3.org/2000/svg" width="920" height="420" viewBox="0 0 920 420" role="img" aria-labelledby="title desc">
<title>Gemma 4 12B multimodal prefill throughput</title>
<desc>AX Engine native MLX, expanded prompt includes soft tokens 17 measured case(s).</desc>
<rect width="100%" height="100%" fill="#f8fafc"/>
<text id="title" x="82" y="28" font-family="Inter,Segoe UI,Arial,sans-serif" font-size="16" font-weight="700" fill="#111827">Gemma 4 12B multimodal prefill throughput</text>
<text x="82" y="48" font-family="Inter,Segoe UI,Arial,sans-serif" font-size="11" fill="#4b5563">AX Engine native MLX, expanded prompt includes soft tokens</text>
<text x="888" y="31" text-anchor="end" font-family="Inter,Segoe UI,Arial,sans-serif" font-size="10" font-weight="700" fill="#374151">Higher is better</text>
<rect x="82" y="82" width="668" height="226" rx="6" fill="#ffffff" stroke="#dbe3ef"/>
<line x1="82" y1="308.0" x2="750" y2="308.0" stroke="#e5e7eb" stroke-width="1"/>
<text x="72" y="312.0" text-anchor="end" font-family="Inter,Segoe UI,Arial,sans-serif" font-size="11" fill="#6b7280">0.00</text>
<line x1="82" y1="251.5" x2="750" y2="251.5" stroke="#e5e7eb" stroke-width="1"/>
<text x="72" y="255.5" text-anchor="end" font-family="Inter,Segoe UI,Arial,sans-serif" font-size="11" fill="#6b7280">625.0</text>
<line x1="82" y1="195.0" x2="750" y2="195.0" stroke="#e5e7eb" stroke-width="1"/>
<text x="72" y="199.0" text-anchor="end" font-family="Inter,Segoe UI,Arial,sans-serif" font-size="11" fill="#6b7280">1,250</text>
<line x1="82" y1="138.5" x2="750" y2="138.5" stroke="#e5e7eb" stroke-width="1"/>
<text x="72" y="142.5" text-anchor="end" font-family="Inter,Segoe UI,Arial,sans-serif" font-size="11" fill="#6b7280">1,875</text>
<line x1="82" y1="82.0" x2="750" y2="82.0" stroke="#e5e7eb" stroke-width="1"/>
<text x="72" y="86.0" text-anchor="end" font-family="Inter,Segoe UI,Arial,sans-serif" font-size="11" fill="#6b7280">2,500</text>
<rect x="94.0" y="174.2" width="26.6" height="133.8" rx="4" fill="#2eaf5f" fill-opacity="0.28" stroke="#176c37" stroke-width="1.6"/>
<line x1="94.0" y1="174.2" x2="120.6" y2="174.2" stroke="#176c37" stroke-width="2"/>
<line x1="107.3" y1="174.2" x2="107.3" y2="174.6" stroke="#111827" stroke-width="1.2"/>
<line x1="99.3" y1="174.2" x2="115.3" y2="174.2" stroke="#111827" stroke-width="1.2"/>
<line x1="99.3" y1="174.6" x2="115.3" y2="174.6" stroke="#111827" stroke-width="1.2"/>
<text x="107.3" y="167.2" text-anchor="middle" font-family="Inter,Segoe UI,Arial,sans-serif" font-size="10" font-weight="700" fill="#111827">1,480</text>
<text x="107.3" y="326.0" text-anchor="middle" font-family="Inter,Segoe UI,Arial,sans-serif" font-size="9" fill="#111827" transform="rotate(45 107.3 326.0)">image_single_256soft</text>
<rect x="132.6" y="154.3" width="26.6" height="153.7" rx="4" fill="#2eaf5f" fill-opacity="0.28" stroke="#176c37" stroke-width="1.6"/>
<line x1="132.6" y1="154.3" x2="159.2" y2="154.3" stroke="#176c37" stroke-width="2"/>
<line x1="145.9" y1="153.9" x2="145.9" y2="155.7" stroke="#111827" stroke-width="1.2"/>
<line x1="137.9" y1="153.9" x2="153.9" y2="153.9" stroke="#111827" stroke-width="1.2"/>
<line x1="137.9" y1="155.7" x2="153.9" y2="155.7" stroke="#111827" stroke-width="1.2"/>
<text x="145.9" y="147.3" text-anchor="middle" font-family="Inter,Segoe UI,Arial,sans-serif" font-size="10" font-weight="700" fill="#111827">1,700</text>
<text x="145.9" y="326.0" text-anchor="middle" font-family="Inter,Segoe UI,Arial,sans-serif" font-size="9" fill="#111827" transform="rotate(45 145.9 326.0)">image_multi_2x256soft</text>
<rect x="171.2" y="176.6" width="26.6" height="131.4" rx="4" fill="#2eaf5f" fill-opacity="0.28" stroke="#176c37" stroke-width="1.6"/>
<line x1="171.2" y1="176.6" x2="197.8" y2="176.6" stroke="#176c37" stroke-width="2"/>
<line x1="184.5" y1="176.5" x2="184.5" y2="177.2" stroke="#111827" stroke-width="1.2"/>
<line x1="176.5" y1="176.5" x2="192.5" y2="176.5" stroke="#111827" stroke-width="1.2"/>
<line x1="176.5" y1="177.2" x2="192.5" y2="177.2" stroke="#111827" stroke-width="1.2"/>
<text x="184.5" y="169.6" text-anchor="middle" font-family="Inter,Segoe UI,Arial,sans-serif" font-size="10" font-weight="700" fill="#111827">1,454</text>
<text x="184.5" y="326.0" text-anchor="middle" font-family="Inter,Segoe UI,Arial,sans-serif" font-size="9" fill="#111827" transform="rotate(45 184.5 326.0)">image_aspect_portrait</text>
<rect x="209.8" y="176.4" width="26.6" height="131.6" rx="4" fill="#2eaf5f" fill-opacity="0.28" stroke="#176c37" stroke-width="1.6"/>
<line x1="209.8" y1="176.4" x2="236.4" y2="176.4" stroke="#176c37" stroke-width="2"/>
<line x1="223.1" y1="176.3" x2="223.1" y2="176.9" stroke="#111827" stroke-width="1.2"/>
<line x1="215.1" y1="176.3" x2="231.1" y2="176.3" stroke="#111827" stroke-width="1.2"/>
<line x1="215.1" y1="176.9" x2="231.1" y2="176.9" stroke="#111827" stroke-width="1.2"/>
<text x="223.1" y="169.4" text-anchor="middle" font-family="Inter,Segoe UI,Arial,sans-serif" font-size="10" font-weight="700" fill="#111827">1,456</text>
<text x="223.1" y="326.0" text-anchor="middle" font-family="Inter,Segoe UI,Arial,sans-serif" font-size="9" fill="#111827" transform="rotate(45 223.1 326.0)">image_aspect_landscape</text>
<rect x="248.4" y="176.9" width="26.6" height="131.1" rx="4" fill="#2eaf5f" fill-opacity="0.28" stroke="#176c37" stroke-width="1.6"/>
<line x1="248.4" y1="176.9" x2="274.9" y2="176.9" stroke="#176c37" stroke-width="2"/>
<line x1="261.6" y1="176.4" x2="261.6" y2="176.9" stroke="#111827" stroke-width="1.2"/>
<line x1="253.6" y1="176.4" x2="269.6" y2="176.4" stroke="#111827" stroke-width="1.2"/>
<line x1="253.6" y1="176.9" x2="269.6" y2="176.9" stroke="#111827" stroke-width="1.2"/>
<text x="261.6" y="169.9" text-anchor="middle" font-family="Inter,Segoe UI,Arial,sans-serif" font-size="10" font-weight="700" fill="#111827">1,450</text>
<text x="261.6" y="326.0" text-anchor="middle" font-family="Inter,Segoe UI,Arial,sans-serif" font-size="9" fill="#111827" transform="rotate(45 261.6 326.0)">image_max_soft_tokens</text>
<rect x="286.9" y="270.1" width="26.6" height="37.9" rx="4" fill="#2eaf5f" fill-opacity="0.28" stroke="#176c37" stroke-width="1.6"/>
<line x1="286.9" y1="270.1" x2="313.5" y2="270.1" stroke="#176c37" stroke-width="2"/>
<line x1="300.2" y1="269.7" x2="300.2" y2="270.2" stroke="#111827" stroke-width="1.2"/>
<line x1="292.2" y1="269.7" x2="308.2" y2="269.7" stroke="#111827" stroke-width="1.2"/>
<line x1="292.2" y1="270.2" x2="308.2" y2="270.2" stroke="#111827" stroke-width="1.2"/>
<text x="300.2" y="263.1" text-anchor="middle" font-family="Inter,Segoe UI,Arial,sans-serif" font-size="10" font-weight="700" fill="#111827">419.4</text>
<text x="300.2" y="326.0" text-anchor="middle" font-family="Inter,Segoe UI,Arial,sans-serif" font-size="9" fill="#111827" transform="rotate(45 300.2 326.0)">audio_0_5s</text>
<rect x="325.5" y="245.0" width="26.6" height="63.0" rx="4" fill="#2eaf5f" fill-opacity="0.28" stroke="#176c37" stroke-width="1.6"/>
<line x1="325.5" y1="245.0" x2="352.1" y2="245.0" stroke="#176c37" stroke-width="2"/>
<line x1="338.8" y1="244.9" x2="338.8" y2="245.2" stroke="#111827" stroke-width="1.2"/>
<line x1="330.8" y1="244.9" x2="346.8" y2="244.9" stroke="#111827" stroke-width="1.2"/>
<line x1="330.8" y1="245.2" x2="346.8" y2="245.2" stroke="#111827" stroke-width="1.2"/>
<text x="338.8" y="238.0" text-anchor="middle" font-family="Inter,Segoe UI,Arial,sans-serif" font-size="10" font-weight="700" fill="#111827">697.0</text>
<text x="338.8" y="326.0" text-anchor="middle" font-family="Inter,Segoe UI,Arial,sans-serif" font-size="9" fill="#111827" transform="rotate(45 338.8 326.0)">audio_2s</text>
<rect x="364.1" y="174.8" width="26.6" height="133.2" rx="4" fill="#2eaf5f" fill-opacity="0.28" stroke="#176c37" stroke-width="1.6"/>
<line x1="364.1" y1="174.8" x2="390.7" y2="174.8" stroke="#176c37" stroke-width="2"/>
<line x1="377.4" y1="174.8" x2="377.4" y2="174.9" stroke="#111827" stroke-width="1.2"/>
<line x1="369.4" y1="174.8" x2="385.4" y2="174.8" stroke="#111827" stroke-width="1.2"/>
<line x1="369.4" y1="174.9" x2="385.4" y2="174.9" stroke="#111827" stroke-width="1.2"/>
<text x="377.4" y="167.8" text-anchor="middle" font-family="Inter,Segoe UI,Arial,sans-serif" font-size="10" font-weight="700" fill="#111827">1,473</text>
<text x="377.4" y="326.0" text-anchor="middle" font-family="Inter,Segoe UI,Arial,sans-serif" font-size="9" fill="#111827" transform="rotate(45 377.4 326.0)">audio_10s</text>
<rect x="402.7" y="141.5" width="26.6" height="166.5" rx="4" fill="#2eaf5f" fill-opacity="0.28" stroke="#176c37" stroke-width="1.6"/>
<line x1="402.7" y1="141.5" x2="429.3" y2="141.5" stroke="#176c37" stroke-width="2"/>
<line x1="416.0" y1="141.3" x2="416.0" y2="141.5" stroke="#111827" stroke-width="1.2"/>
<line x1="408.0" y1="141.3" x2="424.0" y2="141.3" stroke="#111827" stroke-width="1.2"/>
<line x1="408.0" y1="141.5" x2="424.0" y2="141.5" stroke="#111827" stroke-width="1.2"/>
<text x="416.0" y="134.5" text-anchor="middle" font-family="Inter,Segoe UI,Arial,sans-serif" font-size="10" font-weight="700" fill="#111827">1,842</text>
<text x="416.0" y="326.0" text-anchor="middle" font-family="Inter,Segoe UI,Arial,sans-serif" font-size="9" fill="#111827" transform="rotate(45 416.0 326.0)">audio_cap</text>
<rect x="441.3" y="229.4" width="26.6" height="78.6" rx="4" fill="#2eaf5f" fill-opacity="0.28" stroke="#176c37" stroke-width="1.6"/>
<line x1="441.3" y1="229.4" x2="467.9" y2="229.4" stroke="#176c37" stroke-width="2"/>
<line x1="454.6" y1="229.3" x2="454.6" y2="229.5" stroke="#111827" stroke-width="1.2"/>
<line x1="446.6" y1="229.3" x2="462.6" y2="229.3" stroke="#111827" stroke-width="1.2"/>
<line x1="446.6" y1="229.5" x2="462.6" y2="229.5" stroke="#111827" stroke-width="1.2"/>
<text x="454.6" y="222.4" text-anchor="middle" font-family="Inter,Segoe UI,Arial,sans-serif" font-size="10" font-weight="700" fill="#111827">869.8</text>
<text x="454.6" y="326.0" text-anchor="middle" font-family="Inter,Segoe UI,Arial,sans-serif" font-size="9" fill="#111827" transform="rotate(45 454.6 326.0)">video_1frame</text>
<rect x="479.9" y="190.8" width="26.6" height="117.2" rx="4" fill="#2eaf5f" fill-opacity="0.28" stroke="#176c37" stroke-width="1.6"/>
<line x1="479.9" y1="190.8" x2="506.5" y2="190.8" stroke="#176c37" stroke-width="2"/>
<line x1="493.2" y1="190.6" x2="493.2" y2="190.8" stroke="#111827" stroke-width="1.2"/>
<line x1="485.2" y1="190.6" x2="501.2" y2="190.6" stroke="#111827" stroke-width="1.2"/>
<line x1="485.2" y1="190.8" x2="501.2" y2="190.8" stroke="#111827" stroke-width="1.2"/>
<text x="493.2" y="183.8" text-anchor="middle" font-family="Inter,Segoe UI,Arial,sans-serif" font-size="10" font-weight="700" fill="#111827">1,297</text>
<text x="493.2" y="326.0" text-anchor="middle" font-family="Inter,Segoe UI,Arial,sans-serif" font-size="9" fill="#111827" transform="rotate(45 493.2 326.0)">video_2frame_distinct</text>
<rect x="518.5" y="156.4" width="26.6" height="151.6" rx="4" fill="#2eaf5f" fill-opacity="0.28" stroke="#176c37" stroke-width="1.6"/>
<line x1="518.5" y1="156.4" x2="545.1" y2="156.4" stroke="#176c37" stroke-width="2"/>
<line x1="531.8" y1="156.0" x2="531.8" y2="156.4" stroke="#111827" stroke-width="1.2"/>
<line x1="523.8" y1="156.0" x2="539.8" y2="156.0" stroke="#111827" stroke-width="1.2"/>
<line x1="523.8" y1="156.4" x2="539.8" y2="156.4" stroke="#111827" stroke-width="1.2"/>
<text x="531.8" y="149.4" text-anchor="middle" font-family="Inter,Segoe UI,Arial,sans-serif" font-size="10" font-weight="700" fill="#111827">1,677</text>
<text x="531.8" y="326.0" text-anchor="middle" font-family="Inter,Segoe UI,Arial,sans-serif" font-size="9" fill="#111827" transform="rotate(45 531.8 326.0)">video_8frame</text>
<rect x="557.1" y="235.3" width="26.6" height="72.7" rx="4" fill="#2eaf5f" fill-opacity="0.28" stroke="#176c37" stroke-width="1.6"/>
<line x1="557.1" y1="235.3" x2="583.6" y2="235.3" stroke="#176c37" stroke-width="2"/>
<line x1="570.4" y1="235.2" x2="570.4" y2="235.3" stroke="#111827" stroke-width="1.2"/>
<line x1="562.4" y1="235.2" x2="578.4" y2="235.2" stroke="#111827" stroke-width="1.2"/>
<line x1="562.4" y1="235.3" x2="578.4" y2="235.3" stroke="#111827" stroke-width="1.2"/>
<text x="570.4" y="228.3" text-anchor="middle" font-family="Inter,Segoe UI,Arial,sans-serif" font-size="10" font-weight="700" fill="#111827">804.6</text>
<text x="570.4" y="326.0" text-anchor="middle" font-family="Inter,Segoe UI,Arial,sans-serif" font-size="9" fill="#111827" transform="rotate(45 570.4 326.0)">video_32frame_cap</text>
<rect x="595.6" y="167.5" width="26.6" height="140.5" rx="4" fill="#2eaf5f" fill-opacity="0.28" stroke="#176c37" stroke-width="1.6"/>
<line x1="595.6" y1="167.5" x2="622.2" y2="167.5" stroke="#176c37" stroke-width="2"/>
<line x1="608.9" y1="167.0" x2="608.9" y2="167.5" stroke="#111827" stroke-width="1.2"/>
<line x1="600.9" y1="167.0" x2="616.9" y2="167.0" stroke="#111827" stroke-width="1.2"/>
<line x1="600.9" y1="167.5" x2="616.9" y2="167.5" stroke="#111827" stroke-width="1.2"/>
<text x="608.9" y="160.5" text-anchor="middle" font-family="Inter,Segoe UI,Arial,sans-serif" font-size="10" font-weight="700" fill="#111827">1,554</text>
<text x="608.9" y="326.0" text-anchor="middle" font-family="Inter,Segoe UI,Arial,sans-serif" font-size="9" fill="#111827" transform="rotate(45 608.9 326.0)">image_audio</text>
<rect x="634.2" y="153.9" width="26.6" height="154.1" rx="4" fill="#2eaf5f" fill-opacity="0.28" stroke="#176c37" stroke-width="1.6"/>
<line x1="634.2" y1="153.9" x2="660.8" y2="153.9" stroke="#176c37" stroke-width="2"/>
<line x1="647.5" y1="153.3" x2="647.5" y2="154.5" stroke="#111827" stroke-width="1.2"/>
<line x1="639.5" y1="153.3" x2="655.5" y2="153.3" stroke="#111827" stroke-width="1.2"/>
<line x1="639.5" y1="154.5" x2="655.5" y2="154.5" stroke="#111827" stroke-width="1.2"/>
<text x="647.5" y="146.9" text-anchor="middle" font-family="Inter,Segoe UI,Arial,sans-serif" font-size="10" font-weight="700" fill="#111827">1,705</text>
<text x="647.5" y="326.0" text-anchor="middle" font-family="Inter,Segoe UI,Arial,sans-serif" font-size="9" fill="#111827" transform="rotate(45 647.5 326.0)">image_video</text>
<rect x="672.8" y="185.2" width="26.6" height="122.8" rx="4" fill="#2eaf5f" fill-opacity="0.28" stroke="#176c37" stroke-width="1.6"/>
<line x1="672.8" y1="185.2" x2="699.4" y2="185.2" stroke="#176c37" stroke-width="2"/>
<line x1="686.1" y1="185.0" x2="686.1" y2="185.4" stroke="#111827" stroke-width="1.2"/>
<line x1="678.1" y1="185.0" x2="694.1" y2="185.0" stroke="#111827" stroke-width="1.2"/>
<line x1="678.1" y1="185.4" x2="694.1" y2="185.4" stroke="#111827" stroke-width="1.2"/>
<text x="686.1" y="178.2" text-anchor="middle" font-family="Inter,Segoe UI,Arial,sans-serif" font-size="10" font-weight="700" fill="#111827">1,358</text>
<text x="686.1" y="326.0" text-anchor="middle" font-family="Inter,Segoe UI,Arial,sans-serif" font-size="9" fill="#111827" transform="rotate(45 686.1 326.0)">audio_video</text>
<rect x="711.4" y="151.9" width="26.6" height="156.1" rx="4" fill="#2eaf5f" fill-opacity="0.28" stroke="#176c37" stroke-width="1.6"/>
<line x1="711.4" y1="151.9" x2="738.0" y2="151.9" stroke="#176c37" stroke-width="2"/>
<line x1="724.7" y1="151.3" x2="724.7" y2="152.6" stroke="#111827" stroke-width="1.2"/>
<line x1="716.7" y1="151.3" x2="732.7" y2="151.3" stroke="#111827" stroke-width="1.2"/>
<line x1="716.7" y1="152.6" x2="732.7" y2="152.6" stroke="#111827" stroke-width="1.2"/>
<text x="724.7" y="144.9" text-anchor="middle" font-family="Inter,Segoe UI,Arial,sans-serif" font-size="10" font-weight="700" fill="#111827">1,726</text>
<text x="724.7" y="326.0" text-anchor="middle" font-family="Inter,Segoe UI,Arial,sans-serif" font-size="9" fill="#111827" transform="rotate(45 724.7 326.0)">image_audio_video</text>
<text x="766" y="110" font-family="Inter,Segoe UI,Arial,sans-serif" font-size="11" fill="#374151">best: <tspan font-weight="700">audio_cap</tspan></text>
<text x="766" y="130" font-family="Inter,Segoe UI,Arial,sans-serif" font-size="11" fill="#6b7280">1,842 tok/s</text>
<text x="766" y="152" font-family="Inter,Segoe UI,Arial,sans-serif" font-size="10" fill="#6b7280">error bars: min-max</text>
<text x="82" y="400" font-family="Inter,Segoe UI,Arial,sans-serif" font-size="10" fill="#6b7280">17 case(s), 3 reps, max_output_tokens=8</text>
</svg>
