<svg xmlns="http://www.w3.org/2000/svg" width="460" height="276" viewBox="0 0 460 276" role="img" aria-labelledby="title desc"><title>Decode rate</title><desc>Box-and-Whisker Plot comparing mlx_lm, mlx_swift_lm, ax_engine, and ax_engine plus n-gram across 28 README benchmark rows. A red dotted horizontal line marks the ax_engine plus n-gram median.</desc><rect width="460" height="276" fill="#ffffff"/><text x="52" y="22" font-family="Inter,Segoe UI,Arial,sans-serif" font-size="16" font-weight="700" fill="#111827">Decode rate</text><text x="52" y="40" font-family="Inter,Segoe UI,Arial,sans-serif" font-size="10" fill="#6b7280">AX n-gram is the default policy</text><text x="442" y="22" text-anchor="end" font-family="Inter,Segoe UI,Arial,sans-serif" font-size="10" fill="#6b7280">tok/s</text><text x="442" y="40" text-anchor="end" font-family="Inter,Segoe UI,Arial,sans-serif" font-size="10" font-weight="700" fill="#374151">Higher is better</text><line x1="52" y1="206.0" x2="442" y2="206.0" stroke="#e5e7eb" stroke-width="1"/><text x="44" y="209.0" text-anchor="end" font-family="Inter,Segoe UI,Arial,sans-serif" font-size="10" fill="#6b7280">0</text><line x1="52" y1="126.0" x2="442" y2="126.0" stroke="#e5e7eb" stroke-width="1"/><text x="44" y="129.0" text-anchor="end" font-family="Inter,Segoe UI,Arial,sans-serif" font-size="10" fill="#6b7280">350</text><line x1="52" y1="46.0" x2="442" y2="46.0" stroke="#e5e7eb" stroke-width="1"/><text x="44" y="49.0" text-anchor="end" font-family="Inter,Segoe UI,Arial,sans-serif" font-size="10" fill="#6b7280">700</text><line x1="52" y1="143.4" x2="442" y2="143.4" stroke="#dc2626" stroke-width="1.2" stroke-dasharray="2 4"/><rect x="270" y="50" width="165" height="160" fill="none" stroke="#dc2626" stroke-width="1.4"/><line x1="98.8" y1="161.1" x2="98.8" y2="199.7" stroke="#f2b705" stroke-width="2"/><line x1="88.8" y1="161.1" x2="108.8" y2="161.1" stroke="#f2b705" stroke-width="2"/><line x1="88.8" y1="199.7" x2="108.8" y2="199.7" stroke="#f2b705" stroke-width="2"/><rect x="77.8" y="171.5" width="42" height="11.4" rx="4" fill="#f2b705" fill-opacity="0.18" stroke="#f2b705" stroke-width="2"/><line x1="77.8" y1="178.6" x2="119.8" y2="178.6" stroke="#f2b705" stroke-width="3"/><text x="98.8" y="230" text-anchor="middle" font-family="Inter,Segoe UI,Arial,sans-serif" font-size="9" fill="#111827">mlx_lm</text><text x="98.8" y="246" text-anchor="middle" font-family="Inter,Segoe UI,Arial,sans-serif" font-size="10" fill="#6b7280">med 120</text><circle cx="90.3" cy="161.1" r="2" fill="#9a6a00" fill-opacity="0.9"/><circle cx="93.8" cy="162.7" r="2" fill="#9a6a00" fill-opacity="0.9"/><circle cx="96.8" cy="163.4" r="2" fill="#9a6a00" fill-opacity="0.9"/><circle cx="100.3" cy="165.1" r="2" fill="#9a6a00" fill-opacity="0.9"/><circle cx="103.8" cy="166.2" r="2" fill="#9a6a00" fill-opacity="0.9"/><circle cx="107.3" cy="167.9" r="2" fill="#9a6a00" fill-opacity="0.9"/><circle cx="92.3" cy="170.8" r="2" fill="#9a6a00" fill-opacity="0.9"/><circle cx="102.3" cy="171.8" r="2" fill="#9a6a00" fill-opacity="0.9"/><circle cx="90.3" cy="174.7" r="2" fill="#9a6a00" fill-opacity="0.9"/><circle cx="93.8" cy="175.6" r="2" fill="#9a6a00" fill-opacity="0.9"/><circle cx="96.8" cy="177.3" r="2" fill="#9a6a00" fill-opacity="0.9"/><circle cx="100.3" cy="177.7" r="2" fill="#9a6a00" fill-opacity="0.9"/><circle cx="103.8" cy="199.5" r="2" fill="#9a6a00" fill-opacity="0.9"/><circle cx="107.3" cy="199.7" r="2" fill="#9a6a00" fill-opacity="0.9"/><circle cx="92.3" cy="187.2" r="2" fill="#9a6a00" fill-opacity="0.9"/><circle cx="102.3" cy="187.3" r="2" fill="#9a6a00" fill-opacity="0.9"/><circle cx="90.3" cy="179.6" r="2" fill="#9a6a00" fill-opacity="0.9"/><circle cx="93.8" cy="179.1" r="2" fill="#9a6a00" fill-opacity="0.9"/><circle cx="96.8" cy="178.2" r="2" fill="#9a6a00" fill-opacity="0.9"/><circle cx="100.3" cy="178.2" r="2" fill="#9a6a00" fill-opacity="0.9"/><circle cx="103.8" cy="180.4" r="2" fill="#9a6a00" fill-opacity="0.9"/><circle cx="107.3" cy="181.0" r="2" fill="#9a6a00" fill-opacity="0.9"/><circle cx="92.3" cy="182.5" r="2" fill="#9a6a00" fill-opacity="0.9"/><circle cx="102.3" cy="182.8" r="2" fill="#9a6a00" fill-opacity="0.9"/><circle cx="90.3" cy="185.4" r="2" fill="#9a6a00" fill-opacity="0.9"/><circle cx="93.8" cy="185.1" r="2" fill="#9a6a00" fill-opacity="0.9"/><circle cx="96.8" cy="182.7" r="2" fill="#9a6a00" fill-opacity="0.9"/><circle cx="100.3" cy="183.5" r="2" fill="#9a6a00" fill-opacity="0.9"/><line x1="200.2" y1="161.5" x2="200.2" y2="199.8" stroke="#4062bb" stroke-width="2"/><line x1="190.2" y1="161.5" x2="210.2" y2="161.5" stroke="#4062bb" stroke-width="2"/><line x1="190.2" y1="199.8" x2="210.2" y2="199.8" stroke="#4062bb" stroke-width="2"/><rect x="179.2" y="173.4" width="42" height="10.8" rx="4" fill="#4062bb" fill-opacity="0.18" stroke="#4062bb" stroke-width="2"/><line x1="179.2" y1="179.5" x2="221.2" y2="179.5" stroke="#4062bb" stroke-width="3"/><text x="200.2" y="230" text-anchor="middle" font-family="Inter,Segoe UI,Arial,sans-serif" font-size="9" fill="#111827">mlx_swift_lm</text><text x="200.2" y="246" text-anchor="middle" font-family="Inter,Segoe UI,Arial,sans-serif" font-size="10" fill="#6b7280">med 116</text><circle cx="191.7" cy="161.5" r="2" fill="#243b87" fill-opacity="0.9"/><circle cx="195.2" cy="162.6" r="2" fill="#243b87" fill-opacity="0.9"/><circle cx="198.2" cy="166.1" r="2" fill="#243b87" fill-opacity="0.9"/><circle cx="201.7" cy="168.1" r="2" fill="#243b87" fill-opacity="0.9"/><circle cx="205.2" cy="168.4" r="2" fill="#243b87" fill-opacity="0.9"/><circle cx="208.7" cy="169.8" r="2" fill="#243b87" fill-opacity="0.9"/><circle cx="193.7" cy="172.8" r="2" fill="#243b87" fill-opacity="0.9"/><circle cx="203.7" cy="173.6" r="2" fill="#243b87" fill-opacity="0.9"/><circle cx="191.7" cy="175.9" r="2" fill="#243b87" fill-opacity="0.9"/><circle cx="195.2" cy="177.1" r="2" fill="#243b87" fill-opacity="0.9"/><circle cx="198.2" cy="178.8" r="2" fill="#243b87" fill-opacity="0.9"/><circle cx="201.7" cy="179.5" r="2" fill="#243b87" fill-opacity="0.9"/><circle cx="205.2" cy="199.7" r="2" fill="#243b87" fill-opacity="0.9"/><circle cx="208.7" cy="199.8" r="2" fill="#243b87" fill-opacity="0.9"/><circle cx="193.7" cy="187.5" r="2" fill="#243b87" fill-opacity="0.9"/><circle cx="203.7" cy="188.0" r="2" fill="#243b87" fill-opacity="0.9"/><circle cx="191.7" cy="179.2" r="2" fill="#243b87" fill-opacity="0.9"/><circle cx="195.2" cy="180.0" r="2" fill="#243b87" fill-opacity="0.9"/><circle cx="198.2" cy="179.4" r="2" fill="#243b87" fill-opacity="0.9"/><circle cx="201.7" cy="179.5" r="2" fill="#243b87" fill-opacity="0.9"/><circle cx="205.2" cy="181.3" r="2" fill="#243b87" fill-opacity="0.9"/><circle cx="208.7" cy="181.5" r="2" fill="#243b87" fill-opacity="0.9"/><circle cx="193.7" cy="183.3" r="2" fill="#243b87" fill-opacity="0.9"/><circle cx="203.7" cy="183.5" r="2" fill="#243b87" fill-opacity="0.9"/><circle cx="191.7" cy="185.6" r="2" fill="#243b87" fill-opacity="0.9"/><circle cx="195.2" cy="186.2" r="2" fill="#243b87" fill-opacity="0.9"/><circle cx="198.2" cy="183.9" r="2" fill="#243b87" fill-opacity="0.9"/><circle cx="201.7" cy="185.1" r="2" fill="#243b87" fill-opacity="0.9"/><line x1="301.6" y1="162.7" x2="301.6" y2="200.5" stroke="#2eaf5f" stroke-width="2"/><line x1="291.6" y1="162.7" x2="311.6" y2="162.7" stroke="#2eaf5f" stroke-width="2"/><line x1="291.6" y1="200.5" x2="311.6" y2="200.5" stroke="#2eaf5f" stroke-width="2"/><rect x="280.6" y="174.4" width="42" height="8.0" rx="4" fill="#2eaf5f" fill-opacity="0.18" stroke="#2eaf5f" stroke-width="2"/><line x1="280.6" y1="178.4" x2="322.6" y2="178.4" stroke="#2eaf5f" stroke-width="3"/><text x="301.6" y="230" text-anchor="middle" font-family="Inter,Segoe UI,Arial,sans-serif" font-size="9" fill="#111827">ax_engine</text><text x="301.6" y="246" text-anchor="middle" font-family="Inter,Segoe UI,Arial,sans-serif" font-size="10" fill="#6b7280">med 121</text><circle cx="293.1" cy="162.7" r="2" fill="#176c37" fill-opacity="0.9"/><circle cx="296.6" cy="163.4" r="2" fill="#176c37" fill-opacity="0.9"/><circle cx="299.6" cy="166.1" r="2" fill="#176c37" fill-opacity="0.9"/><circle cx="303.1" cy="167.4" r="2" fill="#176c37" fill-opacity="0.9"/><circle cx="306.6" cy="170.1" r="2" fill="#176c37" fill-opacity="0.9"/><circle cx="310.1" cy="171.2" r="2" fill="#176c37" fill-opacity="0.9"/><circle cx="295.1" cy="173.9" r="2" fill="#176c37" fill-opacity="0.9"/><circle cx="305.1" cy="175.9" r="2" fill="#176c37" fill-opacity="0.9"/><circle cx="293.1" cy="178.1" r="2" fill="#176c37" fill-opacity="0.9"/><circle cx="296.6" cy="181.2" r="2" fill="#176c37" fill-opacity="0.9"/><circle cx="299.6" cy="178.1" r="2" fill="#176c37" fill-opacity="0.9"/><circle cx="303.1" cy="181.1" r="2" fill="#176c37" fill-opacity="0.9"/><circle cx="306.6" cy="200.2" r="2" fill="#176c37" fill-opacity="0.9"/><circle cx="310.1" cy="200.5" r="2" fill="#176c37" fill-opacity="0.9"/><circle cx="295.1" cy="185.4" r="2" fill="#176c37" fill-opacity="0.9"/><circle cx="305.1" cy="182.5" r="2" fill="#176c37" fill-opacity="0.9"/><circle cx="293.1" cy="178.1" r="2" fill="#176c37" fill-opacity="0.9"/><circle cx="296.6" cy="181.2" r="2" fill="#176c37" fill-opacity="0.9"/><circle cx="299.6" cy="174.6" r="2" fill="#176c37" fill-opacity="0.9"/><circle cx="303.1" cy="175.1" r="2" fill="#176c37" fill-opacity="0.9"/><circle cx="306.6" cy="178.3" r="2" fill="#176c37" fill-opacity="0.9"/><circle cx="310.1" cy="178.4" r="2" fill="#176c37" fill-opacity="0.9"/><circle cx="295.1" cy="181.1" r="2" fill="#176c37" fill-opacity="0.9"/><circle cx="305.1" cy="181.3" r="2" fill="#176c37" fill-opacity="0.9"/><circle cx="293.1" cy="182.5" r="2" fill="#176c37" fill-opacity="0.9"/><circle cx="296.6" cy="182.6" r="2" fill="#176c37" fill-opacity="0.9"/><circle cx="299.6" cy="182.7" r="2" fill="#176c37" fill-opacity="0.9"/><circle cx="303.1" cy="182.6" r="2" fill="#176c37" fill-opacity="0.9"/><line x1="403" y1="71.1" x2="403" y2="192.8" stroke="#137a3d" stroke-width="2"/><line x1="393" y1="71.1" x2="413" y2="71.1" stroke="#137a3d" stroke-width="2"/><line x1="393" y1="192.8" x2="413" y2="192.8" stroke="#137a3d" stroke-width="2"/><rect x="382" y="109.0" width="42" height="40.6" rx="4" fill="#137a3d" fill-opacity="0.18" stroke="#137a3d" stroke-width="2"/><line x1="382" y1="143.4" x2="424" y2="143.4" stroke="#137a3d" stroke-width="3"/><text x="403" y="230" text-anchor="middle" font-family="Inter,Segoe UI,Arial,sans-serif" font-size="9" fill="#111827">ax_engine + n-gram</text><text x="403" y="246" text-anchor="middle" font-family="Inter,Segoe UI,Arial,sans-serif" font-size="10" fill="#6b7280">med 274</text><circle cx="394.5" cy="71.1" r="2" fill="#0b4f28" fill-opacity="0.9"/><circle cx="398" cy="72.9" r="2" fill="#0b4f28" fill-opacity="0.9"/><circle cx="401" cy="100.1" r="2" fill="#0b4f28" fill-opacity="0.9"/><circle cx="404.5" cy="101.0" r="2" fill="#0b4f28" fill-opacity="0.9"/><circle cx="408" cy="108.5" r="2" fill="#0b4f28" fill-opacity="0.9"/><circle cx="411.5" cy="109.1" r="2" fill="#0b4f28" fill-opacity="0.9"/><circle cx="396.5" cy="100.2" r="2" fill="#0b4f28" fill-opacity="0.9"/><circle cx="406.5" cy="100.9" r="2" fill="#0b4f28" fill-opacity="0.9"/><circle cx="394.5" cy="126.1" r="2" fill="#0b4f28" fill-opacity="0.9"/><circle cx="398" cy="125.0" r="2" fill="#0b4f28" fill-opacity="0.9"/><circle cx="401" cy="143.3" r="2" fill="#0b4f28" fill-opacity="0.9"/><circle cx="404.5" cy="152.2" r="2" fill="#0b4f28" fill-opacity="0.9"/><circle cx="408" cy="191.2" r="2" fill="#0b4f28" fill-opacity="0.9"/><circle cx="411.5" cy="192.8" r="2" fill="#0b4f28" fill-opacity="0.9"/><circle cx="396.5" cy="165.3" r="2" fill="#0b4f28" fill-opacity="0.9"/><circle cx="406.5" cy="183.1" r="2" fill="#0b4f28" fill-opacity="0.9"/><circle cx="394.5" cy="147.1" r="2" fill="#0b4f28" fill-opacity="0.9"/><circle cx="398" cy="142.1" r="2" fill="#0b4f28" fill-opacity="0.9"/><circle cx="401" cy="141.8" r="2" fill="#0b4f28" fill-opacity="0.9"/><circle cx="404.5" cy="142.1" r="2" fill="#0b4f28" fill-opacity="0.9"/><circle cx="408" cy="146.6" r="2" fill="#0b4f28" fill-opacity="0.9"/><circle cx="411.5" cy="148.7" r="2" fill="#0b4f28" fill-opacity="0.9"/><circle cx="396.5" cy="146.1" r="2" fill="#0b4f28" fill-opacity="0.9"/><circle cx="406.5" cy="147.0" r="2" fill="#0b4f28" fill-opacity="0.9"/><circle cx="394.5" cy="183.1" r="2" fill="#0b4f28" fill-opacity="0.9"/><circle cx="398" cy="180.1" r="2" fill="#0b4f28" fill-opacity="0.9"/><circle cx="401" cy="143.5" r="2" fill="#0b4f28" fill-opacity="0.9"/><circle cx="404.5" cy="145.0" r="2" fill="#0b4f28" fill-opacity="0.9"/></svg>
