<svg xmlns="http://www.w3.org/2000/svg" width="840" height="890" viewBox="0 0 840 890" font-family="Helvetica, Arial, sans-serif">
<rect width="840" height="890" fill="#ffffff"/>
<text x="24" y="34" font-size="18" font-weight="700" fill="#12211a">Tiel / Cyber-Tiel completion throughput — AX Engine vs MTPLX 2.11.3</text>
<text x="24" y="56" font-size="12.5" fill="#4a5a52">Median tokens/s including TTFT (higher is better) · four Apple Silicon Macs · identical packs, cold KV, MLX 0.32.2 · campaign 2026-09-20</text>
<line x1="258.0" y1="84" x2="258.0" y2="826" stroke="#e6ece9" stroke-width="1"/>
<text x="258.0" y="844" font-size="10.5" fill="#7a8a82" text-anchor="middle">0</text>
<line x1="368.8" y1="84" x2="368.8" y2="826" stroke="#e6ece9" stroke-width="1"/>
<text x="368.8" y="844" font-size="10.5" fill="#7a8a82" text-anchor="middle">50</text>
<line x1="479.6" y1="84" x2="479.6" y2="826" stroke="#e6ece9" stroke-width="1"/>
<text x="479.6" y="844" font-size="10.5" fill="#7a8a82" text-anchor="middle">100</text>
<line x1="590.4" y1="84" x2="590.4" y2="826" stroke="#e6ece9" stroke-width="1"/>
<text x="590.4" y="844" font-size="10.5" fill="#7a8a82" text-anchor="middle">150</text>
<line x1="701.2" y1="84" x2="701.2" y2="826" stroke="#e6ece9" stroke-width="1"/>
<text x="701.2" y="844" font-size="10.5" fill="#7a8a82" text-anchor="middle">200</text>
<line x1="812.0" y1="84" x2="812.0" y2="826" stroke="#e6ece9" stroke-width="1"/>
<text x="812.0" y="844" font-size="10.5" fill="#7a8a82" text-anchor="middle">250</text>
<rect x="258" y="69" width="12" height="12" fill="#2eaf5f"/>
<text x="274" y="79" font-size="12" fill="#12211a">AX Engine</text>
<rect x="354" y="69" width="12" height="12" fill="#f2b705"/>
<text x="370" y="79" font-size="12" fill="#12211a">MTPLX sustained</text>
<text x="24" y="117" font-size="11.5" fill="#22332c">M5 Max 128 GiB · Tiel · python-lru</text>
<text x="812" y="117" font-size="11" fill="#5a6a62" text-anchor="end">+9.8%</text>
<rect x="258" y="100" width="431.9" height="15" fill="#2eaf5f"/>
<text x="694.9" y="112" font-size="10.5" fill="#176c37">194.88</text>
<rect x="258" y="118" width="393.2" height="15" fill="#f2b705"/>
<text x="656.2" y="130" font-size="10.5" fill="#9a6a00">177.44</text>
<text x="24" y="163" font-size="11.5" fill="#22332c">M5 Max 128 GiB · Tiel · rust-jsonl</text>
<text x="812" y="163" font-size="11" fill="#5a6a62" text-anchor="end">+18.0%</text>
<rect x="258" y="146" width="381.3" height="15" fill="#2eaf5f"/>
<text x="644.3" y="158" font-size="10.5" fill="#176c37">172.08</text>
<rect x="258" y="164" width="323.1" height="15" fill="#f2b705"/>
<text x="586.1" y="176" font-size="10.5" fill="#9a6a00">145.82</text>
<text x="24" y="209" font-size="11.5" fill="#22332c">M5 Max 128 GiB · Cyber-Tiel · python-lru</text>
<text x="812" y="209" font-size="11" fill="#5a6a62" text-anchor="end">+13.0%</text>
<rect x="258" y="192" width="486.3" height="15" fill="#2eaf5f"/>
<text x="749.3" y="204" font-size="10.5" fill="#176c37">219.43</text>
<rect x="258" y="210" width="430.2" height="15" fill="#f2b705"/>
<text x="693.2" y="222" font-size="10.5" fill="#9a6a00">194.15</text>
<text x="24" y="255" font-size="11.5" fill="#22332c">M5 Max 128 GiB · Cyber-Tiel · rust-jsonl</text>
<text x="812" y="255" font-size="11" fill="#5a6a62" text-anchor="end">+3.1%</text>
<rect x="258" y="238" width="374.8" height="15" fill="#2eaf5f"/>
<text x="637.8" y="250" font-size="10.5" fill="#176c37">169.14</text>
<rect x="258" y="256" width="363.4" height="15" fill="#f2b705"/>
<text x="626.4" y="268" font-size="10.5" fill="#9a6a00">163.99</text>
<text x="24" y="301" font-size="11.5" fill="#22332c">M4 Pro 64 GiB · Tiel · python-lru</text>
<text x="812" y="301" font-size="11" fill="#5a6a62" text-anchor="end">-1.9%</text>
<rect x="258" y="284" width="200.5" height="15" fill="#2eaf5f"/>
<text x="463.5" y="296" font-size="10.5" fill="#176c37">90.46</text>
<rect x="258" y="302" width="204.4" height="15" fill="#f2b705"/>
<text x="467.4" y="314" font-size="10.5" fill="#9a6a00">92.23</text>
<text x="24" y="347" font-size="11.5" fill="#22332c">M4 Pro 64 GiB · Tiel · rust-jsonl</text>
<text x="812" y="347" font-size="11" fill="#5a6a62" text-anchor="end">-0.5%</text>
<rect x="258" y="330" width="143.2" height="15" fill="#2eaf5f"/>
<text x="406.2" y="342" font-size="10.5" fill="#176c37">64.62</text>
<rect x="258" y="348" width="143.9" height="15" fill="#f2b705"/>
<text x="406.9" y="360" font-size="10.5" fill="#9a6a00">64.94</text>
<text x="24" y="393" font-size="11.5" fill="#22332c">M4 Pro 64 GiB · Cyber-Tiel · python-lru</text>
<text x="812" y="393" font-size="11" fill="#5a6a62" text-anchor="end">-2.4%</text>
<rect x="258" y="376" width="209.1" height="15" fill="#2eaf5f"/>
<text x="472.1" y="388" font-size="10.5" fill="#176c37">94.37</text>
<rect x="258" y="394" width="214.2" height="15" fill="#f2b705"/>
<text x="477.2" y="406" font-size="10.5" fill="#9a6a00">96.65</text>
<text x="24" y="439" font-size="11.5" fill="#22332c">M4 Pro 64 GiB · Cyber-Tiel · rust-jsonl</text>
<text x="812" y="439" font-size="11" fill="#5a6a62" text-anchor="end">-1.8%</text>
<rect x="258" y="422" width="150.0" height="15" fill="#2eaf5f"/>
<text x="413.0" y="434" font-size="10.5" fill="#176c37">67.71</text>
<rect x="258" y="440" width="152.7" height="15" fill="#f2b705"/>
<text x="415.7" y="452" font-size="10.5" fill="#9a6a00">68.92</text>
<text x="24" y="485" font-size="11.5" fill="#22332c">M2 Ultra 192 GiB · Tiel · python-lru</text>
<text x="812" y="485" font-size="11" fill="#5a6a62" text-anchor="end">+2.2%</text>
<rect x="258" y="468" width="237.7" height="15" fill="#2eaf5f"/>
<text x="500.7" y="480" font-size="10.5" fill="#176c37">107.28</text>
<rect x="258" y="486" width="232.6" height="15" fill="#f2b705"/>
<text x="495.6" y="498" font-size="10.5" fill="#9a6a00">104.96</text>
<text x="24" y="531" font-size="11.5" fill="#22332c">M2 Ultra 192 GiB · Tiel · rust-jsonl</text>
<text x="812" y="531" font-size="11" fill="#5a6a62" text-anchor="end">-2.1%</text>
<rect x="258" y="514" width="180.0" height="15" fill="#2eaf5f"/>
<text x="443.0" y="526" font-size="10.5" fill="#176c37">81.24</text>
<rect x="258" y="532" width="183.9" height="15" fill="#f2b705"/>
<text x="446.9" y="544" font-size="10.5" fill="#9a6a00">82.98</text>
<text x="24" y="577" font-size="11.5" fill="#22332c">M2 Ultra 192 GiB · Cyber-Tiel · python-lru</text>
<text x="812" y="577" font-size="11" fill="#5a6a62" text-anchor="end">+8.6%</text>
<rect x="258" y="560" width="260.6" height="15" fill="#2eaf5f"/>
<text x="523.6" y="572" font-size="10.5" fill="#176c37">117.59</text>
<rect x="258" y="578" width="239.9" height="15" fill="#f2b705"/>
<text x="502.9" y="590" font-size="10.5" fill="#9a6a00">108.27</text>
<text x="24" y="623" font-size="11.5" fill="#22332c">M2 Ultra 192 GiB · Cyber-Tiel · rust-jsonl</text>
<text x="812" y="623" font-size="11" fill="#5a6a62" text-anchor="end">+0.3%</text>
<rect x="258" y="606" width="187.9" height="15" fill="#2eaf5f"/>
<text x="450.9" y="618" font-size="10.5" fill="#176c37">84.80</text>
<rect x="258" y="624" width="187.3" height="15" fill="#f2b705"/>
<text x="450.3" y="636" font-size="10.5" fill="#9a6a00">84.51</text>
<text x="24" y="669" font-size="11.5" fill="#22332c">M3 Ultra 512 GiB · Tiel · python-lru</text>
<text x="812" y="669" font-size="11" fill="#5a6a62" text-anchor="end">+4.5%</text>
<rect x="258" y="652" width="355.3" height="15" fill="#2eaf5f"/>
<text x="618.3" y="664" font-size="10.5" fill="#176c37">160.35</text>
<rect x="258" y="670" width="340.1" height="15" fill="#f2b705"/>
<text x="603.1" y="682" font-size="10.5" fill="#9a6a00">153.48</text>
<text x="24" y="715" font-size="11.5" fill="#22332c">M3 Ultra 512 GiB · Tiel · rust-jsonl</text>
<text x="812" y="715" font-size="11" fill="#5a6a62" text-anchor="end">+4.4%</text>
<rect x="258" y="698" width="281.9" height="15" fill="#2eaf5f"/>
<text x="544.9" y="710" font-size="10.5" fill="#176c37">127.19</text>
<rect x="258" y="716" width="269.9" height="15" fill="#f2b705"/>
<text x="532.9" y="728" font-size="10.5" fill="#9a6a00">121.80</text>
<text x="24" y="761" font-size="11.5" fill="#22332c">M3 Ultra 512 GiB · Cyber-Tiel · python-lru</text>
<text x="812" y="761" font-size="11" fill="#5a6a62" text-anchor="end">+4.7%</text>
<rect x="258" y="744" width="378.2" height="15" fill="#2eaf5f"/>
<text x="641.2" y="756" font-size="10.5" fill="#176c37">170.65</text>
<rect x="258" y="762" width="361.2" height="15" fill="#f2b705"/>
<text x="624.2" y="774" font-size="10.5" fill="#9a6a00">162.99</text>
<text x="24" y="807" font-size="11.5" fill="#22332c">M3 Ultra 512 GiB · Cyber-Tiel · rust-jsonl</text>
<text x="812" y="807" font-size="11" fill="#5a6a62" text-anchor="end">+2.2%</text>
<rect x="258" y="790" width="298.0" height="15" fill="#2eaf5f"/>
<text x="561.0" y="802" font-size="10.5" fill="#176c37">134.49</text>
<rect x="258" y="808" width="291.5" height="15" fill="#f2b705"/>
<text x="554.5" y="820" font-size="10.5" fill="#9a6a00">131.54</text>
<text x="24" y="874" font-size="10.5" fill="#7a8a82">Derived from docs/performance/tiel-vs-mtplx-2026-09-20.md; per-cell ranges, not pooled. Generated by scripts/render_tiel_peer_chart.py.</text>
</svg>
