<svg xmlns="http://www.w3.org/2000/svg" width="540" height="278" viewBox="0 0 540 278" role="img" aria-labelledby="title desc"><title>Qwen 3.6 — TTFT</title><desc>Grouped box-and-whisker plot comparing llama.cpp, mlx_lm, ax_engine at 128/512/2048 prompt tokens for Qwen 3.6 models. A red dotted line marks the lowest median.</desc><rect width="540" height="278" fill="#ffffff"/><text x="52" y="22" font-family="Inter,Segoe UI,Arial,sans-serif" font-size="16" font-weight="700" fill="#111827">Qwen 3.6 — TTFT</text><text x="524" y="22" text-anchor="end" font-family="Inter,Segoe UI,Arial,sans-serif" font-size="10" fill="#6b7280">ms</text><text x="524" y="40" text-anchor="end" font-family="Inter,Segoe UI,Arial,sans-serif" font-size="10" font-weight="700" fill="#374151">Lower is better</text><line x1="52" y1="214.0" x2="524" y2="214.0" stroke="#e5e7eb" stroke-width="1"/><text x="44" y="217.0" text-anchor="end" font-family="Inter,Segoe UI,Arial,sans-serif" font-size="10" fill="#6b7280">0</text><line x1="52" y1="130.0" x2="524" y2="130.0" stroke="#e5e7eb" stroke-width="1"/><text x="44" y="133.0" text-anchor="end" font-family="Inter,Segoe UI,Arial,sans-serif" font-size="10" fill="#6b7280">2k</text><line x1="52" y1="46.0" x2="524" y2="46.0" stroke="#e5e7eb" stroke-width="1"/><text x="44" y="49.0" text-anchor="end" font-family="Inter,Segoe UI,Arial,sans-serif" font-size="10" fill="#6b7280">4k</text><line x1="52" y1="205.6" x2="524" y2="205.6" stroke="#dc2626" stroke-width="1.2" stroke-dasharray="1 4" stroke-linecap="round"/><line x1="100.667" y1="203.6" x2="100.667" y2="210.9" stroke="#f97316" stroke-opacity="0.55" stroke-width="1.7"/><line x1="94.9067" y1="203.6" x2="106.427" y2="203.6" stroke="#f97316" stroke-opacity="0.55" stroke-width="1.7"/><line x1="94.9067" y1="210.9" x2="106.427" y2="210.9" stroke="#f97316" stroke-opacity="0.55" stroke-width="1.7"/><rect x="92.6667" y="203.8" width="16" height="1.0" rx="2" fill="#f97316" fill-opacity="0.08" stroke="#f97316" stroke-opacity="0.55" stroke-width="1.7"/><line x1="92.6667" y1="204.1" x2="108.667" y2="204.1" stroke="#f97316" stroke-opacity="0.55" stroke-width="2.4"/><text x="100.667" y="229" text-anchor="middle" font-family="Inter,Segoe UI,Arial,sans-serif" font-size="8" fill="#6b7280">128</text><circle cx="97.6667" cy="203.8" r="1.4" fill="#c2410c" fill-opacity="0.5"/><circle cx="99.1667" cy="203.6" r="1.4" fill="#c2410c" fill-opacity="0.5"/><circle cx="100.667" cy="204.1" r="1.4" fill="#c2410c" fill-opacity="0.5"/><circle cx="102.167" cy="204.4" r="1.4" fill="#c2410c" fill-opacity="0.5"/><circle cx="103.667" cy="210.9" r="1.4" fill="#c2410c" fill-opacity="0.5"/><line x1="130.667" y1="174.0" x2="130.667" y2="207.3" stroke="#f97316" stroke-opacity="0.78" stroke-width="1.7"/><line x1="124.907" y1="174.0" x2="136.427" y2="174.0" stroke="#f97316" stroke-opacity="0.78" stroke-width="1.7"/><line x1="124.907" y1="207.3" x2="136.427" y2="207.3" stroke="#f97316" stroke-opacity="0.78" stroke-width="1.7"/><rect x="122.667" y="175.5" width="16" height="5.5" rx="2" fill="#f97316" fill-opacity="0.17" stroke="#f97316" stroke-opacity="0.78" stroke-width="1.7"/><line x1="122.667" y1="178.6" x2="138.667" y2="178.6" stroke="#f97316" stroke-opacity="0.78" stroke-width="2.4"/><text x="130.667" y="229" text-anchor="middle" font-family="Inter,Segoe UI,Arial,sans-serif" font-size="8" fill="#6b7280">512</text><circle cx="127.667" cy="174.0" r="1.4" fill="#c2410c" fill-opacity="0.7"/><circle cx="129.167" cy="175.5" r="1.4" fill="#c2410c" fill-opacity="0.7"/><circle cx="130.667" cy="178.6" r="1.4" fill="#c2410c" fill-opacity="0.7"/><circle cx="132.167" cy="181.0" r="1.4" fill="#c2410c" fill-opacity="0.7"/><circle cx="133.667" cy="207.3" r="1.4" fill="#c2410c" fill-opacity="0.7"/><line x1="160.667" y1="57.4" x2="160.667" y2="190.0" stroke="#f97316" stroke-opacity="1.0" stroke-width="1.7"/><line x1="154.907" y1="57.4" x2="166.427" y2="57.4" stroke="#f97316" stroke-opacity="1.0" stroke-width="1.7"/><line x1="154.907" y1="190.0" x2="166.427" y2="190.0" stroke="#f97316" stroke-opacity="1.0" stroke-width="1.7"/><rect x="152.667" y="64.8" width="16" height="22.7" rx="2" fill="#f97316" fill-opacity="0.3" stroke="#f97316" stroke-opacity="1.0" stroke-width="1.7"/><line x1="152.667" y1="74.2" x2="168.667" y2="74.2" stroke="#f97316" stroke-opacity="1.0" stroke-width="2.4"/><text x="160.667" y="229" text-anchor="middle" font-family="Inter,Segoe UI,Arial,sans-serif" font-size="8" fill="#6b7280">2048</text><circle cx="157.667" cy="87.5" r="1.4" fill="#c2410c" fill-opacity="0.9"/><circle cx="159.167" cy="57.4" r="1.4" fill="#c2410c" fill-opacity="0.9"/><circle cx="160.667" cy="64.8" r="1.4" fill="#c2410c" fill-opacity="0.9"/><circle cx="162.167" cy="74.2" r="1.4" fill="#c2410c" fill-opacity="0.9"/><circle cx="163.667" cy="190.0" r="1.4" fill="#c2410c" fill-opacity="0.9"/><text x="130.667" y="246" text-anchor="middle" font-family="Inter,Segoe UI,Arial,sans-serif" font-size="9" font-weight="700" fill="#111827">llama.cpp</text><line x1="258" y1="189.5" x2="258" y2="204.0" stroke="#f2b705" stroke-opacity="0.55" stroke-width="1.7"/><line x1="252.24" y1="189.5" x2="263.76" y2="189.5" stroke="#f2b705" stroke-opacity="0.55" stroke-width="1.7"/><line x1="252.24" y1="204.0" x2="263.76" y2="204.0" stroke="#f2b705" stroke-opacity="0.55" stroke-width="1.7"/><rect x="250" y="194.1" width="16" height="5.7" rx="2" fill="#f2b705" fill-opacity="0.08" stroke="#f2b705" stroke-opacity="0.55" stroke-width="1.7"/><line x1="250" y1="194.7" x2="266" y2="194.7" stroke="#f2b705" stroke-opacity="0.55" stroke-width="2.4"/><text x="258" y="229" text-anchor="middle" font-family="Inter,Segoe UI,Arial,sans-serif" font-size="8" fill="#6b7280">128</text><circle cx="255" cy="199.8" r="1.4" fill="#9a6a00" fill-opacity="0.5"/><circle cx="256.5" cy="194.7" r="1.4" fill="#9a6a00" fill-opacity="0.5"/><circle cx="258" cy="194.1" r="1.4" fill="#9a6a00" fill-opacity="0.5"/><circle cx="259.5" cy="189.5" r="1.4" fill="#9a6a00" fill-opacity="0.5"/><circle cx="261" cy="204.0" r="1.4" fill="#9a6a00" fill-opacity="0.5"/><line x1="288" y1="172.7" x2="288" y2="200.6" stroke="#f2b705" stroke-opacity="0.78" stroke-width="1.7"/><line x1="282.24" y1="172.7" x2="293.76" y2="172.7" stroke="#f2b705" stroke-opacity="0.78" stroke-width="1.7"/><line x1="282.24" y1="200.6" x2="293.76" y2="200.6" stroke="#f2b705" stroke-opacity="0.78" stroke-width="1.7"/><rect x="280" y="176.8" width="16" height="6.8" rx="2" fill="#f2b705" fill-opacity="0.17" stroke="#f2b705" stroke-opacity="0.78" stroke-width="1.7"/><line x1="280" y1="178.1" x2="296" y2="178.1" stroke="#f2b705" stroke-opacity="0.78" stroke-width="2.4"/><text x="288" y="229" text-anchor="middle" font-family="Inter,Segoe UI,Arial,sans-serif" font-size="8" fill="#6b7280">512</text><circle cx="285" cy="183.5" r="1.4" fill="#9a6a00" fill-opacity="0.7"/><circle cx="286.5" cy="178.1" r="1.4" fill="#9a6a00" fill-opacity="0.7"/><circle cx="288" cy="176.8" r="1.4" fill="#9a6a00" fill-opacity="0.7"/><circle cx="289.5" cy="172.7" r="1.4" fill="#9a6a00" fill-opacity="0.7"/><circle cx="291" cy="200.6" r="1.4" fill="#9a6a00" fill-opacity="0.7"/><line x1="318" y1="104.8" x2="318" y2="189.5" stroke="#f2b705" stroke-opacity="1.0" stroke-width="1.7"/><line x1="312.24" y1="104.8" x2="323.76" y2="104.8" stroke="#f2b705" stroke-opacity="1.0" stroke-width="1.7"/><line x1="312.24" y1="189.5" x2="323.76" y2="189.5" stroke="#f2b705" stroke-opacity="1.0" stroke-width="1.7"/><rect x="310" y="106.2" width="16" height="11.7" rx="2" fill="#f2b705" fill-opacity="0.3" stroke="#f2b705" stroke-opacity="1.0" stroke-width="1.7"/><line x1="310" y1="110.1" x2="326" y2="110.1" stroke="#f2b705" stroke-opacity="1.0" stroke-width="2.4"/><text x="318" y="229" text-anchor="middle" font-family="Inter,Segoe UI,Arial,sans-serif" font-size="8" fill="#6b7280">2048</text><circle cx="315" cy="117.9" r="1.4" fill="#9a6a00" fill-opacity="0.9"/><circle cx="316.5" cy="110.1" r="1.4" fill="#9a6a00" fill-opacity="0.9"/><circle cx="318" cy="106.2" r="1.4" fill="#9a6a00" fill-opacity="0.9"/><circle cx="319.5" cy="104.8" r="1.4" fill="#9a6a00" fill-opacity="0.9"/><circle cx="321" cy="189.5" r="1.4" fill="#9a6a00" fill-opacity="0.9"/><text x="288" y="246" text-anchor="middle" font-family="Inter,Segoe UI,Arial,sans-serif" font-size="9" font-weight="700" fill="#111827">mlx_lm</text><line x1="415.333" y1="204.4" x2="415.333" y2="209.6" stroke="#2eaf5f" stroke-opacity="0.55" stroke-width="1.7"/><line x1="409.573" y1="204.4" x2="421.093" y2="204.4" stroke="#2eaf5f" stroke-opacity="0.55" stroke-width="1.7"/><line x1="409.573" y1="209.6" x2="421.093" y2="209.6" stroke="#2eaf5f" stroke-opacity="0.55" stroke-width="1.7"/><rect x="407.333" y="205.2" width="16" height="1.0" rx="2" fill="#2eaf5f" fill-opacity="0.08" stroke="#2eaf5f" stroke-opacity="0.55" stroke-width="1.7"/><line x1="407.333" y1="205.6" x2="423.333" y2="205.6" stroke="#2eaf5f" stroke-opacity="0.55" stroke-width="2.4"/><text x="415.333" y="229" text-anchor="middle" font-family="Inter,Segoe UI,Arial,sans-serif" font-size="8" fill="#6b7280">128</text><circle cx="412.333" cy="206.2" r="1.4" fill="#176c37" fill-opacity="0.5"/><circle cx="413.833" cy="205.6" r="1.4" fill="#176c37" fill-opacity="0.5"/><circle cx="415.333" cy="205.2" r="1.4" fill="#176c37" fill-opacity="0.5"/><circle cx="416.833" cy="204.4" r="1.4" fill="#176c37" fill-opacity="0.5"/><circle cx="418.333" cy="209.6" r="1.4" fill="#176c37" fill-opacity="0.5"/><line x1="445.333" y1="187.7" x2="445.333" y2="206.9" stroke="#2eaf5f" stroke-opacity="0.78" stroke-width="1.7"/><line x1="439.573" y1="187.7" x2="451.093" y2="187.7" stroke="#2eaf5f" stroke-opacity="0.78" stroke-width="1.7"/><line x1="439.573" y1="206.9" x2="451.093" y2="206.9" stroke="#2eaf5f" stroke-opacity="0.78" stroke-width="1.7"/><rect x="437.333" y="188.0" width="16" height="2.0" rx="2" fill="#2eaf5f" fill-opacity="0.17" stroke="#2eaf5f" stroke-opacity="0.78" stroke-width="1.7"/><line x1="437.333" y1="188.5" x2="453.333" y2="188.5" stroke="#2eaf5f" stroke-opacity="0.78" stroke-width="2.4"/><text x="445.333" y="229" text-anchor="middle" font-family="Inter,Segoe UI,Arial,sans-serif" font-size="8" fill="#6b7280">512</text><circle cx="442.333" cy="190.0" r="1.4" fill="#176c37" fill-opacity="0.7"/><circle cx="443.833" cy="188.5" r="1.4" fill="#176c37" fill-opacity="0.7"/><circle cx="445.333" cy="188.0" r="1.4" fill="#176c37" fill-opacity="0.7"/><circle cx="446.833" cy="187.7" r="1.4" fill="#176c37" fill-opacity="0.7"/><circle cx="448.333" cy="206.9" r="1.4" fill="#176c37" fill-opacity="0.7"/><line x1="475.333" y1="113.9" x2="475.333" y2="191.6" stroke="#2eaf5f" stroke-opacity="1.0" stroke-width="1.7"/><line x1="469.573" y1="113.9" x2="481.093" y2="113.9" stroke="#2eaf5f" stroke-opacity="1.0" stroke-width="1.7"/><line x1="469.573" y1="191.6" x2="481.093" y2="191.6" stroke="#2eaf5f" stroke-opacity="1.0" stroke-width="1.7"/><rect x="467.333" y="114.1" width="16" height="7.3" rx="2" fill="#2eaf5f" fill-opacity="0.3" stroke="#2eaf5f" stroke-opacity="1.0" stroke-width="1.7"/><line x1="467.333" y1="115.6" x2="483.333" y2="115.6" stroke="#2eaf5f" stroke-opacity="1.0" stroke-width="2.4"/><text x="475.333" y="229" text-anchor="middle" font-family="Inter,Segoe UI,Arial,sans-serif" font-size="8" fill="#6b7280">2048</text><circle cx="472.333" cy="121.3" r="1.4" fill="#176c37" fill-opacity="0.9"/><circle cx="473.833" cy="115.6" r="1.4" fill="#176c37" fill-opacity="0.9"/><circle cx="475.333" cy="114.1" r="1.4" fill="#176c37" fill-opacity="0.9"/><circle cx="476.833" cy="113.9" r="1.4" fill="#176c37" fill-opacity="0.9"/><circle cx="478.333" cy="191.6" r="1.4" fill="#176c37" fill-opacity="0.9"/><text x="445.333" y="246" text-anchor="middle" font-family="Inter,Segoe UI,Arial,sans-serif" font-size="9" font-weight="700" fill="#111827">ax_engine</text></svg>
