<svg xmlns="http://www.w3.org/2000/svg" width="900" height="460" viewBox="0 0 900 460" role="img" aria-labelledby="title desc">
<title>Qwen3.6 27B 4-bit MTP accept rate</title>
<desc>Grouped box-and-whisker plot comparing MTPLX 0.3.7 (default), AX Engine v5.2.2 (MTP-only), AX Engine v5.2.2 (MTP + n-gram stacking) across all suites.</desc>
<rect width="100%" height="100%" fill="#f8fafc"/>
<text x="24" y="24" font-family="Inter,Segoe UI,Arial,sans-serif" font-size="16" font-weight="700" fill="#111827">Qwen3.6 27B 4-bit MTP accept rate</text>
<text x="24" y="46" font-family="Inter,Segoe UI,Arial,sans-serif" font-size="11" fill="#4b5563">All suites combined | accepted/drafted | box=IQR | dots=runs</text>
<text x="24" y="62" font-family="Inter,Segoe UI,Arial,sans-serif" font-size="10" fill="#6b7280">Vendor-default config per row · MTPLX 0.3.7 · AX Engine v5.2.2</text>
<rect x="818" y="13" width="48" height="22" rx="11" fill="#eef2ff" stroke="#c7d2fe"/>
<text x="842.0" y="28" text-anchor="middle" font-family="Inter,Segoe UI,Arial,sans-serif" font-size="10" font-weight="700" fill="#3730a3">%</text>
<text x="866" y="52" text-anchor="end" font-family="Inter,Segoe UI,Arial,sans-serif" font-size="10" font-weight="700" fill="#374151">Higher is better</text>
<rect x="64" y="86" width="676" height="268" rx="6" fill="#ffffff" stroke="#dbe3ef"/>
<line x1="64" y1="354.0" x2="740" y2="354.0" stroke="#e5e7eb" stroke-width="1"/>
<text x="56" y="357.0" text-anchor="end" font-family="Inter,Segoe UI,Arial,sans-serif" font-size="11" fill="#6b7280">0%</text>
<line x1="64" y1="287.0" x2="740" y2="287.0" stroke="#e5e7eb" stroke-width="1"/>
<text x="56" y="290.0" text-anchor="end" font-family="Inter,Segoe UI,Arial,sans-serif" font-size="11" fill="#6b7280">25%</text>
<line x1="64" y1="220.0" x2="740" y2="220.0" stroke="#e5e7eb" stroke-width="1"/>
<text x="56" y="223.0" text-anchor="end" font-family="Inter,Segoe UI,Arial,sans-serif" font-size="11" fill="#6b7280">50%</text>
<line x1="64" y1="153.0" x2="740" y2="153.0" stroke="#e5e7eb" stroke-width="1"/>
<text x="56" y="156.0" text-anchor="end" font-family="Inter,Segoe UI,Arial,sans-serif" font-size="11" fill="#6b7280">75%</text>
<line x1="64" y1="86.0" x2="740" y2="86.0" stroke="#e5e7eb" stroke-width="1"/>
<text x="56" y="89.0" text-anchor="end" font-family="Inter,Segoe UI,Arial,sans-serif" font-size="11" fill="#6b7280">100%</text>
<line x1="64" y1="86.7" x2="740" y2="86.7" stroke="#dc2626" stroke-width="1.2" stroke-dasharray="1 4" stroke-linecap="round"/>
<text x="748" y="97.0" text-anchor="start" font-family="Inter,Segoe UI,Arial,sans-serif" font-size="11" font-weight="700" fill="#dc2626" data-label="highest median">highest: 99.7%</text>
<text x="402.0" y="398" text-anchor="middle" font-family="Inter,Segoe UI,Arial,sans-serif" font-size="11" font-weight="700" fill="#111827">all suites</text>
<circle cx="127.8" cy="86.0" r="1.45" fill="#14532d" fill-opacity="0.46"/>
<circle cx="130.8" cy="86.0" r="1.45" fill="#14532d" fill-opacity="0.46"/>
<circle cx="133.9" cy="86.0" r="1.45" fill="#14532d" fill-opacity="0.46"/>
<circle cx="136.9" cy="86.0" r="1.45" fill="#14532d" fill-opacity="0.46"/>
<circle cx="140.0" cy="86.0" r="1.45" fill="#14532d" fill-opacity="0.46"/>
<circle cx="143.1" cy="89.1" r="1.45" fill="#14532d" fill-opacity="0.46"/>
<circle cx="146.1" cy="92.6" r="1.45" fill="#14532d" fill-opacity="0.46"/>
<circle cx="149.2" cy="89.1" r="1.45" fill="#14532d" fill-opacity="0.46"/>
<circle cx="152.2" cy="95.6" r="1.45" fill="#14532d" fill-opacity="0.46"/>
<circle cx="127.8" cy="96.6" r="1.45" fill="#14532d" fill-opacity="0.46"/>
<circle cx="130.8" cy="86.0" r="1.45" fill="#14532d" fill-opacity="0.46"/>
<circle cx="133.9" cy="86.0" r="1.45" fill="#14532d" fill-opacity="0.46"/>
<circle cx="136.9" cy="86.0" r="1.45" fill="#14532d" fill-opacity="0.46"/>
<circle cx="140.0" cy="86.0" r="1.45" fill="#14532d" fill-opacity="0.46"/>
<circle cx="143.1" cy="86.0" r="1.45" fill="#14532d" fill-opacity="0.46"/>
<circle cx="146.1" cy="86.0" r="1.45" fill="#14532d" fill-opacity="0.46"/>
<circle cx="149.2" cy="86.0" r="1.45" fill="#14532d" fill-opacity="0.46"/>
<circle cx="152.2" cy="86.0" r="1.45" fill="#14532d" fill-opacity="0.46"/>
<circle cx="127.8" cy="86.0" r="1.45" fill="#14532d" fill-opacity="0.46"/>
<circle cx="130.8" cy="86.0" r="1.45" fill="#14532d" fill-opacity="0.46"/>
<circle cx="133.9" cy="86.0" r="1.45" fill="#14532d" fill-opacity="0.46"/>
<circle cx="136.9" cy="86.4" r="1.45" fill="#14532d" fill-opacity="0.46"/>
<circle cx="140.0" cy="86.0" r="1.45" fill="#14532d" fill-opacity="0.46"/>
<circle cx="143.1" cy="86.0" r="1.45" fill="#14532d" fill-opacity="0.46"/>
<circle cx="146.1" cy="86.0" r="1.45" fill="#14532d" fill-opacity="0.46"/>
<circle cx="149.2" cy="88.5" r="1.45" fill="#14532d" fill-opacity="0.46"/>
<circle cx="152.2" cy="90.2" r="1.45" fill="#14532d" fill-opacity="0.46"/>
<circle cx="127.8" cy="87.4" r="1.45" fill="#14532d" fill-opacity="0.46"/>
<circle cx="130.8" cy="87.4" r="1.45" fill="#14532d" fill-opacity="0.46"/>
<circle cx="133.9" cy="89.2" r="1.45" fill="#14532d" fill-opacity="0.46"/>
<circle cx="136.9" cy="87.1" r="1.45" fill="#14532d" fill-opacity="0.46"/>
<circle cx="140.0" cy="87.1" r="1.45" fill="#14532d" fill-opacity="0.46"/>
<circle cx="143.1" cy="87.1" r="1.45" fill="#14532d" fill-opacity="0.46"/>
<circle cx="146.1" cy="88.5" r="1.45" fill="#14532d" fill-opacity="0.46"/>
<circle cx="149.2" cy="87.1" r="1.45" fill="#14532d" fill-opacity="0.46"/>
<circle cx="152.2" cy="86.0" r="1.45" fill="#14532d" fill-opacity="0.46"/>
<circle cx="127.8" cy="86.0" r="1.45" fill="#14532d" fill-opacity="0.46"/>
<circle cx="130.8" cy="86.0" r="1.45" fill="#14532d" fill-opacity="0.46"/>
<circle cx="133.9" cy="86.0" r="1.45" fill="#14532d" fill-opacity="0.46"/>
<circle cx="136.9" cy="86.0" r="1.45" fill="#14532d" fill-opacity="0.46"/>
<circle cx="140.0" cy="136.3" r="1.45" fill="#14532d" fill-opacity="0.46"/>
<circle cx="143.1" cy="129.1" r="1.45" fill="#14532d" fill-opacity="0.46"/>
<circle cx="146.1" cy="131.6" r="1.45" fill="#14532d" fill-opacity="0.46"/>
<circle cx="149.2" cy="131.3" r="1.45" fill="#14532d" fill-opacity="0.46"/>
<circle cx="152.2" cy="128.5" r="1.45" fill="#14532d" fill-opacity="0.46"/>
<circle cx="127.8" cy="117.6" r="1.45" fill="#14532d" fill-opacity="0.46"/>
<circle cx="130.8" cy="124.9" r="1.45" fill="#14532d" fill-opacity="0.46"/>
<circle cx="133.9" cy="116.4" r="1.45" fill="#14532d" fill-opacity="0.46"/>
<circle cx="136.9" cy="122.0" r="1.45" fill="#14532d" fill-opacity="0.46"/>
<circle cx="140.0" cy="115.5" r="1.45" fill="#14532d" fill-opacity="0.46"/>
<circle cx="143.1" cy="108.4" r="1.45" fill="#14532d" fill-opacity="0.46"/>
<circle cx="146.1" cy="115.8" r="1.45" fill="#14532d" fill-opacity="0.46"/>
<circle cx="149.2" cy="104.9" r="1.45" fill="#14532d" fill-opacity="0.46"/>
<circle cx="152.2" cy="99.4" r="1.45" fill="#14532d" fill-opacity="0.46"/>
<circle cx="127.8" cy="110.0" r="1.45" fill="#14532d" fill-opacity="0.46"/>
<line x1="140.0" y1="86.0" x2="140.0" y2="136.3" stroke="#14532d" stroke-opacity="0.86" stroke-width="1.8"/>
<line x1="127.8" y1="86.0" x2="152.2" y2="86.0" stroke="#14532d" stroke-opacity="0.86" stroke-width="1.8"/>
<line x1="127.8" y1="136.3" x2="152.2" y2="136.3" stroke="#14532d" stroke-opacity="0.86" stroke-width="1.8"/>
<rect x="123.0" y="86.0" width="34.0" height="16.2" rx="2" fill="#14532d" fill-opacity="0.18" stroke="#14532d" stroke-opacity="0.9" stroke-width="1.8"/>
<line x1="123.0" y1="87.1" x2="157.0" y2="87.1" stroke="#14532d" stroke-opacity="0.96" stroke-width="2.6"/>
<text x="163.0" y="91.1" text-anchor="start" font-family="Inter,Segoe UI,Arial,sans-serif" font-size="11" font-weight="700" fill="#111827" stroke="#ffffff" stroke-width="3" paint-order="stroke">99.6%</text>
<circle cx="389.8" cy="86.0" r="1.45" fill="#f97316" fill-opacity="0.46"/>
<circle cx="392.8" cy="86.0" r="1.45" fill="#f97316" fill-opacity="0.46"/>
<circle cx="395.9" cy="86.0" r="1.45" fill="#f97316" fill-opacity="0.46"/>
<circle cx="398.9" cy="86.0" r="1.45" fill="#f97316" fill-opacity="0.46"/>
<circle cx="402.0" cy="86.0" r="1.45" fill="#f97316" fill-opacity="0.46"/>
<circle cx="405.1" cy="90.7" r="1.45" fill="#f97316" fill-opacity="0.46"/>
<circle cx="408.1" cy="96.7" r="1.45" fill="#f97316" fill-opacity="0.46"/>
<circle cx="411.2" cy="90.7" r="1.45" fill="#f97316" fill-opacity="0.46"/>
<circle cx="414.2" cy="93.5" r="1.45" fill="#f97316" fill-opacity="0.46"/>
<circle cx="389.8" cy="98.0" r="1.45" fill="#f97316" fill-opacity="0.46"/>
<circle cx="392.8" cy="86.7" r="1.45" fill="#f97316" fill-opacity="0.46"/>
<circle cx="395.9" cy="86.7" r="1.45" fill="#f97316" fill-opacity="0.46"/>
<circle cx="398.9" cy="86.7" r="1.45" fill="#f97316" fill-opacity="0.46"/>
<circle cx="402.0" cy="86.7" r="1.45" fill="#f97316" fill-opacity="0.46"/>
<circle cx="405.1" cy="86.7" r="1.45" fill="#f97316" fill-opacity="0.46"/>
<circle cx="408.1" cy="86.0" r="1.45" fill="#f97316" fill-opacity="0.46"/>
<circle cx="411.2" cy="86.0" r="1.45" fill="#f97316" fill-opacity="0.46"/>
<circle cx="414.2" cy="86.0" r="1.45" fill="#f97316" fill-opacity="0.46"/>
<circle cx="389.8" cy="86.0" r="1.45" fill="#f97316" fill-opacity="0.46"/>
<circle cx="392.8" cy="86.0" r="1.45" fill="#f97316" fill-opacity="0.46"/>
<circle cx="395.9" cy="86.7" r="1.45" fill="#f97316" fill-opacity="0.46"/>
<circle cx="398.9" cy="86.7" r="1.45" fill="#f97316" fill-opacity="0.46"/>
<circle cx="402.0" cy="86.7" r="1.45" fill="#f97316" fill-opacity="0.46"/>
<circle cx="405.1" cy="86.7" r="1.45" fill="#f97316" fill-opacity="0.46"/>
<circle cx="408.1" cy="86.7" r="1.45" fill="#f97316" fill-opacity="0.46"/>
<circle cx="411.2" cy="86.4" r="1.45" fill="#f97316" fill-opacity="0.46"/>
<circle cx="414.2" cy="87.2" r="1.45" fill="#f97316" fill-opacity="0.46"/>
<circle cx="389.8" cy="86.4" r="1.45" fill="#f97316" fill-opacity="0.46"/>
<circle cx="392.8" cy="86.0" r="1.45" fill="#f97316" fill-opacity="0.46"/>
<circle cx="395.9" cy="87.2" r="1.45" fill="#f97316" fill-opacity="0.46"/>
<circle cx="398.9" cy="92.1" r="1.45" fill="#f97316" fill-opacity="0.46"/>
<circle cx="402.0" cy="90.9" r="1.45" fill="#f97316" fill-opacity="0.46"/>
<circle cx="405.1" cy="92.9" r="1.45" fill="#f97316" fill-opacity="0.46"/>
<circle cx="408.1" cy="92.1" r="1.45" fill="#f97316" fill-opacity="0.46"/>
<circle cx="411.2" cy="91.7" r="1.45" fill="#f97316" fill-opacity="0.46"/>
<circle cx="414.2" cy="86.7" r="1.45" fill="#f97316" fill-opacity="0.46"/>
<circle cx="389.8" cy="86.7" r="1.45" fill="#f97316" fill-opacity="0.46"/>
<circle cx="392.8" cy="86.7" r="1.45" fill="#f97316" fill-opacity="0.46"/>
<circle cx="395.9" cy="86.7" r="1.45" fill="#f97316" fill-opacity="0.46"/>
<circle cx="398.9" cy="86.7" r="1.45" fill="#f97316" fill-opacity="0.46"/>
<circle cx="402.0" cy="94.1" r="1.45" fill="#f97316" fill-opacity="0.46"/>
<circle cx="405.1" cy="95.3" r="1.45" fill="#f97316" fill-opacity="0.46"/>
<circle cx="408.1" cy="93.2" r="1.45" fill="#f97316" fill-opacity="0.46"/>
<circle cx="411.2" cy="97.8" r="1.45" fill="#f97316" fill-opacity="0.46"/>
<circle cx="414.2" cy="92.3" r="1.45" fill="#f97316" fill-opacity="0.46"/>
<circle cx="389.8" cy="91.0" r="1.45" fill="#f97316" fill-opacity="0.46"/>
<circle cx="392.8" cy="94.8" r="1.45" fill="#f97316" fill-opacity="0.46"/>
<circle cx="395.9" cy="93.0" r="1.45" fill="#f97316" fill-opacity="0.46"/>
<circle cx="398.9" cy="92.4" r="1.45" fill="#f97316" fill-opacity="0.46"/>
<circle cx="402.0" cy="97.1" r="1.45" fill="#f97316" fill-opacity="0.46"/>
<circle cx="405.1" cy="92.6" r="1.45" fill="#f97316" fill-opacity="0.46"/>
<circle cx="408.1" cy="91.8" r="1.45" fill="#f97316" fill-opacity="0.46"/>
<circle cx="411.2" cy="97.5" r="1.45" fill="#f97316" fill-opacity="0.46"/>
<circle cx="414.2" cy="99.1" r="1.45" fill="#f97316" fill-opacity="0.46"/>
<circle cx="389.8" cy="94.6" r="1.45" fill="#f97316" fill-opacity="0.46"/>
<line x1="402.0" y1="86.0" x2="402.0" y2="99.1" stroke="#f97316" stroke-opacity="0.86" stroke-width="1.8"/>
<line x1="389.8" y1="86.0" x2="414.2" y2="86.0" stroke="#f97316" stroke-opacity="0.86" stroke-width="1.8"/>
<line x1="389.8" y1="99.1" x2="414.2" y2="99.1" stroke="#f97316" stroke-opacity="0.86" stroke-width="1.8"/>
<rect x="385.0" y="86.7" width="34.0" height="6.0" rx="2" fill="#f97316" fill-opacity="0.18" stroke="#f97316" stroke-opacity="0.9" stroke-width="1.8"/>
<line x1="385.0" y1="86.7" x2="419.0" y2="86.7" stroke="#f97316" stroke-opacity="0.96" stroke-width="2.6"/>
<text x="425.0" y="90.7" text-anchor="start" font-family="Inter,Segoe UI,Arial,sans-serif" font-size="11" font-weight="700" fill="#111827" stroke="#ffffff" stroke-width="3" paint-order="stroke">99.7%</text>
<circle cx="651.8" cy="86.0" r="1.45" fill="#eab308" fill-opacity="0.46"/>
<circle cx="654.8" cy="86.0" r="1.45" fill="#eab308" fill-opacity="0.46"/>
<circle cx="657.9" cy="86.0" r="1.45" fill="#eab308" fill-opacity="0.46"/>
<circle cx="660.9" cy="86.0" r="1.45" fill="#eab308" fill-opacity="0.46"/>
<circle cx="664.0" cy="86.0" r="1.45" fill="#eab308" fill-opacity="0.46"/>
<circle cx="667.1" cy="94.2" r="1.45" fill="#eab308" fill-opacity="0.46"/>
<circle cx="670.1" cy="96.1" r="1.45" fill="#eab308" fill-opacity="0.46"/>
<circle cx="673.2" cy="96.6" r="1.45" fill="#eab308" fill-opacity="0.46"/>
<circle cx="676.2" cy="100.3" r="1.45" fill="#eab308" fill-opacity="0.46"/>
<circle cx="651.8" cy="92.3" r="1.45" fill="#eab308" fill-opacity="0.46"/>
<circle cx="654.8" cy="87.5" r="1.45" fill="#eab308" fill-opacity="0.46"/>
<circle cx="657.9" cy="87.5" r="1.45" fill="#eab308" fill-opacity="0.46"/>
<circle cx="660.9" cy="87.5" r="1.45" fill="#eab308" fill-opacity="0.46"/>
<circle cx="664.0" cy="87.5" r="1.45" fill="#eab308" fill-opacity="0.46"/>
<circle cx="667.1" cy="87.5" r="1.45" fill="#eab308" fill-opacity="0.46"/>
<circle cx="670.1" cy="87.8" r="1.45" fill="#eab308" fill-opacity="0.46"/>
<circle cx="673.2" cy="87.8" r="1.45" fill="#eab308" fill-opacity="0.46"/>
<circle cx="676.2" cy="87.8" r="1.45" fill="#eab308" fill-opacity="0.46"/>
<circle cx="651.8" cy="87.8" r="1.45" fill="#eab308" fill-opacity="0.46"/>
<circle cx="654.8" cy="87.8" r="1.45" fill="#eab308" fill-opacity="0.46"/>
<circle cx="657.9" cy="87.1" r="1.45" fill="#eab308" fill-opacity="0.46"/>
<circle cx="660.9" cy="87.1" r="1.45" fill="#eab308" fill-opacity="0.46"/>
<circle cx="664.0" cy="87.1" r="1.45" fill="#eab308" fill-opacity="0.46"/>
<circle cx="667.1" cy="87.1" r="1.45" fill="#eab308" fill-opacity="0.46"/>
<circle cx="670.1" cy="87.1" r="1.45" fill="#eab308" fill-opacity="0.46"/>
<circle cx="673.2" cy="88.0" r="1.45" fill="#eab308" fill-opacity="0.46"/>
<circle cx="676.2" cy="87.2" r="1.45" fill="#eab308" fill-opacity="0.46"/>
<circle cx="651.8" cy="88.0" r="1.45" fill="#eab308" fill-opacity="0.46"/>
<circle cx="654.8" cy="87.6" r="1.45" fill="#eab308" fill-opacity="0.46"/>
<circle cx="657.9" cy="88.8" r="1.45" fill="#eab308" fill-opacity="0.46"/>
<circle cx="660.9" cy="88.9" r="1.45" fill="#eab308" fill-opacity="0.46"/>
<circle cx="664.0" cy="89.6" r="1.45" fill="#eab308" fill-opacity="0.46"/>
<circle cx="667.1" cy="90.6" r="1.45" fill="#eab308" fill-opacity="0.46"/>
<circle cx="670.1" cy="88.9" r="1.45" fill="#eab308" fill-opacity="0.46"/>
<circle cx="673.2" cy="90.4" r="1.45" fill="#eab308" fill-opacity="0.46"/>
<circle cx="676.2" cy="88.6" r="1.45" fill="#eab308" fill-opacity="0.46"/>
<circle cx="651.8" cy="88.6" r="1.45" fill="#eab308" fill-opacity="0.46"/>
<circle cx="654.8" cy="88.6" r="1.45" fill="#eab308" fill-opacity="0.46"/>
<circle cx="657.9" cy="88.6" r="1.45" fill="#eab308" fill-opacity="0.46"/>
<circle cx="660.9" cy="88.6" r="1.45" fill="#eab308" fill-opacity="0.46"/>
<circle cx="664.0" cy="94.4" r="1.45" fill="#eab308" fill-opacity="0.46"/>
<circle cx="667.1" cy="94.5" r="1.45" fill="#eab308" fill-opacity="0.46"/>
<circle cx="670.1" cy="93.2" r="1.45" fill="#eab308" fill-opacity="0.46"/>
<circle cx="673.2" cy="99.1" r="1.45" fill="#eab308" fill-opacity="0.46"/>
<circle cx="676.2" cy="95.3" r="1.45" fill="#eab308" fill-opacity="0.46"/>
<circle cx="651.8" cy="91.0" r="1.45" fill="#eab308" fill-opacity="0.46"/>
<circle cx="654.8" cy="91.8" r="1.45" fill="#eab308" fill-opacity="0.46"/>
<circle cx="657.9" cy="93.2" r="1.45" fill="#eab308" fill-opacity="0.46"/>
<circle cx="660.9" cy="91.3" r="1.45" fill="#eab308" fill-opacity="0.46"/>
<circle cx="664.0" cy="95.7" r="1.45" fill="#eab308" fill-opacity="0.46"/>
<circle cx="667.1" cy="91.8" r="1.45" fill="#eab308" fill-opacity="0.46"/>
<circle cx="670.1" cy="92.1" r="1.45" fill="#eab308" fill-opacity="0.46"/>
<circle cx="673.2" cy="92.6" r="1.45" fill="#eab308" fill-opacity="0.46"/>
<circle cx="676.2" cy="92.3" r="1.45" fill="#eab308" fill-opacity="0.46"/>
<circle cx="651.8" cy="90.9" r="1.45" fill="#eab308" fill-opacity="0.46"/>
<line x1="664.0" y1="86.0" x2="664.0" y2="100.3" stroke="#eab308" stroke-opacity="0.86" stroke-width="1.8"/>
<line x1="651.8" y1="86.0" x2="676.2" y2="86.0" stroke="#eab308" stroke-opacity="0.86" stroke-width="1.8"/>
<line x1="651.8" y1="100.3" x2="676.2" y2="100.3" stroke="#eab308" stroke-opacity="0.86" stroke-width="1.8"/>
<rect x="647.0" y="87.5" width="34.0" height="4.7" rx="2" fill="#eab308" fill-opacity="0.18" stroke="#eab308" stroke-opacity="0.9" stroke-width="1.8"/>
<line x1="647.0" y1="88.6" x2="681.0" y2="88.6" stroke="#eab308" stroke-opacity="0.96" stroke-width="2.6"/>
<text x="687.0" y="92.6" text-anchor="start" font-family="Inter,Segoe UI,Arial,sans-serif" font-size="11" font-weight="700" fill="#111827" stroke="#ffffff" stroke-width="3" paint-order="stroke">99.0%</text>
<rect x="64.0" y="433" width="10" height="10" rx="2" fill="#14532d" fill-opacity="0.72"/>
<text x="78.0" y="442" font-family="Inter,Segoe UI,Arial,sans-serif" font-size="10" fill="#374151">MTPLX 0.3.7 (default)</text>
<rect x="289.3" y="433" width="10" height="10" rx="2" fill="#f97316" fill-opacity="0.72"/>
<text x="303.3" y="442" font-family="Inter,Segoe UI,Arial,sans-serif" font-size="10" fill="#374151">AX Engine v5.2.2 (MTP-only)</text>
<rect x="514.7" y="433" width="10" height="10" rx="2" fill="#eab308" fill-opacity="0.72"/>
<text x="528.7" y="442" font-family="Inter,Segoe UI,Arial,sans-serif" font-size="10" fill="#374151">AX Engine v5.2.2 (MTP + n-gram stacking)</text>
</svg>
