<svg xmlns="http://www.w3.org/2000/svg" width="460" height="276" viewBox="0 0 460 276" role="img" aria-labelledby="title desc"><title>TTFT</title><desc>Box-and-Whisker Plot comparing mlx_lm, mlx_swift_lm, ax_engine, and ax_engine plus n-gram across 28 README benchmark rows. A red dotted horizontal line marks the ax_engine plus n-gram median.</desc><rect width="460" height="276" fill="#ffffff"/><text x="52" y="22" font-family="Inter,Segoe UI,Arial,sans-serif" font-size="16" font-weight="700" fill="#111827">TTFT</text><text x="442" y="22" text-anchor="end" font-family="Inter,Segoe UI,Arial,sans-serif" font-size="10" fill="#6b7280">ms</text><text x="442" y="40" text-anchor="end" font-family="Inter,Segoe UI,Arial,sans-serif" font-size="10" font-weight="700" fill="#374151">Lower is better</text><line x1="52" y1="206.0" x2="442" y2="206.0" stroke="#e5e7eb" stroke-width="1"/><text x="44" y="209.0" text-anchor="end" font-family="Inter,Segoe UI,Arial,sans-serif" font-size="10" fill="#6b7280">0</text><line x1="52" y1="126.0" x2="442" y2="126.0" stroke="#e5e7eb" stroke-width="1"/><text x="44" y="129.0" text-anchor="end" font-family="Inter,Segoe UI,Arial,sans-serif" font-size="10" fill="#6b7280">450</text><line x1="52" y1="46.0" x2="442" y2="46.0" stroke="#e5e7eb" stroke-width="1"/><text x="44" y="49.0" text-anchor="end" font-family="Inter,Segoe UI,Arial,sans-serif" font-size="10" fill="#6b7280">900</text><line x1="52" y1="184.5" x2="442" y2="184.5" stroke="#dc2626" stroke-width="1.2" stroke-dasharray="2 4"/><rect x="270" y="50" width="165" height="160" fill="none" stroke="#dc2626" stroke-width="1.4"/><line x1="98.8" y1="64.5" x2="98.8" y2="196.3" stroke="#f2b705" stroke-width="2"/><line x1="88.8" y1="64.5" x2="108.8" y2="64.5" stroke="#f2b705" stroke-width="2"/><line x1="88.8" y1="196.3" x2="108.8" y2="196.3" stroke="#f2b705" stroke-width="2"/><rect x="77.8" y="148.6" width="42" height="44.2" rx="4" fill="#f2b705" fill-opacity="0.18" stroke="#f2b705" stroke-width="2"/><line x1="77.8" y1="160.1" x2="119.8" y2="160.1" stroke="#f2b705" stroke-width="3"/><text x="98.8" y="230" text-anchor="middle" font-family="Inter,Segoe UI,Arial,sans-serif" font-size="9" fill="#111827">mlx_lm</text><text x="98.8" y="246" text-anchor="middle" font-family="Inter,Segoe UI,Arial,sans-serif" font-size="10" fill="#6b7280">med 258</text><circle cx="90.3" cy="196.3" r="2" fill="#9a6a00" fill-opacity="0.9"/><circle cx="93.8" cy="193.9" r="2" fill="#9a6a00" fill-opacity="0.9"/><circle cx="96.8" cy="195.3" r="2" fill="#9a6a00" fill-opacity="0.9"/><circle cx="100.3" cy="192.8" r="2" fill="#9a6a00" fill-opacity="0.9"/><circle cx="103.8" cy="195.1" r="2" fill="#9a6a00" fill-opacity="0.9"/><circle cx="107.3" cy="192.8" r="2" fill="#9a6a00" fill-opacity="0.9"/><circle cx="92.3" cy="194.6" r="2" fill="#9a6a00" fill-opacity="0.9"/><circle cx="102.3" cy="192.8" r="2" fill="#9a6a00" fill-opacity="0.9"/><circle cx="90.3" cy="192.3" r="2" fill="#9a6a00" fill-opacity="0.9"/><circle cx="93.8" cy="185.2" r="2" fill="#9a6a00" fill-opacity="0.9"/><circle cx="96.8" cy="173.6" r="2" fill="#9a6a00" fill-opacity="0.9"/><circle cx="100.3" cy="160.8" r="2" fill="#9a6a00" fill-opacity="0.9"/><circle cx="103.8" cy="143.3" r="2" fill="#9a6a00" fill-opacity="0.9"/><circle cx="107.3" cy="64.5" r="2" fill="#9a6a00" fill-opacity="0.9"/><circle cx="92.3" cy="181.4" r="2" fill="#9a6a00" fill-opacity="0.9"/><circle cx="102.3" cy="153.8" r="2" fill="#9a6a00" fill-opacity="0.9"/><circle cx="90.3" cy="162.6" r="2" fill="#9a6a00" fill-opacity="0.9"/><circle cx="93.8" cy="149.4" r="2" fill="#9a6a00" fill-opacity="0.9"/><circle cx="96.8" cy="157.8" r="2" fill="#9a6a00" fill-opacity="0.9"/><circle cx="100.3" cy="146.4" r="2" fill="#9a6a00" fill-opacity="0.9"/><circle cx="103.8" cy="153.0" r="2" fill="#9a6a00" fill-opacity="0.9"/><circle cx="107.3" cy="141.7" r="2" fill="#9a6a00" fill-opacity="0.9"/><circle cx="92.3" cy="149.3" r="2" fill="#9a6a00" fill-opacity="0.9"/><circle cx="102.3" cy="135.3" r="2" fill="#9a6a00" fill-opacity="0.9"/><circle cx="90.3" cy="122.8" r="2" fill="#9a6a00" fill-opacity="0.9"/><circle cx="93.8" cy="102.0" r="2" fill="#9a6a00" fill-opacity="0.9"/><circle cx="96.8" cy="159.5" r="2" fill="#9a6a00" fill-opacity="0.9"/><circle cx="100.3" cy="149.4" r="2" fill="#9a6a00" fill-opacity="0.9"/><line x1="200.2" y1="93.7" x2="200.2" y2="196.2" stroke="#4062bb" stroke-width="2"/><line x1="190.2" y1="93.7" x2="210.2" y2="93.7" stroke="#4062bb" stroke-width="2"/><line x1="190.2" y1="196.2" x2="210.2" y2="196.2" stroke="#4062bb" stroke-width="2"/><rect x="179.2" y="169.7" width="42" height="20.9" rx="4" fill="#4062bb" fill-opacity="0.18" stroke="#4062bb" stroke-width="2"/><line x1="179.2" y1="181.1" x2="221.2" y2="181.1" stroke="#4062bb" stroke-width="3"/><text x="200.2" y="230" text-anchor="middle" font-family="Inter,Segoe UI,Arial,sans-serif" font-size="9" fill="#111827">mlx_swift_lm</text><text x="200.2" y="246" text-anchor="middle" font-family="Inter,Segoe UI,Arial,sans-serif" font-size="10" fill="#6b7280">med 140</text><circle cx="191.7" cy="195.7" r="2" fill="#243b87" fill-opacity="0.9"/><circle cx="195.2" cy="191.1" r="2" fill="#243b87" fill-opacity="0.9"/><circle cx="198.2" cy="194.7" r="2" fill="#243b87" fill-opacity="0.9"/><circle cx="201.7" cy="190.0" r="2" fill="#243b87" fill-opacity="0.9"/><circle cx="205.2" cy="194.8" r="2" fill="#243b87" fill-opacity="0.9"/><circle cx="208.7" cy="190.1" r="2" fill="#243b87" fill-opacity="0.9"/><circle cx="193.7" cy="196.2" r="2" fill="#243b87" fill-opacity="0.9"/><circle cx="203.7" cy="190.5" r="2" fill="#243b87" fill-opacity="0.9"/><circle cx="191.7" cy="194.1" r="2" fill="#243b87" fill-opacity="0.9"/><circle cx="195.2" cy="185.0" r="2" fill="#243b87" fill-opacity="0.9"/><circle cx="198.2" cy="187.7" r="2" fill="#243b87" fill-opacity="0.9"/><circle cx="201.7" cy="174.8" r="2" fill="#243b87" fill-opacity="0.9"/><circle cx="205.2" cy="170.5" r="2" fill="#243b87" fill-opacity="0.9"/><circle cx="208.7" cy="93.7" r="2" fill="#243b87" fill-opacity="0.9"/><circle cx="193.7" cy="192.1" r="2" fill="#243b87" fill-opacity="0.9"/><circle cx="203.7" cy="167.6" r="2" fill="#243b87" fill-opacity="0.9"/><circle cx="191.7" cy="182.7" r="2" fill="#243b87" fill-opacity="0.9"/><circle cx="195.2" cy="170.9" r="2" fill="#243b87" fill-opacity="0.9"/><circle cx="198.2" cy="179.8" r="2" fill="#243b87" fill-opacity="0.9"/><circle cx="201.7" cy="169.1" r="2" fill="#243b87" fill-opacity="0.9"/><circle cx="205.2" cy="176.8" r="2" fill="#243b87" fill-opacity="0.9"/><circle cx="208.7" cy="168.2" r="2" fill="#243b87" fill-opacity="0.9"/><circle cx="193.7" cy="171.7" r="2" fill="#243b87" fill-opacity="0.9"/><circle cx="203.7" cy="167.9" r="2" fill="#243b87" fill-opacity="0.9"/><circle cx="191.7" cy="153.8" r="2" fill="#243b87" fill-opacity="0.9"/><circle cx="195.2" cy="149.0" r="2" fill="#243b87" fill-opacity="0.9"/><circle cx="198.2" cy="182.5" r="2" fill="#243b87" fill-opacity="0.9"/><circle cx="201.7" cy="169.9" r="2" fill="#243b87" fill-opacity="0.9"/><line x1="301.6" y1="89.6" x2="301.6" y2="200.2" stroke="#2eaf5f" stroke-width="2"/><line x1="291.6" y1="89.6" x2="311.6" y2="89.6" stroke="#2eaf5f" stroke-width="2"/><line x1="291.6" y1="200.2" x2="311.6" y2="200.2" stroke="#2eaf5f" stroke-width="2"/><rect x="280.6" y="173.8" width="42" height="21.3" rx="4" fill="#2eaf5f" fill-opacity="0.18" stroke="#2eaf5f" stroke-width="2"/><line x1="280.6" y1="184.6" x2="322.6" y2="184.6" stroke="#2eaf5f" stroke-width="3"/><text x="301.6" y="230" text-anchor="middle" font-family="Inter,Segoe UI,Arial,sans-serif" font-size="9" fill="#111827">ax_engine</text><text x="301.6" y="246" text-anchor="middle" font-family="Inter,Segoe UI,Arial,sans-serif" font-size="10" fill="#6b7280">med 120</text><circle cx="293.1" cy="200.2" r="2" fill="#176c37" fill-opacity="0.9"/><circle cx="296.6" cy="195.3" r="2" fill="#176c37" fill-opacity="0.9"/><circle cx="299.6" cy="200.1" r="2" fill="#176c37" fill-opacity="0.9"/><circle cx="303.1" cy="194.9" r="2" fill="#176c37" fill-opacity="0.9"/><circle cx="306.6" cy="200.0" r="2" fill="#176c37" fill-opacity="0.9"/><circle cx="310.1" cy="194.8" r="2" fill="#176c37" fill-opacity="0.9"/><circle cx="295.1" cy="200.0" r="2" fill="#176c37" fill-opacity="0.9"/><circle cx="305.1" cy="195.0" r="2" fill="#176c37" fill-opacity="0.9"/><circle cx="293.1" cy="198.4" r="2" fill="#176c37" fill-opacity="0.9"/><circle cx="296.6" cy="186.4" r="2" fill="#176c37" fill-opacity="0.9"/><circle cx="299.6" cy="188.7" r="2" fill="#176c37" fill-opacity="0.9"/><circle cx="303.1" cy="176.9" r="2" fill="#176c37" fill-opacity="0.9"/><circle cx="306.6" cy="171.1" r="2" fill="#176c37" fill-opacity="0.9"/><circle cx="310.1" cy="89.6" r="2" fill="#176c37" fill-opacity="0.9"/><circle cx="295.1" cy="196.1" r="2" fill="#176c37" fill-opacity="0.9"/><circle cx="305.1" cy="176.1" r="2" fill="#176c37" fill-opacity="0.9"/><circle cx="293.1" cy="185.6" r="2" fill="#176c37" fill-opacity="0.9"/><circle cx="296.6" cy="174.0" r="2" fill="#176c37" fill-opacity="0.9"/><circle cx="299.6" cy="184.9" r="2" fill="#176c37" fill-opacity="0.9"/><circle cx="303.1" cy="173.0" r="2" fill="#176c37" fill-opacity="0.9"/><circle cx="306.6" cy="184.3" r="2" fill="#176c37" fill-opacity="0.9"/><circle cx="310.1" cy="171.6" r="2" fill="#176c37" fill-opacity="0.9"/><circle cx="295.1" cy="183.9" r="2" fill="#176c37" fill-opacity="0.9"/><circle cx="305.1" cy="171.2" r="2" fill="#176c37" fill-opacity="0.9"/><circle cx="293.1" cy="180.6" r="2" fill="#176c37" fill-opacity="0.9"/><circle cx="296.6" cy="156.7" r="2" fill="#176c37" fill-opacity="0.9"/><circle cx="299.6" cy="181.6" r="2" fill="#176c37" fill-opacity="0.9"/><circle cx="303.1" cy="170.0" r="2" fill="#176c37" fill-opacity="0.9"/><line x1="403" y1="89.7" x2="403" y2="200.2" stroke="#137a3d" stroke-width="2"/><line x1="393" y1="89.7" x2="413" y2="89.7" stroke="#137a3d" stroke-width="2"/><line x1="393" y1="200.2" x2="413" y2="200.2" stroke="#137a3d" stroke-width="2"/><rect x="382" y="173.6" width="42" height="21.4" rx="4" fill="#137a3d" fill-opacity="0.18" stroke="#137a3d" stroke-width="2"/><line x1="382" y1="184.5" x2="424" y2="184.5" stroke="#137a3d" stroke-width="3"/><text x="403" y="230" text-anchor="middle" font-family="Inter,Segoe UI,Arial,sans-serif" font-size="9" fill="#111827">ax_engine + n-gram</text><text x="403" y="246" text-anchor="middle" font-family="Inter,Segoe UI,Arial,sans-serif" font-size="10" fill="#6b7280">med 121</text><circle cx="394.5" cy="200.2" r="2" fill="#0b4f28" fill-opacity="0.9"/><circle cx="398" cy="195.3" r="2" fill="#0b4f28" fill-opacity="0.9"/><circle cx="401" cy="200.1" r="2" fill="#0b4f28" fill-opacity="0.9"/><circle cx="404.5" cy="195.0" r="2" fill="#0b4f28" fill-opacity="0.9"/><circle cx="408" cy="200.0" r="2" fill="#0b4f28" fill-opacity="0.9"/><circle cx="411.5" cy="193.7" r="2" fill="#0b4f28" fill-opacity="0.9"/><circle cx="396.5" cy="200.0" r="2" fill="#0b4f28" fill-opacity="0.9"/><circle cx="406.5" cy="195.0" r="2" fill="#0b4f28" fill-opacity="0.9"/><circle cx="394.5" cy="198.4" r="2" fill="#0b4f28" fill-opacity="0.9"/><circle cx="398" cy="186.5" r="2" fill="#0b4f28" fill-opacity="0.9"/><circle cx="401" cy="188.7" r="2" fill="#0b4f28" fill-opacity="0.9"/><circle cx="404.5" cy="177.0" r="2" fill="#0b4f28" fill-opacity="0.9"/><circle cx="408" cy="171.0" r="2" fill="#0b4f28" fill-opacity="0.9"/><circle cx="411.5" cy="89.7" r="2" fill="#0b4f28" fill-opacity="0.9"/><circle cx="396.5" cy="196.1" r="2" fill="#0b4f28" fill-opacity="0.9"/><circle cx="406.5" cy="176.2" r="2" fill="#0b4f28" fill-opacity="0.9"/><circle cx="394.5" cy="185.8" r="2" fill="#0b4f28" fill-opacity="0.9"/><circle cx="398" cy="173.9" r="2" fill="#0b4f28" fill-opacity="0.9"/><circle cx="401" cy="184.6" r="2" fill="#0b4f28" fill-opacity="0.9"/><circle cx="404.5" cy="172.9" r="2" fill="#0b4f28" fill-opacity="0.9"/><circle cx="408" cy="184.3" r="2" fill="#0b4f28" fill-opacity="0.9"/><circle cx="411.5" cy="171.5" r="2" fill="#0b4f28" fill-opacity="0.9"/><circle cx="396.5" cy="184.0" r="2" fill="#0b4f28" fill-opacity="0.9"/><circle cx="406.5" cy="171.3" r="2" fill="#0b4f28" fill-opacity="0.9"/><circle cx="394.5" cy="180.5" r="2" fill="#0b4f28" fill-opacity="0.9"/><circle cx="398" cy="156.7" r="2" fill="#0b4f28" fill-opacity="0.9"/><circle cx="401" cy="181.7" r="2" fill="#0b4f28" fill-opacity="0.9"/><circle cx="404.5" cy="169.9" r="2" fill="#0b4f28" fill-opacity="0.9"/></svg>
