<svg xmlns="http://www.w3.org/2000/svg" width="700" height="340" viewBox="0 0 700 340" role="img" aria-labelledby="title desc"><title>Qwen 3.6 — TTFT</title><desc>Grouped box-and-whisker plot comparing llama.cpp b9430, mlx-lm 0.31.3, AX Engine v5.1.1 at 128/512/2048 prompt tokens for Qwen 3.6 models. A red dotted line marks the lowest median.</desc><rect width="700" height="340" fill="#ffffff"/><text x="52" y="22" font-family="Inter,Segoe UI,Arial,sans-serif" font-size="16" font-weight="700" fill="#111827">Qwen 3.6 — TTFT</text><text x="684" y="22" text-anchor="end" font-family="Inter,Segoe UI,Arial,sans-serif" font-size="10" fill="#6b7280">ms</text><text x="684" y="40" text-anchor="end" font-family="Inter,Segoe UI,Arial,sans-serif" font-size="10" font-weight="700" fill="#dc2626">Lower is better</text><line x1="52" y1="276.0" x2="684" y2="276.0" stroke="#e5e7eb" stroke-width="1"/><text x="44" y="279.0" text-anchor="end" font-family="Inter,Segoe UI,Arial,sans-serif" font-size="10" fill="#6b7280">0</text><line x1="52" y1="161.0" x2="684" y2="161.0" stroke="#e5e7eb" stroke-width="1"/><text x="44" y="164.0" text-anchor="end" font-family="Inter,Segoe UI,Arial,sans-serif" font-size="10" fill="#6b7280">2k</text><line x1="52" y1="46.0" x2="684" y2="46.0" stroke="#e5e7eb" stroke-width="1"/><text x="44" y="49.0" text-anchor="end" font-family="Inter,Segoe UI,Arial,sans-serif" font-size="10" fill="#6b7280">4k</text><line x1="52" y1="262.4" x2="684" y2="262.4" stroke="#dc2626" stroke-width="1.2" stroke-dasharray="1 4" stroke-linecap="round"/><line x1="127.333" y1="261.8" x2="127.333" y2="271.8" stroke="#f97316" stroke-opacity="0.55" stroke-width="1.7"/><line x1="121.573" y1="261.8" x2="133.093" y2="261.8" stroke="#f97316" stroke-opacity="0.55" stroke-width="1.7"/><line x1="121.573" y1="271.8" x2="133.093" y2="271.8" stroke="#f97316" stroke-opacity="0.55" stroke-width="1.7"/><rect x="119.333" y="262.1" width="16" height="1.0" rx="2" fill="#f97316" fill-opacity="0.08" stroke="#f97316" stroke-opacity="0.55" stroke-width="1.7"/><line x1="119.333" y1="262.4" x2="135.333" y2="262.4" stroke="#f97316" stroke-opacity="0.55" stroke-width="2.4"/><text x="127.333" y="291" text-anchor="middle" font-family="Inter,Segoe UI,Arial,sans-serif" font-size="8" fill="#6b7280">128</text><circle cx="124.333" cy="262.1" r="1.4" fill="#c2410c" fill-opacity="0.5"/><circle cx="125.833" cy="261.8" r="1.4" fill="#c2410c" fill-opacity="0.5"/><circle cx="127.333" cy="262.4" r="1.4" fill="#c2410c" fill-opacity="0.5"/><circle cx="128.833" cy="262.8" r="1.4" fill="#c2410c" fill-opacity="0.5"/><circle cx="130.333" cy="271.8" r="1.4" fill="#c2410c" fill-opacity="0.5"/><line x1="157.333" y1="221.3" x2="157.333" y2="266.8" stroke="#f97316" stroke-opacity="0.78" stroke-width="1.7"/><line x1="151.573" y1="221.3" x2="163.093" y2="221.3" stroke="#f97316" stroke-opacity="0.78" stroke-width="1.7"/><line x1="151.573" y1="266.8" x2="163.093" y2="266.8" stroke="#f97316" stroke-opacity="0.78" stroke-width="1.7"/><rect x="149.333" y="223.2" width="16" height="7.6" rx="2" fill="#f97316" fill-opacity="0.17" stroke="#f97316" stroke-opacity="0.78" stroke-width="1.7"/><line x1="149.333" y1="227.6" x2="165.333" y2="227.6" stroke="#f97316" stroke-opacity="0.78" stroke-width="2.4"/><text x="157.333" y="291" text-anchor="middle" font-family="Inter,Segoe UI,Arial,sans-serif" font-size="8" fill="#6b7280">512</text><circle cx="154.333" cy="221.3" r="1.4" fill="#c2410c" fill-opacity="0.7"/><circle cx="155.833" cy="223.2" r="1.4" fill="#c2410c" fill-opacity="0.7"/><circle cx="157.333" cy="227.6" r="1.4" fill="#c2410c" fill-opacity="0.7"/><circle cx="158.833" cy="230.8" r="1.4" fill="#c2410c" fill-opacity="0.7"/><circle cx="160.333" cy="266.8" r="1.4" fill="#c2410c" fill-opacity="0.7"/><line x1="187.333" y1="61.6" x2="187.333" y2="243.1" stroke="#f97316" stroke-opacity="1.0" stroke-width="1.7"/><line x1="181.573" y1="61.6" x2="193.093" y2="61.6" stroke="#f97316" stroke-opacity="1.0" stroke-width="1.7"/><line x1="181.573" y1="243.1" x2="193.093" y2="243.1" stroke="#f97316" stroke-opacity="1.0" stroke-width="1.7"/><rect x="179.333" y="71.8" width="16" height="31.0" rx="2" fill="#f97316" fill-opacity="0.3" stroke="#f97316" stroke-opacity="1.0" stroke-width="1.7"/><line x1="179.333" y1="84.6" x2="195.333" y2="84.6" stroke="#f97316" stroke-opacity="1.0" stroke-width="2.4"/><text x="187.333" y="291" text-anchor="middle" font-family="Inter,Segoe UI,Arial,sans-serif" font-size="8" fill="#6b7280">2048</text><circle cx="184.333" cy="102.8" r="1.4" fill="#c2410c" fill-opacity="0.9"/><circle cx="185.833" cy="61.6" r="1.4" fill="#c2410c" fill-opacity="0.9"/><circle cx="187.333" cy="71.8" r="1.4" fill="#c2410c" fill-opacity="0.9"/><circle cx="188.833" cy="84.6" r="1.4" fill="#c2410c" fill-opacity="0.9"/><circle cx="190.333" cy="243.1" r="1.4" fill="#c2410c" fill-opacity="0.9"/><text x="157.333" y="308" text-anchor="middle" font-family="Inter,Segoe UI,Arial,sans-serif" font-size="9" font-weight="700" fill="#111827">llama.cpp b9430</text><line x1="338" y1="242.4" x2="338" y2="262.4" stroke="#f2b705" stroke-opacity="0.55" stroke-width="1.7"/><line x1="332.24" y1="242.4" x2="343.76" y2="242.4" stroke="#f2b705" stroke-opacity="0.55" stroke-width="1.7"/><line x1="332.24" y1="262.4" x2="343.76" y2="262.4" stroke="#f2b705" stroke-opacity="0.55" stroke-width="1.7"/><rect x="330" y="248.8" width="16" height="7.8" rx="2" fill="#f2b705" fill-opacity="0.08" stroke="#f2b705" stroke-opacity="0.55" stroke-width="1.7"/><line x1="330" y1="249.6" x2="346" y2="249.6" stroke="#f2b705" stroke-opacity="0.55" stroke-width="2.4"/><text x="338" y="291" text-anchor="middle" font-family="Inter,Segoe UI,Arial,sans-serif" font-size="8" fill="#6b7280">128</text><circle cx="335" cy="256.6" r="1.4" fill="#9a6a00" fill-opacity="0.5"/><circle cx="336.5" cy="249.6" r="1.4" fill="#9a6a00" fill-opacity="0.5"/><circle cx="338" cy="248.8" r="1.4" fill="#9a6a00" fill-opacity="0.5"/><circle cx="339.5" cy="242.4" r="1.4" fill="#9a6a00" fill-opacity="0.5"/><circle cx="341" cy="262.4" r="1.4" fill="#9a6a00" fill-opacity="0.5"/><line x1="368" y1="219.4" x2="368" y2="257.6" stroke="#f2b705" stroke-opacity="0.78" stroke-width="1.7"/><line x1="362.24" y1="219.4" x2="373.76" y2="219.4" stroke="#f2b705" stroke-opacity="0.78" stroke-width="1.7"/><line x1="362.24" y1="257.6" x2="373.76" y2="257.6" stroke="#f2b705" stroke-opacity="0.78" stroke-width="1.7"/><rect x="360" y="225.0" width="16" height="9.3" rx="2" fill="#f2b705" fill-opacity="0.17" stroke="#f2b705" stroke-opacity="0.78" stroke-width="1.7"/><line x1="360" y1="226.9" x2="376" y2="226.9" stroke="#f2b705" stroke-opacity="0.78" stroke-width="2.4"/><text x="368" y="291" text-anchor="middle" font-family="Inter,Segoe UI,Arial,sans-serif" font-size="8" fill="#6b7280">512</text><circle cx="365" cy="234.3" r="1.4" fill="#9a6a00" fill-opacity="0.7"/><circle cx="366.5" cy="226.9" r="1.4" fill="#9a6a00" fill-opacity="0.7"/><circle cx="368" cy="225.0" r="1.4" fill="#9a6a00" fill-opacity="0.7"/><circle cx="369.5" cy="219.4" r="1.4" fill="#9a6a00" fill-opacity="0.7"/><circle cx="371" cy="257.6" r="1.4" fill="#9a6a00" fill-opacity="0.7"/><line x1="398" y1="126.4" x2="398" y2="242.5" stroke="#f2b705" stroke-opacity="1.0" stroke-width="1.7"/><line x1="392.24" y1="126.4" x2="403.76" y2="126.4" stroke="#f2b705" stroke-opacity="1.0" stroke-width="1.7"/><line x1="392.24" y1="242.5" x2="403.76" y2="242.5" stroke="#f2b705" stroke-opacity="1.0" stroke-width="1.7"/><rect x="390" y="128.5" width="16" height="16.0" rx="2" fill="#f2b705" fill-opacity="0.3" stroke="#f2b705" stroke-opacity="1.0" stroke-width="1.7"/><line x1="390" y1="133.7" x2="406" y2="133.7" stroke="#f2b705" stroke-opacity="1.0" stroke-width="2.4"/><text x="398" y="291" text-anchor="middle" font-family="Inter,Segoe UI,Arial,sans-serif" font-size="8" fill="#6b7280">2048</text><circle cx="395" cy="144.5" r="1.4" fill="#9a6a00" fill-opacity="0.9"/><circle cx="396.5" cy="133.7" r="1.4" fill="#9a6a00" fill-opacity="0.9"/><circle cx="398" cy="128.5" r="1.4" fill="#9a6a00" fill-opacity="0.9"/><circle cx="399.5" cy="126.4" r="1.4" fill="#9a6a00" fill-opacity="0.9"/><circle cx="401" cy="242.5" r="1.4" fill="#9a6a00" fill-opacity="0.9"/><text x="368" y="308" text-anchor="middle" font-family="Inter,Segoe UI,Arial,sans-serif" font-size="9" font-weight="700" fill="#111827">mlx-lm 0.31.3</text><line x1="548.667" y1="259.8" x2="548.667" y2="269.4" stroke="#2eaf5f" stroke-opacity="0.55" stroke-width="1.7"/><line x1="542.907" y1="259.8" x2="554.427" y2="259.8" stroke="#2eaf5f" stroke-opacity="0.55" stroke-width="1.7"/><line x1="542.907" y1="269.4" x2="554.427" y2="269.4" stroke="#2eaf5f" stroke-opacity="0.55" stroke-width="1.7"/><rect x="540.667" y="261.5" width="16" height="1.9" rx="2" fill="#2eaf5f" fill-opacity="0.08" stroke="#2eaf5f" stroke-opacity="0.55" stroke-width="1.7"/><line x1="540.667" y1="262.2" x2="556.667" y2="262.2" stroke="#2eaf5f" stroke-opacity="0.55" stroke-width="2.4"/><text x="548.667" y="291" text-anchor="middle" font-family="Inter,Segoe UI,Arial,sans-serif" font-size="8" fill="#6b7280">128</text><circle cx="545.667" cy="263.4" r="1.4" fill="#176c37" fill-opacity="0.5"/><circle cx="547.167" cy="262.2" r="1.4" fill="#176c37" fill-opacity="0.5"/><circle cx="548.667" cy="261.5" r="1.4" fill="#176c37" fill-opacity="0.5"/><circle cx="550.167" cy="259.8" r="1.4" fill="#176c37" fill-opacity="0.5"/><circle cx="551.667" cy="269.4" r="1.4" fill="#176c37" fill-opacity="0.5"/><line x1="578.667" y1="235.8" x2="578.667" y2="264.8" stroke="#2eaf5f" stroke-opacity="0.78" stroke-width="1.7"/><line x1="572.907" y1="235.8" x2="584.427" y2="235.8" stroke="#2eaf5f" stroke-opacity="0.78" stroke-width="1.7"/><line x1="572.907" y1="264.8" x2="584.427" y2="264.8" stroke="#2eaf5f" stroke-opacity="0.78" stroke-width="1.7"/><rect x="570.667" y="237.4" width="16" height="3.4" rx="2" fill="#2eaf5f" fill-opacity="0.17" stroke="#2eaf5f" stroke-opacity="0.78" stroke-width="1.7"/><line x1="570.667" y1="238.4" x2="586.667" y2="238.4" stroke="#2eaf5f" stroke-opacity="0.78" stroke-width="2.4"/><text x="578.667" y="291" text-anchor="middle" font-family="Inter,Segoe UI,Arial,sans-serif" font-size="8" fill="#6b7280">512</text><circle cx="575.667" cy="240.8" r="1.4" fill="#176c37" fill-opacity="0.7"/><circle cx="577.167" cy="238.4" r="1.4" fill="#176c37" fill-opacity="0.7"/><circle cx="578.667" cy="237.4" r="1.4" fill="#176c37" fill-opacity="0.7"/><circle cx="580.167" cy="235.8" r="1.4" fill="#176c37" fill-opacity="0.7"/><circle cx="581.667" cy="264.8" r="1.4" fill="#176c37" fill-opacity="0.7"/><line x1="608.667" y1="140.3" x2="608.667" y2="244.3" stroke="#2eaf5f" stroke-opacity="1.0" stroke-width="1.7"/><line x1="602.907" y1="140.3" x2="614.427" y2="140.3" stroke="#2eaf5f" stroke-opacity="1.0" stroke-width="1.7"/><line x1="602.907" y1="244.3" x2="614.427" y2="244.3" stroke="#2eaf5f" stroke-opacity="1.0" stroke-width="1.7"/><rect x="600.667" y="140.3" width="16" height="10.0" rx="2" fill="#2eaf5f" fill-opacity="0.3" stroke="#2eaf5f" stroke-opacity="1.0" stroke-width="1.7"/><line x1="600.667" y1="142.5" x2="616.667" y2="142.5" stroke="#2eaf5f" stroke-opacity="1.0" stroke-width="2.4"/><text x="608.667" y="291" text-anchor="middle" font-family="Inter,Segoe UI,Arial,sans-serif" font-size="8" fill="#6b7280">2048</text><circle cx="605.667" cy="150.3" r="1.4" fill="#176c37" fill-opacity="0.9"/><circle cx="607.167" cy="142.5" r="1.4" fill="#176c37" fill-opacity="0.9"/><circle cx="608.667" cy="140.3" r="1.4" fill="#176c37" fill-opacity="0.9"/><circle cx="610.167" cy="140.3" r="1.4" fill="#176c37" fill-opacity="0.9"/><circle cx="611.667" cy="244.3" r="1.4" fill="#176c37" fill-opacity="0.9"/><text x="578.667" y="308" text-anchor="middle" font-family="Inter,Segoe UI,Arial,sans-serif" font-size="9" font-weight="700" fill="#111827">AX Engine v5.1.1</text><text x="52" y="332" font-family="Inter,Segoe UI,Arial,sans-serif" font-size="8" fill="#6b7280">llama.cpp b9430 · mlx-lm 0.31.3 · AX Engine v5.1.1</text></svg>
