<svg xmlns="http://www.w3.org/2000/svg" width="460" height="276" viewBox="0 0 460 276" role="img" aria-labelledby="title desc"><title>Decode rate</title><desc>Box-and-Whisker Plot comparing mlx_lm, mlx_swift_lm, ax_engine, and ax_engine plus n-gram across 28 README benchmark rows. A red dotted horizontal line marks the ax_engine plus n-gram median.</desc><rect width="460" height="276" fill="#ffffff"/><text x="52" y="22" font-family="Inter,Segoe UI,Arial,sans-serif" font-size="16" font-weight="700" fill="#111827">Decode rate</text><text x="52" y="40" font-family="Inter,Segoe UI,Arial,sans-serif" font-size="10" fill="#6b7280">AX n-gram is the default policy</text><text x="442" y="22" text-anchor="end" font-family="Inter,Segoe UI,Arial,sans-serif" font-size="10" fill="#6b7280">tok/s</text><text x="442" y="40" text-anchor="end" font-family="Inter,Segoe UI,Arial,sans-serif" font-size="10" font-weight="700" fill="#374151">Higher is better</text><line x1="52" y1="206.0" x2="442" y2="206.0" stroke="#e5e7eb" stroke-width="1"/><text x="44" y="209.0" text-anchor="end" font-family="Inter,Segoe UI,Arial,sans-serif" font-size="10" fill="#6b7280">0</text><line x1="52" y1="126.0" x2="442" y2="126.0" stroke="#e5e7eb" stroke-width="1"/><text x="44" y="129.0" text-anchor="end" font-family="Inter,Segoe UI,Arial,sans-serif" font-size="10" fill="#6b7280">350</text><line x1="52" y1="46.0" x2="442" y2="46.0" stroke="#e5e7eb" stroke-width="1"/><text x="44" y="49.0" text-anchor="end" font-family="Inter,Segoe UI,Arial,sans-serif" font-size="10" fill="#6b7280">700</text><line x1="52" y1="142.4" x2="442" y2="142.4" stroke="#dc2626" stroke-width="1.2" stroke-dasharray="2 4"/><rect x="270" y="50" width="165" height="160" fill="none" stroke="#dc2626" stroke-width="1.4"/><line x1="98.8" y1="156.0" x2="98.8" y2="199.5" stroke="#f2b705" stroke-width="2"/><line x1="88.8" y1="156.0" x2="108.8" y2="156.0" stroke="#f2b705" stroke-width="2"/><line x1="88.8" y1="199.5" x2="108.8" y2="199.5" stroke="#f2b705" stroke-width="2"/><rect x="77.8" y="171.7" width="42" height="10.5" rx="4" fill="#f2b705" fill-opacity="0.18" stroke="#f2b705" stroke-width="2"/><line x1="77.8" y1="178.0" x2="119.8" y2="178.0" stroke="#f2b705" stroke-width="3"/><text x="98.8" y="230" text-anchor="middle" font-family="Inter,Segoe UI,Arial,sans-serif" font-size="9" fill="#111827">mlx_lm</text><text x="98.8" y="246" text-anchor="middle" font-family="Inter,Segoe UI,Arial,sans-serif" font-size="10" fill="#6b7280">med 122</text><circle cx="90.3" cy="156.0" r="2" fill="#9a6a00" fill-opacity="0.9"/><circle cx="93.8" cy="157.9" r="2" fill="#9a6a00" fill-opacity="0.9"/><circle cx="96.8" cy="161.6" r="2" fill="#9a6a00" fill-opacity="0.9"/><circle cx="100.3" cy="163.0" r="2" fill="#9a6a00" fill-opacity="0.9"/><circle cx="103.8" cy="166.2" r="2" fill="#9a6a00" fill-opacity="0.9"/><circle cx="107.3" cy="167.4" r="2" fill="#9a6a00" fill-opacity="0.9"/><circle cx="92.3" cy="170.8" r="2" fill="#9a6a00" fill-opacity="0.9"/><circle cx="102.3" cy="172.0" r="2" fill="#9a6a00" fill-opacity="0.9"/><circle cx="90.3" cy="174.8" r="2" fill="#9a6a00" fill-opacity="0.9"/><circle cx="93.8" cy="175.7" r="2" fill="#9a6a00" fill-opacity="0.9"/><circle cx="96.8" cy="177.4" r="2" fill="#9a6a00" fill-opacity="0.9"/><circle cx="100.3" cy="177.5" r="2" fill="#9a6a00" fill-opacity="0.9"/><circle cx="103.8" cy="199.4" r="2" fill="#9a6a00" fill-opacity="0.9"/><circle cx="107.3" cy="199.5" r="2" fill="#9a6a00" fill-opacity="0.9"/><circle cx="92.3" cy="186.7" r="2" fill="#9a6a00" fill-opacity="0.9"/><circle cx="102.3" cy="186.9" r="2" fill="#9a6a00" fill-opacity="0.9"/><circle cx="90.3" cy="178.6" r="2" fill="#9a6a00" fill-opacity="0.9"/><circle cx="93.8" cy="178.6" r="2" fill="#9a6a00" fill-opacity="0.9"/><circle cx="96.8" cy="177.3" r="2" fill="#9a6a00" fill-opacity="0.9"/><circle cx="100.3" cy="177.4" r="2" fill="#9a6a00" fill-opacity="0.9"/><circle cx="103.8" cy="179.8" r="2" fill="#9a6a00" fill-opacity="0.9"/><circle cx="107.3" cy="179.8" r="2" fill="#9a6a00" fill-opacity="0.9"/><circle cx="92.3" cy="181.9" r="2" fill="#9a6a00" fill-opacity="0.9"/><circle cx="102.3" cy="182.1" r="2" fill="#9a6a00" fill-opacity="0.9"/><circle cx="90.3" cy="182.7" r="2" fill="#9a6a00" fill-opacity="0.9"/><circle cx="93.8" cy="182.8" r="2" fill="#9a6a00" fill-opacity="0.9"/><circle cx="96.8" cy="182.0" r="2" fill="#9a6a00" fill-opacity="0.9"/><circle cx="100.3" cy="182.9" r="2" fill="#9a6a00" fill-opacity="0.9"/><line x1="200.2" y1="158.3" x2="200.2" y2="199.7" stroke="#4062bb" stroke-width="2"/><line x1="190.2" y1="158.3" x2="210.2" y2="158.3" stroke="#4062bb" stroke-width="2"/><line x1="190.2" y1="199.7" x2="210.2" y2="199.7" stroke="#4062bb" stroke-width="2"/><rect x="179.2" y="174.4" width="42" height="8.7" rx="4" fill="#4062bb" fill-opacity="0.18" stroke="#4062bb" stroke-width="2"/><line x1="179.2" y1="178.6" x2="221.2" y2="178.6" stroke="#4062bb" stroke-width="3"/><text x="200.2" y="230" text-anchor="middle" font-family="Inter,Segoe UI,Arial,sans-serif" font-size="9" fill="#111827">mlx_swift_lm</text><text x="200.2" y="246" text-anchor="middle" font-family="Inter,Segoe UI,Arial,sans-serif" font-size="10" fill="#6b7280">med 120</text><circle cx="191.7" cy="158.3" r="2" fill="#243b87" fill-opacity="0.9"/><circle cx="195.2" cy="160.4" r="2" fill="#243b87" fill-opacity="0.9"/><circle cx="198.2" cy="163.1" r="2" fill="#243b87" fill-opacity="0.9"/><circle cx="201.7" cy="166.2" r="2" fill="#243b87" fill-opacity="0.9"/><circle cx="205.2" cy="170.8" r="2" fill="#243b87" fill-opacity="0.9"/><circle cx="208.7" cy="174.8" r="2" fill="#243b87" fill-opacity="0.9"/><circle cx="193.7" cy="172.1" r="2" fill="#243b87" fill-opacity="0.9"/><circle cx="203.7" cy="173.2" r="2" fill="#243b87" fill-opacity="0.9"/><circle cx="191.7" cy="175.9" r="2" fill="#243b87" fill-opacity="0.9"/><circle cx="195.2" cy="177.2" r="2" fill="#243b87" fill-opacity="0.9"/><circle cx="198.2" cy="178.5" r="2" fill="#243b87" fill-opacity="0.9"/><circle cx="201.7" cy="179.6" r="2" fill="#243b87" fill-opacity="0.9"/><circle cx="205.2" cy="199.5" r="2" fill="#243b87" fill-opacity="0.9"/><circle cx="208.7" cy="199.7" r="2" fill="#243b87" fill-opacity="0.9"/><circle cx="193.7" cy="187.4" r="2" fill="#243b87" fill-opacity="0.9"/><circle cx="203.7" cy="188.0" r="2" fill="#243b87" fill-opacity="0.9"/><circle cx="191.7" cy="178.5" r="2" fill="#243b87" fill-opacity="0.9"/><circle cx="195.2" cy="178.7" r="2" fill="#243b87" fill-opacity="0.9"/><circle cx="198.2" cy="177.7" r="2" fill="#243b87" fill-opacity="0.9"/><circle cx="201.7" cy="178.0" r="2" fill="#243b87" fill-opacity="0.9"/><circle cx="205.2" cy="180.5" r="2" fill="#243b87" fill-opacity="0.9"/><circle cx="208.7" cy="180.8" r="2" fill="#243b87" fill-opacity="0.9"/><circle cx="193.7" cy="182.7" r="2" fill="#243b87" fill-opacity="0.9"/><circle cx="203.7" cy="182.9" r="2" fill="#243b87" fill-opacity="0.9"/><circle cx="191.7" cy="183.0" r="2" fill="#243b87" fill-opacity="0.9"/><circle cx="195.2" cy="183.3" r="2" fill="#243b87" fill-opacity="0.9"/><circle cx="198.2" cy="183.4" r="2" fill="#243b87" fill-opacity="0.9"/><circle cx="201.7" cy="184.1" r="2" fill="#243b87" fill-opacity="0.9"/><line x1="301.6" y1="162.3" x2="301.6" y2="199.8" stroke="#2eaf5f" stroke-width="2"/><line x1="291.6" y1="162.3" x2="311.6" y2="162.3" stroke="#2eaf5f" stroke-width="2"/><line x1="291.6" y1="199.8" x2="311.6" y2="199.8" stroke="#2eaf5f" stroke-width="2"/><rect x="280.6" y="174.4" width="42" height="8.0" rx="4" fill="#2eaf5f" fill-opacity="0.18" stroke="#2eaf5f" stroke-width="2"/><line x1="280.6" y1="178.5" x2="322.6" y2="178.5" stroke="#2eaf5f" stroke-width="3"/><text x="301.6" y="230" text-anchor="middle" font-family="Inter,Segoe UI,Arial,sans-serif" font-size="9" fill="#111827">ax_engine</text><text x="301.6" y="246" text-anchor="middle" font-family="Inter,Segoe UI,Arial,sans-serif" font-size="10" fill="#6b7280">med 120</text><circle cx="293.1" cy="162.3" r="2" fill="#176c37" fill-opacity="0.9"/><circle cx="296.6" cy="163.9" r="2" fill="#176c37" fill-opacity="0.9"/><circle cx="299.6" cy="166.4" r="2" fill="#176c37" fill-opacity="0.9"/><circle cx="303.1" cy="167.7" r="2" fill="#176c37" fill-opacity="0.9"/><circle cx="306.6" cy="170.7" r="2" fill="#176c37" fill-opacity="0.9"/><circle cx="310.1" cy="171.5" r="2" fill="#176c37" fill-opacity="0.9"/><circle cx="295.1" cy="174.0" r="2" fill="#176c37" fill-opacity="0.9"/><circle cx="305.1" cy="174.9" r="2" fill="#176c37" fill-opacity="0.9"/><circle cx="293.1" cy="178.9" r="2" fill="#176c37" fill-opacity="0.9"/><circle cx="296.6" cy="178.8" r="2" fill="#176c37" fill-opacity="0.9"/><circle cx="299.6" cy="178.5" r="2" fill="#176c37" fill-opacity="0.9"/><circle cx="303.1" cy="179.1" r="2" fill="#176c37" fill-opacity="0.9"/><circle cx="306.6" cy="199.7" r="2" fill="#176c37" fill-opacity="0.9"/><circle cx="310.1" cy="199.8" r="2" fill="#176c37" fill-opacity="0.9"/><circle cx="295.1" cy="182.3" r="2" fill="#176c37" fill-opacity="0.9"/><circle cx="305.1" cy="182.4" r="2" fill="#176c37" fill-opacity="0.9"/><circle cx="293.1" cy="177.9" r="2" fill="#176c37" fill-opacity="0.9"/><circle cx="296.6" cy="178.1" r="2" fill="#176c37" fill-opacity="0.9"/><circle cx="299.6" cy="174.5" r="2" fill="#176c37" fill-opacity="0.9"/><circle cx="303.1" cy="174.7" r="2" fill="#176c37" fill-opacity="0.9"/><circle cx="306.6" cy="178.2" r="2" fill="#176c37" fill-opacity="0.9"/><circle cx="310.1" cy="178.6" r="2" fill="#176c37" fill-opacity="0.9"/><circle cx="295.1" cy="181.2" r="2" fill="#176c37" fill-opacity="0.9"/><circle cx="305.1" cy="181.4" r="2" fill="#176c37" fill-opacity="0.9"/><circle cx="293.1" cy="182.4" r="2" fill="#176c37" fill-opacity="0.9"/><circle cx="296.6" cy="182.5" r="2" fill="#176c37" fill-opacity="0.9"/><circle cx="299.6" cy="182.4" r="2" fill="#176c37" fill-opacity="0.9"/><circle cx="303.1" cy="182.3" r="2" fill="#176c37" fill-opacity="0.9"/><line x1="403" y1="70.9" x2="403" y2="191.4" stroke="#137a3d" stroke-width="2"/><line x1="393" y1="70.9" x2="413" y2="70.9" stroke="#137a3d" stroke-width="2"/><line x1="393" y1="191.4" x2="413" y2="191.4" stroke="#137a3d" stroke-width="2"/><rect x="382" y="112.0" width="42" height="36.3" rx="4" fill="#137a3d" fill-opacity="0.18" stroke="#137a3d" stroke-width="2"/><line x1="382" y1="142.4" x2="424" y2="142.4" stroke="#137a3d" stroke-width="3"/><text x="403" y="230" text-anchor="middle" font-family="Inter,Segoe UI,Arial,sans-serif" font-size="9" fill="#111827">ax_engine + n-gram</text><text x="403" y="246" text-anchor="middle" font-family="Inter,Segoe UI,Arial,sans-serif" font-size="10" fill="#6b7280">med 278</text><circle cx="394.5" cy="70.9" r="2" fill="#0b4f28" fill-opacity="0.9"/><circle cx="398" cy="73.1" r="2" fill="#0b4f28" fill-opacity="0.9"/><circle cx="401" cy="100.3" r="2" fill="#0b4f28" fill-opacity="0.9"/><circle cx="404.5" cy="101.2" r="2" fill="#0b4f28" fill-opacity="0.9"/><circle cx="408" cy="108.8" r="2" fill="#0b4f28" fill-opacity="0.9"/><circle cx="411.5" cy="113.1" r="2" fill="#0b4f28" fill-opacity="0.9"/><circle cx="396.5" cy="99.9" r="2" fill="#0b4f28" fill-opacity="0.9"/><circle cx="406.5" cy="100.9" r="2" fill="#0b4f28" fill-opacity="0.9"/><circle cx="394.5" cy="124.7" r="2" fill="#0b4f28" fill-opacity="0.9"/><circle cx="398" cy="125.2" r="2" fill="#0b4f28" fill-opacity="0.9"/><circle cx="401" cy="143.3" r="2" fill="#0b4f28" fill-opacity="0.9"/><circle cx="404.5" cy="152.3" r="2" fill="#0b4f28" fill-opacity="0.9"/><circle cx="408" cy="191.1" r="2" fill="#0b4f28" fill-opacity="0.9"/><circle cx="411.5" cy="191.4" r="2" fill="#0b4f28" fill-opacity="0.9"/><circle cx="396.5" cy="158.9" r="2" fill="#0b4f28" fill-opacity="0.9"/><circle cx="406.5" cy="183.0" r="2" fill="#0b4f28" fill-opacity="0.9"/><circle cx="394.5" cy="140.8" r="2" fill="#0b4f28" fill-opacity="0.9"/><circle cx="398" cy="141.6" r="2" fill="#0b4f28" fill-opacity="0.9"/><circle cx="401" cy="140.9" r="2" fill="#0b4f28" fill-opacity="0.9"/><circle cx="404.5" cy="141.6" r="2" fill="#0b4f28" fill-opacity="0.9"/><circle cx="408" cy="146.3" r="2" fill="#0b4f28" fill-opacity="0.9"/><circle cx="411.5" cy="147.0" r="2" fill="#0b4f28" fill-opacity="0.9"/><circle cx="396.5" cy="145.7" r="2" fill="#0b4f28" fill-opacity="0.9"/><circle cx="406.5" cy="146.6" r="2" fill="#0b4f28" fill-opacity="0.9"/><circle cx="394.5" cy="182.8" r="2" fill="#0b4f28" fill-opacity="0.9"/><circle cx="398" cy="179.7" r="2" fill="#0b4f28" fill-opacity="0.9"/><circle cx="401" cy="143.1" r="2" fill="#0b4f28" fill-opacity="0.9"/><circle cx="404.5" cy="144.2" r="2" fill="#0b4f28" fill-opacity="0.9"/></svg>
