<svg xmlns="http://www.w3.org/2000/svg" width="900" height="460" viewBox="0 0 900 460" role="img" aria-labelledby="title desc">
<title>Qwen3.6 35B-A3B 4-bit MTP TTFT</title>
<desc>Grouped box-and-whisker plot comparing MTPLX 0.3.7, Lightning v0.6.10, Lightning+ng v0.6.10, AX Engine v5.1.1, AX+ngram v5.1.1.</desc>
<rect width="100%" height="100%" fill="#f8fafc"/>
<text x="24" y="24" font-family="Inter,Segoe UI,Arial,sans-serif" font-size="16" font-weight="700" fill="#111827">Qwen3.6 35B-A3B 4-bit MTP TTFT</text>
<text x="24" y="46" font-family="Inter,Segoe UI,Arial,sans-serif" font-size="11" fill="#4b5563"><tspan>F=flappy · L=long_code · P=python_modules | </tspan><tspan fill="#dc2626" font-weight="700">lower is better</tspan><tspan> | box=IQR | dots=runs</tspan></text>
<text x="24" y="62" font-family="Inter,Segoe UI,Arial,sans-serif" font-size="10" fill="#6b7280">MTPLX 0.3.7 · Lightning-MLX 0.6.10 · AX Engine v5.1.1</text>
<rect x="818" y="13" width="48" height="22" rx="11" fill="#eef2ff" stroke="#c7d2fe"/>
<text x="842.0" y="28" text-anchor="middle" font-family="Inter,Segoe UI,Arial,sans-serif" font-size="10" font-weight="700" fill="#3730a3">ms</text>
<text x="866" y="52" text-anchor="end" font-family="Inter,Segoe UI,Arial,sans-serif" font-size="10" font-weight="700" fill="#dc2626">Lower is better</text>
<rect x="64" y="86" width="676" height="268" rx="6" fill="#ffffff" stroke="#dbe3ef"/>
<line x1="64" y1="354.0" x2="740" y2="354.0" stroke="#e5e7eb" stroke-width="1"/>
<text x="56" y="357.0" text-anchor="end" font-family="Inter,Segoe UI,Arial,sans-serif" font-size="11" fill="#6b7280">0</text>
<line x1="64" y1="287.0" x2="740" y2="287.0" stroke="#e5e7eb" stroke-width="1"/>
<text x="56" y="290.0" text-anchor="end" font-family="Inter,Segoe UI,Arial,sans-serif" font-size="11" fill="#6b7280">250</text>
<line x1="64" y1="220.0" x2="740" y2="220.0" stroke="#e5e7eb" stroke-width="1"/>
<text x="56" y="223.0" text-anchor="end" font-family="Inter,Segoe UI,Arial,sans-serif" font-size="11" fill="#6b7280">500</text>
<line x1="64" y1="153.0" x2="740" y2="153.0" stroke="#e5e7eb" stroke-width="1"/>
<text x="56" y="156.0" text-anchor="end" font-family="Inter,Segoe UI,Arial,sans-serif" font-size="11" fill="#6b7280">750</text>
<line x1="64" y1="86.0" x2="740" y2="86.0" stroke="#e5e7eb" stroke-width="1"/>
<text x="56" y="89.0" text-anchor="end" font-family="Inter,Segoe UI,Arial,sans-serif" font-size="11" fill="#6b7280">1000</text>
<line x1="64" y1="305.1" x2="740" y2="305.1" stroke="#dc2626" stroke-width="1.2" stroke-dasharray="1 4" stroke-linecap="round"/>
<text x="748" y="300.1" text-anchor="start" font-family="Inter,Segoe UI,Arial,sans-serif" font-size="11" font-weight="700" fill="#dc2626" data-label="lowest median">lowest: 182</text>
<text x="176.7" y="398" text-anchor="middle" font-family="Inter,Segoe UI,Arial,sans-serif" font-size="11" font-weight="700" fill="#111827">F</text>
<circle cx="95.8" cy="300.6" r="1.45" fill="#14532d" fill-opacity="0.46"/>
<circle cx="98.3" cy="300.3" r="1.45" fill="#14532d" fill-opacity="0.46"/>
<circle cx="100.8" cy="300.0" r="1.45" fill="#14532d" fill-opacity="0.46"/>
<circle cx="103.3" cy="300.9" r="1.45" fill="#14532d" fill-opacity="0.46"/>
<circle cx="105.7" cy="300.7" r="1.45" fill="#14532d" fill-opacity="0.46"/>
<circle cx="108.2" cy="294.9" r="1.45" fill="#14532d" fill-opacity="0.46"/>
<circle cx="110.7" cy="295.2" r="1.45" fill="#14532d" fill-opacity="0.46"/>
<circle cx="113.1" cy="294.7" r="1.45" fill="#14532d" fill-opacity="0.46"/>
<circle cx="115.6" cy="294.6" r="1.45" fill="#14532d" fill-opacity="0.46"/>
<circle cx="95.8" cy="294.3" r="1.45" fill="#14532d" fill-opacity="0.46"/>
<circle cx="98.3" cy="291.6" r="1.45" fill="#14532d" fill-opacity="0.46"/>
<circle cx="100.8" cy="291.7" r="1.45" fill="#14532d" fill-opacity="0.46"/>
<circle cx="103.3" cy="292.0" r="1.45" fill="#14532d" fill-opacity="0.46"/>
<circle cx="105.7" cy="291.7" r="1.45" fill="#14532d" fill-opacity="0.46"/>
<circle cx="108.2" cy="293.1" r="1.45" fill="#14532d" fill-opacity="0.46"/>
<circle cx="110.7" cy="301.6" r="1.45" fill="#14532d" fill-opacity="0.46"/>
<circle cx="113.1" cy="300.5" r="1.45" fill="#14532d" fill-opacity="0.46"/>
<circle cx="115.6" cy="301.2" r="1.45" fill="#14532d" fill-opacity="0.46"/>
<circle cx="95.8" cy="300.1" r="1.45" fill="#14532d" fill-opacity="0.46"/>
<circle cx="98.3" cy="300.9" r="1.45" fill="#14532d" fill-opacity="0.46"/>
<line x1="105.7" y1="291.6" x2="105.7" y2="301.6" stroke="#14532d" stroke-opacity="0.82" stroke-width="1.8"/>
<line x1="95.8" y1="291.6" x2="115.6" y2="291.6" stroke="#14532d" stroke-opacity="0.82" stroke-width="1.8"/>
<line x1="95.8" y1="301.6" x2="115.6" y2="301.6" stroke="#14532d" stroke-opacity="0.82" stroke-width="1.8"/>
<rect x="92.0" y="294.0" width="27.5" height="6.6" rx="2" fill="#14532d" fill-opacity="0.18" stroke="#14532d" stroke-opacity="0.82" stroke-width="1.8"/>
<line x1="92.0" y1="297.6" x2="119.5" y2="297.6" stroke="#14532d" stroke-opacity="0.82" stroke-width="2.6"/>
<text x="125.5" y="301.6" text-anchor="start" font-family="Inter,Segoe UI,Arial,sans-serif" font-size="11" font-weight="700" fill="#111827" stroke="#ffffff" stroke-width="3" paint-order="stroke">211</text>
<circle cx="131.3" cy="256.5" r="1.45" fill="#7c3aed" fill-opacity="0.34"/>
<circle cx="133.8" cy="260.5" r="1.45" fill="#7c3aed" fill-opacity="0.34"/>
<circle cx="136.3" cy="258.4" r="1.45" fill="#7c3aed" fill-opacity="0.34"/>
<circle cx="138.7" cy="261.3" r="1.45" fill="#7c3aed" fill-opacity="0.34"/>
<circle cx="141.2" cy="259.6" r="1.45" fill="#7c3aed" fill-opacity="0.34"/>
<circle cx="143.7" cy="255.3" r="1.45" fill="#7c3aed" fill-opacity="0.34"/>
<circle cx="146.1" cy="252.8" r="1.45" fill="#7c3aed" fill-opacity="0.34"/>
<circle cx="148.6" cy="252.2" r="1.45" fill="#7c3aed" fill-opacity="0.34"/>
<circle cx="151.1" cy="253.8" r="1.45" fill="#7c3aed" fill-opacity="0.34"/>
<circle cx="131.3" cy="253.6" r="1.45" fill="#7c3aed" fill-opacity="0.34"/>
<circle cx="133.8" cy="250.2" r="1.45" fill="#7c3aed" fill-opacity="0.34"/>
<circle cx="136.3" cy="250.3" r="1.45" fill="#7c3aed" fill-opacity="0.34"/>
<circle cx="138.7" cy="249.9" r="1.45" fill="#7c3aed" fill-opacity="0.34"/>
<circle cx="141.2" cy="250.1" r="1.45" fill="#7c3aed" fill-opacity="0.34"/>
<circle cx="143.7" cy="250.7" r="1.45" fill="#7c3aed" fill-opacity="0.34"/>
<circle cx="146.1" cy="257.8" r="1.45" fill="#7c3aed" fill-opacity="0.34"/>
<circle cx="148.6" cy="257.8" r="1.45" fill="#7c3aed" fill-opacity="0.34"/>
<circle cx="151.1" cy="257.8" r="1.45" fill="#7c3aed" fill-opacity="0.34"/>
<circle cx="131.3" cy="259.0" r="1.45" fill="#7c3aed" fill-opacity="0.34"/>
<circle cx="133.8" cy="257.9" r="1.45" fill="#7c3aed" fill-opacity="0.34"/>
<line x1="141.2" y1="249.9" x2="141.2" y2="261.3" stroke="#7c3aed" stroke-opacity="0.55" stroke-width="1.8"/>
<line x1="131.3" y1="249.9" x2="151.1" y2="249.9" stroke="#7c3aed" stroke-opacity="0.55" stroke-width="1.8"/>
<line x1="131.3" y1="261.3" x2="151.1" y2="261.3" stroke="#7c3aed" stroke-opacity="0.55" stroke-width="1.8"/>
<rect x="127.5" y="251.8" width="27.5" height="6.2" rx="2" fill="#7c3aed" fill-opacity="0.12" stroke="#7c3aed" stroke-opacity="0.55" stroke-width="1.8"/>
<line x1="127.5" y1="255.9" x2="154.9" y2="255.9" stroke="#7c3aed" stroke-opacity="0.55" stroke-width="2.6"/>
<text x="160.9" y="259.9" text-anchor="start" font-family="Inter,Segoe UI,Arial,sans-serif" font-size="11" font-weight="700" fill="#111827" stroke="#ffffff" stroke-width="3" paint-order="stroke">366</text>
<circle cx="166.8" cy="258.0" r="1.45" fill="#1e3a8a" fill-opacity="0.34"/>
<circle cx="169.3" cy="258.8" r="1.45" fill="#1e3a8a" fill-opacity="0.34"/>
<circle cx="171.7" cy="258.6" r="1.45" fill="#1e3a8a" fill-opacity="0.34"/>
<circle cx="174.2" cy="257.9" r="1.45" fill="#1e3a8a" fill-opacity="0.34"/>
<circle cx="176.7" cy="258.0" r="1.45" fill="#1e3a8a" fill-opacity="0.34"/>
<circle cx="179.1" cy="252.4" r="1.45" fill="#1e3a8a" fill-opacity="0.34"/>
<circle cx="181.6" cy="253.3" r="1.45" fill="#1e3a8a" fill-opacity="0.34"/>
<circle cx="184.1" cy="252.8" r="1.45" fill="#1e3a8a" fill-opacity="0.34"/>
<circle cx="186.6" cy="253.0" r="1.45" fill="#1e3a8a" fill-opacity="0.34"/>
<circle cx="166.8" cy="252.8" r="1.45" fill="#1e3a8a" fill-opacity="0.34"/>
<circle cx="169.3" cy="249.1" r="1.45" fill="#1e3a8a" fill-opacity="0.34"/>
<circle cx="171.7" cy="248.2" r="1.45" fill="#1e3a8a" fill-opacity="0.34"/>
<circle cx="174.2" cy="250.0" r="1.45" fill="#1e3a8a" fill-opacity="0.34"/>
<circle cx="176.7" cy="249.6" r="1.45" fill="#1e3a8a" fill-opacity="0.34"/>
<circle cx="179.1" cy="249.9" r="1.45" fill="#1e3a8a" fill-opacity="0.34"/>
<circle cx="181.6" cy="257.6" r="1.45" fill="#1e3a8a" fill-opacity="0.34"/>
<circle cx="184.1" cy="258.6" r="1.45" fill="#1e3a8a" fill-opacity="0.34"/>
<circle cx="186.6" cy="258.7" r="1.45" fill="#1e3a8a" fill-opacity="0.34"/>
<circle cx="166.8" cy="259.2" r="1.45" fill="#1e3a8a" fill-opacity="0.34"/>
<circle cx="169.3" cy="258.0" r="1.45" fill="#1e3a8a" fill-opacity="0.34"/>
<line x1="176.7" y1="248.2" x2="176.7" y2="259.2" stroke="#1e3a8a" stroke-opacity="0.55" stroke-width="1.8"/>
<line x1="166.8" y1="248.2" x2="186.6" y2="248.2" stroke="#1e3a8a" stroke-opacity="0.55" stroke-width="1.8"/>
<line x1="166.8" y1="259.2" x2="186.6" y2="259.2" stroke="#1e3a8a" stroke-opacity="0.55" stroke-width="1.8"/>
<rect x="162.9" y="251.8" width="27.5" height="6.4" rx="2" fill="#1e3a8a" fill-opacity="0.12" stroke="#1e3a8a" stroke-opacity="0.55" stroke-width="1.8"/>
<line x1="162.9" y1="255.4" x2="190.4" y2="255.4" stroke="#1e3a8a" stroke-opacity="0.55" stroke-width="2.6"/>
<text x="196.4" y="259.4" text-anchor="start" font-family="Inter,Segoe UI,Arial,sans-serif" font-size="11" font-weight="700" fill="#111827" stroke="#ffffff" stroke-width="3" paint-order="stroke">368</text>
<circle cx="202.2" cy="306.9" r="1.45" fill="#f97316" fill-opacity="0.46"/>
<circle cx="204.7" cy="301.3" r="1.45" fill="#f97316" fill-opacity="0.46"/>
<circle cx="207.2" cy="297.5" r="1.45" fill="#f97316" fill-opacity="0.46"/>
<circle cx="209.7" cy="307.2" r="1.45" fill="#f97316" fill-opacity="0.46"/>
<line x1="212.1" y1="297.5" x2="212.1" y2="307.2" stroke="#f97316" stroke-opacity="0.82" stroke-width="1.8"/>
<line x1="202.2" y1="297.5" x2="222.0" y2="297.5" stroke="#f97316" stroke-opacity="0.82" stroke-width="1.8"/>
<line x1="202.2" y1="307.2" x2="222.0" y2="307.2" stroke="#f97316" stroke-opacity="0.82" stroke-width="1.8"/>
<rect x="198.4" y="300.4" width="27.5" height="6.6" rx="2" fill="#f97316" fill-opacity="0.18" stroke="#f97316" stroke-opacity="0.82" stroke-width="1.8"/>
<line x1="198.4" y1="304.1" x2="225.9" y2="304.1" stroke="#f97316" stroke-opacity="0.82" stroke-width="2.6"/>
<text x="231.9" y="308.1" text-anchor="start" font-family="Inter,Segoe UI,Arial,sans-serif" font-size="11" font-weight="700" fill="#111827" stroke="#ffffff" stroke-width="3" paint-order="stroke">186</text>
<circle cx="237.7" cy="306.9" r="1.45" fill="#eab308" fill-opacity="0.46"/>
<circle cx="240.2" cy="301.2" r="1.45" fill="#eab308" fill-opacity="0.46"/>
<circle cx="242.7" cy="297.5" r="1.45" fill="#eab308" fill-opacity="0.46"/>
<circle cx="245.1" cy="307.0" r="1.45" fill="#eab308" fill-opacity="0.46"/>
<line x1="247.6" y1="297.5" x2="247.6" y2="307.0" stroke="#eab308" stroke-opacity="0.82" stroke-width="1.8"/>
<line x1="237.7" y1="297.5" x2="257.5" y2="297.5" stroke="#eab308" stroke-opacity="0.82" stroke-width="1.8"/>
<line x1="237.7" y1="307.0" x2="257.5" y2="307.0" stroke="#eab308" stroke-opacity="0.82" stroke-width="1.8"/>
<rect x="233.9" y="300.3" width="27.5" height="6.7" rx="2" fill="#eab308" fill-opacity="0.18" stroke="#eab308" stroke-opacity="0.82" stroke-width="1.8"/>
<line x1="233.9" y1="304.1" x2="261.3" y2="304.1" stroke="#eab308" stroke-opacity="0.82" stroke-width="2.6"/>
<text x="267.3" y="308.1" text-anchor="start" font-family="Inter,Segoe UI,Arial,sans-serif" font-size="11" font-weight="700" fill="#111827" stroke="#ffffff" stroke-width="3" paint-order="stroke">186</text>
<text x="402.0" y="398" text-anchor="middle" font-family="Inter,Segoe UI,Arial,sans-serif" font-size="11" font-weight="700" fill="#111827">L</text>
<circle cx="321.2" cy="276.1" r="1.45" fill="#14532d" fill-opacity="0.46"/>
<circle cx="323.7" cy="275.7" r="1.45" fill="#14532d" fill-opacity="0.46"/>
<circle cx="326.1" cy="280.1" r="1.45" fill="#14532d" fill-opacity="0.46"/>
<circle cx="328.6" cy="275.7" r="1.45" fill="#14532d" fill-opacity="0.46"/>
<circle cx="331.1" cy="275.1" r="1.45" fill="#14532d" fill-opacity="0.46"/>
<circle cx="333.5" cy="270.0" r="1.45" fill="#14532d" fill-opacity="0.46"/>
<circle cx="336.0" cy="270.7" r="1.45" fill="#14532d" fill-opacity="0.46"/>
<circle cx="338.5" cy="269.7" r="1.45" fill="#14532d" fill-opacity="0.46"/>
<circle cx="341.0" cy="272.8" r="1.45" fill="#14532d" fill-opacity="0.46"/>
<circle cx="321.2" cy="269.8" r="1.45" fill="#14532d" fill-opacity="0.46"/>
<circle cx="323.7" cy="272.7" r="1.45" fill="#14532d" fill-opacity="0.46"/>
<circle cx="326.1" cy="273.8" r="1.45" fill="#14532d" fill-opacity="0.46"/>
<circle cx="328.6" cy="275.3" r="1.45" fill="#14532d" fill-opacity="0.46"/>
<circle cx="331.1" cy="275.2" r="1.45" fill="#14532d" fill-opacity="0.46"/>
<circle cx="333.5" cy="276.5" r="1.45" fill="#14532d" fill-opacity="0.46"/>
<circle cx="336.0" cy="287.7" r="1.45" fill="#14532d" fill-opacity="0.46"/>
<circle cx="338.5" cy="290.2" r="1.45" fill="#14532d" fill-opacity="0.46"/>
<circle cx="341.0" cy="287.7" r="1.45" fill="#14532d" fill-opacity="0.46"/>
<circle cx="321.2" cy="288.8" r="1.45" fill="#14532d" fill-opacity="0.46"/>
<circle cx="323.7" cy="287.8" r="1.45" fill="#14532d" fill-opacity="0.46"/>
<line x1="331.1" y1="269.7" x2="331.1" y2="290.2" stroke="#14532d" stroke-opacity="0.82" stroke-width="1.8"/>
<line x1="321.2" y1="269.7" x2="341.0" y2="269.7" stroke="#14532d" stroke-opacity="0.82" stroke-width="1.8"/>
<line x1="321.2" y1="290.2" x2="341.0" y2="290.2" stroke="#14532d" stroke-opacity="0.82" stroke-width="1.8"/>
<rect x="317.3" y="272.8" width="27.5" height="9.2" rx="2" fill="#14532d" fill-opacity="0.18" stroke="#14532d" stroke-opacity="0.82" stroke-width="1.8"/>
<line x1="317.3" y1="275.5" x2="344.8" y2="275.5" stroke="#14532d" stroke-opacity="0.82" stroke-width="2.6"/>
<text x="350.8" y="279.5" text-anchor="start" font-family="Inter,Segoe UI,Arial,sans-serif" font-size="11" font-weight="700" fill="#111827" stroke="#ffffff" stroke-width="3" paint-order="stroke">293</text>
<circle cx="356.6" cy="238.5" r="1.45" fill="#7c3aed" fill-opacity="0.34"/>
<circle cx="359.1" cy="237.3" r="1.45" fill="#7c3aed" fill-opacity="0.34"/>
<circle cx="361.6" cy="237.6" r="1.45" fill="#7c3aed" fill-opacity="0.34"/>
<circle cx="364.1" cy="238.0" r="1.45" fill="#7c3aed" fill-opacity="0.34"/>
<circle cx="366.5" cy="228.3" r="1.45" fill="#7c3aed" fill-opacity="0.34"/>
<circle cx="369.0" cy="184.9" r="1.45" fill="#7c3aed" fill-opacity="0.34"/>
<circle cx="371.5" cy="150.2" r="1.45" fill="#7c3aed" fill-opacity="0.34"/>
<circle cx="373.9" cy="226.8" r="1.45" fill="#7c3aed" fill-opacity="0.34"/>
<circle cx="376.4" cy="225.3" r="1.45" fill="#7c3aed" fill-opacity="0.34"/>
<circle cx="356.6" cy="184.4" r="1.45" fill="#7c3aed" fill-opacity="0.34"/>
<circle cx="359.1" cy="187.4" r="1.45" fill="#7c3aed" fill-opacity="0.34"/>
<circle cx="361.6" cy="191.7" r="1.45" fill="#7c3aed" fill-opacity="0.34"/>
<circle cx="364.1" cy="228.2" r="1.45" fill="#7c3aed" fill-opacity="0.34"/>
<circle cx="366.5" cy="228.4" r="1.45" fill="#7c3aed" fill-opacity="0.34"/>
<circle cx="369.0" cy="217.2" r="1.45" fill="#7c3aed" fill-opacity="0.34"/>
<circle cx="371.5" cy="201.4" r="1.45" fill="#7c3aed" fill-opacity="0.34"/>
<circle cx="373.9" cy="211.7" r="1.45" fill="#7c3aed" fill-opacity="0.34"/>
<circle cx="376.4" cy="243.8" r="1.45" fill="#7c3aed" fill-opacity="0.34"/>
<circle cx="356.6" cy="239.6" r="1.45" fill="#7c3aed" fill-opacity="0.34"/>
<circle cx="359.1" cy="234.0" r="1.45" fill="#7c3aed" fill-opacity="0.34"/>
<line x1="366.5" y1="150.2" x2="366.5" y2="243.8" stroke="#7c3aed" stroke-opacity="0.55" stroke-width="1.8"/>
<line x1="356.6" y1="150.2" x2="376.4" y2="150.2" stroke="#7c3aed" stroke-opacity="0.55" stroke-width="1.8"/>
<line x1="356.6" y1="243.8" x2="376.4" y2="243.8" stroke="#7c3aed" stroke-opacity="0.55" stroke-width="1.8"/>
<rect x="352.8" y="199.0" width="27.5" height="38.4" rx="2" fill="#7c3aed" fill-opacity="0.12" stroke="#7c3aed" stroke-opacity="0.55" stroke-width="1.8"/>
<line x1="352.8" y1="227.5" x2="380.3" y2="227.5" stroke="#7c3aed" stroke-opacity="0.55" stroke-width="2.6"/>
<text x="386.3" y="231.5" text-anchor="start" font-family="Inter,Segoe UI,Arial,sans-serif" font-size="11" font-weight="700" fill="#111827" stroke="#ffffff" stroke-width="3" paint-order="stroke">472</text>
<circle cx="392.1" cy="216.9" r="1.45" fill="#1e3a8a" fill-opacity="0.34"/>
<circle cx="394.6" cy="225.2" r="1.45" fill="#1e3a8a" fill-opacity="0.34"/>
<circle cx="397.1" cy="217.8" r="1.45" fill="#1e3a8a" fill-opacity="0.34"/>
<circle cx="399.5" cy="234.0" r="1.45" fill="#1e3a8a" fill-opacity="0.34"/>
<circle cx="402.0" cy="197.0" r="1.45" fill="#1e3a8a" fill-opacity="0.34"/>
<circle cx="404.5" cy="211.4" r="1.45" fill="#1e3a8a" fill-opacity="0.34"/>
<circle cx="406.9" cy="182.2" r="1.45" fill="#1e3a8a" fill-opacity="0.34"/>
<circle cx="409.4" cy="190.8" r="1.45" fill="#1e3a8a" fill-opacity="0.34"/>
<circle cx="411.9" cy="231.9" r="1.45" fill="#1e3a8a" fill-opacity="0.34"/>
<circle cx="392.1" cy="226.2" r="1.45" fill="#1e3a8a" fill-opacity="0.34"/>
<circle cx="394.6" cy="231.9" r="1.45" fill="#1e3a8a" fill-opacity="0.34"/>
<circle cx="397.1" cy="231.4" r="1.45" fill="#1e3a8a" fill-opacity="0.34"/>
<circle cx="399.5" cy="234.5" r="1.45" fill="#1e3a8a" fill-opacity="0.34"/>
<circle cx="402.0" cy="234.4" r="1.45" fill="#1e3a8a" fill-opacity="0.34"/>
<circle cx="404.5" cy="233.3" r="1.45" fill="#1e3a8a" fill-opacity="0.34"/>
<circle cx="406.9" cy="245.3" r="1.45" fill="#1e3a8a" fill-opacity="0.34"/>
<circle cx="409.4" cy="245.3" r="1.45" fill="#1e3a8a" fill-opacity="0.34"/>
<circle cx="411.9" cy="244.0" r="1.45" fill="#1e3a8a" fill-opacity="0.34"/>
<circle cx="392.1" cy="245.8" r="1.45" fill="#1e3a8a" fill-opacity="0.34"/>
<circle cx="394.6" cy="243.6" r="1.45" fill="#1e3a8a" fill-opacity="0.34"/>
<line x1="402.0" y1="182.2" x2="402.0" y2="245.8" stroke="#1e3a8a" stroke-opacity="0.55" stroke-width="1.8"/>
<line x1="392.1" y1="182.2" x2="411.9" y2="182.2" stroke="#1e3a8a" stroke-opacity="0.55" stroke-width="1.8"/>
<line x1="392.1" y1="245.8" x2="411.9" y2="245.8" stroke="#1e3a8a" stroke-opacity="0.55" stroke-width="1.8"/>
<rect x="388.3" y="217.6" width="27.5" height="19.2" rx="2" fill="#1e3a8a" fill-opacity="0.12" stroke="#1e3a8a" stroke-opacity="0.55" stroke-width="1.8"/>
<line x1="388.3" y1="231.9" x2="415.7" y2="231.9" stroke="#1e3a8a" stroke-opacity="0.55" stroke-width="2.6"/>
<text x="421.7" y="235.9" text-anchor="start" font-family="Inter,Segoe UI,Arial,sans-serif" font-size="11" font-weight="700" fill="#111827" stroke="#ffffff" stroke-width="3" paint-order="stroke">456</text>
<circle cx="427.6" cy="280.8" r="1.45" fill="#f97316" fill-opacity="0.46"/>
<circle cx="430.1" cy="274.3" r="1.45" fill="#f97316" fill-opacity="0.46"/>
<circle cx="432.5" cy="280.4" r="1.45" fill="#f97316" fill-opacity="0.46"/>
<circle cx="435.0" cy="295.8" r="1.45" fill="#f97316" fill-opacity="0.46"/>
<line x1="437.5" y1="274.3" x2="437.5" y2="295.8" stroke="#f97316" stroke-opacity="0.82" stroke-width="1.8"/>
<line x1="427.6" y1="274.3" x2="447.4" y2="274.3" stroke="#f97316" stroke-opacity="0.82" stroke-width="1.8"/>
<line x1="427.6" y1="295.8" x2="447.4" y2="295.8" stroke="#f97316" stroke-opacity="0.82" stroke-width="1.8"/>
<rect x="423.7" y="278.9" width="27.5" height="5.7" rx="2" fill="#f97316" fill-opacity="0.18" stroke="#f97316" stroke-opacity="0.82" stroke-width="1.8"/>
<line x1="423.7" y1="280.6" x2="451.2" y2="280.6" stroke="#f97316" stroke-opacity="0.82" stroke-width="2.6"/>
<text x="457.2" y="284.6" text-anchor="start" font-family="Inter,Segoe UI,Arial,sans-serif" font-size="11" font-weight="700" fill="#111827" stroke="#ffffff" stroke-width="3" paint-order="stroke">274</text>
<circle cx="463.0" cy="280.7" r="1.45" fill="#eab308" fill-opacity="0.46"/>
<circle cx="465.5" cy="274.2" r="1.45" fill="#eab308" fill-opacity="0.46"/>
<circle cx="468.0" cy="280.5" r="1.45" fill="#eab308" fill-opacity="0.46"/>
<circle cx="470.5" cy="295.8" r="1.45" fill="#eab308" fill-opacity="0.46"/>
<line x1="472.9" y1="274.2" x2="472.9" y2="295.8" stroke="#eab308" stroke-opacity="0.82" stroke-width="1.8"/>
<line x1="463.0" y1="274.2" x2="482.8" y2="274.2" stroke="#eab308" stroke-opacity="0.82" stroke-width="1.8"/>
<line x1="463.0" y1="295.8" x2="482.8" y2="295.8" stroke="#eab308" stroke-opacity="0.82" stroke-width="1.8"/>
<rect x="459.2" y="278.9" width="27.5" height="5.6" rx="2" fill="#eab308" fill-opacity="0.18" stroke="#eab308" stroke-opacity="0.82" stroke-width="1.8"/>
<line x1="459.2" y1="280.6" x2="486.7" y2="280.6" stroke="#eab308" stroke-opacity="0.82" stroke-width="2.6"/>
<text x="492.7" y="284.6" text-anchor="start" font-family="Inter,Segoe UI,Arial,sans-serif" font-size="11" font-weight="700" fill="#111827" stroke="#ffffff" stroke-width="3" paint-order="stroke">274</text>
<text x="627.3" y="398" text-anchor="middle" font-family="Inter,Segoe UI,Arial,sans-serif" font-size="11" font-weight="700" fill="#111827">P</text>
<circle cx="546.5" cy="301.7" r="1.45" fill="#14532d" fill-opacity="0.46"/>
<circle cx="549.0" cy="302.8" r="1.45" fill="#14532d" fill-opacity="0.46"/>
<circle cx="551.5" cy="305.1" r="1.45" fill="#14532d" fill-opacity="0.46"/>
<circle cx="553.9" cy="302.1" r="1.45" fill="#14532d" fill-opacity="0.46"/>
<circle cx="556.4" cy="301.3" r="1.45" fill="#14532d" fill-opacity="0.46"/>
<circle cx="558.9" cy="301.8" r="1.45" fill="#14532d" fill-opacity="0.46"/>
<circle cx="561.3" cy="302.4" r="1.45" fill="#14532d" fill-opacity="0.46"/>
<circle cx="563.8" cy="300.7" r="1.45" fill="#14532d" fill-opacity="0.46"/>
<circle cx="566.3" cy="298.8" r="1.45" fill="#14532d" fill-opacity="0.46"/>
<circle cx="546.5" cy="298.4" r="1.45" fill="#14532d" fill-opacity="0.46"/>
<circle cx="549.0" cy="297.7" r="1.45" fill="#14532d" fill-opacity="0.46"/>
<circle cx="551.5" cy="298.1" r="1.45" fill="#14532d" fill-opacity="0.46"/>
<circle cx="553.9" cy="298.3" r="1.45" fill="#14532d" fill-opacity="0.46"/>
<circle cx="556.4" cy="302.7" r="1.45" fill="#14532d" fill-opacity="0.46"/>
<circle cx="558.9" cy="296.3" r="1.45" fill="#14532d" fill-opacity="0.46"/>
<line x1="556.4" y1="296.3" x2="556.4" y2="305.1" stroke="#14532d" stroke-opacity="0.82" stroke-width="1.8"/>
<line x1="546.5" y1="296.3" x2="566.3" y2="296.3" stroke="#14532d" stroke-opacity="0.82" stroke-width="1.8"/>
<line x1="546.5" y1="305.1" x2="566.3" y2="305.1" stroke="#14532d" stroke-opacity="0.82" stroke-width="1.8"/>
<rect x="542.7" y="298.4" width="27.5" height="3.9" rx="2" fill="#14532d" fill-opacity="0.18" stroke="#14532d" stroke-opacity="0.82" stroke-width="1.8"/>
<line x1="542.7" y1="301.3" x2="570.1" y2="301.3" stroke="#14532d" stroke-opacity="0.82" stroke-width="2.6"/>
<text x="576.1" y="305.3" text-anchor="start" font-family="Inter,Segoe UI,Arial,sans-serif" font-size="11" font-weight="700" fill="#111827" stroke="#ffffff" stroke-width="3" paint-order="stroke">197</text>
<circle cx="582.0" cy="260.1" r="1.45" fill="#7c3aed" fill-opacity="0.34"/>
<circle cx="584.5" cy="260.4" r="1.45" fill="#7c3aed" fill-opacity="0.34"/>
<circle cx="586.9" cy="260.3" r="1.45" fill="#7c3aed" fill-opacity="0.34"/>
<circle cx="589.4" cy="259.5" r="1.45" fill="#7c3aed" fill-opacity="0.34"/>
<circle cx="591.9" cy="259.9" r="1.45" fill="#7c3aed" fill-opacity="0.34"/>
<circle cx="594.3" cy="260.0" r="1.45" fill="#7c3aed" fill-opacity="0.34"/>
<circle cx="596.8" cy="257.0" r="1.45" fill="#7c3aed" fill-opacity="0.34"/>
<circle cx="599.3" cy="257.2" r="1.45" fill="#7c3aed" fill-opacity="0.34"/>
<circle cx="601.8" cy="257.5" r="1.45" fill="#7c3aed" fill-opacity="0.34"/>
<circle cx="582.0" cy="258.0" r="1.45" fill="#7c3aed" fill-opacity="0.34"/>
<circle cx="584.5" cy="256.5" r="1.45" fill="#7c3aed" fill-opacity="0.34"/>
<circle cx="586.9" cy="256.7" r="1.45" fill="#7c3aed" fill-opacity="0.34"/>
<circle cx="589.4" cy="257.2" r="1.45" fill="#7c3aed" fill-opacity="0.34"/>
<circle cx="591.9" cy="256.7" r="1.45" fill="#7c3aed" fill-opacity="0.34"/>
<circle cx="594.3" cy="257.1" r="1.45" fill="#7c3aed" fill-opacity="0.34"/>
<line x1="591.9" y1="256.5" x2="591.9" y2="260.4" stroke="#7c3aed" stroke-opacity="0.55" stroke-width="1.8"/>
<line x1="582.0" y1="256.5" x2="601.8" y2="256.5" stroke="#7c3aed" stroke-opacity="0.55" stroke-width="1.8"/>
<line x1="582.0" y1="260.4" x2="601.8" y2="260.4" stroke="#7c3aed" stroke-opacity="0.55" stroke-width="1.8"/>
<rect x="578.1" y="257.1" width="27.5" height="2.9" rx="2" fill="#7c3aed" fill-opacity="0.12" stroke="#7c3aed" stroke-opacity="0.55" stroke-width="1.8"/>
<line x1="578.1" y1="257.5" x2="605.6" y2="257.5" stroke="#7c3aed" stroke-opacity="0.55" stroke-width="2.6"/>
<text x="611.6" y="261.5" text-anchor="start" font-family="Inter,Segoe UI,Arial,sans-serif" font-size="11" font-weight="700" fill="#111827" stroke="#ffffff" stroke-width="3" paint-order="stroke">360</text>
<circle cx="617.4" cy="260.4" r="1.45" fill="#1e3a8a" fill-opacity="0.34"/>
<circle cx="619.9" cy="261.5" r="1.45" fill="#1e3a8a" fill-opacity="0.34"/>
<circle cx="622.4" cy="261.7" r="1.45" fill="#1e3a8a" fill-opacity="0.34"/>
<circle cx="624.9" cy="259.9" r="1.45" fill="#1e3a8a" fill-opacity="0.34"/>
<circle cx="627.3" cy="260.9" r="1.45" fill="#1e3a8a" fill-opacity="0.34"/>
<circle cx="629.8" cy="257.5" r="1.45" fill="#1e3a8a" fill-opacity="0.34"/>
<circle cx="632.3" cy="257.3" r="1.45" fill="#1e3a8a" fill-opacity="0.34"/>
<circle cx="634.7" cy="257.8" r="1.45" fill="#1e3a8a" fill-opacity="0.34"/>
<circle cx="637.2" cy="257.3" r="1.45" fill="#1e3a8a" fill-opacity="0.34"/>
<circle cx="617.4" cy="257.1" r="1.45" fill="#1e3a8a" fill-opacity="0.34"/>
<circle cx="619.9" cy="256.4" r="1.45" fill="#1e3a8a" fill-opacity="0.34"/>
<circle cx="622.4" cy="256.6" r="1.45" fill="#1e3a8a" fill-opacity="0.34"/>
<circle cx="624.9" cy="258.5" r="1.45" fill="#1e3a8a" fill-opacity="0.34"/>
<circle cx="627.3" cy="259.6" r="1.45" fill="#1e3a8a" fill-opacity="0.34"/>
<circle cx="629.8" cy="259.6" r="1.45" fill="#1e3a8a" fill-opacity="0.34"/>
<line x1="627.3" y1="256.4" x2="627.3" y2="261.7" stroke="#1e3a8a" stroke-opacity="0.55" stroke-width="1.8"/>
<line x1="617.4" y1="256.4" x2="637.2" y2="256.4" stroke="#1e3a8a" stroke-opacity="0.55" stroke-width="1.8"/>
<line x1="617.4" y1="261.7" x2="637.2" y2="261.7" stroke="#1e3a8a" stroke-opacity="0.55" stroke-width="1.8"/>
<rect x="613.6" y="257.3" width="27.5" height="2.9" rx="2" fill="#1e3a8a" fill-opacity="0.12" stroke="#1e3a8a" stroke-opacity="0.55" stroke-width="1.8"/>
<line x1="613.6" y1="258.5" x2="641.1" y2="258.5" stroke="#1e3a8a" stroke-opacity="0.55" stroke-width="2.6"/>
<text x="647.1" y="262.5" text-anchor="start" font-family="Inter,Segoe UI,Arial,sans-serif" font-size="11" font-weight="700" fill="#111827" stroke="#ffffff" stroke-width="3" paint-order="stroke">356</text>
<circle cx="652.9" cy="308.4" r="1.45" fill="#f97316" fill-opacity="0.46"/>
<circle cx="655.4" cy="305.1" r="1.45" fill="#f97316" fill-opacity="0.46"/>
<circle cx="657.9" cy="304.6" r="1.45" fill="#f97316" fill-opacity="0.46"/>
<line x1="662.8" y1="304.6" x2="662.8" y2="308.4" stroke="#f97316" stroke-opacity="0.82" stroke-width="1.8"/>
<line x1="652.9" y1="304.6" x2="672.7" y2="304.6" stroke="#f97316" stroke-opacity="0.82" stroke-width="1.8"/>
<line x1="652.9" y1="308.4" x2="672.7" y2="308.4" stroke="#f97316" stroke-opacity="0.82" stroke-width="1.8"/>
<rect x="649.1" y="304.8" width="27.5" height="1.9" rx="2" fill="#f97316" fill-opacity="0.18" stroke="#f97316" stroke-opacity="0.82" stroke-width="1.8"/>
<line x1="649.1" y1="305.1" x2="676.5" y2="305.1" stroke="#f97316" stroke-opacity="0.82" stroke-width="2.6"/>
<text x="682.5" y="309.1" text-anchor="start" font-family="Inter,Segoe UI,Arial,sans-serif" font-size="11" font-weight="700" fill="#111827" stroke="#ffffff" stroke-width="3" paint-order="stroke">182</text>
<circle cx="688.4" cy="308.2" r="1.45" fill="#eab308" fill-opacity="0.46"/>
<circle cx="690.9" cy="305.1" r="1.45" fill="#eab308" fill-opacity="0.46"/>
<circle cx="693.3" cy="304.4" r="1.45" fill="#eab308" fill-opacity="0.46"/>
<line x1="698.3" y1="304.4" x2="698.3" y2="308.2" stroke="#eab308" stroke-opacity="0.82" stroke-width="1.8"/>
<line x1="688.4" y1="304.4" x2="708.2" y2="304.4" stroke="#eab308" stroke-opacity="0.82" stroke-width="1.8"/>
<line x1="688.4" y1="308.2" x2="708.2" y2="308.2" stroke="#eab308" stroke-opacity="0.82" stroke-width="1.8"/>
<rect x="684.5" y="304.8" width="27.5" height="1.9" rx="2" fill="#eab308" fill-opacity="0.18" stroke="#eab308" stroke-opacity="0.82" stroke-width="1.8"/>
<line x1="684.5" y1="305.1" x2="712.0" y2="305.1" stroke="#eab308" stroke-opacity="0.82" stroke-width="2.6"/>
<text x="718.0" y="309.1" text-anchor="start" font-family="Inter,Segoe UI,Arial,sans-serif" font-size="11" font-weight="700" fill="#111827" stroke="#ffffff" stroke-width="3" paint-order="stroke">182</text>
<rect x="64" y="433" width="10" height="10" rx="2" fill="#14532d" fill-opacity="0.86"/>
<text x="78" y="442" font-family="Inter,Segoe UI,Arial,sans-serif" font-size="10" fill="#374151">MTPLX 0.3.7</text>
<rect x="199.2" y="433" width="10" height="10" rx="2" fill="#7c3aed" fill-opacity="0.60"/>
<text x="213.2" y="442" font-family="Inter,Segoe UI,Arial,sans-serif" font-size="10" fill="#374151">Lightning v0.6.10</text>
<rect x="334.4" y="433" width="10" height="10" rx="2" fill="#1e3a8a" fill-opacity="0.60"/>
<text x="348.4" y="442" font-family="Inter,Segoe UI,Arial,sans-serif" font-size="10" fill="#374151">Lightning+ng v0.6.10</text>
<rect x="469.59999999999997" y="433" width="10" height="10" rx="2" fill="#f97316" fill-opacity="0.86"/>
<text x="483.59999999999997" y="442" font-family="Inter,Segoe UI,Arial,sans-serif" font-size="10" fill="#374151">AX Engine v5.1.1</text>
<rect x="604.8" y="433" width="10" height="10" rx="2" fill="#eab308" fill-opacity="0.86"/>
<text x="618.8" y="442" font-family="Inter,Segoe UI,Arial,sans-serif" font-size="10" fill="#374151">AX+ngram v5.1.1</text>
</svg>
