<svg xmlns="http://www.w3.org/2000/svg" width="700" height="320" viewBox="0 0 700 320" role="img" aria-labelledby="title desc"><title>N-gram accept rate — ax-engine vs lightning (high-repeat)</title><desc>N-gram accept rate — ax-engine vs lightning (high-repeat)</desc><rect width="700" height="320" fill="#ffffff"/><text x="55" y="22" font-family="Inter,Segoe UI,Arial,sans-serif" font-size="13" font-weight="700" fill="#111827">N-gram accept rate — ax-engine vs lightning (high-repeat)</text><text x="55" y="36" font-family="Inter,Segoe UI,Arial,sans-serif" font-size="9" fill="#6b7280">temp=0.6 · draft token acceptance per decode step · higher = better</text><text x="675" y="22" text-anchor="end" font-family="Inter,Segoe UI,Arial,sans-serif" font-size="10" fill="#6b7280">accept %</text><text x="675" y="36" text-anchor="end" font-family="Inter,Segoe UI,Arial,sans-serif" font-size="10" font-weight="700" fill="#374151">Higher is better</text><line x1="55" y1="248.0" x2="675" y2="248.0" stroke="#e5e7eb" stroke-width="1"/><text x="49" y="251.0" text-anchor="end" font-family="Inter,Segoe UI,Arial,sans-serif" font-size="10" fill="#6b7280">0%</text><line x1="55" y1="152.0" x2="675" y2="152.0" stroke="#e5e7eb" stroke-width="1"/><text x="49" y="155.0" text-anchor="end" font-family="Inter,Segoe UI,Arial,sans-serif" font-size="10" fill="#6b7280">38%</text><line x1="55" y1="56.0" x2="675" y2="56.0" stroke="#e5e7eb" stroke-width="1"/><text x="49" y="59.0" text-anchor="end" font-family="Inter,Segoe UI,Arial,sans-serif" font-size="10" fill="#6b7280">75%</text><rect x="83.8" y="116.8" width="14" height="131.2" rx="2" fill="#2eaf5f" fill-opacity="0.35" stroke="#176c37" stroke-width="1.4"/><line x1="83.8" y1="116.8" x2="97.8" y2="116.8" stroke="#176c37" stroke-width="2.2"/><text x="90.8" y="113.8" text-anchor="middle" font-family="Inter,Segoe UI,Arial,sans-serif" font-size="7.5" fill="#176c37">51%</text><rect x="100.8" y="216.0" width="14" height="32.0" rx="2" fill="#f2b705" fill-opacity="0.35" stroke="#9a6a00" stroke-width="1.4"/><line x1="100.8" y1="216.0" x2="114.8" y2="216.0" stroke="#9a6a00" stroke-width="2.2"/><text x="107.8" y="213.0" text-anchor="middle" font-family="Inter,Segoe UI,Arial,sans-serif" font-size="7.5" fill="#9a6a00">12%</text><text x="99.3" y="262" text-anchor="middle" font-family="Inter,Segoe UI,Arial,sans-serif" font-size="8.5" font-weight="700" fill="#111827">Qwen3-4B</text><rect x="172.4" y="110.5" width="14" height="137.5" rx="2" fill="#2eaf5f" fill-opacity="0.35" stroke="#176c37" stroke-width="1.4"/><line x1="172.4" y1="110.5" x2="186.4" y2="110.5" stroke="#176c37" stroke-width="2.2"/><text x="179.4" y="107.5" text-anchor="middle" font-family="Inter,Segoe UI,Arial,sans-serif" font-size="7.5" fill="#176c37">54%</text><rect x="189.4" y="248.0" width="14" height="0.0" rx="2" fill="#f2b705" fill-opacity="0.35" stroke="#9a6a00" stroke-width="1.4"/><line x1="189.4" y1="248.0" x2="203.4" y2="248.0" stroke="#9a6a00" stroke-width="2.2"/><text x="187.9" y="262" text-anchor="middle" font-family="Inter,Segoe UI,Arial,sans-serif" font-size="8.5" font-weight="700" fill="#111827">GLM-4.7F</text><rect x="260.9" y="109.7" width="14" height="138.3" rx="2" fill="#2eaf5f" fill-opacity="0.35" stroke="#176c37" stroke-width="1.4"/><line x1="260.9" y1="109.7" x2="274.9" y2="109.7" stroke="#176c37" stroke-width="2.2"/><text x="267.9" y="106.7" text-anchor="middle" font-family="Inter,Segoe UI,Arial,sans-serif" font-size="7.5" fill="#176c37">54%</text><rect x="277.9" y="248.0" width="14" height="0.0" rx="2" fill="#f2b705" fill-opacity="0.35" stroke="#9a6a00" stroke-width="1.4"/><line x1="277.9" y1="248.0" x2="291.9" y2="248.0" stroke="#9a6a00" stroke-width="2.2"/><text x="276.4" y="262" text-anchor="middle" font-family="Inter,Segoe UI,Arial,sans-serif" font-size="8.5" font-weight="700" fill="#111827">E2B 4bit</text><rect x="349.5" y="133.6" width="14" height="114.4" rx="2" fill="#2eaf5f" fill-opacity="0.35" stroke="#176c37" stroke-width="1.4"/><line x1="349.5" y1="133.6" x2="363.5" y2="133.6" stroke="#176c37" stroke-width="2.2"/><text x="356.5" y="130.6" text-anchor="middle" font-family="Inter,Segoe UI,Arial,sans-serif" font-size="7.5" fill="#176c37">45%</text><rect x="366.5" y="225.1" width="14" height="22.9" rx="2" fill="#f2b705" fill-opacity="0.35" stroke="#9a6a00" stroke-width="1.4"/><line x1="366.5" y1="225.1" x2="380.5" y2="225.1" stroke="#9a6a00" stroke-width="2.2"/><text x="373.5" y="222.1" text-anchor="middle" font-family="Inter,Segoe UI,Arial,sans-serif" font-size="7.5" fill="#9a6a00">9%</text><text x="365.0" y="262" text-anchor="middle" font-family="Inter,Segoe UI,Arial,sans-serif" font-size="8.5" font-weight="700" fill="#111827">E2B 5bit</text><rect x="438.1" y="110.8" width="14" height="137.2" rx="2" fill="#2eaf5f" fill-opacity="0.35" stroke="#176c37" stroke-width="1.4"/><line x1="438.1" y1="110.8" x2="452.1" y2="110.8" stroke="#176c37" stroke-width="2.2"/><text x="445.1" y="107.8" text-anchor="middle" font-family="Inter,Segoe UI,Arial,sans-serif" font-size="7.5" fill="#176c37">54%</text><rect x="455.1" y="248.0" width="14" height="0.0" rx="2" fill="#f2b705" fill-opacity="0.35" stroke="#9a6a00" stroke-width="1.4"/><line x1="455.1" y1="248.0" x2="469.1" y2="248.0" stroke="#9a6a00" stroke-width="2.2"/><text x="453.6" y="262" text-anchor="middle" font-family="Inter,Segoe UI,Arial,sans-serif" font-size="8.5" font-weight="700" fill="#111827">E2B 6bit</text><rect x="526.6" y="104.9" width="14" height="143.1" rx="2" fill="#2eaf5f" fill-opacity="0.35" stroke="#176c37" stroke-width="1.4"/><line x1="526.6" y1="104.9" x2="540.6" y2="104.9" stroke="#176c37" stroke-width="2.2"/><text x="533.6" y="101.9" text-anchor="middle" font-family="Inter,Segoe UI,Arial,sans-serif" font-size="7.5" fill="#176c37">56%</text><rect x="543.6" y="226.7" width="14" height="21.3" rx="2" fill="#f2b705" fill-opacity="0.35" stroke="#9a6a00" stroke-width="1.4"/><line x1="543.6" y1="226.7" x2="557.6" y2="226.7" stroke="#9a6a00" stroke-width="2.2"/><text x="550.6" y="223.7" text-anchor="middle" font-family="Inter,Segoe UI,Arial,sans-serif" font-size="7.5" fill="#9a6a00">8%</text><text x="542.1" y="262" text-anchor="middle" font-family="Inter,Segoe UI,Arial,sans-serif" font-size="8.5" font-weight="700" fill="#111827">E2B 8bit</text><rect x="615.2" y="101.3" width="14" height="146.7" rx="2" fill="#2eaf5f" fill-opacity="0.35" stroke="#176c37" stroke-width="1.4"/><line x1="615.2" y1="101.3" x2="629.2" y2="101.3" stroke="#176c37" stroke-width="2.2"/><text x="622.2" y="98.3" text-anchor="middle" font-family="Inter,Segoe UI,Arial,sans-serif" font-size="7.5" fill="#176c37">57%</text><rect x="632.2" y="229.2" width="14" height="18.8" rx="2" fill="#f2b705" fill-opacity="0.35" stroke="#9a6a00" stroke-width="1.4"/><line x1="632.2" y1="229.2" x2="646.2" y2="229.2" stroke="#9a6a00" stroke-width="2.2"/><text x="639.2" y="226.2" text-anchor="middle" font-family="Inter,Segoe UI,Arial,sans-serif" font-size="7.5" fill="#9a6a00">7%</text><text x="630.7" y="262" text-anchor="middle" font-family="Inter,Segoe UI,Arial,sans-serif" font-size="8.5" font-weight="700" fill="#111827">E4B 4bit</text><rect x="55" y="280" width="10" height="10" rx="2" fill="#2eaf5f" fill-opacity="0.4" stroke="#176c37" stroke-width="1.4"/><text x="69" y="289" font-family="Inter,Segoe UI,Arial,sans-serif" font-size="9" fill="#374151">ax n-gram</text><rect x="175" y="280" width="10" height="10" rx="2" fill="#f2b705" fill-opacity="0.4" stroke="#9a6a00" stroke-width="1.4"/><text x="189" y="289" font-family="Inter,Segoe UI,Arial,sans-serif" font-size="9" fill="#374151">lightning</text></svg>
