<svg xmlns="http://www.w3.org/2000/svg" width="800" height="430" viewBox="0 0 800 430" role="img" aria-labelledby="title desc">
<title>Qwen3-Coder-Next 4-bit - Time to first token</title>
<desc>Grouped bar chart of median values comparing llama.cpp Metal, mlx-lm, and AX Engine native MLX at 128/512/2048 prompt tokens for Qwen3-Coder-Next 4-bit.</desc>
<rect width="800" height="430" fill="#f8fafc"/>
<text x="64" y="24" font-family="Inter,Segoe UI,Arial,sans-serif" font-size="16" font-weight="700" fill="#111827">Qwen3-Coder-Next 4-bit - Time to first token</text>
<text x="64" y="46" font-family="Inter,Segoe UI,Arial,sans-serif" font-size="11" fill="#4b5563">median over reps | grouped by prompt tokens | generation=128 tokens</text>
<text x="64" y="62" font-family="Inter,Segoe UI,Arial,sans-serif" font-size="10" fill="#6b7280">direct-only Qwen3-Coder-Next comparison; llama.cpp rows are shape-compatible GGUF</text>
<text x="64" y="76" font-family="Inter,Segoe UI,Arial,sans-serif" font-size="9" fill="#9ca3af">versions: AX 6.3.4 @730c0e9f | mlx-lm 0.31.3 | llama.cpp b9620, ggml 0.15.1, FA on</text>
<rect x="718" y="13" width="48" height="22" rx="11" fill="#eef2ff" stroke="#c7d2fe"/>
<text x="742.0" y="28" text-anchor="middle" font-family="Inter,Segoe UI,Arial,sans-serif" font-size="10" font-weight="700" fill="#3730a3">ms</text>
<text x="766" y="52" text-anchor="end" font-family="Inter,Segoe UI,Arial,sans-serif" font-size="10" font-weight="700" fill="#dc2626">Lower is better</text>
<rect x="64" y="86" width="576" height="230" rx="6" fill="#ffffff" stroke="#dbe3ef"/>
<line x1="64" y1="316.0" x2="640" y2="316.0" stroke="#e5e7eb" stroke-width="1"/>
<text x="56" y="319.0" text-anchor="end" font-family="Inter,Segoe UI,Arial,sans-serif" font-size="11" fill="#6b7280">0</text>
<line x1="64" y1="258.5" x2="640" y2="258.5" stroke="#e5e7eb" stroke-width="1"/>
<text x="56" y="261.5" text-anchor="end" font-family="Inter,Segoe UI,Arial,sans-serif" font-size="11" fill="#6b7280">250</text>
<line x1="64" y1="201.0" x2="640" y2="201.0" stroke="#e5e7eb" stroke-width="1"/>
<text x="56" y="204.0" text-anchor="end" font-family="Inter,Segoe UI,Arial,sans-serif" font-size="11" fill="#6b7280">500</text>
<line x1="64" y1="143.5" x2="640" y2="143.5" stroke="#e5e7eb" stroke-width="1"/>
<text x="56" y="146.5" text-anchor="end" font-family="Inter,Segoe UI,Arial,sans-serif" font-size="11" fill="#6b7280">750</text>
<line x1="64" y1="86.0" x2="640" y2="86.0" stroke="#e5e7eb" stroke-width="1"/>
<text x="56" y="89.0" text-anchor="end" font-family="Inter,Segoe UI,Arial,sans-serif" font-size="11" fill="#6b7280">1k</text>
<line x1="64" y1="292.5" x2="640" y2="292.5" stroke="#dc2626" stroke-width="1.2" stroke-dasharray="1 4" stroke-linecap="round"/>
<text x="648" y="287.5" text-anchor="start" font-family="Inter,Segoe UI,Arial,sans-serif" font-size="11" font-weight="700" fill="#dc2626">lowest: 102.1</text>
<rect x="101.0" y="292.5" width="34.0" height="23.5" rx="3" fill="#f97316" fill-opacity="0.40" stroke="#c2410c" stroke-width="1.8"/>
<line x1="101.0" y1="292.5" x2="135.0" y2="292.5" stroke="#c2410c" stroke-width="2.6"/>
<text x="118.0" y="286.5" text-anchor="middle" font-family="Inter,Segoe UI,Arial,sans-serif" font-size="10" font-weight="700" fill="#111827">102.1</text>
<rect x="143.0" y="218.1" width="34.0" height="97.9" rx="3" fill="#f2b705" fill-opacity="0.40" stroke="#9a6a00" stroke-width="1.8"/>
<line x1="143.0" y1="218.1" x2="177.0" y2="218.1" stroke="#9a6a00" stroke-width="2.6"/>
<text x="160.0" y="212.1" text-anchor="middle" font-family="Inter,Segoe UI,Arial,sans-serif" font-size="10" font-weight="700" fill="#111827">425.5</text>
<rect x="185.0" y="279.4" width="34.0" height="36.6" rx="3" fill="#2eaf5f" fill-opacity="0.40" stroke="#176c37" stroke-width="1.8"/>
<line x1="185.0" y1="279.4" x2="219.0" y2="279.4" stroke="#176c37" stroke-width="2.6"/>
<text x="202.0" y="273.4" text-anchor="middle" font-family="Inter,Segoe UI,Arial,sans-serif" font-size="10" font-weight="700" fill="#111827">159.1</text>
<text x="160.0" y="346" text-anchor="middle" font-family="Inter,Segoe UI,Arial,sans-serif" font-size="11" font-weight="700" fill="#111827">128 tok</text>
<rect x="293.0" y="261.2" width="34.0" height="54.8" rx="3" fill="#f97316" fill-opacity="0.40" stroke="#c2410c" stroke-width="1.8"/>
<line x1="293.0" y1="261.2" x2="327.0" y2="261.2" stroke="#c2410c" stroke-width="2.6"/>
<text x="310.0" y="255.2" text-anchor="middle" font-family="Inter,Segoe UI,Arial,sans-serif" font-size="10" font-weight="700" fill="#111827">238.1</text>
<rect x="335.0" y="184.0" width="34.0" height="132.0" rx="3" fill="#f2b705" fill-opacity="0.40" stroke="#9a6a00" stroke-width="1.8"/>
<line x1="335.0" y1="184.0" x2="369.0" y2="184.0" stroke="#9a6a00" stroke-width="2.6"/>
<text x="352.0" y="178.0" text-anchor="middle" font-family="Inter,Segoe UI,Arial,sans-serif" font-size="10" font-weight="700" fill="#111827">574.1</text>
<rect x="377.0" y="250.1" width="34.0" height="65.9" rx="3" fill="#2eaf5f" fill-opacity="0.40" stroke="#176c37" stroke-width="1.8"/>
<line x1="377.0" y1="250.1" x2="411.0" y2="250.1" stroke="#176c37" stroke-width="2.6"/>
<text x="394.0" y="244.1" text-anchor="middle" font-family="Inter,Segoe UI,Arial,sans-serif" font-size="10" font-weight="700" fill="#111827">286.5</text>
<text x="352.0" y="346" text-anchor="middle" font-family="Inter,Segoe UI,Arial,sans-serif" font-size="11" font-weight="700" fill="#111827">512 tok</text>
<rect x="485.0" y="131.6" width="34.0" height="184.4" rx="3" fill="#f97316" fill-opacity="0.40" stroke="#c2410c" stroke-width="1.8"/>
<line x1="485.0" y1="131.6" x2="519.0" y2="131.6" stroke="#c2410c" stroke-width="2.6"/>
<text x="502.0" y="125.6" text-anchor="middle" font-family="Inter,Segoe UI,Arial,sans-serif" font-size="10" font-weight="700" fill="#111827">801.6</text>
<rect x="527.0" y="104.4" width="34.0" height="211.6" rx="3" fill="#f2b705" fill-opacity="0.40" stroke="#9a6a00" stroke-width="1.8"/>
<line x1="527.0" y1="104.4" x2="561.0" y2="104.4" stroke="#9a6a00" stroke-width="2.6"/>
<text x="544.0" y="98.4" text-anchor="middle" font-family="Inter,Segoe UI,Arial,sans-serif" font-size="10" font-weight="700" fill="#111827">920.1</text>
<rect x="569.0" y="135.8" width="34.0" height="180.2" rx="3" fill="#2eaf5f" fill-opacity="0.40" stroke="#176c37" stroke-width="1.8"/>
<line x1="569.0" y1="135.8" x2="603.0" y2="135.8" stroke="#176c37" stroke-width="2.6"/>
<text x="586.0" y="129.8" text-anchor="middle" font-family="Inter,Segoe UI,Arial,sans-serif" font-size="10" font-weight="700" fill="#111827">783.3</text>
<text x="544.0" y="346" text-anchor="middle" font-family="Inter,Segoe UI,Arial,sans-serif" font-size="11" font-weight="700" fill="#111827">2048 tok</text>
<rect x="64.0" y="399" width="12" height="10" rx="2" fill="#f97316" fill-opacity="0.40" stroke="#c2410c" stroke-width="1.4"/>
<text x="80.0" y="408" font-family="Inter,Segoe UI,Arial,sans-serif" font-size="10" fill="#374151">llama.cpp Metal b9620 FA</text>
<rect x="226.0" y="399" width="12" height="10" rx="2" fill="#f2b705" fill-opacity="0.40" stroke="#9a6a00" stroke-width="1.4"/>
<text x="242.0" y="408" font-family="Inter,Segoe UI,Arial,sans-serif" font-size="10" fill="#374151">mlx-lm 0.31.3</text>
<rect x="322.0" y="399" width="12" height="10" rx="2" fill="#2eaf5f" fill-opacity="0.40" stroke="#176c37" stroke-width="1.4"/>
<text x="338.0" y="408" font-family="Inter,Segoe UI,Arial,sans-serif" font-size="10" fill="#374151">AX Engine 6.3.4</text>
</svg>
