<svg xmlns="http://www.w3.org/2000/svg" width="460" height="276" viewBox="0 0 460 276" role="img" aria-labelledby="title desc"><title>Prefill rate - 128 tok</title><desc>Box-and-Whisker Plot comparing llama.cpp, mlx_lm, ax_engine at 128 prompt tokens across README benchmark rows on a linear y-axis. A red dotted horizontal line marks the highest median in this chart.</desc><rect width="460" height="276" fill="#ffffff"/><text x="52" y="22" font-family="Inter,Segoe UI,Arial,sans-serif" font-size="16" font-weight="700" fill="#111827">Prefill rate - 128 tok</text><text x="442" y="22" text-anchor="end" font-family="Inter,Segoe UI,Arial,sans-serif" font-size="10" fill="#6b7280">tok/s</text><text x="442" y="40" text-anchor="end" font-family="Inter,Segoe UI,Arial,sans-serif" font-size="10" font-weight="700" fill="#374151">Higher is better</text><line x1="52" y1="206.0" x2="442" y2="206.0" stroke="#e5e7eb" stroke-width="1"/><text x="44" y="209.0" text-anchor="end" font-family="Inter,Segoe UI,Arial,sans-serif" font-size="10" fill="#6b7280">0</text><line x1="52" y1="126.0" x2="442" y2="126.0" stroke="#e5e7eb" stroke-width="1"/><text x="44" y="129.0" text-anchor="end" font-family="Inter,Segoe UI,Arial,sans-serif" font-size="10" fill="#6b7280">2.5k</text><line x1="52" y1="46.0" x2="442" y2="46.0" stroke="#e5e7eb" stroke-width="1"/><text x="44" y="49.0" text-anchor="end" font-family="Inter,Segoe UI,Arial,sans-serif" font-size="10" fill="#6b7280">5k</text><line x1="52" y1="146.9" x2="442" y2="146.9" stroke="#dc2626" stroke-width="1.2" stroke-dasharray="1 4" stroke-linecap="round"/><line x1="117" y1="84.5" x2="117" y2="189.4" stroke="#f97316" stroke-width="1.7"/><line x1="104.76" y1="84.5" x2="129.24" y2="84.5" stroke="#f97316" stroke-width="1.7"/><line x1="104.76" y1="189.4" x2="129.24" y2="189.4" stroke="#f97316" stroke-width="1.7"/><rect x="100" y="94.9" width="34" height="93.8" rx="3" fill="#f97316" fill-opacity="0.18" stroke="#f97316" stroke-width="1.7"/><line x1="100" y1="146.9" x2="134" y2="146.9" stroke="#f97316" stroke-width="2.4"/><text x="117" y="226" text-anchor="middle" font-family="Inter,Segoe UI,Arial,sans-serif" font-size="9" fill="#111827">llama.cpp</text><text x="117" y="242" text-anchor="middle" font-family="Inter,Segoe UI,Arial,sans-serif" font-size="9" fill="#6b7280">med 1.8k</text><circle cx="108.84" cy="84.5" r="1.5" fill="#c2410c" fill-opacity="0.9"/><circle cx="112.92" cy="97.3" r="1.5" fill="#c2410c" fill-opacity="0.9"/><circle cx="117" cy="87.9" r="1.5" fill="#c2410c" fill-opacity="0.9"/><circle cx="121.08" cy="87.3" r="1.5" fill="#c2410c" fill-opacity="0.9"/><circle cx="125.16" cy="131.8" r="1.5" fill="#c2410c" fill-opacity="0.9"/><circle cx="108.84" cy="143.7" r="1.5" fill="#c2410c" fill-opacity="0.9"/><circle cx="112.92" cy="189.1" r="1.5" fill="#c2410c" fill-opacity="0.9"/><circle cx="117" cy="189.1" r="1.5" fill="#c2410c" fill-opacity="0.9"/><circle cx="121.08" cy="189.4" r="1.5" fill="#c2410c" fill-opacity="0.9"/><circle cx="125.16" cy="188.6" r="1.5" fill="#c2410c" fill-opacity="0.9"/><circle cx="108.84" cy="188.1" r="1.5" fill="#c2410c" fill-opacity="0.9"/><circle cx="112.92" cy="150.2" r="1.5" fill="#c2410c" fill-opacity="0.9"/><line x1="247" y1="131.2" x2="247" y2="199.0" stroke="#f2b705" stroke-width="1.7"/><line x1="234.76" y1="131.2" x2="259.24" y2="131.2" stroke="#f2b705" stroke-width="1.7"/><line x1="234.76" y1="199.0" x2="259.24" y2="199.0" stroke="#f2b705" stroke-width="1.7"/><rect x="230" y="152.9" width="34" height="44.1" rx="3" fill="#f2b705" fill-opacity="0.18" stroke="#f2b705" stroke-width="1.7"/><line x1="230" y1="189.4" x2="264" y2="189.4" stroke="#f2b705" stroke-width="2.4"/><text x="247" y="226" text-anchor="middle" font-family="Inter,Segoe UI,Arial,sans-serif" font-size="9" fill="#111827">mlx_lm</text><text x="247" y="242" text-anchor="middle" font-family="Inter,Segoe UI,Arial,sans-serif" font-size="9" fill="#6b7280">med 517.9</text><circle cx="238.84" cy="131.2" r="1.5" fill="#9a6a00" fill-opacity="0.9"/><circle cx="242.92" cy="134.4" r="1.5" fill="#9a6a00" fill-opacity="0.9"/><circle cx="247" cy="147.6" r="1.5" fill="#9a6a00" fill-opacity="0.9"/><circle cx="251.08" cy="154.6" r="1.5" fill="#9a6a00" fill-opacity="0.9"/><circle cx="255.16" cy="157.6" r="1.5" fill="#9a6a00" fill-opacity="0.9"/><circle cx="238.84" cy="190.1" r="1.5" fill="#9a6a00" fill-opacity="0.9"/><circle cx="242.92" cy="196.9" r="1.5" fill="#9a6a00" fill-opacity="0.9"/><circle cx="247" cy="193.9" r="1.5" fill="#9a6a00" fill-opacity="0.9"/><circle cx="251.08" cy="197.1" r="1.5" fill="#9a6a00" fill-opacity="0.9"/><circle cx="255.16" cy="197.3" r="1.5" fill="#9a6a00" fill-opacity="0.9"/><circle cx="238.84" cy="199.0" r="1.5" fill="#9a6a00" fill-opacity="0.9"/><circle cx="242.92" cy="188.7" r="1.5" fill="#9a6a00" fill-opacity="0.9"/><line x1="377" y1="75.1" x2="377" y2="183.0" stroke="#2eaf5f" stroke-width="1.7"/><line x1="364.76" y1="75.1" x2="389.24" y2="75.1" stroke="#2eaf5f" stroke-width="1.7"/><line x1="364.76" y1="183.0" x2="389.24" y2="183.0" stroke="#2eaf5f" stroke-width="1.7"/><rect x="360" y="81.9" width="34" height="100.4" rx="3" fill="#2eaf5f" fill-opacity="0.18" stroke="#2eaf5f" stroke-width="1.7"/><line x1="360" y1="162.9" x2="394" y2="162.9" stroke="#2eaf5f" stroke-width="2.4"/><text x="377" y="226" text-anchor="middle" font-family="Inter,Segoe UI,Arial,sans-serif" font-size="9" fill="#111827">ax_engine</text><text x="377" y="242" text-anchor="middle" font-family="Inter,Segoe UI,Arial,sans-serif" font-size="9" fill="#6b7280">med 1.3k</text><circle cx="368.84" cy="75.1" r="1.5" fill="#176c37" fill-opacity="0.9"/><circle cx="372.92" cy="78.7" r="1.5" fill="#176c37" fill-opacity="0.9"/><circle cx="377" cy="80.6" r="1.5" fill="#176c37" fill-opacity="0.9"/><circle cx="381.08" cy="82.3" r="1.5" fill="#176c37" fill-opacity="0.9"/><circle cx="385.16" cy="101.9" r="1.5" fill="#176c37" fill-opacity="0.9"/><circle cx="368.84" cy="158.5" r="1.5" fill="#176c37" fill-opacity="0.9"/><circle cx="372.92" cy="183.0" r="1.5" fill="#176c37" fill-opacity="0.9"/><circle cx="377" cy="180.7" r="1.5" fill="#176c37" fill-opacity="0.9"/><circle cx="381.08" cy="182.0" r="1.5" fill="#176c37" fill-opacity="0.9"/><circle cx="385.16" cy="182.9" r="1.5" fill="#176c37" fill-opacity="0.9"/><circle cx="368.84" cy="183.0" r="1.5" fill="#176c37" fill-opacity="0.9"/><circle cx="372.92" cy="167.2" r="1.5" fill="#176c37" fill-opacity="0.9"/></svg>
