<svg xmlns="http://www.w3.org/2000/svg" width="760" height="460" viewBox="0 0 760 460" role="img" aria-labelledby="title desc">
<title>Gemma 4 31B 4-bit — Prefill throughput</title>
<desc>Grouped box-and-whisker plot comparing AX assistant MTP, AX assistant MTP+n-gram across flappy, long_code, python_modules_long prompt suites.</desc>
<rect width="100%" height="100%" fill="#f8fafc"/>
<text x="24" y="24" font-family="Inter,Segoe UI,Arial,sans-serif" font-size="16" font-weight="700" fill="#111827">Gemma 4 31B 4-bit — Prefill throughput</text>
<text x="24" y="46" font-family="Inter,Segoe UI,Arial,sans-serif" font-size="11" fill="#4b5563">All suites | box=IQR | whiskers=min/max | dots=runs</text>
<text x="24" y="62" font-family="Inter,Segoe UI,Arial,sans-serif" font-size="10" fill="#6b7280">Apple M5 Max · gate 0.90 first / 0.999 deep · GPU exact · T=0.6/top_p=0.95/top_k=20</text>
<rect x="667" y="13" width="59" height="22" rx="11" fill="#eef2ff" stroke="#c7d2fe"/>
<text x="696.5" y="28" text-anchor="middle" font-family="Inter,Segoe UI,Arial,sans-serif" font-size="10" font-weight="700" fill="#3730a3">tok/s</text>
<text x="726" y="52" text-anchor="end" font-family="Inter,Segoe UI,Arial,sans-serif" font-size="10" font-weight="700" fill="#dc2626">Higher is better</text>
<rect x="64" y="86" width="496" height="268" rx="6" fill="#ffffff" stroke="#dbe3ef"/>
<line x1="64" y1="354.0" x2="560" y2="354.0" stroke="#e5e7eb" stroke-width="1"/>
<text x="56" y="357.0" text-anchor="end" font-family="Inter,Segoe UI,Arial,sans-serif" font-size="11" fill="#6b7280">0.0</text>
<line x1="64" y1="287.0" x2="560" y2="287.0" stroke="#e5e7eb" stroke-width="1"/>
<text x="56" y="290.0" text-anchor="end" font-family="Inter,Segoe UI,Arial,sans-serif" font-size="11" fill="#6b7280">250</text>
<line x1="64" y1="220.0" x2="560" y2="220.0" stroke="#e5e7eb" stroke-width="1"/>
<text x="56" y="223.0" text-anchor="end" font-family="Inter,Segoe UI,Arial,sans-serif" font-size="11" fill="#6b7280">500</text>
<line x1="64" y1="153.0" x2="560" y2="153.0" stroke="#e5e7eb" stroke-width="1"/>
<text x="56" y="156.0" text-anchor="end" font-family="Inter,Segoe UI,Arial,sans-serif" font-size="11" fill="#6b7280">750</text>
<line x1="64" y1="86.0" x2="560" y2="86.0" stroke="#e5e7eb" stroke-width="1"/>
<text x="56" y="89.0" text-anchor="end" font-family="Inter,Segoe UI,Arial,sans-serif" font-size="11" fill="#6b7280">1k</text>
<line x1="64" y1="136.1" x2="560" y2="136.1" stroke="#dc2626" stroke-width="1.2" stroke-dasharray="1 4" stroke-linecap="round"/>
<text x="568" y="131.1" text-anchor="start" font-family="Inter,Segoe UI,Arial,sans-serif" font-size="11" font-weight="700" fill="#dc2626" data-label="highest median">highest: 813</text>
<text x="146.7" y="398" text-anchor="middle" font-family="Inter,Segoe UI,Arial,sans-serif" font-size="11" font-weight="700" fill="#111827">flappy</text>
<circle cx="95.8" cy="147.2" r="1.45" fill="#2eaf5f" fill-opacity="0.46"/>
<circle cx="98.8" cy="148.8" r="1.45" fill="#2eaf5f" fill-opacity="0.46"/>
<circle cx="101.9" cy="150.3" r="1.45" fill="#2eaf5f" fill-opacity="0.46"/>
<circle cx="104.9" cy="150.4" r="1.45" fill="#2eaf5f" fill-opacity="0.46"/>
<circle cx="108.0" cy="157.4" r="1.45" fill="#2eaf5f" fill-opacity="0.46"/>
<circle cx="111.1" cy="211.5" r="1.45" fill="#2eaf5f" fill-opacity="0.46"/>
<circle cx="114.1" cy="202.9" r="1.45" fill="#2eaf5f" fill-opacity="0.46"/>
<circle cx="117.2" cy="170.0" r="1.45" fill="#2eaf5f" fill-opacity="0.46"/>
<circle cx="120.2" cy="166.5" r="1.45" fill="#2eaf5f" fill-opacity="0.46"/>
<circle cx="95.8" cy="167.6" r="1.45" fill="#2eaf5f" fill-opacity="0.46"/>
<circle cx="98.8" cy="181.2" r="1.45" fill="#2eaf5f" fill-opacity="0.46"/>
<circle cx="101.9" cy="169.9" r="1.45" fill="#2eaf5f" fill-opacity="0.46"/>
<circle cx="104.9" cy="173.5" r="1.45" fill="#2eaf5f" fill-opacity="0.46"/>
<circle cx="108.0" cy="153.0" r="1.45" fill="#2eaf5f" fill-opacity="0.46"/>
<circle cx="111.1" cy="154.5" r="1.45" fill="#2eaf5f" fill-opacity="0.46"/>
<circle cx="114.1" cy="147.2" r="1.45" fill="#2eaf5f" fill-opacity="0.46"/>
<circle cx="117.2" cy="147.6" r="1.45" fill="#2eaf5f" fill-opacity="0.46"/>
<circle cx="120.2" cy="145.9" r="1.45" fill="#2eaf5f" fill-opacity="0.46"/>
<circle cx="95.8" cy="146.9" r="1.45" fill="#2eaf5f" fill-opacity="0.46"/>
<circle cx="98.8" cy="143.3" r="1.45" fill="#2eaf5f" fill-opacity="0.46"/>
<line x1="108.0" y1="143.3" x2="108.0" y2="211.5" stroke="#2eaf5f" stroke-opacity="0.86" stroke-width="1.8"/>
<line x1="95.8" y1="143.3" x2="120.2" y2="143.3" stroke="#2eaf5f" stroke-opacity="0.86" stroke-width="1.8"/>
<line x1="95.8" y1="211.5" x2="120.2" y2="211.5" stroke="#2eaf5f" stroke-opacity="0.86" stroke-width="1.8"/>
<rect x="91.0" y="147.5" width="34.0" height="22.5" rx="2" fill="#2eaf5f" fill-opacity="0.18" stroke="#2eaf5f" stroke-opacity="0.9" stroke-width="1.8"/>
<line x1="91.0" y1="153.7" x2="125.0" y2="153.7" stroke="#2eaf5f" stroke-opacity="0.96" stroke-width="2.6"/>
<text x="131.0" y="157.7" text-anchor="start" font-family="Inter,Segoe UI,Arial,sans-serif" font-size="11" font-weight="700" fill="#111827" stroke="#ffffff" stroke-width="3" paint-order="stroke">747</text>
<circle cx="173.1" cy="150.9" r="1.45" fill="#137a3d" fill-opacity="0.46"/>
<circle cx="176.2" cy="149.6" r="1.45" fill="#137a3d" fill-opacity="0.46"/>
<circle cx="179.2" cy="151.7" r="1.45" fill="#137a3d" fill-opacity="0.46"/>
<circle cx="182.3" cy="150.6" r="1.45" fill="#137a3d" fill-opacity="0.46"/>
<circle cx="185.3" cy="149.5" r="1.45" fill="#137a3d" fill-opacity="0.46"/>
<circle cx="188.4" cy="161.3" r="1.45" fill="#137a3d" fill-opacity="0.46"/>
<circle cx="191.5" cy="161.9" r="1.45" fill="#137a3d" fill-opacity="0.46"/>
<circle cx="194.5" cy="162.4" r="1.45" fill="#137a3d" fill-opacity="0.46"/>
<circle cx="197.6" cy="162.2" r="1.45" fill="#137a3d" fill-opacity="0.46"/>
<circle cx="173.1" cy="163.6" r="1.45" fill="#137a3d" fill-opacity="0.46"/>
<circle cx="176.2" cy="154.5" r="1.45" fill="#137a3d" fill-opacity="0.46"/>
<circle cx="179.2" cy="161.5" r="1.45" fill="#137a3d" fill-opacity="0.46"/>
<circle cx="182.3" cy="160.2" r="1.45" fill="#137a3d" fill-opacity="0.46"/>
<circle cx="185.3" cy="155.6" r="1.45" fill="#137a3d" fill-opacity="0.46"/>
<circle cx="188.4" cy="155.3" r="1.45" fill="#137a3d" fill-opacity="0.46"/>
<circle cx="191.5" cy="149.2" r="1.45" fill="#137a3d" fill-opacity="0.46"/>
<circle cx="194.5" cy="148.2" r="1.45" fill="#137a3d" fill-opacity="0.46"/>
<circle cx="197.6" cy="149.2" r="1.45" fill="#137a3d" fill-opacity="0.46"/>
<circle cx="173.1" cy="150.9" r="1.45" fill="#137a3d" fill-opacity="0.46"/>
<circle cx="176.2" cy="152.1" r="1.45" fill="#137a3d" fill-opacity="0.46"/>
<line x1="185.3" y1="148.2" x2="185.3" y2="163.6" stroke="#137a3d" stroke-opacity="0.86" stroke-width="1.8"/>
<line x1="173.1" y1="148.2" x2="197.6" y2="148.2" stroke="#137a3d" stroke-opacity="0.86" stroke-width="1.8"/>
<line x1="173.1" y1="163.6" x2="197.6" y2="163.6" stroke="#137a3d" stroke-opacity="0.86" stroke-width="1.8"/>
<rect x="168.3" y="150.4" width="34.0" height="11.0" rx="2" fill="#137a3d" fill-opacity="0.18" stroke="#137a3d" stroke-opacity="0.9" stroke-width="1.8"/>
<line x1="168.3" y1="153.3" x2="202.3" y2="153.3" stroke="#137a3d" stroke-opacity="0.96" stroke-width="2.6"/>
<text x="208.3" y="157.3" text-anchor="start" font-family="Inter,Segoe UI,Arial,sans-serif" font-size="11" font-weight="700" fill="#111827" stroke="#ffffff" stroke-width="3" paint-order="stroke">749</text>
<text x="312.0" y="398" text-anchor="middle" font-family="Inter,Segoe UI,Arial,sans-serif" font-size="11" font-weight="700" fill="#111827">long_code</text>
<circle cx="261.1" cy="136.0" r="1.45" fill="#2eaf5f" fill-opacity="0.46"/>
<circle cx="264.2" cy="137.0" r="1.45" fill="#2eaf5f" fill-opacity="0.46"/>
<circle cx="267.2" cy="136.4" r="1.45" fill="#2eaf5f" fill-opacity="0.46"/>
<circle cx="270.3" cy="135.4" r="1.45" fill="#2eaf5f" fill-opacity="0.46"/>
<circle cx="273.3" cy="132.8" r="1.45" fill="#2eaf5f" fill-opacity="0.46"/>
<circle cx="276.4" cy="139.5" r="1.45" fill="#2eaf5f" fill-opacity="0.46"/>
<circle cx="279.5" cy="139.4" r="1.45" fill="#2eaf5f" fill-opacity="0.46"/>
<circle cx="282.5" cy="139.9" r="1.45" fill="#2eaf5f" fill-opacity="0.46"/>
<circle cx="285.6" cy="139.5" r="1.45" fill="#2eaf5f" fill-opacity="0.46"/>
<circle cx="261.1" cy="139.3" r="1.45" fill="#2eaf5f" fill-opacity="0.46"/>
<circle cx="264.2" cy="127.2" r="1.45" fill="#2eaf5f" fill-opacity="0.46"/>
<circle cx="267.2" cy="126.0" r="1.45" fill="#2eaf5f" fill-opacity="0.46"/>
<circle cx="270.3" cy="126.2" r="1.45" fill="#2eaf5f" fill-opacity="0.46"/>
<circle cx="273.3" cy="125.9" r="1.45" fill="#2eaf5f" fill-opacity="0.46"/>
<circle cx="276.4" cy="126.4" r="1.45" fill="#2eaf5f" fill-opacity="0.46"/>
<circle cx="279.5" cy="153.6" r="1.45" fill="#2eaf5f" fill-opacity="0.46"/>
<circle cx="282.5" cy="153.4" r="1.45" fill="#2eaf5f" fill-opacity="0.46"/>
<circle cx="285.6" cy="153.2" r="1.45" fill="#2eaf5f" fill-opacity="0.46"/>
<circle cx="261.1" cy="153.4" r="1.45" fill="#2eaf5f" fill-opacity="0.46"/>
<circle cx="264.2" cy="153.8" r="1.45" fill="#2eaf5f" fill-opacity="0.46"/>
<line x1="273.3" y1="125.9" x2="273.3" y2="153.8" stroke="#2eaf5f" stroke-opacity="0.86" stroke-width="1.8"/>
<line x1="261.1" y1="125.9" x2="285.6" y2="125.9" stroke="#2eaf5f" stroke-opacity="0.86" stroke-width="1.8"/>
<line x1="261.1" y1="153.8" x2="285.6" y2="153.8" stroke="#2eaf5f" stroke-opacity="0.86" stroke-width="1.8"/>
<rect x="256.3" y="131.4" width="34.0" height="11.8" rx="2" fill="#2eaf5f" fill-opacity="0.18" stroke="#2eaf5f" stroke-opacity="0.9" stroke-width="1.8"/>
<line x1="256.3" y1="138.2" x2="290.3" y2="138.2" stroke="#2eaf5f" stroke-opacity="0.96" stroke-width="2.6"/>
<text x="296.3" y="142.2" text-anchor="start" font-family="Inter,Segoe UI,Arial,sans-serif" font-size="11" font-weight="700" fill="#111827" stroke="#ffffff" stroke-width="3" paint-order="stroke">805</text>
<circle cx="338.4" cy="132.6" r="1.45" fill="#137a3d" fill-opacity="0.46"/>
<circle cx="341.5" cy="132.8" r="1.45" fill="#137a3d" fill-opacity="0.46"/>
<circle cx="344.5" cy="132.7" r="1.45" fill="#137a3d" fill-opacity="0.46"/>
<circle cx="347.6" cy="132.7" r="1.45" fill="#137a3d" fill-opacity="0.46"/>
<circle cx="350.7" cy="132.5" r="1.45" fill="#137a3d" fill-opacity="0.46"/>
<circle cx="353.7" cy="139.5" r="1.45" fill="#137a3d" fill-opacity="0.46"/>
<circle cx="356.8" cy="139.4" r="1.45" fill="#137a3d" fill-opacity="0.46"/>
<circle cx="359.8" cy="142.0" r="1.45" fill="#137a3d" fill-opacity="0.46"/>
<circle cx="362.9" cy="145.3" r="1.45" fill="#137a3d" fill-opacity="0.46"/>
<circle cx="338.4" cy="141.9" r="1.45" fill="#137a3d" fill-opacity="0.46"/>
<circle cx="341.5" cy="128.2" r="1.45" fill="#137a3d" fill-opacity="0.46"/>
<circle cx="344.5" cy="126.3" r="1.45" fill="#137a3d" fill-opacity="0.46"/>
<circle cx="347.6" cy="126.1" r="1.45" fill="#137a3d" fill-opacity="0.46"/>
<circle cx="350.7" cy="125.8" r="1.45" fill="#137a3d" fill-opacity="0.46"/>
<circle cx="353.7" cy="126.0" r="1.45" fill="#137a3d" fill-opacity="0.46"/>
<circle cx="356.8" cy="153.1" r="1.45" fill="#137a3d" fill-opacity="0.46"/>
<circle cx="359.8" cy="153.6" r="1.45" fill="#137a3d" fill-opacity="0.46"/>
<circle cx="362.9" cy="153.3" r="1.45" fill="#137a3d" fill-opacity="0.46"/>
<circle cx="338.4" cy="153.8" r="1.45" fill="#137a3d" fill-opacity="0.46"/>
<circle cx="341.5" cy="153.2" r="1.45" fill="#137a3d" fill-opacity="0.46"/>
<line x1="350.7" y1="125.8" x2="350.7" y2="153.8" stroke="#137a3d" stroke-opacity="0.86" stroke-width="1.8"/>
<line x1="338.4" y1="125.8" x2="362.9" y2="125.8" stroke="#137a3d" stroke-opacity="0.86" stroke-width="1.8"/>
<line x1="338.4" y1="153.8" x2="362.9" y2="153.8" stroke="#137a3d" stroke-opacity="0.86" stroke-width="1.8"/>
<rect x="333.7" y="131.4" width="34.0" height="15.9" rx="2" fill="#137a3d" fill-opacity="0.18" stroke="#137a3d" stroke-opacity="0.9" stroke-width="1.8"/>
<line x1="333.7" y1="136.1" x2="367.7" y2="136.1" stroke="#137a3d" stroke-opacity="0.96" stroke-width="2.6"/>
<text x="373.7" y="140.1" text-anchor="start" font-family="Inter,Segoe UI,Arial,sans-serif" font-size="11" font-weight="700" fill="#111827" stroke="#ffffff" stroke-width="3" paint-order="stroke">813</text>
<text x="477.3" y="398" text-anchor="middle" font-family="Inter,Segoe UI,Arial,sans-serif" font-size="11" font-weight="700" fill="#111827">python_modules_long</text>
<circle cx="426.4" cy="165.6" r="1.45" fill="#2eaf5f" fill-opacity="0.46"/>
<circle cx="429.5" cy="165.1" r="1.45" fill="#2eaf5f" fill-opacity="0.46"/>
<circle cx="432.5" cy="165.3" r="1.45" fill="#2eaf5f" fill-opacity="0.46"/>
<circle cx="435.6" cy="165.1" r="1.45" fill="#2eaf5f" fill-opacity="0.46"/>
<circle cx="438.7" cy="165.5" r="1.45" fill="#2eaf5f" fill-opacity="0.46"/>
<circle cx="441.7" cy="137.6" r="1.45" fill="#2eaf5f" fill-opacity="0.46"/>
<circle cx="444.8" cy="137.3" r="1.45" fill="#2eaf5f" fill-opacity="0.46"/>
<circle cx="447.8" cy="137.5" r="1.45" fill="#2eaf5f" fill-opacity="0.46"/>
<circle cx="450.9" cy="137.9" r="1.45" fill="#2eaf5f" fill-opacity="0.46"/>
<circle cx="426.4" cy="137.5" r="1.45" fill="#2eaf5f" fill-opacity="0.46"/>
<circle cx="429.5" cy="155.3" r="1.45" fill="#2eaf5f" fill-opacity="0.46"/>
<circle cx="432.5" cy="155.8" r="1.45" fill="#2eaf5f" fill-opacity="0.46"/>
<circle cx="435.6" cy="155.5" r="1.45" fill="#2eaf5f" fill-opacity="0.46"/>
<circle cx="438.7" cy="155.1" r="1.45" fill="#2eaf5f" fill-opacity="0.46"/>
<circle cx="441.7" cy="155.3" r="1.45" fill="#2eaf5f" fill-opacity="0.46"/>
<line x1="438.7" y1="137.3" x2="438.7" y2="165.6" stroke="#2eaf5f" stroke-opacity="0.86" stroke-width="1.8"/>
<line x1="426.4" y1="137.3" x2="450.9" y2="137.3" stroke="#2eaf5f" stroke-opacity="0.86" stroke-width="1.8"/>
<line x1="426.4" y1="165.6" x2="450.9" y2="165.6" stroke="#2eaf5f" stroke-opacity="0.86" stroke-width="1.8"/>
<rect x="421.7" y="137.7" width="34.0" height="27.4" rx="2" fill="#2eaf5f" fill-opacity="0.18" stroke="#2eaf5f" stroke-opacity="0.9" stroke-width="1.8"/>
<line x1="421.7" y1="155.3" x2="455.7" y2="155.3" stroke="#2eaf5f" stroke-opacity="0.96" stroke-width="2.6"/>
<text x="461.7" y="159.3" text-anchor="start" font-family="Inter,Segoe UI,Arial,sans-serif" font-size="11" font-weight="700" fill="#111827" stroke="#ffffff" stroke-width="3" paint-order="stroke">741</text>
<circle cx="503.8" cy="165.6" r="1.45" fill="#137a3d" fill-opacity="0.46"/>
<circle cx="506.8" cy="165.4" r="1.45" fill="#137a3d" fill-opacity="0.46"/>
<circle cx="509.9" cy="165.2" r="1.45" fill="#137a3d" fill-opacity="0.46"/>
<circle cx="512.9" cy="165.3" r="1.45" fill="#137a3d" fill-opacity="0.46"/>
<circle cx="516.0" cy="165.3" r="1.45" fill="#137a3d" fill-opacity="0.46"/>
<circle cx="519.1" cy="137.7" r="1.45" fill="#137a3d" fill-opacity="0.46"/>
<circle cx="522.1" cy="138.4" r="1.45" fill="#137a3d" fill-opacity="0.46"/>
<circle cx="525.2" cy="138.7" r="1.45" fill="#137a3d" fill-opacity="0.46"/>
<circle cx="528.2" cy="137.4" r="1.45" fill="#137a3d" fill-opacity="0.46"/>
<circle cx="503.8" cy="137.2" r="1.45" fill="#137a3d" fill-opacity="0.46"/>
<circle cx="506.8" cy="155.0" r="1.45" fill="#137a3d" fill-opacity="0.46"/>
<circle cx="509.9" cy="156.0" r="1.45" fill="#137a3d" fill-opacity="0.46"/>
<circle cx="512.9" cy="155.5" r="1.45" fill="#137a3d" fill-opacity="0.46"/>
<circle cx="516.0" cy="155.0" r="1.45" fill="#137a3d" fill-opacity="0.46"/>
<circle cx="519.1" cy="154.8" r="1.45" fill="#137a3d" fill-opacity="0.46"/>
<line x1="516.0" y1="137.2" x2="516.0" y2="165.6" stroke="#137a3d" stroke-opacity="0.86" stroke-width="1.8"/>
<line x1="503.8" y1="137.2" x2="528.2" y2="137.2" stroke="#137a3d" stroke-opacity="0.86" stroke-width="1.8"/>
<line x1="503.8" y1="165.6" x2="528.2" y2="165.6" stroke="#137a3d" stroke-opacity="0.86" stroke-width="1.8"/>
<rect x="499.0" y="138.5" width="34.0" height="26.7" rx="2" fill="#137a3d" fill-opacity="0.18" stroke="#137a3d" stroke-opacity="0.9" stroke-width="1.8"/>
<line x1="499.0" y1="155.0" x2="533.0" y2="155.0" stroke="#137a3d" stroke-opacity="0.96" stroke-width="2.6"/>
<text x="539.0" y="159.0" text-anchor="start" font-family="Inter,Segoe UI,Arial,sans-serif" font-size="11" font-weight="700" fill="#111827" stroke="#ffffff" stroke-width="3" paint-order="stroke">743</text>
<rect x="64.0" y="433" width="10" height="10" rx="2" fill="#2eaf5f" fill-opacity="0.72"/>
<text x="78.0" y="442" font-family="Inter,Segoe UI,Arial,sans-serif" font-size="10" fill="#374151">AX assistant MTP</text>
<rect x="312.0" y="433" width="10" height="10" rx="2" fill="#137a3d" fill-opacity="0.72"/>
<text x="326.0" y="442" font-family="Inter,Segoe UI,Arial,sans-serif" font-size="10" fill="#374151">AX assistant MTP+n-gram</text>
</svg>
