<svg xmlns="http://www.w3.org/2000/svg" width="900" height="460" viewBox="0 0 900 460" role="img" aria-labelledby="title desc">
<title>Qwen3.6 27B 4-bit MTP prefill throughput</title>
<desc>Grouped box-and-whisker plot comparing MTPLX 0.3.7, Lightning v0.6.10, Lightning+ng v0.6.10, AX Engine v5.1.0, AX+ngram v5.1.0.</desc>
<rect width="100%" height="100%" fill="#f8fafc"/>
<text x="24" y="24" font-family="Inter,Segoe UI,Arial,sans-serif" font-size="16" font-weight="700" fill="#111827">Qwen3.6 27B 4-bit MTP prefill throughput</text>
<text x="24" y="46" font-family="Inter,Segoe UI,Arial,sans-serif" font-size="11" fill="#4b5563">All suites combined | box=IQR | dots=runs | Lightning ~= TTFT-derived</text>
<text x="24" y="62" font-family="Inter,Segoe UI,Arial,sans-serif" font-size="10" fill="#6b7280">MTPLX 0.3.7 · Lightning-MLX 0.6.10 · AX Engine v5.1.0</text>
<rect x="807" y="13" width="59" height="22" rx="11" fill="#eef2ff" stroke="#c7d2fe"/>
<text x="836.5" y="28" text-anchor="middle" font-family="Inter,Segoe UI,Arial,sans-serif" font-size="10" font-weight="700" fill="#3730a3">tok/s</text>
<text x="866" y="52" text-anchor="end" font-family="Inter,Segoe UI,Arial,sans-serif" font-size="10" font-weight="700" fill="#374151">Higher is better</text>
<rect x="64" y="86" width="676" height="268" rx="6" fill="#ffffff" stroke="#dbe3ef"/>
<line x1="64" y1="354.0" x2="740" y2="354.0" stroke="#e5e7eb" stroke-width="1"/>
<text x="56" y="357.0" text-anchor="end" font-family="Inter,Segoe UI,Arial,sans-serif" font-size="11" fill="#6b7280">0.0</text>
<line x1="64" y1="287.0" x2="740" y2="287.0" stroke="#e5e7eb" stroke-width="1"/>
<text x="56" y="290.0" text-anchor="end" font-family="Inter,Segoe UI,Arial,sans-serif" font-size="11" fill="#6b7280">250</text>
<line x1="64" y1="220.0" x2="740" y2="220.0" stroke="#e5e7eb" stroke-width="1"/>
<text x="56" y="223.0" text-anchor="end" font-family="Inter,Segoe UI,Arial,sans-serif" font-size="11" fill="#6b7280">500</text>
<line x1="64" y1="153.0" x2="740" y2="153.0" stroke="#e5e7eb" stroke-width="1"/>
<text x="56" y="156.0" text-anchor="end" font-family="Inter,Segoe UI,Arial,sans-serif" font-size="11" fill="#6b7280">750</text>
<line x1="64" y1="86.0" x2="740" y2="86.0" stroke="#e5e7eb" stroke-width="1"/>
<text x="56" y="89.0" text-anchor="end" font-family="Inter,Segoe UI,Arial,sans-serif" font-size="11" fill="#6b7280">1k</text>
<line x1="64" y1="160.5" x2="740" y2="160.5" stroke="#dc2626" stroke-width="1.2" stroke-dasharray="1 4" stroke-linecap="round"/>
<text x="748" y="155.5" text-anchor="start" font-family="Inter,Segoe UI,Arial,sans-serif" font-size="11" font-weight="700" fill="#dc2626" data-label="highest median">highest: 722</text>
<text x="402.0" y="398" text-anchor="middle" font-family="Inter,Segoe UI,Arial,sans-serif" font-size="11" font-weight="700" fill="#111827">all suites</text>
<circle cx="127.8" cy="175.5" r="1.45" fill="#14532d" fill-opacity="0.46"/>
<circle cx="130.8" cy="182.2" r="1.45" fill="#14532d" fill-opacity="0.46"/>
<circle cx="133.9" cy="180.8" r="1.45" fill="#14532d" fill-opacity="0.46"/>
<circle cx="136.9" cy="179.5" r="1.45" fill="#14532d" fill-opacity="0.46"/>
<circle cx="140.0" cy="180.7" r="1.45" fill="#14532d" fill-opacity="0.46"/>
<circle cx="143.1" cy="151.7" r="1.45" fill="#14532d" fill-opacity="0.46"/>
<circle cx="146.1" cy="156.8" r="1.45" fill="#14532d" fill-opacity="0.46"/>
<circle cx="149.2" cy="144.5" r="1.45" fill="#14532d" fill-opacity="0.46"/>
<circle cx="152.2" cy="155.8" r="1.45" fill="#14532d" fill-opacity="0.46"/>
<circle cx="127.8" cy="156.9" r="1.45" fill="#14532d" fill-opacity="0.46"/>
<circle cx="130.8" cy="147.0" r="1.45" fill="#14532d" fill-opacity="0.46"/>
<circle cx="133.9" cy="152.7" r="1.45" fill="#14532d" fill-opacity="0.46"/>
<circle cx="136.9" cy="151.6" r="1.45" fill="#14532d" fill-opacity="0.46"/>
<circle cx="140.0" cy="149.4" r="1.45" fill="#14532d" fill-opacity="0.46"/>
<circle cx="143.1" cy="147.6" r="1.45" fill="#14532d" fill-opacity="0.46"/>
<circle cx="146.1" cy="190.5" r="1.45" fill="#14532d" fill-opacity="0.46"/>
<circle cx="149.2" cy="190.5" r="1.45" fill="#14532d" fill-opacity="0.46"/>
<circle cx="152.2" cy="191.6" r="1.45" fill="#14532d" fill-opacity="0.46"/>
<circle cx="127.8" cy="194.3" r="1.45" fill="#14532d" fill-opacity="0.46"/>
<circle cx="130.8" cy="192.0" r="1.45" fill="#14532d" fill-opacity="0.46"/>
<circle cx="133.9" cy="138.3" r="1.45" fill="#14532d" fill-opacity="0.46"/>
<circle cx="136.9" cy="141.5" r="1.45" fill="#14532d" fill-opacity="0.46"/>
<circle cx="140.0" cy="140.2" r="1.45" fill="#14532d" fill-opacity="0.46"/>
<circle cx="143.1" cy="140.8" r="1.45" fill="#14532d" fill-opacity="0.46"/>
<circle cx="146.1" cy="138.1" r="1.45" fill="#14532d" fill-opacity="0.46"/>
<circle cx="149.2" cy="133.9" r="1.45" fill="#14532d" fill-opacity="0.46"/>
<circle cx="152.2" cy="133.2" r="1.45" fill="#14532d" fill-opacity="0.46"/>
<circle cx="127.8" cy="131.4" r="1.45" fill="#14532d" fill-opacity="0.46"/>
<circle cx="130.8" cy="132.2" r="1.45" fill="#14532d" fill-opacity="0.46"/>
<circle cx="133.9" cy="137.1" r="1.45" fill="#14532d" fill-opacity="0.46"/>
<circle cx="136.9" cy="142.6" r="1.45" fill="#14532d" fill-opacity="0.46"/>
<circle cx="140.0" cy="141.4" r="1.45" fill="#14532d" fill-opacity="0.46"/>
<circle cx="143.1" cy="139.8" r="1.45" fill="#14532d" fill-opacity="0.46"/>
<circle cx="146.1" cy="142.2" r="1.45" fill="#14532d" fill-opacity="0.46"/>
<circle cx="149.2" cy="141.6" r="1.45" fill="#14532d" fill-opacity="0.46"/>
<circle cx="152.2" cy="156.5" r="1.45" fill="#14532d" fill-opacity="0.46"/>
<circle cx="127.8" cy="159.3" r="1.45" fill="#14532d" fill-opacity="0.46"/>
<circle cx="130.8" cy="160.5" r="1.45" fill="#14532d" fill-opacity="0.46"/>
<circle cx="133.9" cy="161.3" r="1.45" fill="#14532d" fill-opacity="0.46"/>
<circle cx="136.9" cy="161.1" r="1.45" fill="#14532d" fill-opacity="0.46"/>
<circle cx="140.0" cy="179.8" r="1.45" fill="#14532d" fill-opacity="0.46"/>
<circle cx="143.1" cy="180.8" r="1.45" fill="#14532d" fill-opacity="0.46"/>
<circle cx="146.1" cy="181.2" r="1.45" fill="#14532d" fill-opacity="0.46"/>
<circle cx="149.2" cy="180.7" r="1.45" fill="#14532d" fill-opacity="0.46"/>
<circle cx="152.2" cy="181.5" r="1.45" fill="#14532d" fill-opacity="0.46"/>
<circle cx="127.8" cy="170.1" r="1.45" fill="#14532d" fill-opacity="0.46"/>
<circle cx="130.8" cy="168.8" r="1.45" fill="#14532d" fill-opacity="0.46"/>
<circle cx="133.9" cy="170.5" r="1.45" fill="#14532d" fill-opacity="0.46"/>
<circle cx="136.9" cy="167.9" r="1.45" fill="#14532d" fill-opacity="0.46"/>
<circle cx="140.0" cy="168.5" r="1.45" fill="#14532d" fill-opacity="0.46"/>
<circle cx="143.1" cy="170.1" r="1.45" fill="#14532d" fill-opacity="0.46"/>
<circle cx="146.1" cy="169.0" r="1.45" fill="#14532d" fill-opacity="0.46"/>
<circle cx="149.2" cy="168.4" r="1.45" fill="#14532d" fill-opacity="0.46"/>
<circle cx="152.2" cy="165.8" r="1.45" fill="#14532d" fill-opacity="0.46"/>
<circle cx="127.8" cy="169.4" r="1.45" fill="#14532d" fill-opacity="0.46"/>
<line x1="140.0" y1="131.4" x2="140.0" y2="194.3" stroke="#14532d" stroke-opacity="0.82" stroke-width="1.8"/>
<line x1="127.8" y1="131.4" x2="152.2" y2="131.4" stroke="#14532d" stroke-opacity="0.82" stroke-width="1.8"/>
<line x1="127.8" y1="194.3" x2="152.2" y2="194.3" stroke="#14532d" stroke-opacity="0.82" stroke-width="1.8"/>
<rect x="123.0" y="142.4" width="34.0" height="35.1" rx="2" fill="#14532d" fill-opacity="0.18" stroke="#14532d" stroke-opacity="0.82" stroke-width="1.8"/>
<line x1="123.0" y1="160.5" x2="157.0" y2="160.5" stroke="#14532d" stroke-opacity="0.82" stroke-width="2.6"/>
<text x="163.0" y="164.5" text-anchor="start" font-family="Inter,Segoe UI,Arial,sans-serif" font-size="11" font-weight="700" fill="#111827" stroke="#ffffff" stroke-width="3" paint-order="stroke">722</text>
<circle cx="258.8" cy="243.3" r="1.45" fill="#7c3aed" fill-opacity="0.34"/>
<circle cx="261.8" cy="240.7" r="1.45" fill="#7c3aed" fill-opacity="0.34"/>
<circle cx="264.9" cy="241.2" r="1.45" fill="#7c3aed" fill-opacity="0.34"/>
<circle cx="267.9" cy="237.6" r="1.45" fill="#7c3aed" fill-opacity="0.34"/>
<circle cx="271.0" cy="240.6" r="1.45" fill="#7c3aed" fill-opacity="0.34"/>
<circle cx="274.1" cy="214.1" r="1.45" fill="#7c3aed" fill-opacity="0.34"/>
<circle cx="277.1" cy="213.9" r="1.45" fill="#7c3aed" fill-opacity="0.34"/>
<circle cx="280.2" cy="213.8" r="1.45" fill="#7c3aed" fill-opacity="0.34"/>
<circle cx="283.2" cy="213.0" r="1.45" fill="#7c3aed" fill-opacity="0.34"/>
<circle cx="258.8" cy="210.9" r="1.45" fill="#7c3aed" fill-opacity="0.34"/>
<circle cx="261.8" cy="203.7" r="1.45" fill="#7c3aed" fill-opacity="0.34"/>
<circle cx="264.9" cy="205.2" r="1.45" fill="#7c3aed" fill-opacity="0.34"/>
<circle cx="267.9" cy="205.7" r="1.45" fill="#7c3aed" fill-opacity="0.34"/>
<circle cx="271.0" cy="205.3" r="1.45" fill="#7c3aed" fill-opacity="0.34"/>
<circle cx="274.1" cy="203.8" r="1.45" fill="#7c3aed" fill-opacity="0.34"/>
<circle cx="277.1" cy="244.3" r="1.45" fill="#7c3aed" fill-opacity="0.34"/>
<circle cx="280.2" cy="243.7" r="1.45" fill="#7c3aed" fill-opacity="0.34"/>
<circle cx="283.2" cy="243.9" r="1.45" fill="#7c3aed" fill-opacity="0.34"/>
<circle cx="258.8" cy="244.5" r="1.45" fill="#7c3aed" fill-opacity="0.34"/>
<circle cx="261.8" cy="243.5" r="1.45" fill="#7c3aed" fill-opacity="0.34"/>
<circle cx="264.9" cy="176.5" r="1.45" fill="#7c3aed" fill-opacity="0.34"/>
<circle cx="267.9" cy="177.0" r="1.45" fill="#7c3aed" fill-opacity="0.34"/>
<circle cx="271.0" cy="176.0" r="1.45" fill="#7c3aed" fill-opacity="0.34"/>
<circle cx="274.1" cy="176.6" r="1.45" fill="#7c3aed" fill-opacity="0.34"/>
<circle cx="277.1" cy="177.1" r="1.45" fill="#7c3aed" fill-opacity="0.34"/>
<circle cx="280.2" cy="166.1" r="1.45" fill="#7c3aed" fill-opacity="0.34"/>
<circle cx="283.2" cy="164.5" r="1.45" fill="#7c3aed" fill-opacity="0.34"/>
<circle cx="258.8" cy="167.2" r="1.45" fill="#7c3aed" fill-opacity="0.34"/>
<circle cx="261.8" cy="166.8" r="1.45" fill="#7c3aed" fill-opacity="0.34"/>
<circle cx="264.9" cy="166.7" r="1.45" fill="#7c3aed" fill-opacity="0.34"/>
<circle cx="267.9" cy="177.8" r="1.45" fill="#7c3aed" fill-opacity="0.34"/>
<circle cx="271.0" cy="178.2" r="1.45" fill="#7c3aed" fill-opacity="0.34"/>
<circle cx="274.1" cy="178.0" r="1.45" fill="#7c3aed" fill-opacity="0.34"/>
<circle cx="277.1" cy="178.8" r="1.45" fill="#7c3aed" fill-opacity="0.34"/>
<circle cx="280.2" cy="178.2" r="1.45" fill="#7c3aed" fill-opacity="0.34"/>
<circle cx="283.2" cy="210.4" r="1.45" fill="#7c3aed" fill-opacity="0.34"/>
<circle cx="258.8" cy="207.7" r="1.45" fill="#7c3aed" fill-opacity="0.34"/>
<circle cx="261.8" cy="208.8" r="1.45" fill="#7c3aed" fill-opacity="0.34"/>
<circle cx="264.9" cy="206.9" r="1.45" fill="#7c3aed" fill-opacity="0.34"/>
<circle cx="267.9" cy="206.0" r="1.45" fill="#7c3aed" fill-opacity="0.34"/>
<circle cx="271.0" cy="238.8" r="1.45" fill="#7c3aed" fill-opacity="0.34"/>
<circle cx="274.1" cy="235.5" r="1.45" fill="#7c3aed" fill-opacity="0.34"/>
<circle cx="277.1" cy="237.9" r="1.45" fill="#7c3aed" fill-opacity="0.34"/>
<circle cx="280.2" cy="238.2" r="1.45" fill="#7c3aed" fill-opacity="0.34"/>
<circle cx="283.2" cy="237.0" r="1.45" fill="#7c3aed" fill-opacity="0.34"/>
<circle cx="258.8" cy="224.2" r="1.45" fill="#7c3aed" fill-opacity="0.34"/>
<circle cx="261.8" cy="224.8" r="1.45" fill="#7c3aed" fill-opacity="0.34"/>
<circle cx="264.9" cy="224.7" r="1.45" fill="#7c3aed" fill-opacity="0.34"/>
<circle cx="267.9" cy="224.4" r="1.45" fill="#7c3aed" fill-opacity="0.34"/>
<circle cx="271.0" cy="224.6" r="1.45" fill="#7c3aed" fill-opacity="0.34"/>
<circle cx="274.1" cy="223.4" r="1.45" fill="#7c3aed" fill-opacity="0.34"/>
<circle cx="277.1" cy="223.3" r="1.45" fill="#7c3aed" fill-opacity="0.34"/>
<circle cx="280.2" cy="224.4" r="1.45" fill="#7c3aed" fill-opacity="0.34"/>
<circle cx="283.2" cy="224.0" r="1.45" fill="#7c3aed" fill-opacity="0.34"/>
<circle cx="258.8" cy="222.9" r="1.45" fill="#7c3aed" fill-opacity="0.34"/>
<line x1="271.0" y1="164.5" x2="271.0" y2="244.5" stroke="#7c3aed" stroke-opacity="0.55" stroke-width="1.8"/>
<line x1="258.8" y1="164.5" x2="283.2" y2="164.5" stroke="#7c3aed" stroke-opacity="0.55" stroke-width="1.8"/>
<line x1="258.8" y1="244.5" x2="283.2" y2="244.5" stroke="#7c3aed" stroke-opacity="0.55" stroke-width="1.8"/>
<rect x="254.0" y="178.5" width="34.0" height="57.7" rx="2" fill="#7c3aed" fill-opacity="0.12" stroke="#7c3aed" stroke-opacity="0.55" stroke-width="1.8"/>
<line x1="254.0" y1="213.8" x2="288.0" y2="213.8" stroke="#7c3aed" stroke-opacity="0.55" stroke-width="2.6"/>
<text x="294.0" y="217.8" text-anchor="start" font-family="Inter,Segoe UI,Arial,sans-serif" font-size="11" font-weight="700" fill="#111827" stroke="#ffffff" stroke-width="3" paint-order="stroke">523</text>
<circle cx="389.8" cy="242.2" r="1.45" fill="#1e3a8a" fill-opacity="0.34"/>
<circle cx="392.8" cy="241.8" r="1.45" fill="#1e3a8a" fill-opacity="0.34"/>
<circle cx="395.9" cy="241.4" r="1.45" fill="#1e3a8a" fill-opacity="0.34"/>
<circle cx="398.9" cy="242.4" r="1.45" fill="#1e3a8a" fill-opacity="0.34"/>
<circle cx="402.0" cy="241.0" r="1.45" fill="#1e3a8a" fill-opacity="0.34"/>
<circle cx="405.1" cy="216.6" r="1.45" fill="#1e3a8a" fill-opacity="0.34"/>
<circle cx="408.1" cy="215.8" r="1.45" fill="#1e3a8a" fill-opacity="0.34"/>
<circle cx="411.2" cy="216.3" r="1.45" fill="#1e3a8a" fill-opacity="0.34"/>
<circle cx="414.2" cy="216.3" r="1.45" fill="#1e3a8a" fill-opacity="0.34"/>
<circle cx="389.8" cy="215.3" r="1.45" fill="#1e3a8a" fill-opacity="0.34"/>
<circle cx="392.8" cy="206.5" r="1.45" fill="#1e3a8a" fill-opacity="0.34"/>
<circle cx="395.9" cy="206.8" r="1.45" fill="#1e3a8a" fill-opacity="0.34"/>
<circle cx="398.9" cy="205.7" r="1.45" fill="#1e3a8a" fill-opacity="0.34"/>
<circle cx="402.0" cy="202.4" r="1.45" fill="#1e3a8a" fill-opacity="0.34"/>
<circle cx="405.1" cy="207.2" r="1.45" fill="#1e3a8a" fill-opacity="0.34"/>
<circle cx="408.1" cy="242.6" r="1.45" fill="#1e3a8a" fill-opacity="0.34"/>
<circle cx="411.2" cy="243.3" r="1.45" fill="#1e3a8a" fill-opacity="0.34"/>
<circle cx="414.2" cy="245.2" r="1.45" fill="#1e3a8a" fill-opacity="0.34"/>
<circle cx="389.8" cy="244.8" r="1.45" fill="#1e3a8a" fill-opacity="0.34"/>
<circle cx="392.8" cy="245.9" r="1.45" fill="#1e3a8a" fill-opacity="0.34"/>
<circle cx="395.9" cy="176.4" r="1.45" fill="#1e3a8a" fill-opacity="0.34"/>
<circle cx="398.9" cy="177.1" r="1.45" fill="#1e3a8a" fill-opacity="0.34"/>
<circle cx="402.0" cy="178.2" r="1.45" fill="#1e3a8a" fill-opacity="0.34"/>
<circle cx="405.1" cy="177.5" r="1.45" fill="#1e3a8a" fill-opacity="0.34"/>
<circle cx="408.1" cy="177.1" r="1.45" fill="#1e3a8a" fill-opacity="0.34"/>
<circle cx="411.2" cy="167.9" r="1.45" fill="#1e3a8a" fill-opacity="0.34"/>
<circle cx="414.2" cy="167.4" r="1.45" fill="#1e3a8a" fill-opacity="0.34"/>
<circle cx="389.8" cy="167.4" r="1.45" fill="#1e3a8a" fill-opacity="0.34"/>
<circle cx="392.8" cy="167.7" r="1.45" fill="#1e3a8a" fill-opacity="0.34"/>
<circle cx="395.9" cy="167.4" r="1.45" fill="#1e3a8a" fill-opacity="0.34"/>
<circle cx="398.9" cy="178.8" r="1.45" fill="#1e3a8a" fill-opacity="0.34"/>
<circle cx="402.0" cy="179.3" r="1.45" fill="#1e3a8a" fill-opacity="0.34"/>
<circle cx="405.1" cy="178.5" r="1.45" fill="#1e3a8a" fill-opacity="0.34"/>
<circle cx="408.1" cy="177.7" r="1.45" fill="#1e3a8a" fill-opacity="0.34"/>
<circle cx="411.2" cy="179.0" r="1.45" fill="#1e3a8a" fill-opacity="0.34"/>
<circle cx="414.2" cy="209.3" r="1.45" fill="#1e3a8a" fill-opacity="0.34"/>
<circle cx="389.8" cy="209.5" r="1.45" fill="#1e3a8a" fill-opacity="0.34"/>
<circle cx="392.8" cy="209.5" r="1.45" fill="#1e3a8a" fill-opacity="0.34"/>
<circle cx="395.9" cy="208.5" r="1.45" fill="#1e3a8a" fill-opacity="0.34"/>
<circle cx="398.9" cy="209.3" r="1.45" fill="#1e3a8a" fill-opacity="0.34"/>
<circle cx="402.0" cy="239.2" r="1.45" fill="#1e3a8a" fill-opacity="0.34"/>
<circle cx="405.1" cy="239.3" r="1.45" fill="#1e3a8a" fill-opacity="0.34"/>
<circle cx="408.1" cy="239.0" r="1.45" fill="#1e3a8a" fill-opacity="0.34"/>
<circle cx="411.2" cy="239.0" r="1.45" fill="#1e3a8a" fill-opacity="0.34"/>
<circle cx="414.2" cy="240.0" r="1.45" fill="#1e3a8a" fill-opacity="0.34"/>
<circle cx="389.8" cy="225.9" r="1.45" fill="#1e3a8a" fill-opacity="0.34"/>
<circle cx="392.8" cy="223.8" r="1.45" fill="#1e3a8a" fill-opacity="0.34"/>
<circle cx="395.9" cy="225.0" r="1.45" fill="#1e3a8a" fill-opacity="0.34"/>
<circle cx="398.9" cy="224.5" r="1.45" fill="#1e3a8a" fill-opacity="0.34"/>
<circle cx="402.0" cy="225.8" r="1.45" fill="#1e3a8a" fill-opacity="0.34"/>
<circle cx="405.1" cy="226.4" r="1.45" fill="#1e3a8a" fill-opacity="0.34"/>
<circle cx="408.1" cy="225.4" r="1.45" fill="#1e3a8a" fill-opacity="0.34"/>
<circle cx="411.2" cy="226.7" r="1.45" fill="#1e3a8a" fill-opacity="0.34"/>
<circle cx="414.2" cy="226.1" r="1.45" fill="#1e3a8a" fill-opacity="0.34"/>
<circle cx="389.8" cy="225.8" r="1.45" fill="#1e3a8a" fill-opacity="0.34"/>
<line x1="402.0" y1="167.4" x2="402.0" y2="245.9" stroke="#1e3a8a" stroke-opacity="0.55" stroke-width="1.8"/>
<line x1="389.8" y1="167.4" x2="414.2" y2="167.4" stroke="#1e3a8a" stroke-opacity="0.55" stroke-width="1.8"/>
<line x1="389.8" y1="245.9" x2="414.2" y2="245.9" stroke="#1e3a8a" stroke-opacity="0.55" stroke-width="1.8"/>
<rect x="385.0" y="179.1" width="34.0" height="59.9" rx="2" fill="#1e3a8a" fill-opacity="0.12" stroke="#1e3a8a" stroke-opacity="0.55" stroke-width="1.8"/>
<line x1="385.0" y1="216.3" x2="419.0" y2="216.3" stroke="#1e3a8a" stroke-opacity="0.55" stroke-width="2.6"/>
<text x="425.0" y="220.3" text-anchor="start" font-family="Inter,Segoe UI,Arial,sans-serif" font-size="11" font-weight="700" fill="#111827" stroke="#ffffff" stroke-width="3" paint-order="stroke">514</text>
<circle cx="520.8" cy="189.4" r="1.45" fill="#f97316" fill-opacity="0.46"/>
<circle cx="523.8" cy="160.3" r="1.45" fill="#f97316" fill-opacity="0.46"/>
<circle cx="526.9" cy="155.2" r="1.45" fill="#f97316" fill-opacity="0.46"/>
<circle cx="529.9" cy="193.7" r="1.45" fill="#f97316" fill-opacity="0.46"/>
<circle cx="533.0" cy="146.7" r="1.45" fill="#f97316" fill-opacity="0.46"/>
<circle cx="536.1" cy="138.0" r="1.45" fill="#f97316" fill-opacity="0.46"/>
<circle cx="539.1" cy="145.6" r="1.45" fill="#f97316" fill-opacity="0.46"/>
<circle cx="542.2" cy="165.7" r="1.45" fill="#f97316" fill-opacity="0.46"/>
<circle cx="545.2" cy="184.4" r="1.45" fill="#f97316" fill-opacity="0.46"/>
<circle cx="520.8" cy="172.4" r="1.45" fill="#f97316" fill-opacity="0.46"/>
<circle cx="523.8" cy="172.4" r="1.45" fill="#f97316" fill-opacity="0.46"/>
<line x1="533.0" y1="138.0" x2="533.0" y2="193.7" stroke="#f97316" stroke-opacity="0.82" stroke-width="1.8"/>
<line x1="520.8" y1="138.0" x2="545.2" y2="138.0" stroke="#f97316" stroke-opacity="0.82" stroke-width="1.8"/>
<line x1="520.8" y1="193.7" x2="545.2" y2="193.7" stroke="#f97316" stroke-opacity="0.82" stroke-width="1.8"/>
<rect x="516.0" y="151.0" width="34.0" height="27.5" rx="2" fill="#f97316" fill-opacity="0.18" stroke="#f97316" stroke-opacity="0.82" stroke-width="1.8"/>
<line x1="516.0" y1="165.7" x2="550.0" y2="165.7" stroke="#f97316" stroke-opacity="0.82" stroke-width="2.6"/>
<text x="556.0" y="169.7" text-anchor="start" font-family="Inter,Segoe UI,Arial,sans-serif" font-size="11" font-weight="700" fill="#111827" stroke="#ffffff" stroke-width="3" paint-order="stroke">703</text>
<circle cx="651.8" cy="189.6" r="1.45" fill="#eab308" fill-opacity="0.46"/>
<circle cx="654.8" cy="160.7" r="1.45" fill="#eab308" fill-opacity="0.46"/>
<circle cx="657.9" cy="154.9" r="1.45" fill="#eab308" fill-opacity="0.46"/>
<circle cx="660.9" cy="193.2" r="1.45" fill="#eab308" fill-opacity="0.46"/>
<circle cx="664.0" cy="144.3" r="1.45" fill="#eab308" fill-opacity="0.46"/>
<circle cx="667.1" cy="137.1" r="1.45" fill="#eab308" fill-opacity="0.46"/>
<circle cx="670.1" cy="145.4" r="1.45" fill="#eab308" fill-opacity="0.46"/>
<circle cx="673.2" cy="165.5" r="1.45" fill="#eab308" fill-opacity="0.46"/>
<circle cx="676.2" cy="184.1" r="1.45" fill="#eab308" fill-opacity="0.46"/>
<circle cx="651.8" cy="172.3" r="1.45" fill="#eab308" fill-opacity="0.46"/>
<circle cx="654.8" cy="172.3" r="1.45" fill="#eab308" fill-opacity="0.46"/>
<line x1="664.0" y1="137.1" x2="664.0" y2="193.2" stroke="#eab308" stroke-opacity="0.82" stroke-width="1.8"/>
<line x1="651.8" y1="137.1" x2="676.2" y2="137.1" stroke="#eab308" stroke-opacity="0.82" stroke-width="1.8"/>
<line x1="651.8" y1="193.2" x2="676.2" y2="193.2" stroke="#eab308" stroke-opacity="0.82" stroke-width="1.8"/>
<rect x="647.0" y="150.2" width="34.0" height="28.0" rx="2" fill="#eab308" fill-opacity="0.18" stroke="#eab308" stroke-opacity="0.82" stroke-width="1.8"/>
<line x1="647.0" y1="165.5" x2="681.0" y2="165.5" stroke="#eab308" stroke-opacity="0.82" stroke-width="2.6"/>
<text x="687.0" y="169.5" text-anchor="start" font-family="Inter,Segoe UI,Arial,sans-serif" font-size="11" font-weight="700" fill="#111827" stroke="#ffffff" stroke-width="3" paint-order="stroke">704</text>
<rect x="64" y="433" width="10" height="10" rx="2" fill="#14532d" fill-opacity="0.86"/>
<text x="78" y="442" font-family="Inter,Segoe UI,Arial,sans-serif" font-size="10" fill="#374151">MTPLX 0.3.7</text>
<rect x="199.2" y="433" width="10" height="10" rx="2" fill="#7c3aed" fill-opacity="0.60"/>
<text x="213.2" y="442" font-family="Inter,Segoe UI,Arial,sans-serif" font-size="10" fill="#374151">Lightning v0.6.10</text>
<rect x="334.4" y="433" width="10" height="10" rx="2" fill="#1e3a8a" fill-opacity="0.60"/>
<text x="348.4" y="442" font-family="Inter,Segoe UI,Arial,sans-serif" font-size="10" fill="#374151">Lightning+ng v0.6.10</text>
<rect x="469.59999999999997" y="433" width="10" height="10" rx="2" fill="#f97316" fill-opacity="0.86"/>
<text x="483.59999999999997" y="442" font-family="Inter,Segoe UI,Arial,sans-serif" font-size="10" fill="#374151">AX Engine v5.1.0</text>
<rect x="604.8" y="433" width="10" height="10" rx="2" fill="#eab308" fill-opacity="0.86"/>
<text x="618.8" y="442" font-family="Inter,Segoe UI,Arial,sans-serif" font-size="10" fill="#374151">AX+ngram v5.1.0</text>
</svg>
