<svg xmlns="http://www.w3.org/2000/svg" width="460" height="276" viewBox="0 0 460 276" role="img" aria-labelledby="title desc"><title>Prefill rate</title><desc>Box-and-Whisker Plot comparing mlx_lm, mlx_swift_lm, ax_engine, and ax_engine plus n-gram across 28 README benchmark rows. A red dotted horizontal line marks the ax_engine plus n-gram median.</desc><rect width="460" height="276" fill="#ffffff"/><text x="52" y="22" font-family="Inter,Segoe UI,Arial,sans-serif" font-size="16" font-weight="700" fill="#111827">Prefill rate</text><text x="442" y="22" text-anchor="end" font-family="Inter,Segoe UI,Arial,sans-serif" font-size="10" fill="#6b7280">tok/s</text><text x="442" y="40" text-anchor="end" font-family="Inter,Segoe UI,Arial,sans-serif" font-size="10" font-weight="700" fill="#374151">Higher is better</text><line x1="52" y1="206.0" x2="442" y2="206.0" stroke="#e5e7eb" stroke-width="1"/><text x="44" y="209.0" text-anchor="end" font-family="Inter,Segoe UI,Arial,sans-serif" font-size="10" fill="#6b7280">0</text><line x1="52" y1="126.0" x2="442" y2="126.0" stroke="#e5e7eb" stroke-width="1"/><text x="44" y="129.0" text-anchor="end" font-family="Inter,Segoe UI,Arial,sans-serif" font-size="10" fill="#6b7280">4.5k</text><line x1="52" y1="46.0" x2="442" y2="46.0" stroke="#e5e7eb" stroke-width="1"/><text x="44" y="49.0" text-anchor="end" font-family="Inter,Segoe UI,Arial,sans-serif" font-size="10" fill="#6b7280">9k</text><line x1="52" y1="158.5" x2="442" y2="158.5" stroke="#dc2626" stroke-width="1.2" stroke-dasharray="2 4"/><rect x="270" y="50" width="165" height="160" fill="none" stroke="#dc2626" stroke-width="1.4"/><line x1="98.8" y1="57.0" x2="98.8" y2="200.6" stroke="#f2b705" stroke-width="2"/><line x1="88.8" y1="57.0" x2="108.8" y2="57.0" stroke="#f2b705" stroke-width="2"/><line x1="88.8" y1="200.6" x2="108.8" y2="200.6" stroke="#f2b705" stroke-width="2"/><rect x="77.8" y="163.6" width="42" height="31.3" rx="4" fill="#f2b705" fill-opacity="0.18" stroke="#f2b705" stroke-width="2"/><line x1="77.8" y1="177.5" x2="119.8" y2="177.5" stroke="#f2b705" stroke-width="3"/><text x="98.8" y="230" text-anchor="middle" font-family="Inter,Segoe UI,Arial,sans-serif" font-size="9" fill="#111827">mlx_lm</text><text x="98.8" y="246" text-anchor="middle" font-family="Inter,Segoe UI,Arial,sans-serif" font-size="10" fill="#6b7280">med 1.6k</text><circle cx="90.3" cy="159.5" r="2" fill="#9a6a00" fill-opacity="0.9"/><circle cx="93.8" cy="57.0" r="2" fill="#9a6a00" fill-opacity="0.9"/><circle cx="96.8" cy="157.8" r="2" fill="#9a6a00" fill-opacity="0.9"/><circle cx="100.3" cy="68.4" r="2" fill="#9a6a00" fill-opacity="0.9"/><circle cx="103.8" cy="165.0" r="2" fill="#9a6a00" fill-opacity="0.9"/><circle cx="107.3" cy="65.9" r="2" fill="#9a6a00" fill-opacity="0.9"/><circle cx="92.3" cy="167.1" r="2" fill="#9a6a00" fill-opacity="0.9"/><circle cx="102.3" cy="78.3" r="2" fill="#9a6a00" fill-opacity="0.9"/><circle cx="90.3" cy="175.0" r="2" fill="#9a6a00" fill-opacity="0.9"/><circle cx="93.8" cy="124.8" r="2" fill="#9a6a00" fill-opacity="0.9"/><circle cx="96.8" cy="192.9" r="2" fill="#9a6a00" fill-opacity="0.9"/><circle cx="100.3" cy="168.3" r="2" fill="#9a6a00" fill-opacity="0.9"/><circle cx="103.8" cy="199.5" r="2" fill="#9a6a00" fill-opacity="0.9"/><circle cx="107.3" cy="194.6" r="2" fill="#9a6a00" fill-opacity="0.9"/><circle cx="92.3" cy="188.8" r="2" fill="#9a6a00" fill-opacity="0.9"/><circle cx="102.3" cy="174.2" r="2" fill="#9a6a00" fill-opacity="0.9"/><circle cx="90.3" cy="195.8" r="2" fill="#9a6a00" fill-opacity="0.9"/><circle cx="93.8" cy="176.1" r="2" fill="#9a6a00" fill-opacity="0.9"/><circle cx="96.8" cy="197.1" r="2" fill="#9a6a00" fill-opacity="0.9"/><circle cx="100.3" cy="178.1" r="2" fill="#9a6a00" fill-opacity="0.9"/><circle cx="103.8" cy="198.0" r="2" fill="#9a6a00" fill-opacity="0.9"/><circle cx="107.3" cy="180.1" r="2" fill="#9a6a00" fill-opacity="0.9"/><circle cx="92.3" cy="198.6" r="2" fill="#9a6a00" fill-opacity="0.9"/><circle cx="102.3" cy="182.8" r="2" fill="#9a6a00" fill-opacity="0.9"/><circle cx="90.3" cy="200.6" r="2" fill="#9a6a00" fill-opacity="0.9"/><circle cx="93.8" cy="189.6" r="2" fill="#9a6a00" fill-opacity="0.9"/><circle cx="96.8" cy="196.8" r="2" fill="#9a6a00" fill-opacity="0.9"/><circle cx="100.3" cy="176.9" r="2" fill="#9a6a00" fill-opacity="0.9"/><line x1="200.2" y1="81.0" x2="200.2" y2="197.6" stroke="#4062bb" stroke-width="2"/><line x1="190.2" y1="81.0" x2="210.2" y2="81.0" stroke="#4062bb" stroke-width="2"/><line x1="190.2" y1="197.6" x2="210.2" y2="197.6" stroke="#4062bb" stroke-width="2"/><rect x="179.2" y="159.9" width="42" height="27.9" rx="4" fill="#4062bb" fill-opacity="0.18" stroke="#4062bb" stroke-width="2"/><line x1="179.2" y1="163.3" x2="221.2" y2="163.3" stroke="#4062bb" stroke-width="3"/><text x="200.2" y="230" text-anchor="middle" font-family="Inter,Segoe UI,Arial,sans-serif" font-size="9" fill="#111827">mlx_swift_lm</text><text x="200.2" y="246" text-anchor="middle" font-family="Inter,Segoe UI,Arial,sans-serif" font-size="10" fill="#6b7280">med 2.4k</text><circle cx="191.7" cy="159.6" r="2" fill="#243b87" fill-opacity="0.9"/><circle cx="195.2" cy="85.7" r="2" fill="#243b87" fill-opacity="0.9"/><circle cx="198.2" cy="162.8" r="2" fill="#243b87" fill-opacity="0.9"/><circle cx="201.7" cy="81.0" r="2" fill="#243b87" fill-opacity="0.9"/><circle cx="205.2" cy="163.3" r="2" fill="#243b87" fill-opacity="0.9"/><circle cx="208.7" cy="87.9" r="2" fill="#243b87" fill-opacity="0.9"/><circle cx="193.7" cy="163.1" r="2" fill="#243b87" fill-opacity="0.9"/><circle cx="203.7" cy="98.6" r="2" fill="#243b87" fill-opacity="0.9"/><circle cx="191.7" cy="171.2" r="2" fill="#243b87" fill-opacity="0.9"/><circle cx="195.2" cy="130.5" r="2" fill="#243b87" fill-opacity="0.9"/><circle cx="198.2" cy="183.6" r="2" fill="#243b87" fill-opacity="0.9"/><circle cx="201.7" cy="153.9" r="2" fill="#243b87" fill-opacity="0.9"/><circle cx="205.2" cy="194.5" r="2" fill="#243b87" fill-opacity="0.9"/><circle cx="208.7" cy="191.6" r="2" fill="#243b87" fill-opacity="0.9"/><circle cx="193.7" cy="174.1" r="2" fill="#243b87" fill-opacity="0.9"/><circle cx="203.7" cy="163.3" r="2" fill="#243b87" fill-opacity="0.9"/><circle cx="191.7" cy="187.6" r="2" fill="#243b87" fill-opacity="0.9"/><circle cx="195.2" cy="160.0" r="2" fill="#243b87" fill-opacity="0.9"/><circle cx="198.2" cy="189.8" r="2" fill="#243b87" fill-opacity="0.9"/><circle cx="201.7" cy="162.3" r="2" fill="#243b87" fill-opacity="0.9"/><circle cx="205.2" cy="191.8" r="2" fill="#243b87" fill-opacity="0.9"/><circle cx="208.7" cy="162.8" r="2" fill="#243b87" fill-opacity="0.9"/><circle cx="193.7" cy="194.4" r="2" fill="#243b87" fill-opacity="0.9"/><circle cx="203.7" cy="163.6" r="2" fill="#243b87" fill-opacity="0.9"/><circle cx="191.7" cy="197.6" r="2" fill="#243b87" fill-opacity="0.9"/><circle cx="195.2" cy="176.5" r="2" fill="#243b87" fill-opacity="0.9"/><circle cx="198.2" cy="188.7" r="2" fill="#243b87" fill-opacity="0.9"/><circle cx="201.7" cy="161.1" r="2" fill="#243b87" fill-opacity="0.9"/><line x1="301.6" y1="66.4" x2="301.6" y2="196.8" stroke="#2eaf5f" stroke-width="2"/><line x1="291.6" y1="66.4" x2="311.6" y2="66.4" stroke="#2eaf5f" stroke-width="2"/><line x1="291.6" y1="196.8" x2="311.6" y2="196.8" stroke="#2eaf5f" stroke-width="2"/><rect x="280.6" y="147.1" width="42" height="40.5" rx="4" fill="#2eaf5f" fill-opacity="0.18" stroke="#2eaf5f" stroke-width="2"/><line x1="280.6" y1="162.0" x2="322.6" y2="162.0" stroke="#2eaf5f" stroke-width="3"/><text x="301.6" y="230" text-anchor="middle" font-family="Inter,Segoe UI,Arial,sans-serif" font-size="9" fill="#111827">ax_engine</text><text x="301.6" y="246" text-anchor="middle" font-family="Inter,Segoe UI,Arial,sans-serif" font-size="10" fill="#6b7280">med 2.5k</text><circle cx="293.1" cy="145.7" r="2" fill="#176c37" fill-opacity="0.9"/><circle cx="296.6" cy="66.4" r="2" fill="#176c37" fill-opacity="0.9"/><circle cx="299.6" cy="146.5" r="2" fill="#176c37" fill-opacity="0.9"/><circle cx="303.1" cy="71.1" r="2" fill="#176c37" fill-opacity="0.9"/><circle cx="306.6" cy="147.2" r="2" fill="#176c37" fill-opacity="0.9"/><circle cx="310.1" cy="72.1" r="2" fill="#176c37" fill-opacity="0.9"/><circle cx="295.1" cy="147.7" r="2" fill="#176c37" fill-opacity="0.9"/><circle cx="305.1" cy="73.1" r="2" fill="#176c37" fill-opacity="0.9"/><circle cx="293.1" cy="160.5" r="2" fill="#176c37" fill-opacity="0.9"/><circle cx="296.6" cy="136.0" r="2" fill="#176c37" fill-opacity="0.9"/><circle cx="299.6" cy="184.6" r="2" fill="#176c37" fill-opacity="0.9"/><circle cx="303.1" cy="156.3" r="2" fill="#176c37" fill-opacity="0.9"/><circle cx="306.6" cy="196.8" r="2" fill="#176c37" fill-opacity="0.9"/><circle cx="310.1" cy="194.0" r="2" fill="#176c37" fill-opacity="0.9"/><circle cx="295.1" cy="172.6" r="2" fill="#176c37" fill-opacity="0.9"/><circle cx="305.1" cy="154.2" r="2" fill="#176c37" fill-opacity="0.9"/><circle cx="293.1" cy="187.5" r="2" fill="#176c37" fill-opacity="0.9"/><circle cx="296.6" cy="162.2" r="2" fill="#176c37" fill-opacity="0.9"/><circle cx="299.6" cy="187.9" r="2" fill="#176c37" fill-opacity="0.9"/><circle cx="303.1" cy="159.5" r="2" fill="#176c37" fill-opacity="0.9"/><circle cx="306.6" cy="188.8" r="2" fill="#176c37" fill-opacity="0.9"/><circle cx="310.1" cy="161.9" r="2" fill="#176c37" fill-opacity="0.9"/><circle cx="295.1" cy="188.7" r="2" fill="#176c37" fill-opacity="0.9"/><circle cx="305.1" cy="162.3" r="2" fill="#176c37" fill-opacity="0.9"/><circle cx="293.1" cy="191.3" r="2" fill="#176c37" fill-opacity="0.9"/><circle cx="296.6" cy="174.5" r="2" fill="#176c37" fill-opacity="0.9"/><circle cx="299.6" cy="190.6" r="2" fill="#176c37" fill-opacity="0.9"/><circle cx="303.1" cy="163.8" r="2" fill="#176c37" fill-opacity="0.9"/><line x1="403" y1="53.7" x2="403" y2="194.4" stroke="#137a3d" stroke-width="2"/><line x1="393" y1="53.7" x2="413" y2="53.7" stroke="#137a3d" stroke-width="2"/><line x1="393" y1="194.4" x2="413" y2="194.4" stroke="#137a3d" stroke-width="2"/><rect x="382" y="138.1" width="42" height="48.8" rx="4" fill="#137a3d" fill-opacity="0.18" stroke="#137a3d" stroke-width="2"/><line x1="382" y1="158.5" x2="424" y2="158.5" stroke="#137a3d" stroke-width="3"/><text x="403" y="230" text-anchor="middle" font-family="Inter,Segoe UI,Arial,sans-serif" font-size="9" fill="#111827">ax_engine + n-gram</text><text x="403" y="246" text-anchor="middle" font-family="Inter,Segoe UI,Arial,sans-serif" font-size="10" fill="#6b7280">med 2.7k</text><circle cx="394.5" cy="136.1" r="2" fill="#0b4f28" fill-opacity="0.9"/><circle cx="398" cy="53.7" r="2" fill="#0b4f28" fill-opacity="0.9"/><circle cx="401" cy="137.0" r="2" fill="#0b4f28" fill-opacity="0.9"/><circle cx="404.5" cy="59.1" r="2" fill="#0b4f28" fill-opacity="0.9"/><circle cx="408" cy="138.6" r="2" fill="#0b4f28" fill-opacity="0.9"/><circle cx="411.5" cy="61.5" r="2" fill="#0b4f28" fill-opacity="0.9"/><circle cx="396.5" cy="138.5" r="2" fill="#0b4f28" fill-opacity="0.9"/><circle cx="406.5" cy="59.7" r="2" fill="#0b4f28" fill-opacity="0.9"/><circle cx="394.5" cy="154.4" r="2" fill="#0b4f28" fill-opacity="0.9"/><circle cx="398" cy="124.3" r="2" fill="#0b4f28" fill-opacity="0.9"/><circle cx="401" cy="182.6" r="2" fill="#0b4f28" fill-opacity="0.9"/><circle cx="404.5" cy="150.0" r="2" fill="#0b4f28" fill-opacity="0.9"/><circle cx="408" cy="194.4" r="2" fill="#0b4f28" fill-opacity="0.9"/><circle cx="411.5" cy="193.3" r="2" fill="#0b4f28" fill-opacity="0.9"/><circle cx="396.5" cy="168.5" r="2" fill="#0b4f28" fill-opacity="0.9"/><circle cx="406.5" cy="152.2" r="2" fill="#0b4f28" fill-opacity="0.9"/><circle cx="394.5" cy="187.1" r="2" fill="#0b4f28" fill-opacity="0.9"/><circle cx="398" cy="156.1" r="2" fill="#0b4f28" fill-opacity="0.9"/><circle cx="401" cy="186.8" r="2" fill="#0b4f28" fill-opacity="0.9"/><circle cx="404.5" cy="157.4" r="2" fill="#0b4f28" fill-opacity="0.9"/><circle cx="408" cy="187.4" r="2" fill="#0b4f28" fill-opacity="0.9"/><circle cx="411.5" cy="159.6" r="2" fill="#0b4f28" fill-opacity="0.9"/><circle cx="396.5" cy="187.6" r="2" fill="#0b4f28" fill-opacity="0.9"/><circle cx="406.5" cy="159.7" r="2" fill="#0b4f28" fill-opacity="0.9"/><circle cx="394.5" cy="190.3" r="2" fill="#0b4f28" fill-opacity="0.9"/><circle cx="398" cy="173.7" r="2" fill="#0b4f28" fill-opacity="0.9"/><circle cx="401" cy="189.4" r="2" fill="#0b4f28" fill-opacity="0.9"/><circle cx="404.5" cy="161.4" r="2" fill="#0b4f28" fill-opacity="0.9"/></svg>
