<svg xmlns="http://www.w3.org/2000/svg" width="760" height="430" viewBox="0 0 760 430" role="img">
<rect width="100%" height="100%" fill="#ffffff"/>
<text x="24" y="30" font-family="Inter,Segoe UI,Arial,sans-serif" font-size="18" font-weight="700" fill="#111827">Qwen3.6 27B 4-bit MTP accept rate</text>
<text x="736" y="30" text-anchor="end" font-family="Inter,Segoe UI,Arial,sans-serif" font-size="11" fill="#4b5563">accepted/drafted, higher is better</text>
<line x1="60" y1="358.0" x2="732" y2="358.0" stroke="#e5e7eb" stroke-width="1"/>
<text x="52" y="361.0" text-anchor="end" font-family="Inter,Segoe UI,Arial,sans-serif" font-size="10" fill="#6b7280">0%</text>
<line x1="60" y1="261.3" x2="732" y2="261.3" stroke="#e5e7eb" stroke-width="1"/>
<text x="52" y="264.3" text-anchor="end" font-family="Inter,Segoe UI,Arial,sans-serif" font-size="10" fill="#6b7280">33%</text>
<line x1="60" y1="164.7" x2="732" y2="164.7" stroke="#e5e7eb" stroke-width="1"/>
<text x="52" y="167.7" text-anchor="end" font-family="Inter,Segoe UI,Arial,sans-serif" font-size="10" fill="#6b7280">67%</text>
<line x1="60" y1="68.0" x2="732" y2="68.0" stroke="#e5e7eb" stroke-width="1"/>
<text x="52" y="71.0" text-anchor="end" font-family="Inter,Segoe UI,Arial,sans-serif" font-size="10" fill="#6b7280">100%</text>
<text x="172.0" y="396" text-anchor="middle" font-family="Inter,Segoe UI,Arial,sans-serif" font-size="11" font-weight="700" fill="#111827">flappy</text>
<rect x="82.0" y="68.0" width="28.0" height="290.0" rx="2" fill="#a78bfa" fill-opacity="0.86"/>
<text x="96.0" y="78.0" text-anchor="middle" font-family="Inter,Segoe UI,Arial,sans-serif" font-size="10" font-weight="700" fill="#111827">100.0%</text>
<rect x="120.0" y="78.3" width="28.0" height="279.7" rx="2" fill="#60a5fa" fill-opacity="0.86"/>
<text x="134.0" y="78.0" text-anchor="middle" font-family="Inter,Segoe UI,Arial,sans-serif" font-size="10" font-weight="700" fill="#111827">96.5%</text>
<rect x="158.0" y="110.4" width="28.0" height="247.6" rx="2" fill="#1d4ed8" fill-opacity="0.86"/>
<text x="172.0" y="105.4" text-anchor="middle" font-family="Inter,Segoe UI,Arial,sans-serif" font-size="10" font-weight="700" fill="#111827">85.4%</text>
<rect x="196.0" y="69.5" width="28.0" height="288.5" rx="2" fill="#86efac" fill-opacity="0.86"/>
<text x="210.0" y="78.0" text-anchor="middle" font-family="Inter,Segoe UI,Arial,sans-serif" font-size="10" font-weight="700" fill="#111827">99.5%</text>
<rect x="234.0" y="125.5" width="28.0" height="232.5" rx="2" fill="#15803d" fill-opacity="0.86"/>
<text x="248.0" y="120.5" text-anchor="middle" font-family="Inter,Segoe UI,Arial,sans-serif" font-size="10" font-weight="700" fill="#111827">80.2%</text>
<text x="396.0" y="396" text-anchor="middle" font-family="Inter,Segoe UI,Arial,sans-serif" font-size="11" font-weight="700" fill="#111827">long_code</text>
<rect x="306.0" y="68.8" width="28.0" height="289.2" rx="2" fill="#a78bfa" fill-opacity="0.86"/>
<text x="320.0" y="78.0" text-anchor="middle" font-family="Inter,Segoe UI,Arial,sans-serif" font-size="10" font-weight="700" fill="#111827">99.7%</text>
<rect x="344.0" y="87.3" width="28.0" height="270.7" rx="2" fill="#60a5fa" fill-opacity="0.86"/>
<text x="358.0" y="82.3" text-anchor="middle" font-family="Inter,Segoe UI,Arial,sans-serif" font-size="10" font-weight="700" fill="#111827">93.3%</text>
<rect x="382.0" y="103.9" width="28.0" height="254.1" rx="2" fill="#1d4ed8" fill-opacity="0.86"/>
<text x="396.0" y="98.9" text-anchor="middle" font-family="Inter,Segoe UI,Arial,sans-serif" font-size="10" font-weight="700" fill="#111827">87.6%</text>
<rect x="420.0" y="72.6" width="28.0" height="285.4" rx="2" fill="#86efac" fill-opacity="0.86"/>
<text x="434.0" y="78.0" text-anchor="middle" font-family="Inter,Segoe UI,Arial,sans-serif" font-size="10" font-weight="700" fill="#111827">98.4%</text>
<rect x="458.0" y="96.9" width="28.0" height="261.1" rx="2" fill="#15803d" fill-opacity="0.86"/>
<text x="472.0" y="91.9" text-anchor="middle" font-family="Inter,Segoe UI,Arial,sans-serif" font-size="10" font-weight="700" fill="#111827">90.0%</text>
<text x="620.0" y="396" text-anchor="middle" font-family="Inter,Segoe UI,Arial,sans-serif" font-size="11" font-weight="700" fill="#111827">python_modules_long</text>
<rect x="530.0" y="104.1" width="28.0" height="253.9" rx="2" fill="#a78bfa" fill-opacity="0.86"/>
<text x="544.0" y="99.1" text-anchor="middle" font-family="Inter,Segoe UI,Arial,sans-serif" font-size="10" font-weight="700" fill="#111827">87.6%</text>
<rect x="568.0" y="136.1" width="28.0" height="221.9" rx="2" fill="#60a5fa" fill-opacity="0.86"/>
<text x="582.0" y="131.1" text-anchor="middle" font-family="Inter,Segoe UI,Arial,sans-serif" font-size="10" font-weight="700" fill="#111827">76.5%</text>
<rect x="606.0" y="148.6" width="28.0" height="209.4" rx="2" fill="#1d4ed8" fill-opacity="0.86"/>
<text x="620.0" y="143.6" text-anchor="middle" font-family="Inter,Segoe UI,Arial,sans-serif" font-size="10" font-weight="700" fill="#111827">72.2%</text>
<rect x="644.0" y="141.0" width="28.0" height="217.0" rx="2" fill="#86efac" fill-opacity="0.86"/>
<text x="658.0" y="136.0" text-anchor="middle" font-family="Inter,Segoe UI,Arial,sans-serif" font-size="10" font-weight="700" fill="#111827">74.8%</text>
<rect x="682.0" y="132.6" width="28.0" height="225.4" rx="2" fill="#15803d" fill-opacity="0.86"/>
<text x="696.0" y="127.6" text-anchor="middle" font-family="Inter,Segoe UI,Arial,sans-serif" font-size="10" font-weight="700" fill="#111827">77.7%</text>
<rect x="60" y="407" width="10" height="10" rx="2" fill="#a78bfa" fill-opacity="0.86"/>
<text x="74" y="416" font-family="Inter,Segoe UI,Arial,sans-serif" font-size="10" fill="#374151">MTPLX 0.3.7</text>
<rect x="190" y="407" width="10" height="10" rx="2" fill="#60a5fa" fill-opacity="0.86"/>
<text x="204" y="416" font-family="Inter,Segoe UI,Arial,sans-serif" font-size="10" fill="#374151">Light. MTP</text>
<rect x="320" y="407" width="10" height="10" rx="2" fill="#1d4ed8" fill-opacity="0.86"/>
<text x="334" y="416" font-family="Inter,Segoe UI,Arial,sans-serif" font-size="10" fill="#374151">Light. ngram+MTP</text>
<rect x="450" y="407" width="10" height="10" rx="2" fill="#86efac" fill-opacity="0.86"/>
<text x="464" y="416" font-family="Inter,Segoe UI,Arial,sans-serif" font-size="10" fill="#374151">AX MTP</text>
<rect x="580" y="407" width="10" height="10" rx="2" fill="#15803d" fill-opacity="0.86"/>
<text x="594" y="416" font-family="Inter,Segoe UI,Arial,sans-serif" font-size="10" fill="#374151">AX MTP+n-gram</text>
</svg>
