<svg xmlns="http://www.w3.org/2000/svg" width="760" height="460" viewBox="0 0 760 460" role="img" aria-labelledby="title desc">
<title>Gemma 4 26B A4B 4-bit — Time to first token</title>
<desc>Grouped box-and-whisker plot comparing AX assistant MTP, AX assistant MTP+n-gram across flappy, long_code, python_modules_long prompt suites.</desc>
<rect width="100%" height="100%" fill="#f8fafc"/>
<text x="24" y="24" font-family="Inter,Segoe UI,Arial,sans-serif" font-size="16" font-weight="700" fill="#111827">Gemma 4 26B A4B 4-bit — Time to first token</text>
<text x="24" y="46" font-family="Inter,Segoe UI,Arial,sans-serif" font-size="11" fill="#4b5563">All suites | box=IQR | whiskers=min/max | dots=runs</text>
<text x="24" y="62" font-family="Inter,Segoe UI,Arial,sans-serif" font-size="10" fill="#6b7280">Apple M5 Max · gate 0.90 first / 0.999 deep · GPU exact · T=0.6/top_p=0.95/top_k=20</text>
<rect x="678" y="13" width="48" height="22" rx="11" fill="#eef2ff" stroke="#c7d2fe"/>
<text x="702.0" y="28" text-anchor="middle" font-family="Inter,Segoe UI,Arial,sans-serif" font-size="10" font-weight="700" fill="#3730a3">ms</text>
<text x="726" y="52" text-anchor="end" font-family="Inter,Segoe UI,Arial,sans-serif" font-size="10" font-weight="700" fill="#dc2626">Lower is better</text>
<rect x="64" y="86" width="496" height="268" rx="6" fill="#ffffff" stroke="#dbe3ef"/>
<line x1="64" y1="354.0" x2="560" y2="354.0" stroke="#e5e7eb" stroke-width="1"/>
<text x="56" y="357.0" text-anchor="end" font-family="Inter,Segoe UI,Arial,sans-serif" font-size="11" fill="#6b7280">0.0</text>
<line x1="64" y1="287.0" x2="560" y2="287.0" stroke="#e5e7eb" stroke-width="1"/>
<text x="56" y="290.0" text-anchor="end" font-family="Inter,Segoe UI,Arial,sans-serif" font-size="11" fill="#6b7280">125</text>
<line x1="64" y1="220.0" x2="560" y2="220.0" stroke="#e5e7eb" stroke-width="1"/>
<text x="56" y="223.0" text-anchor="end" font-family="Inter,Segoe UI,Arial,sans-serif" font-size="11" fill="#6b7280">250</text>
<line x1="64" y1="153.0" x2="560" y2="153.0" stroke="#e5e7eb" stroke-width="1"/>
<text x="56" y="156.0" text-anchor="end" font-family="Inter,Segoe UI,Arial,sans-serif" font-size="11" fill="#6b7280">375</text>
<line x1="64" y1="86.0" x2="560" y2="86.0" stroke="#e5e7eb" stroke-width="1"/>
<text x="56" y="89.0" text-anchor="end" font-family="Inter,Segoe UI,Arial,sans-serif" font-size="11" fill="#6b7280">500</text>
<line x1="64" y1="285.0" x2="560" y2="285.0" stroke="#dc2626" stroke-width="1.2" stroke-dasharray="1 4" stroke-linecap="round"/>
<text x="568" y="280.0" text-anchor="start" font-family="Inter,Segoe UI,Arial,sans-serif" font-size="11" font-weight="700" fill="#dc2626" data-label="lowest median">lowest: 129</text>
<text x="146.7" y="398" text-anchor="middle" font-family="Inter,Segoe UI,Arial,sans-serif" font-size="11" font-weight="700" fill="#111827">flappy</text>
<circle cx="95.8" cy="290.6" r="1.45" fill="#2eaf5f" fill-opacity="0.46"/>
<circle cx="98.8" cy="290.7" r="1.45" fill="#2eaf5f" fill-opacity="0.46"/>
<circle cx="101.9" cy="291.4" r="1.45" fill="#2eaf5f" fill-opacity="0.46"/>
<circle cx="104.9" cy="289.0" r="1.45" fill="#2eaf5f" fill-opacity="0.46"/>
<circle cx="108.0" cy="290.3" r="1.45" fill="#2eaf5f" fill-opacity="0.46"/>
<circle cx="111.1" cy="279.5" r="1.45" fill="#2eaf5f" fill-opacity="0.46"/>
<circle cx="114.1" cy="279.6" r="1.45" fill="#2eaf5f" fill-opacity="0.46"/>
<circle cx="117.2" cy="278.8" r="1.45" fill="#2eaf5f" fill-opacity="0.46"/>
<circle cx="120.2" cy="279.4" r="1.45" fill="#2eaf5f" fill-opacity="0.46"/>
<circle cx="95.8" cy="279.1" r="1.45" fill="#2eaf5f" fill-opacity="0.46"/>
<circle cx="98.8" cy="265.1" r="1.45" fill="#2eaf5f" fill-opacity="0.46"/>
<circle cx="101.9" cy="265.2" r="1.45" fill="#2eaf5f" fill-opacity="0.46"/>
<circle cx="104.9" cy="264.6" r="1.45" fill="#2eaf5f" fill-opacity="0.46"/>
<circle cx="108.0" cy="263.7" r="1.45" fill="#2eaf5f" fill-opacity="0.46"/>
<circle cx="111.1" cy="263.7" r="1.45" fill="#2eaf5f" fill-opacity="0.46"/>
<circle cx="114.1" cy="289.6" r="1.45" fill="#2eaf5f" fill-opacity="0.46"/>
<circle cx="117.2" cy="290.2" r="1.45" fill="#2eaf5f" fill-opacity="0.46"/>
<circle cx="120.2" cy="289.4" r="1.45" fill="#2eaf5f" fill-opacity="0.46"/>
<circle cx="95.8" cy="289.3" r="1.45" fill="#2eaf5f" fill-opacity="0.46"/>
<circle cx="98.8" cy="289.8" r="1.45" fill="#2eaf5f" fill-opacity="0.46"/>
<line x1="108.0" y1="263.7" x2="108.0" y2="291.4" stroke="#2eaf5f" stroke-opacity="0.86" stroke-width="1.8"/>
<line x1="95.8" y1="263.7" x2="120.2" y2="263.7" stroke="#2eaf5f" stroke-opacity="0.86" stroke-width="1.8"/>
<line x1="95.8" y1="291.4" x2="120.2" y2="291.4" stroke="#2eaf5f" stroke-opacity="0.86" stroke-width="1.8"/>
<rect x="91.0" y="275.4" width="34.0" height="14.5" rx="2" fill="#2eaf5f" fill-opacity="0.18" stroke="#2eaf5f" stroke-opacity="0.9" stroke-width="1.8"/>
<line x1="91.0" y1="284.3" x2="125.0" y2="284.3" stroke="#2eaf5f" stroke-opacity="0.96" stroke-width="2.6"/>
<text x="131.0" y="288.3" text-anchor="start" font-family="Inter,Segoe UI,Arial,sans-serif" font-size="11" font-weight="700" fill="#111827" stroke="#ffffff" stroke-width="3" paint-order="stroke">130</text>
<circle cx="173.1" cy="290.0" r="1.45" fill="#137a3d" fill-opacity="0.46"/>
<circle cx="176.2" cy="290.4" r="1.45" fill="#137a3d" fill-opacity="0.46"/>
<circle cx="179.2" cy="290.8" r="1.45" fill="#137a3d" fill-opacity="0.46"/>
<circle cx="182.3" cy="290.8" r="1.45" fill="#137a3d" fill-opacity="0.46"/>
<circle cx="185.3" cy="289.5" r="1.45" fill="#137a3d" fill-opacity="0.46"/>
<circle cx="188.4" cy="278.5" r="1.45" fill="#137a3d" fill-opacity="0.46"/>
<circle cx="191.5" cy="280.4" r="1.45" fill="#137a3d" fill-opacity="0.46"/>
<circle cx="194.5" cy="279.8" r="1.45" fill="#137a3d" fill-opacity="0.46"/>
<circle cx="197.6" cy="279.4" r="1.45" fill="#137a3d" fill-opacity="0.46"/>
<circle cx="173.1" cy="280.8" r="1.45" fill="#137a3d" fill-opacity="0.46"/>
<circle cx="176.2" cy="265.1" r="1.45" fill="#137a3d" fill-opacity="0.46"/>
<circle cx="179.2" cy="266.5" r="1.45" fill="#137a3d" fill-opacity="0.46"/>
<circle cx="182.3" cy="265.6" r="1.45" fill="#137a3d" fill-opacity="0.46"/>
<circle cx="185.3" cy="265.2" r="1.45" fill="#137a3d" fill-opacity="0.46"/>
<circle cx="188.4" cy="266.2" r="1.45" fill="#137a3d" fill-opacity="0.46"/>
<circle cx="191.5" cy="290.3" r="1.45" fill="#137a3d" fill-opacity="0.46"/>
<circle cx="194.5" cy="290.7" r="1.45" fill="#137a3d" fill-opacity="0.46"/>
<circle cx="197.6" cy="289.1" r="1.45" fill="#137a3d" fill-opacity="0.46"/>
<circle cx="173.1" cy="290.6" r="1.45" fill="#137a3d" fill-opacity="0.46"/>
<circle cx="176.2" cy="290.9" r="1.45" fill="#137a3d" fill-opacity="0.46"/>
<line x1="185.3" y1="265.1" x2="185.3" y2="290.9" stroke="#137a3d" stroke-opacity="0.86" stroke-width="1.8"/>
<line x1="173.1" y1="265.1" x2="197.6" y2="265.1" stroke="#137a3d" stroke-opacity="0.86" stroke-width="1.8"/>
<line x1="173.1" y1="290.9" x2="197.6" y2="290.9" stroke="#137a3d" stroke-opacity="0.86" stroke-width="1.8"/>
<rect x="168.3" y="275.5" width="34.0" height="15.0" rx="2" fill="#137a3d" fill-opacity="0.18" stroke="#137a3d" stroke-opacity="0.9" stroke-width="1.8"/>
<line x1="168.3" y1="285.0" x2="202.3" y2="285.0" stroke="#137a3d" stroke-opacity="0.96" stroke-width="2.6"/>
<text x="208.3" y="289.0" text-anchor="start" font-family="Inter,Segoe UI,Arial,sans-serif" font-size="11" font-weight="700" fill="#111827" stroke="#ffffff" stroke-width="3" paint-order="stroke">129</text>
<text x="312.0" y="398" text-anchor="middle" font-family="Inter,Segoe UI,Arial,sans-serif" font-size="11" font-weight="700" fill="#111827">long_code</text>
<circle cx="261.1" cy="250.1" r="1.45" fill="#2eaf5f" fill-opacity="0.46"/>
<circle cx="264.2" cy="250.1" r="1.45" fill="#2eaf5f" fill-opacity="0.46"/>
<circle cx="267.2" cy="250.1" r="1.45" fill="#2eaf5f" fill-opacity="0.46"/>
<circle cx="270.3" cy="249.3" r="1.45" fill="#2eaf5f" fill-opacity="0.46"/>
<circle cx="273.3" cy="249.6" r="1.45" fill="#2eaf5f" fill-opacity="0.46"/>
<circle cx="276.4" cy="228.6" r="1.45" fill="#2eaf5f" fill-opacity="0.46"/>
<circle cx="279.5" cy="229.6" r="1.45" fill="#2eaf5f" fill-opacity="0.46"/>
<circle cx="282.5" cy="228.4" r="1.45" fill="#2eaf5f" fill-opacity="0.46"/>
<circle cx="285.6" cy="229.2" r="1.45" fill="#2eaf5f" fill-opacity="0.46"/>
<circle cx="261.1" cy="227.7" r="1.45" fill="#2eaf5f" fill-opacity="0.46"/>
<circle cx="264.2" cy="241.1" r="1.45" fill="#2eaf5f" fill-opacity="0.46"/>
<circle cx="267.2" cy="240.5" r="1.45" fill="#2eaf5f" fill-opacity="0.46"/>
<circle cx="270.3" cy="238.0" r="1.45" fill="#2eaf5f" fill-opacity="0.46"/>
<circle cx="273.3" cy="239.4" r="1.45" fill="#2eaf5f" fill-opacity="0.46"/>
<circle cx="276.4" cy="240.3" r="1.45" fill="#2eaf5f" fill-opacity="0.46"/>
<circle cx="279.5" cy="267.6" r="1.45" fill="#2eaf5f" fill-opacity="0.46"/>
<circle cx="282.5" cy="267.5" r="1.45" fill="#2eaf5f" fill-opacity="0.46"/>
<circle cx="285.6" cy="266.7" r="1.45" fill="#2eaf5f" fill-opacity="0.46"/>
<circle cx="261.1" cy="266.0" r="1.45" fill="#2eaf5f" fill-opacity="0.46"/>
<circle cx="264.2" cy="266.8" r="1.45" fill="#2eaf5f" fill-opacity="0.46"/>
<line x1="273.3" y1="227.7" x2="273.3" y2="267.6" stroke="#2eaf5f" stroke-opacity="0.86" stroke-width="1.8"/>
<line x1="261.1" y1="227.7" x2="285.6" y2="227.7" stroke="#2eaf5f" stroke-opacity="0.86" stroke-width="1.8"/>
<line x1="261.1" y1="267.6" x2="285.6" y2="267.6" stroke="#2eaf5f" stroke-opacity="0.86" stroke-width="1.8"/>
<rect x="256.3" y="235.9" width="34.0" height="18.2" rx="2" fill="#2eaf5f" fill-opacity="0.18" stroke="#2eaf5f" stroke-opacity="0.9" stroke-width="1.8"/>
<line x1="256.3" y1="245.2" x2="290.3" y2="245.2" stroke="#2eaf5f" stroke-opacity="0.96" stroke-width="2.6"/>
<text x="296.3" y="249.2" text-anchor="start" font-family="Inter,Segoe UI,Arial,sans-serif" font-size="11" font-weight="700" fill="#111827" stroke="#ffffff" stroke-width="3" paint-order="stroke">203</text>
<circle cx="338.4" cy="248.8" r="1.45" fill="#137a3d" fill-opacity="0.46"/>
<circle cx="341.5" cy="249.5" r="1.45" fill="#137a3d" fill-opacity="0.46"/>
<circle cx="344.5" cy="251.0" r="1.45" fill="#137a3d" fill-opacity="0.46"/>
<circle cx="347.6" cy="249.7" r="1.45" fill="#137a3d" fill-opacity="0.46"/>
<circle cx="350.7" cy="249.5" r="1.45" fill="#137a3d" fill-opacity="0.46"/>
<circle cx="353.7" cy="227.3" r="1.45" fill="#137a3d" fill-opacity="0.46"/>
<circle cx="356.8" cy="229.4" r="1.45" fill="#137a3d" fill-opacity="0.46"/>
<circle cx="359.8" cy="228.1" r="1.45" fill="#137a3d" fill-opacity="0.46"/>
<circle cx="362.9" cy="229.6" r="1.45" fill="#137a3d" fill-opacity="0.46"/>
<circle cx="338.4" cy="228.3" r="1.45" fill="#137a3d" fill-opacity="0.46"/>
<circle cx="341.5" cy="238.6" r="1.45" fill="#137a3d" fill-opacity="0.46"/>
<circle cx="344.5" cy="239.8" r="1.45" fill="#137a3d" fill-opacity="0.46"/>
<circle cx="347.6" cy="238.4" r="1.45" fill="#137a3d" fill-opacity="0.46"/>
<circle cx="350.7" cy="238.7" r="1.45" fill="#137a3d" fill-opacity="0.46"/>
<circle cx="353.7" cy="239.5" r="1.45" fill="#137a3d" fill-opacity="0.46"/>
<circle cx="356.8" cy="266.7" r="1.45" fill="#137a3d" fill-opacity="0.46"/>
<circle cx="359.8" cy="266.5" r="1.45" fill="#137a3d" fill-opacity="0.46"/>
<circle cx="362.9" cy="266.3" r="1.45" fill="#137a3d" fill-opacity="0.46"/>
<circle cx="338.4" cy="266.3" r="1.45" fill="#137a3d" fill-opacity="0.46"/>
<circle cx="341.5" cy="266.3" r="1.45" fill="#137a3d" fill-opacity="0.46"/>
<line x1="350.7" y1="227.3" x2="350.7" y2="266.7" stroke="#137a3d" stroke-opacity="0.86" stroke-width="1.8"/>
<line x1="338.4" y1="227.3" x2="362.9" y2="227.3" stroke="#137a3d" stroke-opacity="0.86" stroke-width="1.8"/>
<line x1="338.4" y1="266.7" x2="362.9" y2="266.7" stroke="#137a3d" stroke-opacity="0.86" stroke-width="1.8"/>
<rect x="333.7" y="236.2" width="34.0" height="18.6" rx="2" fill="#137a3d" fill-opacity="0.18" stroke="#137a3d" stroke-opacity="0.9" stroke-width="1.8"/>
<line x1="333.7" y1="244.3" x2="367.7" y2="244.3" stroke="#137a3d" stroke-opacity="0.96" stroke-width="2.6"/>
<text x="373.7" y="248.3" text-anchor="start" font-family="Inter,Segoe UI,Arial,sans-serif" font-size="11" font-weight="700" fill="#111827" stroke="#ffffff" stroke-width="3" paint-order="stroke">205</text>
<text x="477.3" y="398" text-anchor="middle" font-family="Inter,Segoe UI,Arial,sans-serif" font-size="11" font-weight="700" fill="#111827">python_modules_long</text>
<circle cx="426.4" cy="289.2" r="1.45" fill="#2eaf5f" fill-opacity="0.46"/>
<circle cx="429.5" cy="288.2" r="1.45" fill="#2eaf5f" fill-opacity="0.46"/>
<circle cx="432.5" cy="288.5" r="1.45" fill="#2eaf5f" fill-opacity="0.46"/>
<circle cx="435.6" cy="289.8" r="1.45" fill="#2eaf5f" fill-opacity="0.46"/>
<circle cx="438.7" cy="289.1" r="1.45" fill="#2eaf5f" fill-opacity="0.46"/>
<circle cx="441.7" cy="283.9" r="1.45" fill="#2eaf5f" fill-opacity="0.46"/>
<circle cx="444.8" cy="284.2" r="1.45" fill="#2eaf5f" fill-opacity="0.46"/>
<circle cx="447.8" cy="283.5" r="1.45" fill="#2eaf5f" fill-opacity="0.46"/>
<circle cx="450.9" cy="283.4" r="1.45" fill="#2eaf5f" fill-opacity="0.46"/>
<circle cx="426.4" cy="283.8" r="1.45" fill="#2eaf5f" fill-opacity="0.46"/>
<circle cx="429.5" cy="281.5" r="1.45" fill="#2eaf5f" fill-opacity="0.46"/>
<circle cx="432.5" cy="282.1" r="1.45" fill="#2eaf5f" fill-opacity="0.46"/>
<circle cx="435.6" cy="282.2" r="1.45" fill="#2eaf5f" fill-opacity="0.46"/>
<circle cx="438.7" cy="282.4" r="1.45" fill="#2eaf5f" fill-opacity="0.46"/>
<circle cx="441.7" cy="282.5" r="1.45" fill="#2eaf5f" fill-opacity="0.46"/>
<line x1="438.7" y1="281.5" x2="438.7" y2="289.8" stroke="#2eaf5f" stroke-opacity="0.86" stroke-width="1.8"/>
<line x1="426.4" y1="281.5" x2="450.9" y2="281.5" stroke="#2eaf5f" stroke-opacity="0.86" stroke-width="1.8"/>
<line x1="426.4" y1="289.8" x2="450.9" y2="289.8" stroke="#2eaf5f" stroke-opacity="0.86" stroke-width="1.8"/>
<rect x="421.7" y="282.4" width="34.0" height="5.9" rx="2" fill="#2eaf5f" fill-opacity="0.18" stroke="#2eaf5f" stroke-opacity="0.9" stroke-width="1.8"/>
<line x1="421.7" y1="283.8" x2="455.7" y2="283.8" stroke="#2eaf5f" stroke-opacity="0.96" stroke-width="2.6"/>
<text x="461.7" y="287.8" text-anchor="start" font-family="Inter,Segoe UI,Arial,sans-serif" font-size="11" font-weight="700" fill="#111827" stroke="#ffffff" stroke-width="3" paint-order="stroke">131</text>
<circle cx="503.8" cy="290.0" r="1.45" fill="#137a3d" fill-opacity="0.46"/>
<circle cx="506.8" cy="290.3" r="1.45" fill="#137a3d" fill-opacity="0.46"/>
<circle cx="509.9" cy="289.8" r="1.45" fill="#137a3d" fill-opacity="0.46"/>
<circle cx="512.9" cy="290.1" r="1.45" fill="#137a3d" fill-opacity="0.46"/>
<circle cx="516.0" cy="290.2" r="1.45" fill="#137a3d" fill-opacity="0.46"/>
<circle cx="519.1" cy="284.3" r="1.45" fill="#137a3d" fill-opacity="0.46"/>
<circle cx="522.1" cy="282.3" r="1.45" fill="#137a3d" fill-opacity="0.46"/>
<circle cx="525.2" cy="284.6" r="1.45" fill="#137a3d" fill-opacity="0.46"/>
<circle cx="528.2" cy="283.9" r="1.45" fill="#137a3d" fill-opacity="0.46"/>
<circle cx="503.8" cy="282.8" r="1.45" fill="#137a3d" fill-opacity="0.46"/>
<circle cx="506.8" cy="282.2" r="1.45" fill="#137a3d" fill-opacity="0.46"/>
<circle cx="509.9" cy="282.2" r="1.45" fill="#137a3d" fill-opacity="0.46"/>
<circle cx="512.9" cy="281.1" r="1.45" fill="#137a3d" fill-opacity="0.46"/>
<circle cx="516.0" cy="282.2" r="1.45" fill="#137a3d" fill-opacity="0.46"/>
<circle cx="519.1" cy="281.9" r="1.45" fill="#137a3d" fill-opacity="0.46"/>
<line x1="516.0" y1="281.1" x2="516.0" y2="290.3" stroke="#137a3d" stroke-opacity="0.86" stroke-width="1.8"/>
<line x1="503.8" y1="281.1" x2="528.2" y2="281.1" stroke="#137a3d" stroke-opacity="0.86" stroke-width="1.8"/>
<line x1="503.8" y1="290.3" x2="528.2" y2="290.3" stroke="#137a3d" stroke-opacity="0.86" stroke-width="1.8"/>
<rect x="499.0" y="282.2" width="34.0" height="7.6" rx="2" fill="#137a3d" fill-opacity="0.18" stroke="#137a3d" stroke-opacity="0.9" stroke-width="1.8"/>
<line x1="499.0" y1="283.9" x2="533.0" y2="283.9" stroke="#137a3d" stroke-opacity="0.96" stroke-width="2.6"/>
<text x="539.0" y="287.9" text-anchor="start" font-family="Inter,Segoe UI,Arial,sans-serif" font-size="11" font-weight="700" fill="#111827" stroke="#ffffff" stroke-width="3" paint-order="stroke">131</text>
<rect x="64.0" y="433" width="10" height="10" rx="2" fill="#2eaf5f" fill-opacity="0.72"/>
<text x="78.0" y="442" font-family="Inter,Segoe UI,Arial,sans-serif" font-size="10" fill="#374151">AX assistant MTP</text>
<rect x="312.0" y="433" width="10" height="10" rx="2" fill="#137a3d" fill-opacity="0.72"/>
<text x="326.0" y="442" font-family="Inter,Segoe UI,Arial,sans-serif" font-size="10" fill="#374151">AX assistant MTP+n-gram</text>
</svg>
