<svg xmlns="http://www.w3.org/2000/svg" width="900" height="460" viewBox="0 0 900 460" role="img" aria-labelledby="title desc">
<title>Qwen3.6 27B 4-bit MTP accept rate</title>
<desc>Grouped box-and-whisker plot comparing MTPLX 0.3.7, Lightning v0.6.10, Lightning+ng v0.6.10, AX Engine v5.1.0, AX+ngram v5.1.0 across all suites.</desc>
<rect width="100%" height="100%" fill="#f8fafc"/>
<text x="24" y="24" font-family="Inter,Segoe UI,Arial,sans-serif" font-size="16" font-weight="700" fill="#111827">Qwen3.6 27B 4-bit MTP accept rate</text>
<text x="24" y="46" font-family="Inter,Segoe UI,Arial,sans-serif" font-size="11" fill="#4b5563">All suites combined | accepted/drafted | box=IQR | dots=runs</text>
<text x="24" y="62" font-family="Inter,Segoe UI,Arial,sans-serif" font-size="10" fill="#6b7280">MTPLX 0.3.7 · Lightning-MLX 0.6.10 · AX Engine v5.1.0</text>
<rect x="818" y="13" width="48" height="22" rx="11" fill="#eef2ff" stroke="#c7d2fe"/>
<text x="842.0" y="28" text-anchor="middle" font-family="Inter,Segoe UI,Arial,sans-serif" font-size="10" font-weight="700" fill="#3730a3">%</text>
<text x="866" y="52" text-anchor="end" font-family="Inter,Segoe UI,Arial,sans-serif" font-size="10" font-weight="700" fill="#374151">Higher is better</text>
<rect x="64" y="86" width="676" height="268" rx="6" fill="#ffffff" stroke="#dbe3ef"/>
<line x1="64" y1="354.0" x2="740" y2="354.0" stroke="#e5e7eb" stroke-width="1"/>
<text x="56" y="357.0" text-anchor="end" font-family="Inter,Segoe UI,Arial,sans-serif" font-size="11" fill="#6b7280">0%</text>
<line x1="64" y1="287.0" x2="740" y2="287.0" stroke="#e5e7eb" stroke-width="1"/>
<text x="56" y="290.0" text-anchor="end" font-family="Inter,Segoe UI,Arial,sans-serif" font-size="11" fill="#6b7280">25%</text>
<line x1="64" y1="220.0" x2="740" y2="220.0" stroke="#e5e7eb" stroke-width="1"/>
<text x="56" y="223.0" text-anchor="end" font-family="Inter,Segoe UI,Arial,sans-serif" font-size="11" fill="#6b7280">50%</text>
<line x1="64" y1="153.0" x2="740" y2="153.0" stroke="#e5e7eb" stroke-width="1"/>
<text x="56" y="156.0" text-anchor="end" font-family="Inter,Segoe UI,Arial,sans-serif" font-size="11" fill="#6b7280">75%</text>
<line x1="64" y1="86.0" x2="740" y2="86.0" stroke="#e5e7eb" stroke-width="1"/>
<text x="56" y="89.0" text-anchor="end" font-family="Inter,Segoe UI,Arial,sans-serif" font-size="11" fill="#6b7280">100%</text>
<line x1="64" y1="86.0" x2="740" y2="86.0" stroke="#dc2626" stroke-width="1.2" stroke-dasharray="1 4" stroke-linecap="round"/>
<text x="748" y="97.0" text-anchor="start" font-family="Inter,Segoe UI,Arial,sans-serif" font-size="11" font-weight="700" fill="#dc2626" data-label="highest median">highest: 100.0%</text>
<text x="402.0" y="398" text-anchor="middle" font-family="Inter,Segoe UI,Arial,sans-serif" font-size="11" font-weight="700" fill="#111827">all suites</text>
<circle cx="127.8" cy="86.0" r="1.45" fill="#14532d" fill-opacity="0.46"/>
<circle cx="130.8" cy="86.0" r="1.45" fill="#14532d" fill-opacity="0.46"/>
<circle cx="133.9" cy="86.0" r="1.45" fill="#14532d" fill-opacity="0.46"/>
<circle cx="136.9" cy="86.0" r="1.45" fill="#14532d" fill-opacity="0.46"/>
<circle cx="140.0" cy="86.0" r="1.45" fill="#14532d" fill-opacity="0.46"/>
<circle cx="143.1" cy="89.1" r="1.45" fill="#14532d" fill-opacity="0.46"/>
<circle cx="146.1" cy="92.6" r="1.45" fill="#14532d" fill-opacity="0.46"/>
<circle cx="149.2" cy="89.1" r="1.45" fill="#14532d" fill-opacity="0.46"/>
<circle cx="152.2" cy="95.6" r="1.45" fill="#14532d" fill-opacity="0.46"/>
<circle cx="127.8" cy="96.6" r="1.45" fill="#14532d" fill-opacity="0.46"/>
<circle cx="130.8" cy="86.0" r="1.45" fill="#14532d" fill-opacity="0.46"/>
<circle cx="133.9" cy="86.0" r="1.45" fill="#14532d" fill-opacity="0.46"/>
<circle cx="136.9" cy="86.0" r="1.45" fill="#14532d" fill-opacity="0.46"/>
<circle cx="140.0" cy="86.0" r="1.45" fill="#14532d" fill-opacity="0.46"/>
<circle cx="143.1" cy="86.0" r="1.45" fill="#14532d" fill-opacity="0.46"/>
<circle cx="146.1" cy="86.0" r="1.45" fill="#14532d" fill-opacity="0.46"/>
<circle cx="149.2" cy="86.0" r="1.45" fill="#14532d" fill-opacity="0.46"/>
<circle cx="152.2" cy="86.0" r="1.45" fill="#14532d" fill-opacity="0.46"/>
<circle cx="127.8" cy="86.0" r="1.45" fill="#14532d" fill-opacity="0.46"/>
<circle cx="130.8" cy="86.0" r="1.45" fill="#14532d" fill-opacity="0.46"/>
<circle cx="133.9" cy="86.0" r="1.45" fill="#14532d" fill-opacity="0.46"/>
<circle cx="136.9" cy="86.4" r="1.45" fill="#14532d" fill-opacity="0.46"/>
<circle cx="140.0" cy="86.0" r="1.45" fill="#14532d" fill-opacity="0.46"/>
<circle cx="143.1" cy="86.0" r="1.45" fill="#14532d" fill-opacity="0.46"/>
<circle cx="146.1" cy="86.0" r="1.45" fill="#14532d" fill-opacity="0.46"/>
<circle cx="149.2" cy="88.5" r="1.45" fill="#14532d" fill-opacity="0.46"/>
<circle cx="152.2" cy="90.2" r="1.45" fill="#14532d" fill-opacity="0.46"/>
<circle cx="127.8" cy="87.4" r="1.45" fill="#14532d" fill-opacity="0.46"/>
<circle cx="130.8" cy="87.4" r="1.45" fill="#14532d" fill-opacity="0.46"/>
<circle cx="133.9" cy="89.2" r="1.45" fill="#14532d" fill-opacity="0.46"/>
<circle cx="136.9" cy="87.1" r="1.45" fill="#14532d" fill-opacity="0.46"/>
<circle cx="140.0" cy="87.1" r="1.45" fill="#14532d" fill-opacity="0.46"/>
<circle cx="143.1" cy="87.1" r="1.45" fill="#14532d" fill-opacity="0.46"/>
<circle cx="146.1" cy="88.5" r="1.45" fill="#14532d" fill-opacity="0.46"/>
<circle cx="149.2" cy="87.1" r="1.45" fill="#14532d" fill-opacity="0.46"/>
<circle cx="152.2" cy="86.0" r="1.45" fill="#14532d" fill-opacity="0.46"/>
<circle cx="127.8" cy="86.0" r="1.45" fill="#14532d" fill-opacity="0.46"/>
<circle cx="130.8" cy="86.0" r="1.45" fill="#14532d" fill-opacity="0.46"/>
<circle cx="133.9" cy="86.0" r="1.45" fill="#14532d" fill-opacity="0.46"/>
<circle cx="136.9" cy="86.0" r="1.45" fill="#14532d" fill-opacity="0.46"/>
<circle cx="140.0" cy="136.3" r="1.45" fill="#14532d" fill-opacity="0.46"/>
<circle cx="143.1" cy="129.1" r="1.45" fill="#14532d" fill-opacity="0.46"/>
<circle cx="146.1" cy="131.6" r="1.45" fill="#14532d" fill-opacity="0.46"/>
<circle cx="149.2" cy="131.3" r="1.45" fill="#14532d" fill-opacity="0.46"/>
<circle cx="152.2" cy="128.5" r="1.45" fill="#14532d" fill-opacity="0.46"/>
<circle cx="127.8" cy="117.6" r="1.45" fill="#14532d" fill-opacity="0.46"/>
<circle cx="130.8" cy="124.9" r="1.45" fill="#14532d" fill-opacity="0.46"/>
<circle cx="133.9" cy="116.4" r="1.45" fill="#14532d" fill-opacity="0.46"/>
<circle cx="136.9" cy="122.0" r="1.45" fill="#14532d" fill-opacity="0.46"/>
<circle cx="140.0" cy="115.5" r="1.45" fill="#14532d" fill-opacity="0.46"/>
<circle cx="143.1" cy="108.4" r="1.45" fill="#14532d" fill-opacity="0.46"/>
<circle cx="146.1" cy="115.8" r="1.45" fill="#14532d" fill-opacity="0.46"/>
<circle cx="149.2" cy="104.9" r="1.45" fill="#14532d" fill-opacity="0.46"/>
<circle cx="152.2" cy="99.4" r="1.45" fill="#14532d" fill-opacity="0.46"/>
<circle cx="127.8" cy="110.0" r="1.45" fill="#14532d" fill-opacity="0.46"/>
<line x1="140.0" y1="86.0" x2="140.0" y2="136.3" stroke="#14532d" stroke-opacity="0.86" stroke-width="1.8"/>
<line x1="127.8" y1="86.0" x2="152.2" y2="86.0" stroke="#14532d" stroke-opacity="0.86" stroke-width="1.8"/>
<line x1="127.8" y1="136.3" x2="152.2" y2="136.3" stroke="#14532d" stroke-opacity="0.86" stroke-width="1.8"/>
<rect x="123.0" y="86.0" width="34.0" height="16.2" rx="2" fill="#14532d" fill-opacity="0.18" stroke="#14532d" stroke-opacity="0.9" stroke-width="1.8"/>
<line x1="123.0" y1="87.1" x2="157.0" y2="87.1" stroke="#14532d" stroke-opacity="0.96" stroke-width="2.6"/>
<text x="163.0" y="91.1" text-anchor="start" font-family="Inter,Segoe UI,Arial,sans-serif" font-size="11" font-weight="700" fill="#111827" stroke="#ffffff" stroke-width="3" paint-order="stroke">99.6%</text>
<circle cx="258.8" cy="86.0" r="1.45" fill="#7c3aed" fill-opacity="0.46"/>
<circle cx="261.8" cy="86.0" r="1.45" fill="#7c3aed" fill-opacity="0.46"/>
<circle cx="264.9" cy="86.0" r="1.45" fill="#7c3aed" fill-opacity="0.46"/>
<circle cx="267.9" cy="86.0" r="1.45" fill="#7c3aed" fill-opacity="0.46"/>
<circle cx="271.0" cy="86.0" r="1.45" fill="#7c3aed" fill-opacity="0.46"/>
<circle cx="274.1" cy="86.0" r="1.45" fill="#7c3aed" fill-opacity="0.46"/>
<circle cx="277.1" cy="86.0" r="1.45" fill="#7c3aed" fill-opacity="0.46"/>
<circle cx="280.2" cy="86.0" r="1.45" fill="#7c3aed" fill-opacity="0.46"/>
<circle cx="283.2" cy="86.0" r="1.45" fill="#7c3aed" fill-opacity="0.46"/>
<circle cx="258.8" cy="86.0" r="1.45" fill="#7c3aed" fill-opacity="0.46"/>
<circle cx="261.8" cy="86.0" r="1.45" fill="#7c3aed" fill-opacity="0.46"/>
<circle cx="264.9" cy="86.0" r="1.45" fill="#7c3aed" fill-opacity="0.46"/>
<circle cx="267.9" cy="86.0" r="1.45" fill="#7c3aed" fill-opacity="0.46"/>
<circle cx="271.0" cy="86.0" r="1.45" fill="#7c3aed" fill-opacity="0.46"/>
<circle cx="274.1" cy="86.0" r="1.45" fill="#7c3aed" fill-opacity="0.46"/>
<circle cx="277.1" cy="86.0" r="1.45" fill="#7c3aed" fill-opacity="0.46"/>
<circle cx="280.2" cy="86.0" r="1.45" fill="#7c3aed" fill-opacity="0.46"/>
<circle cx="283.2" cy="86.0" r="1.45" fill="#7c3aed" fill-opacity="0.46"/>
<circle cx="258.8" cy="86.0" r="1.45" fill="#7c3aed" fill-opacity="0.46"/>
<circle cx="261.8" cy="86.0" r="1.45" fill="#7c3aed" fill-opacity="0.46"/>
<circle cx="264.9" cy="86.0" r="1.45" fill="#7c3aed" fill-opacity="0.46"/>
<circle cx="267.9" cy="86.0" r="1.45" fill="#7c3aed" fill-opacity="0.46"/>
<circle cx="271.0" cy="86.0" r="1.45" fill="#7c3aed" fill-opacity="0.46"/>
<circle cx="274.1" cy="86.0" r="1.45" fill="#7c3aed" fill-opacity="0.46"/>
<circle cx="277.1" cy="86.0" r="1.45" fill="#7c3aed" fill-opacity="0.46"/>
<circle cx="280.2" cy="86.0" r="1.45" fill="#7c3aed" fill-opacity="0.46"/>
<circle cx="283.2" cy="86.0" r="1.45" fill="#7c3aed" fill-opacity="0.46"/>
<circle cx="258.8" cy="86.0" r="1.45" fill="#7c3aed" fill-opacity="0.46"/>
<circle cx="261.8" cy="86.0" r="1.45" fill="#7c3aed" fill-opacity="0.46"/>
<circle cx="264.9" cy="86.0" r="1.45" fill="#7c3aed" fill-opacity="0.46"/>
<circle cx="267.9" cy="86.0" r="1.45" fill="#7c3aed" fill-opacity="0.46"/>
<circle cx="271.0" cy="86.0" r="1.45" fill="#7c3aed" fill-opacity="0.46"/>
<circle cx="274.1" cy="86.0" r="1.45" fill="#7c3aed" fill-opacity="0.46"/>
<circle cx="277.1" cy="86.0" r="1.45" fill="#7c3aed" fill-opacity="0.46"/>
<circle cx="280.2" cy="86.0" r="1.45" fill="#7c3aed" fill-opacity="0.46"/>
<circle cx="283.2" cy="86.0" r="1.45" fill="#7c3aed" fill-opacity="0.46"/>
<circle cx="258.8" cy="86.0" r="1.45" fill="#7c3aed" fill-opacity="0.46"/>
<circle cx="261.8" cy="86.0" r="1.45" fill="#7c3aed" fill-opacity="0.46"/>
<circle cx="264.9" cy="86.0" r="1.45" fill="#7c3aed" fill-opacity="0.46"/>
<circle cx="267.9" cy="86.0" r="1.45" fill="#7c3aed" fill-opacity="0.46"/>
<circle cx="271.0" cy="86.0" r="1.45" fill="#7c3aed" fill-opacity="0.46"/>
<circle cx="274.1" cy="86.0" r="1.45" fill="#7c3aed" fill-opacity="0.46"/>
<circle cx="277.1" cy="86.0" r="1.45" fill="#7c3aed" fill-opacity="0.46"/>
<circle cx="280.2" cy="86.0" r="1.45" fill="#7c3aed" fill-opacity="0.46"/>
<circle cx="283.2" cy="86.0" r="1.45" fill="#7c3aed" fill-opacity="0.46"/>
<circle cx="258.8" cy="86.0" r="1.45" fill="#7c3aed" fill-opacity="0.46"/>
<circle cx="261.8" cy="86.0" r="1.45" fill="#7c3aed" fill-opacity="0.46"/>
<circle cx="264.9" cy="86.0" r="1.45" fill="#7c3aed" fill-opacity="0.46"/>
<circle cx="267.9" cy="86.0" r="1.45" fill="#7c3aed" fill-opacity="0.46"/>
<circle cx="271.0" cy="86.0" r="1.45" fill="#7c3aed" fill-opacity="0.46"/>
<circle cx="274.1" cy="86.0" r="1.45" fill="#7c3aed" fill-opacity="0.46"/>
<circle cx="277.1" cy="86.0" r="1.45" fill="#7c3aed" fill-opacity="0.46"/>
<circle cx="280.2" cy="86.0" r="1.45" fill="#7c3aed" fill-opacity="0.46"/>
<circle cx="283.2" cy="86.0" r="1.45" fill="#7c3aed" fill-opacity="0.46"/>
<circle cx="258.8" cy="86.0" r="1.45" fill="#7c3aed" fill-opacity="0.46"/>
<line x1="271.0" y1="86.0" x2="271.0" y2="86.0" stroke="#7c3aed" stroke-opacity="0.86" stroke-width="1.8"/>
<line x1="258.8" y1="86.0" x2="283.2" y2="86.0" stroke="#7c3aed" stroke-opacity="0.86" stroke-width="1.8"/>
<line x1="258.8" y1="86.0" x2="283.2" y2="86.0" stroke="#7c3aed" stroke-opacity="0.86" stroke-width="1.8"/>
<rect x="254.0" y="86.0" width="34.0" height="1.0" rx="2" fill="#7c3aed" fill-opacity="0.18" stroke="#7c3aed" stroke-opacity="0.9" stroke-width="1.8"/>
<line x1="254.0" y1="86.0" x2="288.0" y2="86.0" stroke="#7c3aed" stroke-opacity="0.96" stroke-width="2.6"/>
<text x="294.0" y="90.0" text-anchor="start" font-family="Inter,Segoe UI,Arial,sans-serif" font-size="11" font-weight="700" fill="#111827" stroke="#ffffff" stroke-width="3" paint-order="stroke">100.0%</text>
<circle cx="389.8" cy="86.0" r="1.45" fill="#1e3a8a" fill-opacity="0.46"/>
<circle cx="392.8" cy="86.0" r="1.45" fill="#1e3a8a" fill-opacity="0.46"/>
<circle cx="395.9" cy="86.0" r="1.45" fill="#1e3a8a" fill-opacity="0.46"/>
<circle cx="398.9" cy="86.0" r="1.45" fill="#1e3a8a" fill-opacity="0.46"/>
<circle cx="402.0" cy="86.0" r="1.45" fill="#1e3a8a" fill-opacity="0.46"/>
<circle cx="405.1" cy="86.0" r="1.45" fill="#1e3a8a" fill-opacity="0.46"/>
<circle cx="408.1" cy="86.0" r="1.45" fill="#1e3a8a" fill-opacity="0.46"/>
<circle cx="411.2" cy="86.0" r="1.45" fill="#1e3a8a" fill-opacity="0.46"/>
<circle cx="414.2" cy="86.0" r="1.45" fill="#1e3a8a" fill-opacity="0.46"/>
<circle cx="389.8" cy="86.0" r="1.45" fill="#1e3a8a" fill-opacity="0.46"/>
<circle cx="392.8" cy="86.0" r="1.45" fill="#1e3a8a" fill-opacity="0.46"/>
<circle cx="395.9" cy="86.0" r="1.45" fill="#1e3a8a" fill-opacity="0.46"/>
<circle cx="398.9" cy="86.0" r="1.45" fill="#1e3a8a" fill-opacity="0.46"/>
<circle cx="402.0" cy="86.0" r="1.45" fill="#1e3a8a" fill-opacity="0.46"/>
<circle cx="405.1" cy="86.0" r="1.45" fill="#1e3a8a" fill-opacity="0.46"/>
<circle cx="408.1" cy="86.0" r="1.45" fill="#1e3a8a" fill-opacity="0.46"/>
<circle cx="411.2" cy="86.0" r="1.45" fill="#1e3a8a" fill-opacity="0.46"/>
<circle cx="414.2" cy="86.0" r="1.45" fill="#1e3a8a" fill-opacity="0.46"/>
<circle cx="389.8" cy="86.0" r="1.45" fill="#1e3a8a" fill-opacity="0.46"/>
<circle cx="392.8" cy="86.0" r="1.45" fill="#1e3a8a" fill-opacity="0.46"/>
<circle cx="395.9" cy="86.0" r="1.45" fill="#1e3a8a" fill-opacity="0.46"/>
<circle cx="398.9" cy="86.0" r="1.45" fill="#1e3a8a" fill-opacity="0.46"/>
<circle cx="402.0" cy="86.0" r="1.45" fill="#1e3a8a" fill-opacity="0.46"/>
<circle cx="405.1" cy="86.0" r="1.45" fill="#1e3a8a" fill-opacity="0.46"/>
<circle cx="408.1" cy="86.0" r="1.45" fill="#1e3a8a" fill-opacity="0.46"/>
<circle cx="411.2" cy="86.0" r="1.45" fill="#1e3a8a" fill-opacity="0.46"/>
<circle cx="414.2" cy="86.0" r="1.45" fill="#1e3a8a" fill-opacity="0.46"/>
<circle cx="389.8" cy="86.0" r="1.45" fill="#1e3a8a" fill-opacity="0.46"/>
<circle cx="392.8" cy="86.0" r="1.45" fill="#1e3a8a" fill-opacity="0.46"/>
<circle cx="395.9" cy="86.0" r="1.45" fill="#1e3a8a" fill-opacity="0.46"/>
<circle cx="398.9" cy="86.0" r="1.45" fill="#1e3a8a" fill-opacity="0.46"/>
<circle cx="402.0" cy="86.0" r="1.45" fill="#1e3a8a" fill-opacity="0.46"/>
<circle cx="405.1" cy="86.0" r="1.45" fill="#1e3a8a" fill-opacity="0.46"/>
<circle cx="408.1" cy="86.0" r="1.45" fill="#1e3a8a" fill-opacity="0.46"/>
<circle cx="411.2" cy="86.0" r="1.45" fill="#1e3a8a" fill-opacity="0.46"/>
<circle cx="414.2" cy="86.0" r="1.45" fill="#1e3a8a" fill-opacity="0.46"/>
<circle cx="389.8" cy="86.0" r="1.45" fill="#1e3a8a" fill-opacity="0.46"/>
<circle cx="392.8" cy="86.0" r="1.45" fill="#1e3a8a" fill-opacity="0.46"/>
<circle cx="395.9" cy="86.0" r="1.45" fill="#1e3a8a" fill-opacity="0.46"/>
<circle cx="398.9" cy="86.0" r="1.45" fill="#1e3a8a" fill-opacity="0.46"/>
<circle cx="402.0" cy="86.0" r="1.45" fill="#1e3a8a" fill-opacity="0.46"/>
<circle cx="405.1" cy="86.0" r="1.45" fill="#1e3a8a" fill-opacity="0.46"/>
<circle cx="408.1" cy="86.0" r="1.45" fill="#1e3a8a" fill-opacity="0.46"/>
<circle cx="411.2" cy="86.0" r="1.45" fill="#1e3a8a" fill-opacity="0.46"/>
<circle cx="414.2" cy="86.0" r="1.45" fill="#1e3a8a" fill-opacity="0.46"/>
<circle cx="389.8" cy="86.0" r="1.45" fill="#1e3a8a" fill-opacity="0.46"/>
<circle cx="392.8" cy="86.0" r="1.45" fill="#1e3a8a" fill-opacity="0.46"/>
<circle cx="395.9" cy="86.0" r="1.45" fill="#1e3a8a" fill-opacity="0.46"/>
<circle cx="398.9" cy="86.0" r="1.45" fill="#1e3a8a" fill-opacity="0.46"/>
<circle cx="402.0" cy="86.0" r="1.45" fill="#1e3a8a" fill-opacity="0.46"/>
<circle cx="405.1" cy="86.0" r="1.45" fill="#1e3a8a" fill-opacity="0.46"/>
<circle cx="408.1" cy="86.0" r="1.45" fill="#1e3a8a" fill-opacity="0.46"/>
<circle cx="411.2" cy="86.0" r="1.45" fill="#1e3a8a" fill-opacity="0.46"/>
<circle cx="414.2" cy="86.0" r="1.45" fill="#1e3a8a" fill-opacity="0.46"/>
<circle cx="389.8" cy="86.0" r="1.45" fill="#1e3a8a" fill-opacity="0.46"/>
<line x1="402.0" y1="86.0" x2="402.0" y2="86.0" stroke="#1e3a8a" stroke-opacity="0.86" stroke-width="1.8"/>
<line x1="389.8" y1="86.0" x2="414.2" y2="86.0" stroke="#1e3a8a" stroke-opacity="0.86" stroke-width="1.8"/>
<line x1="389.8" y1="86.0" x2="414.2" y2="86.0" stroke="#1e3a8a" stroke-opacity="0.86" stroke-width="1.8"/>
<rect x="385.0" y="86.0" width="34.0" height="1.0" rx="2" fill="#1e3a8a" fill-opacity="0.18" stroke="#1e3a8a" stroke-opacity="0.9" stroke-width="1.8"/>
<line x1="385.0" y1="86.0" x2="419.0" y2="86.0" stroke="#1e3a8a" stroke-opacity="0.96" stroke-width="2.6"/>
<text x="425.0" y="90.0" text-anchor="start" font-family="Inter,Segoe UI,Arial,sans-serif" font-size="11" font-weight="700" fill="#111827" stroke="#ffffff" stroke-width="3" paint-order="stroke">100.0%</text>
<circle cx="520.8" cy="86.0" r="1.45" fill="#f97316" fill-opacity="0.46"/>
<circle cx="523.8" cy="88.5" r="1.45" fill="#f97316" fill-opacity="0.46"/>
<circle cx="526.9" cy="86.0" r="1.45" fill="#f97316" fill-opacity="0.46"/>
<circle cx="529.9" cy="87.1" r="1.45" fill="#f97316" fill-opacity="0.46"/>
<circle cx="533.0" cy="88.1" r="1.45" fill="#f97316" fill-opacity="0.46"/>
<circle cx="536.1" cy="125.9" r="1.45" fill="#f97316" fill-opacity="0.46"/>
<circle cx="539.1" cy="126.7" r="1.45" fill="#f97316" fill-opacity="0.46"/>
<circle cx="542.2" cy="101.2" r="1.45" fill="#f97316" fill-opacity="0.46"/>
<circle cx="545.2" cy="97.5" r="1.45" fill="#f97316" fill-opacity="0.46"/>
<circle cx="520.8" cy="108.4" r="1.45" fill="#f97316" fill-opacity="0.46"/>
<circle cx="523.8" cy="94.1" r="1.45" fill="#f97316" fill-opacity="0.46"/>
<circle cx="526.9" cy="88.5" r="1.45" fill="#f97316" fill-opacity="0.46"/>
<circle cx="529.9" cy="91.0" r="1.45" fill="#f97316" fill-opacity="0.46"/>
<circle cx="533.0" cy="92.0" r="1.45" fill="#f97316" fill-opacity="0.46"/>
<circle cx="536.1" cy="87.1" r="1.45" fill="#f97316" fill-opacity="0.46"/>
<circle cx="539.1" cy="91.7" r="1.45" fill="#f97316" fill-opacity="0.46"/>
<circle cx="542.2" cy="92.0" r="1.45" fill="#f97316" fill-opacity="0.46"/>
<circle cx="545.2" cy="93.4" r="1.45" fill="#f97316" fill-opacity="0.46"/>
<circle cx="520.8" cy="88.1" r="1.45" fill="#f97316" fill-opacity="0.46"/>
<circle cx="523.8" cy="91.0" r="1.45" fill="#f97316" fill-opacity="0.46"/>
<circle cx="526.9" cy="110.4" r="1.45" fill="#f97316" fill-opacity="0.46"/>
<circle cx="529.9" cy="99.5" r="1.45" fill="#f97316" fill-opacity="0.46"/>
<circle cx="533.0" cy="93.8" r="1.45" fill="#f97316" fill-opacity="0.46"/>
<circle cx="536.1" cy="104.8" r="1.45" fill="#f97316" fill-opacity="0.46"/>
<circle cx="539.1" cy="108.4" r="1.45" fill="#f97316" fill-opacity="0.46"/>
<circle cx="542.2" cy="100.6" r="1.45" fill="#f97316" fill-opacity="0.46"/>
<circle cx="545.2" cy="95.1" r="1.45" fill="#f97316" fill-opacity="0.46"/>
<circle cx="520.8" cy="93.7" r="1.45" fill="#f97316" fill-opacity="0.46"/>
<circle cx="523.8" cy="97.9" r="1.45" fill="#f97316" fill-opacity="0.46"/>
<circle cx="526.9" cy="103.5" r="1.45" fill="#f97316" fill-opacity="0.46"/>
<circle cx="529.9" cy="104.5" r="1.45" fill="#f97316" fill-opacity="0.46"/>
<circle cx="533.0" cy="100.6" r="1.45" fill="#f97316" fill-opacity="0.46"/>
<circle cx="536.1" cy="90.3" r="1.45" fill="#f97316" fill-opacity="0.46"/>
<circle cx="539.1" cy="116.7" r="1.45" fill="#f97316" fill-opacity="0.46"/>
<circle cx="542.2" cy="97.5" r="1.45" fill="#f97316" fill-opacity="0.46"/>
<circle cx="545.2" cy="95.8" r="1.45" fill="#f97316" fill-opacity="0.46"/>
<circle cx="520.8" cy="89.2" r="1.45" fill="#f97316" fill-opacity="0.46"/>
<circle cx="523.8" cy="90.2" r="1.45" fill="#f97316" fill-opacity="0.46"/>
<circle cx="526.9" cy="88.5" r="1.45" fill="#f97316" fill-opacity="0.46"/>
<circle cx="529.9" cy="92.7" r="1.45" fill="#f97316" fill-opacity="0.46"/>
<circle cx="533.0" cy="127.5" r="1.45" fill="#f97316" fill-opacity="0.46"/>
<circle cx="536.1" cy="134.7" r="1.45" fill="#f97316" fill-opacity="0.46"/>
<circle cx="539.1" cy="102.9" r="1.45" fill="#f97316" fill-opacity="0.46"/>
<circle cx="542.2" cy="150.8" r="1.45" fill="#f97316" fill-opacity="0.46"/>
<circle cx="545.2" cy="130.3" r="1.45" fill="#f97316" fill-opacity="0.46"/>
<circle cx="520.8" cy="157.3" r="1.45" fill="#f97316" fill-opacity="0.46"/>
<circle cx="523.8" cy="156.4" r="1.45" fill="#f97316" fill-opacity="0.46"/>
<circle cx="526.9" cy="121.9" r="1.45" fill="#f97316" fill-opacity="0.46"/>
<circle cx="529.9" cy="150.0" r="1.45" fill="#f97316" fill-opacity="0.46"/>
<circle cx="533.0" cy="100.9" r="1.45" fill="#f97316" fill-opacity="0.46"/>
<circle cx="536.1" cy="147.9" r="1.45" fill="#f97316" fill-opacity="0.46"/>
<circle cx="539.1" cy="140.0" r="1.45" fill="#f97316" fill-opacity="0.46"/>
<circle cx="542.2" cy="142.5" r="1.45" fill="#f97316" fill-opacity="0.46"/>
<circle cx="545.2" cy="140.1" r="1.45" fill="#f97316" fill-opacity="0.46"/>
<circle cx="520.8" cy="174.0" r="1.45" fill="#f97316" fill-opacity="0.46"/>
<line x1="533.0" y1="86.0" x2="533.0" y2="174.0" stroke="#f97316" stroke-opacity="0.86" stroke-width="1.8"/>
<line x1="520.8" y1="86.0" x2="545.2" y2="86.0" stroke="#f97316" stroke-opacity="0.86" stroke-width="1.8"/>
<line x1="520.8" y1="174.0" x2="545.2" y2="174.0" stroke="#f97316" stroke-opacity="0.86" stroke-width="1.8"/>
<rect x="516.0" y="91.3" width="34.0" height="32.6" rx="2" fill="#f97316" fill-opacity="0.18" stroke="#f97316" stroke-opacity="0.9" stroke-width="1.8"/>
<line x1="516.0" y1="99.5" x2="550.0" y2="99.5" stroke="#f97316" stroke-opacity="0.96" stroke-width="2.6"/>
<text x="556.0" y="103.5" text-anchor="start" font-family="Inter,Segoe UI,Arial,sans-serif" font-size="11" font-weight="700" fill="#111827" stroke="#ffffff" stroke-width="3" paint-order="stroke">94.9%</text>
<circle cx="651.8" cy="136.8" r="1.45" fill="#eab308" fill-opacity="0.46"/>
<circle cx="654.8" cy="106.9" r="1.45" fill="#eab308" fill-opacity="0.46"/>
<circle cx="657.9" cy="114.1" r="1.45" fill="#eab308" fill-opacity="0.46"/>
<circle cx="660.9" cy="123.3" r="1.45" fill="#eab308" fill-opacity="0.46"/>
<circle cx="664.0" cy="111.3" r="1.45" fill="#eab308" fill-opacity="0.46"/>
<circle cx="667.1" cy="94.3" r="1.45" fill="#eab308" fill-opacity="0.46"/>
<circle cx="670.1" cy="142.5" r="1.45" fill="#eab308" fill-opacity="0.46"/>
<circle cx="673.2" cy="134.7" r="1.45" fill="#eab308" fill-opacity="0.46"/>
<circle cx="676.2" cy="94.5" r="1.45" fill="#eab308" fill-opacity="0.46"/>
<circle cx="651.8" cy="138.5" r="1.45" fill="#eab308" fill-opacity="0.46"/>
<circle cx="654.8" cy="135.1" r="1.45" fill="#eab308" fill-opacity="0.46"/>
<circle cx="657.9" cy="147.4" r="1.45" fill="#eab308" fill-opacity="0.46"/>
<circle cx="660.9" cy="133.6" r="1.45" fill="#eab308" fill-opacity="0.46"/>
<circle cx="664.0" cy="129.7" r="1.45" fill="#eab308" fill-opacity="0.46"/>
<circle cx="667.1" cy="142.7" r="1.45" fill="#eab308" fill-opacity="0.46"/>
<circle cx="670.1" cy="126.9" r="1.45" fill="#eab308" fill-opacity="0.46"/>
<circle cx="673.2" cy="117.2" r="1.45" fill="#eab308" fill-opacity="0.46"/>
<circle cx="676.2" cy="139.2" r="1.45" fill="#eab308" fill-opacity="0.46"/>
<circle cx="651.8" cy="93.9" r="1.45" fill="#eab308" fill-opacity="0.46"/>
<circle cx="654.8" cy="132.2" r="1.45" fill="#eab308" fill-opacity="0.46"/>
<circle cx="657.9" cy="86.3" r="1.45" fill="#eab308" fill-opacity="0.46"/>
<circle cx="660.9" cy="86.3" r="1.45" fill="#eab308" fill-opacity="0.46"/>
<circle cx="664.0" cy="86.3" r="1.45" fill="#eab308" fill-opacity="0.46"/>
<circle cx="667.1" cy="86.3" r="1.45" fill="#eab308" fill-opacity="0.46"/>
<circle cx="670.1" cy="86.3" r="1.45" fill="#eab308" fill-opacity="0.46"/>
<circle cx="673.2" cy="95.9" r="1.45" fill="#eab308" fill-opacity="0.46"/>
<circle cx="676.2" cy="111.4" r="1.45" fill="#eab308" fill-opacity="0.46"/>
<circle cx="651.8" cy="106.9" r="1.45" fill="#eab308" fill-opacity="0.46"/>
<circle cx="654.8" cy="101.3" r="1.45" fill="#eab308" fill-opacity="0.46"/>
<circle cx="657.9" cy="93.7" r="1.45" fill="#eab308" fill-opacity="0.46"/>
<circle cx="660.9" cy="101.3" r="1.45" fill="#eab308" fill-opacity="0.46"/>
<circle cx="664.0" cy="105.9" r="1.45" fill="#eab308" fill-opacity="0.46"/>
<circle cx="667.1" cy="107.4" r="1.45" fill="#eab308" fill-opacity="0.46"/>
<circle cx="670.1" cy="110.2" r="1.45" fill="#eab308" fill-opacity="0.46"/>
<circle cx="673.2" cy="101.9" r="1.45" fill="#eab308" fill-opacity="0.46"/>
<circle cx="676.2" cy="87.0" r="1.45" fill="#eab308" fill-opacity="0.46"/>
<circle cx="651.8" cy="87.0" r="1.45" fill="#eab308" fill-opacity="0.46"/>
<circle cx="654.8" cy="87.0" r="1.45" fill="#eab308" fill-opacity="0.46"/>
<circle cx="657.9" cy="87.0" r="1.45" fill="#eab308" fill-opacity="0.46"/>
<circle cx="660.9" cy="87.0" r="1.45" fill="#eab308" fill-opacity="0.46"/>
<circle cx="664.0" cy="95.2" r="1.45" fill="#eab308" fill-opacity="0.46"/>
<circle cx="667.1" cy="102.2" r="1.45" fill="#eab308" fill-opacity="0.46"/>
<circle cx="670.1" cy="103.5" r="1.45" fill="#eab308" fill-opacity="0.46"/>
<circle cx="673.2" cy="93.9" r="1.45" fill="#eab308" fill-opacity="0.46"/>
<circle cx="676.2" cy="115.1" r="1.45" fill="#eab308" fill-opacity="0.46"/>
<circle cx="651.8" cy="119.1" r="1.45" fill="#eab308" fill-opacity="0.46"/>
<circle cx="654.8" cy="114.2" r="1.45" fill="#eab308" fill-opacity="0.46"/>
<circle cx="657.9" cy="120.5" r="1.45" fill="#eab308" fill-opacity="0.46"/>
<circle cx="660.9" cy="108.1" r="1.45" fill="#eab308" fill-opacity="0.46"/>
<circle cx="664.0" cy="117.4" r="1.45" fill="#eab308" fill-opacity="0.46"/>
<circle cx="667.1" cy="109.7" r="1.45" fill="#eab308" fill-opacity="0.46"/>
<circle cx="670.1" cy="107.5" r="1.45" fill="#eab308" fill-opacity="0.46"/>
<circle cx="673.2" cy="127.4" r="1.45" fill="#eab308" fill-opacity="0.46"/>
<circle cx="676.2" cy="112.0" r="1.45" fill="#eab308" fill-opacity="0.46"/>
<circle cx="651.8" cy="114.2" r="1.45" fill="#eab308" fill-opacity="0.46"/>
<line x1="664.0" y1="86.3" x2="664.0" y2="147.4" stroke="#eab308" stroke-opacity="0.86" stroke-width="1.8"/>
<line x1="651.8" y1="86.3" x2="676.2" y2="86.3" stroke="#eab308" stroke-opacity="0.86" stroke-width="1.8"/>
<line x1="651.8" y1="147.4" x2="676.2" y2="147.4" stroke="#eab308" stroke-opacity="0.86" stroke-width="1.8"/>
<rect x="647.0" y="94.4" width="34.0" height="27.5" rx="2" fill="#eab308" fill-opacity="0.18" stroke="#eab308" stroke-opacity="0.9" stroke-width="1.8"/>
<line x1="647.0" y1="108.1" x2="681.0" y2="108.1" stroke="#eab308" stroke-opacity="0.96" stroke-width="2.6"/>
<text x="687.0" y="112.1" text-anchor="start" font-family="Inter,Segoe UI,Arial,sans-serif" font-size="11" font-weight="700" fill="#111827" stroke="#ffffff" stroke-width="3" paint-order="stroke">91.8%</text>
<rect x="64.0" y="433" width="10" height="10" rx="2" fill="#14532d" fill-opacity="0.72"/>
<text x="78.0" y="442" font-family="Inter,Segoe UI,Arial,sans-serif" font-size="10" fill="#374151">MTPLX 0.3.7</text>
<rect x="199.2" y="433" width="10" height="10" rx="2" fill="#7c3aed" fill-opacity="0.72"/>
<text x="213.2" y="442" font-family="Inter,Segoe UI,Arial,sans-serif" font-size="10" fill="#374151">Lightning v0.6.10</text>
<rect x="334.4" y="433" width="10" height="10" rx="2" fill="#1e3a8a" fill-opacity="0.72"/>
<text x="348.4" y="442" font-family="Inter,Segoe UI,Arial,sans-serif" font-size="10" fill="#374151">Lightning+ng v0.6.10</text>
<rect x="469.6" y="433" width="10" height="10" rx="2" fill="#f97316" fill-opacity="0.72"/>
<text x="483.6" y="442" font-family="Inter,Segoe UI,Arial,sans-serif" font-size="10" fill="#374151">AX Engine v5.1.0</text>
<rect x="604.8" y="433" width="10" height="10" rx="2" fill="#eab308" fill-opacity="0.72"/>
<text x="618.8" y="442" font-family="Inter,Segoe UI,Arial,sans-serif" font-size="10" fill="#374151">AX+ngram v5.1.0</text>
</svg>
