<svg xmlns="http://www.w3.org/2000/svg" width="920" height="430" viewBox="0 0 920 430" role="img" aria-labelledby="title desc">
<title>Gemma 4 12B multimodal chat latency</title>
<desc>OpenAI chat E2E, AX native MLX vs llama.cpp Metal 10 measured peer case(s).</desc>
<rect width="100%" height="100%" fill="#f8fafc"/>
<text id="title" x="82" y="28" font-family="Inter,Segoe UI,Arial,sans-serif" font-size="16" font-weight="700" fill="#111827">Gemma 4 12B multimodal chat latency</text>
<text x="82" y="48" font-family="Inter,Segoe UI,Arial,sans-serif" font-size="11" fill="#4b5563">OpenAI chat E2E, AX native MLX vs llama.cpp Metal</text>
<text x="888" y="31" text-anchor="end" font-family="Inter,Segoe UI,Arial,sans-serif" font-size="10" font-weight="700" fill="#dc2626">Lower is better</text>
<rect x="82" y="82" width="658" height="230" rx="6" fill="#ffffff" stroke="#dbe3ef"/>
<line x1="82" y1="312.0" x2="740" y2="312.0" stroke="#e5e7eb" stroke-width="1"/>
<text x="72" y="316.0" text-anchor="end" font-family="Inter,Segoe UI,Arial,sans-serif" font-size="11" fill="#6b7280">0.00</text>
<line x1="82" y1="254.5" x2="740" y2="254.5" stroke="#e5e7eb" stroke-width="1"/>
<text x="72" y="258.5" text-anchor="end" font-family="Inter,Segoe UI,Arial,sans-serif" font-size="11" fill="#6b7280">625.0</text>
<line x1="82" y1="197.0" x2="740" y2="197.0" stroke="#e5e7eb" stroke-width="1"/>
<text x="72" y="201.0" text-anchor="end" font-family="Inter,Segoe UI,Arial,sans-serif" font-size="11" fill="#6b7280">1,250</text>
<line x1="82" y1="139.5" x2="740" y2="139.5" stroke="#e5e7eb" stroke-width="1"/>
<text x="72" y="143.5" text-anchor="end" font-family="Inter,Segoe UI,Arial,sans-serif" font-size="11" fill="#6b7280">1,875</text>
<line x1="82" y1="82.0" x2="740" y2="82.0" stroke="#e5e7eb" stroke-width="1"/>
<text x="72" y="86.0" text-anchor="end" font-family="Inter,Segoe UI,Arial,sans-serif" font-size="11" fill="#6b7280">2,500</text>
<rect x="96.0" y="178.5" width="23.2" height="133.5" rx="3" fill="#2eaf5f" fill-opacity="0.30" stroke="#176c37" stroke-width="1.5"/>
<line x1="96.0" y1="178.5" x2="119.2" y2="178.5" stroke="#176c37" stroke-width="2"/>
<text x="107.6" y="172.5" text-anchor="middle" font-family="Inter,Segoe UI,Arial,sans-serif" font-size="8" font-weight="700" fill="#111827">1,451</text>
<rect x="123.2" y="277.9" width="23.2" height="34.1" rx="3" fill="#3b82f6" fill-opacity="0.30" stroke="#1d4ed8" stroke-width="1.5"/>
<line x1="123.2" y1="277.9" x2="146.4" y2="277.9" stroke="#1d4ed8" stroke-width="2"/>
<text x="134.8" y="271.9" text-anchor="middle" font-family="Inter,Segoe UI,Arial,sans-serif" font-size="8" font-weight="700" fill="#111827">370.1</text>
<text x="121.2" y="330.0" text-anchor="middle" font-family="Inter,Segoe UI,Arial,sans-serif" font-size="9" fill="#111827" transform="rotate(45 121.2 330.0)">image_single_256soft</text>
<rect x="160.4" y="155.1" width="23.2" height="156.9" rx="3" fill="#2eaf5f" fill-opacity="0.30" stroke="#176c37" stroke-width="1.5"/>
<line x1="160.4" y1="155.1" x2="183.6" y2="155.1" stroke="#176c37" stroke-width="2"/>
<text x="172.0" y="149.1" text-anchor="middle" font-family="Inter,Segoe UI,Arial,sans-serif" font-size="8" font-weight="700" fill="#111827">1,705</text>
<rect x="187.6" y="267.6" width="23.2" height="44.4" rx="3" fill="#3b82f6" fill-opacity="0.30" stroke="#1d4ed8" stroke-width="1.5"/>
<line x1="187.6" y1="267.6" x2="210.8" y2="267.6" stroke="#1d4ed8" stroke-width="2"/>
<text x="199.2" y="261.6" text-anchor="middle" font-family="Inter,Segoe UI,Arial,sans-serif" font-size="8" font-weight="700" fill="#111827">482.3</text>
<text x="185.6" y="330.0" text-anchor="middle" font-family="Inter,Segoe UI,Arial,sans-serif" font-size="9" fill="#111827" transform="rotate(45 185.6 330.0)">image_multi_2x256soft</text>
<rect x="224.8" y="167.1" width="23.2" height="144.9" rx="3" fill="#2eaf5f" fill-opacity="0.30" stroke="#176c37" stroke-width="1.5"/>
<line x1="224.8" y1="167.1" x2="248.0" y2="167.1" stroke="#176c37" stroke-width="2"/>
<text x="236.4" y="161.1" text-anchor="middle" font-family="Inter,Segoe UI,Arial,sans-serif" font-size="8" font-weight="700" fill="#111827">1,574</text>
<rect x="252.0" y="278.4" width="23.2" height="33.6" rx="3" fill="#3b82f6" fill-opacity="0.30" stroke="#1d4ed8" stroke-width="1.5"/>
<line x1="252.0" y1="278.4" x2="275.2" y2="278.4" stroke="#1d4ed8" stroke-width="2"/>
<text x="263.6" y="272.4" text-anchor="middle" font-family="Inter,Segoe UI,Arial,sans-serif" font-size="8" font-weight="700" fill="#111827">364.9</text>
<text x="250.0" y="330.0" text-anchor="middle" font-family="Inter,Segoe UI,Arial,sans-serif" font-size="9" fill="#111827" transform="rotate(45 250.0 330.0)">image_aspect_portrait</text>
<rect x="289.2" y="165.3" width="23.2" height="146.7" rx="3" fill="#2eaf5f" fill-opacity="0.30" stroke="#176c37" stroke-width="1.5"/>
<line x1="289.2" y1="165.3" x2="312.4" y2="165.3" stroke="#176c37" stroke-width="2"/>
<text x="300.8" y="159.3" text-anchor="middle" font-family="Inter,Segoe UI,Arial,sans-serif" font-size="8" font-weight="700" fill="#111827">1,594</text>
<rect x="316.4" y="276.5" width="23.2" height="35.5" rx="3" fill="#3b82f6" fill-opacity="0.30" stroke="#1d4ed8" stroke-width="1.5"/>
<line x1="316.4" y1="276.5" x2="339.6" y2="276.5" stroke="#1d4ed8" stroke-width="2"/>
<text x="328.0" y="270.5" text-anchor="middle" font-family="Inter,Segoe UI,Arial,sans-serif" font-size="8" font-weight="700" fill="#111827">386.1</text>
<text x="314.4" y="330.0" text-anchor="middle" font-family="Inter,Segoe UI,Arial,sans-serif" font-size="9" fill="#111827" transform="rotate(45 314.4 330.0)">image_aspect_landscape</text>
<rect x="353.6" y="164.9" width="23.2" height="147.1" rx="3" fill="#2eaf5f" fill-opacity="0.30" stroke="#176c37" stroke-width="1.5"/>
<line x1="353.6" y1="164.9" x2="376.8" y2="164.9" stroke="#176c37" stroke-width="2"/>
<text x="365.2" y="158.9" text-anchor="middle" font-family="Inter,Segoe UI,Arial,sans-serif" font-size="8" font-weight="700" fill="#111827">1,599</text>
<rect x="380.8" y="274.0" width="23.2" height="38.0" rx="3" fill="#3b82f6" fill-opacity="0.30" stroke="#1d4ed8" stroke-width="1.5"/>
<line x1="380.8" y1="274.0" x2="404.0" y2="274.0" stroke="#1d4ed8" stroke-width="2"/>
<text x="392.4" y="268.0" text-anchor="middle" font-family="Inter,Segoe UI,Arial,sans-serif" font-size="8" font-weight="700" fill="#111827">412.5</text>
<text x="378.8" y="330.0" text-anchor="middle" font-family="Inter,Segoe UI,Arial,sans-serif" font-size="9" fill="#111827" transform="rotate(45 378.8 330.0)">image_max_soft_tokens</text>
<rect x="418.0" y="178.4" width="23.2" height="133.6" rx="3" fill="#2eaf5f" fill-opacity="0.30" stroke="#176c37" stroke-width="1.5"/>
<line x1="418.0" y1="178.4" x2="441.2" y2="178.4" stroke="#176c37" stroke-width="2"/>
<text x="429.6" y="172.4" text-anchor="middle" font-family="Inter,Segoe UI,Arial,sans-serif" font-size="8" font-weight="700" fill="#111827">1,452</text>
<rect x="445.2" y="282.7" width="23.2" height="29.3" rx="3" fill="#3b82f6" fill-opacity="0.30" stroke="#1d4ed8" stroke-width="1.5"/>
<line x1="445.2" y1="282.7" x2="468.4" y2="282.7" stroke="#1d4ed8" stroke-width="2"/>
<text x="456.8" y="276.7" text-anchor="middle" font-family="Inter,Segoe UI,Arial,sans-serif" font-size="8" font-weight="700" fill="#111827">318.5</text>
<text x="443.2" y="330.0" text-anchor="middle" font-family="Inter,Segoe UI,Arial,sans-serif" font-size="9" fill="#111827" transform="rotate(45 443.2 330.0)">audio_0_5s</text>
<rect x="482.4" y="173.8" width="23.2" height="138.2" rx="3" fill="#2eaf5f" fill-opacity="0.30" stroke="#176c37" stroke-width="1.5"/>
<line x1="482.4" y1="173.8" x2="505.6" y2="173.8" stroke="#176c37" stroke-width="2"/>
<text x="494.0" y="167.8" text-anchor="middle" font-family="Inter,Segoe UI,Arial,sans-serif" font-size="8" font-weight="700" fill="#111827">1,503</text>
<rect x="509.6" y="277.9" width="23.2" height="34.1" rx="3" fill="#3b82f6" fill-opacity="0.30" stroke="#1d4ed8" stroke-width="1.5"/>
<line x1="509.6" y1="277.9" x2="532.8" y2="277.9" stroke="#1d4ed8" stroke-width="2"/>
<text x="521.2" y="271.9" text-anchor="middle" font-family="Inter,Segoe UI,Arial,sans-serif" font-size="8" font-weight="700" fill="#111827">370.5</text>
<text x="507.6" y="330.0" text-anchor="middle" font-family="Inter,Segoe UI,Arial,sans-serif" font-size="9" fill="#111827" transform="rotate(45 507.6 330.0)">audio_2s</text>
<rect x="546.8" y="168.9" width="23.2" height="143.1" rx="3" fill="#2eaf5f" fill-opacity="0.30" stroke="#176c37" stroke-width="1.5"/>
<line x1="546.8" y1="168.9" x2="570.0" y2="168.9" stroke="#176c37" stroke-width="2"/>
<text x="558.4" y="162.9" text-anchor="middle" font-family="Inter,Segoe UI,Arial,sans-serif" font-size="8" font-weight="700" fill="#111827">1,555</text>
<rect x="574.0" y="294.5" width="23.2" height="17.5" rx="3" fill="#3b82f6" fill-opacity="0.30" stroke="#1d4ed8" stroke-width="1.5"/>
<line x1="574.0" y1="294.5" x2="597.2" y2="294.5" stroke="#1d4ed8" stroke-width="2"/>
<text x="585.6" y="288.5" text-anchor="middle" font-family="Inter,Segoe UI,Arial,sans-serif" font-size="8" font-weight="700" fill="#111827">190.7</text>
<text x="572.0" y="330.0" text-anchor="middle" font-family="Inter,Segoe UI,Arial,sans-serif" font-size="9" fill="#111827" transform="rotate(45 572.0 330.0)">audio_10s</text>
<rect x="611.2" y="144.1" width="23.2" height="167.9" rx="3" fill="#2eaf5f" fill-opacity="0.30" stroke="#176c37" stroke-width="1.5"/>
<line x1="611.2" y1="144.1" x2="634.4" y2="144.1" stroke="#176c37" stroke-width="2"/>
<text x="622.8" y="138.1" text-anchor="middle" font-family="Inter,Segoe UI,Arial,sans-serif" font-size="8" font-weight="700" fill="#111827">1,825</text>
<rect x="638.4" y="292.3" width="23.2" height="19.7" rx="3" fill="#3b82f6" fill-opacity="0.30" stroke="#1d4ed8" stroke-width="1.5"/>
<line x1="638.4" y1="292.3" x2="661.6" y2="292.3" stroke="#1d4ed8" stroke-width="2"/>
<text x="650.0" y="286.3" text-anchor="middle" font-family="Inter,Segoe UI,Arial,sans-serif" font-size="8" font-weight="700" fill="#111827">214.1</text>
<text x="636.4" y="330.0" text-anchor="middle" font-family="Inter,Segoe UI,Arial,sans-serif" font-size="9" fill="#111827" transform="rotate(45 636.4 330.0)">audio_cap</text>
<rect x="675.6" y="166.3" width="23.2" height="145.7" rx="3" fill="#2eaf5f" fill-opacity="0.30" stroke="#176c37" stroke-width="1.5"/>
<line x1="675.6" y1="166.3" x2="698.8" y2="166.3" stroke="#176c37" stroke-width="2"/>
<text x="687.2" y="160.3" text-anchor="middle" font-family="Inter,Segoe UI,Arial,sans-serif" font-size="8" font-weight="700" fill="#111827">1,583</text>
<rect x="702.8" y="266.5" width="23.2" height="45.5" rx="3" fill="#3b82f6" fill-opacity="0.30" stroke="#1d4ed8" stroke-width="1.5"/>
<line x1="702.8" y1="266.5" x2="726.0" y2="266.5" stroke="#1d4ed8" stroke-width="2"/>
<text x="714.4" y="260.5" text-anchor="middle" font-family="Inter,Segoe UI,Arial,sans-serif" font-size="8" font-weight="700" fill="#111827">494.8</text>
<text x="700.8" y="330.0" text-anchor="middle" font-family="Inter,Segoe UI,Arial,sans-serif" font-size="9" fill="#111827" transform="rotate(45 700.8 330.0)">image_audio</text>
<rect x="756" y="102" width="12" height="12" rx="2" fill="#2eaf5f" fill-opacity="0.30" stroke="#176c37"/>
<text x="776" y="112" font-family="Inter,Segoe UI,Arial,sans-serif" font-size="11" fill="#374151">AX Engine</text>
<rect x="756" y="124" width="12" height="12" rx="2" fill="#3b82f6" fill-opacity="0.30" stroke="#1d4ed8"/>
<text x="776" y="134" font-family="Inter,Segoe UI,Arial,sans-serif" font-size="11" fill="#374151">llama.cpp</text>
<text x="756" y="172" font-family="Inter,Segoe UI,Arial,sans-serif" font-size="10" fill="#6b7280">unit: ms</text>
<text x="82" y="410" font-family="Inter,Segoe UI,Arial,sans-serif" font-size="10" fill="#6b7280">17 case(s), 3 reps, max_output_tokens=8</text>
</svg>
