<svg xmlns="http://www.w3.org/2000/svg" width="460" height="276" viewBox="0 0 460 276" role="img" aria-labelledby="title desc"><title>Prefill rate</title><desc>Box-and-Whisker Plot comparing llama.cpp Metal, mlx_lm, mlx_swift_lm, ax_engine, and ax_engine plus n-gram across 28 README benchmark rows. A red dotted horizontal line marks the ax_engine plus n-gram median.</desc><rect width="460" height="276" fill="#ffffff"/><text x="52" y="22" font-family="Inter,Segoe UI,Arial,sans-serif" font-size="16" font-weight="700" fill="#111827">Prefill rate</text><text x="442" y="22" text-anchor="end" font-family="Inter,Segoe UI,Arial,sans-serif" font-size="10" fill="#6b7280">tok/s</text><text x="442" y="40" text-anchor="end" font-family="Inter,Segoe UI,Arial,sans-serif" font-size="10" font-weight="700" fill="#374151">Higher is better</text><line x1="52" y1="206.0" x2="442" y2="206.0" stroke="#e5e7eb" stroke-width="1"/><text x="44" y="209.0" text-anchor="end" font-family="Inter,Segoe UI,Arial,sans-serif" font-size="10" fill="#6b7280">0</text><line x1="52" y1="126.0" x2="442" y2="126.0" stroke="#e5e7eb" stroke-width="1"/><text x="44" y="129.0" text-anchor="end" font-family="Inter,Segoe UI,Arial,sans-serif" font-size="10" fill="#6b7280">4.5k</text><line x1="52" y1="46.0" x2="442" y2="46.0" stroke="#e5e7eb" stroke-width="1"/><text x="44" y="49.0" text-anchor="end" font-family="Inter,Segoe UI,Arial,sans-serif" font-size="10" fill="#6b7280">9k</text><line x1="52" y1="158.5" x2="442" y2="158.5" stroke="#dc2626" stroke-width="1.2" stroke-dasharray="2 4"/><rect x="300" y="50" width="135" height="160" fill="none" stroke="#dc2626" stroke-width="1.4"/><line x1="78" y1="68.3" x2="78" y2="196.9" stroke="#f97316" stroke-width="2"/><line x1="68" y1="68.3" x2="88" y2="68.3" stroke="#f97316" stroke-width="2"/><line x1="68" y1="196.9" x2="88" y2="196.9" stroke="#f97316" stroke-width="2"/><rect x="61" y="144.5" width="34" height="31.2" rx="4" fill="#f97316" fill-opacity="0.18" stroke="#f97316" stroke-width="2"/><line x1="61" y1="155.5" x2="95" y2="155.5" stroke="#f97316" stroke-width="3"/><text x="78" y="230" text-anchor="middle" font-family="Inter,Segoe UI,Arial,sans-serif" font-size="9" fill="#111827">llama.cpp</text><text x="78" y="246" text-anchor="middle" font-family="Inter,Segoe UI,Arial,sans-serif" font-size="10" fill="#6b7280">med 2.8k</text><circle cx="69.5" cy="143.2" r="2" fill="#c2410c" fill-opacity="0.9"/><circle cx="73" cy="77.4" r="2" fill="#c2410c" fill-opacity="0.9"/><circle cx="76" cy="145.1" r="2" fill="#c2410c" fill-opacity="0.9"/><circle cx="79.5" cy="78.7" r="2" fill="#c2410c" fill-opacity="0.9"/><circle cx="83" cy="145.0" r="2" fill="#c2410c" fill-opacity="0.9"/><circle cx="86.5" cy="80.5" r="2" fill="#c2410c" fill-opacity="0.9"/><circle cx="71.5" cy="140.2" r="2" fill="#c2410c" fill-opacity="0.9"/><circle cx="81.5" cy="68.3" r="2" fill="#c2410c" fill-opacity="0.9"/><circle cx="69.5" cy="166.2" r="2" fill="#c2410c" fill-opacity="0.9"/><circle cx="73" cy="128.8" r="2" fill="#c2410c" fill-opacity="0.9"/><circle cx="76" cy="171.6" r="2" fill="#c2410c" fill-opacity="0.9"/><circle cx="79.5" cy="145.8" r="2" fill="#c2410c" fill-opacity="0.9"/><circle cx="83" cy="196.9" r="2" fill="#c2410c" fill-opacity="0.9"/><circle cx="86.5" cy="194.4" r="2" fill="#c2410c" fill-opacity="0.9"/><circle cx="71.5" cy="174.2" r="2" fill="#c2410c" fill-opacity="0.9"/><circle cx="81.5" cy="162.1" r="2" fill="#c2410c" fill-opacity="0.9"/><circle cx="69.5" cy="175.6" r="2" fill="#c2410c" fill-opacity="0.9"/><circle cx="73" cy="150.2" r="2" fill="#c2410c" fill-opacity="0.9"/><circle cx="76" cy="178.2" r="2" fill="#c2410c" fill-opacity="0.9"/><circle cx="79.5" cy="154.7" r="2" fill="#c2410c" fill-opacity="0.9"/><circle cx="83" cy="177.6" r="2" fill="#c2410c" fill-opacity="0.9"/><circle cx="86.5" cy="152.9" r="2" fill="#c2410c" fill-opacity="0.9"/><circle cx="71.5" cy="176.4" r="2" fill="#c2410c" fill-opacity="0.9"/><circle cx="81.5" cy="150.5" r="2" fill="#c2410c" fill-opacity="0.9"/><circle cx="69.5" cy="184.7" r="2" fill="#c2410c" fill-opacity="0.9"/><circle cx="73" cy="170.4" r="2" fill="#c2410c" fill-opacity="0.9"/><circle cx="76" cy="181.7" r="2" fill="#c2410c" fill-opacity="0.9"/><circle cx="79.5" cy="156.2" r="2" fill="#c2410c" fill-opacity="0.9"/><line x1="159.25" y1="57.0" x2="159.25" y2="200.6" stroke="#f2b705" stroke-width="2"/><line x1="149.25" y1="57.0" x2="169.25" y2="57.0" stroke="#f2b705" stroke-width="2"/><line x1="149.25" y1="200.6" x2="169.25" y2="200.6" stroke="#f2b705" stroke-width="2"/><rect x="142.25" y="163.6" width="34" height="31.3" rx="4" fill="#f2b705" fill-opacity="0.18" stroke="#f2b705" stroke-width="2"/><line x1="142.25" y1="177.5" x2="176.25" y2="177.5" stroke="#f2b705" stroke-width="3"/><text x="159.25" y="230" text-anchor="middle" font-family="Inter,Segoe UI,Arial,sans-serif" font-size="9" fill="#111827">mlx_lm</text><text x="159.25" y="246" text-anchor="middle" font-family="Inter,Segoe UI,Arial,sans-serif" font-size="10" fill="#6b7280">med 1.6k</text><circle cx="150.75" cy="159.5" r="2" fill="#9a6a00" fill-opacity="0.9"/><circle cx="154.25" cy="57.0" r="2" fill="#9a6a00" fill-opacity="0.9"/><circle cx="157.25" cy="157.8" r="2" fill="#9a6a00" fill-opacity="0.9"/><circle cx="160.75" cy="68.4" r="2" fill="#9a6a00" fill-opacity="0.9"/><circle cx="164.25" cy="165.0" r="2" fill="#9a6a00" fill-opacity="0.9"/><circle cx="167.75" cy="65.9" r="2" fill="#9a6a00" fill-opacity="0.9"/><circle cx="152.75" cy="167.1" r="2" fill="#9a6a00" fill-opacity="0.9"/><circle cx="162.75" cy="78.3" r="2" fill="#9a6a00" fill-opacity="0.9"/><circle cx="150.75" cy="175.0" r="2" fill="#9a6a00" fill-opacity="0.9"/><circle cx="154.25" cy="124.8" r="2" fill="#9a6a00" fill-opacity="0.9"/><circle cx="157.25" cy="192.9" r="2" fill="#9a6a00" fill-opacity="0.9"/><circle cx="160.75" cy="168.3" r="2" fill="#9a6a00" fill-opacity="0.9"/><circle cx="164.25" cy="199.5" r="2" fill="#9a6a00" fill-opacity="0.9"/><circle cx="167.75" cy="194.6" r="2" fill="#9a6a00" fill-opacity="0.9"/><circle cx="152.75" cy="188.8" r="2" fill="#9a6a00" fill-opacity="0.9"/><circle cx="162.75" cy="174.2" r="2" fill="#9a6a00" fill-opacity="0.9"/><circle cx="150.75" cy="195.8" r="2" fill="#9a6a00" fill-opacity="0.9"/><circle cx="154.25" cy="176.1" r="2" fill="#9a6a00" fill-opacity="0.9"/><circle cx="157.25" cy="197.1" r="2" fill="#9a6a00" fill-opacity="0.9"/><circle cx="160.75" cy="178.1" r="2" fill="#9a6a00" fill-opacity="0.9"/><circle cx="164.25" cy="198.0" r="2" fill="#9a6a00" fill-opacity="0.9"/><circle cx="167.75" cy="180.1" r="2" fill="#9a6a00" fill-opacity="0.9"/><circle cx="152.75" cy="198.6" r="2" fill="#9a6a00" fill-opacity="0.9"/><circle cx="162.75" cy="182.8" r="2" fill="#9a6a00" fill-opacity="0.9"/><circle cx="150.75" cy="200.6" r="2" fill="#9a6a00" fill-opacity="0.9"/><circle cx="154.25" cy="189.6" r="2" fill="#9a6a00" fill-opacity="0.9"/><circle cx="157.25" cy="196.8" r="2" fill="#9a6a00" fill-opacity="0.9"/><circle cx="160.75" cy="176.9" r="2" fill="#9a6a00" fill-opacity="0.9"/><line x1="240.5" y1="81.0" x2="240.5" y2="197.6" stroke="#4062bb" stroke-width="2"/><line x1="230.5" y1="81.0" x2="250.5" y2="81.0" stroke="#4062bb" stroke-width="2"/><line x1="230.5" y1="197.6" x2="250.5" y2="197.6" stroke="#4062bb" stroke-width="2"/><rect x="223.5" y="159.9" width="34" height="27.9" rx="4" fill="#4062bb" fill-opacity="0.18" stroke="#4062bb" stroke-width="2"/><line x1="223.5" y1="163.3" x2="257.5" y2="163.3" stroke="#4062bb" stroke-width="3"/><text x="240.5" y="230" text-anchor="middle" font-family="Inter,Segoe UI,Arial,sans-serif" font-size="9" fill="#111827">mlx_swift_lm</text><text x="240.5" y="246" text-anchor="middle" font-family="Inter,Segoe UI,Arial,sans-serif" font-size="10" fill="#6b7280">med 2.4k</text><circle cx="232" cy="159.6" r="2" fill="#243b87" fill-opacity="0.9"/><circle cx="235.5" cy="85.7" r="2" fill="#243b87" fill-opacity="0.9"/><circle cx="238.5" cy="162.8" r="2" fill="#243b87" fill-opacity="0.9"/><circle cx="242" cy="81.0" r="2" fill="#243b87" fill-opacity="0.9"/><circle cx="245.5" cy="163.3" r="2" fill="#243b87" fill-opacity="0.9"/><circle cx="249" cy="87.9" r="2" fill="#243b87" fill-opacity="0.9"/><circle cx="234" cy="163.1" r="2" fill="#243b87" fill-opacity="0.9"/><circle cx="244" cy="98.6" r="2" fill="#243b87" fill-opacity="0.9"/><circle cx="232" cy="171.2" r="2" fill="#243b87" fill-opacity="0.9"/><circle cx="235.5" cy="130.5" r="2" fill="#243b87" fill-opacity="0.9"/><circle cx="238.5" cy="183.6" r="2" fill="#243b87" fill-opacity="0.9"/><circle cx="242" cy="153.9" r="2" fill="#243b87" fill-opacity="0.9"/><circle cx="245.5" cy="194.5" r="2" fill="#243b87" fill-opacity="0.9"/><circle cx="249" cy="191.6" r="2" fill="#243b87" fill-opacity="0.9"/><circle cx="234" cy="174.1" r="2" fill="#243b87" fill-opacity="0.9"/><circle cx="244" cy="163.3" r="2" fill="#243b87" fill-opacity="0.9"/><circle cx="232" cy="187.6" r="2" fill="#243b87" fill-opacity="0.9"/><circle cx="235.5" cy="160.0" r="2" fill="#243b87" fill-opacity="0.9"/><circle cx="238.5" cy="189.8" r="2" fill="#243b87" fill-opacity="0.9"/><circle cx="242" cy="162.3" r="2" fill="#243b87" fill-opacity="0.9"/><circle cx="245.5" cy="191.8" r="2" fill="#243b87" fill-opacity="0.9"/><circle cx="249" cy="162.8" r="2" fill="#243b87" fill-opacity="0.9"/><circle cx="234" cy="194.4" r="2" fill="#243b87" fill-opacity="0.9"/><circle cx="244" cy="163.6" r="2" fill="#243b87" fill-opacity="0.9"/><circle cx="232" cy="197.6" r="2" fill="#243b87" fill-opacity="0.9"/><circle cx="235.5" cy="176.5" r="2" fill="#243b87" fill-opacity="0.9"/><circle cx="238.5" cy="188.7" r="2" fill="#243b87" fill-opacity="0.9"/><circle cx="242" cy="161.1" r="2" fill="#243b87" fill-opacity="0.9"/><line x1="321.75" y1="66.4" x2="321.75" y2="196.8" stroke="#2eaf5f" stroke-width="2"/><line x1="311.75" y1="66.4" x2="331.75" y2="66.4" stroke="#2eaf5f" stroke-width="2"/><line x1="311.75" y1="196.8" x2="331.75" y2="196.8" stroke="#2eaf5f" stroke-width="2"/><rect x="304.75" y="147.1" width="34" height="40.5" rx="4" fill="#2eaf5f" fill-opacity="0.18" stroke="#2eaf5f" stroke-width="2"/><line x1="304.75" y1="162.0" x2="338.75" y2="162.0" stroke="#2eaf5f" stroke-width="3"/><text x="321.75" y="230" text-anchor="middle" font-family="Inter,Segoe UI,Arial,sans-serif" font-size="9" fill="#111827">ax_engine</text><text x="321.75" y="246" text-anchor="middle" font-family="Inter,Segoe UI,Arial,sans-serif" font-size="10" fill="#6b7280">med 2.5k</text><circle cx="313.25" cy="145.7" r="2" fill="#176c37" fill-opacity="0.9"/><circle cx="316.75" cy="66.4" r="2" fill="#176c37" fill-opacity="0.9"/><circle cx="319.75" cy="146.5" r="2" fill="#176c37" fill-opacity="0.9"/><circle cx="323.25" cy="71.1" r="2" fill="#176c37" fill-opacity="0.9"/><circle cx="326.75" cy="147.2" r="2" fill="#176c37" fill-opacity="0.9"/><circle cx="330.25" cy="72.1" r="2" fill="#176c37" fill-opacity="0.9"/><circle cx="315.25" cy="147.7" r="2" fill="#176c37" fill-opacity="0.9"/><circle cx="325.25" cy="73.1" r="2" fill="#176c37" fill-opacity="0.9"/><circle cx="313.25" cy="160.5" r="2" fill="#176c37" fill-opacity="0.9"/><circle cx="316.75" cy="136.0" r="2" fill="#176c37" fill-opacity="0.9"/><circle cx="319.75" cy="184.6" r="2" fill="#176c37" fill-opacity="0.9"/><circle cx="323.25" cy="156.3" r="2" fill="#176c37" fill-opacity="0.9"/><circle cx="326.75" cy="196.8" r="2" fill="#176c37" fill-opacity="0.9"/><circle cx="330.25" cy="194.0" r="2" fill="#176c37" fill-opacity="0.9"/><circle cx="315.25" cy="172.6" r="2" fill="#176c37" fill-opacity="0.9"/><circle cx="325.25" cy="154.2" r="2" fill="#176c37" fill-opacity="0.9"/><circle cx="313.25" cy="187.5" r="2" fill="#176c37" fill-opacity="0.9"/><circle cx="316.75" cy="162.2" r="2" fill="#176c37" fill-opacity="0.9"/><circle cx="319.75" cy="187.9" r="2" fill="#176c37" fill-opacity="0.9"/><circle cx="323.25" cy="159.5" r="2" fill="#176c37" fill-opacity="0.9"/><circle cx="326.75" cy="188.8" r="2" fill="#176c37" fill-opacity="0.9"/><circle cx="330.25" cy="161.9" r="2" fill="#176c37" fill-opacity="0.9"/><circle cx="315.25" cy="188.7" r="2" fill="#176c37" fill-opacity="0.9"/><circle cx="325.25" cy="162.3" r="2" fill="#176c37" fill-opacity="0.9"/><circle cx="313.25" cy="191.3" r="2" fill="#176c37" fill-opacity="0.9"/><circle cx="316.75" cy="174.5" r="2" fill="#176c37" fill-opacity="0.9"/><circle cx="319.75" cy="190.6" r="2" fill="#176c37" fill-opacity="0.9"/><circle cx="323.25" cy="163.8" r="2" fill="#176c37" fill-opacity="0.9"/><line x1="403" y1="53.7" x2="403" y2="194.4" stroke="#137a3d" stroke-width="2"/><line x1="393" y1="53.7" x2="413" y2="53.7" stroke="#137a3d" stroke-width="2"/><line x1="393" y1="194.4" x2="413" y2="194.4" stroke="#137a3d" stroke-width="2"/><rect x="386" y="138.1" width="34" height="48.8" rx="4" fill="#137a3d" fill-opacity="0.18" stroke="#137a3d" stroke-width="2"/><line x1="386" y1="158.5" x2="420" y2="158.5" stroke="#137a3d" stroke-width="3"/><text x="403" y="230" text-anchor="middle" font-family="Inter,Segoe UI,Arial,sans-serif" font-size="9" fill="#111827">ax_engine + n-gram</text><text x="403" y="246" text-anchor="middle" font-family="Inter,Segoe UI,Arial,sans-serif" font-size="10" fill="#6b7280">med 2.7k</text><circle cx="394.5" cy="136.1" r="2" fill="#0b4f28" fill-opacity="0.9"/><circle cx="398" cy="53.7" r="2" fill="#0b4f28" fill-opacity="0.9"/><circle cx="401" cy="137.0" r="2" fill="#0b4f28" fill-opacity="0.9"/><circle cx="404.5" cy="59.1" r="2" fill="#0b4f28" fill-opacity="0.9"/><circle cx="408" cy="138.6" r="2" fill="#0b4f28" fill-opacity="0.9"/><circle cx="411.5" cy="61.5" r="2" fill="#0b4f28" fill-opacity="0.9"/><circle cx="396.5" cy="138.5" r="2" fill="#0b4f28" fill-opacity="0.9"/><circle cx="406.5" cy="59.7" r="2" fill="#0b4f28" fill-opacity="0.9"/><circle cx="394.5" cy="154.4" r="2" fill="#0b4f28" fill-opacity="0.9"/><circle cx="398" cy="124.3" r="2" fill="#0b4f28" fill-opacity="0.9"/><circle cx="401" cy="182.6" r="2" fill="#0b4f28" fill-opacity="0.9"/><circle cx="404.5" cy="150.0" r="2" fill="#0b4f28" fill-opacity="0.9"/><circle cx="408" cy="194.4" r="2" fill="#0b4f28" fill-opacity="0.9"/><circle cx="411.5" cy="193.3" r="2" fill="#0b4f28" fill-opacity="0.9"/><circle cx="396.5" cy="168.5" r="2" fill="#0b4f28" fill-opacity="0.9"/><circle cx="406.5" cy="152.2" r="2" fill="#0b4f28" fill-opacity="0.9"/><circle cx="394.5" cy="187.1" r="2" fill="#0b4f28" fill-opacity="0.9"/><circle cx="398" cy="156.1" r="2" fill="#0b4f28" fill-opacity="0.9"/><circle cx="401" cy="186.8" r="2" fill="#0b4f28" fill-opacity="0.9"/><circle cx="404.5" cy="157.4" r="2" fill="#0b4f28" fill-opacity="0.9"/><circle cx="408" cy="187.4" r="2" fill="#0b4f28" fill-opacity="0.9"/><circle cx="411.5" cy="159.6" r="2" fill="#0b4f28" fill-opacity="0.9"/><circle cx="396.5" cy="187.6" r="2" fill="#0b4f28" fill-opacity="0.9"/><circle cx="406.5" cy="159.7" r="2" fill="#0b4f28" fill-opacity="0.9"/><circle cx="394.5" cy="190.3" r="2" fill="#0b4f28" fill-opacity="0.9"/><circle cx="398" cy="173.7" r="2" fill="#0b4f28" fill-opacity="0.9"/><circle cx="401" cy="189.4" r="2" fill="#0b4f28" fill-opacity="0.9"/><circle cx="404.5" cy="161.4" r="2" fill="#0b4f28" fill-opacity="0.9"/></svg>
