<svg xmlns="http://www.w3.org/2000/svg" width="460" height="276" viewBox="0 0 460 276" role="img" aria-labelledby="title desc"><title>Prefill rate</title><desc>Box-and-Whisker Plot comparing llama.cpp Metal, mlx_lm, mlx_swift_lm, ax_engine, and ax_engine plus n-gram across 28 README benchmark rows. A red dotted horizontal line marks the ax_engine plus n-gram median.</desc><rect width="460" height="276" fill="#ffffff"/><text x="52" y="22" font-family="Inter,Segoe UI,Arial,sans-serif" font-size="16" font-weight="700" fill="#111827">Prefill rate</text><text x="442" y="22" text-anchor="end" font-family="Inter,Segoe UI,Arial,sans-serif" font-size="10" fill="#6b7280">tok/s</text><text x="442" y="40" text-anchor="end" font-family="Inter,Segoe UI,Arial,sans-serif" font-size="10" font-weight="700" fill="#374151">Higher is better</text><line x1="52" y1="206.0" x2="442" y2="206.0" stroke="#e5e7eb" stroke-width="1"/><text x="44" y="209.0" text-anchor="end" font-family="Inter,Segoe UI,Arial,sans-serif" font-size="10" fill="#6b7280">0</text><line x1="52" y1="126.0" x2="442" y2="126.0" stroke="#e5e7eb" stroke-width="1"/><text x="44" y="129.0" text-anchor="end" font-family="Inter,Segoe UI,Arial,sans-serif" font-size="10" fill="#6b7280">4.5k</text><line x1="52" y1="46.0" x2="442" y2="46.0" stroke="#e5e7eb" stroke-width="1"/><text x="44" y="49.0" text-anchor="end" font-family="Inter,Segoe UI,Arial,sans-serif" font-size="10" fill="#6b7280">9k</text><line x1="52" y1="158.1" x2="442" y2="158.1" stroke="#dc2626" stroke-width="1.2" stroke-dasharray="2 4"/><rect x="300" y="50" width="135" height="160" fill="none" stroke="#dc2626" stroke-width="1.4"/><line x1="78" y1="68.3" x2="78" y2="196.9" stroke="#f97316" stroke-width="2"/><line x1="68" y1="68.3" x2="88" y2="68.3" stroke="#f97316" stroke-width="2"/><line x1="68" y1="196.9" x2="88" y2="196.9" stroke="#f97316" stroke-width="2"/><rect x="61" y="144.5" width="34" height="31.2" rx="4" fill="#f97316" fill-opacity="0.18" stroke="#f97316" stroke-width="2"/><line x1="61" y1="155.5" x2="95" y2="155.5" stroke="#f97316" stroke-width="3"/><text x="78" y="230" text-anchor="middle" font-family="Inter,Segoe UI,Arial,sans-serif" font-size="9" fill="#111827">llama.cpp</text><text x="78" y="246" text-anchor="middle" font-family="Inter,Segoe UI,Arial,sans-serif" font-size="10" fill="#6b7280">med 2.8k</text><circle cx="69.5" cy="143.2" r="2" fill="#c2410c" fill-opacity="0.9"/><circle cx="73" cy="77.4" r="2" fill="#c2410c" fill-opacity="0.9"/><circle cx="76" cy="145.1" r="2" fill="#c2410c" fill-opacity="0.9"/><circle cx="79.5" cy="78.7" r="2" fill="#c2410c" fill-opacity="0.9"/><circle cx="83" cy="145.0" r="2" fill="#c2410c" fill-opacity="0.9"/><circle cx="86.5" cy="80.5" r="2" fill="#c2410c" fill-opacity="0.9"/><circle cx="71.5" cy="140.2" r="2" fill="#c2410c" fill-opacity="0.9"/><circle cx="81.5" cy="68.3" r="2" fill="#c2410c" fill-opacity="0.9"/><circle cx="69.5" cy="166.2" r="2" fill="#c2410c" fill-opacity="0.9"/><circle cx="73" cy="128.8" r="2" fill="#c2410c" fill-opacity="0.9"/><circle cx="76" cy="171.6" r="2" fill="#c2410c" fill-opacity="0.9"/><circle cx="79.5" cy="145.8" r="2" fill="#c2410c" fill-opacity="0.9"/><circle cx="83" cy="196.9" r="2" fill="#c2410c" fill-opacity="0.9"/><circle cx="86.5" cy="194.4" r="2" fill="#c2410c" fill-opacity="0.9"/><circle cx="71.5" cy="174.2" r="2" fill="#c2410c" fill-opacity="0.9"/><circle cx="81.5" cy="162.1" r="2" fill="#c2410c" fill-opacity="0.9"/><circle cx="69.5" cy="175.6" r="2" fill="#c2410c" fill-opacity="0.9"/><circle cx="73" cy="150.2" r="2" fill="#c2410c" fill-opacity="0.9"/><circle cx="76" cy="178.2" r="2" fill="#c2410c" fill-opacity="0.9"/><circle cx="79.5" cy="154.7" r="2" fill="#c2410c" fill-opacity="0.9"/><circle cx="83" cy="177.6" r="2" fill="#c2410c" fill-opacity="0.9"/><circle cx="86.5" cy="152.9" r="2" fill="#c2410c" fill-opacity="0.9"/><circle cx="71.5" cy="176.4" r="2" fill="#c2410c" fill-opacity="0.9"/><circle cx="81.5" cy="150.5" r="2" fill="#c2410c" fill-opacity="0.9"/><circle cx="69.5" cy="184.7" r="2" fill="#c2410c" fill-opacity="0.9"/><circle cx="73" cy="170.4" r="2" fill="#c2410c" fill-opacity="0.9"/><circle cx="76" cy="181.7" r="2" fill="#c2410c" fill-opacity="0.9"/><circle cx="79.5" cy="156.2" r="2" fill="#c2410c" fill-opacity="0.9"/><line x1="159.25" y1="72.6" x2="159.25" y2="201.1" stroke="#f2b705" stroke-width="2"/><line x1="149.25" y1="72.6" x2="169.25" y2="72.6" stroke="#f2b705" stroke-width="2"/><line x1="149.25" y1="201.1" x2="169.25" y2="201.1" stroke="#f2b705" stroke-width="2"/><rect x="142.25" y="168.7" width="34" height="26.3" rx="4" fill="#f2b705" fill-opacity="0.18" stroke="#f2b705" stroke-width="2"/><line x1="142.25" y1="178.1" x2="176.25" y2="178.1" stroke="#f2b705" stroke-width="3"/><text x="159.25" y="230" text-anchor="middle" font-family="Inter,Segoe UI,Arial,sans-serif" font-size="9" fill="#111827">mlx_lm</text><text x="159.25" y="246" text-anchor="middle" font-family="Inter,Segoe UI,Arial,sans-serif" font-size="10" fill="#6b7280">med 1.6k</text><circle cx="150.75" cy="164.2" r="2" fill="#9a6a00" fill-opacity="0.9"/><circle cx="154.25" cy="72.6" r="2" fill="#9a6a00" fill-opacity="0.9"/><circle cx="157.25" cy="168.2" r="2" fill="#9a6a00" fill-opacity="0.9"/><circle cx="160.75" cy="83.0" r="2" fill="#9a6a00" fill-opacity="0.9"/><circle cx="164.25" cy="168.9" r="2" fill="#9a6a00" fill-opacity="0.9"/><circle cx="167.75" cy="83.3" r="2" fill="#9a6a00" fill-opacity="0.9"/><circle cx="152.75" cy="170.6" r="2" fill="#9a6a00" fill-opacity="0.9"/><circle cx="162.75" cy="83.5" r="2" fill="#9a6a00" fill-opacity="0.9"/><circle cx="150.75" cy="176.6" r="2" fill="#9a6a00" fill-opacity="0.9"/><circle cx="154.25" cy="128.0" r="2" fill="#9a6a00" fill-opacity="0.9"/><circle cx="157.25" cy="193.5" r="2" fill="#9a6a00" fill-opacity="0.9"/><circle cx="160.75" cy="170.2" r="2" fill="#9a6a00" fill-opacity="0.9"/><circle cx="164.25" cy="199.6" r="2" fill="#9a6a00" fill-opacity="0.9"/><circle cx="167.75" cy="194.6" r="2" fill="#9a6a00" fill-opacity="0.9"/><circle cx="152.75" cy="189.5" r="2" fill="#9a6a00" fill-opacity="0.9"/><circle cx="162.75" cy="175.0" r="2" fill="#9a6a00" fill-opacity="0.9"/><circle cx="150.75" cy="196.7" r="2" fill="#9a6a00" fill-opacity="0.9"/><circle cx="154.25" cy="177.4" r="2" fill="#9a6a00" fill-opacity="0.9"/><circle cx="157.25" cy="197.6" r="2" fill="#9a6a00" fill-opacity="0.9"/><circle cx="160.75" cy="178.9" r="2" fill="#9a6a00" fill-opacity="0.9"/><circle cx="164.25" cy="198.4" r="2" fill="#9a6a00" fill-opacity="0.9"/><circle cx="167.75" cy="180.8" r="2" fill="#9a6a00" fill-opacity="0.9"/><circle cx="152.75" cy="198.9" r="2" fill="#9a6a00" fill-opacity="0.9"/><circle cx="162.75" cy="183.1" r="2" fill="#9a6a00" fill-opacity="0.9"/><circle cx="150.75" cy="201.1" r="2" fill="#9a6a00" fill-opacity="0.9"/><circle cx="154.25" cy="190.4" r="2" fill="#9a6a00" fill-opacity="0.9"/><circle cx="157.25" cy="197.3" r="2" fill="#9a6a00" fill-opacity="0.9"/><circle cx="160.75" cy="177.4" r="2" fill="#9a6a00" fill-opacity="0.9"/><line x1="240.5" y1="97.0" x2="240.5" y2="198.2" stroke="#4062bb" stroke-width="2"/><line x1="230.5" y1="97.0" x2="250.5" y2="97.0" stroke="#4062bb" stroke-width="2"/><line x1="230.5" y1="198.2" x2="250.5" y2="198.2" stroke="#4062bb" stroke-width="2"/><rect x="223.5" y="160.9" width="34" height="27.8" rx="4" fill="#4062bb" fill-opacity="0.18" stroke="#4062bb" stroke-width="2"/><line x1="223.5" y1="168.2" x2="257.5" y2="168.2" stroke="#4062bb" stroke-width="3"/><text x="240.5" y="230" text-anchor="middle" font-family="Inter,Segoe UI,Arial,sans-serif" font-size="9" fill="#111827">mlx_swift_lm</text><text x="240.5" y="246" text-anchor="middle" font-family="Inter,Segoe UI,Arial,sans-serif" font-size="10" fill="#6b7280">med 2.1k</text><circle cx="232" cy="166.6" r="2" fill="#243b87" fill-opacity="0.9"/><circle cx="235.5" cy="97.0" r="2" fill="#243b87" fill-opacity="0.9"/><circle cx="238.5" cy="170.1" r="2" fill="#243b87" fill-opacity="0.9"/><circle cx="242" cy="105.2" r="2" fill="#243b87" fill-opacity="0.9"/><circle cx="245.5" cy="169.8" r="2" fill="#243b87" fill-opacity="0.9"/><circle cx="249" cy="104.0" r="2" fill="#243b87" fill-opacity="0.9"/><circle cx="234" cy="164.6" r="2" fill="#243b87" fill-opacity="0.9"/><circle cx="244" cy="101.6" r="2" fill="#243b87" fill-opacity="0.9"/><circle cx="232" cy="171.9" r="2" fill="#243b87" fill-opacity="0.9"/><circle cx="235.5" cy="129.0" r="2" fill="#243b87" fill-opacity="0.9"/><circle cx="238.5" cy="183.9" r="2" fill="#243b87" fill-opacity="0.9"/><circle cx="242" cy="154.2" r="2" fill="#243b87" fill-opacity="0.9"/><circle cx="245.5" cy="194.6" r="2" fill="#243b87" fill-opacity="0.9"/><circle cx="249" cy="191.6" r="2" fill="#243b87" fill-opacity="0.9"/><circle cx="234" cy="176.8" r="2" fill="#243b87" fill-opacity="0.9"/><circle cx="244" cy="163.9" r="2" fill="#243b87" fill-opacity="0.9"/><circle cx="232" cy="188.6" r="2" fill="#243b87" fill-opacity="0.9"/><circle cx="235.5" cy="159.9" r="2" fill="#243b87" fill-opacity="0.9"/><circle cx="238.5" cy="190.6" r="2" fill="#243b87" fill-opacity="0.9"/><circle cx="242" cy="162.1" r="2" fill="#243b87" fill-opacity="0.9"/><circle cx="245.5" cy="192.1" r="2" fill="#243b87" fill-opacity="0.9"/><circle cx="249" cy="163.1" r="2" fill="#243b87" fill-opacity="0.9"/><circle cx="234" cy="194.2" r="2" fill="#243b87" fill-opacity="0.9"/><circle cx="244" cy="163.5" r="2" fill="#243b87" fill-opacity="0.9"/><circle cx="232" cy="198.2" r="2" fill="#243b87" fill-opacity="0.9"/><circle cx="235.5" cy="177.6" r="2" fill="#243b87" fill-opacity="0.9"/><circle cx="238.5" cy="188.8" r="2" fill="#243b87" fill-opacity="0.9"/><circle cx="242" cy="161.2" r="2" fill="#243b87" fill-opacity="0.9"/><line x1="321.75" y1="54.7" x2="321.75" y2="194.4" stroke="#2eaf5f" stroke-width="2"/><line x1="311.75" y1="54.7" x2="331.75" y2="54.7" stroke="#2eaf5f" stroke-width="2"/><line x1="311.75" y1="194.4" x2="331.75" y2="194.4" stroke="#2eaf5f" stroke-width="2"/><rect x="304.75" y="138.2" width="34" height="48.1" rx="4" fill="#2eaf5f" fill-opacity="0.18" stroke="#2eaf5f" stroke-width="2"/><line x1="304.75" y1="158.0" x2="338.75" y2="158.0" stroke="#2eaf5f" stroke-width="3"/><text x="321.75" y="230" text-anchor="middle" font-family="Inter,Segoe UI,Arial,sans-serif" font-size="9" fill="#111827">ax_engine</text><text x="321.75" y="246" text-anchor="middle" font-family="Inter,Segoe UI,Arial,sans-serif" font-size="10" fill="#6b7280">med 2.7k</text><circle cx="313.25" cy="136.0" r="2" fill="#176c37" fill-opacity="0.9"/><circle cx="316.75" cy="54.7" r="2" fill="#176c37" fill-opacity="0.9"/><circle cx="319.75" cy="137.9" r="2" fill="#176c37" fill-opacity="0.9"/><circle cx="323.25" cy="60.1" r="2" fill="#176c37" fill-opacity="0.9"/><circle cx="326.75" cy="138.4" r="2" fill="#176c37" fill-opacity="0.9"/><circle cx="330.25" cy="61.9" r="2" fill="#176c37" fill-opacity="0.9"/><circle cx="315.25" cy="138.3" r="2" fill="#176c37" fill-opacity="0.9"/><circle cx="325.25" cy="59.0" r="2" fill="#176c37" fill-opacity="0.9"/><circle cx="313.25" cy="152.8" r="2" fill="#176c37" fill-opacity="0.9"/><circle cx="316.75" cy="123.5" r="2" fill="#176c37" fill-opacity="0.9"/><circle cx="319.75" cy="182.6" r="2" fill="#176c37" fill-opacity="0.9"/><circle cx="323.25" cy="150.4" r="2" fill="#176c37" fill-opacity="0.9"/><circle cx="326.75" cy="194.4" r="2" fill="#176c37" fill-opacity="0.9"/><circle cx="330.25" cy="192.1" r="2" fill="#176c37" fill-opacity="0.9"/><circle cx="315.25" cy="165.2" r="2" fill="#176c37" fill-opacity="0.9"/><circle cx="325.25" cy="151.9" r="2" fill="#176c37" fill-opacity="0.9"/><circle cx="313.25" cy="186.2" r="2" fill="#176c37" fill-opacity="0.9"/><circle cx="316.75" cy="155.4" r="2" fill="#176c37" fill-opacity="0.9"/><circle cx="319.75" cy="186.8" r="2" fill="#176c37" fill-opacity="0.9"/><circle cx="323.25" cy="157.0" r="2" fill="#176c37" fill-opacity="0.9"/><circle cx="326.75" cy="187.4" r="2" fill="#176c37" fill-opacity="0.9"/><circle cx="330.25" cy="159.0" r="2" fill="#176c37" fill-opacity="0.9"/><circle cx="315.25" cy="187.7" r="2" fill="#176c37" fill-opacity="0.9"/><circle cx="325.25" cy="159.6" r="2" fill="#176c37" fill-opacity="0.9"/><circle cx="313.25" cy="190.1" r="2" fill="#176c37" fill-opacity="0.9"/><circle cx="316.75" cy="173.2" r="2" fill="#176c37" fill-opacity="0.9"/><circle cx="319.75" cy="189.4" r="2" fill="#176c37" fill-opacity="0.9"/><circle cx="323.25" cy="161.1" r="2" fill="#176c37" fill-opacity="0.9"/><line x1="403" y1="54.7" x2="403" y2="194.4" stroke="#137a3d" stroke-width="2"/><line x1="393" y1="54.7" x2="413" y2="54.7" stroke="#137a3d" stroke-width="2"/><line x1="393" y1="194.4" x2="413" y2="194.4" stroke="#137a3d" stroke-width="2"/><rect x="386" y="138.2" width="34" height="48.0" rx="4" fill="#137a3d" fill-opacity="0.18" stroke="#137a3d" stroke-width="2"/><line x1="386" y1="158.1" x2="420" y2="158.1" stroke="#137a3d" stroke-width="3"/><text x="403" y="230" text-anchor="middle" font-family="Inter,Segoe UI,Arial,sans-serif" font-size="9" fill="#111827">ax_engine + n-gram</text><text x="403" y="246" text-anchor="middle" font-family="Inter,Segoe UI,Arial,sans-serif" font-size="10" fill="#6b7280">med 2.7k</text><circle cx="394.5" cy="136.0" r="2" fill="#0b4f28" fill-opacity="0.9"/><circle cx="398" cy="54.7" r="2" fill="#0b4f28" fill-opacity="0.9"/><circle cx="401" cy="137.7" r="2" fill="#0b4f28" fill-opacity="0.9"/><circle cx="404.5" cy="59.4" r="2" fill="#0b4f28" fill-opacity="0.9"/><circle cx="408" cy="138.8" r="2" fill="#0b4f28" fill-opacity="0.9"/><circle cx="411.5" cy="74.8" r="2" fill="#0b4f28" fill-opacity="0.9"/><circle cx="396.5" cy="138.3" r="2" fill="#0b4f28" fill-opacity="0.9"/><circle cx="406.5" cy="59.4" r="2" fill="#0b4f28" fill-opacity="0.9"/><circle cx="394.5" cy="152.7" r="2" fill="#0b4f28" fill-opacity="0.9"/><circle cx="398" cy="123.2" r="2" fill="#0b4f28" fill-opacity="0.9"/><circle cx="401" cy="182.6" r="2" fill="#0b4f28" fill-opacity="0.9"/><circle cx="404.5" cy="150.3" r="2" fill="#0b4f28" fill-opacity="0.9"/><circle cx="408" cy="194.4" r="2" fill="#0b4f28" fill-opacity="0.9"/><circle cx="411.5" cy="192.1" r="2" fill="#0b4f28" fill-opacity="0.9"/><circle cx="396.5" cy="165.2" r="2" fill="#0b4f28" fill-opacity="0.9"/><circle cx="406.5" cy="151.8" r="2" fill="#0b4f28" fill-opacity="0.9"/><circle cx="394.5" cy="185.9" r="2" fill="#0b4f28" fill-opacity="0.9"/><circle cx="398" cy="155.6" r="2" fill="#0b4f28" fill-opacity="0.9"/><circle cx="401" cy="187.1" r="2" fill="#0b4f28" fill-opacity="0.9"/><circle cx="404.5" cy="157.1" r="2" fill="#0b4f28" fill-opacity="0.9"/><circle cx="408" cy="187.4" r="2" fill="#0b4f28" fill-opacity="0.9"/><circle cx="411.5" cy="159.1" r="2" fill="#0b4f28" fill-opacity="0.9"/><circle cx="396.5" cy="187.6" r="2" fill="#0b4f28" fill-opacity="0.9"/><circle cx="406.5" cy="159.4" r="2" fill="#0b4f28" fill-opacity="0.9"/><circle cx="394.5" cy="190.1" r="2" fill="#0b4f28" fill-opacity="0.9"/><circle cx="398" cy="173.2" r="2" fill="#0b4f28" fill-opacity="0.9"/><circle cx="401" cy="189.4" r="2" fill="#0b4f28" fill-opacity="0.9"/><circle cx="404.5" cy="161.1" r="2" fill="#0b4f28" fill-opacity="0.9"/></svg>
