<svg xmlns="http://www.w3.org/2000/svg" width="460" height="276" viewBox="0 0 460 276" role="img" aria-labelledby="title desc"><title>Decode rate - 2048 tok</title><desc>Box-and-Whisker Plot comparing llama.cpp, mlx_lm, ax_engine, ax_engine + n-gram at 2048 prompt tokens across README benchmark rows on a linear y-axis. A red dotted horizontal line marks the highest median in this chart.</desc><rect width="460" height="276" fill="#ffffff"/><text x="52" y="22" font-family="Inter,Segoe UI,Arial,sans-serif" font-size="16" font-weight="700" fill="#111827">Decode rate - 2048 tok</text><text x="52" y="40" font-family="Inter,Segoe UI,Arial,sans-serif" font-size="10" fill="#6b7280">AX n-gram is the default policy</text><text x="442" y="22" text-anchor="end" font-family="Inter,Segoe UI,Arial,sans-serif" font-size="10" fill="#6b7280">tok/s</text><text x="442" y="40" text-anchor="end" font-family="Inter,Segoe UI,Arial,sans-serif" font-size="10" font-weight="700" fill="#374151">Higher is better</text><line x1="52" y1="206.0" x2="442" y2="206.0" stroke="#e5e7eb" stroke-width="1"/><text x="44" y="209.0" text-anchor="end" font-family="Inter,Segoe UI,Arial,sans-serif" font-size="10" fill="#6b7280">0</text><line x1="52" y1="126.0" x2="442" y2="126.0" stroke="#e5e7eb" stroke-width="1"/><text x="44" y="129.0" text-anchor="end" font-family="Inter,Segoe UI,Arial,sans-serif" font-size="10" fill="#6b7280">375</text><line x1="52" y1="46.0" x2="442" y2="46.0" stroke="#e5e7eb" stroke-width="1"/><text x="44" y="49.0" text-anchor="end" font-family="Inter,Segoe UI,Arial,sans-serif" font-size="10" fill="#6b7280">750</text><line x1="52" y1="163.8" x2="442" y2="163.8" stroke="#dc2626" stroke-width="1.2" stroke-dasharray="1 4" stroke-linecap="round"/><line x1="100.75" y1="169.3" x2="100.75" y2="202.3" stroke="#f97316" stroke-width="1.7"/><line x1="88.51" y1="169.3" x2="112.99" y2="169.3" stroke="#f97316" stroke-width="1.7"/><line x1="88.51" y1="202.3" x2="112.99" y2="202.3" stroke="#f97316" stroke-width="1.7"/><rect x="83.75" y="175.3" width="34" height="25.7" rx="3" fill="#f97316" fill-opacity="0.18" stroke="#f97316" stroke-width="1.7"/><line x1="83.75" y1="182.7" x2="117.75" y2="182.7" stroke="#f97316" stroke-width="2.4"/><text x="100.75" y="226" text-anchor="middle" font-family="Inter,Segoe UI,Arial,sans-serif" font-size="9" fill="#111827">llama.cpp</text><text x="100.75" y="242" text-anchor="middle" font-family="Inter,Segoe UI,Arial,sans-serif" font-size="9" fill="#6b7280">med 109.1</text><circle cx="92.59" cy="169.3" r="1.5" fill="#c2410c" fill-opacity="0.9"/><circle cx="96.67" cy="172.0" r="1.5" fill="#c2410c" fill-opacity="0.9"/><circle cx="100.75" cy="173.1" r="1.5" fill="#c2410c" fill-opacity="0.9"/><circle cx="104.83" cy="176.1" r="1.5" fill="#c2410c" fill-opacity="0.9"/><circle cx="108.91" cy="182.4" r="1.5" fill="#c2410c" fill-opacity="0.9"/><circle cx="92.59" cy="182.0" r="1.5" fill="#c2410c" fill-opacity="0.9"/><circle cx="96.67" cy="200.9" r="1.5" fill="#c2410c" fill-opacity="0.9"/><circle cx="100.75" cy="200.7" r="1.5" fill="#c2410c" fill-opacity="0.9"/><circle cx="104.83" cy="201.6" r="1.5" fill="#c2410c" fill-opacity="0.9"/><circle cx="108.91" cy="201.9" r="1.5" fill="#c2410c" fill-opacity="0.9"/><circle cx="92.59" cy="202.3" r="1.5" fill="#c2410c" fill-opacity="0.9"/><circle cx="96.67" cy="183.1" r="1.5" fill="#c2410c" fill-opacity="0.9"/><line x1="198.25" y1="163.1" x2="198.25" y2="202.1" stroke="#f2b705" stroke-width="1.7"/><line x1="186.01" y1="163.1" x2="210.49" y2="163.1" stroke="#f2b705" stroke-width="1.7"/><line x1="186.01" y1="202.1" x2="210.49" y2="202.1" stroke="#f2b705" stroke-width="1.7"/><rect x="181.25" y="174.3" width="34" height="25.8" rx="3" fill="#f2b705" fill-opacity="0.18" stroke="#f2b705" stroke-width="1.7"/><line x1="181.25" y1="179.3" x2="215.25" y2="179.3" stroke="#f2b705" stroke-width="2.4"/><text x="198.25" y="226" text-anchor="middle" font-family="Inter,Segoe UI,Arial,sans-serif" font-size="9" fill="#111827">mlx_lm</text><text x="198.25" y="242" text-anchor="middle" font-family="Inter,Segoe UI,Arial,sans-serif" font-size="9" fill="#6b7280">med 124.9</text><circle cx="190.09" cy="163.1" r="1.5" fill="#9a6a00" fill-opacity="0.9"/><circle cx="194.17" cy="167.2" r="1.5" fill="#9a6a00" fill-opacity="0.9"/><circle cx="198.25" cy="171.3" r="1.5" fill="#9a6a00" fill-opacity="0.9"/><circle cx="202.33" cy="175.2" r="1.5" fill="#9a6a00" fill-opacity="0.9"/><circle cx="206.41" cy="178.1" r="1.5" fill="#9a6a00" fill-opacity="0.9"/><circle cx="190.09" cy="180.5" r="1.5" fill="#9a6a00" fill-opacity="0.9"/><circle cx="194.17" cy="200.2" r="1.5" fill="#9a6a00" fill-opacity="0.9"/><circle cx="198.25" cy="198.9" r="1.5" fill="#9a6a00" fill-opacity="0.9"/><circle cx="202.33" cy="200.1" r="1.5" fill="#9a6a00" fill-opacity="0.9"/><circle cx="206.41" cy="200.7" r="1.5" fill="#9a6a00" fill-opacity="0.9"/><circle cx="190.09" cy="202.1" r="1.5" fill="#9a6a00" fill-opacity="0.9"/><circle cx="194.17" cy="177.3" r="1.5" fill="#9a6a00" fill-opacity="0.9"/><line x1="295.75" y1="164.0" x2="295.75" y2="202.1" stroke="#2eaf5f" stroke-width="1.7"/><line x1="283.51" y1="164.0" x2="307.99" y2="164.0" stroke="#2eaf5f" stroke-width="1.7"/><line x1="283.51" y1="202.1" x2="307.99" y2="202.1" stroke="#2eaf5f" stroke-width="1.7"/><rect x="278.75" y="172.7" width="34" height="27.5" rx="3" fill="#2eaf5f" fill-opacity="0.18" stroke="#2eaf5f" stroke-width="1.7"/><line x1="278.75" y1="180.0" x2="312.75" y2="180.0" stroke="#2eaf5f" stroke-width="2.4"/><text x="295.75" y="226" text-anchor="middle" font-family="Inter,Segoe UI,Arial,sans-serif" font-size="9" fill="#111827">ax_engine</text><text x="295.75" y="242" text-anchor="middle" font-family="Inter,Segoe UI,Arial,sans-serif" font-size="9" fill="#6b7280">med 121.7</text><circle cx="287.59" cy="164.0" r="1.5" fill="#176c37" fill-opacity="0.9"/><circle cx="291.67" cy="168.1" r="1.5" fill="#176c37" fill-opacity="0.9"/><circle cx="295.75" cy="171.9" r="1.5" fill="#176c37" fill-opacity="0.9"/><circle cx="299.83" cy="175.5" r="1.5" fill="#176c37" fill-opacity="0.9"/><circle cx="303.91" cy="178.7" r="1.5" fill="#176c37" fill-opacity="0.9"/><circle cx="287.59" cy="181.3" r="1.5" fill="#176c37" fill-opacity="0.9"/><circle cx="291.67" cy="200.3" r="1.5" fill="#176c37" fill-opacity="0.9"/><circle cx="295.75" cy="199.0" r="1.5" fill="#176c37" fill-opacity="0.9"/><circle cx="299.83" cy="200.2" r="1.5" fill="#176c37" fill-opacity="0.9"/><circle cx="303.91" cy="200.8" r="1.5" fill="#176c37" fill-opacity="0.9"/><circle cx="287.59" cy="202.1" r="1.5" fill="#176c37" fill-opacity="0.9"/><circle cx="291.67" cy="172.9" r="1.5" fill="#176c37" fill-opacity="0.9"/><line x1="393.25" y1="104.1" x2="393.25" y2="202.1" stroke="#137a3d" stroke-width="1.7"/><line x1="381.01" y1="104.1" x2="405.49" y2="104.1" stroke="#137a3d" stroke-width="1.7"/><line x1="381.01" y1="202.1" x2="405.49" y2="202.1" stroke="#137a3d" stroke-width="1.7"/><rect x="376.25" y="128.3" width="34" height="71.0" rx="3" fill="#137a3d" fill-opacity="0.18" stroke="#137a3d" stroke-width="1.7"/><line x1="376.25" y1="163.8" x2="410.25" y2="163.8" stroke="#137a3d" stroke-width="2.4"/><text x="393.25" y="226" text-anchor="middle" font-family="Inter,Segoe UI,Arial,sans-serif" font-size="9" fill="#111827">ax_engine + n-gram</text><text x="393.25" y="242" text-anchor="middle" font-family="Inter,Segoe UI,Arial,sans-serif" font-size="9" fill="#6b7280">med 197.9</text><circle cx="385.09" cy="104.1" r="1.5" fill="#0b4f28" fill-opacity="0.9"/><circle cx="389.17" cy="123.4" r="1.5" fill="#0b4f28" fill-opacity="0.9"/><circle cx="393.25" cy="129.3" r="1.5" fill="#0b4f28" fill-opacity="0.9"/><circle cx="397.33" cy="125.4" r="1.5" fill="#0b4f28" fill-opacity="0.9"/><circle cx="401.41" cy="141.3" r="1.5" fill="#0b4f28" fill-opacity="0.9"/><circle cx="385.09" cy="154.7" r="1.5" fill="#0b4f28" fill-opacity="0.9"/><circle cx="389.17" cy="194.1" r="1.5" fill="#0b4f28" fill-opacity="0.9"/><circle cx="393.25" cy="199.0" r="1.5" fill="#0b4f28" fill-opacity="0.9"/><circle cx="397.33" cy="200.1" r="1.5" fill="#0b4f28" fill-opacity="0.9"/><circle cx="401.41" cy="200.8" r="1.5" fill="#0b4f28" fill-opacity="0.9"/><circle cx="385.09" cy="202.1" r="1.5" fill="#0b4f28" fill-opacity="0.9"/><circle cx="389.17" cy="172.9" r="1.5" fill="#0b4f28" fill-opacity="0.9"/></svg>
