<svg xmlns="http://www.w3.org/2000/svg" width="800" height="430" viewBox="0 0 800 430" role="img" aria-labelledby="title desc"><title>Gemma 4 — TTFT</title><desc>Grouped box-and-whisker plot comparing llama.cpp b9430, mlx-lm 0.31.3, AX Engine v5.1.1 at 128/512/2048 prompt tokens for Gemma 4 models. A red dotted line marks the lowest median.</desc><rect width="800" height="430" fill="#f8fafc"/><text x="64" y="24" font-family="Inter,Segoe UI,Arial,sans-serif" font-size="16" font-weight="700" fill="#111827">Gemma 4 — TTFT</text><text x="64" y="46" font-family="Inter,Segoe UI,Arial,sans-serif" font-size="11" fill="#4b5563">box=IQR | whiskers=min/max | dots=runs | opacity: 128/512/2048 tok</text><text x="64" y="62" font-family="Inter,Segoe UI,Arial,sans-serif" font-size="10" fill="#6b7280">llama.cpp b9430 · mlx-lm 0.31.3 · AX Engine v5.1.1</text><rect x="718" y="13" width="48" height="22" rx="11" fill="#eef2ff" stroke="#c7d2fe"/><text x="742.0" y="28" text-anchor="middle" font-family="Inter,Segoe UI,Arial,sans-serif" font-size="10" font-weight="700" fill="#3730a3">ms</text><text x="766" y="52" text-anchor="end" font-family="Inter,Segoe UI,Arial,sans-serif" font-size="10" font-weight="700" fill="#dc2626">Lower is better</text><rect x="64" y="86" width="576" height="230" rx="6" fill="#ffffff" stroke="#dbe3ef"/><line x1="64" y1="316.0" x2="640" y2="316.0" stroke="#e5e7eb" stroke-width="1"/><text x="56" y="319.0" text-anchor="end" font-family="Inter,Segoe UI,Arial,sans-serif" font-size="11" fill="#6b7280">0</text><line x1="64" y1="258.5" x2="640" y2="258.5" stroke="#e5e7eb" stroke-width="1"/><text x="56" y="261.5" text-anchor="end" font-family="Inter,Segoe UI,Arial,sans-serif" font-size="11" fill="#6b7280">1.2k</text><line x1="64" y1="201.0" x2="640" y2="201.0" stroke="#e5e7eb" stroke-width="1"/><text x="56" y="204.0" text-anchor="end" font-family="Inter,Segoe UI,Arial,sans-serif" font-size="11" fill="#6b7280">2.5k</text><line x1="64" y1="143.5" x2="640" y2="143.5" stroke="#e5e7eb" stroke-width="1"/><text x="56" y="146.5" text-anchor="end" font-family="Inter,Segoe UI,Arial,sans-serif" font-size="11" fill="#6b7280">3.8k</text><line x1="64" y1="86.0" x2="640" y2="86.0" stroke="#e5e7eb" stroke-width="1"/><text x="56" y="89.0" text-anchor="end" font-family="Inter,Segoe UI,Arial,sans-serif" font-size="11" fill="#6b7280">5k</text><line x1="64" y1="314.9" x2="640" y2="314.9" stroke="#dc2626" stroke-width="1.2" stroke-dasharray="1 4" stroke-linecap="round"/><text x="648" y="309.9" text-anchor="start" font-family="Inter,Segoe UI,Arial,sans-serif" font-size="11" font-weight="700" fill="#dc2626" data-label="lowest median">lowest: 23.4</text><line x1="130" y1="304.8" x2="130" y2="314.4" stroke="#f97316" stroke-opacity="0.55" stroke-width="1.7"/><line x1="124.24" y1="304.8" x2="135.76" y2="304.8" stroke="#f97316" stroke-opacity="0.55" stroke-width="1.7"/><line x1="124.24" y1="314.4" x2="135.76" y2="314.4" stroke="#f97316" stroke-opacity="0.55" stroke-width="1.7"/><rect x="122" y="313.2" width="16" height="1.2" rx="2" fill="#f97316" fill-opacity="0.08" stroke="#f97316" stroke-opacity="0.55" stroke-width="1.7"/><line x1="122" y1="314.3" x2="138" y2="314.3" stroke="#f97316" stroke-opacity="0.55" stroke-width="2.4"/><text x="130" y="331" text-anchor="middle" font-family="Inter,Segoe UI,Arial,sans-serif" font-size="9" fill="#6b7280">128</text><circle cx="127" cy="314.4" r="1.4" fill="#c2410c" fill-opacity="0.5"/><circle cx="128.5" cy="314.3" r="1.4" fill="#c2410c" fill-opacity="0.5"/><circle cx="130" cy="314.4" r="1.4" fill="#c2410c" fill-opacity="0.5"/><circle cx="131.5" cy="314.4" r="1.4" fill="#c2410c" fill-opacity="0.5"/><circle cx="133" cy="313.5" r="1.4" fill="#c2410c" fill-opacity="0.5"/><circle cx="127" cy="313.0" r="1.4" fill="#c2410c" fill-opacity="0.5"/><circle cx="128.5" cy="304.8" r="1.4" fill="#c2410c" fill-opacity="0.5"/><line x1="160" y1="280.8" x2="160" y2="312.9" stroke="#f97316" stroke-opacity="0.78" stroke-width="1.7"/><line x1="154.24" y1="280.8" x2="165.76" y2="280.8" stroke="#f97316" stroke-opacity="0.78" stroke-width="1.7"/><line x1="154.24" y1="312.9" x2="165.76" y2="312.9" stroke="#f97316" stroke-opacity="0.78" stroke-width="1.7"/><rect x="152" y="310.0" width="16" height="2.8" rx="2" fill="#f97316" fill-opacity="0.17" stroke="#f97316" stroke-opacity="0.78" stroke-width="1.7"/><line x1="152" y1="312.7" x2="168" y2="312.7" stroke="#f97316" stroke-opacity="0.78" stroke-width="2.4"/><text x="160" y="331" text-anchor="middle" font-family="Inter,Segoe UI,Arial,sans-serif" font-size="9" fill="#6b7280">512</text><circle cx="157" cy="312.8" r="1.4" fill="#c2410c" fill-opacity="0.7"/><circle cx="158.5" cy="312.7" r="1.4" fill="#c2410c" fill-opacity="0.7"/><circle cx="160" cy="312.8" r="1.4" fill="#c2410c" fill-opacity="0.7"/><circle cx="161.5" cy="312.9" r="1.4" fill="#c2410c" fill-opacity="0.7"/><circle cx="163" cy="310.7" r="1.4" fill="#c2410c" fill-opacity="0.7"/><circle cx="157" cy="309.2" r="1.4" fill="#c2410c" fill-opacity="0.7"/><circle cx="158.5" cy="280.8" r="1.4" fill="#c2410c" fill-opacity="0.7"/><line x1="190" y1="136.7" x2="190" y2="304.3" stroke="#f97316" stroke-opacity="1.0" stroke-width="1.7"/><line x1="184.24" y1="136.7" x2="195.76" y2="136.7" stroke="#f97316" stroke-opacity="1.0" stroke-width="1.7"/><line x1="184.24" y1="304.3" x2="195.76" y2="304.3" stroke="#f97316" stroke-opacity="1.0" stroke-width="1.7"/><rect x="182" y="292.3" width="16" height="11.4" rx="2" fill="#f97316" fill-opacity="0.3" stroke="#f97316" stroke-opacity="1.0" stroke-width="1.7"/><line x1="182" y1="303.4" x2="198" y2="303.4" stroke="#f97316" stroke-opacity="1.0" stroke-width="2.4"/><text x="190" y="331" text-anchor="middle" font-family="Inter,Segoe UI,Arial,sans-serif" font-size="9" fill="#6b7280">2048</text><circle cx="187" cy="303.7" r="1.4" fill="#c2410c" fill-opacity="0.9"/><circle cx="188.5" cy="303.4" r="1.4" fill="#c2410c" fill-opacity="0.9"/><circle cx="190" cy="303.7" r="1.4" fill="#c2410c" fill-opacity="0.9"/><circle cx="191.5" cy="304.3" r="1.4" fill="#c2410c" fill-opacity="0.9"/><circle cx="193" cy="294.7" r="1.4" fill="#c2410c" fill-opacity="0.9"/><circle cx="187" cy="289.9" r="1.4" fill="#c2410c" fill-opacity="0.9"/><circle cx="188.5" cy="136.7" r="1.4" fill="#c2410c" fill-opacity="0.9"/><text x="160" y="348" text-anchor="middle" font-family="Inter,Segoe UI,Arial,sans-serif" font-size="10" font-weight="700" fill="#111827">llama.cpp b9430</text><line x1="322" y1="295.2" x2="322" y2="313.5" stroke="#f2b705" stroke-opacity="0.55" stroke-width="1.7"/><line x1="316.24" y1="295.2" x2="327.76" y2="295.2" stroke="#f2b705" stroke-opacity="0.55" stroke-width="1.7"/><line x1="316.24" y1="313.5" x2="327.76" y2="313.5" stroke="#f2b705" stroke-opacity="0.55" stroke-width="1.7"/><rect x="314" y="308.1" width="16" height="4.9" rx="2" fill="#f2b705" fill-opacity="0.08" stroke="#f2b705" stroke-opacity="0.55" stroke-width="1.7"/><line x1="314" y1="312.3" x2="330" y2="312.3" stroke="#f2b705" stroke-opacity="0.55" stroke-width="2.4"/><text x="322" y="331" text-anchor="middle" font-family="Inter,Segoe UI,Arial,sans-serif" font-size="9" fill="#6b7280">128</text><circle cx="319" cy="313.5" r="1.4" fill="#9a6a00" fill-opacity="0.5"/><circle cx="320.5" cy="313.4" r="1.4" fill="#9a6a00" fill-opacity="0.5"/><circle cx="322" cy="312.8" r="1.4" fill="#9a6a00" fill-opacity="0.5"/><circle cx="323.5" cy="312.3" r="1.4" fill="#9a6a00" fill-opacity="0.5"/><circle cx="325" cy="312.1" r="1.4" fill="#9a6a00" fill-opacity="0.5"/><circle cx="319" cy="304.1" r="1.4" fill="#9a6a00" fill-opacity="0.5"/><circle cx="320.5" cy="295.2" r="1.4" fill="#9a6a00" fill-opacity="0.5"/><line x1="352" y1="278.0" x2="352" y2="313.0" stroke="#f2b705" stroke-opacity="0.78" stroke-width="1.7"/><line x1="346.24" y1="278.0" x2="357.76" y2="278.0" stroke="#f2b705" stroke-opacity="0.78" stroke-width="1.7"/><line x1="346.24" y1="313.0" x2="357.76" y2="313.0" stroke="#f2b705" stroke-opacity="0.78" stroke-width="1.7"/><rect x="344" y="305.9" width="16" height="6.6" rx="2" fill="#f2b705" fill-opacity="0.17" stroke="#f2b705" stroke-opacity="0.78" stroke-width="1.7"/><line x1="344" y1="312.1" x2="360" y2="312.1" stroke="#f2b705" stroke-opacity="0.78" stroke-width="2.4"/><text x="352" y="331" text-anchor="middle" font-family="Inter,Segoe UI,Arial,sans-serif" font-size="9" fill="#6b7280">512</text><circle cx="349" cy="313.0" r="1.4" fill="#9a6a00" fill-opacity="0.7"/><circle cx="350.5" cy="312.8" r="1.4" fill="#9a6a00" fill-opacity="0.7"/><circle cx="352" cy="312.1" r="1.4" fill="#9a6a00" fill-opacity="0.7"/><circle cx="353.5" cy="312.3" r="1.4" fill="#9a6a00" fill-opacity="0.7"/><circle cx="355" cy="310.4" r="1.4" fill="#9a6a00" fill-opacity="0.7"/><circle cx="349" cy="301.5" r="1.4" fill="#9a6a00" fill-opacity="0.7"/><circle cx="350.5" cy="278.0" r="1.4" fill="#9a6a00" fill-opacity="0.7"/><line x1="382" y1="187.6" x2="382" y2="310.8" stroke="#f2b705" stroke-opacity="1.0" stroke-width="1.7"/><line x1="376.24" y1="187.6" x2="387.76" y2="187.6" stroke="#f2b705" stroke-opacity="1.0" stroke-width="1.7"/><line x1="376.24" y1="310.8" x2="387.76" y2="310.8" stroke="#f2b705" stroke-opacity="1.0" stroke-width="1.7"/><rect x="374" y="295.3" width="16" height="14.8" rx="2" fill="#f2b705" fill-opacity="0.3" stroke="#f2b705" stroke-opacity="1.0" stroke-width="1.7"/><line x1="374" y1="309.9" x2="390" y2="309.9" stroke="#f2b705" stroke-opacity="1.0" stroke-width="2.4"/><text x="382" y="331" text-anchor="middle" font-family="Inter,Segoe UI,Arial,sans-serif" font-size="9" fill="#6b7280">2048</text><circle cx="379" cy="310.8" r="1.4" fill="#9a6a00" fill-opacity="0.9"/><circle cx="380.5" cy="310.3" r="1.4" fill="#9a6a00" fill-opacity="0.9"/><circle cx="382" cy="309.9" r="1.4" fill="#9a6a00" fill-opacity="0.9"/><circle cx="383.5" cy="309.9" r="1.4" fill="#9a6a00" fill-opacity="0.9"/><circle cx="385" cy="303.1" r="1.4" fill="#9a6a00" fill-opacity="0.9"/><circle cx="379" cy="287.5" r="1.4" fill="#9a6a00" fill-opacity="0.9"/><circle cx="380.5" cy="187.6" r="1.4" fill="#9a6a00" fill-opacity="0.9"/><text x="352" y="348" text-anchor="middle" font-family="Inter,Segoe UI,Arial,sans-serif" font-size="10" font-weight="700" fill="#111827">mlx-lm 0.31.3</text><line x1="514" y1="304.6" x2="514" y2="315.0" stroke="#2eaf5f" stroke-opacity="0.55" stroke-width="1.7"/><line x1="508.24" y1="304.6" x2="519.76" y2="304.6" stroke="#2eaf5f" stroke-opacity="0.55" stroke-width="1.7"/><line x1="508.24" y1="315.0" x2="519.76" y2="315.0" stroke="#2eaf5f" stroke-opacity="0.55" stroke-width="1.7"/><rect x="506" y="312.9" width="16" height="2.0" rx="2" fill="#2eaf5f" fill-opacity="0.08" stroke="#2eaf5f" stroke-opacity="0.55" stroke-width="1.7"/><line x1="506" y1="314.9" x2="522" y2="314.9" stroke="#2eaf5f" stroke-opacity="0.55" stroke-width="2.4"/><text x="514" y="331" text-anchor="middle" font-family="Inter,Segoe UI,Arial,sans-serif" font-size="9" fill="#6b7280">128</text><circle cx="511" cy="315.0" r="1.4" fill="#176c37" fill-opacity="0.5"/><circle cx="512.5" cy="315.0" r="1.4" fill="#176c37" fill-opacity="0.5"/><circle cx="514" cy="315.0" r="1.4" fill="#176c37" fill-opacity="0.5"/><circle cx="515.5" cy="314.9" r="1.4" fill="#176c37" fill-opacity="0.5"/><circle cx="517" cy="314.3" r="1.4" fill="#176c37" fill-opacity="0.5"/><circle cx="511" cy="311.6" r="1.4" fill="#176c37" fill-opacity="0.5"/><circle cx="512.5" cy="304.6" r="1.4" fill="#176c37" fill-opacity="0.5"/><line x1="544" y1="284.3" x2="544" y2="314.6" stroke="#2eaf5f" stroke-opacity="0.78" stroke-width="1.7"/><line x1="538.24" y1="284.3" x2="549.76" y2="284.3" stroke="#2eaf5f" stroke-opacity="0.78" stroke-width="1.7"/><line x1="538.24" y1="314.6" x2="549.76" y2="314.6" stroke="#2eaf5f" stroke-opacity="0.78" stroke-width="1.7"/><rect x="536" y="310.5" width="16" height="4.1" rx="2" fill="#2eaf5f" fill-opacity="0.17" stroke="#2eaf5f" stroke-opacity="0.78" stroke-width="1.7"/><line x1="536" y1="314.5" x2="552" y2="314.5" stroke="#2eaf5f" stroke-opacity="0.78" stroke-width="2.4"/><text x="544" y="331" text-anchor="middle" font-family="Inter,Segoe UI,Arial,sans-serif" font-size="9" fill="#6b7280">512</text><circle cx="541" cy="314.6" r="1.4" fill="#176c37" fill-opacity="0.7"/><circle cx="542.5" cy="314.5" r="1.4" fill="#176c37" fill-opacity="0.7"/><circle cx="544" cy="314.6" r="1.4" fill="#176c37" fill-opacity="0.7"/><circle cx="545.5" cy="314.5" r="1.4" fill="#176c37" fill-opacity="0.7"/><circle cx="547" cy="312.6" r="1.4" fill="#176c37" fill-opacity="0.7"/><circle cx="541" cy="308.3" r="1.4" fill="#176c37" fill-opacity="0.7"/><circle cx="542.5" cy="284.3" r="1.4" fill="#176c37" fill-opacity="0.7"/><line x1="574" y1="195.4" x2="574" y2="312.0" stroke="#2eaf5f" stroke-opacity="1.0" stroke-width="1.7"/><line x1="568.24" y1="195.4" x2="579.76" y2="195.4" stroke="#2eaf5f" stroke-opacity="1.0" stroke-width="1.7"/><line x1="568.24" y1="312.0" x2="579.76" y2="312.0" stroke="#2eaf5f" stroke-opacity="1.0" stroke-width="1.7"/><rect x="566" y="300.6" width="16" height="11.4" rx="2" fill="#2eaf5f" fill-opacity="0.3" stroke="#2eaf5f" stroke-opacity="1.0" stroke-width="1.7"/><line x1="566" y1="312.0" x2="582" y2="312.0" stroke="#2eaf5f" stroke-opacity="1.0" stroke-width="2.4"/><text x="574" y="331" text-anchor="middle" font-family="Inter,Segoe UI,Arial,sans-serif" font-size="9" fill="#6b7280">2048</text><circle cx="571" cy="312.0" r="1.4" fill="#176c37" fill-opacity="0.9"/><circle cx="572.5" cy="312.0" r="1.4" fill="#176c37" fill-opacity="0.9"/><circle cx="574" cy="312.0" r="1.4" fill="#176c37" fill-opacity="0.9"/><circle cx="575.5" cy="312.0" r="1.4" fill="#176c37" fill-opacity="0.9"/><circle cx="577" cy="305.4" r="1.4" fill="#176c37" fill-opacity="0.9"/><circle cx="571" cy="295.8" r="1.4" fill="#176c37" fill-opacity="0.9"/><circle cx="572.5" cy="195.4" r="1.4" fill="#176c37" fill-opacity="0.9"/><text x="544" y="348" text-anchor="middle" font-family="Inter,Segoe UI,Arial,sans-serif" font-size="10" font-weight="700" fill="#111827">AX Engine v5.1.1</text><rect x="64" y="363" width="10" height="10" rx="2" fill="#6b7280" fill-opacity="0.08" stroke="#6b7280" stroke-opacity="0.55" stroke-width="1.4"/><text x="78" y="372" font-family="Inter,Segoe UI,Arial,sans-serif" font-size="10" fill="#374151">128 tok</text><rect x="184" y="363" width="10" height="10" rx="2" fill="#6b7280" fill-opacity="0.17" stroke="#6b7280" stroke-opacity="0.78" stroke-width="1.4"/><text x="198" y="372" font-family="Inter,Segoe UI,Arial,sans-serif" font-size="10" fill="#374151">512 tok</text><rect x="304" y="363" width="10" height="10" rx="2" fill="#6b7280" fill-opacity="0.3" stroke="#6b7280" stroke-opacity="1.0" stroke-width="1.4"/><text x="318" y="372" font-family="Inter,Segoe UI,Arial,sans-serif" font-size="10" fill="#374151">2048 tok</text></svg>
