<svg xmlns="http://www.w3.org/2000/svg" width="800" height="430" viewBox="0 0 800 430" role="img" aria-labelledby="title desc"><title>Qwen 3.6 — TTFT</title><desc>Grouped box-and-whisker plot comparing llama.cpp b9910, mlx-lm 0.31.3, AX Engine v6.8.2 (2026-07-11) at 128/512/2048 prompt tokens for Qwen 3.6 models. The x-axis is grouped by prompt-token count, with engines nested inside each group. Within each prompt-token group, the best median value label is red.</desc><rect width="800" height="430" fill="#f8fafc"/><text x="64" y="24" font-family="Inter,Segoe UI,Arial,sans-serif" font-size="16" font-weight="700" fill="#111827">Qwen 3.6 — TTFT</text><text x="64" y="46" font-family="Inter,Segoe UI,Arial,sans-serif" font-size="11" fill="#4b5563">grouped by prompt tokens | box=IQR | whiskers=min/max | dots=runs</text><text x="64" y="62" font-family="Inter,Segoe UI,Arial,sans-serif" font-size="10" fill="#6b7280">llama.cpp b9910 · mlx-lm 0.31.3 · AX Engine v6.8.2 (2026-07-11)</text><rect x="718" y="13" width="48" height="22" rx="11" fill="#eef2ff" stroke="#c7d2fe"/><text x="742.0" y="28" text-anchor="middle" font-family="Inter,Segoe UI,Arial,sans-serif" font-size="10" font-weight="700" fill="#3730a3">ms</text><text x="766" y="52" text-anchor="end" font-family="Inter,Segoe UI,Arial,sans-serif" font-size="10" font-weight="700" fill="#dc2626">Lower is better</text><rect x="64" y="86" width="576" height="230" rx="6" fill="#ffffff" stroke="#dbe3ef"/><line x1="64" y1="316.0" x2="640" y2="316.0" stroke="#e5e7eb" stroke-width="1"/><text x="56" y="319.0" text-anchor="end" font-family="Inter,Segoe UI,Arial,sans-serif" font-size="11" fill="#6b7280">0</text><line x1="64" y1="258.5" x2="640" y2="258.5" stroke="#e5e7eb" stroke-width="1"/><text x="56" y="261.5" text-anchor="end" font-family="Inter,Segoe UI,Arial,sans-serif" font-size="11" fill="#6b7280">2.5k</text><line x1="64" y1="201.0" x2="640" y2="201.0" stroke="#e5e7eb" stroke-width="1"/><text x="56" y="204.0" text-anchor="end" font-family="Inter,Segoe UI,Arial,sans-serif" font-size="11" fill="#6b7280">5k</text><line x1="64" y1="143.5" x2="640" y2="143.5" stroke="#e5e7eb" stroke-width="1"/><text x="56" y="146.5" text-anchor="end" font-family="Inter,Segoe UI,Arial,sans-serif" font-size="11" fill="#6b7280">7.5k</text><line x1="64" y1="86.0" x2="640" y2="86.0" stroke="#e5e7eb" stroke-width="1"/><text x="56" y="89.0" text-anchor="end" font-family="Inter,Segoe UI,Arial,sans-serif" font-size="11" fill="#6b7280">10k</text><line x1="106" y1="310.5" x2="106" y2="314.3" stroke="#f97316" stroke-opacity="0.9" stroke-width="1.7"/><line x1="99.52" y1="310.5" x2="112.48" y2="310.5" stroke="#f97316" stroke-opacity="0.9" stroke-width="1.7"/><line x1="99.52" y1="314.3" x2="112.48" y2="314.3" stroke="#f97316" stroke-opacity="0.9" stroke-width="1.7"/><rect x="97" y="310.6" width="18" height="3.6" rx="2" fill="#f97316" fill-opacity="0.26" stroke="#f97316" stroke-opacity="0.9" stroke-width="1.7"/><line x1="97" y1="312.4" x2="115" y2="312.4" stroke="#f97316" stroke-opacity="0.9" stroke-width="2.4"/><text x="119" y="315.9" text-anchor="start" font-family="Inter,Segoe UI,Arial,sans-serif" font-size="9" font-weight="700" fill="#dc2626" stroke="#ffffff" stroke-width="3" paint-order="stroke">157.2</text><circle cx="103" cy="310.6" r="1.4" fill="#c2410c" fill-opacity="0.82"/><circle cx="104.5" cy="310.5" r="1.4" fill="#c2410c" fill-opacity="0.82"/><circle cx="106" cy="314.3" r="1.4" fill="#c2410c" fill-opacity="0.82"/><circle cx="107.5" cy="314.2" r="1.4" fill="#c2410c" fill-opacity="0.82"/><line x1="160" y1="307.5" x2="160" y2="310.8" stroke="#f2b705" stroke-opacity="0.9" stroke-width="1.7"/><line x1="153.52" y1="307.5" x2="166.48" y2="307.5" stroke="#f2b705" stroke-opacity="0.9" stroke-width="1.7"/><line x1="153.52" y1="310.8" x2="166.48" y2="310.8" stroke="#f2b705" stroke-opacity="0.9" stroke-width="1.7"/><rect x="151" y="308.7" width="18" height="1.0" rx="2" fill="#f2b705" fill-opacity="0.26" stroke="#f2b705" stroke-opacity="0.9" stroke-width="1.7"/><line x1="151" y1="309.1" x2="169" y2="309.1" stroke="#f2b705" stroke-opacity="0.9" stroke-width="2.4"/><text x="173" y="312.6" text-anchor="start" font-family="Inter,Segoe UI,Arial,sans-serif" font-size="9" font-weight="700" fill="#111827" stroke="#ffffff" stroke-width="3" paint-order="stroke">299.0</text><circle cx="157" cy="309.1" r="1.4" fill="#9a6a00" fill-opacity="0.82"/><circle cx="158.5" cy="307.5" r="1.4" fill="#9a6a00" fill-opacity="0.82"/><circle cx="160" cy="310.8" r="1.4" fill="#9a6a00" fill-opacity="0.82"/><circle cx="161.5" cy="309.2" r="1.4" fill="#9a6a00" fill-opacity="0.82"/><line x1="214" y1="299.6" x2="214" y2="310.2" stroke="#2eaf5f" stroke-opacity="0.9" stroke-width="1.7"/><line x1="207.52" y1="299.6" x2="220.48" y2="299.6" stroke="#2eaf5f" stroke-opacity="0.9" stroke-width="1.7"/><line x1="207.52" y1="310.2" x2="220.48" y2="310.2" stroke="#2eaf5f" stroke-opacity="0.9" stroke-width="1.7"/><rect x="205" y="300.6" width="18" height="8.4" rx="2" fill="#2eaf5f" fill-opacity="0.26" stroke="#2eaf5f" stroke-opacity="0.9" stroke-width="1.7"/><line x1="205" y1="304.7" x2="223" y2="304.7" stroke="#2eaf5f" stroke-opacity="0.9" stroke-width="2.4"/><text x="227" y="308.2" text-anchor="start" font-family="Inter,Segoe UI,Arial,sans-serif" font-size="9" font-weight="700" fill="#111827" stroke="#ffffff" stroke-width="3" paint-order="stroke">489.9</text><circle cx="211" cy="300.9" r="1.4" fill="#176c37" fill-opacity="0.82"/><circle cx="212.5" cy="299.6" r="1.4" fill="#176c37" fill-opacity="0.82"/><circle cx="214" cy="310.2" r="1.4" fill="#176c37" fill-opacity="0.82"/><circle cx="215.5" cy="308.6" r="1.4" fill="#176c37" fill-opacity="0.82"/><text x="160" y="336" text-anchor="middle" font-family="Inter,Segoe UI,Arial,sans-serif" font-size="11" font-weight="700" fill="#111827">128 tok</text><line x1="298" y1="300.3" x2="298" y2="312.2" stroke="#f97316" stroke-opacity="0.9" stroke-width="1.7"/><line x1="291.52" y1="300.3" x2="304.48" y2="300.3" stroke="#f97316" stroke-opacity="0.9" stroke-width="1.7"/><line x1="291.52" y1="312.2" x2="304.48" y2="312.2" stroke="#f97316" stroke-opacity="0.9" stroke-width="1.7"/><rect x="289" y="300.5" width="18" height="11.5" rx="2" fill="#f97316" fill-opacity="0.26" stroke="#f97316" stroke-opacity="0.9" stroke-width="1.7"/><line x1="289" y1="306.3" x2="307" y2="306.3" stroke="#f97316" stroke-opacity="0.9" stroke-width="2.4"/><text x="311" y="309.8" text-anchor="start" font-family="Inter,Segoe UI,Arial,sans-serif" font-size="9" font-weight="700" fill="#dc2626" stroke="#ffffff" stroke-width="3" paint-order="stroke">422.9</text><circle cx="295" cy="300.6" r="1.4" fill="#c2410c" fill-opacity="0.82"/><circle cx="296.5" cy="300.3" r="1.4" fill="#c2410c" fill-opacity="0.82"/><circle cx="298" cy="312.2" r="1.4" fill="#c2410c" fill-opacity="0.82"/><circle cx="299.5" cy="312.0" r="1.4" fill="#c2410c" fill-opacity="0.82"/><line x1="352" y1="298.0" x2="352" y2="308.7" stroke="#f2b705" stroke-opacity="0.9" stroke-width="1.7"/><line x1="345.52" y1="298.0" x2="358.48" y2="298.0" stroke="#f2b705" stroke-opacity="0.9" stroke-width="1.7"/><line x1="345.52" y1="308.7" x2="358.48" y2="308.7" stroke="#f2b705" stroke-opacity="0.9" stroke-width="1.7"/><rect x="343" y="299.6" width="18" height="8.3" rx="2" fill="#f2b705" fill-opacity="0.26" stroke="#f2b705" stroke-opacity="0.9" stroke-width="1.7"/><line x1="343" y1="303.8" x2="361" y2="303.8" stroke="#f2b705" stroke-opacity="0.9" stroke-width="2.4"/><text x="365" y="307.3" text-anchor="start" font-family="Inter,Segoe UI,Arial,sans-serif" font-size="9" font-weight="700" fill="#111827" stroke="#ffffff" stroke-width="3" paint-order="stroke">530.0</text><circle cx="349" cy="300.1" r="1.4" fill="#9a6a00" fill-opacity="0.82"/><circle cx="350.5" cy="298.0" r="1.4" fill="#9a6a00" fill-opacity="0.82"/><circle cx="352" cy="308.7" r="1.4" fill="#9a6a00" fill-opacity="0.82"/><circle cx="353.5" cy="307.6" r="1.4" fill="#9a6a00" fill-opacity="0.82"/><line x1="406" y1="266.4" x2="406" y2="306.0" stroke="#2eaf5f" stroke-opacity="0.9" stroke-width="1.7"/><line x1="399.52" y1="266.4" x2="412.48" y2="266.4" stroke="#2eaf5f" stroke-opacity="0.9" stroke-width="1.7"/><line x1="399.52" y1="306.0" x2="412.48" y2="306.0" stroke="#2eaf5f" stroke-opacity="0.9" stroke-width="1.7"/><rect x="397" y="267.7" width="18" height="37.3" rx="2" fill="#2eaf5f" fill-opacity="0.26" stroke="#2eaf5f" stroke-opacity="0.9" stroke-width="1.7"/><line x1="397" y1="286.4" x2="415" y2="286.4" stroke="#2eaf5f" stroke-opacity="0.9" stroke-width="2.4"/><text x="419" y="289.9" text-anchor="start" font-family="Inter,Segoe UI,Arial,sans-serif" font-size="9" font-weight="700" fill="#111827" stroke="#ffffff" stroke-width="3" paint-order="stroke">1.3k</text><circle cx="403" cy="268.1" r="1.4" fill="#176c37" fill-opacity="0.82"/><circle cx="404.5" cy="266.4" r="1.4" fill="#176c37" fill-opacity="0.82"/><circle cx="406" cy="306.0" r="1.4" fill="#176c37" fill-opacity="0.82"/><circle cx="407.5" cy="304.6" r="1.4" fill="#176c37" fill-opacity="0.82"/><text x="352" y="336" text-anchor="middle" font-family="Inter,Segoe UI,Arial,sans-serif" font-size="11" font-weight="700" fill="#111827">512 tok</text><line x1="490" y1="243.5" x2="490" y2="302.6" stroke="#f97316" stroke-opacity="0.9" stroke-width="1.7"/><line x1="483.52" y1="243.5" x2="496.48" y2="243.5" stroke="#f97316" stroke-opacity="0.9" stroke-width="1.7"/><line x1="483.52" y1="302.6" x2="496.48" y2="302.6" stroke="#f97316" stroke-opacity="0.9" stroke-width="1.7"/><rect x="481" y="245.4" width="18" height="56.7" rx="2" fill="#f97316" fill-opacity="0.26" stroke="#f97316" stroke-opacity="0.9" stroke-width="1.7"/><line x1="481" y1="274.0" x2="499" y2="274.0" stroke="#f97316" stroke-opacity="0.9" stroke-width="2.4"/><text x="503" y="277.5" text-anchor="start" font-family="Inter,Segoe UI,Arial,sans-serif" font-size="9" font-weight="700" fill="#111827" stroke="#ffffff" stroke-width="3" paint-order="stroke">1.8k</text><circle cx="487" cy="246.1" r="1.4" fill="#c2410c" fill-opacity="0.82"/><circle cx="488.5" cy="243.5" r="1.4" fill="#c2410c" fill-opacity="0.82"/><circle cx="490" cy="302.6" r="1.4" fill="#c2410c" fill-opacity="0.82"/><circle cx="491.5" cy="301.9" r="1.4" fill="#c2410c" fill-opacity="0.82"/><line x1="544" y1="259.4" x2="544" y2="302.4" stroke="#f2b705" stroke-opacity="0.9" stroke-width="1.7"/><line x1="537.52" y1="259.4" x2="550.48" y2="259.4" stroke="#f2b705" stroke-opacity="0.9" stroke-width="1.7"/><line x1="537.52" y1="302.4" x2="550.48" y2="302.4" stroke="#f2b705" stroke-opacity="0.9" stroke-width="1.7"/><rect x="535" y="263.2" width="18" height="35.2" rx="2" fill="#f2b705" fill-opacity="0.26" stroke="#f2b705" stroke-opacity="0.9" stroke-width="1.7"/><line x1="535" y1="280.8" x2="553" y2="280.8" stroke="#f2b705" stroke-opacity="0.9" stroke-width="2.4"/><text x="557" y="284.3" text-anchor="start" font-family="Inter,Segoe UI,Arial,sans-serif" font-size="9" font-weight="700" fill="#dc2626" stroke="#ffffff" stroke-width="3" paint-order="stroke">1.5k</text><circle cx="541" cy="264.5" r="1.4" fill="#9a6a00" fill-opacity="0.82"/><circle cx="542.5" cy="259.4" r="1.4" fill="#9a6a00" fill-opacity="0.82"/><circle cx="544" cy="302.4" r="1.4" fill="#9a6a00" fill-opacity="0.82"/><circle cx="545.5" cy="297.1" r="1.4" fill="#9a6a00" fill-opacity="0.82"/><line x1="598" y1="131.7" x2="598" y2="288.2" stroke="#2eaf5f" stroke-opacity="0.9" stroke-width="1.7"/><line x1="591.52" y1="131.7" x2="604.48" y2="131.7" stroke="#2eaf5f" stroke-opacity="0.9" stroke-width="1.7"/><line x1="591.52" y1="288.2" x2="604.48" y2="288.2" stroke="#2eaf5f" stroke-opacity="0.9" stroke-width="1.7"/><rect x="589" y="134.8" width="18" height="151.9" rx="2" fill="#2eaf5f" fill-opacity="0.26" stroke="#2eaf5f" stroke-opacity="0.9" stroke-width="1.7"/><line x1="589" y1="211.0" x2="607" y2="211.0" stroke="#2eaf5f" stroke-opacity="0.9" stroke-width="2.4"/><text x="611" y="214.5" text-anchor="start" font-family="Inter,Segoe UI,Arial,sans-serif" font-size="9" font-weight="700" fill="#111827" stroke="#ffffff" stroke-width="3" paint-order="stroke">4.6k</text><circle cx="595" cy="135.8" r="1.4" fill="#176c37" fill-opacity="0.82"/><circle cx="596.5" cy="131.7" r="1.4" fill="#176c37" fill-opacity="0.82"/><circle cx="598" cy="288.2" r="1.4" fill="#176c37" fill-opacity="0.82"/><circle cx="599.5" cy="286.1" r="1.4" fill="#176c37" fill-opacity="0.82"/><text x="544" y="336" text-anchor="middle" font-family="Inter,Segoe UI,Arial,sans-serif" font-size="11" font-weight="700" fill="#111827">2048 tok</text><rect x="64" y="363" width="10" height="10" rx="2" fill="#f97316" fill-opacity="0.5" stroke="#f97316" stroke-width="1.4"/><text x="78" y="372" font-family="Inter,Segoe UI,Arial,sans-serif" font-size="10" fill="#374151">llama.cpp b9910</text><rect x="234" y="363" width="10" height="10" rx="2" fill="#f2b705" fill-opacity="0.5" stroke="#f2b705" stroke-width="1.4"/><text x="248" y="372" font-family="Inter,Segoe UI,Arial,sans-serif" font-size="10" fill="#374151">mlx-lm 0.31.3</text><rect x="404" y="363" width="10" height="10" rx="2" fill="#2eaf5f" fill-opacity="0.5" stroke="#2eaf5f" stroke-width="1.4"/><text x="418" y="372" font-family="Inter,Segoe UI,Arial,sans-serif" font-size="10" fill="#374151">AX Engine v6.8.2 (2026-07-11)</text></svg>
