<svg xmlns="http://www.w3.org/2000/svg" width="800" height="430" viewBox="0 0 800 430" role="img" aria-labelledby="title desc"><title>Qwen 3.6 — Decode rate</title><desc>Grouped box-and-whisker plot comparing llama.cpp b9430, mlx-lm 0.31.3, AX Engine v5.1.1, AX+ngram v5.1.1 at 128/512/2048 prompt tokens for Qwen 3.6 models. A red dotted line marks the highest median.</desc><rect width="800" height="430" fill="#f8fafc"/><text x="64" y="24" font-family="Inter,Segoe UI,Arial,sans-serif" font-size="16" font-weight="700" fill="#111827">Qwen 3.6 — Decode rate</text><text x="64" y="46" font-family="Inter,Segoe UI,Arial,sans-serif" font-size="11" fill="#4b5563">AX n-gram is the default policy</text><text x="64" y="62" font-family="Inter,Segoe UI,Arial,sans-serif" font-size="10" fill="#6b7280">llama.cpp b9430 · mlx-lm 0.31.3 · AX Engine v5.1.1</text><rect x="707" y="13" width="59" height="22" rx="11" fill="#eef2ff" stroke="#c7d2fe"/><text x="736.5" y="28" text-anchor="middle" font-family="Inter,Segoe UI,Arial,sans-serif" font-size="10" font-weight="700" fill="#3730a3">tok/s</text><text x="766" y="52" text-anchor="end" font-family="Inter,Segoe UI,Arial,sans-serif" font-size="10" font-weight="700" fill="#374151">Higher is better</text><rect x="64" y="86" width="576" height="230" rx="6" fill="#ffffff" stroke="#dbe3ef"/><line x1="64" y1="316.0" x2="640" y2="316.0" stroke="#e5e7eb" stroke-width="1"/><text x="56" y="319.0" text-anchor="end" font-family="Inter,Segoe UI,Arial,sans-serif" font-size="11" fill="#6b7280">0</text><line x1="64" y1="258.5" x2="640" y2="258.5" stroke="#e5e7eb" stroke-width="1"/><text x="56" y="261.5" text-anchor="end" font-family="Inter,Segoe UI,Arial,sans-serif" font-size="11" fill="#6b7280">50</text><line x1="64" y1="201.0" x2="640" y2="201.0" stroke="#e5e7eb" stroke-width="1"/><text x="56" y="204.0" text-anchor="end" font-family="Inter,Segoe UI,Arial,sans-serif" font-size="11" fill="#6b7280">100</text><line x1="64" y1="143.5" x2="640" y2="143.5" stroke="#e5e7eb" stroke-width="1"/><text x="56" y="146.5" text-anchor="end" font-family="Inter,Segoe UI,Arial,sans-serif" font-size="11" fill="#6b7280">150</text><line x1="64" y1="86.0" x2="640" y2="86.0" stroke="#e5e7eb" stroke-width="1"/><text x="56" y="89.0" text-anchor="end" font-family="Inter,Segoe UI,Arial,sans-serif" font-size="11" fill="#6b7280">200</text><line x1="64" y1="282.6" x2="640" y2="282.6" stroke="#dc2626" stroke-width="1.2" stroke-dasharray="1 4" stroke-linecap="round"/><text x="648" y="277.6" text-anchor="start" font-family="Inter,Segoe UI,Arial,sans-serif" font-size="11" font-weight="700" fill="#dc2626" data-label="highest median">highest: 29.0</text><line x1="106" y1="192.1" x2="106" y2="296.0" stroke="#f97316" stroke-opacity="0.55" stroke-width="1.7"/><line x1="100.24" y1="192.1" x2="111.76" y2="192.1" stroke="#f97316" stroke-opacity="0.55" stroke-width="1.7"/><line x1="100.24" y1="296.0" x2="111.76" y2="296.0" stroke="#f97316" stroke-opacity="0.55" stroke-width="1.7"/><rect x="98" y="293.2" width="16" height="1.0" rx="2" fill="#f97316" fill-opacity="0.08" stroke="#f97316" stroke-opacity="0.55" stroke-width="1.7"/><line x1="98" y1="293.7" x2="114" y2="293.7" stroke="#f97316" stroke-opacity="0.55" stroke-width="2.4"/><text x="106" y="331" text-anchor="middle" font-family="Inter,Segoe UI,Arial,sans-serif" font-size="9" fill="#6b7280">128</text><circle cx="103" cy="293.7" r="1.4" fill="#c2410c" fill-opacity="0.5"/><circle cx="104.5" cy="293.2" r="1.4" fill="#c2410c" fill-opacity="0.5"/><circle cx="106" cy="293.7" r="1.4" fill="#c2410c" fill-opacity="0.5"/><circle cx="107.5" cy="296.0" r="1.4" fill="#c2410c" fill-opacity="0.5"/><circle cx="109" cy="192.1" r="1.4" fill="#c2410c" fill-opacity="0.5"/><line x1="136" y1="192.0" x2="136" y2="296.3" stroke="#f97316" stroke-opacity="0.78" stroke-width="1.7"/><line x1="130.24" y1="192.0" x2="141.76" y2="192.0" stroke="#f97316" stroke-opacity="0.78" stroke-width="1.7"/><line x1="130.24" y1="296.3" x2="141.76" y2="296.3" stroke="#f97316" stroke-opacity="0.78" stroke-width="1.7"/><rect x="128" y="291.2" width="16" height="2.5" rx="2" fill="#f97316" fill-opacity="0.17" stroke="#f97316" stroke-opacity="0.78" stroke-width="1.7"/><line x1="128" y1="292.1" x2="144" y2="292.1" stroke="#f97316" stroke-opacity="0.78" stroke-width="2.4"/><text x="136" y="331" text-anchor="middle" font-family="Inter,Segoe UI,Arial,sans-serif" font-size="9" fill="#6b7280">512</text><circle cx="133" cy="291.2" r="1.4" fill="#c2410c" fill-opacity="0.7"/><circle cx="134.5" cy="292.1" r="1.4" fill="#c2410c" fill-opacity="0.7"/><circle cx="136" cy="293.6" r="1.4" fill="#c2410c" fill-opacity="0.7"/><circle cx="137.5" cy="296.3" r="1.4" fill="#c2410c" fill-opacity="0.7"/><circle cx="139" cy="192.0" r="1.4" fill="#c2410c" fill-opacity="0.7"/><line x1="166" y1="192.3" x2="166" y2="296.3" stroke="#f97316" stroke-opacity="1.0" stroke-width="1.7"/><line x1="160.24" y1="192.3" x2="171.76" y2="192.3" stroke="#f97316" stroke-opacity="1.0" stroke-width="1.7"/><line x1="160.24" y1="296.3" x2="171.76" y2="296.3" stroke="#f97316" stroke-opacity="1.0" stroke-width="1.7"/><rect x="158" y="287.6" width="16" height="6.1" rx="2" fill="#f97316" fill-opacity="0.3" stroke="#f97316" stroke-opacity="1.0" stroke-width="1.7"/><line x1="158" y1="292.1" x2="174" y2="292.1" stroke="#f97316" stroke-opacity="1.0" stroke-width="2.4"/><text x="166" y="331" text-anchor="middle" font-family="Inter,Segoe UI,Arial,sans-serif" font-size="9" fill="#6b7280">2048</text><circle cx="163" cy="287.6" r="1.4" fill="#c2410c" fill-opacity="0.9"/><circle cx="164.5" cy="292.1" r="1.4" fill="#c2410c" fill-opacity="0.9"/><circle cx="166" cy="293.7" r="1.4" fill="#c2410c" fill-opacity="0.9"/><circle cx="167.5" cy="296.3" r="1.4" fill="#c2410c" fill-opacity="0.9"/><circle cx="169" cy="192.3" r="1.4" fill="#c2410c" fill-opacity="0.9"/><text x="136" y="348" text-anchor="middle" font-family="Inter,Segoe UI,Arial,sans-serif" font-size="10" font-weight="700" fill="#111827">llama.cpp b9430</text><line x1="250" y1="154.9" x2="250" y2="294.5" stroke="#f2b705" stroke-opacity="0.55" stroke-width="1.7"/><line x1="244.24" y1="154.9" x2="255.76" y2="154.9" stroke="#f2b705" stroke-opacity="0.55" stroke-width="1.7"/><line x1="244.24" y1="294.5" x2="255.76" y2="294.5" stroke="#f2b705" stroke-opacity="0.55" stroke-width="1.7"/><rect x="242" y="276.9" width="16" height="14.2" rx="2" fill="#f2b705" fill-opacity="0.08" stroke="#f2b705" stroke-opacity="0.55" stroke-width="1.7"/><line x1="242" y1="288.4" x2="258" y2="288.4" stroke="#f2b705" stroke-opacity="0.55" stroke-width="2.4"/><text x="250" y="331" text-anchor="middle" font-family="Inter,Segoe UI,Arial,sans-serif" font-size="9" fill="#6b7280">128</text><circle cx="247" cy="276.9" r="1.4" fill="#9a6a00" fill-opacity="0.5"/><circle cx="248.5" cy="291.2" r="1.4" fill="#9a6a00" fill-opacity="0.5"/><circle cx="250" cy="288.4" r="1.4" fill="#9a6a00" fill-opacity="0.5"/><circle cx="251.5" cy="294.5" r="1.4" fill="#9a6a00" fill-opacity="0.5"/><circle cx="253" cy="154.9" r="1.4" fill="#9a6a00" fill-opacity="0.5"/><line x1="280" y1="159.1" x2="280" y2="294.6" stroke="#f2b705" stroke-opacity="0.78" stroke-width="1.7"/><line x1="274.24" y1="159.1" x2="285.76" y2="159.1" stroke="#f2b705" stroke-opacity="0.78" stroke-width="1.7"/><line x1="274.24" y1="294.6" x2="285.76" y2="294.6" stroke="#f2b705" stroke-opacity="0.78" stroke-width="1.7"/><rect x="272" y="277.0" width="16" height="10.5" rx="2" fill="#f2b705" fill-opacity="0.17" stroke="#f2b705" stroke-opacity="0.78" stroke-width="1.7"/><line x1="272" y1="283.6" x2="288" y2="283.6" stroke="#f2b705" stroke-opacity="0.78" stroke-width="2.4"/><text x="280" y="331" text-anchor="middle" font-family="Inter,Segoe UI,Arial,sans-serif" font-size="9" fill="#6b7280">512</text><circle cx="277" cy="277.0" r="1.4" fill="#9a6a00" fill-opacity="0.7"/><circle cx="278.5" cy="283.6" r="1.4" fill="#9a6a00" fill-opacity="0.7"/><circle cx="280" cy="287.5" r="1.4" fill="#9a6a00" fill-opacity="0.7"/><circle cx="281.5" cy="294.6" r="1.4" fill="#9a6a00" fill-opacity="0.7"/><circle cx="283" cy="159.1" r="1.4" fill="#9a6a00" fill-opacity="0.7"/><line x1="310" y1="161.4" x2="310" y2="294.8" stroke="#f2b705" stroke-opacity="1.0" stroke-width="1.7"/><line x1="304.24" y1="161.4" x2="315.76" y2="161.4" stroke="#f2b705" stroke-opacity="1.0" stroke-width="1.7"/><line x1="304.24" y1="294.8" x2="315.76" y2="294.8" stroke="#f2b705" stroke-opacity="1.0" stroke-width="1.7"/><rect x="302" y="277.5" width="16" height="10.1" rx="2" fill="#f2b705" fill-opacity="0.3" stroke="#f2b705" stroke-opacity="1.0" stroke-width="1.7"/><line x1="302" y1="284.0" x2="318" y2="284.0" stroke="#f2b705" stroke-opacity="1.0" stroke-width="2.4"/><text x="310" y="331" text-anchor="middle" font-family="Inter,Segoe UI,Arial,sans-serif" font-size="9" fill="#6b7280">2048</text><circle cx="307" cy="277.5" r="1.4" fill="#9a6a00" fill-opacity="0.9"/><circle cx="308.5" cy="284.0" r="1.4" fill="#9a6a00" fill-opacity="0.9"/><circle cx="310" cy="287.7" r="1.4" fill="#9a6a00" fill-opacity="0.9"/><circle cx="311.5" cy="294.8" r="1.4" fill="#9a6a00" fill-opacity="0.9"/><circle cx="313" cy="161.4" r="1.4" fill="#9a6a00" fill-opacity="0.9"/><text x="280" y="348" text-anchor="middle" font-family="Inter,Segoe UI,Arial,sans-serif" font-size="10" font-weight="700" fill="#111827">mlx-lm 0.31.3</text><line x1="394" y1="134.9" x2="394" y2="293.7" stroke="#2eaf5f" stroke-opacity="0.55" stroke-width="1.7"/><line x1="388.24" y1="134.9" x2="399.76" y2="134.9" stroke="#2eaf5f" stroke-opacity="0.55" stroke-width="1.7"/><line x1="388.24" y1="293.7" x2="399.76" y2="293.7" stroke="#2eaf5f" stroke-opacity="0.55" stroke-width="1.7"/><rect x="386" y="275.6" width="16" height="10.9" rx="2" fill="#2eaf5f" fill-opacity="0.08" stroke="#2eaf5f" stroke-opacity="0.55" stroke-width="1.7"/><line x1="386" y1="282.7" x2="402" y2="282.7" stroke="#2eaf5f" stroke-opacity="0.55" stroke-width="2.4"/><text x="394" y="331" text-anchor="middle" font-family="Inter,Segoe UI,Arial,sans-serif" font-size="9" fill="#6b7280">128</text><circle cx="391" cy="275.6" r="1.4" fill="#176c37" fill-opacity="0.5"/><circle cx="392.5" cy="282.7" r="1.4" fill="#176c37" fill-opacity="0.5"/><circle cx="394" cy="286.5" r="1.4" fill="#176c37" fill-opacity="0.5"/><circle cx="395.5" cy="293.7" r="1.4" fill="#176c37" fill-opacity="0.5"/><circle cx="397" cy="134.9" r="1.4" fill="#176c37" fill-opacity="0.5"/><line x1="424" y1="136.5" x2="424" y2="293.8" stroke="#2eaf5f" stroke-opacity="0.78" stroke-width="1.7"/><line x1="418.24" y1="136.5" x2="429.76" y2="136.5" stroke="#2eaf5f" stroke-opacity="0.78" stroke-width="1.7"/><line x1="418.24" y1="293.8" x2="429.76" y2="293.8" stroke="#2eaf5f" stroke-opacity="0.78" stroke-width="1.7"/><rect x="416" y="275.9" width="16" height="10.6" rx="2" fill="#2eaf5f" fill-opacity="0.17" stroke="#2eaf5f" stroke-opacity="0.78" stroke-width="1.7"/><line x1="416" y1="282.8" x2="432" y2="282.8" stroke="#2eaf5f" stroke-opacity="0.78" stroke-width="2.4"/><text x="424" y="331" text-anchor="middle" font-family="Inter,Segoe UI,Arial,sans-serif" font-size="9" fill="#6b7280">512</text><circle cx="421" cy="275.9" r="1.4" fill="#176c37" fill-opacity="0.7"/><circle cx="422.5" cy="282.8" r="1.4" fill="#176c37" fill-opacity="0.7"/><circle cx="424" cy="286.5" r="1.4" fill="#176c37" fill-opacity="0.7"/><circle cx="425.5" cy="293.8" r="1.4" fill="#176c37" fill-opacity="0.7"/><circle cx="427" cy="136.5" r="1.4" fill="#176c37" fill-opacity="0.7"/><line x1="454" y1="139.5" x2="454" y2="293.9" stroke="#2eaf5f" stroke-opacity="1.0" stroke-width="1.7"/><line x1="448.24" y1="139.5" x2="459.76" y2="139.5" stroke="#2eaf5f" stroke-opacity="1.0" stroke-width="1.7"/><line x1="448.24" y1="293.9" x2="459.76" y2="293.9" stroke="#2eaf5f" stroke-opacity="1.0" stroke-width="1.7"/><rect x="446" y="276.4" width="16" height="10.4" rx="2" fill="#2eaf5f" fill-opacity="0.3" stroke="#2eaf5f" stroke-opacity="1.0" stroke-width="1.7"/><line x1="446" y1="283.0" x2="462" y2="283.0" stroke="#2eaf5f" stroke-opacity="1.0" stroke-width="2.4"/><text x="454" y="331" text-anchor="middle" font-family="Inter,Segoe UI,Arial,sans-serif" font-size="9" fill="#6b7280">2048</text><circle cx="451" cy="276.4" r="1.4" fill="#176c37" fill-opacity="0.9"/><circle cx="452.5" cy="283.0" r="1.4" fill="#176c37" fill-opacity="0.9"/><circle cx="454" cy="286.8" r="1.4" fill="#176c37" fill-opacity="0.9"/><circle cx="455.5" cy="293.9" r="1.4" fill="#176c37" fill-opacity="0.9"/><circle cx="457" cy="139.5" r="1.4" fill="#176c37" fill-opacity="0.9"/><text x="424" y="348" text-anchor="middle" font-family="Inter,Segoe UI,Arial,sans-serif" font-size="10" font-weight="700" fill="#111827">AX Engine v5.1.1</text><line x1="538" y1="135.2" x2="538" y2="293.7" stroke="#137a3d" stroke-opacity="0.55" stroke-width="1.7"/><line x1="532.24" y1="135.2" x2="543.76" y2="135.2" stroke="#137a3d" stroke-opacity="0.55" stroke-width="1.7"/><line x1="532.24" y1="293.7" x2="543.76" y2="293.7" stroke="#137a3d" stroke-opacity="0.55" stroke-width="1.7"/><rect x="530" y="276.1" width="16" height="10.3" rx="2" fill="#137a3d" fill-opacity="0.08" stroke="#137a3d" stroke-opacity="0.55" stroke-width="1.7"/><line x1="530" y1="282.6" x2="546" y2="282.6" stroke="#137a3d" stroke-opacity="0.55" stroke-width="2.4"/><text x="538" y="331" text-anchor="middle" font-family="Inter,Segoe UI,Arial,sans-serif" font-size="9" fill="#6b7280">128</text><circle cx="535" cy="276.1" r="1.4" fill="#0b4f28" fill-opacity="0.5"/><circle cx="536.5" cy="282.6" r="1.4" fill="#0b4f28" fill-opacity="0.5"/><circle cx="538" cy="286.4" r="1.4" fill="#0b4f28" fill-opacity="0.5"/><circle cx="539.5" cy="293.7" r="1.4" fill="#0b4f28" fill-opacity="0.5"/><circle cx="541" cy="135.2" r="1.4" fill="#0b4f28" fill-opacity="0.5"/><line x1="568" y1="136.7" x2="568" y2="293.8" stroke="#137a3d" stroke-opacity="0.78" stroke-width="1.7"/><line x1="562.24" y1="136.7" x2="573.76" y2="136.7" stroke="#137a3d" stroke-opacity="0.78" stroke-width="1.7"/><line x1="562.24" y1="293.8" x2="573.76" y2="293.8" stroke="#137a3d" stroke-opacity="0.78" stroke-width="1.7"/><rect x="560" y="276.7" width="16" height="9.8" rx="2" fill="#137a3d" fill-opacity="0.17" stroke="#137a3d" stroke-opacity="0.78" stroke-width="1.7"/><line x1="560" y1="282.7" x2="576" y2="282.7" stroke="#137a3d" stroke-opacity="0.78" stroke-width="2.4"/><text x="568" y="331" text-anchor="middle" font-family="Inter,Segoe UI,Arial,sans-serif" font-size="9" fill="#6b7280">512</text><circle cx="565" cy="276.7" r="1.4" fill="#0b4f28" fill-opacity="0.7"/><circle cx="566.5" cy="282.7" r="1.4" fill="#0b4f28" fill-opacity="0.7"/><circle cx="568" cy="286.5" r="1.4" fill="#0b4f28" fill-opacity="0.7"/><circle cx="569.5" cy="293.8" r="1.4" fill="#0b4f28" fill-opacity="0.7"/><circle cx="571" cy="136.7" r="1.4" fill="#0b4f28" fill-opacity="0.7"/><line x1="598" y1="139.5" x2="598" y2="294.0" stroke="#137a3d" stroke-opacity="1.0" stroke-width="1.7"/><line x1="592.24" y1="139.5" x2="603.76" y2="139.5" stroke="#137a3d" stroke-opacity="1.0" stroke-width="1.7"/><line x1="592.24" y1="294.0" x2="603.76" y2="294.0" stroke="#137a3d" stroke-opacity="1.0" stroke-width="1.7"/><rect x="590" y="277.4" width="16" height="9.3" rx="2" fill="#137a3d" fill-opacity="0.3" stroke="#137a3d" stroke-opacity="1.0" stroke-width="1.7"/><line x1="590" y1="282.9" x2="606" y2="282.9" stroke="#137a3d" stroke-opacity="1.0" stroke-width="2.4"/><text x="598" y="331" text-anchor="middle" font-family="Inter,Segoe UI,Arial,sans-serif" font-size="9" fill="#6b7280">2048</text><circle cx="595" cy="277.4" r="1.4" fill="#0b4f28" fill-opacity="0.9"/><circle cx="596.5" cy="282.9" r="1.4" fill="#0b4f28" fill-opacity="0.9"/><circle cx="598" cy="286.7" r="1.4" fill="#0b4f28" fill-opacity="0.9"/><circle cx="599.5" cy="294.0" r="1.4" fill="#0b4f28" fill-opacity="0.9"/><circle cx="601" cy="139.5" r="1.4" fill="#0b4f28" fill-opacity="0.9"/><text x="568" y="348" text-anchor="middle" font-family="Inter,Segoe UI,Arial,sans-serif" font-size="10" font-weight="700" fill="#111827">AX+ngram v5.1.1</text><rect x="64" y="363" width="10" height="10" rx="2" fill="#6b7280" fill-opacity="0.08" stroke="#6b7280" stroke-opacity="0.55" stroke-width="1.4"/><text x="78" y="372" font-family="Inter,Segoe UI,Arial,sans-serif" font-size="10" fill="#374151">128 tok</text><rect x="184" y="363" width="10" height="10" rx="2" fill="#6b7280" fill-opacity="0.17" stroke="#6b7280" stroke-opacity="0.78" stroke-width="1.4"/><text x="198" y="372" font-family="Inter,Segoe UI,Arial,sans-serif" font-size="10" fill="#374151">512 tok</text><rect x="304" y="363" width="10" height="10" rx="2" fill="#6b7280" fill-opacity="0.3" stroke="#6b7280" stroke-opacity="1.0" stroke-width="1.4"/><text x="318" y="372" font-family="Inter,Segoe UI,Arial,sans-serif" font-size="10" fill="#374151">2048 tok</text></svg>
