<svg xmlns="http://www.w3.org/2000/svg" width="800" height="430" viewBox="0 0 800 430" role="img" aria-labelledby="title desc"><title>Qwen3 embedding ingest scale</title><desc>Grouped by model | box=IQR | whiskers=min/max | dots=six chunk/batch shapes. Grouped box-and-whisker plot comparing mlx-lm and AX Engine throughput across the displayed embedding model group(s). Within each group, the best median label is red.</desc><rect width="800" height="430" fill="#f8fafc"/><text x="64" y="24" font-family="Inter,Segoe UI,Arial,sans-serif" font-size="16" font-weight="700" fill="#111827">Qwen3 embedding ingest scale</text><text x="64" y="46" font-family="Inter,Segoe UI,Arial,sans-serif" font-size="11" fill="#4b5563">Grouped by model | box=IQR | whiskers=min/max | dots=six chunk/batch shapes.</text><text x="64" y="62" font-family="Inter,Segoe UI,Arial,sans-serif" font-size="10" fill="#6b7280">Source: 2026-07-03 Qwen same-session paired refresh</text><rect x="707" y="13" width="59" height="22" rx="11" fill="#eef2ff" stroke="#c7d2fe"/><text x="736.5" y="28" text-anchor="middle" font-family="Inter,Segoe UI,Arial,sans-serif" font-size="10" font-weight="700" fill="#3730a3">tok/s</text><text x="766" y="52" text-anchor="end" font-family="Inter,Segoe UI,Arial,sans-serif" font-size="10" font-weight="700" fill="#dc2626">Higher is better</text><rect x="64" y="86" width="576" height="230" rx="6" fill="#ffffff" stroke="#dbe3ef"/><line x1="64" y1="316.0" x2="640" y2="316.0" stroke="#e5e7eb" stroke-width="1"/><text x="56" y="319.0" text-anchor="end" font-family="Inter,Segoe UI,Arial,sans-serif" font-size="11" fill="#6b7280">0</text><line x1="64" y1="258.5" x2="640" y2="258.5" stroke="#e5e7eb" stroke-width="1"/><text x="56" y="261.5" text-anchor="end" font-family="Inter,Segoe UI,Arial,sans-serif" font-size="11" fill="#6b7280">15k</text><line x1="64" y1="201.0" x2="640" y2="201.0" stroke="#e5e7eb" stroke-width="1"/><text x="56" y="204.0" text-anchor="end" font-family="Inter,Segoe UI,Arial,sans-serif" font-size="11" fill="#6b7280">30k</text><line x1="64" y1="143.5" x2="640" y2="143.5" stroke="#e5e7eb" stroke-width="1"/><text x="56" y="146.5" text-anchor="end" font-family="Inter,Segoe UI,Arial,sans-serif" font-size="11" fill="#6b7280">45k</text><line x1="64" y1="86.0" x2="640" y2="86.0" stroke="#e5e7eb" stroke-width="1"/><text x="56" y="89.0" text-anchor="end" font-family="Inter,Segoe UI,Arial,sans-serif" font-size="11" fill="#6b7280">60k</text><line x1="138" y1="124.5" x2="138" y2="134.9" stroke="#f2b705" stroke-opacity="0.9" stroke-width="1.7"/><line x1="130.8" y1="124.5" x2="145.2" y2="124.5" stroke="#f2b705" stroke-opacity="0.9" stroke-width="1.7"/><line x1="130.8" y1="134.9" x2="145.2" y2="134.9" stroke="#f2b705" stroke-opacity="0.9" stroke-width="1.7"/><rect x="128" y="126.0" width="20" height="4.4" rx="2" fill="#f2b705" fill-opacity="0.26" stroke="#f2b705" stroke-opacity="0.9" stroke-width="1.7"/><line x1="128" y1="128.6" x2="148" y2="128.6" stroke="#f2b705" stroke-opacity="0.9" stroke-width="2.4"/><text x="123" y="132.1" text-anchor="end" font-family="Inter,Segoe UI,Arial,sans-serif" font-size="9" font-weight="700" fill="#dc2626" stroke="#ffffff" stroke-width="3" paint-order="stroke">48.9k</text><circle cx="135" cy="134.9" r="1.4" fill="#9a6a00" fill-opacity="0.82"/><circle cx="136.2" cy="125.1" r="1.4" fill="#9a6a00" fill-opacity="0.82"/><circle cx="137.4" cy="124.5" r="1.4" fill="#9a6a00" fill-opacity="0.82"/><circle cx="138.6" cy="131.0" r="1.4" fill="#9a6a00" fill-opacity="0.82"/><circle cx="139.8" cy="128.5" r="1.4" fill="#9a6a00" fill-opacity="0.82"/><circle cx="141" cy="128.7" r="1.4" fill="#9a6a00" fill-opacity="0.82"/><line x1="182" y1="124.1" x2="182" y2="130.6" stroke="#2eaf5f" stroke-opacity="0.9" stroke-width="1.7"/><line x1="174.8" y1="124.1" x2="189.2" y2="124.1" stroke="#2eaf5f" stroke-opacity="0.9" stroke-width="1.7"/><line x1="174.8" y1="130.6" x2="189.2" y2="130.6" stroke="#2eaf5f" stroke-opacity="0.9" stroke-width="1.7"/><rect x="172" y="125.8" width="20" height="3.2" rx="2" fill="#2eaf5f" fill-opacity="0.26" stroke="#2eaf5f" stroke-opacity="0.9" stroke-width="1.7"/><line x1="172" y1="128.7" x2="192" y2="128.7" stroke="#2eaf5f" stroke-opacity="0.9" stroke-width="2.4"/><text x="197" y="132.2" text-anchor="start" font-family="Inter,Segoe UI,Arial,sans-serif" font-size="9" font-weight="700" fill="#176c37" stroke="#ffffff" stroke-width="3" paint-order="stroke">48.9k</text><circle cx="179" cy="130.6" r="1.4" fill="#176c37" fill-opacity="0.82"/><circle cx="180.2" cy="124.1" r="1.4" fill="#176c37" fill-opacity="0.82"/><circle cx="181.4" cy="124.9" r="1.4" fill="#176c37" fill-opacity="0.82"/><circle cx="182.6" cy="129.0" r="1.4" fill="#176c37" fill-opacity="0.82"/><circle cx="183.8" cy="128.4" r="1.4" fill="#176c37" fill-opacity="0.82"/><circle cx="185" cy="129.0" r="1.4" fill="#176c37" fill-opacity="0.82"/><text x="160" y="339" text-anchor="middle" font-family="Inter,Segoe UI,Arial,sans-serif" font-size="11" font-weight="700" fill="#111827">Qwen3 0.6B</text><text x="160" y="353" text-anchor="middle" font-family="Inter,Segoe UI,Arial,sans-serif" font-size="10" fill="#6b7280">8-bit</text><line x1="330" y1="291.9" x2="330" y2="293.2" stroke="#f2b705" stroke-opacity="0.9" stroke-width="1.7"/><line x1="322.8" y1="291.9" x2="337.2" y2="291.9" stroke="#f2b705" stroke-opacity="0.9" stroke-width="1.7"/><line x1="322.8" y1="293.2" x2="337.2" y2="293.2" stroke="#f2b705" stroke-opacity="0.9" stroke-width="1.7"/><rect x="320" y="292.0" width="20" height="1.0" rx="2" fill="#f2b705" fill-opacity="0.26" stroke="#f2b705" stroke-opacity="0.9" stroke-width="1.7"/><line x1="320" y1="292.1" x2="340" y2="292.1" stroke="#f2b705" stroke-opacity="0.9" stroke-width="2.4"/><text x="315" y="295.6" text-anchor="end" font-family="Inter,Segoe UI,Arial,sans-serif" font-size="9" font-weight="700" fill="#dc2626" stroke="#ffffff" stroke-width="3" paint-order="stroke">6.2k</text><circle cx="327" cy="293.2" r="1.4" fill="#9a6a00" fill-opacity="0.82"/><circle cx="328.2" cy="292.2" r="1.4" fill="#9a6a00" fill-opacity="0.82"/><circle cx="329.4" cy="292.0" r="1.4" fill="#9a6a00" fill-opacity="0.82"/><circle cx="330.6" cy="291.9" r="1.4" fill="#9a6a00" fill-opacity="0.82"/><circle cx="331.8" cy="292.1" r="1.4" fill="#9a6a00" fill-opacity="0.82"/><circle cx="333" cy="292.0" r="1.4" fill="#9a6a00" fill-opacity="0.82"/><line x1="374" y1="292.0" x2="374" y2="293.2" stroke="#2eaf5f" stroke-opacity="0.9" stroke-width="1.7"/><line x1="366.8" y1="292.0" x2="381.2" y2="292.0" stroke="#2eaf5f" stroke-opacity="0.9" stroke-width="1.7"/><line x1="366.8" y1="293.2" x2="381.2" y2="293.2" stroke="#2eaf5f" stroke-opacity="0.9" stroke-width="1.7"/><rect x="364" y="292.0" width="20" height="1.0" rx="2" fill="#2eaf5f" fill-opacity="0.26" stroke="#2eaf5f" stroke-opacity="0.9" stroke-width="1.7"/><line x1="364" y1="292.1" x2="384" y2="292.1" stroke="#2eaf5f" stroke-opacity="0.9" stroke-width="2.4"/><text x="389" y="295.6" text-anchor="start" font-family="Inter,Segoe UI,Arial,sans-serif" font-size="9" font-weight="700" fill="#176c37" stroke="#ffffff" stroke-width="3" paint-order="stroke">6.2k</text><circle cx="371" cy="293.2" r="1.4" fill="#176c37" fill-opacity="0.82"/><circle cx="372.2" cy="292.5" r="1.4" fill="#176c37" fill-opacity="0.82"/><circle cx="373.4" cy="292.1" r="1.4" fill="#176c37" fill-opacity="0.82"/><circle cx="374.6" cy="292.0" r="1.4" fill="#176c37" fill-opacity="0.82"/><circle cx="375.8" cy="292.1" r="1.4" fill="#176c37" fill-opacity="0.82"/><circle cx="377" cy="292.0" r="1.4" fill="#176c37" fill-opacity="0.82"/><text x="352" y="339" text-anchor="middle" font-family="Inter,Segoe UI,Arial,sans-serif" font-size="11" font-weight="700" fill="#111827">Qwen3 4B</text><text x="352" y="353" text-anchor="middle" font-family="Inter,Segoe UI,Arial,sans-serif" font-size="10" fill="#6b7280">4-bit DWQ</text><line x1="522" y1="302.8" x2="522" y2="303.3" stroke="#f2b705" stroke-opacity="0.9" stroke-width="1.7"/><line x1="514.8" y1="302.8" x2="529.2" y2="302.8" stroke="#f2b705" stroke-opacity="0.9" stroke-width="1.7"/><line x1="514.8" y1="303.3" x2="529.2" y2="303.3" stroke="#f2b705" stroke-opacity="0.9" stroke-width="1.7"/><rect x="512" y="303.0" width="20" height="1.0" rx="2" fill="#f2b705" fill-opacity="0.26" stroke="#f2b705" stroke-opacity="0.9" stroke-width="1.7"/><line x1="512" y1="303.1" x2="532" y2="303.1" stroke="#f2b705" stroke-opacity="0.9" stroke-width="2.4"/><text x="507" y="306.6" text-anchor="end" font-family="Inter,Segoe UI,Arial,sans-serif" font-size="9" font-weight="700" fill="#dc2626" stroke="#ffffff" stroke-width="3" paint-order="stroke">3.4k</text><circle cx="519" cy="302.8" r="1.4" fill="#9a6a00" fill-opacity="0.82"/><circle cx="520.2" cy="303.0" r="1.4" fill="#9a6a00" fill-opacity="0.82"/><circle cx="521.4" cy="303.0" r="1.4" fill="#9a6a00" fill-opacity="0.82"/><circle cx="522.6" cy="303.2" r="1.4" fill="#9a6a00" fill-opacity="0.82"/><circle cx="523.8" cy="303.3" r="1.4" fill="#9a6a00" fill-opacity="0.82"/><circle cx="525" cy="303.3" r="1.4" fill="#9a6a00" fill-opacity="0.82"/><line x1="566" y1="302.8" x2="566" y2="303.3" stroke="#2eaf5f" stroke-opacity="0.9" stroke-width="1.7"/><line x1="558.8" y1="302.8" x2="573.2" y2="302.8" stroke="#2eaf5f" stroke-opacity="0.9" stroke-width="1.7"/><line x1="558.8" y1="303.3" x2="573.2" y2="303.3" stroke="#2eaf5f" stroke-opacity="0.9" stroke-width="1.7"/><rect x="556" y="303.0" width="20" height="1.0" rx="2" fill="#2eaf5f" fill-opacity="0.26" stroke="#2eaf5f" stroke-opacity="0.9" stroke-width="1.7"/><line x1="556" y1="303.1" x2="576" y2="303.1" stroke="#2eaf5f" stroke-opacity="0.9" stroke-width="2.4"/><text x="581" y="306.6" text-anchor="start" font-family="Inter,Segoe UI,Arial,sans-serif" font-size="9" font-weight="700" fill="#176c37" stroke="#ffffff" stroke-width="3" paint-order="stroke">3.4k</text><circle cx="563" cy="302.8" r="1.4" fill="#176c37" fill-opacity="0.82"/><circle cx="564.2" cy="303.0" r="1.4" fill="#176c37" fill-opacity="0.82"/><circle cx="565.4" cy="303.0" r="1.4" fill="#176c37" fill-opacity="0.82"/><circle cx="566.6" cy="303.2" r="1.4" fill="#176c37" fill-opacity="0.82"/><circle cx="567.8" cy="303.3" r="1.4" fill="#176c37" fill-opacity="0.82"/><circle cx="569" cy="303.3" r="1.4" fill="#176c37" fill-opacity="0.82"/><text x="544" y="339" text-anchor="middle" font-family="Inter,Segoe UI,Arial,sans-serif" font-size="11" font-weight="700" fill="#111827">Qwen3 8B</text><text x="544" y="353" text-anchor="middle" font-family="Inter,Segoe UI,Arial,sans-serif" font-size="10" fill="#6b7280">4-bit DWQ</text><rect x="64" y="378" width="10" height="10" rx="2" fill="#f2b705" fill-opacity="0.5" stroke="#9a6a00" stroke-width="1.4"/><text x="78" y="387" font-family="Inter,Segoe UI,Arial,sans-serif" font-size="10" fill="#374151">mlx-lm</text><rect x="192" y="378" width="10" height="10" rx="2" fill="#2eaf5f" fill-opacity="0.5" stroke="#176c37" stroke-width="1.4"/><text x="206" y="387" font-family="Inter,Segoe UI,Arial,sans-serif" font-size="10" fill="#374151">AX Engine</text><text x="64" y="406" font-family="Inter,Segoe UI,Arial,sans-serif" font-size="10" fill="#6b7280">box=IQR | whiskers=min/max | dots=six chunk/batch shapes | best median label is red</text></svg>
