<svg xmlns="http://www.w3.org/2000/svg" width="800" height="430" viewBox="0 0 800 430" role="img" aria-labelledby="title desc"><title>EmbeddingGemma ingest scale</title><desc>One model group | box=IQR | whiskers=min/max | dots=six chunk/batch shapes. Grouped box-and-whisker plot comparing mlx-embeddings and AX Engine throughput across the displayed embedding model group(s).</desc><rect width="800" height="430" fill="#f8fafc"/><text x="64" y="24" font-family="Inter,Segoe UI,Arial,sans-serif" font-size="16" font-weight="700" fill="#111827">EmbeddingGemma ingest scale</text><text x="64" y="46" font-family="Inter,Segoe UI,Arial,sans-serif" font-size="11" fill="#4b5563">One model group | box=IQR | whiskers=min/max | dots=six chunk/batch shapes.</text><text x="64" y="62" font-family="Inter,Segoe UI,Arial,sans-serif" font-size="10" fill="#6b7280">Sources: 2026-07-02 EmbeddingGemma paired reference + AX-only refresh</text><rect x="707" y="13" width="59" height="22" rx="11" fill="#eef2ff" stroke="#c7d2fe"/><text x="736.5" y="28" text-anchor="middle" font-family="Inter,Segoe UI,Arial,sans-serif" font-size="10" font-weight="700" fill="#3730a3">tok/s</text><text x="766" y="52" text-anchor="end" font-family="Inter,Segoe UI,Arial,sans-serif" font-size="10" font-weight="700" fill="#dc2626">Higher is better</text><rect x="64" y="86" width="576" height="230" rx="6" fill="#ffffff" stroke="#dbe3ef"/><line x1="64" y1="316.0" x2="640" y2="316.0" stroke="#e5e7eb" stroke-width="1"/><text x="56" y="319.0" text-anchor="end" font-family="Inter,Segoe UI,Arial,sans-serif" font-size="11" fill="#6b7280">0</text><line x1="64" y1="258.5" x2="640" y2="258.5" stroke="#e5e7eb" stroke-width="1"/><text x="56" y="261.5" text-anchor="end" font-family="Inter,Segoe UI,Arial,sans-serif" font-size="11" fill="#6b7280">42.5k</text><line x1="64" y1="201.0" x2="640" y2="201.0" stroke="#e5e7eb" stroke-width="1"/><text x="56" y="204.0" text-anchor="end" font-family="Inter,Segoe UI,Arial,sans-serif" font-size="11" fill="#6b7280">85k</text><line x1="64" y1="143.5" x2="640" y2="143.5" stroke="#e5e7eb" stroke-width="1"/><text x="56" y="146.5" text-anchor="end" font-family="Inter,Segoe UI,Arial,sans-serif" font-size="11" fill="#6b7280">127.5k</text><line x1="64" y1="86.0" x2="640" y2="86.0" stroke="#e5e7eb" stroke-width="1"/><text x="56" y="89.0" text-anchor="end" font-family="Inter,Segoe UI,Arial,sans-serif" font-size="11" fill="#6b7280">170k</text><line x1="330" y1="113.1" x2="330" y2="143.4" stroke="#f2b705" stroke-opacity="0.9" stroke-width="1.7"/><line x1="322.8" y1="113.1" x2="337.2" y2="113.1" stroke="#f2b705" stroke-opacity="0.9" stroke-width="1.7"/><line x1="322.8" y1="143.4" x2="337.2" y2="143.4" stroke="#f2b705" stroke-opacity="0.9" stroke-width="1.7"/><rect x="320" y="118.1" width="20" height="21.3" rx="2" fill="#f2b705" fill-opacity="0.26" stroke="#f2b705" stroke-opacity="0.9" stroke-width="1.7"/><line x1="320" y1="131.8" x2="340" y2="131.8" stroke="#f2b705" stroke-opacity="0.9" stroke-width="2.4"/><text x="315" y="135.3" text-anchor="end" font-family="Inter,Segoe UI,Arial,sans-serif" font-size="9" font-weight="700" fill="#9a6a00" stroke="#ffffff" stroke-width="3" paint-order="stroke">136.1k</text><circle cx="327" cy="140.2" r="1.4" fill="#9a6a00" fill-opacity="0.82"/><circle cx="328.2" cy="115.4" r="1.4" fill="#9a6a00" fill-opacity="0.82"/><circle cx="329.4" cy="113.1" r="1.4" fill="#9a6a00" fill-opacity="0.82"/><circle cx="330.6" cy="143.4" r="1.4" fill="#9a6a00" fill-opacity="0.82"/><circle cx="331.8" cy="126.4" r="1.4" fill="#9a6a00" fill-opacity="0.82"/><circle cx="333" cy="137.2" r="1.4" fill="#9a6a00" fill-opacity="0.82"/><line x1="374" y1="104.3" x2="374" y2="129.9" stroke="#2eaf5f" stroke-opacity="0.9" stroke-width="1.7"/><line x1="366.8" y1="104.3" x2="381.2" y2="104.3" stroke="#2eaf5f" stroke-opacity="0.9" stroke-width="1.7"/><line x1="366.8" y1="129.9" x2="381.2" y2="129.9" stroke="#2eaf5f" stroke-opacity="0.9" stroke-width="1.7"/><rect x="364" y="109.8" width="20" height="17.5" rx="2" fill="#2eaf5f" fill-opacity="0.26" stroke="#2eaf5f" stroke-opacity="0.9" stroke-width="1.7"/><line x1="364" y1="119.8" x2="384" y2="119.8" stroke="#2eaf5f" stroke-opacity="0.9" stroke-width="2.4"/><text x="389" y="123.3" text-anchor="start" font-family="Inter,Segoe UI,Arial,sans-serif" font-size="9" font-weight="700" fill="#176c37" stroke="#ffffff" stroke-width="3" paint-order="stroke">145.0k</text><circle cx="371" cy="129.9" r="1.4" fill="#176c37" fill-opacity="0.82"/><circle cx="372.2" cy="104.3" r="1.4" fill="#176c37" fill-opacity="0.82"/><circle cx="373.4" cy="108.1" r="1.4" fill="#176c37" fill-opacity="0.82"/><circle cx="374.6" cy="128.1" r="1.4" fill="#176c37" fill-opacity="0.82"/><circle cx="375.8" cy="114.9" r="1.4" fill="#176c37" fill-opacity="0.82"/><circle cx="377" cy="124.8" r="1.4" fill="#176c37" fill-opacity="0.82"/><text x="352" y="339" text-anchor="middle" font-family="Inter,Segoe UI,Arial,sans-serif" font-size="11" font-weight="700" fill="#111827">EmbeddingGemma 300M</text><text x="352" y="353" text-anchor="middle" font-family="Inter,Segoe UI,Arial,sans-serif" font-size="10" fill="#6b7280">8-bit</text><rect x="64" y="378" width="10" height="10" rx="2" fill="#f2b705" fill-opacity="0.5" stroke="#9a6a00" stroke-width="1.4"/><text x="78" y="387" font-family="Inter,Segoe UI,Arial,sans-serif" font-size="10" fill="#374151">mlx-embeddings</text><rect x="192" y="378" width="10" height="10" rx="2" fill="#2eaf5f" fill-opacity="0.5" stroke="#176c37" stroke-width="1.4"/><text x="206" y="387" font-family="Inter,Segoe UI,Arial,sans-serif" font-size="10" fill="#374151">AX Engine</text><text x="64" y="406" font-family="Inter,Segoe UI,Arial,sans-serif" font-size="10" fill="#6b7280">box=IQR | whiskers=min/max | dots=six chunk/batch shapes | labels show medians</text></svg>
