<svg xmlns="http://www.w3.org/2000/svg" width="900" height="460" viewBox="0 0 900 460" role="img" aria-labelledby="title desc">
<title>Qwen3.6 35B-A3B 4-bit MTP decode throughput</title>
<desc>Grouped box-and-whisker plot comparing MTPLX 0.3.7, Light. MTP, Light. ngram+MTP, AX MTP+n-gram across all suites.</desc>
<rect width="100%" height="100%" fill="#f8fafc"/>
<text x="24" y="24" font-family="Inter,Segoe UI,Arial,sans-serif" font-size="16" font-weight="700" fill="#111827">Qwen3.6 35B-A3B 4-bit MTP decode throughput</text>
<text x="24" y="46" font-family="Inter,Segoe UI,Arial,sans-serif" font-size="11" fill="#4b5563">All suites combined | box=IQR | whiskers=min/max | dots=runs</text>
<rect x="807" y="13" width="59" height="22" rx="11" fill="#eef2ff" stroke="#c7d2fe"/>
<text x="836.5" y="28" text-anchor="middle" font-family="Inter,Segoe UI,Arial,sans-serif" font-size="10" font-weight="700" fill="#3730a3">tok/s</text>
<text x="866" y="52" text-anchor="end" font-family="Inter,Segoe UI,Arial,sans-serif" font-size="10" font-weight="700" fill="#374151">Higher is better</text>
<rect x="64" y="86" width="676" height="268" rx="6" fill="#ffffff" stroke="#dbe3ef"/>
<line x1="64" y1="354.0" x2="740" y2="354.0" stroke="#e5e7eb" stroke-width="1"/>
<text x="56" y="357.0" text-anchor="end" font-family="Inter,Segoe UI,Arial,sans-serif" font-size="11" fill="#6b7280">0.0</text>
<line x1="64" y1="287.0" x2="740" y2="287.0" stroke="#e5e7eb" stroke-width="1"/>
<text x="56" y="290.0" text-anchor="end" font-family="Inter,Segoe UI,Arial,sans-serif" font-size="11" fill="#6b7280">75</text>
<line x1="64" y1="220.0" x2="740" y2="220.0" stroke="#e5e7eb" stroke-width="1"/>
<text x="56" y="223.0" text-anchor="end" font-family="Inter,Segoe UI,Arial,sans-serif" font-size="11" fill="#6b7280">150</text>
<line x1="64" y1="153.0" x2="740" y2="153.0" stroke="#e5e7eb" stroke-width="1"/>
<text x="56" y="156.0" text-anchor="end" font-family="Inter,Segoe UI,Arial,sans-serif" font-size="11" fill="#6b7280">225</text>
<line x1="64" y1="86.0" x2="740" y2="86.0" stroke="#e5e7eb" stroke-width="1"/>
<text x="56" y="89.0" text-anchor="end" font-family="Inter,Segoe UI,Arial,sans-serif" font-size="11" fill="#6b7280">300</text>
<line x1="64" y1="123.0" x2="740" y2="123.0" stroke="#dc2626" stroke-width="1.2" stroke-dasharray="1 4" stroke-linecap="round"/>
<text x="748" y="118.0" text-anchor="start" font-family="Inter,Segoe UI,Arial,sans-serif" font-size="11" font-weight="700" fill="#dc2626" data-label="highest median">highest: 259</text>
<text x="402.0" y="398" text-anchor="middle" font-family="Inter,Segoe UI,Arial,sans-serif" font-size="11" font-weight="700" fill="#111827">all suites</text>
<circle cx="127.8" cy="261.5" r="1.45" fill="#14532d" fill-opacity="0.46"/>
<circle cx="130.8" cy="262.1" r="1.45" fill="#14532d" fill-opacity="0.46"/>
<circle cx="133.9" cy="259.7" r="1.45" fill="#14532d" fill-opacity="0.46"/>
<circle cx="136.9" cy="260.4" r="1.45" fill="#14532d" fill-opacity="0.46"/>
<circle cx="140.0" cy="262.3" r="1.45" fill="#14532d" fill-opacity="0.46"/>
<circle cx="143.1" cy="252.3" r="1.45" fill="#14532d" fill-opacity="0.46"/>
<circle cx="146.1" cy="255.6" r="1.45" fill="#14532d" fill-opacity="0.46"/>
<circle cx="149.2" cy="251.7" r="1.45" fill="#14532d" fill-opacity="0.46"/>
<circle cx="152.2" cy="253.5" r="1.45" fill="#14532d" fill-opacity="0.46"/>
<circle cx="127.8" cy="251.8" r="1.45" fill="#14532d" fill-opacity="0.46"/>
<circle cx="130.8" cy="264.2" r="1.45" fill="#14532d" fill-opacity="0.46"/>
<circle cx="133.9" cy="264.9" r="1.45" fill="#14532d" fill-opacity="0.46"/>
<circle cx="136.9" cy="263.9" r="1.45" fill="#14532d" fill-opacity="0.46"/>
<circle cx="140.0" cy="264.0" r="1.45" fill="#14532d" fill-opacity="0.46"/>
<circle cx="143.1" cy="265.5" r="1.45" fill="#14532d" fill-opacity="0.46"/>
<circle cx="146.1" cy="258.6" r="1.45" fill="#14532d" fill-opacity="0.46"/>
<circle cx="149.2" cy="260.0" r="1.45" fill="#14532d" fill-opacity="0.46"/>
<circle cx="152.2" cy="258.9" r="1.45" fill="#14532d" fill-opacity="0.46"/>
<circle cx="127.8" cy="260.3" r="1.45" fill="#14532d" fill-opacity="0.46"/>
<circle cx="130.8" cy="258.9" r="1.45" fill="#14532d" fill-opacity="0.46"/>
<circle cx="133.9" cy="251.1" r="1.45" fill="#14532d" fill-opacity="0.46"/>
<circle cx="136.9" cy="250.4" r="1.45" fill="#14532d" fill-opacity="0.46"/>
<circle cx="140.0" cy="252.2" r="1.45" fill="#14532d" fill-opacity="0.46"/>
<circle cx="143.1" cy="250.0" r="1.45" fill="#14532d" fill-opacity="0.46"/>
<circle cx="146.1" cy="250.8" r="1.45" fill="#14532d" fill-opacity="0.46"/>
<circle cx="149.2" cy="259.1" r="1.45" fill="#14532d" fill-opacity="0.46"/>
<circle cx="152.2" cy="259.4" r="1.45" fill="#14532d" fill-opacity="0.46"/>
<circle cx="127.8" cy="257.6" r="1.45" fill="#14532d" fill-opacity="0.46"/>
<circle cx="130.8" cy="259.8" r="1.45" fill="#14532d" fill-opacity="0.46"/>
<circle cx="133.9" cy="259.8" r="1.45" fill="#14532d" fill-opacity="0.46"/>
<circle cx="136.9" cy="263.1" r="1.45" fill="#14532d" fill-opacity="0.46"/>
<circle cx="140.0" cy="263.5" r="1.45" fill="#14532d" fill-opacity="0.46"/>
<circle cx="143.1" cy="262.9" r="1.45" fill="#14532d" fill-opacity="0.46"/>
<circle cx="146.1" cy="261.3" r="1.45" fill="#14532d" fill-opacity="0.46"/>
<circle cx="149.2" cy="263.7" r="1.45" fill="#14532d" fill-opacity="0.46"/>
<circle cx="152.2" cy="263.9" r="1.45" fill="#14532d" fill-opacity="0.46"/>
<circle cx="127.8" cy="264.4" r="1.45" fill="#14532d" fill-opacity="0.46"/>
<circle cx="130.8" cy="263.6" r="1.45" fill="#14532d" fill-opacity="0.46"/>
<circle cx="133.9" cy="263.0" r="1.45" fill="#14532d" fill-opacity="0.46"/>
<circle cx="136.9" cy="263.5" r="1.45" fill="#14532d" fill-opacity="0.46"/>
<circle cx="140.0" cy="267.1" r="1.45" fill="#14532d" fill-opacity="0.46"/>
<circle cx="143.1" cy="265.2" r="1.45" fill="#14532d" fill-opacity="0.46"/>
<circle cx="146.1" cy="265.7" r="1.45" fill="#14532d" fill-opacity="0.46"/>
<circle cx="149.2" cy="265.5" r="1.45" fill="#14532d" fill-opacity="0.46"/>
<circle cx="152.2" cy="270.3" r="1.45" fill="#14532d" fill-opacity="0.46"/>
<circle cx="127.8" cy="266.3" r="1.45" fill="#14532d" fill-opacity="0.46"/>
<circle cx="130.8" cy="263.1" r="1.45" fill="#14532d" fill-opacity="0.46"/>
<circle cx="133.9" cy="264.3" r="1.45" fill="#14532d" fill-opacity="0.46"/>
<circle cx="136.9" cy="266.9" r="1.45" fill="#14532d" fill-opacity="0.46"/>
<circle cx="140.0" cy="264.1" r="1.45" fill="#14532d" fill-opacity="0.46"/>
<circle cx="143.1" cy="264.5" r="1.45" fill="#14532d" fill-opacity="0.46"/>
<circle cx="146.1" cy="265.6" r="1.45" fill="#14532d" fill-opacity="0.46"/>
<circle cx="149.2" cy="266.1" r="1.45" fill="#14532d" fill-opacity="0.46"/>
<circle cx="152.2" cy="262.7" r="1.45" fill="#14532d" fill-opacity="0.46"/>
<circle cx="127.8" cy="264.7" r="1.45" fill="#14532d" fill-opacity="0.46"/>
<line x1="140.0" y1="250.0" x2="140.0" y2="270.3" stroke="#14532d" stroke-opacity="0.86" stroke-width="1.8"/>
<line x1="127.8" y1="250.0" x2="152.2" y2="250.0" stroke="#14532d" stroke-opacity="0.86" stroke-width="1.8"/>
<line x1="127.8" y1="270.3" x2="152.2" y2="270.3" stroke="#14532d" stroke-opacity="0.86" stroke-width="1.8"/>
<rect x="123.0" y="259.0" width="34.0" height="5.4" rx="2" fill="#14532d" fill-opacity="0.18" stroke="#14532d" stroke-opacity="0.9" stroke-width="1.8"/>
<line x1="123.0" y1="262.9" x2="157.0" y2="262.9" stroke="#14532d" stroke-opacity="0.96" stroke-width="2.6"/>
<text x="163.0" y="266.9" text-anchor="start" font-family="Inter,Segoe UI,Arial,sans-serif" font-size="11" font-weight="700" fill="#111827" stroke="#ffffff" stroke-width="3" paint-order="stroke">102</text>
<circle cx="302.4" cy="190.5" r="1.45" fill="#7c3aed" fill-opacity="0.46"/>
<circle cx="305.5" cy="190.2" r="1.45" fill="#7c3aed" fill-opacity="0.46"/>
<circle cx="308.5" cy="190.8" r="1.45" fill="#7c3aed" fill-opacity="0.46"/>
<circle cx="311.6" cy="192.6" r="1.45" fill="#7c3aed" fill-opacity="0.46"/>
<circle cx="314.7" cy="192.8" r="1.45" fill="#7c3aed" fill-opacity="0.46"/>
<circle cx="317.7" cy="191.6" r="1.45" fill="#7c3aed" fill-opacity="0.46"/>
<circle cx="320.8" cy="182.3" r="1.45" fill="#7c3aed" fill-opacity="0.46"/>
<circle cx="323.8" cy="184.9" r="1.45" fill="#7c3aed" fill-opacity="0.46"/>
<circle cx="326.9" cy="184.5" r="1.45" fill="#7c3aed" fill-opacity="0.46"/>
<circle cx="302.4" cy="184.6" r="1.45" fill="#7c3aed" fill-opacity="0.46"/>
<circle cx="305.5" cy="185.5" r="1.45" fill="#7c3aed" fill-opacity="0.46"/>
<circle cx="308.5" cy="183.2" r="1.45" fill="#7c3aed" fill-opacity="0.46"/>
<circle cx="311.6" cy="187.2" r="1.45" fill="#7c3aed" fill-opacity="0.46"/>
<circle cx="314.7" cy="187.4" r="1.45" fill="#7c3aed" fill-opacity="0.46"/>
<circle cx="317.7" cy="186.2" r="1.45" fill="#7c3aed" fill-opacity="0.46"/>
<circle cx="320.8" cy="185.7" r="1.45" fill="#7c3aed" fill-opacity="0.46"/>
<circle cx="323.8" cy="186.6" r="1.45" fill="#7c3aed" fill-opacity="0.46"/>
<circle cx="326.9" cy="184.4" r="1.45" fill="#7c3aed" fill-opacity="0.46"/>
<circle cx="302.4" cy="186.0" r="1.45" fill="#7c3aed" fill-opacity="0.46"/>
<circle cx="305.5" cy="182.4" r="1.45" fill="#7c3aed" fill-opacity="0.46"/>
<circle cx="308.5" cy="191.8" r="1.45" fill="#7c3aed" fill-opacity="0.46"/>
<circle cx="311.6" cy="191.2" r="1.45" fill="#7c3aed" fill-opacity="0.46"/>
<circle cx="314.7" cy="191.6" r="1.45" fill="#7c3aed" fill-opacity="0.46"/>
<circle cx="317.7" cy="293.3" r="1.45" fill="#7c3aed" fill-opacity="0.46"/>
<circle cx="320.8" cy="238.5" r="1.45" fill="#7c3aed" fill-opacity="0.46"/>
<circle cx="323.8" cy="293.3" r="1.45" fill="#7c3aed" fill-opacity="0.46"/>
<circle cx="326.9" cy="297.1" r="1.45" fill="#7c3aed" fill-opacity="0.46"/>
<circle cx="302.4" cy="273.3" r="1.45" fill="#7c3aed" fill-opacity="0.46"/>
<circle cx="305.5" cy="190.1" r="1.45" fill="#7c3aed" fill-opacity="0.46"/>
<circle cx="308.5" cy="296.6" r="1.45" fill="#7c3aed" fill-opacity="0.46"/>
<circle cx="311.6" cy="261.2" r="1.45" fill="#7c3aed" fill-opacity="0.46"/>
<circle cx="314.7" cy="296.9" r="1.45" fill="#7c3aed" fill-opacity="0.46"/>
<circle cx="317.7" cy="292.6" r="1.45" fill="#7c3aed" fill-opacity="0.46"/>
<circle cx="320.8" cy="191.9" r="1.45" fill="#7c3aed" fill-opacity="0.46"/>
<circle cx="323.8" cy="192.5" r="1.45" fill="#7c3aed" fill-opacity="0.46"/>
<circle cx="326.9" cy="283.5" r="1.45" fill="#7c3aed" fill-opacity="0.46"/>
<circle cx="302.4" cy="296.6" r="1.45" fill="#7c3aed" fill-opacity="0.46"/>
<circle cx="305.5" cy="282.5" r="1.45" fill="#7c3aed" fill-opacity="0.46"/>
<circle cx="308.5" cy="191.4" r="1.45" fill="#7c3aed" fill-opacity="0.46"/>
<circle cx="311.6" cy="187.9" r="1.45" fill="#7c3aed" fill-opacity="0.46"/>
<circle cx="314.7" cy="189.0" r="1.45" fill="#7c3aed" fill-opacity="0.46"/>
<circle cx="317.7" cy="187.8" r="1.45" fill="#7c3aed" fill-opacity="0.46"/>
<circle cx="320.8" cy="186.1" r="1.45" fill="#7c3aed" fill-opacity="0.46"/>
<circle cx="323.8" cy="186.1" r="1.45" fill="#7c3aed" fill-opacity="0.46"/>
<circle cx="326.9" cy="186.6" r="1.45" fill="#7c3aed" fill-opacity="0.46"/>
<circle cx="302.4" cy="191.3" r="1.45" fill="#7c3aed" fill-opacity="0.46"/>
<circle cx="305.5" cy="189.5" r="1.45" fill="#7c3aed" fill-opacity="0.46"/>
<circle cx="308.5" cy="186.4" r="1.45" fill="#7c3aed" fill-opacity="0.46"/>
<circle cx="311.6" cy="185.9" r="1.45" fill="#7c3aed" fill-opacity="0.46"/>
<circle cx="314.7" cy="185.7" r="1.45" fill="#7c3aed" fill-opacity="0.46"/>
<circle cx="317.7" cy="187.2" r="1.45" fill="#7c3aed" fill-opacity="0.46"/>
<circle cx="320.8" cy="187.1" r="1.45" fill="#7c3aed" fill-opacity="0.46"/>
<circle cx="323.8" cy="187.6" r="1.45" fill="#7c3aed" fill-opacity="0.46"/>
<circle cx="326.9" cy="187.0" r="1.45" fill="#7c3aed" fill-opacity="0.46"/>
<circle cx="302.4" cy="186.6" r="1.45" fill="#7c3aed" fill-opacity="0.46"/>
<line x1="314.7" y1="182.3" x2="314.7" y2="297.1" stroke="#7c3aed" stroke-opacity="0.86" stroke-width="1.8"/>
<line x1="302.4" y1="182.3" x2="326.9" y2="182.3" stroke="#7c3aed" stroke-opacity="0.86" stroke-width="1.8"/>
<line x1="302.4" y1="297.1" x2="326.9" y2="297.1" stroke="#7c3aed" stroke-opacity="0.86" stroke-width="1.8"/>
<rect x="297.7" y="186.2" width="34.0" height="6.4" rx="2" fill="#7c3aed" fill-opacity="0.18" stroke="#7c3aed" stroke-opacity="0.9" stroke-width="1.8"/>
<line x1="297.7" y1="189.0" x2="331.7" y2="189.0" stroke="#7c3aed" stroke-opacity="0.96" stroke-width="2.6"/>
<text x="337.7" y="193.0" text-anchor="start" font-family="Inter,Segoe UI,Arial,sans-serif" font-size="11" font-weight="700" fill="#111827" stroke="#ffffff" stroke-width="3" paint-order="stroke">185</text>
<circle cx="477.1" cy="211.4" r="1.45" fill="#1e3a8a" fill-opacity="0.46"/>
<circle cx="480.2" cy="210.4" r="1.45" fill="#1e3a8a" fill-opacity="0.46"/>
<circle cx="483.2" cy="208.4" r="1.45" fill="#1e3a8a" fill-opacity="0.46"/>
<circle cx="486.3" cy="87.3" r="1.45" fill="#1e3a8a" fill-opacity="0.46"/>
<circle cx="489.3" cy="124.6" r="1.45" fill="#1e3a8a" fill-opacity="0.46"/>
<circle cx="492.4" cy="96.8" r="1.45" fill="#1e3a8a" fill-opacity="0.46"/>
<circle cx="495.5" cy="101.2" r="1.45" fill="#1e3a8a" fill-opacity="0.46"/>
<circle cx="498.5" cy="149.7" r="1.45" fill="#1e3a8a" fill-opacity="0.46"/>
<circle cx="501.6" cy="139.9" r="1.45" fill="#1e3a8a" fill-opacity="0.46"/>
<circle cx="477.1" cy="137.7" r="1.45" fill="#1e3a8a" fill-opacity="0.46"/>
<circle cx="480.2" cy="100.3" r="1.45" fill="#1e3a8a" fill-opacity="0.46"/>
<circle cx="483.2" cy="210.5" r="1.45" fill="#1e3a8a" fill-opacity="0.46"/>
<circle cx="486.3" cy="158.4" r="1.45" fill="#1e3a8a" fill-opacity="0.46"/>
<circle cx="489.3" cy="210.1" r="1.45" fill="#1e3a8a" fill-opacity="0.46"/>
<circle cx="492.4" cy="163.1" r="1.45" fill="#1e3a8a" fill-opacity="0.46"/>
<circle cx="495.5" cy="211.2" r="1.45" fill="#1e3a8a" fill-opacity="0.46"/>
<circle cx="498.5" cy="181.3" r="1.45" fill="#1e3a8a" fill-opacity="0.46"/>
<circle cx="501.6" cy="154.2" r="1.45" fill="#1e3a8a" fill-opacity="0.46"/>
<circle cx="477.1" cy="213.0" r="1.45" fill="#1e3a8a" fill-opacity="0.46"/>
<circle cx="480.2" cy="213.8" r="1.45" fill="#1e3a8a" fill-opacity="0.46"/>
<circle cx="483.2" cy="212.8" r="1.45" fill="#1e3a8a" fill-opacity="0.46"/>
<circle cx="486.3" cy="213.5" r="1.45" fill="#1e3a8a" fill-opacity="0.46"/>
<circle cx="489.3" cy="286.5" r="1.45" fill="#1e3a8a" fill-opacity="0.46"/>
<circle cx="492.4" cy="215.1" r="1.45" fill="#1e3a8a" fill-opacity="0.46"/>
<circle cx="495.5" cy="273.0" r="1.45" fill="#1e3a8a" fill-opacity="0.46"/>
<circle cx="498.5" cy="249.8" r="1.45" fill="#1e3a8a" fill-opacity="0.46"/>
<circle cx="501.6" cy="86.0" r="1.45" fill="#1e3a8a" fill-opacity="0.46"/>
<circle cx="477.1" cy="210.2" r="1.45" fill="#1e3a8a" fill-opacity="0.46"/>
<circle cx="480.2" cy="209.1" r="1.45" fill="#1e3a8a" fill-opacity="0.46"/>
<circle cx="483.2" cy="101.1" r="1.45" fill="#1e3a8a" fill-opacity="0.46"/>
<circle cx="486.3" cy="106.6" r="1.45" fill="#1e3a8a" fill-opacity="0.46"/>
<circle cx="489.3" cy="209.0" r="1.45" fill="#1e3a8a" fill-opacity="0.46"/>
<circle cx="492.4" cy="209.5" r="1.45" fill="#1e3a8a" fill-opacity="0.46"/>
<circle cx="495.5" cy="119.0" r="1.45" fill="#1e3a8a" fill-opacity="0.46"/>
<circle cx="498.5" cy="94.4" r="1.45" fill="#1e3a8a" fill-opacity="0.46"/>
<circle cx="501.6" cy="92.3" r="1.45" fill="#1e3a8a" fill-opacity="0.46"/>
<circle cx="477.1" cy="132.9" r="1.45" fill="#1e3a8a" fill-opacity="0.46"/>
<circle cx="480.2" cy="98.3" r="1.45" fill="#1e3a8a" fill-opacity="0.46"/>
<circle cx="483.2" cy="111.5" r="1.45" fill="#1e3a8a" fill-opacity="0.46"/>
<circle cx="486.3" cy="161.8" r="1.45" fill="#1e3a8a" fill-opacity="0.46"/>
<circle cx="489.3" cy="124.2" r="1.45" fill="#1e3a8a" fill-opacity="0.46"/>
<circle cx="492.4" cy="121.3" r="1.45" fill="#1e3a8a" fill-opacity="0.46"/>
<circle cx="495.5" cy="201.3" r="1.45" fill="#1e3a8a" fill-opacity="0.46"/>
<circle cx="498.5" cy="185.2" r="1.45" fill="#1e3a8a" fill-opacity="0.46"/>
<circle cx="501.6" cy="187.6" r="1.45" fill="#1e3a8a" fill-opacity="0.46"/>
<circle cx="477.1" cy="210.3" r="1.45" fill="#1e3a8a" fill-opacity="0.46"/>
<circle cx="480.2" cy="197.9" r="1.45" fill="#1e3a8a" fill-opacity="0.46"/>
<circle cx="483.2" cy="163.4" r="1.45" fill="#1e3a8a" fill-opacity="0.46"/>
<circle cx="486.3" cy="175.2" r="1.45" fill="#1e3a8a" fill-opacity="0.46"/>
<circle cx="489.3" cy="168.4" r="1.45" fill="#1e3a8a" fill-opacity="0.46"/>
<circle cx="492.4" cy="122.7" r="1.45" fill="#1e3a8a" fill-opacity="0.46"/>
<circle cx="495.5" cy="175.9" r="1.45" fill="#1e3a8a" fill-opacity="0.46"/>
<circle cx="498.5" cy="167.6" r="1.45" fill="#1e3a8a" fill-opacity="0.46"/>
<line x1="489.3" y1="86.0" x2="489.3" y2="286.5" stroke="#1e3a8a" stroke-opacity="0.86" stroke-width="1.8"/>
<line x1="477.1" y1="86.0" x2="501.6" y2="86.0" stroke="#1e3a8a" stroke-opacity="0.86" stroke-width="1.8"/>
<line x1="477.1" y1="286.5" x2="501.6" y2="286.5" stroke="#1e3a8a" stroke-opacity="0.86" stroke-width="1.8"/>
<rect x="472.3" y="122.7" width="34.0" height="87.5" rx="2" fill="#1e3a8a" fill-opacity="0.18" stroke="#1e3a8a" stroke-opacity="0.9" stroke-width="1.8"/>
<line x1="472.3" y1="168.4" x2="506.3" y2="168.4" stroke="#1e3a8a" stroke-opacity="0.96" stroke-width="2.6"/>
<text x="512.3" y="172.4" text-anchor="start" font-family="Inter,Segoe UI,Arial,sans-serif" font-size="11" font-weight="700" fill="#111827" stroke="#ffffff" stroke-width="3" paint-order="stroke">208</text>
<circle cx="651.8" cy="123.0" r="1.45" fill="#eab308" fill-opacity="0.46"/>
<circle cx="654.8" cy="119.5" r="1.45" fill="#eab308" fill-opacity="0.46"/>
<circle cx="657.9" cy="124.3" r="1.45" fill="#eab308" fill-opacity="0.46"/>
<circle cx="660.9" cy="147.6" r="1.45" fill="#eab308" fill-opacity="0.46"/>
<circle cx="664.0" cy="105.1" r="1.45" fill="#eab308" fill-opacity="0.46"/>
<circle cx="667.1" cy="117.0" r="1.45" fill="#eab308" fill-opacity="0.46"/>
<circle cx="670.1" cy="100.4" r="1.45" fill="#eab308" fill-opacity="0.46"/>
<circle cx="673.2" cy="121.1" r="1.45" fill="#eab308" fill-opacity="0.46"/>
<circle cx="676.2" cy="182.8" r="1.45" fill="#eab308" fill-opacity="0.46"/>
<circle cx="651.8" cy="210.7" r="1.45" fill="#eab308" fill-opacity="0.46"/>
<circle cx="654.8" cy="132.5" r="1.45" fill="#eab308" fill-opacity="0.46"/>
<line x1="664.0" y1="100.4" x2="664.0" y2="210.7" stroke="#eab308" stroke-opacity="0.86" stroke-width="1.8"/>
<line x1="651.8" y1="100.4" x2="676.2" y2="100.4" stroke="#eab308" stroke-opacity="0.86" stroke-width="1.8"/>
<line x1="651.8" y1="210.7" x2="676.2" y2="210.7" stroke="#eab308" stroke-opacity="0.86" stroke-width="1.8"/>
<rect x="647.0" y="118.3" width="34.0" height="21.8" rx="2" fill="#eab308" fill-opacity="0.18" stroke="#eab308" stroke-opacity="0.9" stroke-width="1.8"/>
<line x1="647.0" y1="123.0" x2="681.0" y2="123.0" stroke="#eab308" stroke-opacity="0.96" stroke-width="2.6"/>
<text x="687.0" y="127.0" text-anchor="start" font-family="Inter,Segoe UI,Arial,sans-serif" font-size="11" font-weight="700" fill="#111827" stroke="#ffffff" stroke-width="3" paint-order="stroke">259</text>
<rect x="64.0" y="433" width="10" height="10" rx="2" fill="#14532d" fill-opacity="0.72"/>
<text x="78.0" y="442" font-family="Inter,Segoe UI,Arial,sans-serif" font-size="10" fill="#374151">MTPLX 0.3.7</text>
<rect x="233.0" y="433" width="10" height="10" rx="2" fill="#7c3aed" fill-opacity="0.72"/>
<text x="247.0" y="442" font-family="Inter,Segoe UI,Arial,sans-serif" font-size="10" fill="#374151">Light. MTP</text>
<rect x="402.0" y="433" width="10" height="10" rx="2" fill="#1e3a8a" fill-opacity="0.72"/>
<text x="416.0" y="442" font-family="Inter,Segoe UI,Arial,sans-serif" font-size="10" fill="#374151">Light. ngram+MTP</text>
<rect x="571.0" y="433" width="10" height="10" rx="2" fill="#eab308" fill-opacity="0.72"/>
<text x="585.0" y="442" font-family="Inter,Segoe UI,Arial,sans-serif" font-size="10" fill="#374151">AX MTP+n-gram</text>
</svg>
