<svg xmlns="http://www.w3.org/2000/svg" width="900" height="460" viewBox="0 0 900 460" role="img" aria-labelledby="title desc">
<title>Qwen3.6 35B-A3B 4-bit MTP decode throughput</title>
<desc>Grouped box-and-whisker plot comparing MTPLX 0.3.7, Lightning v0.6.10, Lightning+ng v0.6.10, AX Engine v5.1.1, AX+ngram v5.1.1 across F, L, P.</desc>
<rect width="100%" height="100%" fill="#f8fafc"/>
<text x="24" y="24" font-family="Inter,Segoe UI,Arial,sans-serif" font-size="16" font-weight="700" fill="#111827">Qwen3.6 35B-A3B 4-bit MTP decode throughput</text>
<text x="24" y="46" font-family="Inter,Segoe UI,Arial,sans-serif" font-size="11" fill="#4b5563">F=flappy · L=long_code · P=python_modules | box=IQR | whiskers=min/max | dots=runs</text>
<text x="24" y="62" font-family="Inter,Segoe UI,Arial,sans-serif" font-size="10" fill="#6b7280">MTPLX 0.3.7 · Lightning-MLX 0.6.10 · AX Engine v5.1.1</text>
<rect x="807" y="13" width="59" height="22" rx="11" fill="#eef2ff" stroke="#c7d2fe"/>
<text x="836.5" y="28" text-anchor="middle" font-family="Inter,Segoe UI,Arial,sans-serif" font-size="10" font-weight="700" fill="#3730a3">tok/s</text>
<text x="866" y="52" text-anchor="end" font-family="Inter,Segoe UI,Arial,sans-serif" font-size="10" font-weight="700" fill="#374151">Higher is better</text>
<rect x="64" y="86" width="676" height="268" rx="6" fill="#ffffff" stroke="#dbe3ef"/>
<line x1="64" y1="354.0" x2="740" y2="354.0" stroke="#e5e7eb" stroke-width="1"/>
<text x="56" y="357.0" text-anchor="end" font-family="Inter,Segoe UI,Arial,sans-serif" font-size="11" fill="#6b7280">0.0</text>
<line x1="64" y1="287.0" x2="740" y2="287.0" stroke="#e5e7eb" stroke-width="1"/>
<text x="56" y="290.0" text-anchor="end" font-family="Inter,Segoe UI,Arial,sans-serif" font-size="11" fill="#6b7280">75</text>
<line x1="64" y1="220.0" x2="740" y2="220.0" stroke="#e5e7eb" stroke-width="1"/>
<text x="56" y="223.0" text-anchor="end" font-family="Inter,Segoe UI,Arial,sans-serif" font-size="11" fill="#6b7280">150</text>
<line x1="64" y1="153.0" x2="740" y2="153.0" stroke="#e5e7eb" stroke-width="1"/>
<text x="56" y="156.0" text-anchor="end" font-family="Inter,Segoe UI,Arial,sans-serif" font-size="11" fill="#6b7280">225</text>
<line x1="64" y1="86.0" x2="740" y2="86.0" stroke="#e5e7eb" stroke-width="1"/>
<text x="56" y="89.0" text-anchor="end" font-family="Inter,Segoe UI,Arial,sans-serif" font-size="11" fill="#6b7280">300</text>
<line x1="64" y1="86.0" x2="740" y2="86.0" stroke="#dc2626" stroke-width="1.2" stroke-dasharray="1 4" stroke-linecap="round"/>
<text x="748" y="97.0" text-anchor="start" font-family="Inter,Segoe UI,Arial,sans-serif" font-size="11" font-weight="700" fill="#dc2626" data-label="highest median">highest: 319</text>
<text x="176.7" y="398" text-anchor="middle" font-family="Inter,Segoe UI,Arial,sans-serif" font-size="11" font-weight="700" fill="#111827">F</text>
<circle cx="95.8" cy="261.5" r="1.45" fill="#14532d" fill-opacity="0.46"/>
<circle cx="98.3" cy="262.1" r="1.45" fill="#14532d" fill-opacity="0.46"/>
<circle cx="100.8" cy="259.7" r="1.45" fill="#14532d" fill-opacity="0.46"/>
<circle cx="103.3" cy="260.4" r="1.45" fill="#14532d" fill-opacity="0.46"/>
<circle cx="105.7" cy="262.3" r="1.45" fill="#14532d" fill-opacity="0.46"/>
<circle cx="108.2" cy="252.3" r="1.45" fill="#14532d" fill-opacity="0.46"/>
<circle cx="110.7" cy="255.6" r="1.45" fill="#14532d" fill-opacity="0.46"/>
<circle cx="113.1" cy="251.7" r="1.45" fill="#14532d" fill-opacity="0.46"/>
<circle cx="115.6" cy="253.5" r="1.45" fill="#14532d" fill-opacity="0.46"/>
<circle cx="95.8" cy="251.8" r="1.45" fill="#14532d" fill-opacity="0.46"/>
<circle cx="98.3" cy="264.2" r="1.45" fill="#14532d" fill-opacity="0.46"/>
<circle cx="100.8" cy="264.9" r="1.45" fill="#14532d" fill-opacity="0.46"/>
<circle cx="103.3" cy="263.9" r="1.45" fill="#14532d" fill-opacity="0.46"/>
<circle cx="105.7" cy="264.0" r="1.45" fill="#14532d" fill-opacity="0.46"/>
<circle cx="108.2" cy="265.5" r="1.45" fill="#14532d" fill-opacity="0.46"/>
<circle cx="110.7" cy="258.6" r="1.45" fill="#14532d" fill-opacity="0.46"/>
<circle cx="113.1" cy="260.0" r="1.45" fill="#14532d" fill-opacity="0.46"/>
<circle cx="115.6" cy="258.9" r="1.45" fill="#14532d" fill-opacity="0.46"/>
<circle cx="95.8" cy="260.3" r="1.45" fill="#14532d" fill-opacity="0.46"/>
<circle cx="98.3" cy="258.9" r="1.45" fill="#14532d" fill-opacity="0.46"/>
<line x1="105.7" y1="251.7" x2="105.7" y2="265.5" stroke="#14532d" stroke-opacity="0.86" stroke-width="1.8"/>
<line x1="95.8" y1="251.7" x2="115.6" y2="251.7" stroke="#14532d" stroke-opacity="0.86" stroke-width="1.8"/>
<line x1="95.8" y1="265.5" x2="115.6" y2="265.5" stroke="#14532d" stroke-opacity="0.86" stroke-width="1.8"/>
<rect x="92.0" y="257.8" width="27.5" height="4.9" rx="2" fill="#14532d" fill-opacity="0.18" stroke="#14532d" stroke-opacity="0.9" stroke-width="1.8"/>
<line x1="92.0" y1="260.1" x2="119.5" y2="260.1" stroke="#14532d" stroke-opacity="0.96" stroke-width="2.6"/>
<text x="125.5" y="264.1" text-anchor="start" font-family="Inter,Segoe UI,Arial,sans-serif" font-size="11" font-weight="700" fill="#111827" stroke="#ffffff" stroke-width="3" paint-order="stroke">105</text>
<circle cx="131.3" cy="190.5" r="1.45" fill="#7c3aed" fill-opacity="0.46"/>
<circle cx="133.8" cy="190.2" r="1.45" fill="#7c3aed" fill-opacity="0.46"/>
<circle cx="136.3" cy="190.8" r="1.45" fill="#7c3aed" fill-opacity="0.46"/>
<circle cx="138.7" cy="192.6" r="1.45" fill="#7c3aed" fill-opacity="0.46"/>
<circle cx="141.2" cy="192.8" r="1.45" fill="#7c3aed" fill-opacity="0.46"/>
<circle cx="143.7" cy="191.6" r="1.45" fill="#7c3aed" fill-opacity="0.46"/>
<circle cx="146.1" cy="182.3" r="1.45" fill="#7c3aed" fill-opacity="0.46"/>
<circle cx="148.6" cy="184.9" r="1.45" fill="#7c3aed" fill-opacity="0.46"/>
<circle cx="151.1" cy="184.5" r="1.45" fill="#7c3aed" fill-opacity="0.46"/>
<circle cx="131.3" cy="184.6" r="1.45" fill="#7c3aed" fill-opacity="0.46"/>
<circle cx="133.8" cy="185.5" r="1.45" fill="#7c3aed" fill-opacity="0.46"/>
<circle cx="136.3" cy="183.2" r="1.45" fill="#7c3aed" fill-opacity="0.46"/>
<circle cx="138.7" cy="187.2" r="1.45" fill="#7c3aed" fill-opacity="0.46"/>
<circle cx="141.2" cy="187.4" r="1.45" fill="#7c3aed" fill-opacity="0.46"/>
<circle cx="143.7" cy="186.2" r="1.45" fill="#7c3aed" fill-opacity="0.46"/>
<circle cx="146.1" cy="185.7" r="1.45" fill="#7c3aed" fill-opacity="0.46"/>
<circle cx="148.6" cy="186.6" r="1.45" fill="#7c3aed" fill-opacity="0.46"/>
<circle cx="151.1" cy="184.4" r="1.45" fill="#7c3aed" fill-opacity="0.46"/>
<circle cx="131.3" cy="186.0" r="1.45" fill="#7c3aed" fill-opacity="0.46"/>
<circle cx="133.8" cy="182.4" r="1.45" fill="#7c3aed" fill-opacity="0.46"/>
<line x1="141.2" y1="182.3" x2="141.2" y2="192.8" stroke="#7c3aed" stroke-opacity="0.86" stroke-width="1.8"/>
<line x1="131.3" y1="182.3" x2="151.1" y2="182.3" stroke="#7c3aed" stroke-opacity="0.86" stroke-width="1.8"/>
<line x1="131.3" y1="192.8" x2="151.1" y2="192.8" stroke="#7c3aed" stroke-opacity="0.86" stroke-width="1.8"/>
<rect x="127.5" y="184.6" width="27.5" height="5.7" rx="2" fill="#7c3aed" fill-opacity="0.18" stroke="#7c3aed" stroke-opacity="0.9" stroke-width="1.8"/>
<line x1="127.5" y1="186.1" x2="154.9" y2="186.1" stroke="#7c3aed" stroke-opacity="0.96" stroke-width="2.6"/>
<text x="160.9" y="190.1" text-anchor="start" font-family="Inter,Segoe UI,Arial,sans-serif" font-size="11" font-weight="700" fill="#111827" stroke="#ffffff" stroke-width="3" paint-order="stroke">188</text>
<circle cx="166.8" cy="211.4" r="1.45" fill="#1e3a8a" fill-opacity="0.46"/>
<circle cx="169.3" cy="210.4" r="1.45" fill="#1e3a8a" fill-opacity="0.46"/>
<circle cx="171.7" cy="208.4" r="1.45" fill="#1e3a8a" fill-opacity="0.46"/>
<circle cx="174.2" cy="87.3" r="1.45" fill="#1e3a8a" fill-opacity="0.46"/>
<circle cx="176.7" cy="124.6" r="1.45" fill="#1e3a8a" fill-opacity="0.46"/>
<circle cx="179.1" cy="96.8" r="1.45" fill="#1e3a8a" fill-opacity="0.46"/>
<circle cx="181.6" cy="101.2" r="1.45" fill="#1e3a8a" fill-opacity="0.46"/>
<circle cx="184.1" cy="149.7" r="1.45" fill="#1e3a8a" fill-opacity="0.46"/>
<circle cx="186.6" cy="139.9" r="1.45" fill="#1e3a8a" fill-opacity="0.46"/>
<circle cx="166.8" cy="137.7" r="1.45" fill="#1e3a8a" fill-opacity="0.46"/>
<circle cx="169.3" cy="100.3" r="1.45" fill="#1e3a8a" fill-opacity="0.46"/>
<circle cx="171.7" cy="210.5" r="1.45" fill="#1e3a8a" fill-opacity="0.46"/>
<circle cx="174.2" cy="158.4" r="1.45" fill="#1e3a8a" fill-opacity="0.46"/>
<circle cx="176.7" cy="210.1" r="1.45" fill="#1e3a8a" fill-opacity="0.46"/>
<circle cx="179.1" cy="163.1" r="1.45" fill="#1e3a8a" fill-opacity="0.46"/>
<circle cx="181.6" cy="211.2" r="1.45" fill="#1e3a8a" fill-opacity="0.46"/>
<circle cx="184.1" cy="181.3" r="1.45" fill="#1e3a8a" fill-opacity="0.46"/>
<circle cx="186.6" cy="154.2" r="1.45" fill="#1e3a8a" fill-opacity="0.46"/>
<line x1="176.7" y1="87.3" x2="176.7" y2="211.4" stroke="#1e3a8a" stroke-opacity="0.86" stroke-width="1.8"/>
<line x1="166.8" y1="87.3" x2="186.6" y2="87.3" stroke="#1e3a8a" stroke-opacity="0.86" stroke-width="1.8"/>
<line x1="166.8" y1="211.4" x2="186.6" y2="211.4" stroke="#1e3a8a" stroke-opacity="0.86" stroke-width="1.8"/>
<rect x="162.9" y="127.9" width="27.5" height="81.8" rx="2" fill="#1e3a8a" fill-opacity="0.18" stroke="#1e3a8a" stroke-opacity="0.9" stroke-width="1.8"/>
<line x1="162.9" y1="156.3" x2="190.4" y2="156.3" stroke="#1e3a8a" stroke-opacity="0.96" stroke-width="2.6"/>
<text x="196.4" y="160.3" text-anchor="start" font-family="Inter,Segoe UI,Arial,sans-serif" font-size="11" font-weight="700" fill="#111827" stroke="#ffffff" stroke-width="3" paint-order="stroke">221</text>
<circle cx="202.2" cy="189.6" r="1.45" fill="#f97316" fill-opacity="0.46"/>
<circle cx="204.7" cy="191.1" r="1.45" fill="#f97316" fill-opacity="0.46"/>
<circle cx="207.2" cy="189.9" r="1.45" fill="#f97316" fill-opacity="0.46"/>
<circle cx="209.7" cy="189.4" r="1.45" fill="#f97316" fill-opacity="0.46"/>
<line x1="212.1" y1="189.4" x2="212.1" y2="191.1" stroke="#f97316" stroke-opacity="0.86" stroke-width="1.8"/>
<line x1="202.2" y1="189.4" x2="222.0" y2="189.4" stroke="#f97316" stroke-opacity="0.86" stroke-width="1.8"/>
<line x1="202.2" y1="191.1" x2="222.0" y2="191.1" stroke="#f97316" stroke-opacity="0.86" stroke-width="1.8"/>
<rect x="198.4" y="189.5" width="27.5" height="1.0" rx="2" fill="#f97316" fill-opacity="0.18" stroke="#f97316" stroke-opacity="0.9" stroke-width="1.8"/>
<line x1="198.4" y1="189.7" x2="225.9" y2="189.7" stroke="#f97316" stroke-opacity="0.96" stroke-width="2.6"/>
<text x="231.9" y="193.7" text-anchor="start" font-family="Inter,Segoe UI,Arial,sans-serif" font-size="11" font-weight="700" fill="#111827" stroke="#ffffff" stroke-width="3" paint-order="stroke">184</text>
<circle cx="237.7" cy="86.0" r="1.45" fill="#eab308" fill-opacity="0.46"/>
<circle cx="240.2" cy="86.0" r="1.45" fill="#eab308" fill-opacity="0.46"/>
<circle cx="242.7" cy="86.0" r="1.45" fill="#eab308" fill-opacity="0.46"/>
<circle cx="245.1" cy="139.9" r="1.45" fill="#eab308" fill-opacity="0.46"/>
<line x1="247.6" y1="86.0" x2="247.6" y2="139.9" stroke="#eab308" stroke-opacity="0.86" stroke-width="1.8"/>
<line x1="237.7" y1="86.0" x2="257.5" y2="86.0" stroke="#eab308" stroke-opacity="0.86" stroke-width="1.8"/>
<line x1="237.7" y1="139.9" x2="257.5" y2="139.9" stroke="#eab308" stroke-opacity="0.86" stroke-width="1.8"/>
<rect x="233.9" y="86.0" width="27.5" height="2.3" rx="2" fill="#eab308" fill-opacity="0.18" stroke="#eab308" stroke-opacity="0.9" stroke-width="1.8"/>
<line x1="233.9" y1="86.0" x2="261.3" y2="86.0" stroke="#eab308" stroke-opacity="0.96" stroke-width="2.6"/>
<text x="267.3" y="90.0" text-anchor="start" font-family="Inter,Segoe UI,Arial,sans-serif" font-size="11" font-weight="700" fill="#111827" stroke="#ffffff" stroke-width="3" paint-order="stroke">319</text>
<text x="402.0" y="398" text-anchor="middle" font-family="Inter,Segoe UI,Arial,sans-serif" font-size="11" font-weight="700" fill="#111827">L</text>
<circle cx="321.2" cy="251.1" r="1.45" fill="#14532d" fill-opacity="0.46"/>
<circle cx="323.7" cy="250.4" r="1.45" fill="#14532d" fill-opacity="0.46"/>
<circle cx="326.1" cy="252.2" r="1.45" fill="#14532d" fill-opacity="0.46"/>
<circle cx="328.6" cy="250.0" r="1.45" fill="#14532d" fill-opacity="0.46"/>
<circle cx="331.1" cy="250.8" r="1.45" fill="#14532d" fill-opacity="0.46"/>
<circle cx="333.5" cy="259.1" r="1.45" fill="#14532d" fill-opacity="0.46"/>
<circle cx="336.0" cy="259.4" r="1.45" fill="#14532d" fill-opacity="0.46"/>
<circle cx="338.5" cy="257.6" r="1.45" fill="#14532d" fill-opacity="0.46"/>
<circle cx="341.0" cy="259.8" r="1.45" fill="#14532d" fill-opacity="0.46"/>
<circle cx="321.2" cy="259.8" r="1.45" fill="#14532d" fill-opacity="0.46"/>
<circle cx="323.7" cy="263.1" r="1.45" fill="#14532d" fill-opacity="0.46"/>
<circle cx="326.1" cy="263.5" r="1.45" fill="#14532d" fill-opacity="0.46"/>
<circle cx="328.6" cy="262.9" r="1.45" fill="#14532d" fill-opacity="0.46"/>
<circle cx="331.1" cy="261.3" r="1.45" fill="#14532d" fill-opacity="0.46"/>
<circle cx="333.5" cy="263.7" r="1.45" fill="#14532d" fill-opacity="0.46"/>
<circle cx="336.0" cy="263.9" r="1.45" fill="#14532d" fill-opacity="0.46"/>
<circle cx="338.5" cy="264.4" r="1.45" fill="#14532d" fill-opacity="0.46"/>
<circle cx="341.0" cy="263.6" r="1.45" fill="#14532d" fill-opacity="0.46"/>
<circle cx="321.2" cy="263.0" r="1.45" fill="#14532d" fill-opacity="0.46"/>
<circle cx="323.7" cy="263.5" r="1.45" fill="#14532d" fill-opacity="0.46"/>
<line x1="331.1" y1="250.0" x2="331.1" y2="264.4" stroke="#14532d" stroke-opacity="0.86" stroke-width="1.8"/>
<line x1="321.2" y1="250.0" x2="341.0" y2="250.0" stroke="#14532d" stroke-opacity="0.86" stroke-width="1.8"/>
<line x1="321.2" y1="264.4" x2="341.0" y2="264.4" stroke="#14532d" stroke-opacity="0.86" stroke-width="1.8"/>
<rect x="317.3" y="256.2" width="27.5" height="7.3" rx="2" fill="#14532d" fill-opacity="0.18" stroke="#14532d" stroke-opacity="0.9" stroke-width="1.8"/>
<line x1="317.3" y1="260.5" x2="344.8" y2="260.5" stroke="#14532d" stroke-opacity="0.96" stroke-width="2.6"/>
<text x="350.8" y="264.5" text-anchor="start" font-family="Inter,Segoe UI,Arial,sans-serif" font-size="11" font-weight="700" fill="#111827" stroke="#ffffff" stroke-width="3" paint-order="stroke">105</text>
<circle cx="356.6" cy="191.8" r="1.45" fill="#7c3aed" fill-opacity="0.46"/>
<circle cx="359.1" cy="191.2" r="1.45" fill="#7c3aed" fill-opacity="0.46"/>
<circle cx="361.6" cy="191.6" r="1.45" fill="#7c3aed" fill-opacity="0.46"/>
<circle cx="364.1" cy="293.3" r="1.45" fill="#7c3aed" fill-opacity="0.46"/>
<circle cx="366.5" cy="238.5" r="1.45" fill="#7c3aed" fill-opacity="0.46"/>
<circle cx="369.0" cy="293.3" r="1.45" fill="#7c3aed" fill-opacity="0.46"/>
<circle cx="371.5" cy="297.1" r="1.45" fill="#7c3aed" fill-opacity="0.46"/>
<circle cx="373.9" cy="273.3" r="1.45" fill="#7c3aed" fill-opacity="0.46"/>
<circle cx="376.4" cy="190.1" r="1.45" fill="#7c3aed" fill-opacity="0.46"/>
<circle cx="356.6" cy="296.6" r="1.45" fill="#7c3aed" fill-opacity="0.46"/>
<circle cx="359.1" cy="261.2" r="1.45" fill="#7c3aed" fill-opacity="0.46"/>
<circle cx="361.6" cy="296.9" r="1.45" fill="#7c3aed" fill-opacity="0.46"/>
<circle cx="364.1" cy="292.6" r="1.45" fill="#7c3aed" fill-opacity="0.46"/>
<circle cx="366.5" cy="191.9" r="1.45" fill="#7c3aed" fill-opacity="0.46"/>
<circle cx="369.0" cy="192.5" r="1.45" fill="#7c3aed" fill-opacity="0.46"/>
<circle cx="371.5" cy="283.5" r="1.45" fill="#7c3aed" fill-opacity="0.46"/>
<circle cx="373.9" cy="296.6" r="1.45" fill="#7c3aed" fill-opacity="0.46"/>
<circle cx="376.4" cy="282.5" r="1.45" fill="#7c3aed" fill-opacity="0.46"/>
<circle cx="356.6" cy="191.4" r="1.45" fill="#7c3aed" fill-opacity="0.46"/>
<circle cx="359.1" cy="187.9" r="1.45" fill="#7c3aed" fill-opacity="0.46"/>
<line x1="366.5" y1="187.9" x2="366.5" y2="297.1" stroke="#7c3aed" stroke-opacity="0.86" stroke-width="1.8"/>
<line x1="356.6" y1="187.9" x2="376.4" y2="187.9" stroke="#7c3aed" stroke-opacity="0.86" stroke-width="1.8"/>
<line x1="356.6" y1="297.1" x2="376.4" y2="297.1" stroke="#7c3aed" stroke-opacity="0.86" stroke-width="1.8"/>
<rect x="352.8" y="191.8" width="27.5" height="101.5" rx="2" fill="#7c3aed" fill-opacity="0.18" stroke="#7c3aed" stroke-opacity="0.9" stroke-width="1.8"/>
<line x1="352.8" y1="267.2" x2="380.3" y2="267.2" stroke="#7c3aed" stroke-opacity="0.96" stroke-width="2.6"/>
<text x="386.3" y="271.2" text-anchor="start" font-family="Inter,Segoe UI,Arial,sans-serif" font-size="11" font-weight="700" fill="#111827" stroke="#ffffff" stroke-width="3" paint-order="stroke">97.1</text>
<circle cx="392.1" cy="213.0" r="1.45" fill="#1e3a8a" fill-opacity="0.46"/>
<circle cx="394.6" cy="213.8" r="1.45" fill="#1e3a8a" fill-opacity="0.46"/>
<circle cx="397.1" cy="212.8" r="1.45" fill="#1e3a8a" fill-opacity="0.46"/>
<circle cx="399.5" cy="213.5" r="1.45" fill="#1e3a8a" fill-opacity="0.46"/>
<circle cx="402.0" cy="286.5" r="1.45" fill="#1e3a8a" fill-opacity="0.46"/>
<circle cx="404.5" cy="215.1" r="1.45" fill="#1e3a8a" fill-opacity="0.46"/>
<circle cx="406.9" cy="273.0" r="1.45" fill="#1e3a8a" fill-opacity="0.46"/>
<circle cx="409.4" cy="249.8" r="1.45" fill="#1e3a8a" fill-opacity="0.46"/>
<circle cx="411.9" cy="86.0" r="1.45" fill="#1e3a8a" fill-opacity="0.46"/>
<circle cx="392.1" cy="210.2" r="1.45" fill="#1e3a8a" fill-opacity="0.46"/>
<circle cx="394.6" cy="209.1" r="1.45" fill="#1e3a8a" fill-opacity="0.46"/>
<circle cx="397.1" cy="101.1" r="1.45" fill="#1e3a8a" fill-opacity="0.46"/>
<circle cx="399.5" cy="106.6" r="1.45" fill="#1e3a8a" fill-opacity="0.46"/>
<circle cx="402.0" cy="209.0" r="1.45" fill="#1e3a8a" fill-opacity="0.46"/>
<circle cx="404.5" cy="209.5" r="1.45" fill="#1e3a8a" fill-opacity="0.46"/>
<circle cx="406.9" cy="119.0" r="1.45" fill="#1e3a8a" fill-opacity="0.46"/>
<circle cx="409.4" cy="94.4" r="1.45" fill="#1e3a8a" fill-opacity="0.46"/>
<circle cx="411.9" cy="92.3" r="1.45" fill="#1e3a8a" fill-opacity="0.46"/>
<circle cx="392.1" cy="132.9" r="1.45" fill="#1e3a8a" fill-opacity="0.46"/>
<circle cx="394.6" cy="98.3" r="1.45" fill="#1e3a8a" fill-opacity="0.46"/>
<line x1="402.0" y1="86.0" x2="402.0" y2="286.5" stroke="#1e3a8a" stroke-opacity="0.86" stroke-width="1.8"/>
<line x1="392.1" y1="86.0" x2="411.9" y2="86.0" stroke="#1e3a8a" stroke-opacity="0.86" stroke-width="1.8"/>
<line x1="392.1" y1="286.5" x2="411.9" y2="286.5" stroke="#1e3a8a" stroke-opacity="0.86" stroke-width="1.8"/>
<rect x="388.3" y="105.2" width="27.5" height="108.3" rx="2" fill="#1e3a8a" fill-opacity="0.18" stroke="#1e3a8a" stroke-opacity="0.9" stroke-width="1.8"/>
<line x1="388.3" y1="209.3" x2="415.7" y2="209.3" stroke="#1e3a8a" stroke-opacity="0.96" stroke-width="2.6"/>
<text x="421.7" y="213.3" text-anchor="start" font-family="Inter,Segoe UI,Arial,sans-serif" font-size="11" font-weight="700" fill="#111827" stroke="#ffffff" stroke-width="3" paint-order="stroke">162</text>
<circle cx="427.6" cy="190.6" r="1.45" fill="#f97316" fill-opacity="0.46"/>
<circle cx="430.1" cy="192.4" r="1.45" fill="#f97316" fill-opacity="0.46"/>
<circle cx="432.5" cy="191.2" r="1.45" fill="#f97316" fill-opacity="0.46"/>
<circle cx="435.0" cy="190.3" r="1.45" fill="#f97316" fill-opacity="0.46"/>
<line x1="437.5" y1="190.3" x2="437.5" y2="192.4" stroke="#f97316" stroke-opacity="0.86" stroke-width="1.8"/>
<line x1="427.6" y1="190.3" x2="447.4" y2="190.3" stroke="#f97316" stroke-opacity="0.86" stroke-width="1.8"/>
<line x1="427.6" y1="192.4" x2="447.4" y2="192.4" stroke="#f97316" stroke-opacity="0.86" stroke-width="1.8"/>
<rect x="423.7" y="190.5" width="27.5" height="1.0" rx="2" fill="#f97316" fill-opacity="0.18" stroke="#f97316" stroke-opacity="0.9" stroke-width="1.8"/>
<line x1="423.7" y1="190.9" x2="451.2" y2="190.9" stroke="#f97316" stroke-opacity="0.96" stroke-width="2.6"/>
<text x="457.2" y="194.9" text-anchor="start" font-family="Inter,Segoe UI,Arial,sans-serif" font-size="11" font-weight="700" fill="#111827" stroke="#ffffff" stroke-width="3" paint-order="stroke">183</text>
<circle cx="463.0" cy="88.8" r="1.45" fill="#eab308" fill-opacity="0.46"/>
<circle cx="465.5" cy="93.9" r="1.45" fill="#eab308" fill-opacity="0.46"/>
<circle cx="468.0" cy="91.2" r="1.45" fill="#eab308" fill-opacity="0.46"/>
<circle cx="470.5" cy="105.5" r="1.45" fill="#eab308" fill-opacity="0.46"/>
<line x1="472.9" y1="88.8" x2="472.9" y2="105.5" stroke="#eab308" stroke-opacity="0.86" stroke-width="1.8"/>
<line x1="463.0" y1="88.8" x2="482.8" y2="88.8" stroke="#eab308" stroke-opacity="0.86" stroke-width="1.8"/>
<line x1="463.0" y1="105.5" x2="482.8" y2="105.5" stroke="#eab308" stroke-opacity="0.86" stroke-width="1.8"/>
<rect x="459.2" y="90.6" width="27.5" height="6.2" rx="2" fill="#eab308" fill-opacity="0.18" stroke="#eab308" stroke-opacity="0.9" stroke-width="1.8"/>
<line x1="459.2" y1="92.6" x2="486.7" y2="92.6" stroke="#eab308" stroke-opacity="0.96" stroke-width="2.6"/>
<text x="492.7" y="96.6" text-anchor="start" font-family="Inter,Segoe UI,Arial,sans-serif" font-size="11" font-weight="700" fill="#111827" stroke="#ffffff" stroke-width="3" paint-order="stroke">293</text>
<text x="627.3" y="398" text-anchor="middle" font-family="Inter,Segoe UI,Arial,sans-serif" font-size="11" font-weight="700" fill="#111827">P</text>
<circle cx="546.5" cy="267.1" r="1.45" fill="#14532d" fill-opacity="0.46"/>
<circle cx="549.0" cy="265.2" r="1.45" fill="#14532d" fill-opacity="0.46"/>
<circle cx="551.5" cy="265.7" r="1.45" fill="#14532d" fill-opacity="0.46"/>
<circle cx="553.9" cy="265.5" r="1.45" fill="#14532d" fill-opacity="0.46"/>
<circle cx="556.4" cy="270.3" r="1.45" fill="#14532d" fill-opacity="0.46"/>
<circle cx="558.9" cy="266.3" r="1.45" fill="#14532d" fill-opacity="0.46"/>
<circle cx="561.3" cy="263.1" r="1.45" fill="#14532d" fill-opacity="0.46"/>
<circle cx="563.8" cy="264.3" r="1.45" fill="#14532d" fill-opacity="0.46"/>
<circle cx="566.3" cy="266.9" r="1.45" fill="#14532d" fill-opacity="0.46"/>
<circle cx="546.5" cy="264.1" r="1.45" fill="#14532d" fill-opacity="0.46"/>
<circle cx="549.0" cy="264.5" r="1.45" fill="#14532d" fill-opacity="0.46"/>
<circle cx="551.5" cy="265.6" r="1.45" fill="#14532d" fill-opacity="0.46"/>
<circle cx="553.9" cy="266.1" r="1.45" fill="#14532d" fill-opacity="0.46"/>
<circle cx="556.4" cy="262.7" r="1.45" fill="#14532d" fill-opacity="0.46"/>
<circle cx="558.9" cy="264.7" r="1.45" fill="#14532d" fill-opacity="0.46"/>
<line x1="556.4" y1="262.7" x2="556.4" y2="270.3" stroke="#14532d" stroke-opacity="0.86" stroke-width="1.8"/>
<line x1="546.5" y1="262.7" x2="566.3" y2="262.7" stroke="#14532d" stroke-opacity="0.86" stroke-width="1.8"/>
<line x1="546.5" y1="270.3" x2="566.3" y2="270.3" stroke="#14532d" stroke-opacity="0.86" stroke-width="1.8"/>
<rect x="542.7" y="264.4" width="27.5" height="1.8" rx="2" fill="#14532d" fill-opacity="0.18" stroke="#14532d" stroke-opacity="0.9" stroke-width="1.8"/>
<line x1="542.7" y1="265.5" x2="570.1" y2="265.5" stroke="#14532d" stroke-opacity="0.96" stroke-width="2.6"/>
<text x="576.1" y="269.5" text-anchor="start" font-family="Inter,Segoe UI,Arial,sans-serif" font-size="11" font-weight="700" fill="#111827" stroke="#ffffff" stroke-width="3" paint-order="stroke">99.1</text>
<circle cx="582.0" cy="189.0" r="1.45" fill="#7c3aed" fill-opacity="0.46"/>
<circle cx="584.5" cy="187.8" r="1.45" fill="#7c3aed" fill-opacity="0.46"/>
<circle cx="586.9" cy="186.1" r="1.45" fill="#7c3aed" fill-opacity="0.46"/>
<circle cx="589.4" cy="186.1" r="1.45" fill="#7c3aed" fill-opacity="0.46"/>
<circle cx="591.9" cy="186.6" r="1.45" fill="#7c3aed" fill-opacity="0.46"/>
<circle cx="594.3" cy="191.3" r="1.45" fill="#7c3aed" fill-opacity="0.46"/>
<circle cx="596.8" cy="189.5" r="1.45" fill="#7c3aed" fill-opacity="0.46"/>
<circle cx="599.3" cy="186.4" r="1.45" fill="#7c3aed" fill-opacity="0.46"/>
<circle cx="601.8" cy="185.9" r="1.45" fill="#7c3aed" fill-opacity="0.46"/>
<circle cx="582.0" cy="185.7" r="1.45" fill="#7c3aed" fill-opacity="0.46"/>
<circle cx="584.5" cy="187.2" r="1.45" fill="#7c3aed" fill-opacity="0.46"/>
<circle cx="586.9" cy="187.1" r="1.45" fill="#7c3aed" fill-opacity="0.46"/>
<circle cx="589.4" cy="187.6" r="1.45" fill="#7c3aed" fill-opacity="0.46"/>
<circle cx="591.9" cy="187.0" r="1.45" fill="#7c3aed" fill-opacity="0.46"/>
<circle cx="594.3" cy="186.6" r="1.45" fill="#7c3aed" fill-opacity="0.46"/>
<line x1="591.9" y1="185.7" x2="591.9" y2="191.3" stroke="#7c3aed" stroke-opacity="0.86" stroke-width="1.8"/>
<line x1="582.0" y1="185.7" x2="601.8" y2="185.7" stroke="#7c3aed" stroke-opacity="0.86" stroke-width="1.8"/>
<line x1="582.0" y1="191.3" x2="601.8" y2="191.3" stroke="#7c3aed" stroke-opacity="0.86" stroke-width="1.8"/>
<rect x="578.1" y="186.3" width="27.5" height="1.4" rx="2" fill="#7c3aed" fill-opacity="0.18" stroke="#7c3aed" stroke-opacity="0.9" stroke-width="1.8"/>
<line x1="578.1" y1="187.0" x2="605.6" y2="187.0" stroke="#7c3aed" stroke-opacity="0.96" stroke-width="2.6"/>
<text x="611.6" y="191.0" text-anchor="start" font-family="Inter,Segoe UI,Arial,sans-serif" font-size="11" font-weight="700" fill="#111827" stroke="#ffffff" stroke-width="3" paint-order="stroke">187</text>
<circle cx="617.4" cy="111.5" r="1.45" fill="#1e3a8a" fill-opacity="0.46"/>
<circle cx="619.9" cy="161.8" r="1.45" fill="#1e3a8a" fill-opacity="0.46"/>
<circle cx="622.4" cy="124.2" r="1.45" fill="#1e3a8a" fill-opacity="0.46"/>
<circle cx="624.9" cy="121.3" r="1.45" fill="#1e3a8a" fill-opacity="0.46"/>
<circle cx="627.3" cy="201.3" r="1.45" fill="#1e3a8a" fill-opacity="0.46"/>
<circle cx="629.8" cy="185.2" r="1.45" fill="#1e3a8a" fill-opacity="0.46"/>
<circle cx="632.3" cy="187.6" r="1.45" fill="#1e3a8a" fill-opacity="0.46"/>
<circle cx="634.7" cy="210.3" r="1.45" fill="#1e3a8a" fill-opacity="0.46"/>
<circle cx="637.2" cy="197.9" r="1.45" fill="#1e3a8a" fill-opacity="0.46"/>
<circle cx="617.4" cy="163.4" r="1.45" fill="#1e3a8a" fill-opacity="0.46"/>
<circle cx="619.9" cy="175.2" r="1.45" fill="#1e3a8a" fill-opacity="0.46"/>
<circle cx="622.4" cy="168.4" r="1.45" fill="#1e3a8a" fill-opacity="0.46"/>
<circle cx="624.9" cy="122.7" r="1.45" fill="#1e3a8a" fill-opacity="0.46"/>
<circle cx="627.3" cy="175.9" r="1.45" fill="#1e3a8a" fill-opacity="0.46"/>
<circle cx="629.8" cy="167.6" r="1.45" fill="#1e3a8a" fill-opacity="0.46"/>
<line x1="627.3" y1="111.5" x2="627.3" y2="210.3" stroke="#1e3a8a" stroke-opacity="0.86" stroke-width="1.8"/>
<line x1="617.4" y1="111.5" x2="637.2" y2="111.5" stroke="#1e3a8a" stroke-opacity="0.86" stroke-width="1.8"/>
<line x1="617.4" y1="210.3" x2="637.2" y2="210.3" stroke="#1e3a8a" stroke-opacity="0.86" stroke-width="1.8"/>
<rect x="613.6" y="143.0" width="27.5" height="43.4" rx="2" fill="#1e3a8a" fill-opacity="0.18" stroke="#1e3a8a" stroke-opacity="0.9" stroke-width="1.8"/>
<line x1="613.6" y1="168.4" x2="641.1" y2="168.4" stroke="#1e3a8a" stroke-opacity="0.96" stroke-width="2.6"/>
<text x="647.1" y="172.4" text-anchor="start" font-family="Inter,Segoe UI,Arial,sans-serif" font-size="11" font-weight="700" fill="#111827" stroke="#ffffff" stroke-width="3" paint-order="stroke">208</text>
<circle cx="652.9" cy="193.3" r="1.45" fill="#f97316" fill-opacity="0.46"/>
<circle cx="655.4" cy="195.5" r="1.45" fill="#f97316" fill-opacity="0.46"/>
<circle cx="657.9" cy="192.9" r="1.45" fill="#f97316" fill-opacity="0.46"/>
<line x1="662.8" y1="192.9" x2="662.8" y2="195.5" stroke="#f97316" stroke-opacity="0.86" stroke-width="1.8"/>
<line x1="652.9" y1="192.9" x2="672.7" y2="192.9" stroke="#f97316" stroke-opacity="0.86" stroke-width="1.8"/>
<line x1="652.9" y1="195.5" x2="672.7" y2="195.5" stroke="#f97316" stroke-opacity="0.86" stroke-width="1.8"/>
<rect x="649.1" y="193.1" width="27.5" height="1.3" rx="2" fill="#f97316" fill-opacity="0.18" stroke="#f97316" stroke-opacity="0.9" stroke-width="1.8"/>
<line x1="649.1" y1="193.3" x2="676.5" y2="193.3" stroke="#f97316" stroke-opacity="0.96" stroke-width="2.6"/>
<text x="682.5" y="197.3" text-anchor="start" font-family="Inter,Segoe UI,Arial,sans-serif" font-size="11" font-weight="700" fill="#111827" stroke="#ffffff" stroke-width="3" paint-order="stroke">180</text>
<circle cx="688.4" cy="189.0" r="1.45" fill="#eab308" fill-opacity="0.46"/>
<circle cx="690.9" cy="196.5" r="1.45" fill="#eab308" fill-opacity="0.46"/>
<circle cx="693.3" cy="181.3" r="1.45" fill="#eab308" fill-opacity="0.46"/>
<line x1="698.3" y1="181.3" x2="698.3" y2="196.5" stroke="#eab308" stroke-opacity="0.86" stroke-width="1.8"/>
<line x1="688.4" y1="181.3" x2="708.2" y2="181.3" stroke="#eab308" stroke-opacity="0.86" stroke-width="1.8"/>
<line x1="688.4" y1="196.5" x2="708.2" y2="196.5" stroke="#eab308" stroke-opacity="0.86" stroke-width="1.8"/>
<rect x="684.5" y="185.2" width="27.5" height="7.6" rx="2" fill="#eab308" fill-opacity="0.18" stroke="#eab308" stroke-opacity="0.9" stroke-width="1.8"/>
<line x1="684.5" y1="189.0" x2="712.0" y2="189.0" stroke="#eab308" stroke-opacity="0.96" stroke-width="2.6"/>
<text x="718.0" y="193.0" text-anchor="start" font-family="Inter,Segoe UI,Arial,sans-serif" font-size="11" font-weight="700" fill="#111827" stroke="#ffffff" stroke-width="3" paint-order="stroke">185</text>
<rect x="64.0" y="433" width="10" height="10" rx="2" fill="#14532d" fill-opacity="0.72"/>
<text x="78.0" y="442" font-family="Inter,Segoe UI,Arial,sans-serif" font-size="10" fill="#374151">MTPLX 0.3.7</text>
<rect x="199.2" y="433" width="10" height="10" rx="2" fill="#7c3aed" fill-opacity="0.72"/>
<text x="213.2" y="442" font-family="Inter,Segoe UI,Arial,sans-serif" font-size="10" fill="#374151">Lightning v0.6.10</text>
<rect x="334.4" y="433" width="10" height="10" rx="2" fill="#1e3a8a" fill-opacity="0.72"/>
<text x="348.4" y="442" font-family="Inter,Segoe UI,Arial,sans-serif" font-size="10" fill="#374151">Lightning+ng v0.6.10</text>
<rect x="469.6" y="433" width="10" height="10" rx="2" fill="#f97316" fill-opacity="0.72"/>
<text x="483.6" y="442" font-family="Inter,Segoe UI,Arial,sans-serif" font-size="10" fill="#374151">AX Engine v5.1.1</text>
<rect x="604.8" y="433" width="10" height="10" rx="2" fill="#eab308" fill-opacity="0.72"/>
<text x="618.8" y="442" font-family="Inter,Segoe UI,Arial,sans-serif" font-size="10" fill="#374151">AX+ngram v5.1.1</text>
</svg>
