<svg xmlns="http://www.w3.org/2000/svg" width="760" height="460" viewBox="0 0 760 460" role="img" aria-labelledby="title desc">
<title>Gemma 4 12B 4-bit-FFN — Time to first token</title>
<desc>Grouped box-and-whisker plot comparing AX assistant MTP across flappy, long_code, python_modules_long prompt suites.</desc>
<rect width="100%" height="100%" fill="#f8fafc"/>
<text x="24" y="24" font-family="Inter,Segoe UI,Arial,sans-serif" font-size="16" font-weight="700" fill="#111827">Gemma 4 12B 4-bit-FFN — Time to first token</text>
<text x="24" y="46" font-family="Inter,Segoe UI,Arial,sans-serif" font-size="11" fill="#4b5563">All suites | box=IQR | whiskers=min/max | dots=runs</text>
<text x="24" y="62" font-family="Inter,Segoe UI,Arial,sans-serif" font-size="10" fill="#6b7280">Apple M5 Max · gate 0.90 first / 0.999 deep · GPU exact · T=0.6/top_p=0.95/top_k=20</text>
<rect x="678" y="13" width="48" height="22" rx="11" fill="#eef2ff" stroke="#c7d2fe"/>
<text x="702.0" y="28" text-anchor="middle" font-family="Inter,Segoe UI,Arial,sans-serif" font-size="10" font-weight="700" fill="#3730a3">ms</text>
<text x="726" y="52" text-anchor="end" font-family="Inter,Segoe UI,Arial,sans-serif" font-size="10" font-weight="700" fill="#dc2626">Lower is better</text>
<rect x="64" y="86" width="496" height="268" rx="6" fill="#ffffff" stroke="#dbe3ef"/>
<line x1="64" y1="354.0" x2="560" y2="354.0" stroke="#e5e7eb" stroke-width="1"/>
<text x="56" y="357.0" text-anchor="end" font-family="Inter,Segoe UI,Arial,sans-serif" font-size="11" fill="#6b7280">0.0</text>
<line x1="64" y1="287.0" x2="560" y2="287.0" stroke="#e5e7eb" stroke-width="1"/>
<text x="56" y="290.0" text-anchor="end" font-family="Inter,Segoe UI,Arial,sans-serif" font-size="11" fill="#6b7280">250</text>
<line x1="64" y1="220.0" x2="560" y2="220.0" stroke="#e5e7eb" stroke-width="1"/>
<text x="56" y="223.0" text-anchor="end" font-family="Inter,Segoe UI,Arial,sans-serif" font-size="11" fill="#6b7280">500</text>
<line x1="64" y1="153.0" x2="560" y2="153.0" stroke="#e5e7eb" stroke-width="1"/>
<text x="56" y="156.0" text-anchor="end" font-family="Inter,Segoe UI,Arial,sans-serif" font-size="11" fill="#6b7280">750</text>
<line x1="64" y1="86.0" x2="560" y2="86.0" stroke="#e5e7eb" stroke-width="1"/>
<text x="56" y="89.0" text-anchor="end" font-family="Inter,Segoe UI,Arial,sans-serif" font-size="11" fill="#6b7280">1k</text>
<line x1="64" y1="302.9" x2="560" y2="302.9" stroke="#dc2626" stroke-width="1.2" stroke-dasharray="1 4" stroke-linecap="round"/>
<text x="568" y="297.9" text-anchor="start" font-family="Inter,Segoe UI,Arial,sans-serif" font-size="11" font-weight="700" fill="#dc2626" data-label="lowest median">lowest: 190</text>
<text x="146.7" y="398" text-anchor="middle" font-family="Inter,Segoe UI,Arial,sans-serif" font-size="11" font-weight="700" fill="#111827">flappy</text>
<circle cx="134.4" cy="305.7" r="1.45" fill="#2eaf5f" fill-opacity="0.46"/>
<circle cx="137.5" cy="311.3" r="1.45" fill="#2eaf5f" fill-opacity="0.46"/>
<circle cx="140.5" cy="305.6" r="1.45" fill="#2eaf5f" fill-opacity="0.46"/>
<circle cx="143.6" cy="307.7" r="1.45" fill="#2eaf5f" fill-opacity="0.46"/>
<circle cx="146.7" cy="305.6" r="1.45" fill="#2eaf5f" fill-opacity="0.46"/>
<circle cx="149.7" cy="298.2" r="1.45" fill="#2eaf5f" fill-opacity="0.46"/>
<circle cx="152.8" cy="293.2" r="1.45" fill="#2eaf5f" fill-opacity="0.46"/>
<circle cx="155.8" cy="298.1" r="1.45" fill="#2eaf5f" fill-opacity="0.46"/>
<circle cx="158.9" cy="293.4" r="1.45" fill="#2eaf5f" fill-opacity="0.46"/>
<circle cx="134.4" cy="294.9" r="1.45" fill="#2eaf5f" fill-opacity="0.46"/>
<circle cx="137.5" cy="276.2" r="1.45" fill="#2eaf5f" fill-opacity="0.46"/>
<circle cx="140.5" cy="271.5" r="1.45" fill="#2eaf5f" fill-opacity="0.46"/>
<circle cx="143.6" cy="282.6" r="1.45" fill="#2eaf5f" fill-opacity="0.46"/>
<circle cx="146.7" cy="276.5" r="1.45" fill="#2eaf5f" fill-opacity="0.46"/>
<circle cx="149.7" cy="277.3" r="1.45" fill="#2eaf5f" fill-opacity="0.46"/>
<circle cx="152.8" cy="304.5" r="1.45" fill="#2eaf5f" fill-opacity="0.46"/>
<circle cx="155.8" cy="310.6" r="1.45" fill="#2eaf5f" fill-opacity="0.46"/>
<circle cx="158.9" cy="310.8" r="1.45" fill="#2eaf5f" fill-opacity="0.46"/>
<circle cx="134.4" cy="309.9" r="1.45" fill="#2eaf5f" fill-opacity="0.46"/>
<circle cx="137.5" cy="307.7" r="1.45" fill="#2eaf5f" fill-opacity="0.46"/>
<line x1="146.7" y1="271.5" x2="146.7" y2="311.3" stroke="#2eaf5f" stroke-opacity="0.86" stroke-width="1.8"/>
<line x1="134.4" y1="271.5" x2="158.9" y2="271.5" stroke="#2eaf5f" stroke-opacity="0.86" stroke-width="1.8"/>
<line x1="134.4" y1="311.3" x2="158.9" y2="311.3" stroke="#2eaf5f" stroke-opacity="0.86" stroke-width="1.8"/>
<rect x="129.7" y="290.5" width="34.0" height="17.2" rx="2" fill="#2eaf5f" fill-opacity="0.18" stroke="#2eaf5f" stroke-opacity="0.9" stroke-width="1.8"/>
<line x1="129.7" y1="301.3" x2="163.7" y2="301.3" stroke="#2eaf5f" stroke-opacity="0.96" stroke-width="2.6"/>
<text x="169.7" y="305.3" text-anchor="start" font-family="Inter,Segoe UI,Arial,sans-serif" font-size="11" font-weight="700" fill="#111827" stroke="#ffffff" stroke-width="3" paint-order="stroke">196</text>
<text x="312.0" y="398" text-anchor="middle" font-family="Inter,Segoe UI,Arial,sans-serif" font-size="11" font-weight="700" fill="#111827">long_code</text>
<circle cx="299.8" cy="248.2" r="1.45" fill="#2eaf5f" fill-opacity="0.46"/>
<circle cx="302.8" cy="253.7" r="1.45" fill="#2eaf5f" fill-opacity="0.46"/>
<circle cx="305.9" cy="248.6" r="1.45" fill="#2eaf5f" fill-opacity="0.46"/>
<circle cx="308.9" cy="254.4" r="1.45" fill="#2eaf5f" fill-opacity="0.46"/>
<circle cx="312.0" cy="254.4" r="1.45" fill="#2eaf5f" fill-opacity="0.46"/>
<circle cx="315.1" cy="227.3" r="1.45" fill="#2eaf5f" fill-opacity="0.46"/>
<circle cx="318.1" cy="226.4" r="1.45" fill="#2eaf5f" fill-opacity="0.46"/>
<circle cx="321.2" cy="227.0" r="1.45" fill="#2eaf5f" fill-opacity="0.46"/>
<circle cx="324.2" cy="223.2" r="1.45" fill="#2eaf5f" fill-opacity="0.46"/>
<circle cx="299.8" cy="227.3" r="1.45" fill="#2eaf5f" fill-opacity="0.46"/>
<circle cx="302.8" cy="238.6" r="1.45" fill="#2eaf5f" fill-opacity="0.46"/>
<circle cx="305.9" cy="242.2" r="1.45" fill="#2eaf5f" fill-opacity="0.46"/>
<circle cx="308.9" cy="241.1" r="1.45" fill="#2eaf5f" fill-opacity="0.46"/>
<circle cx="312.0" cy="239.7" r="1.45" fill="#2eaf5f" fill-opacity="0.46"/>
<circle cx="315.1" cy="242.7" r="1.45" fill="#2eaf5f" fill-opacity="0.46"/>
<circle cx="318.1" cy="273.8" r="1.45" fill="#2eaf5f" fill-opacity="0.46"/>
<circle cx="321.2" cy="281.7" r="1.45" fill="#2eaf5f" fill-opacity="0.46"/>
<circle cx="324.2" cy="281.5" r="1.45" fill="#2eaf5f" fill-opacity="0.46"/>
<circle cx="299.8" cy="281.3" r="1.45" fill="#2eaf5f" fill-opacity="0.46"/>
<circle cx="302.8" cy="279.4" r="1.45" fill="#2eaf5f" fill-opacity="0.46"/>
<line x1="312.0" y1="223.2" x2="312.0" y2="281.7" stroke="#2eaf5f" stroke-opacity="0.86" stroke-width="1.8"/>
<line x1="299.8" y1="223.2" x2="324.2" y2="223.2" stroke="#2eaf5f" stroke-opacity="0.86" stroke-width="1.8"/>
<line x1="299.8" y1="281.7" x2="324.2" y2="281.7" stroke="#2eaf5f" stroke-opacity="0.86" stroke-width="1.8"/>
<rect x="295.0" y="235.8" width="34.0" height="23.5" rx="2" fill="#2eaf5f" fill-opacity="0.18" stroke="#2eaf5f" stroke-opacity="0.9" stroke-width="1.8"/>
<line x1="295.0" y1="245.5" x2="329.0" y2="245.5" stroke="#2eaf5f" stroke-opacity="0.96" stroke-width="2.6"/>
<text x="335.0" y="249.5" text-anchor="start" font-family="Inter,Segoe UI,Arial,sans-serif" font-size="11" font-weight="700" fill="#111827" stroke="#ffffff" stroke-width="3" paint-order="stroke">405</text>
<text x="477.3" y="398" text-anchor="middle" font-family="Inter,Segoe UI,Arial,sans-serif" font-size="11" font-weight="700" fill="#111827">python_modules_long</text>
<circle cx="465.1" cy="303.9" r="1.45" fill="#2eaf5f" fill-opacity="0.46"/>
<circle cx="468.2" cy="303.6" r="1.45" fill="#2eaf5f" fill-opacity="0.46"/>
<circle cx="471.2" cy="302.8" r="1.45" fill="#2eaf5f" fill-opacity="0.46"/>
<circle cx="474.3" cy="303.1" r="1.45" fill="#2eaf5f" fill-opacity="0.46"/>
<circle cx="477.3" cy="303.4" r="1.45" fill="#2eaf5f" fill-opacity="0.46"/>
<circle cx="480.4" cy="303.2" r="1.45" fill="#2eaf5f" fill-opacity="0.46"/>
<circle cx="483.5" cy="299.6" r="1.45" fill="#2eaf5f" fill-opacity="0.46"/>
<circle cx="486.5" cy="303.0" r="1.45" fill="#2eaf5f" fill-opacity="0.46"/>
<circle cx="489.6" cy="302.9" r="1.45" fill="#2eaf5f" fill-opacity="0.46"/>
<circle cx="465.1" cy="303.2" r="1.45" fill="#2eaf5f" fill-opacity="0.46"/>
<circle cx="468.2" cy="297.8" r="1.45" fill="#2eaf5f" fill-opacity="0.46"/>
<circle cx="471.2" cy="294.9" r="1.45" fill="#2eaf5f" fill-opacity="0.46"/>
<circle cx="474.3" cy="297.6" r="1.45" fill="#2eaf5f" fill-opacity="0.46"/>
<circle cx="477.3" cy="297.7" r="1.45" fill="#2eaf5f" fill-opacity="0.46"/>
<circle cx="480.4" cy="297.5" r="1.45" fill="#2eaf5f" fill-opacity="0.46"/>
<line x1="477.3" y1="294.9" x2="477.3" y2="303.9" stroke="#2eaf5f" stroke-opacity="0.86" stroke-width="1.8"/>
<line x1="465.1" y1="294.9" x2="489.6" y2="294.9" stroke="#2eaf5f" stroke-opacity="0.86" stroke-width="1.8"/>
<line x1="465.1" y1="303.9" x2="489.6" y2="303.9" stroke="#2eaf5f" stroke-opacity="0.86" stroke-width="1.8"/>
<rect x="460.3" y="297.7" width="34.0" height="5.5" rx="2" fill="#2eaf5f" fill-opacity="0.18" stroke="#2eaf5f" stroke-opacity="0.9" stroke-width="1.8"/>
<line x1="460.3" y1="302.9" x2="494.3" y2="302.9" stroke="#2eaf5f" stroke-opacity="0.96" stroke-width="2.6"/>
<text x="500.3" y="306.9" text-anchor="start" font-family="Inter,Segoe UI,Arial,sans-serif" font-size="11" font-weight="700" fill="#111827" stroke="#ffffff" stroke-width="3" paint-order="stroke">190</text>
<rect x="64.0" y="433" width="10" height="10" rx="2" fill="#2eaf5f" fill-opacity="0.72"/>
<text x="78.0" y="442" font-family="Inter,Segoe UI,Arial,sans-serif" font-size="10" fill="#374151">AX assistant MTP</text>
</svg>
