<svg xmlns="http://www.w3.org/2000/svg" width="460" height="276" viewBox="0 0 460 276" role="img" aria-labelledby="title desc"><title>TTFT</title><desc>Box-and-Whisker Plot comparing llama.cpp Metal, mlx_lm, ax_engine, and ax_engine plus n-gram across README benchmark rows. A red dotted horizontal line marks the ax_engine plus n-gram median.</desc><rect width="460" height="276" fill="#ffffff"/><text x="52" y="22" font-family="Inter,Segoe UI,Arial,sans-serif" font-size="16" font-weight="700" fill="#111827">TTFT</text><text x="442" y="22" text-anchor="end" font-family="Inter,Segoe UI,Arial,sans-serif" font-size="10" fill="#6b7280">ms</text><text x="442" y="40" text-anchor="end" font-family="Inter,Segoe UI,Arial,sans-serif" font-size="10" font-weight="700" fill="#374151">Lower is better</text><line x1="52" y1="206.0" x2="442" y2="206.0" stroke="#e5e7eb" stroke-width="1"/><text x="44" y="209.0" text-anchor="end" font-family="Inter,Segoe UI,Arial,sans-serif" font-size="10" fill="#6b7280">0</text><line x1="52" y1="126.0" x2="442" y2="126.0" stroke="#e5e7eb" stroke-width="1"/><text x="44" y="129.0" text-anchor="end" font-family="Inter,Segoe UI,Arial,sans-serif" font-size="10" fill="#6b7280">450</text><line x1="52" y1="46.0" x2="442" y2="46.0" stroke="#e5e7eb" stroke-width="1"/><text x="44" y="49.0" text-anchor="end" font-family="Inter,Segoe UI,Arial,sans-serif" font-size="10" fill="#6b7280">900</text><line x1="52" y1="173.8" x2="442" y2="173.8" stroke="#dc2626" stroke-width="1.2" stroke-dasharray="2 4"/><rect x="300" y="50" width="135" height="160" fill="none" stroke="#dc2626" stroke-width="1.4"/><line x1="78" y1="46.0" x2="78" y2="200.0" stroke="#f97316" stroke-width="2"/><line x1="68" y1="46.0" x2="88" y2="46.0" stroke="#f97316" stroke-width="2"/><line x1="68" y1="200.0" x2="88" y2="200.0" stroke="#f97316" stroke-width="2"/><rect x="61" y="69.0" width="34" height="124.2" rx="4" fill="#f97316" fill-opacity="0.18" stroke="#f97316" stroke-width="2"/><line x1="61" y1="162.5" x2="95" y2="162.5" stroke="#f97316" stroke-width="3"/><text x="78" y="230" text-anchor="middle" font-family="Inter,Segoe UI,Arial,sans-serif" font-size="9" fill="#111827">llama.cpp</text><text x="78" y="246" text-anchor="middle" font-family="Inter,Segoe UI,Arial,sans-serif" font-size="10" fill="#6b7280">med 245</text><circle cx="69.5" cy="200.0" r="2" fill="#c2410c" fill-opacity="0.9"/><circle cx="73" cy="193.5" r="2" fill="#c2410c" fill-opacity="0.9"/><circle cx="76" cy="158.4" r="2" fill="#c2410c" fill-opacity="0.9"/><circle cx="79.5" cy="199.3" r="2" fill="#c2410c" fill-opacity="0.9"/><circle cx="83" cy="193.1" r="2" fill="#c2410c" fill-opacity="0.9"/><circle cx="86.5" cy="157.4" r="2" fill="#c2410c" fill-opacity="0.9"/><circle cx="71.5" cy="199.8" r="2" fill="#c2410c" fill-opacity="0.9"/><circle cx="81.5" cy="193.6" r="2" fill="#c2410c" fill-opacity="0.9"/><circle cx="69.5" cy="158.5" r="2" fill="#c2410c" fill-opacity="0.9"/><circle cx="73" cy="199.9" r="2" fill="#c2410c" fill-opacity="0.9"/><circle cx="76" cy="193.9" r="2" fill="#c2410c" fill-opacity="0.9"/><circle cx="79.5" cy="160.7" r="2" fill="#c2410c" fill-opacity="0.9"/><circle cx="83" cy="196.2" r="2" fill="#c2410c" fill-opacity="0.9"/><circle cx="86.5" cy="185.5" r="2" fill="#c2410c" fill-opacity="0.9"/><circle cx="71.5" cy="123.6" r="2" fill="#c2410c" fill-opacity="0.9"/><circle cx="81.5" cy="194.3" r="2" fill="#c2410c" fill-opacity="0.9"/><circle cx="69.5" cy="179.9" r="2" fill="#c2410c" fill-opacity="0.9"/><circle cx="73" cy="105.1" r="2" fill="#c2410c" fill-opacity="0.9"/><circle cx="76" cy="162.8" r="2" fill="#c2410c" fill-opacity="0.9"/><circle cx="79.5" cy="69.9" r="2" fill="#c2410c" fill-opacity="0.9"/><circle cx="83" cy="46.0" r="2" fill="#c2410c" fill-opacity="0.9"/><circle cx="86.5" cy="162.9" r="2" fill="#c2410c" fill-opacity="0.9"/><circle cx="71.5" cy="46.0" r="2" fill="#c2410c" fill-opacity="0.9"/><circle cx="81.5" cy="46.0" r="2" fill="#c2410c" fill-opacity="0.9"/><circle cx="69.5" cy="162.1" r="2" fill="#c2410c" fill-opacity="0.9"/><circle cx="73" cy="46.0" r="2" fill="#c2410c" fill-opacity="0.9"/><circle cx="76" cy="46.0" r="2" fill="#c2410c" fill-opacity="0.9"/><circle cx="79.5" cy="164.0" r="2" fill="#c2410c" fill-opacity="0.9"/><circle cx="83" cy="56.3" r="2" fill="#c2410c" fill-opacity="0.9"/><circle cx="86.5" cy="46.0" r="2" fill="#c2410c" fill-opacity="0.9"/><circle cx="71.5" cy="165.3" r="2" fill="#c2410c" fill-opacity="0.9"/><circle cx="81.5" cy="66.3" r="2" fill="#c2410c" fill-opacity="0.9"/><circle cx="69.5" cy="46.0" r="2" fill="#c2410c" fill-opacity="0.9"/><circle cx="73" cy="193.0" r="2" fill="#c2410c" fill-opacity="0.9"/><circle cx="76" cy="177.6" r="2" fill="#c2410c" fill-opacity="0.9"/><circle cx="79.5" cy="104.2" r="2" fill="#c2410c" fill-opacity="0.9"/><line x1="159.25" y1="46.0" x2="159.25" y2="196.3" stroke="#f2b705" stroke-width="2"/><line x1="149.25" y1="46.0" x2="169.25" y2="46.0" stroke="#f2b705" stroke-width="2"/><line x1="149.25" y1="196.3" x2="169.25" y2="196.3" stroke="#f2b705" stroke-width="2"/><rect x="142.25" y="72.5" width="34" height="114.5" rx="4" fill="#f2b705" fill-opacity="0.18" stroke="#f2b705" stroke-width="2"/><line x1="142.25" y1="149.5" x2="176.25" y2="149.5" stroke="#f2b705" stroke-width="3"/><text x="159.25" y="230" text-anchor="middle" font-family="Inter,Segoe UI,Arial,sans-serif" font-size="9" fill="#111827">mlx_lm</text><text x="159.25" y="246" text-anchor="middle" font-family="Inter,Segoe UI,Arial,sans-serif" font-size="10" fill="#6b7280">med 318</text><circle cx="150.75" cy="196.3" r="2" fill="#9a6a00" fill-opacity="0.9"/><circle cx="154.25" cy="194.4" r="2" fill="#9a6a00" fill-opacity="0.9"/><circle cx="157.25" cy="185.8" r="2" fill="#9a6a00" fill-opacity="0.9"/><circle cx="160.75" cy="195.8" r="2" fill="#9a6a00" fill-opacity="0.9"/><circle cx="164.25" cy="193.8" r="2" fill="#9a6a00" fill-opacity="0.9"/><circle cx="167.75" cy="184.2" r="2" fill="#9a6a00" fill-opacity="0.9"/><circle cx="152.75" cy="193.5" r="2" fill="#9a6a00" fill-opacity="0.9"/><circle cx="162.75" cy="190.9" r="2" fill="#9a6a00" fill-opacity="0.9"/><circle cx="150.75" cy="182.3" r="2" fill="#9a6a00" fill-opacity="0.9"/><circle cx="154.25" cy="191.8" r="2" fill="#9a6a00" fill-opacity="0.9"/><circle cx="157.25" cy="191.6" r="2" fill="#9a6a00" fill-opacity="0.9"/><circle cx="160.75" cy="182.6" r="2" fill="#9a6a00" fill-opacity="0.9"/><circle cx="164.25" cy="191.0" r="2" fill="#9a6a00" fill-opacity="0.9"/><circle cx="167.75" cy="184.3" r="2" fill="#9a6a00" fill-opacity="0.9"/><circle cx="152.75" cy="156.3" r="2" fill="#9a6a00" fill-opacity="0.9"/><circle cx="162.75" cy="160.2" r="2" fill="#9a6a00" fill-opacity="0.9"/><circle cx="150.75" cy="149.8" r="2" fill="#9a6a00" fill-opacity="0.9"/><circle cx="154.25" cy="95.7" r="2" fill="#9a6a00" fill-opacity="0.9"/><circle cx="157.25" cy="125.6" r="2" fill="#9a6a00" fill-opacity="0.9"/><circle cx="160.75" cy="59.2" r="2" fill="#9a6a00" fill-opacity="0.9"/><circle cx="164.25" cy="46.0" r="2" fill="#9a6a00" fill-opacity="0.9"/><circle cx="167.75" cy="145.9" r="2" fill="#9a6a00" fill-opacity="0.9"/><circle cx="152.75" cy="77.0" r="2" fill="#9a6a00" fill-opacity="0.9"/><circle cx="162.75" cy="46.0" r="2" fill="#9a6a00" fill-opacity="0.9"/><circle cx="150.75" cy="124.4" r="2" fill="#9a6a00" fill-opacity="0.9"/><circle cx="154.25" cy="54.2" r="2" fill="#9a6a00" fill-opacity="0.9"/><circle cx="157.25" cy="46.0" r="2" fill="#9a6a00" fill-opacity="0.9"/><circle cx="160.75" cy="121.9" r="2" fill="#9a6a00" fill-opacity="0.9"/><circle cx="164.25" cy="48.4" r="2" fill="#9a6a00" fill-opacity="0.9"/><circle cx="167.75" cy="46.0" r="2" fill="#9a6a00" fill-opacity="0.9"/><circle cx="152.75" cy="102.3" r="2" fill="#9a6a00" fill-opacity="0.9"/><circle cx="162.75" cy="46.0" r="2" fill="#9a6a00" fill-opacity="0.9"/><circle cx="150.75" cy="46.0" r="2" fill="#9a6a00" fill-opacity="0.9"/><circle cx="154.25" cy="163.8" r="2" fill="#9a6a00" fill-opacity="0.9"/><circle cx="157.25" cy="149.1" r="2" fill="#9a6a00" fill-opacity="0.9"/><circle cx="160.75" cy="102.4" r="2" fill="#9a6a00" fill-opacity="0.9"/><line x1="240.5" y1="46.0" x2="240.5" y2="200.3" stroke="#2eaf5f" stroke-width="2"/><line x1="230.5" y1="46.0" x2="250.5" y2="46.0" stroke="#2eaf5f" stroke-width="2"/><line x1="230.5" y1="200.3" x2="250.5" y2="200.3" stroke="#2eaf5f" stroke-width="2"/><rect x="223.5" y="102.1" width="34" height="89.5" rx="4" fill="#2eaf5f" fill-opacity="0.18" stroke="#2eaf5f" stroke-width="2"/><line x1="223.5" y1="173.8" x2="257.5" y2="173.8" stroke="#2eaf5f" stroke-width="3"/><text x="240.5" y="230" text-anchor="middle" font-family="Inter,Segoe UI,Arial,sans-serif" font-size="9" fill="#111827">ax_engine</text><text x="240.5" y="246" text-anchor="middle" font-family="Inter,Segoe UI,Arial,sans-serif" font-size="10" fill="#6b7280">med 181</text><circle cx="232" cy="200.3" r="2" fill="#176c37" fill-opacity="0.9"/><circle cx="235.5" cy="195.6" r="2" fill="#176c37" fill-opacity="0.9"/><circle cx="238.5" cy="162.2" r="2" fill="#176c37" fill-opacity="0.9"/><circle cx="242" cy="200.2" r="2" fill="#176c37" fill-opacity="0.9"/><circle cx="245.5" cy="195.6" r="2" fill="#176c37" fill-opacity="0.9"/><circle cx="249" cy="160.5" r="2" fill="#176c37" fill-opacity="0.9"/><circle cx="234" cy="200.1" r="2" fill="#176c37" fill-opacity="0.9"/><circle cx="244" cy="195.5" r="2" fill="#176c37" fill-opacity="0.9"/><circle cx="232" cy="160.3" r="2" fill="#176c37" fill-opacity="0.9"/><circle cx="235.5" cy="200.1" r="2" fill="#176c37" fill-opacity="0.9"/><circle cx="238.5" cy="195.4" r="2" fill="#176c37" fill-opacity="0.9"/><circle cx="242" cy="161.0" r="2" fill="#176c37" fill-opacity="0.9"/><circle cx="245.5" cy="198.9" r="2" fill="#176c37" fill-opacity="0.9"/><circle cx="249" cy="187.6" r="2" fill="#176c37" fill-opacity="0.9"/><circle cx="234" cy="130.6" r="2" fill="#176c37" fill-opacity="0.9"/><circle cx="244" cy="190.3" r="2" fill="#176c37" fill-opacity="0.9"/><circle cx="232" cy="176.5" r="2" fill="#176c37" fill-opacity="0.9"/><circle cx="235.5" cy="125.0" r="2" fill="#176c37" fill-opacity="0.9"/><circle cx="238.5" cy="173.2" r="2" fill="#176c37" fill-opacity="0.9"/><circle cx="242" cy="92.5" r="2" fill="#176c37" fill-opacity="0.9"/><circle cx="245.5" cy="46.0" r="2" fill="#176c37" fill-opacity="0.9"/><circle cx="249" cy="177.4" r="2" fill="#176c37" fill-opacity="0.9"/><circle cx="234" cy="107.6" r="2" fill="#176c37" fill-opacity="0.9"/><circle cx="244" cy="46.0" r="2" fill="#176c37" fill-opacity="0.9"/><circle cx="232" cy="175.9" r="2" fill="#176c37" fill-opacity="0.9"/><circle cx="235.5" cy="102.1" r="2" fill="#176c37" fill-opacity="0.9"/><circle cx="238.5" cy="46.0" r="2" fill="#176c37" fill-opacity="0.9"/><circle cx="242" cy="174.7" r="2" fill="#176c37" fill-opacity="0.9"/><circle cx="245.5" cy="100.4" r="2" fill="#176c37" fill-opacity="0.9"/><circle cx="249" cy="46.0" r="2" fill="#176c37" fill-opacity="0.9"/><circle cx="234" cy="174.3" r="2" fill="#176c37" fill-opacity="0.9"/><circle cx="244" cy="101.9" r="2" fill="#176c37" fill-opacity="0.9"/><circle cx="232" cy="46.0" r="2" fill="#176c37" fill-opacity="0.9"/><circle cx="235.5" cy="189.3" r="2" fill="#176c37" fill-opacity="0.9"/><circle cx="238.5" cy="176.3" r="2" fill="#176c37" fill-opacity="0.9"/><circle cx="242" cy="89.4" r="2" fill="#176c37" fill-opacity="0.9"/><line x1="321.75" y1="46.0" x2="321.75" y2="200.3" stroke="#137a3d" stroke-width="2"/><line x1="311.75" y1="46.0" x2="331.75" y2="46.0" stroke="#137a3d" stroke-width="2"/><line x1="311.75" y1="200.3" x2="331.75" y2="200.3" stroke="#137a3d" stroke-width="2"/><rect x="304.75" y="102.3" width="34" height="89.2" rx="4" fill="#137a3d" fill-opacity="0.18" stroke="#137a3d" stroke-width="2"/><line x1="304.75" y1="173.8" x2="338.75" y2="173.8" stroke="#137a3d" stroke-width="3"/><text x="321.75" y="230" text-anchor="middle" font-family="Inter,Segoe UI,Arial,sans-serif" font-size="9" fill="#111827">ax_engine + n-gram</text><text x="321.75" y="246" text-anchor="middle" font-family="Inter,Segoe UI,Arial,sans-serif" font-size="10" fill="#6b7280">med 181</text><circle cx="313.25" cy="200.3" r="2" fill="#0b4f28" fill-opacity="0.9"/><circle cx="316.75" cy="195.8" r="2" fill="#0b4f28" fill-opacity="0.9"/><circle cx="319.75" cy="162.4" r="2" fill="#0b4f28" fill-opacity="0.9"/><circle cx="323.25" cy="200.3" r="2" fill="#0b4f28" fill-opacity="0.9"/><circle cx="326.75" cy="195.6" r="2" fill="#0b4f28" fill-opacity="0.9"/><circle cx="330.25" cy="160.8" r="2" fill="#0b4f28" fill-opacity="0.9"/><circle cx="315.25" cy="200.2" r="2" fill="#0b4f28" fill-opacity="0.9"/><circle cx="325.25" cy="195.2" r="2" fill="#0b4f28" fill-opacity="0.9"/><circle cx="313.25" cy="160.2" r="2" fill="#0b4f28" fill-opacity="0.9"/><circle cx="316.75" cy="200.1" r="2" fill="#0b4f28" fill-opacity="0.9"/><circle cx="319.75" cy="195.3" r="2" fill="#0b4f28" fill-opacity="0.9"/><circle cx="323.25" cy="160.9" r="2" fill="#0b4f28" fill-opacity="0.9"/><circle cx="326.75" cy="198.9" r="2" fill="#0b4f28" fill-opacity="0.9"/><circle cx="330.25" cy="187.6" r="2" fill="#0b4f28" fill-opacity="0.9"/><circle cx="315.25" cy="130.7" r="2" fill="#0b4f28" fill-opacity="0.9"/><circle cx="325.25" cy="190.3" r="2" fill="#0b4f28" fill-opacity="0.9"/><circle cx="313.25" cy="176.7" r="2" fill="#0b4f28" fill-opacity="0.9"/><circle cx="316.75" cy="125.0" r="2" fill="#0b4f28" fill-opacity="0.9"/><circle cx="319.75" cy="173.1" r="2" fill="#0b4f28" fill-opacity="0.9"/><circle cx="323.25" cy="92.3" r="2" fill="#0b4f28" fill-opacity="0.9"/><circle cx="326.75" cy="46.0" r="2" fill="#0b4f28" fill-opacity="0.9"/><circle cx="330.25" cy="177.4" r="2" fill="#0b4f28" fill-opacity="0.9"/><circle cx="315.25" cy="107.8" r="2" fill="#0b4f28" fill-opacity="0.9"/><circle cx="325.25" cy="46.0" r="2" fill="#0b4f28" fill-opacity="0.9"/><circle cx="313.25" cy="175.8" r="2" fill="#0b4f28" fill-opacity="0.9"/><circle cx="316.75" cy="102.4" r="2" fill="#0b4f28" fill-opacity="0.9"/><circle cx="319.75" cy="46.0" r="2" fill="#0b4f28" fill-opacity="0.9"/><circle cx="323.25" cy="174.8" r="2" fill="#0b4f28" fill-opacity="0.9"/><circle cx="326.75" cy="100.4" r="2" fill="#0b4f28" fill-opacity="0.9"/><circle cx="330.25" cy="46.0" r="2" fill="#0b4f28" fill-opacity="0.9"/><circle cx="315.25" cy="174.5" r="2" fill="#0b4f28" fill-opacity="0.9"/><circle cx="325.25" cy="102.1" r="2" fill="#0b4f28" fill-opacity="0.9"/><circle cx="313.25" cy="46.0" r="2" fill="#0b4f28" fill-opacity="0.9"/><circle cx="316.75" cy="189.2" r="2" fill="#0b4f28" fill-opacity="0.9"/><circle cx="319.75" cy="176.3" r="2" fill="#0b4f28" fill-opacity="0.9"/><circle cx="323.25" cy="89.3" r="2" fill="#0b4f28" fill-opacity="0.9"/></svg>
