<svg xmlns="http://www.w3.org/2000/svg" width="760" height="460" viewBox="0 0 760 460" role="img" aria-labelledby="title desc">
<title>Gemma 4 26B A4B 4-bit — Prefill throughput</title>
<desc>Grouped box-and-whisker plot comparing AX assistant MTP, AX assistant MTP+n-gram across flappy, long_code, python_modules_long prompt suites.</desc>
<rect width="100%" height="100%" fill="#f8fafc"/>
<text x="24" y="24" font-family="Inter,Segoe UI,Arial,sans-serif" font-size="16" font-weight="700" fill="#111827">Gemma 4 26B A4B 4-bit — Prefill throughput</text>
<text x="24" y="46" font-family="Inter,Segoe UI,Arial,sans-serif" font-size="11" fill="#4b5563">All suites | box=IQR | whiskers=min/max | dots=runs</text>
<text x="24" y="62" font-family="Inter,Segoe UI,Arial,sans-serif" font-size="10" fill="#6b7280">Apple M5 Max · AX Engine v5.2.4 · gate 0.999 · T=0.6/top_p=0.95/top_k=20</text>
<rect x="667" y="13" width="59" height="22" rx="11" fill="#eef2ff" stroke="#c7d2fe"/>
<text x="696.5" y="28" text-anchor="middle" font-family="Inter,Segoe UI,Arial,sans-serif" font-size="10" font-weight="700" fill="#3730a3">tok/s</text>
<text x="726" y="52" text-anchor="end" font-family="Inter,Segoe UI,Arial,sans-serif" font-size="10" font-weight="700" fill="#374151">Higher is better</text>
<rect x="64" y="86" width="496" height="268" rx="6" fill="#ffffff" stroke="#dbe3ef"/>
<line x1="64" y1="354.0" x2="560" y2="354.0" stroke="#e5e7eb" stroke-width="1"/>
<text x="56" y="357.0" text-anchor="end" font-family="Inter,Segoe UI,Arial,sans-serif" font-size="11" fill="#6b7280">0.0</text>
<line x1="64" y1="287.0" x2="560" y2="287.0" stroke="#e5e7eb" stroke-width="1"/>
<text x="56" y="290.0" text-anchor="end" font-family="Inter,Segoe UI,Arial,sans-serif" font-size="11" fill="#6b7280">1.25k</text>
<line x1="64" y1="220.0" x2="560" y2="220.0" stroke="#e5e7eb" stroke-width="1"/>
<text x="56" y="223.0" text-anchor="end" font-family="Inter,Segoe UI,Arial,sans-serif" font-size="11" fill="#6b7280">2.5k</text>
<line x1="64" y1="153.0" x2="560" y2="153.0" stroke="#e5e7eb" stroke-width="1"/>
<text x="56" y="156.0" text-anchor="end" font-family="Inter,Segoe UI,Arial,sans-serif" font-size="11" fill="#6b7280">3.75k</text>
<line x1="64" y1="86.0" x2="560" y2="86.0" stroke="#e5e7eb" stroke-width="1"/>
<text x="56" y="89.0" text-anchor="end" font-family="Inter,Segoe UI,Arial,sans-serif" font-size="11" fill="#6b7280">5k</text>
<line x1="64" y1="140.2" x2="560" y2="140.2" stroke="#dc2626" stroke-width="1.2" stroke-dasharray="1 4" stroke-linecap="round"/>
<text x="568" y="135.2" text-anchor="start" font-family="Inter,Segoe UI,Arial,sans-serif" font-size="11" font-weight="700" fill="#dc2626" data-label="highest median">highest: 4.0k</text>
<text x="146.7" y="398" text-anchor="middle" font-family="Inter,Segoe UI,Arial,sans-serif" font-size="11" font-weight="700" fill="#111827">flappy</text>
<circle cx="95.8" cy="212.6" r="1.45" fill="#2eaf5f" fill-opacity="0.46"/>
<circle cx="98.8" cy="212.3" r="1.45" fill="#2eaf5f" fill-opacity="0.46"/>
<circle cx="101.9" cy="210.9" r="1.45" fill="#2eaf5f" fill-opacity="0.46"/>
<circle cx="104.9" cy="216.1" r="1.45" fill="#2eaf5f" fill-opacity="0.46"/>
<circle cx="108.0" cy="213.3" r="1.45" fill="#2eaf5f" fill-opacity="0.46"/>
<circle cx="111.1" cy="205.5" r="1.45" fill="#2eaf5f" fill-opacity="0.46"/>
<circle cx="114.1" cy="205.4" r="1.45" fill="#2eaf5f" fill-opacity="0.46"/>
<circle cx="117.2" cy="206.9" r="1.45" fill="#2eaf5f" fill-opacity="0.46"/>
<circle cx="120.2" cy="205.8" r="1.45" fill="#2eaf5f" fill-opacity="0.46"/>
<circle cx="95.8" cy="206.3" r="1.45" fill="#2eaf5f" fill-opacity="0.46"/>
<circle cx="98.8" cy="184.7" r="1.45" fill="#2eaf5f" fill-opacity="0.46"/>
<circle cx="101.9" cy="184.5" r="1.45" fill="#2eaf5f" fill-opacity="0.46"/>
<circle cx="104.9" cy="185.5" r="1.45" fill="#2eaf5f" fill-opacity="0.46"/>
<circle cx="108.0" cy="187.3" r="1.45" fill="#2eaf5f" fill-opacity="0.46"/>
<circle cx="111.1" cy="187.3" r="1.45" fill="#2eaf5f" fill-opacity="0.46"/>
<circle cx="114.1" cy="211.6" r="1.45" fill="#2eaf5f" fill-opacity="0.46"/>
<circle cx="117.2" cy="210.4" r="1.45" fill="#2eaf5f" fill-opacity="0.46"/>
<circle cx="120.2" cy="212.0" r="1.45" fill="#2eaf5f" fill-opacity="0.46"/>
<circle cx="95.8" cy="212.3" r="1.45" fill="#2eaf5f" fill-opacity="0.46"/>
<circle cx="98.8" cy="211.2" r="1.45" fill="#2eaf5f" fill-opacity="0.46"/>
<line x1="108.0" y1="184.5" x2="108.0" y2="216.1" stroke="#2eaf5f" stroke-opacity="0.86" stroke-width="1.8"/>
<line x1="95.8" y1="184.5" x2="120.2" y2="184.5" stroke="#2eaf5f" stroke-opacity="0.86" stroke-width="1.8"/>
<line x1="95.8" y1="216.1" x2="120.2" y2="216.1" stroke="#2eaf5f" stroke-opacity="0.86" stroke-width="1.8"/>
<rect x="91.0" y="200.9" width="34.0" height="11.2" rx="2" fill="#2eaf5f" fill-opacity="0.18" stroke="#2eaf5f" stroke-opacity="0.9" stroke-width="1.8"/>
<line x1="91.0" y1="208.7" x2="125.0" y2="208.7" stroke="#2eaf5f" stroke-opacity="0.96" stroke-width="2.6"/>
<text x="131.0" y="212.7" text-anchor="start" font-family="Inter,Segoe UI,Arial,sans-serif" font-size="11" font-weight="700" fill="#111827" stroke="#ffffff" stroke-width="3" paint-order="stroke">2.7k</text>
<circle cx="173.1" cy="213.8" r="1.45" fill="#137a3d" fill-opacity="0.46"/>
<circle cx="176.2" cy="213.1" r="1.45" fill="#137a3d" fill-opacity="0.46"/>
<circle cx="179.2" cy="212.2" r="1.45" fill="#137a3d" fill-opacity="0.46"/>
<circle cx="182.3" cy="212.2" r="1.45" fill="#137a3d" fill-opacity="0.46"/>
<circle cx="185.3" cy="215.0" r="1.45" fill="#137a3d" fill-opacity="0.46"/>
<circle cx="188.4" cy="207.6" r="1.45" fill="#137a3d" fill-opacity="0.46"/>
<circle cx="191.5" cy="203.8" r="1.45" fill="#137a3d" fill-opacity="0.46"/>
<circle cx="194.5" cy="205.0" r="1.45" fill="#137a3d" fill-opacity="0.46"/>
<circle cx="197.6" cy="205.8" r="1.45" fill="#137a3d" fill-opacity="0.46"/>
<circle cx="173.1" cy="202.9" r="1.45" fill="#137a3d" fill-opacity="0.46"/>
<circle cx="176.2" cy="184.6" r="1.45" fill="#137a3d" fill-opacity="0.46"/>
<circle cx="179.2" cy="181.9" r="1.45" fill="#137a3d" fill-opacity="0.46"/>
<circle cx="182.3" cy="183.7" r="1.45" fill="#137a3d" fill-opacity="0.46"/>
<circle cx="185.3" cy="184.4" r="1.45" fill="#137a3d" fill-opacity="0.46"/>
<circle cx="188.4" cy="182.6" r="1.45" fill="#137a3d" fill-opacity="0.46"/>
<circle cx="191.5" cy="210.2" r="1.45" fill="#137a3d" fill-opacity="0.46"/>
<circle cx="194.5" cy="209.3" r="1.45" fill="#137a3d" fill-opacity="0.46"/>
<circle cx="197.6" cy="212.7" r="1.45" fill="#137a3d" fill-opacity="0.46"/>
<circle cx="173.1" cy="209.4" r="1.45" fill="#137a3d" fill-opacity="0.46"/>
<circle cx="176.2" cy="208.7" r="1.45" fill="#137a3d" fill-opacity="0.46"/>
<line x1="185.3" y1="181.9" x2="185.3" y2="215.0" stroke="#137a3d" stroke-opacity="0.86" stroke-width="1.8"/>
<line x1="173.1" y1="181.9" x2="197.6" y2="181.9" stroke="#137a3d" stroke-opacity="0.86" stroke-width="1.8"/>
<line x1="173.1" y1="215.0" x2="197.6" y2="215.0" stroke="#137a3d" stroke-opacity="0.86" stroke-width="1.8"/>
<rect x="168.3" y="198.3" width="34.0" height="13.9" rx="2" fill="#137a3d" fill-opacity="0.18" stroke="#137a3d" stroke-opacity="0.9" stroke-width="1.8"/>
<line x1="168.3" y1="208.1" x2="202.3" y2="208.1" stroke="#137a3d" stroke-opacity="0.96" stroke-width="2.6"/>
<text x="208.3" y="212.1" text-anchor="start" font-family="Inter,Segoe UI,Arial,sans-serif" font-size="11" font-weight="700" fill="#111827" stroke="#ffffff" stroke-width="3" paint-order="stroke">2.7k</text>
<text x="312.0" y="398" text-anchor="middle" font-family="Inter,Segoe UI,Arial,sans-serif" font-size="11" font-weight="700" fill="#111827">long_code</text>
<circle cx="261.1" cy="147.0" r="1.45" fill="#2eaf5f" fill-opacity="0.46"/>
<circle cx="264.2" cy="146.9" r="1.45" fill="#2eaf5f" fill-opacity="0.46"/>
<circle cx="267.2" cy="147.0" r="1.45" fill="#2eaf5f" fill-opacity="0.46"/>
<circle cx="270.3" cy="148.4" r="1.45" fill="#2eaf5f" fill-opacity="0.46"/>
<circle cx="273.3" cy="147.8" r="1.45" fill="#2eaf5f" fill-opacity="0.46"/>
<circle cx="276.4" cy="133.2" r="1.45" fill="#2eaf5f" fill-opacity="0.46"/>
<circle cx="279.5" cy="131.4" r="1.45" fill="#2eaf5f" fill-opacity="0.46"/>
<circle cx="282.5" cy="133.5" r="1.45" fill="#2eaf5f" fill-opacity="0.46"/>
<circle cx="285.6" cy="132.0" r="1.45" fill="#2eaf5f" fill-opacity="0.46"/>
<circle cx="261.1" cy="134.7" r="1.45" fill="#2eaf5f" fill-opacity="0.46"/>
<circle cx="264.2" cy="126.0" r="1.45" fill="#2eaf5f" fill-opacity="0.46"/>
<circle cx="267.2" cy="127.1" r="1.45" fill="#2eaf5f" fill-opacity="0.46"/>
<circle cx="270.3" cy="132.1" r="1.45" fill="#2eaf5f" fill-opacity="0.46"/>
<circle cx="273.3" cy="129.3" r="1.45" fill="#2eaf5f" fill-opacity="0.46"/>
<circle cx="276.4" cy="127.6" r="1.45" fill="#2eaf5f" fill-opacity="0.46"/>
<circle cx="279.5" cy="180.7" r="1.45" fill="#2eaf5f" fill-opacity="0.46"/>
<circle cx="282.5" cy="181.0" r="1.45" fill="#2eaf5f" fill-opacity="0.46"/>
<circle cx="285.6" cy="182.6" r="1.45" fill="#2eaf5f" fill-opacity="0.46"/>
<circle cx="261.1" cy="183.9" r="1.45" fill="#2eaf5f" fill-opacity="0.46"/>
<circle cx="264.2" cy="182.3" r="1.45" fill="#2eaf5f" fill-opacity="0.46"/>
<line x1="273.3" y1="126.0" x2="273.3" y2="183.9" stroke="#2eaf5f" stroke-opacity="0.86" stroke-width="1.8"/>
<line x1="261.1" y1="126.0" x2="285.6" y2="126.0" stroke="#2eaf5f" stroke-opacity="0.86" stroke-width="1.8"/>
<line x1="261.1" y1="183.9" x2="285.6" y2="183.9" stroke="#2eaf5f" stroke-opacity="0.86" stroke-width="1.8"/>
<rect x="256.3" y="131.9" width="34.0" height="24.6" rx="2" fill="#2eaf5f" fill-opacity="0.18" stroke="#2eaf5f" stroke-opacity="0.9" stroke-width="1.8"/>
<line x1="256.3" y1="140.8" x2="290.3" y2="140.8" stroke="#2eaf5f" stroke-opacity="0.96" stroke-width="2.6"/>
<text x="296.3" y="144.8" text-anchor="start" font-family="Inter,Segoe UI,Arial,sans-serif" font-size="11" font-weight="700" fill="#111827" stroke="#ffffff" stroke-width="3" paint-order="stroke">4.0k</text>
<circle cx="338.4" cy="149.4" r="1.45" fill="#137a3d" fill-opacity="0.46"/>
<circle cx="341.5" cy="148.0" r="1.45" fill="#137a3d" fill-opacity="0.46"/>
<circle cx="344.5" cy="145.1" r="1.45" fill="#137a3d" fill-opacity="0.46"/>
<circle cx="347.6" cy="147.7" r="1.45" fill="#137a3d" fill-opacity="0.46"/>
<circle cx="350.7" cy="148.0" r="1.45" fill="#137a3d" fill-opacity="0.46"/>
<circle cx="353.7" cy="135.4" r="1.45" fill="#137a3d" fill-opacity="0.46"/>
<circle cx="356.8" cy="131.7" r="1.45" fill="#137a3d" fill-opacity="0.46"/>
<circle cx="359.8" cy="134.1" r="1.45" fill="#137a3d" fill-opacity="0.46"/>
<circle cx="362.9" cy="131.4" r="1.45" fill="#137a3d" fill-opacity="0.46"/>
<circle cx="338.4" cy="133.7" r="1.45" fill="#137a3d" fill-opacity="0.46"/>
<circle cx="341.5" cy="130.9" r="1.45" fill="#137a3d" fill-opacity="0.46"/>
<circle cx="344.5" cy="128.6" r="1.45" fill="#137a3d" fill-opacity="0.46"/>
<circle cx="347.6" cy="131.3" r="1.45" fill="#137a3d" fill-opacity="0.46"/>
<circle cx="350.7" cy="130.7" r="1.45" fill="#137a3d" fill-opacity="0.46"/>
<circle cx="353.7" cy="129.2" r="1.45" fill="#137a3d" fill-opacity="0.46"/>
<circle cx="356.8" cy="182.5" r="1.45" fill="#137a3d" fill-opacity="0.46"/>
<circle cx="359.8" cy="182.9" r="1.45" fill="#137a3d" fill-opacity="0.46"/>
<circle cx="362.9" cy="183.3" r="1.45" fill="#137a3d" fill-opacity="0.46"/>
<circle cx="338.4" cy="183.3" r="1.45" fill="#137a3d" fill-opacity="0.46"/>
<circle cx="341.5" cy="183.3" r="1.45" fill="#137a3d" fill-opacity="0.46"/>
<line x1="350.7" y1="128.6" x2="350.7" y2="183.3" stroke="#137a3d" stroke-opacity="0.86" stroke-width="1.8"/>
<line x1="338.4" y1="128.6" x2="362.9" y2="128.6" stroke="#137a3d" stroke-opacity="0.86" stroke-width="1.8"/>
<line x1="338.4" y1="183.3" x2="362.9" y2="183.3" stroke="#137a3d" stroke-opacity="0.86" stroke-width="1.8"/>
<rect x="333.7" y="131.4" width="34.0" height="26.3" rx="2" fill="#137a3d" fill-opacity="0.18" stroke="#137a3d" stroke-opacity="0.9" stroke-width="1.8"/>
<line x1="333.7" y1="140.2" x2="367.7" y2="140.2" stroke="#137a3d" stroke-opacity="0.96" stroke-width="2.6"/>
<text x="373.7" y="144.2" text-anchor="start" font-family="Inter,Segoe UI,Arial,sans-serif" font-size="11" font-weight="700" fill="#111827" stroke="#ffffff" stroke-width="3" paint-order="stroke">4.0k</text>
<text x="477.3" y="398" text-anchor="middle" font-family="Inter,Segoe UI,Arial,sans-serif" font-size="11" font-weight="700" fill="#111827">python_modules_long</text>
<circle cx="426.4" cy="210.8" r="1.45" fill="#2eaf5f" fill-opacity="0.46"/>
<circle cx="429.5" cy="213.0" r="1.45" fill="#2eaf5f" fill-opacity="0.46"/>
<circle cx="432.5" cy="212.4" r="1.45" fill="#2eaf5f" fill-opacity="0.46"/>
<circle cx="435.6" cy="209.4" r="1.45" fill="#2eaf5f" fill-opacity="0.46"/>
<circle cx="438.7" cy="210.9" r="1.45" fill="#2eaf5f" fill-opacity="0.46"/>
<circle cx="441.7" cy="197.8" r="1.45" fill="#2eaf5f" fill-opacity="0.46"/>
<circle cx="444.8" cy="197.2" r="1.45" fill="#2eaf5f" fill-opacity="0.46"/>
<circle cx="447.8" cy="198.7" r="1.45" fill="#2eaf5f" fill-opacity="0.46"/>
<circle cx="450.9" cy="198.9" r="1.45" fill="#2eaf5f" fill-opacity="0.46"/>
<circle cx="426.4" cy="198.1" r="1.45" fill="#2eaf5f" fill-opacity="0.46"/>
<circle cx="429.5" cy="196.4" r="1.45" fill="#2eaf5f" fill-opacity="0.46"/>
<circle cx="432.5" cy="194.9" r="1.45" fill="#2eaf5f" fill-opacity="0.46"/>
<circle cx="435.6" cy="194.7" r="1.45" fill="#2eaf5f" fill-opacity="0.46"/>
<circle cx="438.7" cy="194.3" r="1.45" fill="#2eaf5f" fill-opacity="0.46"/>
<circle cx="441.7" cy="194.1" r="1.45" fill="#2eaf5f" fill-opacity="0.46"/>
<line x1="438.7" y1="194.1" x2="438.7" y2="213.0" stroke="#2eaf5f" stroke-opacity="0.86" stroke-width="1.8"/>
<line x1="426.4" y1="194.1" x2="450.9" y2="194.1" stroke="#2eaf5f" stroke-opacity="0.86" stroke-width="1.8"/>
<line x1="426.4" y1="213.0" x2="450.9" y2="213.0" stroke="#2eaf5f" stroke-opacity="0.86" stroke-width="1.8"/>
<rect x="421.7" y="195.6" width="34.0" height="14.4" rx="2" fill="#2eaf5f" fill-opacity="0.18" stroke="#2eaf5f" stroke-opacity="0.9" stroke-width="1.8"/>
<line x1="421.7" y1="198.1" x2="455.7" y2="198.1" stroke="#2eaf5f" stroke-opacity="0.96" stroke-width="2.6"/>
<text x="461.7" y="202.1" text-anchor="start" font-family="Inter,Segoe UI,Arial,sans-serif" font-size="11" font-weight="700" fill="#111827" stroke="#ffffff" stroke-width="3" paint-order="stroke">2.9k</text>
<circle cx="503.8" cy="209.1" r="1.45" fill="#137a3d" fill-opacity="0.46"/>
<circle cx="506.8" cy="208.3" r="1.45" fill="#137a3d" fill-opacity="0.46"/>
<circle cx="509.9" cy="209.5" r="1.45" fill="#137a3d" fill-opacity="0.46"/>
<circle cx="512.9" cy="208.7" r="1.45" fill="#137a3d" fill-opacity="0.46"/>
<circle cx="516.0" cy="208.6" r="1.45" fill="#137a3d" fill-opacity="0.46"/>
<circle cx="519.1" cy="196.9" r="1.45" fill="#137a3d" fill-opacity="0.46"/>
<circle cx="522.1" cy="201.3" r="1.45" fill="#137a3d" fill-opacity="0.46"/>
<circle cx="525.2" cy="196.2" r="1.45" fill="#137a3d" fill-opacity="0.46"/>
<circle cx="528.2" cy="197.9" r="1.45" fill="#137a3d" fill-opacity="0.46"/>
<circle cx="503.8" cy="200.3" r="1.45" fill="#137a3d" fill-opacity="0.46"/>
<circle cx="506.8" cy="194.6" r="1.45" fill="#137a3d" fill-opacity="0.46"/>
<circle cx="509.9" cy="194.8" r="1.45" fill="#137a3d" fill-opacity="0.46"/>
<circle cx="512.9" cy="197.1" r="1.45" fill="#137a3d" fill-opacity="0.46"/>
<circle cx="516.0" cy="194.7" r="1.45" fill="#137a3d" fill-opacity="0.46"/>
<circle cx="519.1" cy="195.3" r="1.45" fill="#137a3d" fill-opacity="0.46"/>
<line x1="516.0" y1="194.6" x2="516.0" y2="209.5" stroke="#137a3d" stroke-opacity="0.86" stroke-width="1.8"/>
<line x1="503.8" y1="194.6" x2="528.2" y2="194.6" stroke="#137a3d" stroke-opacity="0.86" stroke-width="1.8"/>
<line x1="503.8" y1="209.5" x2="528.2" y2="209.5" stroke="#137a3d" stroke-opacity="0.86" stroke-width="1.8"/>
<rect x="499.0" y="195.8" width="34.0" height="12.7" rx="2" fill="#137a3d" fill-opacity="0.18" stroke="#137a3d" stroke-opacity="0.9" stroke-width="1.8"/>
<line x1="499.0" y1="197.9" x2="533.0" y2="197.9" stroke="#137a3d" stroke-opacity="0.96" stroke-width="2.6"/>
<text x="539.0" y="201.9" text-anchor="start" font-family="Inter,Segoe UI,Arial,sans-serif" font-size="11" font-weight="700" fill="#111827" stroke="#ffffff" stroke-width="3" paint-order="stroke">2.9k</text>
<rect x="64.0" y="433" width="10" height="10" rx="2" fill="#2eaf5f" fill-opacity="0.72"/>
<text x="78.0" y="442" font-family="Inter,Segoe UI,Arial,sans-serif" font-size="10" fill="#374151">AX assistant MTP</text>
<rect x="312.0" y="433" width="10" height="10" rx="2" fill="#137a3d" fill-opacity="0.72"/>
<text x="326.0" y="442" font-family="Inter,Segoe UI,Arial,sans-serif" font-size="10" fill="#374151">AX assistant MTP+n-gram</text>
</svg>
