<svg xmlns="http://www.w3.org/2000/svg" width="540" height="278" viewBox="0 0 540 278" role="img" aria-labelledby="title desc"><title>Gemma 4 — Prefill rate</title><desc>Grouped box-and-whisker plot comparing llama.cpp, mlx_lm, ax_engine at 128/512/2048 prompt tokens for Gemma 4 models. A red dotted line marks the highest median.</desc><rect width="540" height="278" fill="#ffffff"/><text x="52" y="22" font-family="Inter,Segoe UI,Arial,sans-serif" font-size="16" font-weight="700" fill="#111827">Gemma 4 — Prefill rate</text><text x="524" y="22" text-anchor="end" font-family="Inter,Segoe UI,Arial,sans-serif" font-size="10" fill="#6b7280">tok/s</text><text x="524" y="40" text-anchor="end" font-family="Inter,Segoe UI,Arial,sans-serif" font-size="10" font-weight="700" fill="#374151">Higher is better</text><line x1="52" y1="214.0" x2="524" y2="214.0" stroke="#e5e7eb" stroke-width="1"/><text x="44" y="217.0" text-anchor="end" font-family="Inter,Segoe UI,Arial,sans-serif" font-size="10" fill="#6b7280">0</text><line x1="52" y1="130.0" x2="524" y2="130.0" stroke="#e5e7eb" stroke-width="1"/><text x="44" y="133.0" text-anchor="end" font-family="Inter,Segoe UI,Arial,sans-serif" font-size="10" fill="#6b7280">12.5k</text><line x1="52" y1="46.0" x2="524" y2="46.0" stroke="#e5e7eb" stroke-width="1"/><text x="44" y="49.0" text-anchor="end" font-family="Inter,Segoe UI,Arial,sans-serif" font-size="10" fill="#6b7280">25k</text><line x1="52" y1="60.7" x2="524" y2="60.7" stroke="#dc2626" stroke-width="1.2" stroke-dasharray="1 4" stroke-linecap="round"/><line x1="100.667" y1="188.5" x2="100.667" y2="210.5" stroke="#f97316" stroke-opacity="0.55" stroke-width="1.7"/><line x1="94.9067" y1="188.5" x2="106.427" y2="188.5" stroke="#f97316" stroke-opacity="0.55" stroke-width="1.7"/><line x1="94.9067" y1="210.5" x2="106.427" y2="210.5" stroke="#f97316" stroke-opacity="0.55" stroke-width="1.7"/><rect x="92.6667" y="189.1" width="16" height="10.5" rx="2" fill="#f97316" fill-opacity="0.08" stroke="#f97316" stroke-opacity="0.55" stroke-width="1.7"/><line x1="92.6667" y1="191.2" x2="108.667" y2="191.2" stroke="#f97316" stroke-opacity="0.55" stroke-width="2.4"/><text x="100.667" y="229" text-anchor="middle" font-family="Inter,Segoe UI,Arial,sans-serif" font-size="8" fill="#6b7280">128</text><circle cx="97.6667" cy="188.5" r="1.4" fill="#c2410c" fill-opacity="0.5"/><circle cx="99.1667" cy="191.2" r="1.4" fill="#c2410c" fill-opacity="0.5"/><circle cx="100.667" cy="189.2" r="1.4" fill="#c2410c" fill-opacity="0.5"/><circle cx="102.167" cy="189.1" r="1.4" fill="#c2410c" fill-opacity="0.5"/><circle cx="103.667" cy="198.4" r="1.4" fill="#c2410c" fill-opacity="0.5"/><circle cx="97.6667" cy="200.9" r="1.4" fill="#c2410c" fill-opacity="0.5"/><circle cx="99.1667" cy="210.5" r="1.4" fill="#c2410c" fill-opacity="0.5"/><line x1="130.667" y1="163.5" x2="130.667" y2="209.5" stroke="#f97316" stroke-opacity="0.78" stroke-width="1.7"/><line x1="124.907" y1="163.5" x2="136.427" y2="163.5" stroke="#f97316" stroke-opacity="0.78" stroke-width="1.7"/><line x1="124.907" y1="209.5" x2="136.427" y2="209.5" stroke="#f97316" stroke-opacity="0.78" stroke-width="1.7"/><rect x="122.667" y="165.0" width="16" height="22.4" rx="2" fill="#f97316" fill-opacity="0.17" stroke="#f97316" stroke-opacity="0.78" stroke-width="1.7"/><line x1="122.667" y1="166.5" x2="138.667" y2="166.5" stroke="#f97316" stroke-opacity="0.78" stroke-width="2.4"/><text x="130.667" y="229" text-anchor="middle" font-family="Inter,Segoe UI,Arial,sans-serif" font-size="8" fill="#6b7280">512</text><circle cx="127.667" cy="165.1" r="1.4" fill="#c2410c" fill-opacity="0.7"/><circle cx="129.167" cy="166.5" r="1.4" fill="#c2410c" fill-opacity="0.7"/><circle cx="130.667" cy="164.8" r="1.4" fill="#c2410c" fill-opacity="0.7"/><circle cx="132.167" cy="163.5" r="1.4" fill="#c2410c" fill-opacity="0.7"/><circle cx="133.667" cy="184.2" r="1.4" fill="#c2410c" fill-opacity="0.7"/><circle cx="127.667" cy="190.6" r="1.4" fill="#c2410c" fill-opacity="0.7"/><circle cx="129.167" cy="209.5" r="1.4" fill="#c2410c" fill-opacity="0.7"/><line x1="160.667" y1="160.0" x2="160.667" y2="210.5" stroke="#f97316" stroke-opacity="1.0" stroke-width="1.7"/><line x1="154.907" y1="160.0" x2="166.427" y2="160.0" stroke="#f97316" stroke-opacity="1.0" stroke-width="1.7"/><line x1="154.907" y1="210.5" x2="166.427" y2="210.5" stroke="#f97316" stroke-opacity="1.0" stroke-width="1.7"/><rect x="152.667" y="162.5" width="16" height="24.5" rx="2" fill="#f97316" fill-opacity="0.3" stroke="#f97316" stroke-opacity="1.0" stroke-width="1.7"/><line x1="152.667" y1="163.7" x2="168.667" y2="163.7" stroke="#f97316" stroke-opacity="1.0" stroke-width="2.4"/><text x="160.667" y="229" text-anchor="middle" font-family="Inter,Segoe UI,Arial,sans-serif" font-size="8" fill="#6b7280">2048</text><circle cx="157.667" cy="162.6" r="1.4" fill="#c2410c" fill-opacity="0.9"/><circle cx="159.167" cy="163.7" r="1.4" fill="#c2410c" fill-opacity="0.9"/><circle cx="160.667" cy="162.5" r="1.4" fill="#c2410c" fill-opacity="0.9"/><circle cx="162.167" cy="160.0" r="1.4" fill="#c2410c" fill-opacity="0.9"/><circle cx="163.667" cy="184.3" r="1.4" fill="#c2410c" fill-opacity="0.9"/><circle cx="157.667" cy="189.8" r="1.4" fill="#c2410c" fill-opacity="0.9"/><circle cx="159.167" cy="210.5" r="1.4" fill="#c2410c" fill-opacity="0.9"/><text x="130.667" y="246" text-anchor="middle" font-family="Inter,Segoe UI,Arial,sans-serif" font-size="9" font-weight="700" fill="#111827">llama.cpp</text><line x1="258" y1="198.3" x2="258" y2="212.1" stroke="#f2b705" stroke-opacity="0.55" stroke-width="1.7"/><line x1="252.24" y1="198.3" x2="263.76" y2="198.3" stroke="#f2b705" stroke-opacity="0.55" stroke-width="1.7"/><line x1="252.24" y1="212.1" x2="263.76" y2="212.1" stroke="#f2b705" stroke-opacity="0.55" stroke-width="1.7"/><rect x="250" y="200.4" width="16" height="6.9" rx="2" fill="#f2b705" fill-opacity="0.08" stroke="#f2b705" stroke-opacity="0.55" stroke-width="1.7"/><line x1="250" y1="203.2" x2="266" y2="203.2" stroke="#f2b705" stroke-opacity="0.55" stroke-width="2.4"/><text x="258" y="229" text-anchor="middle" font-family="Inter,Segoe UI,Arial,sans-serif" font-size="8" fill="#6b7280">128</text><circle cx="255" cy="198.3" r="1.4" fill="#9a6a00" fill-opacity="0.5"/><circle cx="256.5" cy="199.0" r="1.4" fill="#9a6a00" fill-opacity="0.5"/><circle cx="258" cy="201.7" r="1.4" fill="#9a6a00" fill-opacity="0.5"/><circle cx="259.5" cy="203.2" r="1.4" fill="#9a6a00" fill-opacity="0.5"/><circle cx="261" cy="203.8" r="1.4" fill="#9a6a00" fill-opacity="0.5"/><circle cx="255" cy="210.7" r="1.4" fill="#9a6a00" fill-opacity="0.5"/><circle cx="256.5" cy="212.1" r="1.4" fill="#9a6a00" fill-opacity="0.5"/><line x1="288" y1="161.1" x2="288" y2="209.8" stroke="#f2b705" stroke-opacity="0.78" stroke-width="1.7"/><line x1="282.24" y1="161.1" x2="293.76" y2="161.1" stroke="#f2b705" stroke-opacity="0.78" stroke-width="1.7"/><line x1="282.24" y1="209.8" x2="293.76" y2="209.8" stroke="#f2b705" stroke-opacity="0.78" stroke-width="1.7"/><rect x="280" y="167.6" width="16" height="26.8" rx="2" fill="#f2b705" fill-opacity="0.17" stroke="#f2b705" stroke-opacity="0.78" stroke-width="1.7"/><line x1="280" y1="173.4" x2="296" y2="173.4" stroke="#f2b705" stroke-opacity="0.78" stroke-width="2.4"/><text x="288" y="229" text-anchor="middle" font-family="Inter,Segoe UI,Arial,sans-serif" font-size="8" fill="#6b7280">512</text><circle cx="285" cy="161.1" r="1.4" fill="#9a6a00" fill-opacity="0.7"/><circle cx="286.5" cy="163.8" r="1.4" fill="#9a6a00" fill-opacity="0.7"/><circle cx="288" cy="173.4" r="1.4" fill="#9a6a00" fill-opacity="0.7"/><circle cx="289.5" cy="171.4" r="1.4" fill="#9a6a00" fill-opacity="0.7"/><circle cx="291" cy="185.8" r="1.4" fill="#9a6a00" fill-opacity="0.7"/><circle cx="285" cy="203.1" r="1.4" fill="#9a6a00" fill-opacity="0.7"/><circle cx="286.5" cy="209.8" r="1.4" fill="#9a6a00" fill-opacity="0.7"/><line x1="318" y1="92.9" x2="318" y2="209.1" stroke="#f2b705" stroke-opacity="1.0" stroke-width="1.7"/><line x1="312.24" y1="92.9" x2="323.76" y2="92.9" stroke="#f2b705" stroke-opacity="1.0" stroke-width="1.7"/><line x1="312.24" y1="209.1" x2="323.76" y2="209.1" stroke="#f2b705" stroke-opacity="1.0" stroke-width="1.7"/><rect x="310" y="105.8" width="16" height="72.5" rx="2" fill="#f2b705" fill-opacity="0.3" stroke="#f2b705" stroke-opacity="1.0" stroke-width="1.7"/><line x1="310" y1="111.0" x2="326" y2="111.0" stroke="#f2b705" stroke-opacity="1.0" stroke-width="2.4"/><text x="318" y="229" text-anchor="middle" font-family="Inter,Segoe UI,Arial,sans-serif" font-size="8" fill="#6b7280">2048</text><circle cx="315" cy="92.9" r="1.4" fill="#9a6a00" fill-opacity="0.9"/><circle cx="316.5" cy="102.0" r="1.4" fill="#9a6a00" fill-opacity="0.9"/><circle cx="318" cy="111.0" r="1.4" fill="#9a6a00" fill-opacity="0.9"/><circle cx="319.5" cy="109.6" r="1.4" fill="#9a6a00" fill-opacity="0.9"/><circle cx="321" cy="164.8" r="1.4" fill="#9a6a00" fill-opacity="0.9"/><circle cx="315" cy="191.8" r="1.4" fill="#9a6a00" fill-opacity="0.9"/><circle cx="316.5" cy="209.1" r="1.4" fill="#9a6a00" fill-opacity="0.9"/><text x="288" y="246" text-anchor="middle" font-family="Inter,Segoe UI,Arial,sans-serif" font-size="9" font-weight="700" fill="#111827">mlx_lm</text><line x1="415.333" y1="176.7" x2="415.333" y2="209.9" stroke="#2eaf5f" stroke-opacity="0.55" stroke-width="1.7"/><line x1="409.573" y1="176.7" x2="421.093" y2="176.7" stroke="#2eaf5f" stroke-opacity="0.55" stroke-width="1.7"/><line x1="409.573" y1="209.9" x2="421.093" y2="209.9" stroke="#2eaf5f" stroke-opacity="0.55" stroke-width="1.7"/><rect x="407.333" y="184.1" width="16" height="15.1" rx="2" fill="#2eaf5f" fill-opacity="0.08" stroke="#2eaf5f" stroke-opacity="0.55" stroke-width="1.7"/><line x1="407.333" y1="191.2" x2="423.333" y2="191.2" stroke="#2eaf5f" stroke-opacity="0.55" stroke-width="2.4"/><text x="415.333" y="229" text-anchor="middle" font-family="Inter,Segoe UI,Arial,sans-serif" font-size="8" fill="#6b7280">128</text><circle cx="412.333" cy="178.9" r="1.4" fill="#176c37" fill-opacity="0.5"/><circle cx="413.833" cy="189.2" r="1.4" fill="#176c37" fill-opacity="0.5"/><circle cx="415.333" cy="176.7" r="1.4" fill="#176c37" fill-opacity="0.5"/><circle cx="416.833" cy="191.2" r="1.4" fill="#176c37" fill-opacity="0.5"/><circle cx="418.333" cy="194.6" r="1.4" fill="#176c37" fill-opacity="0.5"/><circle cx="412.333" cy="203.8" r="1.4" fill="#176c37" fill-opacity="0.5"/><circle cx="413.833" cy="209.9" r="1.4" fill="#176c37" fill-opacity="0.5"/><line x1="445.333" y1="106.8" x2="445.333" y2="208.7" stroke="#2eaf5f" stroke-opacity="0.78" stroke-width="1.7"/><line x1="439.573" y1="106.8" x2="451.093" y2="106.8" stroke="#2eaf5f" stroke-opacity="0.78" stroke-width="1.7"/><line x1="439.573" y1="208.7" x2="451.093" y2="208.7" stroke="#2eaf5f" stroke-opacity="0.78" stroke-width="1.7"/><rect x="437.333" y="130.9" width="16" height="55.4" rx="2" fill="#2eaf5f" fill-opacity="0.17" stroke="#2eaf5f" stroke-opacity="0.78" stroke-width="1.7"/><line x1="437.333" y1="154.2" x2="453.333" y2="154.2" stroke="#2eaf5f" stroke-opacity="0.78" stroke-width="2.4"/><text x="445.333" y="229" text-anchor="middle" font-family="Inter,Segoe UI,Arial,sans-serif" font-size="8" fill="#6b7280">512</text><circle cx="442.333" cy="109.1" r="1.4" fill="#176c37" fill-opacity="0.7"/><circle cx="443.833" cy="152.7" r="1.4" fill="#176c37" fill-opacity="0.7"/><circle cx="445.333" cy="106.8" r="1.4" fill="#176c37" fill-opacity="0.7"/><circle cx="446.833" cy="154.2" r="1.4" fill="#176c37" fill-opacity="0.7"/><circle cx="448.333" cy="179.9" r="1.4" fill="#176c37" fill-opacity="0.7"/><circle cx="442.333" cy="192.8" r="1.4" fill="#176c37" fill-opacity="0.7"/><circle cx="443.833" cy="208.7" r="1.4" fill="#176c37" fill-opacity="0.7"/><line x1="475.333" y1="55.8" x2="475.333" y2="208.8" stroke="#2eaf5f" stroke-opacity="1.0" stroke-width="1.7"/><line x1="469.573" y1="55.8" x2="481.093" y2="55.8" stroke="#2eaf5f" stroke-opacity="1.0" stroke-width="1.7"/><line x1="469.573" y1="208.8" x2="481.093" y2="208.8" stroke="#2eaf5f" stroke-opacity="1.0" stroke-width="1.7"/><rect x="467.333" y="56.9" width="16" height="112.2" rx="2" fill="#2eaf5f" fill-opacity="0.3" stroke="#2eaf5f" stroke-opacity="1.0" stroke-width="1.7"/><line x1="467.333" y1="60.7" x2="483.333" y2="60.7" stroke="#2eaf5f" stroke-opacity="1.0" stroke-width="2.4"/><text x="475.333" y="229" text-anchor="middle" font-family="Inter,Segoe UI,Arial,sans-serif" font-size="8" fill="#6b7280">2048</text><circle cx="472.333" cy="55.8" r="1.4" fill="#176c37" fill-opacity="0.9"/><circle cx="473.833" cy="56.2" r="1.4" fill="#176c37" fill-opacity="0.9"/><circle cx="475.333" cy="60.7" r="1.4" fill="#176c37" fill-opacity="0.9"/><circle cx="476.833" cy="57.6" r="1.4" fill="#176c37" fill-opacity="0.9"/><circle cx="478.333" cy="155.3" r="1.4" fill="#176c37" fill-opacity="0.9"/><circle cx="472.333" cy="183.0" r="1.4" fill="#176c37" fill-opacity="0.9"/><circle cx="473.833" cy="208.8" r="1.4" fill="#176c37" fill-opacity="0.9"/><text x="445.333" y="246" text-anchor="middle" font-family="Inter,Segoe UI,Arial,sans-serif" font-size="9" font-weight="700" fill="#111827">ax_engine</text></svg>
