<svg xmlns="http://www.w3.org/2000/svg" width="760" height="430" viewBox="0 0 760 430" role="img">
<rect width="100%" height="100%" fill="#ffffff"/>
<text x="24" y="30" font-family="Inter,Segoe UI,Arial,sans-serif" font-size="18" font-weight="700" fill="#111827">Qwen3.6 35B-A3B 4-bit MTP TTFT</text>
<text x="732" y="30" text-anchor="end" font-family="Inter,Segoe UI,Arial,sans-serif" font-size="11" fill="#4b5563"><tspan>ms — </tspan><tspan fill="#dc2626" font-weight="700">lower is better</tspan><tspan>  (~ = client-side via ttft_s, includes HTTP overhead)</tspan></text>
<line x1="60" y1="358.0" x2="732" y2="358.0" stroke="#e5e7eb" stroke-width="1"/>
<text x="52" y="361.0" text-anchor="end" font-family="Inter,Segoe UI,Arial,sans-serif" font-size="10" fill="#6b7280">0</text>
<line x1="60" y1="261.3" x2="732" y2="261.3" stroke="#e5e7eb" stroke-width="1"/>
<text x="52" y="264.3" text-anchor="end" font-family="Inter,Segoe UI,Arial,sans-serif" font-size="10" fill="#6b7280">149</text>
<line x1="60" y1="164.7" x2="732" y2="164.7" stroke="#e5e7eb" stroke-width="1"/>
<text x="52" y="167.7" text-anchor="end" font-family="Inter,Segoe UI,Arial,sans-serif" font-size="10" fill="#6b7280">298</text>
<line x1="60" y1="68.0" x2="732" y2="68.0" stroke="#e5e7eb" stroke-width="1"/>
<text x="52" y="71.0" text-anchor="end" font-family="Inter,Segoe UI,Arial,sans-serif" font-size="10" fill="#6b7280">447</text>
<text x="172.0" y="396" text-anchor="middle" font-family="Inter,Segoe UI,Arial,sans-serif" font-size="11" font-weight="700" fill="#111827">flappy</text>
<rect x="82.0" y="226.9" width="29.6" height="131.1" rx="2" fill="#a78bfa" fill-opacity="0.86"/>
<text x="96.8" y="221.9" text-anchor="middle" font-family="Inter,Segoe UI,Arial,sans-serif" font-size="10" font-weight="700" fill="#111827">202</text>
<rect x="119.6" y="129.6" width="29.6" height="228.4" rx="2" fill="#60a5fa" fill-opacity="0.60"/>
<text x="134.4" y="124.6" text-anchor="middle" font-family="Inter,Segoe UI,Arial,sans-serif" font-size="10" font-weight="700" fill="#111827">352~</text>
<rect x="157.2" y="117.0" width="29.6" height="241.0" rx="2" fill="#1d4ed8" fill-opacity="0.60"/>
<text x="172.0" y="112.0" text-anchor="middle" font-family="Inter,Segoe UI,Arial,sans-serif" font-size="10" font-weight="700" fill="#111827">371~</text>
<rect x="194.8" y="232.5" width="29.6" height="125.5" rx="2" fill="#86efac" fill-opacity="0.86"/>
<text x="209.6" y="227.5" text-anchor="middle" font-family="Inter,Segoe UI,Arial,sans-serif" font-size="10" font-weight="700" fill="#111827">193</text>
<rect x="232.4" y="232.8" width="29.6" height="125.2" rx="2" fill="#15803d" fill-opacity="0.86"/>
<text x="247.2" y="227.8" text-anchor="middle" font-family="Inter,Segoe UI,Arial,sans-serif" font-size="10" font-weight="700" fill="#111827">193</text>
<text x="396.0" y="396" text-anchor="middle" font-family="Inter,Segoe UI,Arial,sans-serif" font-size="11" font-weight="700" fill="#111827">long_code</text>
<rect x="306.0" y="173.0" width="29.6" height="185.0" rx="2" fill="#a78bfa" fill-opacity="0.86"/>
<text x="320.8" y="168.0" text-anchor="middle" font-family="Inter,Segoe UI,Arial,sans-serif" font-size="10" font-weight="700" fill="#111827">285</text>
<rect x="343.6" y="78.0" width="29.6" height="280.0" rx="2" fill="#60a5fa" fill-opacity="0.60"/>
<text x="358.4" y="78.0" text-anchor="middle" font-family="Inter,Segoe UI,Arial,sans-serif" font-size="10" font-weight="700" fill="#111827">431~</text>
<rect x="381.2" y="68.0" width="29.6" height="290.0" rx="2" fill="#1d4ed8" fill-opacity="0.60"/>
<text x="396.0" y="78.0" text-anchor="middle" font-family="Inter,Segoe UI,Arial,sans-serif" font-size="10" font-weight="700" fill="#111827">447~</text>
<rect x="418.8" y="156.0" width="29.6" height="202.0" rx="2" fill="#86efac" fill-opacity="0.86"/>
<text x="433.6" y="151.0" text-anchor="middle" font-family="Inter,Segoe UI,Arial,sans-serif" font-size="10" font-weight="700" fill="#111827">311</text>
<rect x="456.4" y="156.8" width="29.6" height="201.2" rx="2" fill="#15803d" fill-opacity="0.86"/>
<text x="471.2" y="151.8" text-anchor="middle" font-family="Inter,Segoe UI,Arial,sans-serif" font-size="10" font-weight="700" fill="#111827">310</text>
<text x="620.0" y="396" text-anchor="middle" font-family="Inter,Segoe UI,Arial,sans-serif" font-size="11" font-weight="700" fill="#111827">python_modules_long</text>
<rect x="530.0" y="226.5" width="29.6" height="131.5" rx="2" fill="#a78bfa" fill-opacity="0.86"/>
<text x="544.8" y="221.5" text-anchor="middle" font-family="Inter,Segoe UI,Arial,sans-serif" font-size="10" font-weight="700" fill="#111827">202</text>
<rect x="567.6" y="131.2" width="29.6" height="226.8" rx="2" fill="#60a5fa" fill-opacity="0.60"/>
<text x="582.4" y="126.2" text-anchor="middle" font-family="Inter,Segoe UI,Arial,sans-serif" font-size="10" font-weight="700" fill="#111827">349~</text>
<rect x="605.2" y="123.9" width="29.6" height="234.1" rx="2" fill="#1d4ed8" fill-opacity="0.60"/>
<text x="620.0" y="118.9" text-anchor="middle" font-family="Inter,Segoe UI,Arial,sans-serif" font-size="10" font-weight="700" fill="#111827">360~</text>
<rect x="642.8" y="234.2" width="29.6" height="123.8" rx="2" fill="#86efac" fill-opacity="0.86"/>
<text x="657.6" y="229.2" text-anchor="middle" font-family="Inter,Segoe UI,Arial,sans-serif" font-size="10" font-weight="700" fill="#111827">191</text>
<rect x="680.4" y="233.9" width="29.6" height="124.1" rx="2" fill="#15803d" fill-opacity="0.86"/>
<text x="695.2" y="228.9" text-anchor="middle" font-family="Inter,Segoe UI,Arial,sans-serif" font-size="10" font-weight="700" fill="#111827">191</text>
<rect x="60" y="407" width="10" height="10" rx="2" fill="#a78bfa" fill-opacity="0.86"/>
<text x="74" y="416" font-family="Inter,Segoe UI,Arial,sans-serif" font-size="10" fill="#374151">MTPLX 0.3.7</text>
<rect x="190" y="407" width="10" height="10" rx="2" fill="#60a5fa" fill-opacity="0.60"/>
<text x="204" y="416" font-family="Inter,Segoe UI,Arial,sans-serif" font-size="10" fill="#374151">Light. MTP</text>
<rect x="320" y="407" width="10" height="10" rx="2" fill="#1d4ed8" fill-opacity="0.60"/>
<text x="334" y="416" font-family="Inter,Segoe UI,Arial,sans-serif" font-size="10" fill="#374151">Light. ngram+MTP</text>
<rect x="450" y="407" width="10" height="10" rx="2" fill="#86efac" fill-opacity="0.86"/>
<text x="464" y="416" font-family="Inter,Segoe UI,Arial,sans-serif" font-size="10" fill="#374151">AX MTP</text>
<rect x="580" y="407" width="10" height="10" rx="2" fill="#15803d" fill-opacity="0.86"/>
<text x="594" y="416" font-family="Inter,Segoe UI,Arial,sans-serif" font-size="10" fill="#374151">AX MTP+n-gram</text>
</svg>
