<svg xmlns="http://www.w3.org/2000/svg" width="900" height="460" viewBox="0 0 900 460" role="img" aria-labelledby="title desc">
<title>Qwen3.6 27B 4-bit MTP accept rate</title>
<desc>Grouped box-and-whisker plot comparing MTPLX 0.3.7, Lightning v0.6.10, Lightning+ng v0.6.10, AX Engine v5.1.1, AX+ngram v5.1.1 across F, L, P.</desc>
<rect width="100%" height="100%" fill="#f8fafc"/>
<text x="24" y="24" font-family="Inter,Segoe UI,Arial,sans-serif" font-size="16" font-weight="700" fill="#111827">Qwen3.6 27B 4-bit MTP accept rate</text>
<text x="24" y="46" font-family="Inter,Segoe UI,Arial,sans-serif" font-size="11" fill="#4b5563">F=flappy · L=long_code · P=python_modules | accepted/drafted | box=IQR | dots=runs</text>
<text x="24" y="62" font-family="Inter,Segoe UI,Arial,sans-serif" font-size="10" fill="#6b7280">MTPLX 0.3.7 · Lightning-MLX 0.6.10 · AX Engine v5.1.1</text>
<rect x="818" y="13" width="48" height="22" rx="11" fill="#eef2ff" stroke="#c7d2fe"/>
<text x="842.0" y="28" text-anchor="middle" font-family="Inter,Segoe UI,Arial,sans-serif" font-size="10" font-weight="700" fill="#3730a3">%</text>
<text x="866" y="52" text-anchor="end" font-family="Inter,Segoe UI,Arial,sans-serif" font-size="10" font-weight="700" fill="#374151">Higher is better</text>
<rect x="64" y="86" width="676" height="268" rx="6" fill="#ffffff" stroke="#dbe3ef"/>
<line x1="64" y1="354.0" x2="740" y2="354.0" stroke="#e5e7eb" stroke-width="1"/>
<text x="56" y="357.0" text-anchor="end" font-family="Inter,Segoe UI,Arial,sans-serif" font-size="11" fill="#6b7280">0%</text>
<line x1="64" y1="287.0" x2="740" y2="287.0" stroke="#e5e7eb" stroke-width="1"/>
<text x="56" y="290.0" text-anchor="end" font-family="Inter,Segoe UI,Arial,sans-serif" font-size="11" fill="#6b7280">25%</text>
<line x1="64" y1="220.0" x2="740" y2="220.0" stroke="#e5e7eb" stroke-width="1"/>
<text x="56" y="223.0" text-anchor="end" font-family="Inter,Segoe UI,Arial,sans-serif" font-size="11" fill="#6b7280">50%</text>
<line x1="64" y1="153.0" x2="740" y2="153.0" stroke="#e5e7eb" stroke-width="1"/>
<text x="56" y="156.0" text-anchor="end" font-family="Inter,Segoe UI,Arial,sans-serif" font-size="11" fill="#6b7280">75%</text>
<line x1="64" y1="86.0" x2="740" y2="86.0" stroke="#e5e7eb" stroke-width="1"/>
<text x="56" y="89.0" text-anchor="end" font-family="Inter,Segoe UI,Arial,sans-serif" font-size="11" fill="#6b7280">100%</text>
<line x1="64" y1="86.0" x2="740" y2="86.0" stroke="#dc2626" stroke-width="1.2" stroke-dasharray="1 4" stroke-linecap="round"/>
<text x="748" y="97.0" text-anchor="start" font-family="Inter,Segoe UI,Arial,sans-serif" font-size="11" font-weight="700" fill="#dc2626" data-label="highest median">highest: 100.0%</text>
<text x="176.7" y="398" text-anchor="middle" font-family="Inter,Segoe UI,Arial,sans-serif" font-size="11" font-weight="700" fill="#111827">F</text>
<circle cx="95.8" cy="86.0" r="1.45" fill="#14532d" fill-opacity="0.46"/>
<circle cx="98.3" cy="86.0" r="1.45" fill="#14532d" fill-opacity="0.46"/>
<circle cx="100.8" cy="86.0" r="1.45" fill="#14532d" fill-opacity="0.46"/>
<circle cx="103.3" cy="86.0" r="1.45" fill="#14532d" fill-opacity="0.46"/>
<circle cx="105.7" cy="86.0" r="1.45" fill="#14532d" fill-opacity="0.46"/>
<circle cx="108.2" cy="89.1" r="1.45" fill="#14532d" fill-opacity="0.46"/>
<circle cx="110.7" cy="92.6" r="1.45" fill="#14532d" fill-opacity="0.46"/>
<circle cx="113.1" cy="89.1" r="1.45" fill="#14532d" fill-opacity="0.46"/>
<circle cx="115.6" cy="95.6" r="1.45" fill="#14532d" fill-opacity="0.46"/>
<circle cx="95.8" cy="96.6" r="1.45" fill="#14532d" fill-opacity="0.46"/>
<circle cx="98.3" cy="86.0" r="1.45" fill="#14532d" fill-opacity="0.46"/>
<circle cx="100.8" cy="86.0" r="1.45" fill="#14532d" fill-opacity="0.46"/>
<circle cx="103.3" cy="86.0" r="1.45" fill="#14532d" fill-opacity="0.46"/>
<circle cx="105.7" cy="86.0" r="1.45" fill="#14532d" fill-opacity="0.46"/>
<circle cx="108.2" cy="86.0" r="1.45" fill="#14532d" fill-opacity="0.46"/>
<circle cx="110.7" cy="86.0" r="1.45" fill="#14532d" fill-opacity="0.46"/>
<circle cx="113.1" cy="86.0" r="1.45" fill="#14532d" fill-opacity="0.46"/>
<circle cx="115.6" cy="86.0" r="1.45" fill="#14532d" fill-opacity="0.46"/>
<circle cx="95.8" cy="86.0" r="1.45" fill="#14532d" fill-opacity="0.46"/>
<circle cx="98.3" cy="86.0" r="1.45" fill="#14532d" fill-opacity="0.46"/>
<line x1="105.7" y1="86.0" x2="105.7" y2="96.6" stroke="#14532d" stroke-opacity="0.86" stroke-width="1.8"/>
<line x1="95.8" y1="86.0" x2="115.6" y2="86.0" stroke="#14532d" stroke-opacity="0.86" stroke-width="1.8"/>
<line x1="95.8" y1="96.6" x2="115.6" y2="96.6" stroke="#14532d" stroke-opacity="0.86" stroke-width="1.8"/>
<rect x="92.0" y="86.0" width="27.5" height="1.0" rx="2" fill="#14532d" fill-opacity="0.18" stroke="#14532d" stroke-opacity="0.9" stroke-width="1.8"/>
<line x1="92.0" y1="86.0" x2="119.5" y2="86.0" stroke="#14532d" stroke-opacity="0.96" stroke-width="2.6"/>
<text x="125.5" y="90.0" text-anchor="start" font-family="Inter,Segoe UI,Arial,sans-serif" font-size="11" font-weight="700" fill="#111827" stroke="#ffffff" stroke-width="3" paint-order="stroke">100.0%</text>
<circle cx="131.3" cy="86.0" r="1.45" fill="#7c3aed" fill-opacity="0.46"/>
<circle cx="133.8" cy="86.0" r="1.45" fill="#7c3aed" fill-opacity="0.46"/>
<circle cx="136.3" cy="86.0" r="1.45" fill="#7c3aed" fill-opacity="0.46"/>
<circle cx="138.7" cy="86.0" r="1.45" fill="#7c3aed" fill-opacity="0.46"/>
<circle cx="141.2" cy="86.0" r="1.45" fill="#7c3aed" fill-opacity="0.46"/>
<circle cx="143.7" cy="86.0" r="1.45" fill="#7c3aed" fill-opacity="0.46"/>
<circle cx="146.1" cy="86.0" r="1.45" fill="#7c3aed" fill-opacity="0.46"/>
<circle cx="148.6" cy="86.0" r="1.45" fill="#7c3aed" fill-opacity="0.46"/>
<circle cx="151.1" cy="86.0" r="1.45" fill="#7c3aed" fill-opacity="0.46"/>
<circle cx="131.3" cy="86.0" r="1.45" fill="#7c3aed" fill-opacity="0.46"/>
<circle cx="133.8" cy="86.0" r="1.45" fill="#7c3aed" fill-opacity="0.46"/>
<circle cx="136.3" cy="86.0" r="1.45" fill="#7c3aed" fill-opacity="0.46"/>
<circle cx="138.7" cy="86.0" r="1.45" fill="#7c3aed" fill-opacity="0.46"/>
<circle cx="141.2" cy="86.0" r="1.45" fill="#7c3aed" fill-opacity="0.46"/>
<circle cx="143.7" cy="86.0" r="1.45" fill="#7c3aed" fill-opacity="0.46"/>
<circle cx="146.1" cy="86.0" r="1.45" fill="#7c3aed" fill-opacity="0.46"/>
<circle cx="148.6" cy="86.0" r="1.45" fill="#7c3aed" fill-opacity="0.46"/>
<circle cx="151.1" cy="86.0" r="1.45" fill="#7c3aed" fill-opacity="0.46"/>
<circle cx="131.3" cy="86.0" r="1.45" fill="#7c3aed" fill-opacity="0.46"/>
<circle cx="133.8" cy="86.0" r="1.45" fill="#7c3aed" fill-opacity="0.46"/>
<line x1="141.2" y1="86.0" x2="141.2" y2="86.0" stroke="#7c3aed" stroke-opacity="0.86" stroke-width="1.8"/>
<line x1="131.3" y1="86.0" x2="151.1" y2="86.0" stroke="#7c3aed" stroke-opacity="0.86" stroke-width="1.8"/>
<line x1="131.3" y1="86.0" x2="151.1" y2="86.0" stroke="#7c3aed" stroke-opacity="0.86" stroke-width="1.8"/>
<rect x="127.5" y="86.0" width="27.5" height="1.0" rx="2" fill="#7c3aed" fill-opacity="0.18" stroke="#7c3aed" stroke-opacity="0.9" stroke-width="1.8"/>
<line x1="127.5" y1="86.0" x2="154.9" y2="86.0" stroke="#7c3aed" stroke-opacity="0.96" stroke-width="2.6"/>
<text x="160.9" y="90.0" text-anchor="start" font-family="Inter,Segoe UI,Arial,sans-serif" font-size="11" font-weight="700" fill="#111827" stroke="#ffffff" stroke-width="3" paint-order="stroke">100.0%</text>
<circle cx="166.8" cy="86.0" r="1.45" fill="#1e3a8a" fill-opacity="0.46"/>
<circle cx="169.3" cy="86.0" r="1.45" fill="#1e3a8a" fill-opacity="0.46"/>
<circle cx="171.7" cy="86.0" r="1.45" fill="#1e3a8a" fill-opacity="0.46"/>
<circle cx="174.2" cy="86.0" r="1.45" fill="#1e3a8a" fill-opacity="0.46"/>
<circle cx="176.7" cy="86.0" r="1.45" fill="#1e3a8a" fill-opacity="0.46"/>
<circle cx="179.1" cy="86.0" r="1.45" fill="#1e3a8a" fill-opacity="0.46"/>
<circle cx="181.6" cy="86.0" r="1.45" fill="#1e3a8a" fill-opacity="0.46"/>
<circle cx="184.1" cy="86.0" r="1.45" fill="#1e3a8a" fill-opacity="0.46"/>
<circle cx="186.6" cy="86.0" r="1.45" fill="#1e3a8a" fill-opacity="0.46"/>
<circle cx="166.8" cy="86.0" r="1.45" fill="#1e3a8a" fill-opacity="0.46"/>
<circle cx="169.3" cy="86.0" r="1.45" fill="#1e3a8a" fill-opacity="0.46"/>
<circle cx="171.7" cy="86.0" r="1.45" fill="#1e3a8a" fill-opacity="0.46"/>
<circle cx="174.2" cy="86.0" r="1.45" fill="#1e3a8a" fill-opacity="0.46"/>
<circle cx="176.7" cy="86.0" r="1.45" fill="#1e3a8a" fill-opacity="0.46"/>
<circle cx="179.1" cy="86.0" r="1.45" fill="#1e3a8a" fill-opacity="0.46"/>
<circle cx="181.6" cy="86.0" r="1.45" fill="#1e3a8a" fill-opacity="0.46"/>
<circle cx="184.1" cy="86.0" r="1.45" fill="#1e3a8a" fill-opacity="0.46"/>
<circle cx="186.6" cy="86.0" r="1.45" fill="#1e3a8a" fill-opacity="0.46"/>
<circle cx="166.8" cy="86.0" r="1.45" fill="#1e3a8a" fill-opacity="0.46"/>
<circle cx="169.3" cy="86.0" r="1.45" fill="#1e3a8a" fill-opacity="0.46"/>
<line x1="176.7" y1="86.0" x2="176.7" y2="86.0" stroke="#1e3a8a" stroke-opacity="0.86" stroke-width="1.8"/>
<line x1="166.8" y1="86.0" x2="186.6" y2="86.0" stroke="#1e3a8a" stroke-opacity="0.86" stroke-width="1.8"/>
<line x1="166.8" y1="86.0" x2="186.6" y2="86.0" stroke="#1e3a8a" stroke-opacity="0.86" stroke-width="1.8"/>
<rect x="162.9" y="86.0" width="27.5" height="1.0" rx="2" fill="#1e3a8a" fill-opacity="0.18" stroke="#1e3a8a" stroke-opacity="0.9" stroke-width="1.8"/>
<line x1="162.9" y1="86.0" x2="190.4" y2="86.0" stroke="#1e3a8a" stroke-opacity="0.96" stroke-width="2.6"/>
<text x="196.4" y="90.0" text-anchor="start" font-family="Inter,Segoe UI,Arial,sans-serif" font-size="11" font-weight="700" fill="#111827" stroke="#ffffff" stroke-width="3" paint-order="stroke">100.0%</text>
<circle cx="202.2" cy="86.0" r="1.45" fill="#f97316" fill-opacity="0.46"/>
<circle cx="204.7" cy="88.5" r="1.45" fill="#f97316" fill-opacity="0.46"/>
<circle cx="207.2" cy="86.0" r="1.45" fill="#f97316" fill-opacity="0.46"/>
<circle cx="209.7" cy="87.1" r="1.45" fill="#f97316" fill-opacity="0.46"/>
<circle cx="212.1" cy="88.1" r="1.45" fill="#f97316" fill-opacity="0.46"/>
<circle cx="214.6" cy="125.9" r="1.45" fill="#f97316" fill-opacity="0.46"/>
<circle cx="217.1" cy="126.7" r="1.45" fill="#f97316" fill-opacity="0.46"/>
<circle cx="219.5" cy="101.2" r="1.45" fill="#f97316" fill-opacity="0.46"/>
<circle cx="222.0" cy="97.5" r="1.45" fill="#f97316" fill-opacity="0.46"/>
<circle cx="202.2" cy="108.4" r="1.45" fill="#f97316" fill-opacity="0.46"/>
<circle cx="204.7" cy="94.1" r="1.45" fill="#f97316" fill-opacity="0.46"/>
<circle cx="207.2" cy="88.5" r="1.45" fill="#f97316" fill-opacity="0.46"/>
<circle cx="209.7" cy="91.0" r="1.45" fill="#f97316" fill-opacity="0.46"/>
<circle cx="212.1" cy="92.0" r="1.45" fill="#f97316" fill-opacity="0.46"/>
<circle cx="214.6" cy="87.1" r="1.45" fill="#f97316" fill-opacity="0.46"/>
<circle cx="217.1" cy="91.7" r="1.45" fill="#f97316" fill-opacity="0.46"/>
<circle cx="219.5" cy="92.0" r="1.45" fill="#f97316" fill-opacity="0.46"/>
<circle cx="222.0" cy="93.4" r="1.45" fill="#f97316" fill-opacity="0.46"/>
<circle cx="202.2" cy="88.1" r="1.45" fill="#f97316" fill-opacity="0.46"/>
<circle cx="204.7" cy="91.0" r="1.45" fill="#f97316" fill-opacity="0.46"/>
<line x1="212.1" y1="86.0" x2="212.1" y2="126.7" stroke="#f97316" stroke-opacity="0.86" stroke-width="1.8"/>
<line x1="202.2" y1="86.0" x2="222.0" y2="86.0" stroke="#f97316" stroke-opacity="0.86" stroke-width="1.8"/>
<line x1="202.2" y1="126.7" x2="222.0" y2="126.7" stroke="#f97316" stroke-opacity="0.86" stroke-width="1.8"/>
<rect x="198.4" y="88.1" width="27.5" height="6.8" rx="2" fill="#f97316" fill-opacity="0.18" stroke="#f97316" stroke-opacity="0.9" stroke-width="1.8"/>
<line x1="198.4" y1="91.3" x2="225.9" y2="91.3" stroke="#f97316" stroke-opacity="0.96" stroke-width="2.6"/>
<text x="231.9" y="95.3" text-anchor="start" font-family="Inter,Segoe UI,Arial,sans-serif" font-size="11" font-weight="700" fill="#111827" stroke="#ffffff" stroke-width="3" paint-order="stroke">98.0%</text>
<circle cx="237.7" cy="136.8" r="1.45" fill="#eab308" fill-opacity="0.46"/>
<circle cx="240.2" cy="106.9" r="1.45" fill="#eab308" fill-opacity="0.46"/>
<circle cx="242.7" cy="114.1" r="1.45" fill="#eab308" fill-opacity="0.46"/>
<circle cx="245.1" cy="123.3" r="1.45" fill="#eab308" fill-opacity="0.46"/>
<circle cx="247.6" cy="111.3" r="1.45" fill="#eab308" fill-opacity="0.46"/>
<circle cx="250.1" cy="94.3" r="1.45" fill="#eab308" fill-opacity="0.46"/>
<circle cx="252.5" cy="142.5" r="1.45" fill="#eab308" fill-opacity="0.46"/>
<circle cx="255.0" cy="134.7" r="1.45" fill="#eab308" fill-opacity="0.46"/>
<circle cx="257.5" cy="94.5" r="1.45" fill="#eab308" fill-opacity="0.46"/>
<circle cx="237.7" cy="138.5" r="1.45" fill="#eab308" fill-opacity="0.46"/>
<circle cx="240.2" cy="135.1" r="1.45" fill="#eab308" fill-opacity="0.46"/>
<circle cx="242.7" cy="147.4" r="1.45" fill="#eab308" fill-opacity="0.46"/>
<circle cx="245.1" cy="133.6" r="1.45" fill="#eab308" fill-opacity="0.46"/>
<circle cx="247.6" cy="129.7" r="1.45" fill="#eab308" fill-opacity="0.46"/>
<circle cx="250.1" cy="142.7" r="1.45" fill="#eab308" fill-opacity="0.46"/>
<circle cx="252.5" cy="126.9" r="1.45" fill="#eab308" fill-opacity="0.46"/>
<circle cx="255.0" cy="117.2" r="1.45" fill="#eab308" fill-opacity="0.46"/>
<circle cx="257.5" cy="139.2" r="1.45" fill="#eab308" fill-opacity="0.46"/>
<circle cx="237.7" cy="93.9" r="1.45" fill="#eab308" fill-opacity="0.46"/>
<circle cx="240.2" cy="132.2" r="1.45" fill="#eab308" fill-opacity="0.46"/>
<line x1="247.6" y1="93.9" x2="247.6" y2="147.4" stroke="#eab308" stroke-opacity="0.86" stroke-width="1.8"/>
<line x1="237.7" y1="93.9" x2="257.5" y2="93.9" stroke="#eab308" stroke-opacity="0.86" stroke-width="1.8"/>
<line x1="237.7" y1="147.4" x2="257.5" y2="147.4" stroke="#eab308" stroke-opacity="0.86" stroke-width="1.8"/>
<rect x="233.9" y="113.4" width="27.5" height="23.9" rx="2" fill="#eab308" fill-opacity="0.18" stroke="#eab308" stroke-opacity="0.9" stroke-width="1.8"/>
<line x1="233.9" y1="130.9" x2="261.3" y2="130.9" stroke="#eab308" stroke-opacity="0.96" stroke-width="2.6"/>
<text x="267.3" y="134.9" text-anchor="start" font-family="Inter,Segoe UI,Arial,sans-serif" font-size="11" font-weight="700" fill="#111827" stroke="#ffffff" stroke-width="3" paint-order="stroke">83.2%</text>
<text x="402.0" y="398" text-anchor="middle" font-family="Inter,Segoe UI,Arial,sans-serif" font-size="11" font-weight="700" fill="#111827">L</text>
<circle cx="321.2" cy="86.0" r="1.45" fill="#14532d" fill-opacity="0.46"/>
<circle cx="323.7" cy="86.4" r="1.45" fill="#14532d" fill-opacity="0.46"/>
<circle cx="326.1" cy="86.0" r="1.45" fill="#14532d" fill-opacity="0.46"/>
<circle cx="328.6" cy="86.0" r="1.45" fill="#14532d" fill-opacity="0.46"/>
<circle cx="331.1" cy="86.0" r="1.45" fill="#14532d" fill-opacity="0.46"/>
<circle cx="333.5" cy="88.5" r="1.45" fill="#14532d" fill-opacity="0.46"/>
<circle cx="336.0" cy="90.2" r="1.45" fill="#14532d" fill-opacity="0.46"/>
<circle cx="338.5" cy="87.4" r="1.45" fill="#14532d" fill-opacity="0.46"/>
<circle cx="341.0" cy="87.4" r="1.45" fill="#14532d" fill-opacity="0.46"/>
<circle cx="321.2" cy="89.2" r="1.45" fill="#14532d" fill-opacity="0.46"/>
<circle cx="323.7" cy="87.1" r="1.45" fill="#14532d" fill-opacity="0.46"/>
<circle cx="326.1" cy="87.1" r="1.45" fill="#14532d" fill-opacity="0.46"/>
<circle cx="328.6" cy="87.1" r="1.45" fill="#14532d" fill-opacity="0.46"/>
<circle cx="331.1" cy="88.5" r="1.45" fill="#14532d" fill-opacity="0.46"/>
<circle cx="333.5" cy="87.1" r="1.45" fill="#14532d" fill-opacity="0.46"/>
<circle cx="336.0" cy="86.0" r="1.45" fill="#14532d" fill-opacity="0.46"/>
<circle cx="338.5" cy="86.0" r="1.45" fill="#14532d" fill-opacity="0.46"/>
<circle cx="341.0" cy="86.0" r="1.45" fill="#14532d" fill-opacity="0.46"/>
<circle cx="321.2" cy="86.0" r="1.45" fill="#14532d" fill-opacity="0.46"/>
<circle cx="323.7" cy="86.0" r="1.45" fill="#14532d" fill-opacity="0.46"/>
<line x1="331.1" y1="86.0" x2="331.1" y2="90.2" stroke="#14532d" stroke-opacity="0.86" stroke-width="1.8"/>
<line x1="321.2" y1="86.0" x2="341.0" y2="86.0" stroke="#14532d" stroke-opacity="0.86" stroke-width="1.8"/>
<line x1="321.2" y1="90.2" x2="341.0" y2="90.2" stroke="#14532d" stroke-opacity="0.86" stroke-width="1.8"/>
<rect x="317.3" y="86.0" width="27.5" height="1.4" rx="2" fill="#14532d" fill-opacity="0.18" stroke="#14532d" stroke-opacity="0.9" stroke-width="1.8"/>
<line x1="317.3" y1="86.7" x2="344.8" y2="86.7" stroke="#14532d" stroke-opacity="0.96" stroke-width="2.6"/>
<text x="350.8" y="90.7" text-anchor="start" font-family="Inter,Segoe UI,Arial,sans-serif" font-size="11" font-weight="700" fill="#111827" stroke="#ffffff" stroke-width="3" paint-order="stroke">99.7%</text>
<circle cx="356.6" cy="86.0" r="1.45" fill="#7c3aed" fill-opacity="0.46"/>
<circle cx="359.1" cy="86.0" r="1.45" fill="#7c3aed" fill-opacity="0.46"/>
<circle cx="361.6" cy="86.0" r="1.45" fill="#7c3aed" fill-opacity="0.46"/>
<circle cx="364.1" cy="86.0" r="1.45" fill="#7c3aed" fill-opacity="0.46"/>
<circle cx="366.5" cy="86.0" r="1.45" fill="#7c3aed" fill-opacity="0.46"/>
<circle cx="369.0" cy="86.0" r="1.45" fill="#7c3aed" fill-opacity="0.46"/>
<circle cx="371.5" cy="86.0" r="1.45" fill="#7c3aed" fill-opacity="0.46"/>
<circle cx="373.9" cy="86.0" r="1.45" fill="#7c3aed" fill-opacity="0.46"/>
<circle cx="376.4" cy="86.0" r="1.45" fill="#7c3aed" fill-opacity="0.46"/>
<circle cx="356.6" cy="86.0" r="1.45" fill="#7c3aed" fill-opacity="0.46"/>
<circle cx="359.1" cy="86.0" r="1.45" fill="#7c3aed" fill-opacity="0.46"/>
<circle cx="361.6" cy="86.0" r="1.45" fill="#7c3aed" fill-opacity="0.46"/>
<circle cx="364.1" cy="86.0" r="1.45" fill="#7c3aed" fill-opacity="0.46"/>
<circle cx="366.5" cy="86.0" r="1.45" fill="#7c3aed" fill-opacity="0.46"/>
<circle cx="369.0" cy="86.0" r="1.45" fill="#7c3aed" fill-opacity="0.46"/>
<circle cx="371.5" cy="86.0" r="1.45" fill="#7c3aed" fill-opacity="0.46"/>
<circle cx="373.9" cy="86.0" r="1.45" fill="#7c3aed" fill-opacity="0.46"/>
<circle cx="376.4" cy="86.0" r="1.45" fill="#7c3aed" fill-opacity="0.46"/>
<circle cx="356.6" cy="86.0" r="1.45" fill="#7c3aed" fill-opacity="0.46"/>
<circle cx="359.1" cy="86.0" r="1.45" fill="#7c3aed" fill-opacity="0.46"/>
<line x1="366.5" y1="86.0" x2="366.5" y2="86.0" stroke="#7c3aed" stroke-opacity="0.86" stroke-width="1.8"/>
<line x1="356.6" y1="86.0" x2="376.4" y2="86.0" stroke="#7c3aed" stroke-opacity="0.86" stroke-width="1.8"/>
<line x1="356.6" y1="86.0" x2="376.4" y2="86.0" stroke="#7c3aed" stroke-opacity="0.86" stroke-width="1.8"/>
<rect x="352.8" y="86.0" width="27.5" height="1.0" rx="2" fill="#7c3aed" fill-opacity="0.18" stroke="#7c3aed" stroke-opacity="0.9" stroke-width="1.8"/>
<line x1="352.8" y1="86.0" x2="380.3" y2="86.0" stroke="#7c3aed" stroke-opacity="0.96" stroke-width="2.6"/>
<text x="386.3" y="90.0" text-anchor="start" font-family="Inter,Segoe UI,Arial,sans-serif" font-size="11" font-weight="700" fill="#111827" stroke="#ffffff" stroke-width="3" paint-order="stroke">100.0%</text>
<circle cx="392.1" cy="86.0" r="1.45" fill="#1e3a8a" fill-opacity="0.46"/>
<circle cx="394.6" cy="86.0" r="1.45" fill="#1e3a8a" fill-opacity="0.46"/>
<circle cx="397.1" cy="86.0" r="1.45" fill="#1e3a8a" fill-opacity="0.46"/>
<circle cx="399.5" cy="86.0" r="1.45" fill="#1e3a8a" fill-opacity="0.46"/>
<circle cx="402.0" cy="86.0" r="1.45" fill="#1e3a8a" fill-opacity="0.46"/>
<circle cx="404.5" cy="86.0" r="1.45" fill="#1e3a8a" fill-opacity="0.46"/>
<circle cx="406.9" cy="86.0" r="1.45" fill="#1e3a8a" fill-opacity="0.46"/>
<circle cx="409.4" cy="86.0" r="1.45" fill="#1e3a8a" fill-opacity="0.46"/>
<circle cx="411.9" cy="86.0" r="1.45" fill="#1e3a8a" fill-opacity="0.46"/>
<circle cx="392.1" cy="86.0" r="1.45" fill="#1e3a8a" fill-opacity="0.46"/>
<circle cx="394.6" cy="86.0" r="1.45" fill="#1e3a8a" fill-opacity="0.46"/>
<circle cx="397.1" cy="86.0" r="1.45" fill="#1e3a8a" fill-opacity="0.46"/>
<circle cx="399.5" cy="86.0" r="1.45" fill="#1e3a8a" fill-opacity="0.46"/>
<circle cx="402.0" cy="86.0" r="1.45" fill="#1e3a8a" fill-opacity="0.46"/>
<circle cx="404.5" cy="86.0" r="1.45" fill="#1e3a8a" fill-opacity="0.46"/>
<circle cx="406.9" cy="86.0" r="1.45" fill="#1e3a8a" fill-opacity="0.46"/>
<circle cx="409.4" cy="86.0" r="1.45" fill="#1e3a8a" fill-opacity="0.46"/>
<circle cx="411.9" cy="86.0" r="1.45" fill="#1e3a8a" fill-opacity="0.46"/>
<circle cx="392.1" cy="86.0" r="1.45" fill="#1e3a8a" fill-opacity="0.46"/>
<circle cx="394.6" cy="86.0" r="1.45" fill="#1e3a8a" fill-opacity="0.46"/>
<line x1="402.0" y1="86.0" x2="402.0" y2="86.0" stroke="#1e3a8a" stroke-opacity="0.86" stroke-width="1.8"/>
<line x1="392.1" y1="86.0" x2="411.9" y2="86.0" stroke="#1e3a8a" stroke-opacity="0.86" stroke-width="1.8"/>
<line x1="392.1" y1="86.0" x2="411.9" y2="86.0" stroke="#1e3a8a" stroke-opacity="0.86" stroke-width="1.8"/>
<rect x="388.3" y="86.0" width="27.5" height="1.0" rx="2" fill="#1e3a8a" fill-opacity="0.18" stroke="#1e3a8a" stroke-opacity="0.9" stroke-width="1.8"/>
<line x1="388.3" y1="86.0" x2="415.7" y2="86.0" stroke="#1e3a8a" stroke-opacity="0.96" stroke-width="2.6"/>
<text x="421.7" y="90.0" text-anchor="start" font-family="Inter,Segoe UI,Arial,sans-serif" font-size="11" font-weight="700" fill="#111827" stroke="#ffffff" stroke-width="3" paint-order="stroke">100.0%</text>
<circle cx="427.6" cy="110.4" r="1.45" fill="#f97316" fill-opacity="0.46"/>
<circle cx="430.1" cy="99.5" r="1.45" fill="#f97316" fill-opacity="0.46"/>
<circle cx="432.5" cy="93.8" r="1.45" fill="#f97316" fill-opacity="0.46"/>
<circle cx="435.0" cy="104.8" r="1.45" fill="#f97316" fill-opacity="0.46"/>
<circle cx="437.5" cy="108.4" r="1.45" fill="#f97316" fill-opacity="0.46"/>
<circle cx="439.9" cy="100.6" r="1.45" fill="#f97316" fill-opacity="0.46"/>
<circle cx="442.4" cy="95.1" r="1.45" fill="#f97316" fill-opacity="0.46"/>
<circle cx="444.9" cy="93.7" r="1.45" fill="#f97316" fill-opacity="0.46"/>
<circle cx="447.4" cy="97.9" r="1.45" fill="#f97316" fill-opacity="0.46"/>
<circle cx="427.6" cy="103.5" r="1.45" fill="#f97316" fill-opacity="0.46"/>
<circle cx="430.1" cy="104.5" r="1.45" fill="#f97316" fill-opacity="0.46"/>
<circle cx="432.5" cy="100.6" r="1.45" fill="#f97316" fill-opacity="0.46"/>
<circle cx="435.0" cy="90.3" r="1.45" fill="#f97316" fill-opacity="0.46"/>
<circle cx="437.5" cy="116.7" r="1.45" fill="#f97316" fill-opacity="0.46"/>
<circle cx="439.9" cy="97.5" r="1.45" fill="#f97316" fill-opacity="0.46"/>
<circle cx="442.4" cy="95.8" r="1.45" fill="#f97316" fill-opacity="0.46"/>
<circle cx="444.9" cy="89.2" r="1.45" fill="#f97316" fill-opacity="0.46"/>
<circle cx="447.4" cy="90.2" r="1.45" fill="#f97316" fill-opacity="0.46"/>
<circle cx="427.6" cy="88.5" r="1.45" fill="#f97316" fill-opacity="0.46"/>
<circle cx="430.1" cy="92.7" r="1.45" fill="#f97316" fill-opacity="0.46"/>
<line x1="437.5" y1="88.5" x2="437.5" y2="116.7" stroke="#f97316" stroke-opacity="0.86" stroke-width="1.8"/>
<line x1="427.6" y1="88.5" x2="447.4" y2="88.5" stroke="#f97316" stroke-opacity="0.86" stroke-width="1.8"/>
<line x1="427.6" y1="116.7" x2="447.4" y2="116.7" stroke="#f97316" stroke-opacity="0.86" stroke-width="1.8"/>
<rect x="423.7" y="93.5" width="27.5" height="10.3" rx="2" fill="#f97316" fill-opacity="0.18" stroke="#f97316" stroke-opacity="0.9" stroke-width="1.8"/>
<line x1="423.7" y1="97.7" x2="451.2" y2="97.7" stroke="#f97316" stroke-opacity="0.96" stroke-width="2.6"/>
<text x="457.2" y="101.7" text-anchor="start" font-family="Inter,Segoe UI,Arial,sans-serif" font-size="11" font-weight="700" fill="#111827" stroke="#ffffff" stroke-width="3" paint-order="stroke">95.6%</text>
<circle cx="463.0" cy="86.3" r="1.45" fill="#eab308" fill-opacity="0.46"/>
<circle cx="465.5" cy="86.3" r="1.45" fill="#eab308" fill-opacity="0.46"/>
<circle cx="468.0" cy="86.3" r="1.45" fill="#eab308" fill-opacity="0.46"/>
<circle cx="470.5" cy="86.3" r="1.45" fill="#eab308" fill-opacity="0.46"/>
<circle cx="472.9" cy="86.3" r="1.45" fill="#eab308" fill-opacity="0.46"/>
<circle cx="475.4" cy="95.9" r="1.45" fill="#eab308" fill-opacity="0.46"/>
<circle cx="477.9" cy="111.4" r="1.45" fill="#eab308" fill-opacity="0.46"/>
<circle cx="480.3" cy="106.9" r="1.45" fill="#eab308" fill-opacity="0.46"/>
<circle cx="482.8" cy="101.3" r="1.45" fill="#eab308" fill-opacity="0.46"/>
<circle cx="463.0" cy="93.7" r="1.45" fill="#eab308" fill-opacity="0.46"/>
<circle cx="465.5" cy="101.3" r="1.45" fill="#eab308" fill-opacity="0.46"/>
<circle cx="468.0" cy="105.9" r="1.45" fill="#eab308" fill-opacity="0.46"/>
<circle cx="470.5" cy="107.4" r="1.45" fill="#eab308" fill-opacity="0.46"/>
<circle cx="472.9" cy="110.2" r="1.45" fill="#eab308" fill-opacity="0.46"/>
<circle cx="475.4" cy="101.9" r="1.45" fill="#eab308" fill-opacity="0.46"/>
<circle cx="477.9" cy="87.0" r="1.45" fill="#eab308" fill-opacity="0.46"/>
<circle cx="480.3" cy="87.0" r="1.45" fill="#eab308" fill-opacity="0.46"/>
<circle cx="482.8" cy="87.0" r="1.45" fill="#eab308" fill-opacity="0.46"/>
<circle cx="463.0" cy="87.0" r="1.45" fill="#eab308" fill-opacity="0.46"/>
<circle cx="465.5" cy="87.0" r="1.45" fill="#eab308" fill-opacity="0.46"/>
<line x1="472.9" y1="86.3" x2="472.9" y2="111.4" stroke="#eab308" stroke-opacity="0.86" stroke-width="1.8"/>
<line x1="463.0" y1="86.3" x2="482.8" y2="86.3" stroke="#eab308" stroke-opacity="0.86" stroke-width="1.8"/>
<line x1="463.0" y1="111.4" x2="482.8" y2="111.4" stroke="#eab308" stroke-opacity="0.86" stroke-width="1.8"/>
<rect x="459.2" y="86.8" width="27.5" height="16.1" rx="2" fill="#eab308" fill-opacity="0.18" stroke="#eab308" stroke-opacity="0.9" stroke-width="1.8"/>
<line x1="459.2" y1="90.3" x2="486.7" y2="90.3" stroke="#eab308" stroke-opacity="0.96" stroke-width="2.6"/>
<text x="492.7" y="94.3" text-anchor="start" font-family="Inter,Segoe UI,Arial,sans-serif" font-size="11" font-weight="700" fill="#111827" stroke="#ffffff" stroke-width="3" paint-order="stroke">98.4%</text>
<text x="627.3" y="398" text-anchor="middle" font-family="Inter,Segoe UI,Arial,sans-serif" font-size="11" font-weight="700" fill="#111827">P</text>
<circle cx="546.5" cy="136.3" r="1.45" fill="#14532d" fill-opacity="0.46"/>
<circle cx="549.0" cy="129.1" r="1.45" fill="#14532d" fill-opacity="0.46"/>
<circle cx="551.5" cy="131.6" r="1.45" fill="#14532d" fill-opacity="0.46"/>
<circle cx="553.9" cy="131.3" r="1.45" fill="#14532d" fill-opacity="0.46"/>
<circle cx="556.4" cy="128.5" r="1.45" fill="#14532d" fill-opacity="0.46"/>
<circle cx="558.9" cy="117.6" r="1.45" fill="#14532d" fill-opacity="0.46"/>
<circle cx="561.3" cy="124.9" r="1.45" fill="#14532d" fill-opacity="0.46"/>
<circle cx="563.8" cy="116.4" r="1.45" fill="#14532d" fill-opacity="0.46"/>
<circle cx="566.3" cy="122.0" r="1.45" fill="#14532d" fill-opacity="0.46"/>
<circle cx="546.5" cy="115.5" r="1.45" fill="#14532d" fill-opacity="0.46"/>
<circle cx="549.0" cy="108.4" r="1.45" fill="#14532d" fill-opacity="0.46"/>
<circle cx="551.5" cy="115.8" r="1.45" fill="#14532d" fill-opacity="0.46"/>
<circle cx="553.9" cy="104.9" r="1.45" fill="#14532d" fill-opacity="0.46"/>
<circle cx="556.4" cy="99.4" r="1.45" fill="#14532d" fill-opacity="0.46"/>
<circle cx="558.9" cy="110.0" r="1.45" fill="#14532d" fill-opacity="0.46"/>
<line x1="556.4" y1="99.4" x2="556.4" y2="136.3" stroke="#14532d" stroke-opacity="0.86" stroke-width="1.8"/>
<line x1="546.5" y1="99.4" x2="566.3" y2="99.4" stroke="#14532d" stroke-opacity="0.86" stroke-width="1.8"/>
<line x1="546.5" y1="136.3" x2="566.3" y2="136.3" stroke="#14532d" stroke-opacity="0.86" stroke-width="1.8"/>
<rect x="542.7" y="112.8" width="27.5" height="16.0" rx="2" fill="#14532d" fill-opacity="0.18" stroke="#14532d" stroke-opacity="0.9" stroke-width="1.8"/>
<line x1="542.7" y1="117.6" x2="570.1" y2="117.6" stroke="#14532d" stroke-opacity="0.96" stroke-width="2.6"/>
<text x="576.1" y="121.6" text-anchor="start" font-family="Inter,Segoe UI,Arial,sans-serif" font-size="11" font-weight="700" fill="#111827" stroke="#ffffff" stroke-width="3" paint-order="stroke">88.2%</text>
<circle cx="582.0" cy="86.0" r="1.45" fill="#7c3aed" fill-opacity="0.46"/>
<circle cx="584.5" cy="86.0" r="1.45" fill="#7c3aed" fill-opacity="0.46"/>
<circle cx="586.9" cy="86.0" r="1.45" fill="#7c3aed" fill-opacity="0.46"/>
<circle cx="589.4" cy="86.0" r="1.45" fill="#7c3aed" fill-opacity="0.46"/>
<circle cx="591.9" cy="86.0" r="1.45" fill="#7c3aed" fill-opacity="0.46"/>
<circle cx="594.3" cy="86.0" r="1.45" fill="#7c3aed" fill-opacity="0.46"/>
<circle cx="596.8" cy="86.0" r="1.45" fill="#7c3aed" fill-opacity="0.46"/>
<circle cx="599.3" cy="86.0" r="1.45" fill="#7c3aed" fill-opacity="0.46"/>
<circle cx="601.8" cy="86.0" r="1.45" fill="#7c3aed" fill-opacity="0.46"/>
<circle cx="582.0" cy="86.0" r="1.45" fill="#7c3aed" fill-opacity="0.46"/>
<circle cx="584.5" cy="86.0" r="1.45" fill="#7c3aed" fill-opacity="0.46"/>
<circle cx="586.9" cy="86.0" r="1.45" fill="#7c3aed" fill-opacity="0.46"/>
<circle cx="589.4" cy="86.0" r="1.45" fill="#7c3aed" fill-opacity="0.46"/>
<circle cx="591.9" cy="86.0" r="1.45" fill="#7c3aed" fill-opacity="0.46"/>
<circle cx="594.3" cy="86.0" r="1.45" fill="#7c3aed" fill-opacity="0.46"/>
<line x1="591.9" y1="86.0" x2="591.9" y2="86.0" stroke="#7c3aed" stroke-opacity="0.86" stroke-width="1.8"/>
<line x1="582.0" y1="86.0" x2="601.8" y2="86.0" stroke="#7c3aed" stroke-opacity="0.86" stroke-width="1.8"/>
<line x1="582.0" y1="86.0" x2="601.8" y2="86.0" stroke="#7c3aed" stroke-opacity="0.86" stroke-width="1.8"/>
<rect x="578.1" y="86.0" width="27.5" height="1.0" rx="2" fill="#7c3aed" fill-opacity="0.18" stroke="#7c3aed" stroke-opacity="0.9" stroke-width="1.8"/>
<line x1="578.1" y1="86.0" x2="605.6" y2="86.0" stroke="#7c3aed" stroke-opacity="0.96" stroke-width="2.6"/>
<text x="611.6" y="90.0" text-anchor="start" font-family="Inter,Segoe UI,Arial,sans-serif" font-size="11" font-weight="700" fill="#111827" stroke="#ffffff" stroke-width="3" paint-order="stroke">100.0%</text>
<circle cx="617.4" cy="86.0" r="1.45" fill="#1e3a8a" fill-opacity="0.46"/>
<circle cx="619.9" cy="86.0" r="1.45" fill="#1e3a8a" fill-opacity="0.46"/>
<circle cx="622.4" cy="86.0" r="1.45" fill="#1e3a8a" fill-opacity="0.46"/>
<circle cx="624.9" cy="86.0" r="1.45" fill="#1e3a8a" fill-opacity="0.46"/>
<circle cx="627.3" cy="86.0" r="1.45" fill="#1e3a8a" fill-opacity="0.46"/>
<circle cx="629.8" cy="86.0" r="1.45" fill="#1e3a8a" fill-opacity="0.46"/>
<circle cx="632.3" cy="86.0" r="1.45" fill="#1e3a8a" fill-opacity="0.46"/>
<circle cx="634.7" cy="86.0" r="1.45" fill="#1e3a8a" fill-opacity="0.46"/>
<circle cx="637.2" cy="86.0" r="1.45" fill="#1e3a8a" fill-opacity="0.46"/>
<circle cx="617.4" cy="86.0" r="1.45" fill="#1e3a8a" fill-opacity="0.46"/>
<circle cx="619.9" cy="86.0" r="1.45" fill="#1e3a8a" fill-opacity="0.46"/>
<circle cx="622.4" cy="86.0" r="1.45" fill="#1e3a8a" fill-opacity="0.46"/>
<circle cx="624.9" cy="86.0" r="1.45" fill="#1e3a8a" fill-opacity="0.46"/>
<circle cx="627.3" cy="86.0" r="1.45" fill="#1e3a8a" fill-opacity="0.46"/>
<circle cx="629.8" cy="86.0" r="1.45" fill="#1e3a8a" fill-opacity="0.46"/>
<line x1="627.3" y1="86.0" x2="627.3" y2="86.0" stroke="#1e3a8a" stroke-opacity="0.86" stroke-width="1.8"/>
<line x1="617.4" y1="86.0" x2="637.2" y2="86.0" stroke="#1e3a8a" stroke-opacity="0.86" stroke-width="1.8"/>
<line x1="617.4" y1="86.0" x2="637.2" y2="86.0" stroke="#1e3a8a" stroke-opacity="0.86" stroke-width="1.8"/>
<rect x="613.6" y="86.0" width="27.5" height="1.0" rx="2" fill="#1e3a8a" fill-opacity="0.18" stroke="#1e3a8a" stroke-opacity="0.9" stroke-width="1.8"/>
<line x1="613.6" y1="86.0" x2="641.1" y2="86.0" stroke="#1e3a8a" stroke-opacity="0.96" stroke-width="2.6"/>
<text x="647.1" y="90.0" text-anchor="start" font-family="Inter,Segoe UI,Arial,sans-serif" font-size="11" font-weight="700" fill="#111827" stroke="#ffffff" stroke-width="3" paint-order="stroke">100.0%</text>
<circle cx="652.9" cy="127.5" r="1.45" fill="#f97316" fill-opacity="0.46"/>
<circle cx="655.4" cy="134.7" r="1.45" fill="#f97316" fill-opacity="0.46"/>
<circle cx="657.9" cy="102.9" r="1.45" fill="#f97316" fill-opacity="0.46"/>
<circle cx="660.3" cy="150.8" r="1.45" fill="#f97316" fill-opacity="0.46"/>
<circle cx="662.8" cy="130.3" r="1.45" fill="#f97316" fill-opacity="0.46"/>
<circle cx="665.3" cy="157.3" r="1.45" fill="#f97316" fill-opacity="0.46"/>
<circle cx="667.7" cy="156.4" r="1.45" fill="#f97316" fill-opacity="0.46"/>
<circle cx="670.2" cy="121.9" r="1.45" fill="#f97316" fill-opacity="0.46"/>
<circle cx="672.7" cy="150.0" r="1.45" fill="#f97316" fill-opacity="0.46"/>
<circle cx="652.9" cy="100.9" r="1.45" fill="#f97316" fill-opacity="0.46"/>
<circle cx="655.4" cy="147.9" r="1.45" fill="#f97316" fill-opacity="0.46"/>
<circle cx="657.9" cy="140.0" r="1.45" fill="#f97316" fill-opacity="0.46"/>
<circle cx="660.3" cy="142.5" r="1.45" fill="#f97316" fill-opacity="0.46"/>
<circle cx="662.8" cy="140.1" r="1.45" fill="#f97316" fill-opacity="0.46"/>
<circle cx="665.3" cy="174.0" r="1.45" fill="#f97316" fill-opacity="0.46"/>
<line x1="662.8" y1="100.9" x2="662.8" y2="174.0" stroke="#f97316" stroke-opacity="0.86" stroke-width="1.8"/>
<line x1="652.9" y1="100.9" x2="672.7" y2="100.9" stroke="#f97316" stroke-opacity="0.86" stroke-width="1.8"/>
<line x1="652.9" y1="174.0" x2="672.7" y2="174.0" stroke="#f97316" stroke-opacity="0.86" stroke-width="1.8"/>
<rect x="649.1" y="128.9" width="27.5" height="21.5" rx="2" fill="#f97316" fill-opacity="0.18" stroke="#f97316" stroke-opacity="0.9" stroke-width="1.8"/>
<line x1="649.1" y1="140.1" x2="676.5" y2="140.1" stroke="#f97316" stroke-opacity="0.96" stroke-width="2.6"/>
<text x="682.5" y="144.1" text-anchor="start" font-family="Inter,Segoe UI,Arial,sans-serif" font-size="11" font-weight="700" fill="#111827" stroke="#ffffff" stroke-width="3" paint-order="stroke">79.8%</text>
<circle cx="688.4" cy="95.2" r="1.45" fill="#eab308" fill-opacity="0.46"/>
<circle cx="690.9" cy="102.2" r="1.45" fill="#eab308" fill-opacity="0.46"/>
<circle cx="693.3" cy="103.5" r="1.45" fill="#eab308" fill-opacity="0.46"/>
<circle cx="695.8" cy="93.9" r="1.45" fill="#eab308" fill-opacity="0.46"/>
<circle cx="698.3" cy="115.1" r="1.45" fill="#eab308" fill-opacity="0.46"/>
<circle cx="700.7" cy="119.1" r="1.45" fill="#eab308" fill-opacity="0.46"/>
<circle cx="703.2" cy="114.2" r="1.45" fill="#eab308" fill-opacity="0.46"/>
<circle cx="705.7" cy="120.5" r="1.45" fill="#eab308" fill-opacity="0.46"/>
<circle cx="708.2" cy="108.1" r="1.45" fill="#eab308" fill-opacity="0.46"/>
<circle cx="688.4" cy="117.4" r="1.45" fill="#eab308" fill-opacity="0.46"/>
<circle cx="690.9" cy="109.7" r="1.45" fill="#eab308" fill-opacity="0.46"/>
<circle cx="693.3" cy="107.5" r="1.45" fill="#eab308" fill-opacity="0.46"/>
<circle cx="695.8" cy="127.4" r="1.45" fill="#eab308" fill-opacity="0.46"/>
<circle cx="698.3" cy="112.0" r="1.45" fill="#eab308" fill-opacity="0.46"/>
<circle cx="700.7" cy="114.2" r="1.45" fill="#eab308" fill-opacity="0.46"/>
<line x1="698.3" y1="93.9" x2="698.3" y2="127.4" stroke="#eab308" stroke-opacity="0.86" stroke-width="1.8"/>
<line x1="688.4" y1="93.9" x2="708.2" y2="93.9" stroke="#eab308" stroke-opacity="0.86" stroke-width="1.8"/>
<line x1="688.4" y1="127.4" x2="708.2" y2="127.4" stroke="#eab308" stroke-opacity="0.86" stroke-width="1.8"/>
<rect x="684.5" y="105.5" width="27.5" height="10.8" rx="2" fill="#eab308" fill-opacity="0.18" stroke="#eab308" stroke-opacity="0.9" stroke-width="1.8"/>
<line x1="684.5" y1="112.0" x2="712.0" y2="112.0" stroke="#eab308" stroke-opacity="0.96" stroke-width="2.6"/>
<text x="718.0" y="116.0" text-anchor="start" font-family="Inter,Segoe UI,Arial,sans-serif" font-size="11" font-weight="700" fill="#111827" stroke="#ffffff" stroke-width="3" paint-order="stroke">90.3%</text>
<rect x="64.0" y="433" width="10" height="10" rx="2" fill="#14532d" fill-opacity="0.72"/>
<text x="78.0" y="442" font-family="Inter,Segoe UI,Arial,sans-serif" font-size="10" fill="#374151">MTPLX 0.3.7</text>
<rect x="199.2" y="433" width="10" height="10" rx="2" fill="#7c3aed" fill-opacity="0.72"/>
<text x="213.2" y="442" font-family="Inter,Segoe UI,Arial,sans-serif" font-size="10" fill="#374151">Lightning v0.6.10</text>
<rect x="334.4" y="433" width="10" height="10" rx="2" fill="#1e3a8a" fill-opacity="0.72"/>
<text x="348.4" y="442" font-family="Inter,Segoe UI,Arial,sans-serif" font-size="10" fill="#374151">Lightning+ng v0.6.10</text>
<rect x="469.6" y="433" width="10" height="10" rx="2" fill="#f97316" fill-opacity="0.72"/>
<text x="483.6" y="442" font-family="Inter,Segoe UI,Arial,sans-serif" font-size="10" fill="#374151">AX Engine v5.1.1</text>
<rect x="604.8" y="433" width="10" height="10" rx="2" fill="#eab308" fill-opacity="0.72"/>
<text x="618.8" y="442" font-family="Inter,Segoe UI,Arial,sans-serif" font-size="10" fill="#374151">AX+ngram v5.1.1</text>
</svg>
