<svg xmlns="http://www.w3.org/2000/svg" width="1080" height="776" viewBox="0 0 1080 776" role="img" aria-labelledby="title desc">
<title id="title">AX MTP decode (2026-07-13): MTP off vs MTP on</title>
<desc id="desc">Horizontal grouped bar chart comparing AX direct decode throughput with MTP off against AX MTP decode throughput with MTP on for each supported 6-bit AX MTP package and prompt suite. The winning throughput label in each row is red.</desc>
<rect width="1080" height="776" fill="#ffffff"/>
<text x="72" y="32" font-family="Inter,Segoe UI,Arial,sans-serif" font-size="20" font-weight="700" fill="#111827">AX MTP decode (2026-07-13): MTP off vs MTP on</text>
<text x="72" y="54" font-family="Inter,Segoe UI,Arial,sans-serif" font-size="12" fill="#4b5563">Each row compares the same prepared 6-bit package and prompt suite: AX direct has MTP off; AX MTP has MTP on.</text>
<text x="1008" y="54" text-anchor="end" font-family="Inter,Segoe UI,Arial,sans-serif" font-size="11" font-weight="700" fill="#374151">Decode throughput, tok/s</text>
<line x1="210.0" y1="68" x2="210.0" y2="674.0" stroke="#9ca3af" stroke-width="1.4"/>
<text x="210.0" y="692.0" text-anchor="middle" font-family="Inter,Segoe UI,Arial,sans-serif" font-size="11" fill="#4b5563">0</text>
<line x1="409.5" y1="68" x2="409.5" y2="674.0" stroke="#d1d5db" stroke-width="1.2"/>
<text x="409.5" y="692.0" text-anchor="middle" font-family="Inter,Segoe UI,Arial,sans-serif" font-size="11" fill="#4b5563">40</text>
<line x1="609.0" y1="68" x2="609.0" y2="674.0" stroke="#d1d5db" stroke-width="1.2"/>
<text x="609.0" y="692.0" text-anchor="middle" font-family="Inter,Segoe UI,Arial,sans-serif" font-size="11" fill="#4b5563">80</text>
<line x1="808.5" y1="68" x2="808.5" y2="674.0" stroke="#d1d5db" stroke-width="1.2"/>
<text x="808.5" y="692.0" text-anchor="middle" font-family="Inter,Segoe UI,Arial,sans-serif" font-size="11" fill="#4b5563">120</text>
<line x1="1008.0" y1="68" x2="1008.0" y2="674.0" stroke="#d1d5db" stroke-width="1.2"/>
<text x="1008.0" y="692.0" text-anchor="middle" font-family="Inter,Segoe UI,Arial,sans-serif" font-size="11" fill="#4b5563">160</text>
<text x="609.0" y="714.0" text-anchor="middle" font-family="Inter,Segoe UI,Arial,sans-serif" font-size="11" font-weight="700" fill="#dc2626">Higher is better</text>
<rect x="72" y="70" width="12" height="12" rx="2" fill="#2eaf5f"/>
<text x="90" y="80" font-family="Inter,Segoe UI,Arial,sans-serif" font-size="12" fill="#374151">MTP off / AX direct</text>
<rect x="232" y="70" width="12" height="12" rx="2" fill="#c084fc"/>
<text x="250" y="80" font-family="Inter,Segoe UI,Arial,sans-serif" font-size="12" fill="#374151">MTP on / AX MTP</text>
<text x="72" y="100.0" font-family="Inter,Segoe UI,Arial,sans-serif" font-size="11" fill="#111827"><tspan x="72" y="100.0" font-weight="700">Qwen3.6 27B</tspan><tspan x="72" y="114.0" font-size="10" fill="#4b5563">flappy</tspan></text>
<rect x="210" y="91.0" width="112.9" height="10" rx="2" fill="#2eaf5f"/>
<rect x="210" y="104.0" width="300.3" height="10" rx="2" fill="#c084fc"/>
<text x="327.9" y="99.0" font-family="Inter,Segoe UI,Arial,sans-serif" font-size="10" font-weight="700" fill="#176c37">22.6</text>
<text x="515.3" y="112.0" font-family="Inter,Segoe UI,Arial,sans-serif" font-size="10" font-weight="700" fill="#dc2626">60.2</text>
<text x="72" y="132.0" font-family="Inter,Segoe UI,Arial,sans-serif" font-size="11" fill="#111827"><tspan x="72" y="132.0" font-weight="700">Qwen3.6 27B</tspan><tspan x="72" y="146.0" font-size="10" fill="#4b5563">long_code</tspan></text>
<rect x="210" y="123.0" width="114.4" height="10" rx="2" fill="#2eaf5f"/>
<rect x="210" y="136.0" width="256.6" height="10" rx="2" fill="#c084fc"/>
<text x="329.4" y="131.0" font-family="Inter,Segoe UI,Arial,sans-serif" font-size="10" font-weight="700" fill="#176c37">22.9</text>
<text x="471.6" y="144.0" font-family="Inter,Segoe UI,Arial,sans-serif" font-size="10" font-weight="700" fill="#dc2626">51.4</text>
<text x="72" y="164.0" font-family="Inter,Segoe UI,Arial,sans-serif" font-size="11" fill="#111827"><tspan x="72" y="164.0" font-weight="700">Qwen3.6 27B</tspan><tspan x="72" y="178.0" font-size="10" fill="#4b5563">python_modules</tspan></text>
<rect x="210" y="155.0" width="114.7" height="10" rx="2" fill="#2eaf5f"/>
<rect x="210" y="168.0" width="212.4" height="10" rx="2" fill="#c084fc"/>
<text x="329.7" y="163.0" font-family="Inter,Segoe UI,Arial,sans-serif" font-size="10" font-weight="700" fill="#176c37">23.0</text>
<text x="427.4" y="176.0" font-family="Inter,Segoe UI,Arial,sans-serif" font-size="10" font-weight="700" fill="#dc2626">42.6</text>
<line x1="72" y1="193.0" x2="1008" y2="193.0" stroke="#eef2f7" stroke-width="1"/>
<text x="72" y="214.0" font-family="Inter,Segoe UI,Arial,sans-serif" font-size="11" fill="#111827"><tspan x="72" y="214.0" font-weight="700">Qwen3.6 35B-A3B</tspan><tspan x="72" y="228.0" font-size="10" fill="#4b5563">flappy</tspan></text>
<rect x="210" y="205.0" width="469.0" height="10" rx="2" fill="#2eaf5f"/>
<rect x="210" y="218.0" width="672.7" height="10" rx="2" fill="#c084fc"/>
<text x="684.0" y="213.0" font-family="Inter,Segoe UI,Arial,sans-serif" font-size="10" font-weight="700" fill="#176c37">94.0</text>
<text x="887.7" y="226.0" font-family="Inter,Segoe UI,Arial,sans-serif" font-size="10" font-weight="700" fill="#dc2626">134.9</text>
<text x="72" y="246.0" font-family="Inter,Segoe UI,Arial,sans-serif" font-size="11" fill="#111827"><tspan x="72" y="246.0" font-weight="700">Qwen3.6 35B-A3B</tspan><tspan x="72" y="260.0" font-size="10" fill="#4b5563">long_code</tspan></text>
<rect x="210" y="237.0" width="486.1" height="10" rx="2" fill="#2eaf5f"/>
<rect x="210" y="250.0" width="683.5" height="10" rx="2" fill="#c084fc"/>
<text x="701.1" y="245.0" font-family="Inter,Segoe UI,Arial,sans-serif" font-size="10" font-weight="700" fill="#176c37">97.5</text>
<text x="898.5" y="258.0" font-family="Inter,Segoe UI,Arial,sans-serif" font-size="10" font-weight="700" fill="#dc2626">137.0</text>
<text x="72" y="278.0" font-family="Inter,Segoe UI,Arial,sans-serif" font-size="11" fill="#111827"><tspan x="72" y="278.0" font-weight="700">Qwen3.6 35B-A3B</tspan><tspan x="72" y="292.0" font-size="10" fill="#4b5563">python_modules</tspan></text>
<rect x="210" y="269.0" width="482.6" height="10" rx="2" fill="#2eaf5f"/>
<rect x="210" y="282.0" width="696.2" height="10" rx="2" fill="#c084fc"/>
<text x="697.6" y="277.0" font-family="Inter,Segoe UI,Arial,sans-serif" font-size="10" font-weight="700" fill="#176c37">96.8</text>
<text x="911.2" y="290.0" font-family="Inter,Segoe UI,Arial,sans-serif" font-size="10" font-weight="700" fill="#dc2626">139.6</text>
<line x1="72" y1="307.0" x2="1008" y2="307.0" stroke="#eef2f7" stroke-width="1"/>
<text x="72" y="328.0" font-family="Inter,Segoe UI,Arial,sans-serif" font-size="11" fill="#111827"><tspan x="72" y="328.0" font-weight="700">Gemma 4 12B</tspan><tspan x="72" y="342.0" font-size="10" fill="#4b5563">flappy</tspan></text>
<rect x="210" y="319.0" width="189.2" height="10" rx="2" fill="#2eaf5f"/>
<rect x="210" y="332.0" width="476.7" height="10" rx="2" fill="#c084fc"/>
<text x="404.2" y="327.0" font-family="Inter,Segoe UI,Arial,sans-serif" font-size="10" font-weight="700" fill="#176c37">37.9</text>
<text x="691.7" y="340.0" font-family="Inter,Segoe UI,Arial,sans-serif" font-size="10" font-weight="700" fill="#dc2626">95.6</text>
<text x="72" y="360.0" font-family="Inter,Segoe UI,Arial,sans-serif" font-size="11" fill="#111827"><tspan x="72" y="360.0" font-weight="700">Gemma 4 12B</tspan><tspan x="72" y="374.0" font-size="10" fill="#4b5563">long_code</tspan></text>
<rect x="210" y="351.0" width="187.2" height="10" rx="2" fill="#2eaf5f"/>
<rect x="210" y="364.0" width="467.5" height="10" rx="2" fill="#c084fc"/>
<text x="402.2" y="359.0" font-family="Inter,Segoe UI,Arial,sans-serif" font-size="10" font-weight="700" fill="#176c37">37.5</text>
<text x="682.5" y="372.0" font-family="Inter,Segoe UI,Arial,sans-serif" font-size="10" font-weight="700" fill="#dc2626">93.7</text>
<text x="72" y="392.0" font-family="Inter,Segoe UI,Arial,sans-serif" font-size="11" fill="#111827"><tspan x="72" y="392.0" font-weight="700">Gemma 4 12B</tspan><tspan x="72" y="406.0" font-size="10" fill="#4b5563">python_modules</tspan></text>
<rect x="210" y="383.0" width="189.2" height="10" rx="2" fill="#2eaf5f"/>
<rect x="210" y="396.0" width="373.7" height="10" rx="2" fill="#c084fc"/>
<text x="404.2" y="391.0" font-family="Inter,Segoe UI,Arial,sans-serif" font-size="10" font-weight="700" fill="#176c37">37.9</text>
<text x="588.7" y="404.0" font-family="Inter,Segoe UI,Arial,sans-serif" font-size="10" font-weight="700" fill="#dc2626">74.9</text>
<line x1="72" y1="421.0" x2="1008" y2="421.0" stroke="#eef2f7" stroke-width="1"/>
<text x="72" y="442.0" font-family="Inter,Segoe UI,Arial,sans-serif" font-size="11" fill="#111827"><tspan x="72" y="442.0" font-weight="700">Gemma 4 26B</tspan><tspan x="72" y="456.0" font-size="10" fill="#4b5563">flappy</tspan></text>
<rect x="210" y="433.0" width="439.4" height="10" rx="2" fill="#2eaf5f"/>
<rect x="210" y="446.0" width="719.6" height="10" rx="2" fill="#c084fc"/>
<text x="654.4" y="441.0" font-family="Inter,Segoe UI,Arial,sans-serif" font-size="10" font-weight="700" fill="#176c37">88.1</text>
<text x="934.6" y="454.0" font-family="Inter,Segoe UI,Arial,sans-serif" font-size="10" font-weight="700" fill="#dc2626">144.3</text>
<text x="72" y="474.0" font-family="Inter,Segoe UI,Arial,sans-serif" font-size="11" fill="#111827"><tspan x="72" y="474.0" font-weight="700">Gemma 4 26B</tspan><tspan x="72" y="488.0" font-size="10" fill="#4b5563">long_code</tspan></text>
<rect x="210" y="465.0" width="439.6" height="10" rx="2" fill="#2eaf5f"/>
<rect x="210" y="478.0" width="707.7" height="10" rx="2" fill="#c084fc"/>
<text x="654.6" y="473.0" font-family="Inter,Segoe UI,Arial,sans-serif" font-size="10" font-weight="700" fill="#176c37">88.1</text>
<text x="922.7" y="486.0" font-family="Inter,Segoe UI,Arial,sans-serif" font-size="10" font-weight="700" fill="#dc2626">141.9</text>
<text x="72" y="506.0" font-family="Inter,Segoe UI,Arial,sans-serif" font-size="11" fill="#111827"><tspan x="72" y="506.0" font-weight="700">Gemma 4 26B</tspan><tspan x="72" y="520.0" font-size="10" fill="#4b5563">python_modules</tspan></text>
<rect x="210" y="497.0" width="445.4" height="10" rx="2" fill="#2eaf5f"/>
<rect x="210" y="510.0" width="650.2" height="10" rx="2" fill="#c084fc"/>
<text x="660.4" y="505.0" font-family="Inter,Segoe UI,Arial,sans-serif" font-size="10" font-weight="700" fill="#176c37">89.3</text>
<text x="865.2" y="518.0" font-family="Inter,Segoe UI,Arial,sans-serif" font-size="10" font-weight="700" fill="#dc2626">130.4</text>
<line x1="72" y1="535.0" x2="1008" y2="535.0" stroke="#eef2f7" stroke-width="1"/>
<text x="72" y="556.0" font-family="Inter,Segoe UI,Arial,sans-serif" font-size="11" fill="#111827"><tspan x="72" y="556.0" font-weight="700">Gemma 4 31B</tspan><tspan x="72" y="570.0" font-size="10" fill="#4b5563">flappy</tspan></text>
<rect x="210" y="547.0" width="88.4" height="10" rx="2" fill="#2eaf5f"/>
<rect x="210" y="560.0" width="221.4" height="10" rx="2" fill="#c084fc"/>
<text x="303.4" y="555.0" font-family="Inter,Segoe UI,Arial,sans-serif" font-size="10" font-weight="700" fill="#176c37">17.7</text>
<text x="436.4" y="568.0" font-family="Inter,Segoe UI,Arial,sans-serif" font-size="10" font-weight="700" fill="#dc2626">44.4</text>
<text x="72" y="588.0" font-family="Inter,Segoe UI,Arial,sans-serif" font-size="11" fill="#111827"><tspan x="72" y="588.0" font-weight="700">Gemma 4 31B</tspan><tspan x="72" y="602.0" font-size="10" fill="#4b5563">long_code</tspan></text>
<rect x="210" y="579.0" width="88.7" height="10" rx="2" fill="#2eaf5f"/>
<rect x="210" y="592.0" width="219.6" height="10" rx="2" fill="#c084fc"/>
<text x="303.7" y="587.0" font-family="Inter,Segoe UI,Arial,sans-serif" font-size="10" font-weight="700" fill="#176c37">17.8</text>
<text x="434.6" y="600.0" font-family="Inter,Segoe UI,Arial,sans-serif" font-size="10" font-weight="700" fill="#dc2626">44.0</text>
<text x="72" y="620.0" font-family="Inter,Segoe UI,Arial,sans-serif" font-size="11" fill="#111827"><tspan x="72" y="620.0" font-weight="700">Gemma 4 31B</tspan><tspan x="72" y="634.0" font-size="10" fill="#4b5563">python_modules</tspan></text>
<rect x="210" y="611.0" width="89.4" height="10" rx="2" fill="#2eaf5f"/>
<rect x="210" y="624.0" width="192.0" height="10" rx="2" fill="#c084fc"/>
<text x="304.4" y="619.0" font-family="Inter,Segoe UI,Arial,sans-serif" font-size="10" font-weight="700" fill="#176c37">17.9</text>
<text x="407.0" y="632.0" font-family="Inter,Segoe UI,Arial,sans-serif" font-size="10" font-weight="700" fill="#dc2626">38.5</text>
<text x="72" y="734.0" font-family="Inter,Segoe UI,Arial,sans-serif" font-size="10" fill="#6b7280">Runtime: AX Engine v6.8.2 (2026-07-13); MLX 0.32.0 / mlx-lm 0.31.3.</text>
<text x="72" y="750.0" font-family="Inter,Segoe UI,Arial,sans-serif" font-size="10" fill="#6b7280">Source: benchmarks/results/speculative/mtp-6bit/2026-07-13-exact-mtp-sampled-flappy-clean / summary.json. Pure MTP; no MTP+n-gram stacking.</text>
</svg>
