<svg xmlns="http://www.w3.org/2000/svg" width="540" height="278" viewBox="0 0 540 278" role="img" aria-labelledby="title desc"><title>Gemma 4 — Decode rate</title><desc>Grouped box-and-whisker plot comparing llama.cpp, mlx_lm, ax_engine, ax+n-gram at 128/512/2048 prompt tokens for Gemma 4 models. A red dotted line marks the highest median.</desc><rect width="540" height="278" fill="#ffffff"/><text x="52" y="22" font-family="Inter,Segoe UI,Arial,sans-serif" font-size="16" font-weight="700" fill="#111827">Gemma 4 — Decode rate</text><text x="52" y="40" font-family="Inter,Segoe UI,Arial,sans-serif" font-size="10" fill="#6b7280">AX n-gram is the default policy</text><text x="524" y="22" text-anchor="end" font-family="Inter,Segoe UI,Arial,sans-serif" font-size="10" fill="#6b7280">tok/s</text><text x="524" y="40" text-anchor="end" font-family="Inter,Segoe UI,Arial,sans-serif" font-size="10" font-weight="700" fill="#374151">Higher is better</text><line x1="52" y1="214.0" x2="524" y2="214.0" stroke="#e5e7eb" stroke-width="1"/><text x="44" y="217.0" text-anchor="end" font-family="Inter,Segoe UI,Arial,sans-serif" font-size="10" fill="#6b7280">0</text><line x1="52" y1="130.0" x2="524" y2="130.0" stroke="#e5e7eb" stroke-width="1"/><text x="44" y="133.0" text-anchor="end" font-family="Inter,Segoe UI,Arial,sans-serif" font-size="10" fill="#6b7280">375</text><line x1="52" y1="46.0" x2="524" y2="46.0" stroke="#e5e7eb" stroke-width="1"/><text x="44" y="49.0" text-anchor="end" font-family="Inter,Segoe UI,Arial,sans-serif" font-size="10" fill="#6b7280">750</text><line x1="52" y1="124.4" x2="524" y2="124.4" stroke="#dc2626" stroke-width="1.2" stroke-dasharray="1 4" stroke-linecap="round"/><line x1="81" y1="175.9" x2="81" y2="208.3" stroke="#f97316" stroke-opacity="0.55" stroke-width="1.7"/><line x1="75.24" y1="175.9" x2="86.76" y2="175.9" stroke="#f97316" stroke-opacity="0.55" stroke-width="1.7"/><line x1="75.24" y1="208.3" x2="86.76" y2="208.3" stroke="#f97316" stroke-opacity="0.55" stroke-width="1.7"/><rect x="73" y="178.8" width="16" height="10.2" rx="2" fill="#f97316" fill-opacity="0.08" stroke="#f97316" stroke-opacity="0.55" stroke-width="1.7"/><line x1="73" y1="183.7" x2="89" y2="183.7" stroke="#f97316" stroke-opacity="0.55" stroke-width="2.4"/><text x="81" y="229" text-anchor="middle" font-family="Inter,Segoe UI,Arial,sans-serif" font-size="8" fill="#6b7280">128</text><circle cx="78" cy="175.9" r="1.4" fill="#c2410c" fill-opacity="0.5"/><circle cx="79.5" cy="178.2" r="1.4" fill="#c2410c" fill-opacity="0.5"/><circle cx="81" cy="179.5" r="1.4" fill="#c2410c" fill-opacity="0.5"/><circle cx="82.5" cy="183.7" r="1.4" fill="#c2410c" fill-opacity="0.5"/><circle cx="84" cy="189.2" r="1.4" fill="#c2410c" fill-opacity="0.5"/><circle cx="78" cy="188.7" r="1.4" fill="#c2410c" fill-opacity="0.5"/><circle cx="79.5" cy="208.3" r="1.4" fill="#c2410c" fill-opacity="0.5"/><line x1="111" y1="175.6" x2="111" y2="208.5" stroke="#f97316" stroke-opacity="0.78" stroke-width="1.7"/><line x1="105.24" y1="175.6" x2="116.76" y2="175.6" stroke="#f97316" stroke-opacity="0.78" stroke-width="1.7"/><line x1="105.24" y1="208.5" x2="116.76" y2="208.5" stroke="#f97316" stroke-opacity="0.78" stroke-width="1.7"/><rect x="103" y="179.0" width="16" height="10.0" rx="2" fill="#f97316" fill-opacity="0.17" stroke="#f97316" stroke-opacity="0.78" stroke-width="1.7"/><line x1="103" y1="182.5" x2="119" y2="182.5" stroke="#f97316" stroke-opacity="0.78" stroke-width="2.4"/><text x="111" y="229" text-anchor="middle" font-family="Inter,Segoe UI,Arial,sans-serif" font-size="8" fill="#6b7280">512</text><circle cx="108" cy="175.6" r="1.4" fill="#c2410c" fill-opacity="0.7"/><circle cx="109.5" cy="178.4" r="1.4" fill="#c2410c" fill-opacity="0.7"/><circle cx="111" cy="179.7" r="1.4" fill="#c2410c" fill-opacity="0.7"/><circle cx="112.5" cy="182.5" r="1.4" fill="#c2410c" fill-opacity="0.7"/><circle cx="114" cy="189.3" r="1.4" fill="#c2410c" fill-opacity="0.7"/><circle cx="108" cy="188.8" r="1.4" fill="#c2410c" fill-opacity="0.7"/><circle cx="109.5" cy="208.5" r="1.4" fill="#c2410c" fill-opacity="0.7"/><line x1="141" y1="175.5" x2="141" y2="208.6" stroke="#f97316" stroke-opacity="1.0" stroke-width="1.7"/><line x1="135.24" y1="175.5" x2="146.76" y2="175.5" stroke="#f97316" stroke-opacity="1.0" stroke-width="1.7"/><line x1="135.24" y1="208.6" x2="146.76" y2="208.6" stroke="#f97316" stroke-opacity="1.0" stroke-width="1.7"/><rect x="133" y="178.9" width="16" height="10.1" rx="2" fill="#f97316" fill-opacity="0.3" stroke="#f97316" stroke-opacity="1.0" stroke-width="1.7"/><line x1="133" y1="182.6" x2="149" y2="182.6" stroke="#f97316" stroke-opacity="1.0" stroke-width="2.4"/><text x="141" y="229" text-anchor="middle" font-family="Inter,Segoe UI,Arial,sans-serif" font-size="8" fill="#6b7280">2048</text><circle cx="138" cy="175.5" r="1.4" fill="#c2410c" fill-opacity="0.9"/><circle cx="139.5" cy="178.3" r="1.4" fill="#c2410c" fill-opacity="0.9"/><circle cx="141" cy="179.5" r="1.4" fill="#c2410c" fill-opacity="0.9"/><circle cx="142.5" cy="182.6" r="1.4" fill="#c2410c" fill-opacity="0.9"/><circle cx="144" cy="189.2" r="1.4" fill="#c2410c" fill-opacity="0.9"/><circle cx="138" cy="188.8" r="1.4" fill="#c2410c" fill-opacity="0.9"/><circle cx="139.5" cy="208.6" r="1.4" fill="#c2410c" fill-opacity="0.9"/><text x="111" y="246" text-anchor="middle" font-family="Inter,Segoe UI,Arial,sans-serif" font-size="9" font-weight="700" fill="#111827">llama.cpp</text><line x1="199" y1="166.1" x2="199" y2="207.5" stroke="#f2b705" stroke-opacity="0.55" stroke-width="1.7"/><line x1="193.24" y1="166.1" x2="204.76" y2="166.1" stroke="#f2b705" stroke-opacity="0.55" stroke-width="1.7"/><line x1="193.24" y1="207.5" x2="204.76" y2="207.5" stroke="#f2b705" stroke-opacity="0.55" stroke-width="1.7"/><rect x="191" y="172.9" width="16" height="11.5" rx="2" fill="#f2b705" fill-opacity="0.08" stroke="#f2b705" stroke-opacity="0.55" stroke-width="1.7"/><line x1="191" y1="179.7" x2="207" y2="179.7" stroke="#f2b705" stroke-opacity="0.55" stroke-width="2.4"/><text x="199" y="229" text-anchor="middle" font-family="Inter,Segoe UI,Arial,sans-serif" font-size="8" fill="#6b7280">128</text><circle cx="196" cy="166.1" r="1.4" fill="#9a6a00" fill-opacity="0.5"/><circle cx="197.5" cy="170.3" r="1.4" fill="#9a6a00" fill-opacity="0.5"/><circle cx="199" cy="175.4" r="1.4" fill="#9a6a00" fill-opacity="0.5"/><circle cx="200.5" cy="179.7" r="1.4" fill="#9a6a00" fill-opacity="0.5"/><circle cx="202" cy="183.3" r="1.4" fill="#9a6a00" fill-opacity="0.5"/><circle cx="196" cy="185.3" r="1.4" fill="#9a6a00" fill-opacity="0.5"/><circle cx="197.5" cy="207.5" r="1.4" fill="#9a6a00" fill-opacity="0.5"/><line x1="229" y1="166.9" x2="229" y2="207.7" stroke="#f2b705" stroke-opacity="0.78" stroke-width="1.7"/><line x1="223.24" y1="166.9" x2="234.76" y2="166.9" stroke="#f2b705" stroke-opacity="0.78" stroke-width="1.7"/><line x1="223.24" y1="207.7" x2="234.76" y2="207.7" stroke="#f2b705" stroke-opacity="0.78" stroke-width="1.7"/><rect x="221" y="175.0" width="16" height="10.1" rx="2" fill="#f2b705" fill-opacity="0.17" stroke="#f2b705" stroke-opacity="0.78" stroke-width="1.7"/><line x1="221" y1="180.7" x2="237" y2="180.7" stroke="#f2b705" stroke-opacity="0.78" stroke-width="2.4"/><text x="229" y="229" text-anchor="middle" font-family="Inter,Segoe UI,Arial,sans-serif" font-size="8" fill="#6b7280">512</text><circle cx="226" cy="166.9" r="1.4" fill="#9a6a00" fill-opacity="0.7"/><circle cx="227.5" cy="173.2" r="1.4" fill="#9a6a00" fill-opacity="0.7"/><circle cx="229" cy="176.7" r="1.4" fill="#9a6a00" fill-opacity="0.7"/><circle cx="230.5" cy="180.7" r="1.4" fill="#9a6a00" fill-opacity="0.7"/><circle cx="232" cy="184.1" r="1.4" fill="#9a6a00" fill-opacity="0.7"/><circle cx="226" cy="186.0" r="1.4" fill="#9a6a00" fill-opacity="0.7"/><circle cx="227.5" cy="207.7" r="1.4" fill="#9a6a00" fill-opacity="0.7"/><line x1="259" y1="169.0" x2="259" y2="207.9" stroke="#f2b705" stroke-opacity="1.0" stroke-width="1.7"/><line x1="253.24" y1="169.0" x2="264.76" y2="169.0" stroke="#f2b705" stroke-opacity="1.0" stroke-width="1.7"/><line x1="253.24" y1="207.9" x2="264.76" y2="207.9" stroke="#f2b705" stroke-opacity="1.0" stroke-width="1.7"/><rect x="251" y="175.4" width="16" height="10.6" rx="2" fill="#f2b705" fill-opacity="0.3" stroke="#f2b705" stroke-opacity="1.0" stroke-width="1.7"/><line x1="251" y1="181.7" x2="267" y2="181.7" stroke="#f2b705" stroke-opacity="1.0" stroke-width="2.4"/><text x="259" y="229" text-anchor="middle" font-family="Inter,Segoe UI,Arial,sans-serif" font-size="8" fill="#6b7280">2048</text><circle cx="256" cy="169.0" r="1.4" fill="#9a6a00" fill-opacity="0.9"/><circle cx="257.5" cy="173.3" r="1.4" fill="#9a6a00" fill-opacity="0.9"/><circle cx="259" cy="177.6" r="1.4" fill="#9a6a00" fill-opacity="0.9"/><circle cx="260.5" cy="181.7" r="1.4" fill="#9a6a00" fill-opacity="0.9"/><circle cx="262" cy="184.8" r="1.4" fill="#9a6a00" fill-opacity="0.9"/><circle cx="256" cy="187.3" r="1.4" fill="#9a6a00" fill-opacity="0.9"/><circle cx="257.5" cy="207.9" r="1.4" fill="#9a6a00" fill-opacity="0.9"/><text x="229" y="246" text-anchor="middle" font-family="Inter,Segoe UI,Arial,sans-serif" font-size="9" font-weight="700" fill="#111827">mlx_lm</text><line x1="317" y1="163.6" x2="317" y2="207.5" stroke="#2eaf5f" stroke-opacity="0.55" stroke-width="1.7"/><line x1="311.24" y1="163.6" x2="322.76" y2="163.6" stroke="#2eaf5f" stroke-opacity="0.55" stroke-width="1.7"/><line x1="311.24" y1="207.5" x2="322.76" y2="207.5" stroke="#2eaf5f" stroke-opacity="0.55" stroke-width="1.7"/><rect x="309" y="170.4" width="16" height="12.8" rx="2" fill="#2eaf5f" fill-opacity="0.08" stroke="#2eaf5f" stroke-opacity="0.55" stroke-width="1.7"/><line x1="309" y1="178.2" x2="325" y2="178.2" stroke="#2eaf5f" stroke-opacity="0.55" stroke-width="2.4"/><text x="317" y="229" text-anchor="middle" font-family="Inter,Segoe UI,Arial,sans-serif" font-size="8" fill="#6b7280">128</text><circle cx="314" cy="163.6" r="1.4" fill="#176c37" fill-opacity="0.5"/><circle cx="315.5" cy="167.0" r="1.4" fill="#176c37" fill-opacity="0.5"/><circle cx="317" cy="173.7" r="1.4" fill="#176c37" fill-opacity="0.5"/><circle cx="318.5" cy="178.2" r="1.4" fill="#176c37" fill-opacity="0.5"/><circle cx="320" cy="182.2" r="1.4" fill="#176c37" fill-opacity="0.5"/><circle cx="314" cy="184.1" r="1.4" fill="#176c37" fill-opacity="0.5"/><circle cx="315.5" cy="207.5" r="1.4" fill="#176c37" fill-opacity="0.5"/><line x1="347" y1="164.9" x2="347" y2="207.7" stroke="#2eaf5f" stroke-opacity="0.78" stroke-width="1.7"/><line x1="341.24" y1="164.9" x2="352.76" y2="164.9" stroke="#2eaf5f" stroke-opacity="0.78" stroke-width="1.7"/><line x1="341.24" y1="207.7" x2="352.76" y2="207.7" stroke="#2eaf5f" stroke-opacity="0.78" stroke-width="1.7"/><rect x="339" y="172.4" width="16" height="11.4" rx="2" fill="#2eaf5f" fill-opacity="0.17" stroke="#2eaf5f" stroke-opacity="0.78" stroke-width="1.7"/><line x1="339" y1="179.3" x2="355" y2="179.3" stroke="#2eaf5f" stroke-opacity="0.78" stroke-width="2.4"/><text x="347" y="229" text-anchor="middle" font-family="Inter,Segoe UI,Arial,sans-serif" font-size="8" fill="#6b7280">512</text><circle cx="344" cy="164.9" r="1.4" fill="#176c37" fill-opacity="0.7"/><circle cx="345.5" cy="169.3" r="1.4" fill="#176c37" fill-opacity="0.7"/><circle cx="347" cy="175.4" r="1.4" fill="#176c37" fill-opacity="0.7"/><circle cx="348.5" cy="179.3" r="1.4" fill="#176c37" fill-opacity="0.7"/><circle cx="350" cy="182.8" r="1.4" fill="#176c37" fill-opacity="0.7"/><circle cx="344" cy="184.8" r="1.4" fill="#176c37" fill-opacity="0.7"/><circle cx="345.5" cy="207.7" r="1.4" fill="#176c37" fill-opacity="0.7"/><line x1="377" y1="167.1" x2="377" y2="207.9" stroke="#2eaf5f" stroke-opacity="1.0" stroke-width="1.7"/><line x1="371.24" y1="167.1" x2="382.76" y2="167.1" stroke="#2eaf5f" stroke-opacity="1.0" stroke-width="1.7"/><line x1="371.24" y1="207.9" x2="382.76" y2="207.9" stroke="#2eaf5f" stroke-opacity="1.0" stroke-width="1.7"/><rect x="369" y="174.0" width="16" height="10.7" rx="2" fill="#2eaf5f" fill-opacity="0.3" stroke="#2eaf5f" stroke-opacity="1.0" stroke-width="1.7"/><line x1="369" y1="180.2" x2="385" y2="180.2" stroke="#2eaf5f" stroke-opacity="1.0" stroke-width="2.4"/><text x="377" y="229" text-anchor="middle" font-family="Inter,Segoe UI,Arial,sans-serif" font-size="8" fill="#6b7280">2048</text><circle cx="374" cy="167.1" r="1.4" fill="#176c37" fill-opacity="0.9"/><circle cx="375.5" cy="170.9" r="1.4" fill="#176c37" fill-opacity="0.9"/><circle cx="377" cy="177.0" r="1.4" fill="#176c37" fill-opacity="0.9"/><circle cx="378.5" cy="180.2" r="1.4" fill="#176c37" fill-opacity="0.9"/><circle cx="380" cy="183.4" r="1.4" fill="#176c37" fill-opacity="0.9"/><circle cx="374" cy="185.8" r="1.4" fill="#176c37" fill-opacity="0.9"/><circle cx="375.5" cy="207.9" r="1.4" fill="#176c37" fill-opacity="0.9"/><text x="347" y="246" text-anchor="middle" font-family="Inter,Segoe UI,Arial,sans-serif" font-size="9" font-weight="700" fill="#111827">ax_engine</text><line x1="435" y1="95.7" x2="435" y2="200.5" stroke="#137a3d" stroke-opacity="0.55" stroke-width="1.7"/><line x1="429.24" y1="95.7" x2="440.76" y2="95.7" stroke="#137a3d" stroke-opacity="0.55" stroke-width="1.7"/><line x1="429.24" y1="200.5" x2="440.76" y2="200.5" stroke="#137a3d" stroke-opacity="0.55" stroke-width="1.7"/><rect x="427" y="122.0" width="16" height="31.0" rx="2" fill="#137a3d" fill-opacity="0.08" stroke="#137a3d" stroke-opacity="0.55" stroke-width="1.7"/><line x1="427" y1="124.4" x2="443" y2="124.4" stroke="#137a3d" stroke-opacity="0.55" stroke-width="2.4"/><text x="435" y="229" text-anchor="middle" font-family="Inter,Segoe UI,Arial,sans-serif" font-size="8" fill="#6b7280">128</text><circle cx="432" cy="95.7" r="1.4" fill="#0b4f28" fill-opacity="0.5"/><circle cx="433.5" cy="120.8" r="1.4" fill="#0b4f28" fill-opacity="0.5"/><circle cx="435" cy="124.4" r="1.4" fill="#0b4f28" fill-opacity="0.5"/><circle cx="436.5" cy="123.1" r="1.4" fill="#0b4f28" fill-opacity="0.5"/><circle cx="438" cy="141.7" r="1.4" fill="#0b4f28" fill-opacity="0.5"/><circle cx="432" cy="164.3" r="1.4" fill="#0b4f28" fill-opacity="0.5"/><circle cx="433.5" cy="200.5" r="1.4" fill="#0b4f28" fill-opacity="0.5"/><line x1="465" y1="94.8" x2="465" y2="200.9" stroke="#137a3d" stroke-opacity="0.78" stroke-width="1.7"/><line x1="459.24" y1="94.8" x2="470.76" y2="94.8" stroke="#137a3d" stroke-opacity="0.78" stroke-width="1.7"/><line x1="459.24" y1="200.9" x2="470.76" y2="200.9" stroke="#137a3d" stroke-opacity="0.78" stroke-width="1.7"/><rect x="457" y="123.3" width="16" height="27.0" rx="2" fill="#137a3d" fill-opacity="0.17" stroke="#137a3d" stroke-opacity="0.78" stroke-width="1.7"/><line x1="457" y1="137.8" x2="473" y2="137.8" stroke="#137a3d" stroke-opacity="0.78" stroke-width="2.4"/><text x="465" y="229" text-anchor="middle" font-family="Inter,Segoe UI,Arial,sans-serif" font-size="8" fill="#6b7280">512</text><circle cx="462" cy="94.8" r="1.4" fill="#0b4f28" fill-opacity="0.7"/><circle cx="463.5" cy="122.1" r="1.4" fill="#0b4f28" fill-opacity="0.7"/><circle cx="465" cy="137.8" r="1.4" fill="#0b4f28" fill-opacity="0.7"/><circle cx="466.5" cy="124.6" r="1.4" fill="#0b4f28" fill-opacity="0.7"/><circle cx="468" cy="143.5" r="1.4" fill="#0b4f28" fill-opacity="0.7"/><circle cx="462" cy="157.2" r="1.4" fill="#0b4f28" fill-opacity="0.7"/><circle cx="463.5" cy="200.9" r="1.4" fill="#0b4f28" fill-opacity="0.7"/><line x1="495" y1="102.5" x2="495" y2="201.5" stroke="#137a3d" stroke-opacity="1.0" stroke-width="1.7"/><line x1="489.24" y1="102.5" x2="500.76" y2="102.5" stroke="#137a3d" stroke-opacity="1.0" stroke-width="1.7"/><line x1="489.24" y1="201.5" x2="500.76" y2="201.5" stroke="#137a3d" stroke-opacity="1.0" stroke-width="1.7"/><rect x="487" y="128.3" width="16" height="24.8" rx="2" fill="#137a3d" fill-opacity="0.3" stroke="#137a3d" stroke-opacity="1.0" stroke-width="1.7"/><line x1="487" y1="130.6" x2="503" y2="130.6" stroke="#137a3d" stroke-opacity="1.0" stroke-width="2.4"/><text x="495" y="229" text-anchor="middle" font-family="Inter,Segoe UI,Arial,sans-serif" font-size="8" fill="#6b7280">2048</text><circle cx="492" cy="102.5" r="1.4" fill="#0b4f28" fill-opacity="0.9"/><circle cx="493.5" cy="127.2" r="1.4" fill="#0b4f28" fill-opacity="0.9"/><circle cx="495" cy="130.6" r="1.4" fill="#0b4f28" fill-opacity="0.9"/><circle cx="496.5" cy="129.4" r="1.4" fill="#0b4f28" fill-opacity="0.9"/><circle cx="498" cy="146.0" r="1.4" fill="#0b4f28" fill-opacity="0.9"/><circle cx="492" cy="160.1" r="1.4" fill="#0b4f28" fill-opacity="0.9"/><circle cx="493.5" cy="201.5" r="1.4" fill="#0b4f28" fill-opacity="0.9"/><text x="465" y="246" text-anchor="middle" font-family="Inter,Segoe UI,Arial,sans-serif" font-size="9" font-weight="700" fill="#111827">ax+n-gram</text></svg>
