<svg xmlns="http://www.w3.org/2000/svg" width="800" height="430" viewBox="0 0 800 430" role="img" aria-labelledby="title desc"><title>Qwen 3.6 — Decode rate</title><desc>Grouped box-and-whisker plot comparing llama.cpp b9430, mlx-lm 0.31.3, AX Engine v5.1.8 at 128/512/2048 prompt tokens for Qwen 3.6 models. A red dotted line marks the highest median.</desc><rect width="800" height="430" fill="#f8fafc"/><text x="64" y="24" font-family="Inter,Segoe UI,Arial,sans-serif" font-size="16" font-weight="700" fill="#111827">Qwen 3.6 — Decode rate</text><text x="64" y="46" font-family="Inter,Segoe UI,Arial,sans-serif" font-size="11" fill="#4b5563">AX direct baseline, no speculative drafting</text><text x="64" y="62" font-family="Inter,Segoe UI,Arial,sans-serif" font-size="10" fill="#6b7280">llama.cpp b9430 · mlx-lm 0.31.3 · AX Engine v5.1.8</text><rect x="707" y="13" width="59" height="22" rx="11" fill="#eef2ff" stroke="#c7d2fe"/><text x="736.5" y="28" text-anchor="middle" font-family="Inter,Segoe UI,Arial,sans-serif" font-size="10" font-weight="700" fill="#3730a3">tok/s</text><text x="766" y="52" text-anchor="end" font-family="Inter,Segoe UI,Arial,sans-serif" font-size="10" font-weight="700" fill="#374151">Higher is better</text><rect x="64" y="86" width="576" height="230" rx="6" fill="#ffffff" stroke="#dbe3ef"/><line x1="64" y1="316.0" x2="640" y2="316.0" stroke="#e5e7eb" stroke-width="1"/><text x="56" y="319.0" text-anchor="end" font-family="Inter,Segoe UI,Arial,sans-serif" font-size="11" fill="#6b7280">0</text><line x1="64" y1="258.5" x2="640" y2="258.5" stroke="#e5e7eb" stroke-width="1"/><text x="56" y="261.5" text-anchor="end" font-family="Inter,Segoe UI,Arial,sans-serif" font-size="11" fill="#6b7280">50</text><line x1="64" y1="201.0" x2="640" y2="201.0" stroke="#e5e7eb" stroke-width="1"/><text x="56" y="204.0" text-anchor="end" font-family="Inter,Segoe UI,Arial,sans-serif" font-size="11" fill="#6b7280">100</text><line x1="64" y1="143.5" x2="640" y2="143.5" stroke="#e5e7eb" stroke-width="1"/><text x="56" y="146.5" text-anchor="end" font-family="Inter,Segoe UI,Arial,sans-serif" font-size="11" fill="#6b7280">150</text><line x1="64" y1="86.0" x2="640" y2="86.0" stroke="#e5e7eb" stroke-width="1"/><text x="56" y="89.0" text-anchor="end" font-family="Inter,Segoe UI,Arial,sans-serif" font-size="11" fill="#6b7280">200</text><line x1="64" y1="223.0" x2="640" y2="223.0" stroke="#dc2626" stroke-width="1.2" stroke-dasharray="1 4" stroke-linecap="round"/><text x="648" y="218.0" text-anchor="start" font-family="Inter,Segoe UI,Arial,sans-serif" font-size="11" font-weight="700" fill="#dc2626" data-label="highest median">highest: 80.8</text><line x1="130" y1="208.7" x2="130" y2="295.1" stroke="#f97316" stroke-opacity="0.55" stroke-width="1.7"/><line x1="124.24" y1="208.7" x2="135.76" y2="208.7" stroke="#f97316" stroke-opacity="0.55" stroke-width="1.7"/><line x1="124.24" y1="295.1" x2="135.76" y2="295.1" stroke="#f97316" stroke-opacity="0.55" stroke-width="1.7"/><rect x="122" y="217.2" width="16" height="70.8" rx="2" fill="#f97316" fill-opacity="0.08" stroke="#f97316" stroke-opacity="0.55" stroke-width="1.7"/><line x1="122" y1="252.9" x2="138" y2="252.9" stroke="#f97316" stroke-opacity="0.55" stroke-width="2.4"/><text x="142" y="256.4" text-anchor="start" font-family="Inter,Segoe UI,Arial,sans-serif" font-size="9" font-weight="700" fill="#111827" stroke="#ffffff" stroke-width="3" paint-order="stroke">54.9</text><text x="130" y="331" text-anchor="middle" font-family="Inter,Segoe UI,Arial,sans-serif" font-size="9" fill="#6b7280">128</text><circle cx="127" cy="285.8" r="1.4" fill="#c2410c" fill-opacity="0.5"/><circle cx="128.5" cy="295.1" r="1.4" fill="#c2410c" fill-opacity="0.5"/><circle cx="130" cy="208.7" r="1.4" fill="#c2410c" fill-opacity="0.5"/><circle cx="131.5" cy="220.1" r="1.4" fill="#c2410c" fill-opacity="0.5"/><line x1="160" y1="208.8" x2="160" y2="294.3" stroke="#f97316" stroke-opacity="0.78" stroke-width="1.7"/><line x1="154.24" y1="208.8" x2="165.76" y2="208.8" stroke="#f97316" stroke-opacity="0.78" stroke-width="1.7"/><line x1="154.24" y1="294.3" x2="165.76" y2="294.3" stroke="#f97316" stroke-opacity="0.78" stroke-width="1.7"/><rect x="152" y="217.0" width="16" height="70.7" rx="2" fill="#f97316" fill-opacity="0.17" stroke="#f97316" stroke-opacity="0.78" stroke-width="1.7"/><line x1="152" y1="252.6" x2="168" y2="252.6" stroke="#f97316" stroke-opacity="0.78" stroke-width="2.4"/><text x="172" y="256.1" text-anchor="start" font-family="Inter,Segoe UI,Arial,sans-serif" font-size="9" font-weight="700" fill="#111827" stroke="#ffffff" stroke-width="3" paint-order="stroke">55.1</text><text x="160" y="331" text-anchor="middle" font-family="Inter,Segoe UI,Arial,sans-serif" font-size="9" fill="#6b7280">512</text><circle cx="157" cy="285.5" r="1.4" fill="#c2410c" fill-opacity="0.7"/><circle cx="158.5" cy="294.3" r="1.4" fill="#c2410c" fill-opacity="0.7"/><circle cx="160" cy="208.8" r="1.4" fill="#c2410c" fill-opacity="0.7"/><circle cx="161.5" cy="219.7" r="1.4" fill="#c2410c" fill-opacity="0.7"/><line x1="190" y1="210.4" x2="190" y2="293.3" stroke="#f97316" stroke-opacity="1.0" stroke-width="1.7"/><line x1="184.24" y1="210.4" x2="195.76" y2="210.4" stroke="#f97316" stroke-opacity="1.0" stroke-width="1.7"/><line x1="184.24" y1="293.3" x2="195.76" y2="293.3" stroke="#f97316" stroke-opacity="1.0" stroke-width="1.7"/><rect x="182" y="211.9" width="16" height="75.8" rx="2" fill="#f97316" fill-opacity="0.3" stroke="#f97316" stroke-opacity="1.0" stroke-width="1.7"/><line x1="182" y1="249.1" x2="198" y2="249.1" stroke="#f97316" stroke-opacity="1.0" stroke-width="2.4"/><text x="202" y="252.6" text-anchor="start" font-family="Inter,Segoe UI,Arial,sans-serif" font-size="9" font-weight="700" fill="#111827" stroke="#ffffff" stroke-width="3" paint-order="stroke">58.2</text><text x="190" y="331" text-anchor="middle" font-family="Inter,Segoe UI,Arial,sans-serif" font-size="9" fill="#6b7280">2048</text><circle cx="187" cy="285.8" r="1.4" fill="#c2410c" fill-opacity="0.9"/><circle cx="188.5" cy="293.3" r="1.4" fill="#c2410c" fill-opacity="0.9"/><circle cx="190" cy="210.4" r="1.4" fill="#c2410c" fill-opacity="0.9"/><circle cx="191.5" cy="212.4" r="1.4" fill="#c2410c" fill-opacity="0.9"/><text x="160" y="348" text-anchor="middle" font-family="Inter,Segoe UI,Arial,sans-serif" font-size="10" font-weight="700" fill="#111827">llama.cpp b9430</text><line x1="322" y1="166.9" x2="322" y2="288.0" stroke="#f2b705" stroke-opacity="0.55" stroke-width="1.7"/><line x1="316.24" y1="166.9" x2="327.76" y2="166.9" stroke="#f2b705" stroke-opacity="0.55" stroke-width="1.7"/><line x1="316.24" y1="288.0" x2="327.76" y2="288.0" stroke="#f2b705" stroke-opacity="0.55" stroke-width="1.7"/><rect x="314" y="182.7" width="16" height="97.6" rx="2" fill="#f2b705" fill-opacity="0.08" stroke="#f2b705" stroke-opacity="0.55" stroke-width="1.7"/><line x1="314" y1="232.9" x2="330" y2="232.9" stroke="#f2b705" stroke-opacity="0.55" stroke-width="2.4"/><text x="334" y="236.4" text-anchor="start" font-family="Inter,Segoe UI,Arial,sans-serif" font-size="9" font-weight="700" fill="#111827" stroke="#ffffff" stroke-width="3" paint-order="stroke">72.3</text><text x="322" y="331" text-anchor="middle" font-family="Inter,Segoe UI,Arial,sans-serif" font-size="9" fill="#6b7280">128</text><circle cx="319" cy="277.8" r="1.4" fill="#9a6a00" fill-opacity="0.5"/><circle cx="320.5" cy="288.0" r="1.4" fill="#9a6a00" fill-opacity="0.5"/><circle cx="322" cy="166.9" r="1.4" fill="#9a6a00" fill-opacity="0.5"/><circle cx="323.5" cy="188.0" r="1.4" fill="#9a6a00" fill-opacity="0.5"/><line x1="352" y1="168.5" x2="352" y2="288.1" stroke="#f2b705" stroke-opacity="0.78" stroke-width="1.7"/><line x1="346.24" y1="168.5" x2="357.76" y2="168.5" stroke="#f2b705" stroke-opacity="0.78" stroke-width="1.7"/><line x1="346.24" y1="288.1" x2="357.76" y2="288.1" stroke="#f2b705" stroke-opacity="0.78" stroke-width="1.7"/><rect x="344" y="183.9" width="16" height="96.6" rx="2" fill="#f2b705" fill-opacity="0.17" stroke="#f2b705" stroke-opacity="0.78" stroke-width="1.7"/><line x1="344" y1="233.5" x2="360" y2="233.5" stroke="#f2b705" stroke-opacity="0.78" stroke-width="2.4"/><text x="364" y="237.0" text-anchor="start" font-family="Inter,Segoe UI,Arial,sans-serif" font-size="9" font-weight="700" fill="#111827" stroke="#ffffff" stroke-width="3" paint-order="stroke">71.7</text><text x="352" y="331" text-anchor="middle" font-family="Inter,Segoe UI,Arial,sans-serif" font-size="9" fill="#6b7280">512</text><circle cx="349" cy="278.0" r="1.4" fill="#9a6a00" fill-opacity="0.7"/><circle cx="350.5" cy="288.1" r="1.4" fill="#9a6a00" fill-opacity="0.7"/><circle cx="352" cy="168.5" r="1.4" fill="#9a6a00" fill-opacity="0.7"/><circle cx="353.5" cy="189.0" r="1.4" fill="#9a6a00" fill-opacity="0.7"/><line x1="382" y1="172.0" x2="382" y2="288.3" stroke="#f2b705" stroke-opacity="1.0" stroke-width="1.7"/><line x1="376.24" y1="172.0" x2="387.76" y2="172.0" stroke="#f2b705" stroke-opacity="1.0" stroke-width="1.7"/><line x1="376.24" y1="288.3" x2="387.76" y2="288.3" stroke="#f2b705" stroke-opacity="1.0" stroke-width="1.7"/><rect x="374" y="188.8" width="16" height="92.2" rx="2" fill="#f2b705" fill-opacity="0.3" stroke="#f2b705" stroke-opacity="1.0" stroke-width="1.7"/><line x1="374" y1="236.4" x2="390" y2="236.4" stroke="#f2b705" stroke-opacity="1.0" stroke-width="2.4"/><text x="394" y="239.9" text-anchor="start" font-family="Inter,Segoe UI,Arial,sans-serif" font-size="9" font-weight="700" fill="#111827" stroke="#ffffff" stroke-width="3" paint-order="stroke">69.2</text><text x="382" y="331" text-anchor="middle" font-family="Inter,Segoe UI,Arial,sans-serif" font-size="9" fill="#6b7280">2048</text><circle cx="379" cy="278.5" r="1.4" fill="#9a6a00" fill-opacity="0.9"/><circle cx="380.5" cy="288.3" r="1.4" fill="#9a6a00" fill-opacity="0.9"/><circle cx="382" cy="172.0" r="1.4" fill="#9a6a00" fill-opacity="0.9"/><circle cx="383.5" cy="194.3" r="1.4" fill="#9a6a00" fill-opacity="0.9"/><text x="352" y="348" text-anchor="middle" font-family="Inter,Segoe UI,Arial,sans-serif" font-size="10" font-weight="700" fill="#111827">mlx-lm 0.31.3</text><line x1="514" y1="139.7" x2="514" y2="288.0" stroke="#2eaf5f" stroke-opacity="0.55" stroke-width="1.7"/><line x1="508.24" y1="139.7" x2="519.76" y2="139.7" stroke="#2eaf5f" stroke-opacity="0.55" stroke-width="1.7"/><line x1="508.24" y1="288.0" x2="519.76" y2="288.0" stroke="#2eaf5f" stroke-opacity="0.55" stroke-width="1.7"/><rect x="506" y="162.7" width="16" height="116.2" rx="2" fill="#2eaf5f" fill-opacity="0.08" stroke="#2eaf5f" stroke-opacity="0.55" stroke-width="1.7"/><line x1="506" y1="223.0" x2="522" y2="223.0" stroke="#2eaf5f" stroke-opacity="0.55" stroke-width="2.4"/><text x="526" y="226.5" text-anchor="start" font-family="Inter,Segoe UI,Arial,sans-serif" font-size="9" font-weight="700" fill="#111827" stroke="#ffffff" stroke-width="3" paint-order="stroke">80.8</text><text x="514" y="331" text-anchor="middle" font-family="Inter,Segoe UI,Arial,sans-serif" font-size="9" fill="#6b7280">128</text><circle cx="511" cy="275.8" r="1.4" fill="#176c37" fill-opacity="0.5"/><circle cx="512.5" cy="288.0" r="1.4" fill="#176c37" fill-opacity="0.5"/><circle cx="514" cy="139.7" r="1.4" fill="#176c37" fill-opacity="0.5"/><circle cx="515.5" cy="170.3" r="1.4" fill="#176c37" fill-opacity="0.5"/><line x1="544" y1="141.2" x2="544" y2="286.8" stroke="#2eaf5f" stroke-opacity="0.78" stroke-width="1.7"/><line x1="538.24" y1="141.2" x2="549.76" y2="141.2" stroke="#2eaf5f" stroke-opacity="0.78" stroke-width="1.7"/><line x1="538.24" y1="286.8" x2="549.76" y2="286.8" stroke="#2eaf5f" stroke-opacity="0.78" stroke-width="1.7"/><rect x="536" y="164.2" width="16" height="114.4" rx="2" fill="#2eaf5f" fill-opacity="0.17" stroke="#2eaf5f" stroke-opacity="0.78" stroke-width="1.7"/><line x1="536" y1="223.8" x2="552" y2="223.8" stroke="#2eaf5f" stroke-opacity="0.78" stroke-width="2.4"/><text x="556" y="227.3" text-anchor="start" font-family="Inter,Segoe UI,Arial,sans-serif" font-size="9" font-weight="700" fill="#111827" stroke="#ffffff" stroke-width="3" paint-order="stroke">80.1</text><text x="544" y="331" text-anchor="middle" font-family="Inter,Segoe UI,Arial,sans-serif" font-size="9" fill="#6b7280">512</text><circle cx="541" cy="275.8" r="1.4" fill="#176c37" fill-opacity="0.7"/><circle cx="542.5" cy="286.8" r="1.4" fill="#176c37" fill-opacity="0.7"/><circle cx="544" cy="141.2" r="1.4" fill="#176c37" fill-opacity="0.7"/><circle cx="545.5" cy="171.8" r="1.4" fill="#176c37" fill-opacity="0.7"/><line x1="574" y1="143.7" x2="574" y2="287.5" stroke="#2eaf5f" stroke-opacity="1.0" stroke-width="1.7"/><line x1="568.24" y1="143.7" x2="579.76" y2="143.7" stroke="#2eaf5f" stroke-opacity="1.0" stroke-width="1.7"/><line x1="568.24" y1="287.5" x2="579.76" y2="287.5" stroke="#2eaf5f" stroke-opacity="1.0" stroke-width="1.7"/><rect x="566" y="166.1" width="16" height="113.0" rx="2" fill="#2eaf5f" fill-opacity="0.3" stroke="#2eaf5f" stroke-opacity="1.0" stroke-width="1.7"/><line x1="566" y1="224.9" x2="582" y2="224.9" stroke="#2eaf5f" stroke-opacity="1.0" stroke-width="2.4"/><text x="586" y="228.4" text-anchor="start" font-family="Inter,Segoe UI,Arial,sans-serif" font-size="9" font-weight="700" fill="#111827" stroke="#ffffff" stroke-width="3" paint-order="stroke">79.2</text><text x="574" y="331" text-anchor="middle" font-family="Inter,Segoe UI,Arial,sans-serif" font-size="9" fill="#6b7280">2048</text><circle cx="571" cy="276.3" r="1.4" fill="#176c37" fill-opacity="0.9"/><circle cx="572.5" cy="287.5" r="1.4" fill="#176c37" fill-opacity="0.9"/><circle cx="574" cy="143.7" r="1.4" fill="#176c37" fill-opacity="0.9"/><circle cx="575.5" cy="173.5" r="1.4" fill="#176c37" fill-opacity="0.9"/><text x="544" y="348" text-anchor="middle" font-family="Inter,Segoe UI,Arial,sans-serif" font-size="10" font-weight="700" fill="#111827">AX Engine v5.1.8</text><rect x="64" y="363" width="10" height="10" rx="2" fill="#6b7280" fill-opacity="0.08" stroke="#6b7280" stroke-opacity="0.55" stroke-width="1.4"/><text x="78" y="372" font-family="Inter,Segoe UI,Arial,sans-serif" font-size="10" fill="#374151">128 tok</text><rect x="184" y="363" width="10" height="10" rx="2" fill="#6b7280" fill-opacity="0.17" stroke="#6b7280" stroke-opacity="0.78" stroke-width="1.4"/><text x="198" y="372" font-family="Inter,Segoe UI,Arial,sans-serif" font-size="10" fill="#374151">512 tok</text><rect x="304" y="363" width="10" height="10" rx="2" fill="#6b7280" fill-opacity="0.3" stroke="#6b7280" stroke-opacity="1.0" stroke-width="1.4"/><text x="318" y="372" font-family="Inter,Segoe UI,Arial,sans-serif" font-size="10" fill="#374151">2048 tok</text></svg>
