<svg xmlns="http://www.w3.org/2000/svg" width="900" height="460" viewBox="0 0 900 460" role="img" aria-labelledby="title desc">
<title>Qwen3.6 35B-A3B 4-bit MTP decode throughput</title>
<desc>Grouped box-and-whisker plot comparing MTPLX 0.3.7 (default), AX Engine v5.2.2 (MTP-only), AX Engine v5.2.2 (MTP + n-gram stacking) across all suites.</desc>
<rect width="100%" height="100%" fill="#f8fafc"/>
<text x="24" y="24" font-family="Inter,Segoe UI,Arial,sans-serif" font-size="16" font-weight="700" fill="#111827">Qwen3.6 35B-A3B 4-bit MTP decode throughput</text>
<text x="24" y="46" font-family="Inter,Segoe UI,Arial,sans-serif" font-size="11" fill="#4b5563">All suites combined | box=IQR | whiskers=min/max | dots=runs</text>
<text x="24" y="62" font-family="Inter,Segoe UI,Arial,sans-serif" font-size="10" fill="#6b7280">Vendor-default config per row · MTPLX 0.3.7 · AX Engine v5.2.2</text>
<rect x="807" y="13" width="59" height="22" rx="11" fill="#eef2ff" stroke="#c7d2fe"/>
<text x="836.5" y="28" text-anchor="middle" font-family="Inter,Segoe UI,Arial,sans-serif" font-size="10" font-weight="700" fill="#3730a3">tok/s</text>
<text x="866" y="52" text-anchor="end" font-family="Inter,Segoe UI,Arial,sans-serif" font-size="10" font-weight="700" fill="#dc2626">Higher is better</text>
<rect x="64" y="86" width="676" height="268" rx="6" fill="#ffffff" stroke="#dbe3ef"/>
<line x1="64" y1="354.0" x2="740" y2="354.0" stroke="#e5e7eb" stroke-width="1"/>
<text x="56" y="357.0" text-anchor="end" font-family="Inter,Segoe UI,Arial,sans-serif" font-size="11" fill="#6b7280">0.0</text>
<line x1="64" y1="287.0" x2="740" y2="287.0" stroke="#e5e7eb" stroke-width="1"/>
<text x="56" y="290.0" text-anchor="end" font-family="Inter,Segoe UI,Arial,sans-serif" font-size="11" fill="#6b7280">75</text>
<line x1="64" y1="220.0" x2="740" y2="220.0" stroke="#e5e7eb" stroke-width="1"/>
<text x="56" y="223.0" text-anchor="end" font-family="Inter,Segoe UI,Arial,sans-serif" font-size="11" fill="#6b7280">150</text>
<line x1="64" y1="153.0" x2="740" y2="153.0" stroke="#e5e7eb" stroke-width="1"/>
<text x="56" y="156.0" text-anchor="end" font-family="Inter,Segoe UI,Arial,sans-serif" font-size="11" fill="#6b7280">225</text>
<line x1="64" y1="86.0" x2="740" y2="86.0" stroke="#e5e7eb" stroke-width="1"/>
<text x="56" y="89.0" text-anchor="end" font-family="Inter,Segoe UI,Arial,sans-serif" font-size="11" fill="#6b7280">300</text>
<line x1="64" y1="204.5" x2="740" y2="204.5" stroke="#dc2626" stroke-width="1.2" stroke-dasharray="1 4" stroke-linecap="round"/>
<text x="748" y="199.5" text-anchor="start" font-family="Inter,Segoe UI,Arial,sans-serif" font-size="11" font-weight="700" fill="#dc2626" data-label="highest median">highest: 167</text>
<text x="402.0" y="398" text-anchor="middle" font-family="Inter,Segoe UI,Arial,sans-serif" font-size="11" font-weight="700" fill="#111827">all suites</text>
<circle cx="127.8" cy="259.7" r="1.45" fill="#14532d" fill-opacity="0.46"/>
<circle cx="130.8" cy="258.4" r="1.45" fill="#14532d" fill-opacity="0.46"/>
<circle cx="133.9" cy="258.3" r="1.45" fill="#14532d" fill-opacity="0.46"/>
<circle cx="136.9" cy="259.1" r="1.45" fill="#14532d" fill-opacity="0.46"/>
<circle cx="140.0" cy="259.4" r="1.45" fill="#14532d" fill-opacity="0.46"/>
<circle cx="143.1" cy="252.4" r="1.45" fill="#14532d" fill-opacity="0.46"/>
<circle cx="146.1" cy="253.9" r="1.45" fill="#14532d" fill-opacity="0.46"/>
<circle cx="149.2" cy="256.9" r="1.45" fill="#14532d" fill-opacity="0.46"/>
<circle cx="152.2" cy="257.9" r="1.45" fill="#14532d" fill-opacity="0.46"/>
<circle cx="127.8" cy="262.3" r="1.45" fill="#14532d" fill-opacity="0.46"/>
<circle cx="130.8" cy="267.4" r="1.45" fill="#14532d" fill-opacity="0.46"/>
<circle cx="133.9" cy="268.1" r="1.45" fill="#14532d" fill-opacity="0.46"/>
<circle cx="136.9" cy="267.3" r="1.45" fill="#14532d" fill-opacity="0.46"/>
<circle cx="140.0" cy="262.7" r="1.45" fill="#14532d" fill-opacity="0.46"/>
<circle cx="143.1" cy="262.9" r="1.45" fill="#14532d" fill-opacity="0.46"/>
<circle cx="146.1" cy="258.0" r="1.45" fill="#14532d" fill-opacity="0.46"/>
<circle cx="149.2" cy="263.5" r="1.45" fill="#14532d" fill-opacity="0.46"/>
<circle cx="152.2" cy="262.5" r="1.45" fill="#14532d" fill-opacity="0.46"/>
<circle cx="127.8" cy="262.7" r="1.45" fill="#14532d" fill-opacity="0.46"/>
<circle cx="130.8" cy="261.3" r="1.45" fill="#14532d" fill-opacity="0.46"/>
<circle cx="133.9" cy="250.7" r="1.45" fill="#14532d" fill-opacity="0.46"/>
<circle cx="136.9" cy="250.9" r="1.45" fill="#14532d" fill-opacity="0.46"/>
<circle cx="140.0" cy="249.2" r="1.45" fill="#14532d" fill-opacity="0.46"/>
<circle cx="143.1" cy="250.4" r="1.45" fill="#14532d" fill-opacity="0.46"/>
<circle cx="146.1" cy="250.7" r="1.45" fill="#14532d" fill-opacity="0.46"/>
<circle cx="149.2" cy="257.6" r="1.45" fill="#14532d" fill-opacity="0.46"/>
<circle cx="152.2" cy="258.2" r="1.45" fill="#14532d" fill-opacity="0.46"/>
<circle cx="127.8" cy="255.1" r="1.45" fill="#14532d" fill-opacity="0.46"/>
<circle cx="130.8" cy="258.2" r="1.45" fill="#14532d" fill-opacity="0.46"/>
<circle cx="133.9" cy="258.7" r="1.45" fill="#14532d" fill-opacity="0.46"/>
<circle cx="136.9" cy="261.2" r="1.45" fill="#14532d" fill-opacity="0.46"/>
<circle cx="140.0" cy="263.3" r="1.45" fill="#14532d" fill-opacity="0.46"/>
<circle cx="143.1" cy="262.6" r="1.45" fill="#14532d" fill-opacity="0.46"/>
<circle cx="146.1" cy="261.1" r="1.45" fill="#14532d" fill-opacity="0.46"/>
<circle cx="149.2" cy="260.4" r="1.45" fill="#14532d" fill-opacity="0.46"/>
<circle cx="152.2" cy="265.0" r="1.45" fill="#14532d" fill-opacity="0.46"/>
<circle cx="127.8" cy="264.6" r="1.45" fill="#14532d" fill-opacity="0.46"/>
<circle cx="130.8" cy="263.1" r="1.45" fill="#14532d" fill-opacity="0.46"/>
<circle cx="133.9" cy="266.5" r="1.45" fill="#14532d" fill-opacity="0.46"/>
<circle cx="136.9" cy="264.6" r="1.45" fill="#14532d" fill-opacity="0.46"/>
<circle cx="140.0" cy="264.8" r="1.45" fill="#14532d" fill-opacity="0.46"/>
<circle cx="143.1" cy="266.4" r="1.45" fill="#14532d" fill-opacity="0.46"/>
<circle cx="146.1" cy="267.3" r="1.45" fill="#14532d" fill-opacity="0.46"/>
<circle cx="149.2" cy="268.0" r="1.45" fill="#14532d" fill-opacity="0.46"/>
<circle cx="152.2" cy="266.5" r="1.45" fill="#14532d" fill-opacity="0.46"/>
<circle cx="127.8" cy="266.2" r="1.45" fill="#14532d" fill-opacity="0.46"/>
<circle cx="130.8" cy="266.4" r="1.45" fill="#14532d" fill-opacity="0.46"/>
<circle cx="133.9" cy="265.3" r="1.45" fill="#14532d" fill-opacity="0.46"/>
<circle cx="136.9" cy="265.3" r="1.45" fill="#14532d" fill-opacity="0.46"/>
<circle cx="140.0" cy="266.4" r="1.45" fill="#14532d" fill-opacity="0.46"/>
<circle cx="143.1" cy="265.9" r="1.45" fill="#14532d" fill-opacity="0.46"/>
<circle cx="146.1" cy="266.3" r="1.45" fill="#14532d" fill-opacity="0.46"/>
<circle cx="149.2" cy="266.7" r="1.45" fill="#14532d" fill-opacity="0.46"/>
<circle cx="152.2" cy="266.7" r="1.45" fill="#14532d" fill-opacity="0.46"/>
<circle cx="127.8" cy="264.8" r="1.45" fill="#14532d" fill-opacity="0.46"/>
<line x1="140.0" y1="249.2" x2="140.0" y2="268.1" stroke="#14532d" stroke-opacity="0.86" stroke-width="1.8"/>
<line x1="127.8" y1="249.2" x2="152.2" y2="249.2" stroke="#14532d" stroke-opacity="0.86" stroke-width="1.8"/>
<line x1="127.8" y1="268.1" x2="152.2" y2="268.1" stroke="#14532d" stroke-opacity="0.86" stroke-width="1.8"/>
<rect x="123.0" y="258.2" width="34.0" height="7.8" rx="2" fill="#14532d" fill-opacity="0.18" stroke="#14532d" stroke-opacity="0.9" stroke-width="1.8"/>
<line x1="123.0" y1="262.7" x2="157.0" y2="262.7" stroke="#14532d" stroke-opacity="0.96" stroke-width="2.6"/>
<text x="163.0" y="266.7" text-anchor="start" font-family="Inter,Segoe UI,Arial,sans-serif" font-size="11" font-weight="700" fill="#111827" stroke="#ffffff" stroke-width="3" paint-order="stroke">102</text>
<circle cx="389.8" cy="202.7" r="1.45" fill="#f97316" fill-opacity="0.46"/>
<circle cx="392.8" cy="203.4" r="1.45" fill="#f97316" fill-opacity="0.46"/>
<circle cx="395.9" cy="202.4" r="1.45" fill="#f97316" fill-opacity="0.46"/>
<circle cx="398.9" cy="204.5" r="1.45" fill="#f97316" fill-opacity="0.46"/>
<circle cx="402.0" cy="210.8" r="1.45" fill="#f97316" fill-opacity="0.46"/>
<circle cx="405.1" cy="204.7" r="1.45" fill="#f97316" fill-opacity="0.46"/>
<circle cx="408.1" cy="209.0" r="1.45" fill="#f97316" fill-opacity="0.46"/>
<circle cx="411.2" cy="201.5" r="1.45" fill="#f97316" fill-opacity="0.46"/>
<circle cx="414.2" cy="206.1" r="1.45" fill="#f97316" fill-opacity="0.46"/>
<circle cx="389.8" cy="205.1" r="1.45" fill="#f97316" fill-opacity="0.46"/>
<circle cx="392.8" cy="202.4" r="1.45" fill="#f97316" fill-opacity="0.46"/>
<line x1="402.0" y1="201.5" x2="402.0" y2="210.8" stroke="#f97316" stroke-opacity="0.86" stroke-width="1.8"/>
<line x1="389.8" y1="201.5" x2="414.2" y2="201.5" stroke="#f97316" stroke-opacity="0.86" stroke-width="1.8"/>
<line x1="389.8" y1="210.8" x2="414.2" y2="210.8" stroke="#f97316" stroke-opacity="0.86" stroke-width="1.8"/>
<rect x="385.0" y="202.6" width="34.0" height="3.0" rx="2" fill="#f97316" fill-opacity="0.18" stroke="#f97316" stroke-opacity="0.9" stroke-width="1.8"/>
<line x1="385.0" y1="204.5" x2="419.0" y2="204.5" stroke="#f97316" stroke-opacity="0.96" stroke-width="2.6"/>
<text x="425.0" y="208.5" text-anchor="start" font-family="Inter,Segoe UI,Arial,sans-serif" font-size="11" font-weight="700" fill="#111827" stroke="#ffffff" stroke-width="3" paint-order="stroke">167</text>
<circle cx="651.8" cy="203.1" r="1.45" fill="#eab308" fill-opacity="0.46"/>
<circle cx="654.8" cy="205.1" r="1.45" fill="#eab308" fill-opacity="0.46"/>
<circle cx="657.9" cy="203.2" r="1.45" fill="#eab308" fill-opacity="0.46"/>
<circle cx="660.9" cy="202.9" r="1.45" fill="#eab308" fill-opacity="0.46"/>
<circle cx="664.0" cy="202.6" r="1.45" fill="#eab308" fill-opacity="0.46"/>
<circle cx="667.1" cy="203.4" r="1.45" fill="#eab308" fill-opacity="0.46"/>
<circle cx="670.1" cy="206.6" r="1.45" fill="#eab308" fill-opacity="0.46"/>
<circle cx="673.2" cy="206.6" r="1.45" fill="#eab308" fill-opacity="0.46"/>
<circle cx="676.2" cy="208.1" r="1.45" fill="#eab308" fill-opacity="0.46"/>
<circle cx="651.8" cy="209.7" r="1.45" fill="#eab308" fill-opacity="0.46"/>
<circle cx="654.8" cy="206.8" r="1.45" fill="#eab308" fill-opacity="0.46"/>
<line x1="664.0" y1="202.6" x2="664.0" y2="209.7" stroke="#eab308" stroke-opacity="0.86" stroke-width="1.8"/>
<line x1="651.8" y1="202.6" x2="676.2" y2="202.6" stroke="#eab308" stroke-opacity="0.86" stroke-width="1.8"/>
<line x1="651.8" y1="209.7" x2="676.2" y2="209.7" stroke="#eab308" stroke-opacity="0.86" stroke-width="1.8"/>
<rect x="647.0" y="203.2" width="34.0" height="3.5" rx="2" fill="#eab308" fill-opacity="0.18" stroke="#eab308" stroke-opacity="0.9" stroke-width="1.8"/>
<line x1="647.0" y1="205.1" x2="681.0" y2="205.1" stroke="#eab308" stroke-opacity="0.96" stroke-width="2.6"/>
<text x="687.0" y="209.1" text-anchor="start" font-family="Inter,Segoe UI,Arial,sans-serif" font-size="11" font-weight="700" fill="#111827" stroke="#ffffff" stroke-width="3" paint-order="stroke">167</text>
<rect x="64.0" y="433" width="10" height="10" rx="2" fill="#14532d" fill-opacity="0.72"/>
<text x="78.0" y="442" font-family="Inter,Segoe UI,Arial,sans-serif" font-size="10" fill="#374151">MTPLX 0.3.7 (default)</text>
<rect x="289.3" y="433" width="10" height="10" rx="2" fill="#f97316" fill-opacity="0.72"/>
<text x="303.3" y="442" font-family="Inter,Segoe UI,Arial,sans-serif" font-size="10" fill="#374151">AX Engine v5.2.2 (MTP-only)</text>
<rect x="514.7" y="433" width="10" height="10" rx="2" fill="#eab308" fill-opacity="0.72"/>
<text x="528.7" y="442" font-family="Inter,Segoe UI,Arial,sans-serif" font-size="10" fill="#374151">AX Engine v5.2.2 (MTP + n-gram stacking)</text>
</svg>
