<svg xmlns="http://www.w3.org/2000/svg" width="760" height="460" viewBox="0 0 760 460" role="img" aria-labelledby="title desc">
<title>Gemma 4 12B 4-bit-FFN — Time to first token</title>
<desc>Grouped box-and-whisker plot comparing AX assistant MTP, AX assistant MTP+n-gram across flappy, long_code, python_modules_long prompt suites.</desc>
<rect width="100%" height="100%" fill="#f8fafc"/>
<text x="24" y="24" font-family="Inter,Segoe UI,Arial,sans-serif" font-size="16" font-weight="700" fill="#111827">Gemma 4 12B 4-bit-FFN — Time to first token</text>
<text x="24" y="46" font-family="Inter,Segoe UI,Arial,sans-serif" font-size="11" fill="#4b5563">All suites | box=IQR | whiskers=min/max | dots=runs</text>
<text x="24" y="62" font-family="Inter,Segoe UI,Arial,sans-serif" font-size="10" fill="#6b7280">Apple M5 Max · gate 0.90 first / 0.999 deep · GPU exact · T=0.6/top_p=0.95/top_k=20</text>
<rect x="678" y="13" width="48" height="22" rx="11" fill="#eef2ff" stroke="#c7d2fe"/>
<text x="702.0" y="28" text-anchor="middle" font-family="Inter,Segoe UI,Arial,sans-serif" font-size="10" font-weight="700" fill="#3730a3">ms</text>
<text x="726" y="52" text-anchor="end" font-family="Inter,Segoe UI,Arial,sans-serif" font-size="10" font-weight="700" fill="#dc2626">Lower is better</text>
<rect x="64" y="86" width="496" height="268" rx="6" fill="#ffffff" stroke="#dbe3ef"/>
<line x1="64" y1="354.0" x2="560" y2="354.0" stroke="#e5e7eb" stroke-width="1"/>
<text x="56" y="357.0" text-anchor="end" font-family="Inter,Segoe UI,Arial,sans-serif" font-size="11" fill="#6b7280">0.0</text>
<line x1="64" y1="287.0" x2="560" y2="287.0" stroke="#e5e7eb" stroke-width="1"/>
<text x="56" y="290.0" text-anchor="end" font-family="Inter,Segoe UI,Arial,sans-serif" font-size="11" fill="#6b7280">250</text>
<line x1="64" y1="220.0" x2="560" y2="220.0" stroke="#e5e7eb" stroke-width="1"/>
<text x="56" y="223.0" text-anchor="end" font-family="Inter,Segoe UI,Arial,sans-serif" font-size="11" fill="#6b7280">500</text>
<line x1="64" y1="153.0" x2="560" y2="153.0" stroke="#e5e7eb" stroke-width="1"/>
<text x="56" y="156.0" text-anchor="end" font-family="Inter,Segoe UI,Arial,sans-serif" font-size="11" fill="#6b7280">750</text>
<line x1="64" y1="86.0" x2="560" y2="86.0" stroke="#e5e7eb" stroke-width="1"/>
<text x="56" y="89.0" text-anchor="end" font-family="Inter,Segoe UI,Arial,sans-serif" font-size="11" fill="#6b7280">1k</text>
<line x1="64" y1="303.9" x2="560" y2="303.9" stroke="#dc2626" stroke-width="1.2" stroke-dasharray="1 4" stroke-linecap="round"/>
<text x="568" y="298.9" text-anchor="start" font-family="Inter,Segoe UI,Arial,sans-serif" font-size="11" font-weight="700" fill="#dc2626" data-label="lowest median">lowest: 187</text>
<text x="146.7" y="398" text-anchor="middle" font-family="Inter,Segoe UI,Arial,sans-serif" font-size="11" font-weight="700" fill="#111827">flappy</text>
<circle cx="95.8" cy="311.3" r="1.45" fill="#2eaf5f" fill-opacity="0.46"/>
<circle cx="98.8" cy="309.8" r="1.45" fill="#2eaf5f" fill-opacity="0.46"/>
<circle cx="101.9" cy="309.9" r="1.45" fill="#2eaf5f" fill-opacity="0.46"/>
<circle cx="104.9" cy="310.2" r="1.45" fill="#2eaf5f" fill-opacity="0.46"/>
<circle cx="108.0" cy="311.6" r="1.45" fill="#2eaf5f" fill-opacity="0.46"/>
<circle cx="111.1" cy="297.8" r="1.45" fill="#2eaf5f" fill-opacity="0.46"/>
<circle cx="114.1" cy="297.0" r="1.45" fill="#2eaf5f" fill-opacity="0.46"/>
<circle cx="117.2" cy="298.0" r="1.45" fill="#2eaf5f" fill-opacity="0.46"/>
<circle cx="120.2" cy="298.1" r="1.45" fill="#2eaf5f" fill-opacity="0.46"/>
<circle cx="95.8" cy="297.2" r="1.45" fill="#2eaf5f" fill-opacity="0.46"/>
<circle cx="98.8" cy="282.0" r="1.45" fill="#2eaf5f" fill-opacity="0.46"/>
<circle cx="101.9" cy="279.2" r="1.45" fill="#2eaf5f" fill-opacity="0.46"/>
<circle cx="104.9" cy="272.0" r="1.45" fill="#2eaf5f" fill-opacity="0.46"/>
<circle cx="108.0" cy="282.2" r="1.45" fill="#2eaf5f" fill-opacity="0.46"/>
<circle cx="111.1" cy="282.3" r="1.45" fill="#2eaf5f" fill-opacity="0.46"/>
<circle cx="114.1" cy="311.1" r="1.45" fill="#2eaf5f" fill-opacity="0.46"/>
<circle cx="117.2" cy="310.8" r="1.45" fill="#2eaf5f" fill-opacity="0.46"/>
<circle cx="120.2" cy="311.0" r="1.45" fill="#2eaf5f" fill-opacity="0.46"/>
<circle cx="95.8" cy="311.3" r="1.45" fill="#2eaf5f" fill-opacity="0.46"/>
<circle cx="98.8" cy="309.9" r="1.45" fill="#2eaf5f" fill-opacity="0.46"/>
<line x1="108.0" y1="272.0" x2="108.0" y2="311.6" stroke="#2eaf5f" stroke-opacity="0.86" stroke-width="1.8"/>
<line x1="95.8" y1="272.0" x2="120.2" y2="272.0" stroke="#2eaf5f" stroke-opacity="0.86" stroke-width="1.8"/>
<line x1="95.8" y1="311.6" x2="120.2" y2="311.6" stroke="#2eaf5f" stroke-opacity="0.86" stroke-width="1.8"/>
<rect x="91.0" y="293.3" width="34.0" height="17.6" rx="2" fill="#2eaf5f" fill-opacity="0.18" stroke="#2eaf5f" stroke-opacity="0.9" stroke-width="1.8"/>
<line x1="91.0" y1="303.9" x2="125.0" y2="303.9" stroke="#2eaf5f" stroke-opacity="0.96" stroke-width="2.6"/>
<text x="131.0" y="307.9" text-anchor="start" font-family="Inter,Segoe UI,Arial,sans-serif" font-size="11" font-weight="700" fill="#111827" stroke="#ffffff" stroke-width="3" paint-order="stroke">187</text>
<circle cx="173.1" cy="311.1" r="1.45" fill="#137a3d" fill-opacity="0.46"/>
<circle cx="176.2" cy="310.4" r="1.45" fill="#137a3d" fill-opacity="0.46"/>
<circle cx="179.2" cy="311.6" r="1.45" fill="#137a3d" fill-opacity="0.46"/>
<circle cx="182.3" cy="310.9" r="1.45" fill="#137a3d" fill-opacity="0.46"/>
<circle cx="185.3" cy="310.9" r="1.45" fill="#137a3d" fill-opacity="0.46"/>
<circle cx="188.4" cy="297.8" r="1.45" fill="#137a3d" fill-opacity="0.46"/>
<circle cx="191.5" cy="297.2" r="1.45" fill="#137a3d" fill-opacity="0.46"/>
<circle cx="194.5" cy="297.7" r="1.45" fill="#137a3d" fill-opacity="0.46"/>
<circle cx="197.6" cy="296.8" r="1.45" fill="#137a3d" fill-opacity="0.46"/>
<circle cx="173.1" cy="297.2" r="1.45" fill="#137a3d" fill-opacity="0.46"/>
<circle cx="176.2" cy="283.0" r="1.45" fill="#137a3d" fill-opacity="0.46"/>
<circle cx="179.2" cy="283.1" r="1.45" fill="#137a3d" fill-opacity="0.46"/>
<circle cx="182.3" cy="282.5" r="1.45" fill="#137a3d" fill-opacity="0.46"/>
<circle cx="185.3" cy="282.0" r="1.45" fill="#137a3d" fill-opacity="0.46"/>
<circle cx="188.4" cy="282.2" r="1.45" fill="#137a3d" fill-opacity="0.46"/>
<circle cx="191.5" cy="310.2" r="1.45" fill="#137a3d" fill-opacity="0.46"/>
<circle cx="194.5" cy="310.5" r="1.45" fill="#137a3d" fill-opacity="0.46"/>
<circle cx="197.6" cy="309.7" r="1.45" fill="#137a3d" fill-opacity="0.46"/>
<circle cx="173.1" cy="310.9" r="1.45" fill="#137a3d" fill-opacity="0.46"/>
<circle cx="176.2" cy="310.8" r="1.45" fill="#137a3d" fill-opacity="0.46"/>
<line x1="185.3" y1="282.0" x2="185.3" y2="311.6" stroke="#137a3d" stroke-opacity="0.86" stroke-width="1.8"/>
<line x1="173.1" y1="282.0" x2="197.6" y2="282.0" stroke="#137a3d" stroke-opacity="0.86" stroke-width="1.8"/>
<line x1="173.1" y1="311.6" x2="197.6" y2="311.6" stroke="#137a3d" stroke-opacity="0.86" stroke-width="1.8"/>
<rect x="168.3" y="293.4" width="34.0" height="17.4" rx="2" fill="#137a3d" fill-opacity="0.18" stroke="#137a3d" stroke-opacity="0.9" stroke-width="1.8"/>
<line x1="168.3" y1="303.8" x2="202.3" y2="303.8" stroke="#137a3d" stroke-opacity="0.96" stroke-width="2.6"/>
<text x="208.3" y="307.8" text-anchor="start" font-family="Inter,Segoe UI,Arial,sans-serif" font-size="11" font-weight="700" fill="#111827" stroke="#ffffff" stroke-width="3" paint-order="stroke">187</text>
<text x="312.0" y="398" text-anchor="middle" font-family="Inter,Segoe UI,Arial,sans-serif" font-size="11" font-weight="700" fill="#111827">long_code</text>
<circle cx="261.1" cy="256.5" r="1.45" fill="#2eaf5f" fill-opacity="0.46"/>
<circle cx="264.2" cy="257.4" r="1.45" fill="#2eaf5f" fill-opacity="0.46"/>
<circle cx="267.2" cy="256.5" r="1.45" fill="#2eaf5f" fill-opacity="0.46"/>
<circle cx="270.3" cy="256.5" r="1.45" fill="#2eaf5f" fill-opacity="0.46"/>
<circle cx="273.3" cy="256.7" r="1.45" fill="#2eaf5f" fill-opacity="0.46"/>
<circle cx="276.4" cy="229.6" r="1.45" fill="#2eaf5f" fill-opacity="0.46"/>
<circle cx="279.5" cy="230.1" r="1.45" fill="#2eaf5f" fill-opacity="0.46"/>
<circle cx="282.5" cy="225.8" r="1.45" fill="#2eaf5f" fill-opacity="0.46"/>
<circle cx="285.6" cy="225.0" r="1.45" fill="#2eaf5f" fill-opacity="0.46"/>
<circle cx="261.1" cy="226.3" r="1.45" fill="#2eaf5f" fill-opacity="0.46"/>
<circle cx="264.2" cy="239.7" r="1.45" fill="#2eaf5f" fill-opacity="0.46"/>
<circle cx="267.2" cy="242.3" r="1.45" fill="#2eaf5f" fill-opacity="0.46"/>
<circle cx="270.3" cy="242.6" r="1.45" fill="#2eaf5f" fill-opacity="0.46"/>
<circle cx="273.3" cy="242.8" r="1.45" fill="#2eaf5f" fill-opacity="0.46"/>
<circle cx="276.4" cy="242.4" r="1.45" fill="#2eaf5f" fill-opacity="0.46"/>
<circle cx="279.5" cy="281.5" r="1.45" fill="#2eaf5f" fill-opacity="0.46"/>
<circle cx="282.5" cy="280.9" r="1.45" fill="#2eaf5f" fill-opacity="0.46"/>
<circle cx="285.6" cy="281.0" r="1.45" fill="#2eaf5f" fill-opacity="0.46"/>
<circle cx="261.1" cy="280.2" r="1.45" fill="#2eaf5f" fill-opacity="0.46"/>
<circle cx="264.2" cy="281.2" r="1.45" fill="#2eaf5f" fill-opacity="0.46"/>
<line x1="273.3" y1="225.0" x2="273.3" y2="281.5" stroke="#2eaf5f" stroke-opacity="0.86" stroke-width="1.8"/>
<line x1="261.1" y1="225.0" x2="285.6" y2="225.0" stroke="#2eaf5f" stroke-opacity="0.86" stroke-width="1.8"/>
<line x1="261.1" y1="281.5" x2="285.6" y2="281.5" stroke="#2eaf5f" stroke-opacity="0.86" stroke-width="1.8"/>
<rect x="256.3" y="237.3" width="34.0" height="25.8" rx="2" fill="#2eaf5f" fill-opacity="0.18" stroke="#2eaf5f" stroke-opacity="0.9" stroke-width="1.8"/>
<line x1="256.3" y1="249.7" x2="290.3" y2="249.7" stroke="#2eaf5f" stroke-opacity="0.96" stroke-width="2.6"/>
<text x="296.3" y="253.7" text-anchor="start" font-family="Inter,Segoe UI,Arial,sans-serif" font-size="11" font-weight="700" fill="#111827" stroke="#ffffff" stroke-width="3" paint-order="stroke">389</text>
<circle cx="338.4" cy="254.2" r="1.45" fill="#137a3d" fill-opacity="0.46"/>
<circle cx="341.5" cy="253.7" r="1.45" fill="#137a3d" fill-opacity="0.46"/>
<circle cx="344.5" cy="254.3" r="1.45" fill="#137a3d" fill-opacity="0.46"/>
<circle cx="347.6" cy="254.1" r="1.45" fill="#137a3d" fill-opacity="0.46"/>
<circle cx="350.7" cy="254.0" r="1.45" fill="#137a3d" fill-opacity="0.46"/>
<circle cx="353.7" cy="227.1" r="1.45" fill="#137a3d" fill-opacity="0.46"/>
<circle cx="356.8" cy="219.9" r="1.45" fill="#137a3d" fill-opacity="0.46"/>
<circle cx="359.8" cy="227.9" r="1.45" fill="#137a3d" fill-opacity="0.46"/>
<circle cx="362.9" cy="227.3" r="1.45" fill="#137a3d" fill-opacity="0.46"/>
<circle cx="338.4" cy="227.6" r="1.45" fill="#137a3d" fill-opacity="0.46"/>
<circle cx="341.5" cy="240.1" r="1.45" fill="#137a3d" fill-opacity="0.46"/>
<circle cx="344.5" cy="243.3" r="1.45" fill="#137a3d" fill-opacity="0.46"/>
<circle cx="347.6" cy="242.9" r="1.45" fill="#137a3d" fill-opacity="0.46"/>
<circle cx="350.7" cy="242.8" r="1.45" fill="#137a3d" fill-opacity="0.46"/>
<circle cx="353.7" cy="240.9" r="1.45" fill="#137a3d" fill-opacity="0.46"/>
<circle cx="356.8" cy="281.1" r="1.45" fill="#137a3d" fill-opacity="0.46"/>
<circle cx="359.8" cy="279.0" r="1.45" fill="#137a3d" fill-opacity="0.46"/>
<circle cx="362.9" cy="281.3" r="1.45" fill="#137a3d" fill-opacity="0.46"/>
<circle cx="338.4" cy="281.2" r="1.45" fill="#137a3d" fill-opacity="0.46"/>
<circle cx="341.5" cy="281.4" r="1.45" fill="#137a3d" fill-opacity="0.46"/>
<line x1="350.7" y1="219.9" x2="350.7" y2="281.4" stroke="#137a3d" stroke-opacity="0.86" stroke-width="1.8"/>
<line x1="338.4" y1="219.9" x2="362.9" y2="219.9" stroke="#137a3d" stroke-opacity="0.86" stroke-width="1.8"/>
<line x1="338.4" y1="281.4" x2="362.9" y2="281.4" stroke="#137a3d" stroke-opacity="0.86" stroke-width="1.8"/>
<rect x="333.7" y="237.0" width="34.0" height="23.4" rx="2" fill="#137a3d" fill-opacity="0.18" stroke="#137a3d" stroke-opacity="0.9" stroke-width="1.8"/>
<line x1="333.7" y1="248.5" x2="367.7" y2="248.5" stroke="#137a3d" stroke-opacity="0.96" stroke-width="2.6"/>
<text x="373.7" y="252.5" text-anchor="start" font-family="Inter,Segoe UI,Arial,sans-serif" font-size="11" font-weight="700" fill="#111827" stroke="#ffffff" stroke-width="3" paint-order="stroke">394</text>
<text x="477.3" y="398" text-anchor="middle" font-family="Inter,Segoe UI,Arial,sans-serif" font-size="11" font-weight="700" fill="#111827">python_modules_long</text>
<circle cx="426.4" cy="303.6" r="1.45" fill="#2eaf5f" fill-opacity="0.46"/>
<circle cx="429.5" cy="303.5" r="1.45" fill="#2eaf5f" fill-opacity="0.46"/>
<circle cx="432.5" cy="303.4" r="1.45" fill="#2eaf5f" fill-opacity="0.46"/>
<circle cx="435.6" cy="302.2" r="1.45" fill="#2eaf5f" fill-opacity="0.46"/>
<circle cx="438.7" cy="303.2" r="1.45" fill="#2eaf5f" fill-opacity="0.46"/>
<circle cx="441.7" cy="301.5" r="1.45" fill="#2eaf5f" fill-opacity="0.46"/>
<circle cx="444.8" cy="301.9" r="1.45" fill="#2eaf5f" fill-opacity="0.46"/>
<circle cx="447.8" cy="301.8" r="1.45" fill="#2eaf5f" fill-opacity="0.46"/>
<circle cx="450.9" cy="301.0" r="1.45" fill="#2eaf5f" fill-opacity="0.46"/>
<circle cx="426.4" cy="302.1" r="1.45" fill="#2eaf5f" fill-opacity="0.46"/>
<circle cx="429.5" cy="295.5" r="1.45" fill="#2eaf5f" fill-opacity="0.46"/>
<circle cx="432.5" cy="295.7" r="1.45" fill="#2eaf5f" fill-opacity="0.46"/>
<circle cx="435.6" cy="295.7" r="1.45" fill="#2eaf5f" fill-opacity="0.46"/>
<circle cx="438.7" cy="296.3" r="1.45" fill="#2eaf5f" fill-opacity="0.46"/>
<circle cx="441.7" cy="296.7" r="1.45" fill="#2eaf5f" fill-opacity="0.46"/>
<line x1="438.7" y1="295.5" x2="438.7" y2="303.6" stroke="#2eaf5f" stroke-opacity="0.86" stroke-width="1.8"/>
<line x1="426.4" y1="295.5" x2="450.9" y2="295.5" stroke="#2eaf5f" stroke-opacity="0.86" stroke-width="1.8"/>
<line x1="426.4" y1="303.6" x2="450.9" y2="303.6" stroke="#2eaf5f" stroke-opacity="0.86" stroke-width="1.8"/>
<rect x="421.7" y="296.5" width="34.0" height="6.2" rx="2" fill="#2eaf5f" fill-opacity="0.18" stroke="#2eaf5f" stroke-opacity="0.9" stroke-width="1.8"/>
<line x1="421.7" y1="301.8" x2="455.7" y2="301.8" stroke="#2eaf5f" stroke-opacity="0.96" stroke-width="2.6"/>
<text x="461.7" y="305.8" text-anchor="start" font-family="Inter,Segoe UI,Arial,sans-serif" font-size="11" font-weight="700" fill="#111827" stroke="#ffffff" stroke-width="3" paint-order="stroke">195</text>
<circle cx="503.8" cy="304.1" r="1.45" fill="#137a3d" fill-opacity="0.46"/>
<circle cx="506.8" cy="303.4" r="1.45" fill="#137a3d" fill-opacity="0.46"/>
<circle cx="509.9" cy="304.0" r="1.45" fill="#137a3d" fill-opacity="0.46"/>
<circle cx="512.9" cy="303.5" r="1.45" fill="#137a3d" fill-opacity="0.46"/>
<circle cx="516.0" cy="303.7" r="1.45" fill="#137a3d" fill-opacity="0.46"/>
<circle cx="519.1" cy="303.3" r="1.45" fill="#137a3d" fill-opacity="0.46"/>
<circle cx="522.1" cy="302.3" r="1.45" fill="#137a3d" fill-opacity="0.46"/>
<circle cx="525.2" cy="299.2" r="1.45" fill="#137a3d" fill-opacity="0.46"/>
<circle cx="528.2" cy="298.0" r="1.45" fill="#137a3d" fill-opacity="0.46"/>
<circle cx="503.8" cy="300.8" r="1.45" fill="#137a3d" fill-opacity="0.46"/>
<circle cx="506.8" cy="295.1" r="1.45" fill="#137a3d" fill-opacity="0.46"/>
<circle cx="509.9" cy="297.8" r="1.45" fill="#137a3d" fill-opacity="0.46"/>
<circle cx="512.9" cy="294.5" r="1.45" fill="#137a3d" fill-opacity="0.46"/>
<circle cx="516.0" cy="297.2" r="1.45" fill="#137a3d" fill-opacity="0.46"/>
<circle cx="519.1" cy="294.3" r="1.45" fill="#137a3d" fill-opacity="0.46"/>
<line x1="516.0" y1="294.3" x2="516.0" y2="304.1" stroke="#137a3d" stroke-opacity="0.86" stroke-width="1.8"/>
<line x1="503.8" y1="294.3" x2="528.2" y2="294.3" stroke="#137a3d" stroke-opacity="0.86" stroke-width="1.8"/>
<line x1="503.8" y1="304.1" x2="528.2" y2="304.1" stroke="#137a3d" stroke-opacity="0.86" stroke-width="1.8"/>
<rect x="499.0" y="297.5" width="34.0" height="6.0" rx="2" fill="#137a3d" fill-opacity="0.18" stroke="#137a3d" stroke-opacity="0.9" stroke-width="1.8"/>
<line x1="499.0" y1="300.8" x2="533.0" y2="300.8" stroke="#137a3d" stroke-opacity="0.96" stroke-width="2.6"/>
<text x="539.0" y="304.8" text-anchor="start" font-family="Inter,Segoe UI,Arial,sans-serif" font-size="11" font-weight="700" fill="#111827" stroke="#ffffff" stroke-width="3" paint-order="stroke">198</text>
<rect x="64.0" y="433" width="10" height="10" rx="2" fill="#2eaf5f" fill-opacity="0.72"/>
<text x="78.0" y="442" font-family="Inter,Segoe UI,Arial,sans-serif" font-size="10" fill="#374151">AX assistant MTP</text>
<rect x="312.0" y="433" width="10" height="10" rx="2" fill="#137a3d" fill-opacity="0.72"/>
<text x="326.0" y="442" font-family="Inter,Segoe UI,Arial,sans-serif" font-size="10" fill="#374151">AX assistant MTP+n-gram</text>
</svg>
