<svg xmlns="http://www.w3.org/2000/svg" width="460" height="276" viewBox="0 0 460 276" role="img" aria-labelledby="title desc"><title>Decode rate - 2048 tok</title><desc>Box-and-Whisker Plot comparing llama.cpp, mlx_lm, ax_engine, ax_engine + n-gram at 2048 prompt tokens across README benchmark rows on a linear y-axis. A red dotted horizontal line marks the highest median in this chart.</desc><rect width="460" height="276" fill="#ffffff"/><text x="52" y="22" font-family="Inter,Segoe UI,Arial,sans-serif" font-size="16" font-weight="700" fill="#111827">Decode rate - 2048 tok</text><text x="52" y="40" font-family="Inter,Segoe UI,Arial,sans-serif" font-size="10" fill="#6b7280">AX n-gram is the default policy</text><text x="442" y="22" text-anchor="end" font-family="Inter,Segoe UI,Arial,sans-serif" font-size="10" fill="#6b7280">tok/s</text><text x="442" y="40" text-anchor="end" font-family="Inter,Segoe UI,Arial,sans-serif" font-size="10" font-weight="700" fill="#374151">Higher is better</text><line x1="52" y1="206.0" x2="442" y2="206.0" stroke="#e5e7eb" stroke-width="1"/><text x="44" y="209.0" text-anchor="end" font-family="Inter,Segoe UI,Arial,sans-serif" font-size="10" fill="#6b7280">0</text><line x1="52" y1="126.0" x2="442" y2="126.0" stroke="#e5e7eb" stroke-width="1"/><text x="44" y="129.0" text-anchor="end" font-family="Inter,Segoe UI,Arial,sans-serif" font-size="10" fill="#6b7280">250</text><line x1="52" y1="46.0" x2="442" y2="46.0" stroke="#e5e7eb" stroke-width="1"/><text x="44" y="49.0" text-anchor="end" font-family="Inter,Segoe UI,Arial,sans-serif" font-size="10" fill="#6b7280">500</text><line x1="52" y1="145.8" x2="442" y2="145.8" stroke="#dc2626" stroke-width="1.2" stroke-dasharray="1 4" stroke-linecap="round"/><line x1="100.75" y1="151.0" x2="100.75" y2="200.5" stroke="#f97316" stroke-width="1.7"/><line x1="88.51" y1="151.0" x2="112.99" y2="151.0" stroke="#f97316" stroke-width="1.7"/><line x1="88.51" y1="200.5" x2="112.99" y2="200.5" stroke="#f97316" stroke-width="1.7"/><rect x="83.75" y="160.0" width="34" height="38.6" rx="3" fill="#f97316" fill-opacity="0.18" stroke="#f97316" stroke-width="1.7"/><line x1="83.75" y1="171.1" x2="117.75" y2="171.1" stroke="#f97316" stroke-width="2.4"/><text x="100.75" y="226" text-anchor="middle" font-family="Inter,Segoe UI,Arial,sans-serif" font-size="9" fill="#111827">llama.cpp</text><text x="100.75" y="242" text-anchor="middle" font-family="Inter,Segoe UI,Arial,sans-serif" font-size="9" fill="#6b7280">med 109.1</text><circle cx="92.59" cy="151.0" r="1.5" fill="#c2410c" fill-opacity="0.9"/><circle cx="96.67" cy="155.0" r="1.5" fill="#c2410c" fill-opacity="0.9"/><circle cx="100.75" cy="156.7" r="1.5" fill="#c2410c" fill-opacity="0.9"/><circle cx="104.83" cy="161.1" r="1.5" fill="#c2410c" fill-opacity="0.9"/><circle cx="108.91" cy="170.6" r="1.5" fill="#c2410c" fill-opacity="0.9"/><circle cx="92.59" cy="170.0" r="1.5" fill="#c2410c" fill-opacity="0.9"/><circle cx="96.67" cy="198.3" r="1.5" fill="#c2410c" fill-opacity="0.9"/><circle cx="100.75" cy="198.1" r="1.5" fill="#c2410c" fill-opacity="0.9"/><circle cx="104.83" cy="199.4" r="1.5" fill="#c2410c" fill-opacity="0.9"/><circle cx="108.91" cy="199.8" r="1.5" fill="#c2410c" fill-opacity="0.9"/><circle cx="92.59" cy="200.5" r="1.5" fill="#c2410c" fill-opacity="0.9"/><circle cx="96.67" cy="171.6" r="1.5" fill="#c2410c" fill-opacity="0.9"/><line x1="198.25" y1="141.7" x2="198.25" y2="200.1" stroke="#f2b705" stroke-width="1.7"/><line x1="186.01" y1="141.7" x2="210.49" y2="141.7" stroke="#f2b705" stroke-width="1.7"/><line x1="186.01" y1="200.1" x2="210.49" y2="200.1" stroke="#f2b705" stroke-width="1.7"/><rect x="181.25" y="158.4" width="34" height="38.8" rx="3" fill="#f2b705" fill-opacity="0.18" stroke="#f2b705" stroke-width="1.7"/><line x1="181.25" y1="166.0" x2="215.25" y2="166.0" stroke="#f2b705" stroke-width="2.4"/><text x="198.25" y="226" text-anchor="middle" font-family="Inter,Segoe UI,Arial,sans-serif" font-size="9" fill="#111827">mlx_lm</text><text x="198.25" y="242" text-anchor="middle" font-family="Inter,Segoe UI,Arial,sans-serif" font-size="9" fill="#6b7280">med 124.9</text><circle cx="190.09" cy="141.7" r="1.5" fill="#9a6a00" fill-opacity="0.9"/><circle cx="194.17" cy="147.8" r="1.5" fill="#9a6a00" fill-opacity="0.9"/><circle cx="198.25" cy="154.0" r="1.5" fill="#9a6a00" fill-opacity="0.9"/><circle cx="202.33" cy="159.9" r="1.5" fill="#9a6a00" fill-opacity="0.9"/><circle cx="206.41" cy="164.2" r="1.5" fill="#9a6a00" fill-opacity="0.9"/><circle cx="190.09" cy="167.8" r="1.5" fill="#9a6a00" fill-opacity="0.9"/><circle cx="194.17" cy="197.3" r="1.5" fill="#9a6a00" fill-opacity="0.9"/><circle cx="198.25" cy="195.3" r="1.5" fill="#9a6a00" fill-opacity="0.9"/><circle cx="202.33" cy="197.1" r="1.5" fill="#9a6a00" fill-opacity="0.9"/><circle cx="206.41" cy="198.1" r="1.5" fill="#9a6a00" fill-opacity="0.9"/><circle cx="190.09" cy="200.1" r="1.5" fill="#9a6a00" fill-opacity="0.9"/><circle cx="194.17" cy="163.0" r="1.5" fill="#9a6a00" fill-opacity="0.9"/><line x1="295.75" y1="145.1" x2="295.75" y2="200.2" stroke="#2eaf5f" stroke-width="1.7"/><line x1="283.51" y1="145.1" x2="307.99" y2="145.1" stroke="#2eaf5f" stroke-width="1.7"/><line x1="283.51" y1="200.2" x2="307.99" y2="200.2" stroke="#2eaf5f" stroke-width="1.7"/><rect x="278.75" y="159.5" width="34" height="37.8" rx="3" fill="#2eaf5f" fill-opacity="0.18" stroke="#2eaf5f" stroke-width="1.7"/><line x1="278.75" y1="167.2" x2="312.75" y2="167.2" stroke="#2eaf5f" stroke-width="2.4"/><text x="295.75" y="226" text-anchor="middle" font-family="Inter,Segoe UI,Arial,sans-serif" font-size="9" fill="#111827">ax_engine</text><text x="295.75" y="242" text-anchor="middle" font-family="Inter,Segoe UI,Arial,sans-serif" font-size="9" fill="#6b7280">med 121.2</text><circle cx="287.59" cy="145.1" r="1.5" fill="#176c37" fill-opacity="0.9"/><circle cx="291.67" cy="150.8" r="1.5" fill="#176c37" fill-opacity="0.9"/><circle cx="295.75" cy="156.5" r="1.5" fill="#176c37" fill-opacity="0.9"/><circle cx="299.83" cy="160.5" r="1.5" fill="#176c37" fill-opacity="0.9"/><circle cx="303.91" cy="165.4" r="1.5" fill="#176c37" fill-opacity="0.9"/><circle cx="287.59" cy="169.0" r="1.5" fill="#176c37" fill-opacity="0.9"/><circle cx="291.67" cy="197.4" r="1.5" fill="#176c37" fill-opacity="0.9"/><circle cx="295.75" cy="195.5" r="1.5" fill="#176c37" fill-opacity="0.9"/><circle cx="299.83" cy="197.2" r="1.5" fill="#176c37" fill-opacity="0.9"/><circle cx="303.91" cy="198.2" r="1.5" fill="#176c37" fill-opacity="0.9"/><circle cx="287.59" cy="200.2" r="1.5" fill="#176c37" fill-opacity="0.9"/><circle cx="291.67" cy="161.6" r="1.5" fill="#176c37" fill-opacity="0.9"/><line x1="393.25" y1="58.5" x2="393.25" y2="200.2" stroke="#137a3d" stroke-width="1.7"/><line x1="381.01" y1="58.5" x2="405.49" y2="58.5" stroke="#137a3d" stroke-width="1.7"/><line x1="381.01" y1="200.2" x2="405.49" y2="200.2" stroke="#137a3d" stroke-width="1.7"/><rect x="376.25" y="93.0" width="34" height="102.9" rx="3" fill="#137a3d" fill-opacity="0.18" stroke="#137a3d" stroke-width="1.7"/><line x1="376.25" y1="145.8" x2="410.25" y2="145.8" stroke="#137a3d" stroke-width="2.4"/><text x="393.25" y="226" text-anchor="middle" font-family="Inter,Segoe UI,Arial,sans-serif" font-size="9" fill="#111827">ax_engine + n-gram</text><text x="393.25" y="242" text-anchor="middle" font-family="Inter,Segoe UI,Arial,sans-serif" font-size="9" fill="#6b7280">med 188.2</text><circle cx="385.09" cy="58.5" r="1.5" fill="#0b4f28" fill-opacity="0.9"/><circle cx="389.17" cy="85.8" r="1.5" fill="#0b4f28" fill-opacity="0.9"/><circle cx="393.25" cy="95.1" r="1.5" fill="#0b4f28" fill-opacity="0.9"/><circle cx="397.33" cy="86.9" r="1.5" fill="#0b4f28" fill-opacity="0.9"/><circle cx="401.41" cy="110.5" r="1.5" fill="#0b4f28" fill-opacity="0.9"/><circle cx="385.09" cy="130.0" r="1.5" fill="#0b4f28" fill-opacity="0.9"/><circle cx="389.17" cy="191.3" r="1.5" fill="#0b4f28" fill-opacity="0.9"/><circle cx="393.25" cy="195.5" r="1.5" fill="#0b4f28" fill-opacity="0.9"/><circle cx="397.33" cy="197.2" r="1.5" fill="#0b4f28" fill-opacity="0.9"/><circle cx="401.41" cy="198.2" r="1.5" fill="#0b4f28" fill-opacity="0.9"/><circle cx="385.09" cy="200.2" r="1.5" fill="#0b4f28" fill-opacity="0.9"/><circle cx="389.17" cy="161.5" r="1.5" fill="#0b4f28" fill-opacity="0.9"/></svg>
