<svg xmlns="http://www.w3.org/2000/svg" width="540" height="292" viewBox="0 0 540 292" role="img" aria-labelledby="title desc"><title>N-gram opportunity — Qwen3-4B 4-bit</title><desc>Grouped bar chart comparing ax direct, ax n-gram, lightning (temp=0.6), and oracle upper-bound decode throughput (tok/s) across high, med, and low repeat prompt categories for Qwen3-4B 4-bit.</desc><rect width="540" height="292" fill="#ffffff"/><text x="52" y="22" font-family="Inter,Segoe UI,Arial,sans-serif" font-size="15" font-weight="700" fill="#111827">N-gram opportunity — Qwen3-4B 4-bit</text><text x="52" y="38" font-family="Inter,Segoe UI,Arial,sans-serif" font-size="9" fill="#6b7280">all paths: temp=0.6/top_p=0.95/top_k=20 · oracle: theoretical upper bound</text><text x="512" y="22" text-anchor="end" font-family="Inter,Segoe UI,Arial,sans-serif" font-size="10" fill="#6b7280">tok/s</text><text x="512" y="38" text-anchor="end" font-family="Inter,Segoe UI,Arial,sans-serif" font-size="10" font-weight="700" fill="#dc2626">Higher is better</text><line x1="52" y1="228.0" x2="512" y2="228.0" stroke="#e5e7eb" stroke-width="1"/><text x="46" y="231.0" text-anchor="end" font-family="Inter,Segoe UI,Arial,sans-serif" font-size="10" fill="#6b7280">0</text><line x1="52" y1="142.0" x2="512" y2="142.0" stroke="#e5e7eb" stroke-width="1"/><text x="46" y="145.0" text-anchor="end" font-family="Inter,Segoe UI,Arial,sans-serif" font-size="10" fill="#6b7280">100</text><line x1="52" y1="56.0" x2="512" y2="56.0" stroke="#e5e7eb" stroke-width="1"/><text x="46" y="59.0" text-anchor="end" font-family="Inter,Segoe UI,Arial,sans-serif" font-size="10" fill="#6b7280">200</text><line x1="52" y1="70.0" x2="512" y2="70.0" stroke="#dc2626" stroke-width="1.2" stroke-dasharray="1 4" stroke-linecap="round"/><rect x="82.7" y="161.8" width="20" height="66.2" rx="2" fill="#86efac" fill-opacity="0.30" stroke="#16a34a" stroke-width="1.6"/><line x1="82.7" y1="161.8" x2="102.7" y2="161.8" stroke="#16a34a" stroke-width="2.4"/><text x="92.7" y="157.8" text-anchor="middle" font-family="Inter,Segoe UI,Arial,sans-serif" font-size="8" fill="#16a34a">77</text><rect x="106.7" y="157.1" width="20" height="70.9" rx="2" fill="#2eaf5f" fill-opacity="0.30" stroke="#176c37" stroke-width="1.6"/><line x1="106.7" y1="157.1" x2="126.7" y2="157.1" stroke="#176c37" stroke-width="2.4"/><text x="116.7" y="153.1" text-anchor="middle" font-family="Inter,Segoe UI,Arial,sans-serif" font-size="8" fill="#176c37">82</text><rect x="130.7" y="99.0" width="20" height="129.0" rx="2" fill="#f2b705" fill-opacity="0.30" stroke="#9a6a00" stroke-width="1.6"/><line x1="130.7" y1="99.0" x2="150.7" y2="99.0" stroke="#9a6a00" stroke-width="2.4"/><text x="140.7" y="95.0" text-anchor="middle" font-family="Inter,Segoe UI,Arial,sans-serif" font-size="8" fill="#9a6a00">150</text><rect x="154.7" y="70.3" width="20" height="157.7" rx="2" fill="#d1d5db" fill-opacity="0.30" stroke="#6b7280" stroke-width="1.6"/><line x1="154.7" y1="70.3" x2="174.7" y2="70.3" stroke="#6b7280" stroke-width="2.4"/><text x="164.7" y="66.3" text-anchor="middle" font-family="Inter,Segoe UI,Arial,sans-serif" font-size="8" fill="#6b7280">183</text><text x="128.7" y="244" text-anchor="middle" font-family="Inter,Segoe UI,Arial,sans-serif" font-size="10" font-weight="700" fill="#111827">high repeat</text><rect x="236.0" y="161.9" width="20" height="66.1" rx="2" fill="#86efac" fill-opacity="0.30" stroke="#16a34a" stroke-width="1.6"/><line x1="236.0" y1="161.9" x2="256.0" y2="161.9" stroke="#16a34a" stroke-width="2.4"/><text x="246.0" y="157.9" text-anchor="middle" font-family="Inter,Segoe UI,Arial,sans-serif" font-size="8" fill="#16a34a">77</text><rect x="260.0" y="152.9" width="20" height="75.1" rx="2" fill="#2eaf5f" fill-opacity="0.30" stroke="#176c37" stroke-width="1.6"/><line x1="260.0" y1="152.9" x2="280.0" y2="152.9" stroke="#176c37" stroke-width="2.4"/><text x="270.0" y="148.9" text-anchor="middle" font-family="Inter,Segoe UI,Arial,sans-serif" font-size="8" fill="#176c37">87</text><rect x="284.0" y="99.6" width="20" height="128.4" rx="2" fill="#f2b705" fill-opacity="0.30" stroke="#9a6a00" stroke-width="1.6"/><line x1="284.0" y1="99.6" x2="304.0" y2="99.6" stroke="#9a6a00" stroke-width="2.4"/><text x="294.0" y="95.6" text-anchor="middle" font-family="Inter,Segoe UI,Arial,sans-serif" font-size="8" fill="#9a6a00">149</text><rect x="308.0" y="70.1" width="20" height="157.9" rx="2" fill="#d1d5db" fill-opacity="0.30" stroke="#6b7280" stroke-width="1.6"/><line x1="308.0" y1="70.1" x2="328.0" y2="70.1" stroke="#6b7280" stroke-width="2.4"/><text x="318.0" y="66.1" text-anchor="middle" font-family="Inter,Segoe UI,Arial,sans-serif" font-size="8" fill="#6b7280">184</text><text x="282.0" y="244" text-anchor="middle" font-family="Inter,Segoe UI,Arial,sans-serif" font-size="10" font-weight="700" fill="#111827">med repeat</text><rect x="389.3" y="161.5" width="20" height="66.5" rx="2" fill="#86efac" fill-opacity="0.30" stroke="#16a34a" stroke-width="1.6"/><line x1="389.3" y1="161.5" x2="409.3" y2="161.5" stroke="#16a34a" stroke-width="2.4"/><text x="399.3" y="157.5" text-anchor="middle" font-family="Inter,Segoe UI,Arial,sans-serif" font-size="8" fill="#16a34a">77</text><rect x="413.3" y="156.5" width="20" height="71.5" rx="2" fill="#2eaf5f" fill-opacity="0.30" stroke="#176c37" stroke-width="1.6"/><line x1="413.3" y1="156.5" x2="433.3" y2="156.5" stroke="#176c37" stroke-width="2.4"/><text x="423.3" y="152.5" text-anchor="middle" font-family="Inter,Segoe UI,Arial,sans-serif" font-size="8" fill="#176c37">83</text><rect x="437.3" y="98.8" width="20" height="129.2" rx="2" fill="#f2b705" fill-opacity="0.30" stroke="#9a6a00" stroke-width="1.6"/><line x1="437.3" y1="98.8" x2="457.3" y2="98.8" stroke="#9a6a00" stroke-width="2.4"/><text x="447.3" y="94.8" text-anchor="middle" font-family="Inter,Segoe UI,Arial,sans-serif" font-size="8" fill="#9a6a00">150</text><rect x="461.3" y="70.0" width="20" height="158.0" rx="2" fill="#d1d5db" fill-opacity="0.30" stroke="#6b7280" stroke-width="1.6"/><line x1="461.3" y1="70.0" x2="481.3" y2="70.0" stroke="#6b7280" stroke-width="2.4"/><text x="471.3" y="66.0" text-anchor="middle" font-family="Inter,Segoe UI,Arial,sans-serif" font-size="8" fill="#6b7280">184</text><text x="435.3" y="244" text-anchor="middle" font-family="Inter,Segoe UI,Arial,sans-serif" font-size="10" font-weight="700" fill="#111827">low repeat</text><rect x="52" y="260" width="10" height="10" rx="2" fill="#86efac" fill-opacity="0.40" stroke="#16a34a" stroke-width="1.4"/><text x="68" y="269" font-family="Inter,Segoe UI,Arial,sans-serif" font-size="9" fill="#374151">ax direct</text><rect x="167" y="260" width="10" height="10" rx="2" fill="#2eaf5f" fill-opacity="0.40" stroke="#176c37" stroke-width="1.4"/><text x="183" y="269" font-family="Inter,Segoe UI,Arial,sans-serif" font-size="9" fill="#374151">ax + n-gram</text><rect x="282" y="260" width="10" height="10" rx="2" fill="#f2b705" fill-opacity="0.40" stroke="#9a6a00" stroke-width="1.4"/><text x="298" y="269" font-family="Inter,Segoe UI,Arial,sans-serif" font-size="9" fill="#374151">lightning (temp=0.6)</text><rect x="397" y="260" width="10" height="10" rx="2" fill="#d1d5db" fill-opacity="0.40" stroke="#6b7280" stroke-width="1.4"/><text x="413" y="269" font-family="Inter,Segoe UI,Arial,sans-serif" font-size="9" fill="#374151">oracle (bound)</text></svg>
