<svg xmlns="http://www.w3.org/2000/svg" width="760" height="460" viewBox="0 0 760 460" role="img" aria-labelledby="title desc">
<title>Gemma 4 31B 4-bit — Prefill throughput</title>
<desc>Grouped box-and-whisker plot comparing AX assistant MTP, AX assistant MTP+n-gram across flappy, long_code, python_modules_long prompt suites.</desc>
<rect width="100%" height="100%" fill="#f8fafc"/>
<text x="24" y="24" font-family="Inter,Segoe UI,Arial,sans-serif" font-size="16" font-weight="700" fill="#111827">Gemma 4 31B 4-bit — Prefill throughput</text>
<text x="24" y="46" font-family="Inter,Segoe UI,Arial,sans-serif" font-size="11" fill="#4b5563">All suites | box=IQR | whiskers=min/max | dots=runs</text>
<text x="24" y="62" font-family="Inter,Segoe UI,Arial,sans-serif" font-size="10" fill="#6b7280">Apple M5 Max · AX Engine v5.2.4 · gate 0.999 · T=0.6/top_p=0.95/top_k=20</text>
<rect x="667" y="13" width="59" height="22" rx="11" fill="#eef2ff" stroke="#c7d2fe"/>
<text x="696.5" y="28" text-anchor="middle" font-family="Inter,Segoe UI,Arial,sans-serif" font-size="10" font-weight="700" fill="#3730a3">tok/s</text>
<text x="726" y="52" text-anchor="end" font-family="Inter,Segoe UI,Arial,sans-serif" font-size="10" font-weight="700" fill="#374151">Higher is better</text>
<rect x="64" y="86" width="496" height="268" rx="6" fill="#ffffff" stroke="#dbe3ef"/>
<line x1="64" y1="354.0" x2="560" y2="354.0" stroke="#e5e7eb" stroke-width="1"/>
<text x="56" y="357.0" text-anchor="end" font-family="Inter,Segoe UI,Arial,sans-serif" font-size="11" fill="#6b7280">0.0</text>
<line x1="64" y1="287.0" x2="560" y2="287.0" stroke="#e5e7eb" stroke-width="1"/>
<text x="56" y="290.0" text-anchor="end" font-family="Inter,Segoe UI,Arial,sans-serif" font-size="11" fill="#6b7280">250</text>
<line x1="64" y1="220.0" x2="560" y2="220.0" stroke="#e5e7eb" stroke-width="1"/>
<text x="56" y="223.0" text-anchor="end" font-family="Inter,Segoe UI,Arial,sans-serif" font-size="11" fill="#6b7280">500</text>
<line x1="64" y1="153.0" x2="560" y2="153.0" stroke="#e5e7eb" stroke-width="1"/>
<text x="56" y="156.0" text-anchor="end" font-family="Inter,Segoe UI,Arial,sans-serif" font-size="11" fill="#6b7280">750</text>
<line x1="64" y1="86.0" x2="560" y2="86.0" stroke="#e5e7eb" stroke-width="1"/>
<text x="56" y="89.0" text-anchor="end" font-family="Inter,Segoe UI,Arial,sans-serif" font-size="11" fill="#6b7280">1k</text>
<line x1="64" y1="140.0" x2="560" y2="140.0" stroke="#dc2626" stroke-width="1.2" stroke-dasharray="1 4" stroke-linecap="round"/>
<text x="568" y="135.0" text-anchor="start" font-family="Inter,Segoe UI,Arial,sans-serif" font-size="11" font-weight="700" fill="#dc2626" data-label="highest median">highest: 799</text>
<text x="146.7" y="398" text-anchor="middle" font-family="Inter,Segoe UI,Arial,sans-serif" font-size="11" font-weight="700" fill="#111827">flappy</text>
<circle cx="95.8" cy="149.3" r="1.45" fill="#2eaf5f" fill-opacity="0.46"/>
<circle cx="98.8" cy="147.3" r="1.45" fill="#2eaf5f" fill-opacity="0.46"/>
<circle cx="101.9" cy="145.5" r="1.45" fill="#2eaf5f" fill-opacity="0.46"/>
<circle cx="104.9" cy="149.8" r="1.45" fill="#2eaf5f" fill-opacity="0.46"/>
<circle cx="108.0" cy="151.0" r="1.45" fill="#2eaf5f" fill-opacity="0.46"/>
<circle cx="111.1" cy="162.9" r="1.45" fill="#2eaf5f" fill-opacity="0.46"/>
<circle cx="114.1" cy="162.3" r="1.45" fill="#2eaf5f" fill-opacity="0.46"/>
<circle cx="117.2" cy="162.0" r="1.45" fill="#2eaf5f" fill-opacity="0.46"/>
<circle cx="120.2" cy="164.2" r="1.45" fill="#2eaf5f" fill-opacity="0.46"/>
<circle cx="95.8" cy="159.5" r="1.45" fill="#2eaf5f" fill-opacity="0.46"/>
<circle cx="98.8" cy="158.2" r="1.45" fill="#2eaf5f" fill-opacity="0.46"/>
<circle cx="101.9" cy="164.1" r="1.45" fill="#2eaf5f" fill-opacity="0.46"/>
<circle cx="104.9" cy="159.3" r="1.45" fill="#2eaf5f" fill-opacity="0.46"/>
<circle cx="108.0" cy="152.3" r="1.45" fill="#2eaf5f" fill-opacity="0.46"/>
<circle cx="111.1" cy="156.9" r="1.45" fill="#2eaf5f" fill-opacity="0.46"/>
<circle cx="114.1" cy="146.3" r="1.45" fill="#2eaf5f" fill-opacity="0.46"/>
<circle cx="117.2" cy="144.0" r="1.45" fill="#2eaf5f" fill-opacity="0.46"/>
<circle cx="120.2" cy="148.5" r="1.45" fill="#2eaf5f" fill-opacity="0.46"/>
<circle cx="95.8" cy="144.6" r="1.45" fill="#2eaf5f" fill-opacity="0.46"/>
<circle cx="98.8" cy="150.9" r="1.45" fill="#2eaf5f" fill-opacity="0.46"/>
<line x1="108.0" y1="144.0" x2="108.0" y2="164.2" stroke="#2eaf5f" stroke-opacity="0.86" stroke-width="1.8"/>
<line x1="95.8" y1="144.0" x2="120.2" y2="144.0" stroke="#2eaf5f" stroke-opacity="0.86" stroke-width="1.8"/>
<line x1="95.8" y1="164.2" x2="120.2" y2="164.2" stroke="#2eaf5f" stroke-opacity="0.86" stroke-width="1.8"/>
<rect x="91.0" y="148.2" width="34.0" height="11.9" rx="2" fill="#2eaf5f" fill-opacity="0.18" stroke="#2eaf5f" stroke-opacity="0.9" stroke-width="1.8"/>
<line x1="91.0" y1="151.7" x2="125.0" y2="151.7" stroke="#2eaf5f" stroke-opacity="0.96" stroke-width="2.6"/>
<text x="131.0" y="155.7" text-anchor="start" font-family="Inter,Segoe UI,Arial,sans-serif" font-size="11" font-weight="700" fill="#111827" stroke="#ffffff" stroke-width="3" paint-order="stroke">755</text>
<circle cx="173.1" cy="150.8" r="1.45" fill="#137a3d" fill-opacity="0.46"/>
<circle cx="176.2" cy="153.2" r="1.45" fill="#137a3d" fill-opacity="0.46"/>
<circle cx="179.2" cy="154.7" r="1.45" fill="#137a3d" fill-opacity="0.46"/>
<circle cx="182.3" cy="153.6" r="1.45" fill="#137a3d" fill-opacity="0.46"/>
<circle cx="185.3" cy="154.9" r="1.45" fill="#137a3d" fill-opacity="0.46"/>
<circle cx="188.4" cy="166.6" r="1.45" fill="#137a3d" fill-opacity="0.46"/>
<circle cx="191.5" cy="159.9" r="1.45" fill="#137a3d" fill-opacity="0.46"/>
<circle cx="194.5" cy="167.0" r="1.45" fill="#137a3d" fill-opacity="0.46"/>
<circle cx="197.6" cy="166.6" r="1.45" fill="#137a3d" fill-opacity="0.46"/>
<circle cx="173.1" cy="165.0" r="1.45" fill="#137a3d" fill-opacity="0.46"/>
<circle cx="176.2" cy="162.0" r="1.45" fill="#137a3d" fill-opacity="0.46"/>
<circle cx="179.2" cy="156.9" r="1.45" fill="#137a3d" fill-opacity="0.46"/>
<circle cx="182.3" cy="151.7" r="1.45" fill="#137a3d" fill-opacity="0.46"/>
<circle cx="185.3" cy="151.7" r="1.45" fill="#137a3d" fill-opacity="0.46"/>
<circle cx="188.4" cy="151.9" r="1.45" fill="#137a3d" fill-opacity="0.46"/>
<circle cx="191.5" cy="143.9" r="1.45" fill="#137a3d" fill-opacity="0.46"/>
<circle cx="194.5" cy="152.7" r="1.45" fill="#137a3d" fill-opacity="0.46"/>
<circle cx="197.6" cy="151.3" r="1.45" fill="#137a3d" fill-opacity="0.46"/>
<circle cx="173.1" cy="150.9" r="1.45" fill="#137a3d" fill-opacity="0.46"/>
<circle cx="176.2" cy="149.9" r="1.45" fill="#137a3d" fill-opacity="0.46"/>
<line x1="185.3" y1="143.9" x2="185.3" y2="167.0" stroke="#137a3d" stroke-opacity="0.86" stroke-width="1.8"/>
<line x1="173.1" y1="143.9" x2="197.6" y2="143.9" stroke="#137a3d" stroke-opacity="0.86" stroke-width="1.8"/>
<line x1="173.1" y1="167.0" x2="197.6" y2="167.0" stroke="#137a3d" stroke-opacity="0.86" stroke-width="1.8"/>
<rect x="168.3" y="151.6" width="34.0" height="8.9" rx="2" fill="#137a3d" fill-opacity="0.18" stroke="#137a3d" stroke-opacity="0.9" stroke-width="1.8"/>
<line x1="168.3" y1="153.4" x2="202.3" y2="153.4" stroke="#137a3d" stroke-opacity="0.96" stroke-width="2.6"/>
<text x="208.3" y="157.4" text-anchor="start" font-family="Inter,Segoe UI,Arial,sans-serif" font-size="11" font-weight="700" fill="#111827" stroke="#ffffff" stroke-width="3" paint-order="stroke">749</text>
<text x="312.0" y="398" text-anchor="middle" font-family="Inter,Segoe UI,Arial,sans-serif" font-size="11" font-weight="700" fill="#111827">long_code</text>
<circle cx="261.1" cy="146.1" r="1.45" fill="#2eaf5f" fill-opacity="0.46"/>
<circle cx="264.2" cy="147.2" r="1.45" fill="#2eaf5f" fill-opacity="0.46"/>
<circle cx="267.2" cy="145.1" r="1.45" fill="#2eaf5f" fill-opacity="0.46"/>
<circle cx="270.3" cy="147.3" r="1.45" fill="#2eaf5f" fill-opacity="0.46"/>
<circle cx="273.3" cy="134.5" r="1.45" fill="#2eaf5f" fill-opacity="0.46"/>
<circle cx="276.4" cy="160.2" r="1.45" fill="#2eaf5f" fill-opacity="0.46"/>
<circle cx="279.5" cy="160.5" r="1.45" fill="#2eaf5f" fill-opacity="0.46"/>
<circle cx="282.5" cy="148.4" r="1.45" fill="#2eaf5f" fill-opacity="0.46"/>
<circle cx="285.6" cy="148.0" r="1.45" fill="#2eaf5f" fill-opacity="0.46"/>
<circle cx="261.1" cy="149.8" r="1.45" fill="#2eaf5f" fill-opacity="0.46"/>
<circle cx="264.2" cy="133.5" r="1.45" fill="#2eaf5f" fill-opacity="0.46"/>
<circle cx="267.2" cy="136.4" r="1.45" fill="#2eaf5f" fill-opacity="0.46"/>
<circle cx="270.3" cy="135.8" r="1.45" fill="#2eaf5f" fill-opacity="0.46"/>
<circle cx="273.3" cy="150.4" r="1.45" fill="#2eaf5f" fill-opacity="0.46"/>
<circle cx="276.4" cy="141.9" r="1.45" fill="#2eaf5f" fill-opacity="0.46"/>
<circle cx="279.5" cy="154.1" r="1.45" fill="#2eaf5f" fill-opacity="0.46"/>
<circle cx="282.5" cy="153.7" r="1.45" fill="#2eaf5f" fill-opacity="0.46"/>
<circle cx="285.6" cy="154.2" r="1.45" fill="#2eaf5f" fill-opacity="0.46"/>
<circle cx="261.1" cy="154.6" r="1.45" fill="#2eaf5f" fill-opacity="0.46"/>
<circle cx="264.2" cy="153.7" r="1.45" fill="#2eaf5f" fill-opacity="0.46"/>
<line x1="273.3" y1="133.5" x2="273.3" y2="160.5" stroke="#2eaf5f" stroke-opacity="0.86" stroke-width="1.8"/>
<line x1="261.1" y1="133.5" x2="285.6" y2="133.5" stroke="#2eaf5f" stroke-opacity="0.86" stroke-width="1.8"/>
<line x1="261.1" y1="160.5" x2="285.6" y2="160.5" stroke="#2eaf5f" stroke-opacity="0.86" stroke-width="1.8"/>
<rect x="256.3" y="144.3" width="34.0" height="9.5" rx="2" fill="#2eaf5f" fill-opacity="0.18" stroke="#2eaf5f" stroke-opacity="0.9" stroke-width="1.8"/>
<line x1="256.3" y1="148.2" x2="290.3" y2="148.2" stroke="#2eaf5f" stroke-opacity="0.96" stroke-width="2.6"/>
<text x="296.3" y="152.2" text-anchor="start" font-family="Inter,Segoe UI,Arial,sans-serif" font-size="11" font-weight="700" fill="#111827" stroke="#ffffff" stroke-width="3" paint-order="stroke">768</text>
<circle cx="338.4" cy="134.0" r="1.45" fill="#137a3d" fill-opacity="0.46"/>
<circle cx="341.5" cy="133.3" r="1.45" fill="#137a3d" fill-opacity="0.46"/>
<circle cx="344.5" cy="133.5" r="1.45" fill="#137a3d" fill-opacity="0.46"/>
<circle cx="347.6" cy="133.2" r="1.45" fill="#137a3d" fill-opacity="0.46"/>
<circle cx="350.7" cy="135.9" r="1.45" fill="#137a3d" fill-opacity="0.46"/>
<circle cx="353.7" cy="147.2" r="1.45" fill="#137a3d" fill-opacity="0.46"/>
<circle cx="356.8" cy="147.0" r="1.45" fill="#137a3d" fill-opacity="0.46"/>
<circle cx="359.8" cy="144.0" r="1.45" fill="#137a3d" fill-opacity="0.46"/>
<circle cx="362.9" cy="146.4" r="1.45" fill="#137a3d" fill-opacity="0.46"/>
<circle cx="338.4" cy="147.2" r="1.45" fill="#137a3d" fill-opacity="0.46"/>
<circle cx="341.5" cy="131.7" r="1.45" fill="#137a3d" fill-opacity="0.46"/>
<circle cx="344.5" cy="131.6" r="1.45" fill="#137a3d" fill-opacity="0.46"/>
<circle cx="347.6" cy="129.4" r="1.45" fill="#137a3d" fill-opacity="0.46"/>
<circle cx="350.7" cy="132.9" r="1.45" fill="#137a3d" fill-opacity="0.46"/>
<circle cx="353.7" cy="126.8" r="1.45" fill="#137a3d" fill-opacity="0.46"/>
<circle cx="356.8" cy="154.3" r="1.45" fill="#137a3d" fill-opacity="0.46"/>
<circle cx="359.8" cy="155.0" r="1.45" fill="#137a3d" fill-opacity="0.46"/>
<circle cx="362.9" cy="155.5" r="1.45" fill="#137a3d" fill-opacity="0.46"/>
<circle cx="338.4" cy="155.3" r="1.45" fill="#137a3d" fill-opacity="0.46"/>
<circle cx="341.5" cy="155.1" r="1.45" fill="#137a3d" fill-opacity="0.46"/>
<line x1="350.7" y1="126.8" x2="350.7" y2="155.5" stroke="#137a3d" stroke-opacity="0.86" stroke-width="1.8"/>
<line x1="338.4" y1="126.8" x2="362.9" y2="126.8" stroke="#137a3d" stroke-opacity="0.86" stroke-width="1.8"/>
<line x1="338.4" y1="155.5" x2="362.9" y2="155.5" stroke="#137a3d" stroke-opacity="0.86" stroke-width="1.8"/>
<rect x="333.7" y="133.1" width="34.0" height="15.9" rx="2" fill="#137a3d" fill-opacity="0.18" stroke="#137a3d" stroke-opacity="0.9" stroke-width="1.8"/>
<line x1="333.7" y1="140.0" x2="367.7" y2="140.0" stroke="#137a3d" stroke-opacity="0.96" stroke-width="2.6"/>
<text x="373.7" y="144.0" text-anchor="start" font-family="Inter,Segoe UI,Arial,sans-serif" font-size="11" font-weight="700" fill="#111827" stroke="#ffffff" stroke-width="3" paint-order="stroke">799</text>
<text x="477.3" y="398" text-anchor="middle" font-family="Inter,Segoe UI,Arial,sans-serif" font-size="11" font-weight="700" fill="#111827">python_modules_long</text>
<circle cx="426.4" cy="167.5" r="1.45" fill="#2eaf5f" fill-opacity="0.46"/>
<circle cx="429.5" cy="168.3" r="1.45" fill="#2eaf5f" fill-opacity="0.46"/>
<circle cx="432.5" cy="167.4" r="1.45" fill="#2eaf5f" fill-opacity="0.46"/>
<circle cx="435.6" cy="166.6" r="1.45" fill="#2eaf5f" fill-opacity="0.46"/>
<circle cx="438.7" cy="170.0" r="1.45" fill="#2eaf5f" fill-opacity="0.46"/>
<circle cx="441.7" cy="141.0" r="1.45" fill="#2eaf5f" fill-opacity="0.46"/>
<circle cx="444.8" cy="139.3" r="1.45" fill="#2eaf5f" fill-opacity="0.46"/>
<circle cx="447.8" cy="140.2" r="1.45" fill="#2eaf5f" fill-opacity="0.46"/>
<circle cx="450.9" cy="137.5" r="1.45" fill="#2eaf5f" fill-opacity="0.46"/>
<circle cx="426.4" cy="139.8" r="1.45" fill="#2eaf5f" fill-opacity="0.46"/>
<circle cx="429.5" cy="156.8" r="1.45" fill="#2eaf5f" fill-opacity="0.46"/>
<circle cx="432.5" cy="157.1" r="1.45" fill="#2eaf5f" fill-opacity="0.46"/>
<circle cx="435.6" cy="154.2" r="1.45" fill="#2eaf5f" fill-opacity="0.46"/>
<circle cx="438.7" cy="156.0" r="1.45" fill="#2eaf5f" fill-opacity="0.46"/>
<circle cx="441.7" cy="154.4" r="1.45" fill="#2eaf5f" fill-opacity="0.46"/>
<line x1="438.7" y1="137.5" x2="438.7" y2="170.0" stroke="#2eaf5f" stroke-opacity="0.86" stroke-width="1.8"/>
<line x1="426.4" y1="137.5" x2="450.9" y2="137.5" stroke="#2eaf5f" stroke-opacity="0.86" stroke-width="1.8"/>
<line x1="426.4" y1="170.0" x2="450.9" y2="170.0" stroke="#2eaf5f" stroke-opacity="0.86" stroke-width="1.8"/>
<rect x="421.7" y="140.6" width="34.0" height="26.4" rx="2" fill="#2eaf5f" fill-opacity="0.18" stroke="#2eaf5f" stroke-opacity="0.9" stroke-width="1.8"/>
<line x1="421.7" y1="156.0" x2="455.7" y2="156.0" stroke="#2eaf5f" stroke-opacity="0.96" stroke-width="2.6"/>
<text x="461.7" y="160.0" text-anchor="start" font-family="Inter,Segoe UI,Arial,sans-serif" font-size="11" font-weight="700" fill="#111827" stroke="#ffffff" stroke-width="3" paint-order="stroke">739</text>
<circle cx="503.8" cy="164.8" r="1.45" fill="#137a3d" fill-opacity="0.46"/>
<circle cx="506.8" cy="165.0" r="1.45" fill="#137a3d" fill-opacity="0.46"/>
<circle cx="509.9" cy="164.9" r="1.45" fill="#137a3d" fill-opacity="0.46"/>
<circle cx="512.9" cy="168.7" r="1.45" fill="#137a3d" fill-opacity="0.46"/>
<circle cx="516.0" cy="169.0" r="1.45" fill="#137a3d" fill-opacity="0.46"/>
<circle cx="519.1" cy="137.0" r="1.45" fill="#137a3d" fill-opacity="0.46"/>
<circle cx="522.1" cy="141.3" r="1.45" fill="#137a3d" fill-opacity="0.46"/>
<circle cx="525.2" cy="142.0" r="1.45" fill="#137a3d" fill-opacity="0.46"/>
<circle cx="528.2" cy="142.9" r="1.45" fill="#137a3d" fill-opacity="0.46"/>
<circle cx="503.8" cy="141.7" r="1.45" fill="#137a3d" fill-opacity="0.46"/>
<circle cx="506.8" cy="158.9" r="1.45" fill="#137a3d" fill-opacity="0.46"/>
<circle cx="509.9" cy="158.4" r="1.45" fill="#137a3d" fill-opacity="0.46"/>
<circle cx="512.9" cy="161.6" r="1.45" fill="#137a3d" fill-opacity="0.46"/>
<circle cx="516.0" cy="159.6" r="1.45" fill="#137a3d" fill-opacity="0.46"/>
<circle cx="519.1" cy="157.6" r="1.45" fill="#137a3d" fill-opacity="0.46"/>
<line x1="516.0" y1="137.0" x2="516.0" y2="169.0" stroke="#137a3d" stroke-opacity="0.86" stroke-width="1.8"/>
<line x1="503.8" y1="137.0" x2="528.2" y2="137.0" stroke="#137a3d" stroke-opacity="0.86" stroke-width="1.8"/>
<line x1="503.8" y1="169.0" x2="528.2" y2="169.0" stroke="#137a3d" stroke-opacity="0.86" stroke-width="1.8"/>
<rect x="499.0" y="142.5" width="34.0" height="22.4" rx="2" fill="#137a3d" fill-opacity="0.18" stroke="#137a3d" stroke-opacity="0.9" stroke-width="1.8"/>
<line x1="499.0" y1="158.9" x2="533.0" y2="158.9" stroke="#137a3d" stroke-opacity="0.96" stroke-width="2.6"/>
<text x="539.0" y="162.9" text-anchor="start" font-family="Inter,Segoe UI,Arial,sans-serif" font-size="11" font-weight="700" fill="#111827" stroke="#ffffff" stroke-width="3" paint-order="stroke">728</text>
<rect x="64.0" y="433" width="10" height="10" rx="2" fill="#2eaf5f" fill-opacity="0.72"/>
<text x="78.0" y="442" font-family="Inter,Segoe UI,Arial,sans-serif" font-size="10" fill="#374151">AX assistant MTP</text>
<rect x="312.0" y="433" width="10" height="10" rx="2" fill="#137a3d" fill-opacity="0.72"/>
<text x="326.0" y="442" font-family="Inter,Segoe UI,Arial,sans-serif" font-size="10" fill="#374151">AX assistant MTP+n-gram</text>
</svg>
