<svg xmlns="http://www.w3.org/2000/svg" width="800" height="430" viewBox="0 0 800 430" role="img" aria-labelledby="title desc"><title>Gemma 4 — TTFT</title><desc>Grouped box-and-whisker plot comparing llama.cpp b9430, mlx-lm 0.31.3, AX Engine v5.1.8 at 128/512/2048 prompt tokens for Gemma 4 models. The best median value label is red.</desc><rect width="800" height="430" fill="#f8fafc"/><text x="64" y="24" font-family="Inter,Segoe UI,Arial,sans-serif" font-size="16" font-weight="700" fill="#111827">Gemma 4 — TTFT</text><text x="64" y="46" font-family="Inter,Segoe UI,Arial,sans-serif" font-size="11" fill="#4b5563">box=IQR | whiskers=min/max | dots=runs | opacity: 128/512/2048 tok</text><text x="64" y="62" font-family="Inter,Segoe UI,Arial,sans-serif" font-size="10" fill="#6b7280">llama.cpp b9430 · mlx-lm 0.31.3 · AX Engine v5.1.8</text><rect x="718" y="13" width="48" height="22" rx="11" fill="#eef2ff" stroke="#c7d2fe"/><text x="742.0" y="28" text-anchor="middle" font-family="Inter,Segoe UI,Arial,sans-serif" font-size="10" font-weight="700" fill="#3730a3">ms</text><text x="766" y="52" text-anchor="end" font-family="Inter,Segoe UI,Arial,sans-serif" font-size="10" font-weight="700" fill="#dc2626">Lower is better</text><rect x="64" y="86" width="576" height="230" rx="6" fill="#ffffff" stroke="#dbe3ef"/><line x1="64" y1="316.0" x2="640" y2="316.0" stroke="#e5e7eb" stroke-width="1"/><text x="56" y="319.0" text-anchor="end" font-family="Inter,Segoe UI,Arial,sans-serif" font-size="11" fill="#6b7280">0</text><line x1="64" y1="258.5" x2="640" y2="258.5" stroke="#e5e7eb" stroke-width="1"/><text x="56" y="261.5" text-anchor="end" font-family="Inter,Segoe UI,Arial,sans-serif" font-size="11" fill="#6b7280">1k</text><line x1="64" y1="201.0" x2="640" y2="201.0" stroke="#e5e7eb" stroke-width="1"/><text x="56" y="204.0" text-anchor="end" font-family="Inter,Segoe UI,Arial,sans-serif" font-size="11" fill="#6b7280">2k</text><line x1="64" y1="143.5" x2="640" y2="143.5" stroke="#e5e7eb" stroke-width="1"/><text x="56" y="146.5" text-anchor="end" font-family="Inter,Segoe UI,Arial,sans-serif" font-size="11" fill="#6b7280">3k</text><line x1="64" y1="86.0" x2="640" y2="86.0" stroke="#e5e7eb" stroke-width="1"/><text x="56" y="89.0" text-anchor="end" font-family="Inter,Segoe UI,Arial,sans-serif" font-size="11" fill="#6b7280">4k</text><line x1="130" y1="301.4" x2="130" y2="314.0" stroke="#f97316" stroke-opacity="0.55" stroke-width="1.7"/><line x1="124.24" y1="301.4" x2="135.76" y2="301.4" stroke="#f97316" stroke-opacity="0.55" stroke-width="1.7"/><line x1="124.24" y1="314.0" x2="135.76" y2="314.0" stroke="#f97316" stroke-opacity="0.55" stroke-width="1.7"/><rect x="122" y="306.9" width="16" height="6.5" rx="2" fill="#f97316" fill-opacity="0.08" stroke="#f97316" stroke-opacity="0.55" stroke-width="1.7"/><line x1="122" y1="312.1" x2="138" y2="312.1" stroke="#f97316" stroke-opacity="0.55" stroke-width="2.4"/><text x="142" y="315.6" text-anchor="start" font-family="Inter,Segoe UI,Arial,sans-serif" font-size="9" font-weight="700" fill="#dc2626" stroke="#ffffff" stroke-width="3" paint-order="stroke">68.1</text><text x="130" y="331" text-anchor="middle" font-family="Inter,Segoe UI,Arial,sans-serif" font-size="9" fill="#6b7280">128</text><circle cx="127" cy="314.0" r="1.4" fill="#c2410c" fill-opacity="0.5"/><circle cx="128.5" cy="314.0" r="1.4" fill="#c2410c" fill-opacity="0.5"/><circle cx="130" cy="312.8" r="1.4" fill="#c2410c" fill-opacity="0.5"/><circle cx="131.5" cy="312.1" r="1.4" fill="#c2410c" fill-opacity="0.5"/><circle cx="133" cy="311.6" r="1.4" fill="#c2410c" fill-opacity="0.5"/><circle cx="127" cy="302.1" r="1.4" fill="#c2410c" fill-opacity="0.5"/><circle cx="128.5" cy="301.4" r="1.4" fill="#c2410c" fill-opacity="0.5"/><line x1="160" y1="269.4" x2="160" y2="311.9" stroke="#f97316" stroke-opacity="0.78" stroke-width="1.7"/><line x1="154.24" y1="269.4" x2="165.76" y2="269.4" stroke="#f97316" stroke-opacity="0.78" stroke-width="1.7"/><line x1="154.24" y1="311.9" x2="165.76" y2="311.9" stroke="#f97316" stroke-opacity="0.78" stroke-width="1.7"/><rect x="152" y="288.9" width="16" height="21.6" rx="2" fill="#f97316" fill-opacity="0.17" stroke="#f97316" stroke-opacity="0.78" stroke-width="1.7"/><line x1="152" y1="307.3" x2="168" y2="307.3" stroke="#f97316" stroke-opacity="0.78" stroke-width="2.4"/><text x="172" y="310.8" text-anchor="start" font-family="Inter,Segoe UI,Arial,sans-serif" font-size="9" font-weight="700" fill="#111827" stroke="#ffffff" stroke-width="3" paint-order="stroke">150.6</text><text x="160" y="331" text-anchor="middle" font-family="Inter,Segoe UI,Arial,sans-serif" font-size="9" fill="#6b7280">512</text><circle cx="157" cy="311.9" r="1.4" fill="#c2410c" fill-opacity="0.7"/><circle cx="158.5" cy="311.9" r="1.4" fill="#c2410c" fill-opacity="0.7"/><circle cx="160" cy="309.2" r="1.4" fill="#c2410c" fill-opacity="0.7"/><circle cx="161.5" cy="307.3" r="1.4" fill="#c2410c" fill-opacity="0.7"/><circle cx="163" cy="306.7" r="1.4" fill="#c2410c" fill-opacity="0.7"/><circle cx="157" cy="269.4" r="1.4" fill="#c2410c" fill-opacity="0.7"/><circle cx="158.5" cy="271.1" r="1.4" fill="#c2410c" fill-opacity="0.7"/><line x1="190" y1="103.5" x2="190" y2="300.3" stroke="#f97316" stroke-opacity="1.0" stroke-width="1.7"/><line x1="184.24" y1="103.5" x2="195.76" y2="103.5" stroke="#f97316" stroke-opacity="1.0" stroke-width="1.7"/><line x1="184.24" y1="300.3" x2="195.76" y2="300.3" stroke="#f97316" stroke-opacity="1.0" stroke-width="1.7"/><rect x="182" y="194.0" width="16" height="100.4" rx="2" fill="#f97316" fill-opacity="0.3" stroke="#f97316" stroke-opacity="1.0" stroke-width="1.7"/><line x1="182" y1="282.8" x2="198" y2="282.8" stroke="#f97316" stroke-opacity="1.0" stroke-width="2.4"/><text x="202" y="286.3" text-anchor="start" font-family="Inter,Segoe UI,Arial,sans-serif" font-size="9" font-weight="700" fill="#111827" stroke="#ffffff" stroke-width="3" paint-order="stroke">577.8</text><text x="190" y="331" text-anchor="middle" font-family="Inter,Segoe UI,Arial,sans-serif" font-size="9" fill="#6b7280">2048</text><circle cx="187" cy="300.2" r="1.4" fill="#c2410c" fill-opacity="0.9"/><circle cx="188.5" cy="300.3" r="1.4" fill="#c2410c" fill-opacity="0.9"/><circle cx="190" cy="288.7" r="1.4" fill="#c2410c" fill-opacity="0.9"/><circle cx="191.5" cy="282.8" r="1.4" fill="#c2410c" fill-opacity="0.9"/><circle cx="193" cy="280.0" r="1.4" fill="#c2410c" fill-opacity="0.9"/><circle cx="187" cy="103.5" r="1.4" fill="#c2410c" fill-opacity="0.9"/><circle cx="188.5" cy="108.0" r="1.4" fill="#c2410c" fill-opacity="0.9"/><text x="160" y="348" text-anchor="middle" font-family="Inter,Segoe UI,Arial,sans-serif" font-size="10" font-weight="700" fill="#111827">llama.cpp b9430</text><line x1="322" y1="289.7" x2="322" y2="312.9" stroke="#f2b705" stroke-opacity="0.55" stroke-width="1.7"/><line x1="316.24" y1="289.7" x2="327.76" y2="289.7" stroke="#f2b705" stroke-opacity="0.55" stroke-width="1.7"/><line x1="316.24" y1="312.9" x2="327.76" y2="312.9" stroke="#f2b705" stroke-opacity="0.55" stroke-width="1.7"/><rect x="314" y="295.6" width="16" height="16.0" rx="2" fill="#f2b705" fill-opacity="0.08" stroke="#f2b705" stroke-opacity="0.55" stroke-width="1.7"/><line x1="314" y1="303.2" x2="330" y2="303.2" stroke="#f2b705" stroke-opacity="0.55" stroke-width="2.4"/><text x="334" y="306.7" text-anchor="start" font-family="Inter,Segoe UI,Arial,sans-serif" font-size="9" font-weight="700" fill="#111827" stroke="#ffffff" stroke-width="3" paint-order="stroke">222.8</text><text x="322" y="331" text-anchor="middle" font-family="Inter,Segoe UI,Arial,sans-serif" font-size="9" fill="#6b7280">128</text><circle cx="319" cy="312.9" r="1.4" fill="#9a6a00" fill-opacity="0.5"/><circle cx="320.5" cy="312.0" r="1.4" fill="#9a6a00" fill-opacity="0.5"/><circle cx="322" cy="311.1" r="1.4" fill="#9a6a00" fill-opacity="0.5"/><circle cx="323.5" cy="301.2" r="1.4" fill="#9a6a00" fill-opacity="0.5"/><circle cx="325" cy="290.0" r="1.4" fill="#9a6a00" fill-opacity="0.5"/><circle cx="319" cy="303.2" r="1.4" fill="#9a6a00" fill-opacity="0.5"/><circle cx="320.5" cy="289.7" r="1.4" fill="#9a6a00" fill-opacity="0.5"/><line x1="352" y1="261.7" x2="352" y2="312.3" stroke="#f2b705" stroke-opacity="0.78" stroke-width="1.7"/><line x1="346.24" y1="261.7" x2="357.76" y2="261.7" stroke="#f2b705" stroke-opacity="0.78" stroke-width="1.7"/><line x1="346.24" y1="312.3" x2="357.76" y2="312.3" stroke="#f2b705" stroke-opacity="0.78" stroke-width="1.7"/><rect x="344" y="283.2" width="16" height="26.9" rx="2" fill="#f2b705" fill-opacity="0.17" stroke="#f2b705" stroke-opacity="0.78" stroke-width="1.7"/><line x1="344" y1="299.0" x2="360" y2="299.0" stroke="#f2b705" stroke-opacity="0.78" stroke-width="2.4"/><text x="364" y="302.5" text-anchor="start" font-family="Inter,Segoe UI,Arial,sans-serif" font-size="9" font-weight="700" fill="#111827" stroke="#ffffff" stroke-width="3" paint-order="stroke">296.0</text><text x="352" y="331" text-anchor="middle" font-family="Inter,Segoe UI,Arial,sans-serif" font-size="9" fill="#6b7280">512</text><circle cx="349" cy="312.3" r="1.4" fill="#9a6a00" fill-opacity="0.7"/><circle cx="350.5" cy="311.1" r="1.4" fill="#9a6a00" fill-opacity="0.7"/><circle cx="352" cy="309.0" r="1.4" fill="#9a6a00" fill-opacity="0.7"/><circle cx="353.5" cy="297.8" r="1.4" fill="#9a6a00" fill-opacity="0.7"/><circle cx="355" cy="268.5" r="1.4" fill="#9a6a00" fill-opacity="0.7"/><circle cx="349" cy="299.0" r="1.4" fill="#9a6a00" fill-opacity="0.7"/><circle cx="350.5" cy="261.7" r="1.4" fill="#9a6a00" fill-opacity="0.7"/><line x1="382" y1="142.2" x2="382" y2="309.5" stroke="#f2b705" stroke-opacity="1.0" stroke-width="1.7"/><line x1="376.24" y1="142.2" x2="387.76" y2="142.2" stroke="#f2b705" stroke-opacity="1.0" stroke-width="1.7"/><line x1="376.24" y1="309.5" x2="387.76" y2="309.5" stroke="#f2b705" stroke-opacity="1.0" stroke-width="1.7"/><rect x="374" y="217.9" width="16" height="86.2" rx="2" fill="#f2b705" fill-opacity="0.3" stroke="#f2b705" stroke-opacity="1.0" stroke-width="1.7"/><line x1="374" y1="281.5" x2="390" y2="281.5" stroke="#f2b705" stroke-opacity="1.0" stroke-width="2.4"/><text x="394" y="285.0" text-anchor="start" font-family="Inter,Segoe UI,Arial,sans-serif" font-size="9" font-weight="700" fill="#111827" stroke="#ffffff" stroke-width="3" paint-order="stroke">600.4</text><text x="382" y="331" text-anchor="middle" font-family="Inter,Segoe UI,Arial,sans-serif" font-size="9" fill="#6b7280">2048</text><circle cx="379" cy="309.5" r="1.4" fill="#9a6a00" fill-opacity="0.9"/><circle cx="380.5" cy="308.3" r="1.4" fill="#9a6a00" fill-opacity="0.9"/><circle cx="382" cy="299.9" r="1.4" fill="#9a6a00" fill-opacity="0.9"/><circle cx="383.5" cy="280.3" r="1.4" fill="#9a6a00" fill-opacity="0.9"/><circle cx="385" cy="155.5" r="1.4" fill="#9a6a00" fill-opacity="0.9"/><circle cx="379" cy="281.5" r="1.4" fill="#9a6a00" fill-opacity="0.9"/><circle cx="380.5" cy="142.2" r="1.4" fill="#9a6a00" fill-opacity="0.9"/><text x="352" y="348" text-anchor="middle" font-family="Inter,Segoe UI,Arial,sans-serif" font-size="10" font-weight="700" fill="#111827">mlx-lm 0.31.3</text><line x1="514" y1="298.9" x2="514" y2="314.8" stroke="#2eaf5f" stroke-opacity="0.55" stroke-width="1.7"/><line x1="508.24" y1="298.9" x2="519.76" y2="298.9" stroke="#2eaf5f" stroke-opacity="0.55" stroke-width="1.7"/><line x1="508.24" y1="314.8" x2="519.76" y2="314.8" stroke="#2eaf5f" stroke-opacity="0.55" stroke-width="1.7"/><rect x="506" y="305.7" width="16" height="8.6" rx="2" fill="#2eaf5f" fill-opacity="0.08" stroke="#2eaf5f" stroke-opacity="0.55" stroke-width="1.7"/><line x1="506" y1="310.6" x2="522" y2="310.6" stroke="#2eaf5f" stroke-opacity="0.55" stroke-width="2.4"/><text x="526" y="314.1" text-anchor="start" font-family="Inter,Segoe UI,Arial,sans-serif" font-size="9" font-weight="700" fill="#111827" stroke="#ffffff" stroke-width="3" paint-order="stroke">94.5</text><text x="514" y="331" text-anchor="middle" font-family="Inter,Segoe UI,Arial,sans-serif" font-size="9" fill="#6b7280">128</text><circle cx="511" cy="314.8" r="1.4" fill="#176c37" fill-opacity="0.5"/><circle cx="512.5" cy="314.6" r="1.4" fill="#176c37" fill-opacity="0.5"/><circle cx="514" cy="313.9" r="1.4" fill="#176c37" fill-opacity="0.5"/><circle cx="515.5" cy="310.6" r="1.4" fill="#176c37" fill-opacity="0.5"/><circle cx="517" cy="309.7" r="1.4" fill="#176c37" fill-opacity="0.5"/><circle cx="511" cy="301.7" r="1.4" fill="#176c37" fill-opacity="0.5"/><circle cx="512.5" cy="298.9" r="1.4" fill="#176c37" fill-opacity="0.5"/><line x1="544" y1="271.6" x2="544" y2="314.3" stroke="#2eaf5f" stroke-opacity="0.78" stroke-width="1.7"/><line x1="538.24" y1="271.6" x2="549.76" y2="271.6" stroke="#2eaf5f" stroke-opacity="0.78" stroke-width="1.7"/><line x1="538.24" y1="314.3" x2="549.76" y2="314.3" stroke="#2eaf5f" stroke-opacity="0.78" stroke-width="1.7"/><rect x="536" y="290.9" width="16" height="21.9" rx="2" fill="#2eaf5f" fill-opacity="0.17" stroke="#2eaf5f" stroke-opacity="0.78" stroke-width="1.7"/><line x1="536" y1="306.4" x2="552" y2="306.4" stroke="#2eaf5f" stroke-opacity="0.78" stroke-width="2.4"/><text x="556" y="309.9" text-anchor="start" font-family="Inter,Segoe UI,Arial,sans-serif" font-size="9" font-weight="700" fill="#111827" stroke="#ffffff" stroke-width="3" paint-order="stroke">167.7</text><text x="544" y="331" text-anchor="middle" font-family="Inter,Segoe UI,Arial,sans-serif" font-size="9" fill="#6b7280">512</text><circle cx="541" cy="314.3" r="1.4" fill="#176c37" fill-opacity="0.7"/><circle cx="542.5" cy="314.2" r="1.4" fill="#176c37" fill-opacity="0.7"/><circle cx="544" cy="311.3" r="1.4" fill="#176c37" fill-opacity="0.7"/><circle cx="545.5" cy="306.4" r="1.4" fill="#176c37" fill-opacity="0.7"/><circle cx="547" cy="305.4" r="1.4" fill="#176c37" fill-opacity="0.7"/><circle cx="541" cy="276.3" r="1.4" fill="#176c37" fill-opacity="0.7"/><circle cx="542.5" cy="271.6" r="1.4" fill="#176c37" fill-opacity="0.7"/><line x1="574" y1="152.2" x2="574" y2="311.2" stroke="#2eaf5f" stroke-opacity="1.0" stroke-width="1.7"/><line x1="568.24" y1="152.2" x2="579.76" y2="152.2" stroke="#2eaf5f" stroke-opacity="1.0" stroke-width="1.7"/><line x1="568.24" y1="311.2" x2="579.76" y2="311.2" stroke="#2eaf5f" stroke-opacity="1.0" stroke-width="1.7"/><rect x="566" y="226.9" width="16" height="79.3" rx="2" fill="#2eaf5f" fill-opacity="0.3" stroke="#2eaf5f" stroke-opacity="1.0" stroke-width="1.7"/><line x1="566" y1="290.8" x2="582" y2="290.8" stroke="#2eaf5f" stroke-opacity="1.0" stroke-width="2.4"/><text x="586" y="294.3" text-anchor="start" font-family="Inter,Segoe UI,Arial,sans-serif" font-size="9" font-weight="700" fill="#111827" stroke="#ffffff" stroke-width="3" paint-order="stroke">438.0</text><text x="574" y="331" text-anchor="middle" font-family="Inter,Segoe UI,Arial,sans-serif" font-size="9" fill="#6b7280">2048</text><circle cx="571" cy="311.2" r="1.4" fill="#176c37" fill-opacity="0.9"/><circle cx="572.5" cy="309.8" r="1.4" fill="#176c37" fill-opacity="0.9"/><circle cx="574" cy="302.7" r="1.4" fill="#176c37" fill-opacity="0.9"/><circle cx="575.5" cy="290.8" r="1.4" fill="#176c37" fill-opacity="0.9"/><circle cx="577" cy="288.8" r="1.4" fill="#176c37" fill-opacity="0.9"/><circle cx="571" cy="165.1" r="1.4" fill="#176c37" fill-opacity="0.9"/><circle cx="572.5" cy="152.2" r="1.4" fill="#176c37" fill-opacity="0.9"/><text x="544" y="348" text-anchor="middle" font-family="Inter,Segoe UI,Arial,sans-serif" font-size="10" font-weight="700" fill="#111827">AX Engine v5.1.8</text><rect x="64" y="363" width="10" height="10" rx="2" fill="#6b7280" fill-opacity="0.08" stroke="#6b7280" stroke-opacity="0.55" stroke-width="1.4"/><text x="78" y="372" font-family="Inter,Segoe UI,Arial,sans-serif" font-size="10" fill="#374151">128 tok</text><rect x="184" y="363" width="10" height="10" rx="2" fill="#6b7280" fill-opacity="0.17" stroke="#6b7280" stroke-opacity="0.78" stroke-width="1.4"/><text x="198" y="372" font-family="Inter,Segoe UI,Arial,sans-serif" font-size="10" fill="#374151">512 tok</text><rect x="304" y="363" width="10" height="10" rx="2" fill="#6b7280" fill-opacity="0.3" stroke="#6b7280" stroke-opacity="1.0" stroke-width="1.4"/><text x="318" y="372" font-family="Inter,Segoe UI,Arial,sans-serif" font-size="10" fill="#374151">2048 tok</text></svg>
