<svg xmlns="http://www.w3.org/2000/svg" width="460" height="276" viewBox="0 0 460 276" role="img" aria-labelledby="title desc"><title>Decode rate - 128 tok</title><desc>Box-and-Whisker Plot comparing llama.cpp, mlx_lm, ax_engine, ax_engine + n-gram at 128 prompt tokens across README benchmark rows on a linear y-axis. A red dotted horizontal line marks the highest median in this chart.</desc><rect width="460" height="276" fill="#ffffff"/><text x="52" y="22" font-family="Inter,Segoe UI,Arial,sans-serif" font-size="16" font-weight="700" fill="#111827">Decode rate - 128 tok</text><text x="52" y="40" font-family="Inter,Segoe UI,Arial,sans-serif" font-size="10" fill="#6b7280">AX n-gram is the default policy</text><text x="442" y="22" text-anchor="end" font-family="Inter,Segoe UI,Arial,sans-serif" font-size="10" fill="#6b7280">tok/s</text><text x="442" y="40" text-anchor="end" font-family="Inter,Segoe UI,Arial,sans-serif" font-size="10" font-weight="700" fill="#374151">Higher is better</text><line x1="52" y1="206.0" x2="442" y2="206.0" stroke="#e5e7eb" stroke-width="1"/><text x="44" y="209.0" text-anchor="end" font-family="Inter,Segoe UI,Arial,sans-serif" font-size="10" fill="#6b7280">0</text><line x1="52" y1="126.0" x2="442" y2="126.0" stroke="#e5e7eb" stroke-width="1"/><text x="44" y="129.0" text-anchor="end" font-family="Inter,Segoe UI,Arial,sans-serif" font-size="10" fill="#6b7280">375</text><line x1="52" y1="46.0" x2="442" y2="46.0" stroke="#e5e7eb" stroke-width="1"/><text x="44" y="49.0" text-anchor="end" font-family="Inter,Segoe UI,Arial,sans-serif" font-size="10" fill="#6b7280">750</text><line x1="52" y1="157.8" x2="442" y2="157.8" stroke="#dc2626" stroke-width="1.2" stroke-dasharray="1 4" stroke-linecap="round"/><line x1="100.75" y1="169.7" x2="100.75" y2="202.3" stroke="#f97316" stroke-width="1.7"/><line x1="88.51" y1="169.7" x2="112.99" y2="169.7" stroke="#f97316" stroke-width="1.7"/><line x1="88.51" y1="202.3" x2="112.99" y2="202.3" stroke="#f97316" stroke-width="1.7"/><rect x="83.75" y="176.1" width="34" height="25.7" rx="3" fill="#f97316" fill-opacity="0.18" stroke="#f97316" stroke-width="1.7"/><line x1="83.75" y1="182.7" x2="117.75" y2="182.7" stroke="#f97316" stroke-width="2.4"/><text x="100.75" y="226" text-anchor="middle" font-family="Inter,Segoe UI,Arial,sans-serif" font-size="9" fill="#111827">llama.cpp</text><text x="100.75" y="242" text-anchor="middle" font-family="Inter,Segoe UI,Arial,sans-serif" font-size="9" fill="#6b7280">med 109.1</text><circle cx="92.59" cy="169.7" r="1.5" fill="#c2410c" fill-opacity="0.9"/><circle cx="96.67" cy="171.9" r="1.5" fill="#c2410c" fill-opacity="0.9"/><circle cx="100.75" cy="173.1" r="1.5" fill="#c2410c" fill-opacity="0.9"/><circle cx="104.83" cy="177.1" r="1.5" fill="#c2410c" fill-opacity="0.9"/><circle cx="108.91" cy="182.4" r="1.5" fill="#c2410c" fill-opacity="0.9"/><circle cx="92.59" cy="181.9" r="1.5" fill="#c2410c" fill-opacity="0.9"/><circle cx="96.67" cy="200.6" r="1.5" fill="#c2410c" fill-opacity="0.9"/><circle cx="100.75" cy="201.9" r="1.5" fill="#c2410c" fill-opacity="0.9"/><circle cx="104.83" cy="201.8" r="1.5" fill="#c2410c" fill-opacity="0.9"/><circle cx="108.91" cy="201.9" r="1.5" fill="#c2410c" fill-opacity="0.9"/><circle cx="92.59" cy="202.3" r="1.5" fill="#c2410c" fill-opacity="0.9"/><circle cx="96.67" cy="183.0" r="1.5" fill="#c2410c" fill-opacity="0.9"/><line x1="198.25" y1="160.4" x2="198.25" y2="202.0" stroke="#f2b705" stroke-width="1.7"/><line x1="186.01" y1="160.4" x2="210.49" y2="160.4" stroke="#f2b705" stroke-width="1.7"/><line x1="186.01" y1="202.0" x2="210.49" y2="202.0" stroke="#f2b705" stroke-width="1.7"/><rect x="181.25" y="172.3" width="34" height="27.8" rx="3" fill="#f2b705" fill-opacity="0.18" stroke="#f2b705" stroke-width="1.7"/><line x1="181.25" y1="177.7" x2="215.25" y2="177.7" stroke="#f2b705" stroke-width="2.4"/><text x="198.25" y="226" text-anchor="middle" font-family="Inter,Segoe UI,Arial,sans-serif" font-size="9" fill="#111827">mlx_lm</text><text x="198.25" y="242" text-anchor="middle" font-family="Inter,Segoe UI,Arial,sans-serif" font-size="9" fill="#6b7280">med 132.5</text><circle cx="190.09" cy="160.4" r="1.5" fill="#9a6a00" fill-opacity="0.9"/><circle cx="194.17" cy="164.4" r="1.5" fill="#9a6a00" fill-opacity="0.9"/><circle cx="198.25" cy="169.3" r="1.5" fill="#9a6a00" fill-opacity="0.9"/><circle cx="202.33" cy="173.4" r="1.5" fill="#9a6a00" fill-opacity="0.9"/><circle cx="206.41" cy="176.8" r="1.5" fill="#9a6a00" fill-opacity="0.9"/><circle cx="190.09" cy="178.7" r="1.5" fill="#9a6a00" fill-opacity="0.9"/><circle cx="194.17" cy="199.8" r="1.5" fill="#9a6a00" fill-opacity="0.9"/><circle cx="198.25" cy="198.8" r="1.5" fill="#9a6a00" fill-opacity="0.9"/><circle cx="202.33" cy="201.4" r="1.5" fill="#9a6a00" fill-opacity="0.9"/><circle cx="206.41" cy="200.9" r="1.5" fill="#9a6a00" fill-opacity="0.9"/><circle cx="190.09" cy="202.0" r="1.5" fill="#9a6a00" fill-opacity="0.9"/><circle cx="194.17" cy="176.1" r="1.5" fill="#9a6a00" fill-opacity="0.9"/><line x1="295.75" y1="162.0" x2="295.75" y2="202.1" stroke="#2eaf5f" stroke-width="1.7"/><line x1="283.51" y1="162.0" x2="307.99" y2="162.0" stroke="#2eaf5f" stroke-width="1.7"/><line x1="283.51" y1="202.1" x2="307.99" y2="202.1" stroke="#2eaf5f" stroke-width="1.7"/><rect x="278.75" y="173.0" width="34" height="27.1" rx="3" fill="#2eaf5f" fill-opacity="0.18" stroke="#2eaf5f" stroke-width="1.7"/><line x1="278.75" y1="180.0" x2="312.75" y2="180.0" stroke="#2eaf5f" stroke-width="2.4"/><text x="295.75" y="226" text-anchor="middle" font-family="Inter,Segoe UI,Arial,sans-serif" font-size="9" fill="#111827">ax_engine</text><text x="295.75" y="242" text-anchor="middle" font-family="Inter,Segoe UI,Arial,sans-serif" font-size="9" fill="#6b7280">med 121.7</text><circle cx="287.59" cy="162.0" r="1.5" fill="#176c37" fill-opacity="0.9"/><circle cx="291.67" cy="166.4" r="1.5" fill="#176c37" fill-opacity="0.9"/><circle cx="295.75" cy="170.8" r="1.5" fill="#176c37" fill-opacity="0.9"/><circle cx="299.83" cy="174.9" r="1.5" fill="#176c37" fill-opacity="0.9"/><circle cx="303.91" cy="179.9" r="1.5" fill="#176c37" fill-opacity="0.9"/><circle cx="287.59" cy="180.2" r="1.5" fill="#176c37" fill-opacity="0.9"/><circle cx="291.67" cy="200.1" r="1.5" fill="#176c37" fill-opacity="0.9"/><circle cx="295.75" cy="199.0" r="1.5" fill="#176c37" fill-opacity="0.9"/><circle cx="299.83" cy="200.2" r="1.5" fill="#176c37" fill-opacity="0.9"/><circle cx="303.91" cy="200.8" r="1.5" fill="#176c37" fill-opacity="0.9"/><circle cx="287.59" cy="202.1" r="1.5" fill="#176c37" fill-opacity="0.9"/><circle cx="291.67" cy="173.8" r="1.5" fill="#176c37" fill-opacity="0.9"/><line x1="393.25" y1="97.8" x2="393.25" y2="202.2" stroke="#137a3d" stroke-width="1.7"/><line x1="381.01" y1="97.8" x2="405.49" y2="97.8" stroke="#137a3d" stroke-width="1.7"/><line x1="381.01" y1="202.2" x2="405.49" y2="202.2" stroke="#137a3d" stroke-width="1.7"/><rect x="376.25" y="125.2" width="34" height="74.1" rx="3" fill="#137a3d" fill-opacity="0.18" stroke="#137a3d" stroke-width="1.7"/><line x1="376.25" y1="157.8" x2="410.25" y2="157.8" stroke="#137a3d" stroke-width="2.4"/><text x="393.25" y="226" text-anchor="middle" font-family="Inter,Segoe UI,Arial,sans-serif" font-size="9" fill="#111827">ax_engine + n-gram</text><text x="393.25" y="242" text-anchor="middle" font-family="Inter,Segoe UI,Arial,sans-serif" font-size="9" fill="#6b7280">med 225.7</text><circle cx="385.09" cy="97.8" r="1.5" fill="#0b4f28" fill-opacity="0.9"/><circle cx="389.17" cy="119.2" r="1.5" fill="#0b4f28" fill-opacity="0.9"/><circle cx="393.25" cy="126.3" r="1.5" fill="#0b4f28" fill-opacity="0.9"/><circle cx="397.33" cy="121.9" r="1.5" fill="#0b4f28" fill-opacity="0.9"/><circle cx="401.41" cy="139.7" r="1.5" fill="#0b4f28" fill-opacity="0.9"/><circle cx="385.09" cy="176.0" r="1.5" fill="#0b4f28" fill-opacity="0.9"/><circle cx="389.17" cy="193.4" r="1.5" fill="#0b4f28" fill-opacity="0.9"/><circle cx="393.25" cy="199.1" r="1.5" fill="#0b4f28" fill-opacity="0.9"/><circle cx="397.33" cy="200.2" r="1.5" fill="#0b4f28" fill-opacity="0.9"/><circle cx="401.41" cy="200.9" r="1.5" fill="#0b4f28" fill-opacity="0.9"/><circle cx="385.09" cy="202.2" r="1.5" fill="#0b4f28" fill-opacity="0.9"/><circle cx="389.17" cy="133.4" r="1.5" fill="#0b4f28" fill-opacity="0.9"/></svg>
