<svg xmlns="http://www.w3.org/2000/svg" width="920" height="430" viewBox="0 0 920 430" role="img" aria-labelledby="title desc">
<title>Gemma 4 12B multimodal chat latency</title>
<desc>OpenAI chat endpoint latency, no prompt-cache peer rows only 8 measured peer case(s).</desc>
<rect width="100%" height="100%" fill="#f8fafc"/>
<text id="title" x="82" y="28" font-family="Inter,Segoe UI,Arial,sans-serif" font-size="16" font-weight="700" fill="#111827">Gemma 4 12B multimodal chat latency</text>
<text x="82" y="48" font-family="Inter,Segoe UI,Arial,sans-serif" font-size="11" fill="#4b5563">OpenAI chat endpoint latency, no prompt-cache peer rows only</text>
<text x="888" y="31" text-anchor="end" font-family="Inter,Segoe UI,Arial,sans-serif" font-size="10" font-weight="700" fill="#dc2626">Lower is better</text>
<rect x="82" y="82" width="658" height="230" rx="6" fill="#ffffff" stroke="#dbe3ef"/>
<line x1="82" y1="312.0" x2="740" y2="312.0" stroke="#e5e7eb" stroke-width="1"/>
<text x="72" y="316.0" text-anchor="end" font-family="Inter,Segoe UI,Arial,sans-serif" font-size="11" fill="#6b7280">0.00</text>
<line x1="82" y1="254.5" x2="740" y2="254.5" stroke="#e5e7eb" stroke-width="1"/>
<text x="72" y="258.5" text-anchor="end" font-family="Inter,Segoe UI,Arial,sans-serif" font-size="11" fill="#6b7280">625.0</text>
<line x1="82" y1="197.0" x2="740" y2="197.0" stroke="#e5e7eb" stroke-width="1"/>
<text x="72" y="201.0" text-anchor="end" font-family="Inter,Segoe UI,Arial,sans-serif" font-size="11" fill="#6b7280">1,250</text>
<line x1="82" y1="139.5" x2="740" y2="139.5" stroke="#e5e7eb" stroke-width="1"/>
<text x="72" y="143.5" text-anchor="end" font-family="Inter,Segoe UI,Arial,sans-serif" font-size="11" fill="#6b7280">1,875</text>
<line x1="82" y1="82.0" x2="740" y2="82.0" stroke="#e5e7eb" stroke-width="1"/>
<text x="72" y="86.0" text-anchor="end" font-family="Inter,Segoe UI,Arial,sans-serif" font-size="11" fill="#6b7280">2,500</text>
<rect x="96.0" y="264.3" width="24.0" height="47.7" rx="3" fill="#f59e0b" fill-opacity="0.30" stroke="#b45309" stroke-width="1.5"/>
<line x1="96.0" y1="264.3" x2="120.0" y2="264.3" stroke="#b45309" stroke-width="2"/>
<text x="108.0" y="258.3" text-anchor="middle" font-family="Inter,Segoe UI,Arial,sans-serif" font-size="8" font-weight="700" fill="#111827">518.7</text>
<rect x="124.0" y="155.2" width="24.0" height="156.8" rx="3" fill="#2eaf5f" fill-opacity="0.30" stroke="#176c37" stroke-width="1.5"/>
<line x1="124.0" y1="155.2" x2="148.0" y2="155.2" stroke="#176c37" stroke-width="2"/>
<text x="136.0" y="149.2" text-anchor="middle" font-family="Inter,Segoe UI,Arial,sans-serif" font-size="8" font-weight="700" fill="#111827">1,705</text>
<text x="129.2" y="330.0" text-anchor="middle" font-family="Inter,Segoe UI,Arial,sans-serif" font-size="9" fill="#111827" transform="rotate(45 129.2 330.0)">image_multi_2x256soft</text>
<rect x="176.5" y="275.1" width="24.0" height="36.9" rx="3" fill="#f59e0b" fill-opacity="0.30" stroke="#b45309" stroke-width="1.5"/>
<line x1="176.5" y1="275.1" x2="200.5" y2="275.1" stroke="#b45309" stroke-width="2"/>
<text x="188.5" y="269.1" text-anchor="middle" font-family="Inter,Segoe UI,Arial,sans-serif" font-size="8" font-weight="700" fill="#111827">401.6</text>
<rect x="204.5" y="166.9" width="24.0" height="145.1" rx="3" fill="#2eaf5f" fill-opacity="0.30" stroke="#176c37" stroke-width="1.5"/>
<line x1="204.5" y1="166.9" x2="228.5" y2="166.9" stroke="#176c37" stroke-width="2"/>
<text x="216.5" y="160.9" text-anchor="middle" font-family="Inter,Segoe UI,Arial,sans-serif" font-size="8" font-weight="700" fill="#111827">1,577</text>
<text x="209.8" y="330.0" text-anchor="middle" font-family="Inter,Segoe UI,Arial,sans-serif" font-size="9" fill="#111827" transform="rotate(45 209.8 330.0)">image_aspect_portrait</text>
<rect x="257.0" y="274.8" width="24.0" height="37.2" rx="3" fill="#f59e0b" fill-opacity="0.30" stroke="#b45309" stroke-width="1.5"/>
<line x1="257.0" y1="274.8" x2="281.0" y2="274.8" stroke="#b45309" stroke-width="2"/>
<text x="269.0" y="268.8" text-anchor="middle" font-family="Inter,Segoe UI,Arial,sans-serif" font-size="8" font-weight="700" fill="#111827">404.1</text>
<rect x="285.0" y="166.6" width="24.0" height="145.4" rx="3" fill="#2eaf5f" fill-opacity="0.30" stroke="#176c37" stroke-width="1.5"/>
<line x1="285.0" y1="166.6" x2="309.0" y2="166.6" stroke="#176c37" stroke-width="2"/>
<text x="297.0" y="160.6" text-anchor="middle" font-family="Inter,Segoe UI,Arial,sans-serif" font-size="8" font-weight="700" fill="#111827">1,581</text>
<text x="290.2" y="330.0" text-anchor="middle" font-family="Inter,Segoe UI,Arial,sans-serif" font-size="9" fill="#111827" transform="rotate(45 290.2 330.0)">image_aspect_landscape</text>
<rect x="337.5" y="273.4" width="24.0" height="38.6" rx="3" fill="#f59e0b" fill-opacity="0.30" stroke="#b45309" stroke-width="1.5"/>
<line x1="337.5" y1="273.4" x2="361.5" y2="273.4" stroke="#b45309" stroke-width="2"/>
<text x="349.5" y="267.4" text-anchor="middle" font-family="Inter,Segoe UI,Arial,sans-serif" font-size="8" font-weight="700" fill="#111827">419.9</text>
<rect x="365.5" y="164.7" width="24.0" height="147.3" rx="3" fill="#2eaf5f" fill-opacity="0.30" stroke="#176c37" stroke-width="1.5"/>
<line x1="365.5" y1="164.7" x2="389.5" y2="164.7" stroke="#176c37" stroke-width="2"/>
<text x="377.5" y="158.7" text-anchor="middle" font-family="Inter,Segoe UI,Arial,sans-serif" font-size="8" font-weight="700" fill="#111827">1,601</text>
<text x="370.8" y="330.0" text-anchor="middle" font-family="Inter,Segoe UI,Arial,sans-serif" font-size="9" fill="#111827" transform="rotate(45 370.8 330.0)">image_max_soft_tokens</text>
<rect x="418.0" y="280.9" width="24.0" height="31.1" rx="3" fill="#f59e0b" fill-opacity="0.30" stroke="#b45309" stroke-width="1.5"/>
<line x1="418.0" y1="280.9" x2="442.0" y2="280.9" stroke="#b45309" stroke-width="2"/>
<text x="430.0" y="274.9" text-anchor="middle" font-family="Inter,Segoe UI,Arial,sans-serif" font-size="8" font-weight="700" fill="#111827">338.0</text>
<rect x="446.0" y="177.1" width="24.0" height="134.9" rx="3" fill="#2eaf5f" fill-opacity="0.30" stroke="#176c37" stroke-width="1.5"/>
<line x1="446.0" y1="177.1" x2="470.0" y2="177.1" stroke="#176c37" stroke-width="2"/>
<text x="458.0" y="171.1" text-anchor="middle" font-family="Inter,Segoe UI,Arial,sans-serif" font-size="8" font-weight="700" fill="#111827">1,466</text>
<text x="451.2" y="330.0" text-anchor="middle" font-family="Inter,Segoe UI,Arial,sans-serif" font-size="9" fill="#111827" transform="rotate(45 451.2 330.0)">audio_0_5s</text>
<rect x="498.5" y="276.9" width="24.0" height="35.1" rx="3" fill="#f59e0b" fill-opacity="0.30" stroke="#b45309" stroke-width="1.5"/>
<line x1="498.5" y1="276.9" x2="522.5" y2="276.9" stroke="#b45309" stroke-width="2"/>
<text x="510.5" y="270.9" text-anchor="middle" font-family="Inter,Segoe UI,Arial,sans-serif" font-size="8" font-weight="700" fill="#111827">381.4</text>
<rect x="526.5" y="175.3" width="24.0" height="136.7" rx="3" fill="#2eaf5f" fill-opacity="0.30" stroke="#176c37" stroke-width="1.5"/>
<line x1="526.5" y1="175.3" x2="550.5" y2="175.3" stroke="#176c37" stroke-width="2"/>
<text x="538.5" y="169.3" text-anchor="middle" font-family="Inter,Segoe UI,Arial,sans-serif" font-size="8" font-weight="700" fill="#111827">1,486</text>
<text x="531.8" y="330.0" text-anchor="middle" font-family="Inter,Segoe UI,Arial,sans-serif" font-size="9" fill="#111827" transform="rotate(45 531.8 330.0)">audio_2s</text>
<rect x="579.0" y="269.3" width="24.0" height="42.7" rx="3" fill="#f59e0b" fill-opacity="0.30" stroke="#b45309" stroke-width="1.5"/>
<line x1="579.0" y1="269.3" x2="603.0" y2="269.3" stroke="#b45309" stroke-width="2"/>
<text x="591.0" y="263.3" text-anchor="middle" font-family="Inter,Segoe UI,Arial,sans-serif" font-size="8" font-weight="700" fill="#111827">464.5</text>
<rect x="607.0" y="167.0" width="24.0" height="145.0" rx="3" fill="#2eaf5f" fill-opacity="0.30" stroke="#176c37" stroke-width="1.5"/>
<line x1="607.0" y1="167.0" x2="631.0" y2="167.0" stroke="#176c37" stroke-width="2"/>
<text x="619.0" y="161.0" text-anchor="middle" font-family="Inter,Segoe UI,Arial,sans-serif" font-size="8" font-weight="700" fill="#111827">1,576</text>
<text x="612.2" y="330.0" text-anchor="middle" font-family="Inter,Segoe UI,Arial,sans-serif" font-size="9" fill="#111827" transform="rotate(45 612.2 330.0)">audio_10s</text>
<rect x="659.5" y="265.3" width="24.0" height="46.7" rx="3" fill="#f59e0b" fill-opacity="0.30" stroke="#b45309" stroke-width="1.5"/>
<line x1="659.5" y1="265.3" x2="683.5" y2="265.3" stroke="#b45309" stroke-width="2"/>
<text x="671.5" y="259.3" text-anchor="middle" font-family="Inter,Segoe UI,Arial,sans-serif" font-size="8" font-weight="700" fill="#111827">507.9</text>
<rect x="687.5" y="149.0" width="24.0" height="163.0" rx="3" fill="#2eaf5f" fill-opacity="0.30" stroke="#176c37" stroke-width="1.5"/>
<line x1="687.5" y1="149.0" x2="711.5" y2="149.0" stroke="#176c37" stroke-width="2"/>
<text x="699.5" y="143.0" text-anchor="middle" font-family="Inter,Segoe UI,Arial,sans-serif" font-size="8" font-weight="700" fill="#111827">1,772</text>
<text x="692.8" y="330.0" text-anchor="middle" font-family="Inter,Segoe UI,Arial,sans-serif" font-size="9" fill="#111827" transform="rotate(45 692.8 330.0)">image_audio</text>
<rect x="756" y="102" width="12" height="12" rx="2" fill="#f59e0b" fill-opacity="0.30" stroke="#b45309"/>
<text x="776" y="112" font-family="Inter,Segoe UI,Arial,sans-serif" font-size="11" fill="#374151">llama.cpp</text>
<rect x="756" y="124" width="12" height="12" rx="2" fill="#2eaf5f" fill-opacity="0.30" stroke="#176c37"/>
<text x="776" y="134" font-family="Inter,Segoe UI,Arial,sans-serif" font-size="11" fill="#374151">AX Engine</text>
<text x="756" y="172" font-family="Inter,Segoe UI,Arial,sans-serif" font-size="10" fill="#6b7280">unit: endpoint ms</text>
<text x="756" y="190" font-family="Inter,Segoe UI,Arial,sans-serif" font-size="10" fill="#6b7280">not throughput</text>
<text x="82" y="410" font-family="Inter,Segoe UI,Arial,sans-serif" font-size="10" fill="#6b7280">Cold endpoint latency only; llama.cpp prompt cache disabled; prompt token accounting differs by engine; 1 measured peer case(s) excluded; 3 reps, max_output_tokens=8</text>
</svg>
