<svg xmlns="http://www.w3.org/2000/svg" width="900" height="460" viewBox="0 0 900 460" role="img" aria-labelledby="title desc">
<title>Qwen3.6 35B-A3B 4-bit MTP prefill throughput</title>
<desc>Grouped box-and-whisker plot comparing MTPLX 0.3.7, AX Engine v5.2.2, AX+ngram v5.2.2.</desc>
<rect width="100%" height="100%" fill="#f8fafc"/>
<text x="24" y="24" font-family="Inter,Segoe UI,Arial,sans-serif" font-size="16" font-weight="700" fill="#111827">Qwen3.6 35B-A3B 4-bit MTP prefill throughput</text>
<text x="24" y="46" font-family="Inter,Segoe UI,Arial,sans-serif" font-size="11" fill="#4b5563">All suites combined | box=IQR | dots=runs</text>
<text x="24" y="62" font-family="Inter,Segoe UI,Arial,sans-serif" font-size="10" fill="#6b7280">MTPLX 0.3.7 · AX Engine v5.2.2</text>
<rect x="807" y="13" width="59" height="22" rx="11" fill="#eef2ff" stroke="#c7d2fe"/>
<text x="836.5" y="28" text-anchor="middle" font-family="Inter,Segoe UI,Arial,sans-serif" font-size="10" font-weight="700" fill="#3730a3">tok/s</text>
<text x="866" y="52" text-anchor="end" font-family="Inter,Segoe UI,Arial,sans-serif" font-size="10" font-weight="700" fill="#374151">Higher is better</text>
<rect x="64" y="86" width="676" height="268" rx="6" fill="#ffffff" stroke="#dbe3ef"/>
<line x1="64" y1="354.0" x2="740" y2="354.0" stroke="#e5e7eb" stroke-width="1"/>
<text x="56" y="357.0" text-anchor="end" font-family="Inter,Segoe UI,Arial,sans-serif" font-size="11" fill="#6b7280">0.0</text>
<line x1="64" y1="287.0" x2="740" y2="287.0" stroke="#e5e7eb" stroke-width="1"/>
<text x="56" y="290.0" text-anchor="end" font-family="Inter,Segoe UI,Arial,sans-serif" font-size="11" fill="#6b7280">1.25k</text>
<line x1="64" y1="220.0" x2="740" y2="220.0" stroke="#e5e7eb" stroke-width="1"/>
<text x="56" y="223.0" text-anchor="end" font-family="Inter,Segoe UI,Arial,sans-serif" font-size="11" fill="#6b7280">2.5k</text>
<line x1="64" y1="153.0" x2="740" y2="153.0" stroke="#e5e7eb" stroke-width="1"/>
<text x="56" y="156.0" text-anchor="end" font-family="Inter,Segoe UI,Arial,sans-serif" font-size="11" fill="#6b7280">3.75k</text>
<line x1="64" y1="86.0" x2="740" y2="86.0" stroke="#e5e7eb" stroke-width="1"/>
<text x="56" y="89.0" text-anchor="end" font-family="Inter,Segoe UI,Arial,sans-serif" font-size="11" fill="#6b7280">5k</text>
<line x1="64" y1="247.6" x2="740" y2="247.6" stroke="#dc2626" stroke-width="1.2" stroke-dasharray="1 4" stroke-linecap="round"/>
<text x="748" y="242.6" text-anchor="start" font-family="Inter,Segoe UI,Arial,sans-serif" font-size="11" font-weight="700" fill="#dc2626" data-label="highest median">highest: 2.0k</text>
<text x="402.0" y="398" text-anchor="middle" font-family="Inter,Segoe UI,Arial,sans-serif" font-size="11" font-weight="700" fill="#111827">all suites</text>
<circle cx="127.8" cy="280.0" r="1.45" fill="#14532d" fill-opacity="0.46"/>
<circle cx="130.8" cy="282.2" r="1.45" fill="#14532d" fill-opacity="0.46"/>
<circle cx="133.9" cy="284.4" r="1.45" fill="#14532d" fill-opacity="0.46"/>
<circle cx="136.9" cy="280.6" r="1.45" fill="#14532d" fill-opacity="0.46"/>
<circle cx="140.0" cy="283.2" r="1.45" fill="#14532d" fill-opacity="0.46"/>
<circle cx="143.1" cy="268.2" r="1.45" fill="#14532d" fill-opacity="0.46"/>
<circle cx="146.1" cy="265.1" r="1.45" fill="#14532d" fill-opacity="0.46"/>
<circle cx="149.2" cy="265.2" r="1.45" fill="#14532d" fill-opacity="0.46"/>
<circle cx="152.2" cy="263.6" r="1.45" fill="#14532d" fill-opacity="0.46"/>
<circle cx="127.8" cy="264.6" r="1.45" fill="#14532d" fill-opacity="0.46"/>
<circle cx="130.8" cy="253.2" r="1.45" fill="#14532d" fill-opacity="0.46"/>
<circle cx="133.9" cy="257.7" r="1.45" fill="#14532d" fill-opacity="0.46"/>
<circle cx="136.9" cy="254.0" r="1.45" fill="#14532d" fill-opacity="0.46"/>
<circle cx="140.0" cy="258.8" r="1.45" fill="#14532d" fill-opacity="0.46"/>
<circle cx="143.1" cy="251.0" r="1.45" fill="#14532d" fill-opacity="0.46"/>
<circle cx="146.1" cy="286.5" r="1.45" fill="#14532d" fill-opacity="0.46"/>
<circle cx="149.2" cy="283.1" r="1.45" fill="#14532d" fill-opacity="0.46"/>
<circle cx="152.2" cy="284.6" r="1.45" fill="#14532d" fill-opacity="0.46"/>
<circle cx="127.8" cy="281.6" r="1.45" fill="#14532d" fill-opacity="0.46"/>
<circle cx="130.8" cy="282.5" r="1.45" fill="#14532d" fill-opacity="0.46"/>
<circle cx="133.9" cy="240.8" r="1.45" fill="#14532d" fill-opacity="0.46"/>
<circle cx="136.9" cy="246.1" r="1.45" fill="#14532d" fill-opacity="0.46"/>
<circle cx="140.0" cy="230.2" r="1.45" fill="#14532d" fill-opacity="0.46"/>
<circle cx="143.1" cy="224.9" r="1.45" fill="#14532d" fill-opacity="0.46"/>
<circle cx="146.1" cy="226.8" r="1.45" fill="#14532d" fill-opacity="0.46"/>
<circle cx="149.2" cy="226.5" r="1.45" fill="#14532d" fill-opacity="0.46"/>
<circle cx="152.2" cy="236.0" r="1.45" fill="#14532d" fill-opacity="0.46"/>
<circle cx="127.8" cy="239.4" r="1.45" fill="#14532d" fill-opacity="0.46"/>
<circle cx="130.8" cy="236.5" r="1.45" fill="#14532d" fill-opacity="0.46"/>
<circle cx="133.9" cy="230.2" r="1.45" fill="#14532d" fill-opacity="0.46"/>
<circle cx="136.9" cy="253.7" r="1.45" fill="#14532d" fill-opacity="0.46"/>
<circle cx="140.0" cy="253.7" r="1.45" fill="#14532d" fill-opacity="0.46"/>
<circle cx="143.1" cy="252.9" r="1.45" fill="#14532d" fill-opacity="0.46"/>
<circle cx="146.1" cy="252.7" r="1.45" fill="#14532d" fill-opacity="0.46"/>
<circle cx="149.2" cy="251.9" r="1.45" fill="#14532d" fill-opacity="0.46"/>
<circle cx="152.2" cy="285.6" r="1.45" fill="#14532d" fill-opacity="0.46"/>
<circle cx="127.8" cy="280.0" r="1.45" fill="#14532d" fill-opacity="0.46"/>
<circle cx="130.8" cy="270.3" r="1.45" fill="#14532d" fill-opacity="0.46"/>
<circle cx="133.9" cy="287.9" r="1.45" fill="#14532d" fill-opacity="0.46"/>
<circle cx="136.9" cy="275.9" r="1.45" fill="#14532d" fill-opacity="0.46"/>
<circle cx="140.0" cy="306.3" r="1.45" fill="#14532d" fill-opacity="0.46"/>
<circle cx="143.1" cy="310.0" r="1.45" fill="#14532d" fill-opacity="0.46"/>
<circle cx="146.1" cy="307.7" r="1.45" fill="#14532d" fill-opacity="0.46"/>
<circle cx="149.2" cy="308.7" r="1.45" fill="#14532d" fill-opacity="0.46"/>
<circle cx="152.2" cy="310.1" r="1.45" fill="#14532d" fill-opacity="0.46"/>
<circle cx="127.8" cy="299.1" r="1.45" fill="#14532d" fill-opacity="0.46"/>
<circle cx="130.8" cy="293.3" r="1.45" fill="#14532d" fill-opacity="0.46"/>
<circle cx="133.9" cy="301.2" r="1.45" fill="#14532d" fill-opacity="0.46"/>
<circle cx="136.9" cy="285.7" r="1.45" fill="#14532d" fill-opacity="0.46"/>
<circle cx="140.0" cy="289.3" r="1.45" fill="#14532d" fill-opacity="0.46"/>
<circle cx="143.1" cy="288.4" r="1.45" fill="#14532d" fill-opacity="0.46"/>
<circle cx="146.1" cy="291.0" r="1.45" fill="#14532d" fill-opacity="0.46"/>
<circle cx="149.2" cy="301.0" r="1.45" fill="#14532d" fill-opacity="0.46"/>
<circle cx="152.2" cy="296.1" r="1.45" fill="#14532d" fill-opacity="0.46"/>
<circle cx="127.8" cy="302.3" r="1.45" fill="#14532d" fill-opacity="0.46"/>
<line x1="140.0" y1="224.9" x2="140.0" y2="310.1" stroke="#14532d" stroke-opacity="0.82" stroke-width="1.8"/>
<line x1="127.8" y1="224.9" x2="152.2" y2="224.9" stroke="#14532d" stroke-opacity="0.82" stroke-width="1.8"/>
<line x1="127.8" y1="310.1" x2="152.2" y2="310.1" stroke="#14532d" stroke-opacity="0.82" stroke-width="1.8"/>
<rect x="123.0" y="253.1" width="34.0" height="35.1" rx="2" fill="#14532d" fill-opacity="0.18" stroke="#14532d" stroke-opacity="0.82" stroke-width="1.8"/>
<line x1="123.0" y1="280.0" x2="157.0" y2="280.0" stroke="#14532d" stroke-opacity="0.82" stroke-width="2.6"/>
<text x="163.0" y="284.0" text-anchor="start" font-family="Inter,Segoe UI,Arial,sans-serif" font-size="11" font-weight="700" fill="#111827" stroke="#ffffff" stroke-width="3" paint-order="stroke">1.4k</text>
<circle cx="389.8" cy="268.0" r="1.45" fill="#f97316" fill-opacity="0.46"/>
<circle cx="392.8" cy="251.4" r="1.45" fill="#f97316" fill-opacity="0.46"/>
<circle cx="395.9" cy="243.4" r="1.45" fill="#f97316" fill-opacity="0.46"/>
<circle cx="398.9" cy="270.8" r="1.45" fill="#f97316" fill-opacity="0.46"/>
<circle cx="402.0" cy="208.0" r="1.45" fill="#f97316" fill-opacity="0.46"/>
<circle cx="405.1" cy="196.3" r="1.45" fill="#f97316" fill-opacity="0.46"/>
<circle cx="408.1" cy="209.6" r="1.45" fill="#f97316" fill-opacity="0.46"/>
<circle cx="411.2" cy="238.0" r="1.45" fill="#f97316" fill-opacity="0.46"/>
<circle cx="414.2" cy="259.2" r="1.45" fill="#f97316" fill-opacity="0.46"/>
<circle cx="389.8" cy="247.7" r="1.45" fill="#f97316" fill-opacity="0.46"/>
<circle cx="392.8" cy="248.7" r="1.45" fill="#f97316" fill-opacity="0.46"/>
<line x1="402.0" y1="196.3" x2="402.0" y2="270.8" stroke="#f97316" stroke-opacity="0.82" stroke-width="1.8"/>
<line x1="389.8" y1="196.3" x2="414.2" y2="196.3" stroke="#f97316" stroke-opacity="0.82" stroke-width="1.8"/>
<line x1="389.8" y1="270.8" x2="414.2" y2="270.8" stroke="#f97316" stroke-opacity="0.82" stroke-width="1.8"/>
<rect x="385.0" y="223.8" width="34.0" height="31.5" rx="2" fill="#f97316" fill-opacity="0.18" stroke="#f97316" stroke-opacity="0.82" stroke-width="1.8"/>
<line x1="385.0" y1="247.7" x2="419.0" y2="247.7" stroke="#f97316" stroke-opacity="0.82" stroke-width="2.6"/>
<text x="425.0" y="251.7" text-anchor="start" font-family="Inter,Segoe UI,Arial,sans-serif" font-size="11" font-weight="700" fill="#111827" stroke="#ffffff" stroke-width="3" paint-order="stroke">2.0k</text>
<circle cx="651.8" cy="267.5" r="1.45" fill="#eab308" fill-opacity="0.46"/>
<circle cx="654.8" cy="247.6" r="1.45" fill="#eab308" fill-opacity="0.46"/>
<circle cx="657.9" cy="240.9" r="1.45" fill="#eab308" fill-opacity="0.46"/>
<circle cx="660.9" cy="269.5" r="1.45" fill="#eab308" fill-opacity="0.46"/>
<circle cx="664.0" cy="206.7" r="1.45" fill="#eab308" fill-opacity="0.46"/>
<circle cx="667.1" cy="195.7" r="1.45" fill="#eab308" fill-opacity="0.46"/>
<circle cx="670.1" cy="211.0" r="1.45" fill="#eab308" fill-opacity="0.46"/>
<circle cx="673.2" cy="238.4" r="1.45" fill="#eab308" fill-opacity="0.46"/>
<circle cx="676.2" cy="261.2" r="1.45" fill="#eab308" fill-opacity="0.46"/>
<circle cx="651.8" cy="247.8" r="1.45" fill="#eab308" fill-opacity="0.46"/>
<circle cx="654.8" cy="249.5" r="1.45" fill="#eab308" fill-opacity="0.46"/>
<line x1="664.0" y1="195.7" x2="664.0" y2="269.5" stroke="#eab308" stroke-opacity="0.82" stroke-width="1.8"/>
<line x1="651.8" y1="195.7" x2="676.2" y2="195.7" stroke="#eab308" stroke-opacity="0.82" stroke-width="1.8"/>
<line x1="651.8" y1="269.5" x2="676.2" y2="269.5" stroke="#eab308" stroke-opacity="0.82" stroke-width="1.8"/>
<rect x="647.0" y="224.7" width="34.0" height="30.7" rx="2" fill="#eab308" fill-opacity="0.18" stroke="#eab308" stroke-opacity="0.82" stroke-width="1.8"/>
<line x1="647.0" y1="247.6" x2="681.0" y2="247.6" stroke="#eab308" stroke-opacity="0.82" stroke-width="2.6"/>
<text x="687.0" y="251.6" text-anchor="start" font-family="Inter,Segoe UI,Arial,sans-serif" font-size="11" font-weight="700" fill="#111827" stroke="#ffffff" stroke-width="3" paint-order="stroke">2.0k</text>
<rect x="64" y="433" width="10" height="10" rx="2" fill="#14532d" fill-opacity="0.86"/>
<text x="78" y="442" font-family="Inter,Segoe UI,Arial,sans-serif" font-size="10" fill="#374151">MTPLX 0.3.7</text>
<rect x="289.33333333333337" y="433" width="10" height="10" rx="2" fill="#f97316" fill-opacity="0.86"/>
<text x="303.33333333333337" y="442" font-family="Inter,Segoe UI,Arial,sans-serif" font-size="10" fill="#374151">AX Engine v5.2.2</text>
<rect x="514.6666666666667" y="433" width="10" height="10" rx="2" fill="#eab308" fill-opacity="0.86"/>
<text x="528.6666666666667" y="442" font-family="Inter,Segoe UI,Arial,sans-serif" font-size="10" fill="#374151">AX+ngram v5.2.2</text>
</svg>
