<svg xmlns="http://www.w3.org/2000/svg" width="760" height="430" viewBox="0 0 760 430" role="img">
<rect width="100%" height="100%" fill="#ffffff"/>
<text x="24" y="30" font-family="Inter,Segoe UI,Arial,sans-serif" font-size="18" font-weight="700" fill="#111827">Qwen3.6 27B 4-bit MTP TTFT</text>
<text x="732" y="30" text-anchor="end" font-family="Inter,Segoe UI,Arial,sans-serif" font-size="11" fill="#4b5563">ms — lower is better  (~ = client-side via ttft_s, includes HTTP overhead)</text>
<line x1="60" y1="358.0" x2="732" y2="358.0" stroke="#e5e7eb" stroke-width="1"/>
<text x="52" y="361.0" text-anchor="end" font-family="Inter,Segoe UI,Arial,sans-serif" font-size="10" fill="#6b7280">0</text>
<line x1="60" y1="261.3" x2="732" y2="261.3" stroke="#e5e7eb" stroke-width="1"/>
<text x="52" y="264.3" text-anchor="end" font-family="Inter,Segoe UI,Arial,sans-serif" font-size="10" fill="#6b7280">391</text>
<line x1="60" y1="164.7" x2="732" y2="164.7" stroke="#e5e7eb" stroke-width="1"/>
<text x="52" y="167.7" text-anchor="end" font-family="Inter,Segoe UI,Arial,sans-serif" font-size="10" fill="#6b7280">782</text>
<line x1="60" y1="68.0" x2="732" y2="68.0" stroke="#e5e7eb" stroke-width="1"/>
<text x="52" y="71.0" text-anchor="end" font-family="Inter,Segoe UI,Arial,sans-serif" font-size="10" fill="#6b7280">1174</text>
<text x="172.0" y="396" text-anchor="middle" font-family="Inter,Segoe UI,Arial,sans-serif" font-size="11" font-weight="700" fill="#111827">flappy</text>
<rect x="82.0" y="240.3" width="29.6" height="117.7" rx="2" fill="#a78bfa" fill-opacity="0.86"/>
<text x="96.8" y="235.3" text-anchor="middle" font-family="Inter,Segoe UI,Arial,sans-serif" font-size="10" font-weight="700" fill="#111827">476</text>
<rect x="119.6" y="177.2" width="29.6" height="180.8" rx="2" fill="#60a5fa" fill-opacity="0.60"/>
<text x="134.4" y="172.2" text-anchor="middle" font-family="Inter,Segoe UI,Arial,sans-serif" font-size="10" font-weight="700" fill="#111827">731~</text>
<rect x="157.2" y="170.4" width="29.6" height="187.6" rx="2" fill="#1d4ed8" fill-opacity="0.60"/>
<text x="172.0" y="165.4" text-anchor="middle" font-family="Inter,Segoe UI,Arial,sans-serif" font-size="10" font-weight="700" fill="#111827">759~</text>
<rect x="194.8" y="233.9" width="29.6" height="124.1" rx="2" fill="#86efac" fill-opacity="0.86"/>
<text x="209.6" y="228.9" text-anchor="middle" font-family="Inter,Segoe UI,Arial,sans-serif" font-size="10" font-weight="700" fill="#111827">502</text>
<rect x="232.4" y="235.4" width="29.6" height="122.6" rx="2" fill="#15803d" fill-opacity="0.86"/>
<text x="247.2" y="230.4" text-anchor="middle" font-family="Inter,Segoe UI,Arial,sans-serif" font-size="10" font-weight="700" fill="#111827">496</text>
<text x="396.0" y="396" text-anchor="middle" font-family="Inter,Segoe UI,Arial,sans-serif" font-size="11" font-weight="700" fill="#111827">long_code</text>
<rect x="306.0" y="135.3" width="29.6" height="222.7" rx="2" fill="#a78bfa" fill-opacity="0.86"/>
<text x="320.8" y="130.3" text-anchor="middle" font-family="Inter,Segoe UI,Arial,sans-serif" font-size="10" font-weight="700" fill="#111827">901</text>
<rect x="343.6" y="77.7" width="29.6" height="280.3" rx="2" fill="#60a5fa" fill-opacity="0.60"/>
<text x="358.4" y="78.0" text-anchor="middle" font-family="Inter,Segoe UI,Arial,sans-serif" font-size="10" font-weight="700" fill="#111827">1134~</text>
<rect x="381.2" y="68.0" width="29.6" height="290.0" rx="2" fill="#1d4ed8" fill-opacity="0.60"/>
<text x="396.0" y="78.0" text-anchor="middle" font-family="Inter,Segoe UI,Arial,sans-serif" font-size="10" font-weight="700" fill="#111827">1174~</text>
<rect x="418.8" y="101.8" width="29.6" height="256.2" rx="2" fill="#86efac" fill-opacity="0.86"/>
<text x="433.6" y="96.8" text-anchor="middle" font-family="Inter,Segoe UI,Arial,sans-serif" font-size="10" font-weight="700" fill="#111827">1037</text>
<rect x="456.4" y="89.0" width="29.6" height="269.0" rx="2" fill="#15803d" fill-opacity="0.86"/>
<text x="471.2" y="84.0" text-anchor="middle" font-family="Inter,Segoe UI,Arial,sans-serif" font-size="10" font-weight="700" fill="#111827">1088</text>
<text x="620.0" y="396" text-anchor="middle" font-family="Inter,Segoe UI,Arial,sans-serif" font-size="11" font-weight="700" fill="#111827">python_modules_long</text>
<rect x="530.0" y="231.7" width="29.6" height="126.3" rx="2" fill="#a78bfa" fill-opacity="0.86"/>
<text x="544.8" y="226.7" text-anchor="middle" font-family="Inter,Segoe UI,Arial,sans-serif" font-size="10" font-weight="700" fill="#111827">511</text>
<rect x="567.6" y="177.9" width="29.6" height="180.1" rx="2" fill="#60a5fa" fill-opacity="0.60"/>
<text x="582.4" y="172.9" text-anchor="middle" font-family="Inter,Segoe UI,Arial,sans-serif" font-size="10" font-weight="700" fill="#111827">729~</text>
<rect x="605.2" y="162.9" width="29.6" height="195.1" rx="2" fill="#1d4ed8" fill-opacity="0.60"/>
<text x="620.0" y="157.9" text-anchor="middle" font-family="Inter,Segoe UI,Arial,sans-serif" font-size="10" font-weight="700" fill="#111827">790~</text>
<rect x="642.8" y="225.2" width="29.6" height="132.8" rx="2" fill="#86efac" fill-opacity="0.86"/>
<text x="657.6" y="220.2" text-anchor="middle" font-family="Inter,Segoe UI,Arial,sans-serif" font-size="10" font-weight="700" fill="#111827">537</text>
<rect x="680.4" y="224.2" width="29.6" height="133.8" rx="2" fill="#15803d" fill-opacity="0.86"/>
<text x="695.2" y="219.2" text-anchor="middle" font-family="Inter,Segoe UI,Arial,sans-serif" font-size="10" font-weight="700" fill="#111827">542</text>
<rect x="60" y="407" width="10" height="10" rx="2" fill="#a78bfa" fill-opacity="0.86"/>
<text x="74" y="416" font-family="Inter,Segoe UI,Arial,sans-serif" font-size="10" fill="#374151">MTPLX 0.3.7</text>
<rect x="190" y="407" width="10" height="10" rx="2" fill="#60a5fa" fill-opacity="0.60"/>
<text x="204" y="416" font-family="Inter,Segoe UI,Arial,sans-serif" font-size="10" fill="#374151">Light. MTP</text>
<rect x="320" y="407" width="10" height="10" rx="2" fill="#1d4ed8" fill-opacity="0.60"/>
<text x="334" y="416" font-family="Inter,Segoe UI,Arial,sans-serif" font-size="10" fill="#374151">Light. ngram+MTP</text>
<rect x="450" y="407" width="10" height="10" rx="2" fill="#86efac" fill-opacity="0.86"/>
<text x="464" y="416" font-family="Inter,Segoe UI,Arial,sans-serif" font-size="10" fill="#374151">AX MTP</text>
<rect x="580" y="407" width="10" height="10" rx="2" fill="#15803d" fill-opacity="0.86"/>
<text x="594" y="416" font-family="Inter,Segoe UI,Arial,sans-serif" font-size="10" fill="#374151">AX MTP+n-gram</text>
</svg>
