<svg xmlns="http://www.w3.org/2000/svg" width="1080" height="492" viewBox="0 0 1080 492" role="img" aria-labelledby="title desc">
<title id="title">AX MTP decode throughput with and without MTP</title>
<desc id="desc">Horizontal grouped bar chart comparing AX direct decode throughput with MTP off against AX MTP decode throughput with MTP on for each supported 6-bit AX MTP package and prompt suite. The winning throughput label in each row is red.</desc>
<rect width="1080" height="492" fill="#ffffff"/>
<text x="72" y="32" font-family="Inter,Segoe UI,Arial,sans-serif" font-size="20" font-weight="700" fill="#111827">AX MTP decode: MTP off vs MTP on</text>
<text x="72" y="54" font-family="Inter,Segoe UI,Arial,sans-serif" font-size="12" fill="#4b5563">Each row compares the same prepared 6-bit package and prompt suite: AX direct has MTP off; AX MTP has MTP on.</text>
<text x="1008" y="54" text-anchor="end" font-family="Inter,Segoe UI,Arial,sans-serif" font-size="11" font-weight="700" fill="#374151">Decode throughput, tok/s</text>
<line x1="210.0" y1="68" x2="210.0" y2="404.0" stroke="#9ca3af" stroke-width="1.4"/>
<text x="210.0" y="422.0" text-anchor="middle" font-family="Inter,Segoe UI,Arial,sans-serif" font-size="11" fill="#4b5563">0</text>
<line x1="409.5" y1="68" x2="409.5" y2="404.0" stroke="#d1d5db" stroke-width="1.2"/>
<text x="409.5" y="422.0" text-anchor="middle" font-family="Inter,Segoe UI,Arial,sans-serif" font-size="11" fill="#4b5563">40</text>
<line x1="609.0" y1="68" x2="609.0" y2="404.0" stroke="#d1d5db" stroke-width="1.2"/>
<text x="609.0" y="422.0" text-anchor="middle" font-family="Inter,Segoe UI,Arial,sans-serif" font-size="11" fill="#4b5563">80</text>
<line x1="808.5" y1="68" x2="808.5" y2="404.0" stroke="#d1d5db" stroke-width="1.2"/>
<text x="808.5" y="422.0" text-anchor="middle" font-family="Inter,Segoe UI,Arial,sans-serif" font-size="11" fill="#4b5563">120</text>
<line x1="1008.0" y1="68" x2="1008.0" y2="404.0" stroke="#d1d5db" stroke-width="1.2"/>
<text x="1008.0" y="422.0" text-anchor="middle" font-family="Inter,Segoe UI,Arial,sans-serif" font-size="11" fill="#4b5563">160</text>
<text x="609.0" y="444.0" text-anchor="middle" font-family="Inter,Segoe UI,Arial,sans-serif" font-size="11" font-weight="700" fill="#dc2626">Higher is better</text>
<rect x="72" y="70" width="12" height="12" rx="2" fill="#2eaf5f"/>
<text x="90" y="80" font-family="Inter,Segoe UI,Arial,sans-serif" font-size="12" fill="#374151">MTP off / AX direct</text>
<rect x="232" y="70" width="12" height="12" rx="2" fill="#c084fc"/>
<text x="250" y="80" font-family="Inter,Segoe UI,Arial,sans-serif" font-size="12" fill="#374151">MTP on / AX MTP</text>
<text x="72" y="100.0" font-family="Inter,Segoe UI,Arial,sans-serif" font-size="11" fill="#111827"><tspan x="72" y="100.0" font-weight="700">Qwen3.6 27B</tspan><tspan x="72" y="114.0" font-size="10" fill="#4b5563">flappy</tspan></text>
<rect x="210" y="91.0" width="114.0" height="10" rx="2" fill="#2eaf5f"/>
<rect x="210" y="104.0" width="219.3" height="10" rx="2" fill="#c084fc"/>
<text x="329.0" y="99.0" font-family="Inter,Segoe UI,Arial,sans-serif" font-size="10" font-weight="700" fill="#176c37">22.9</text>
<text x="434.3" y="112.0" font-family="Inter,Segoe UI,Arial,sans-serif" font-size="10" font-weight="700" fill="#dc2626">44.0</text>
<line x1="72" y1="129.0" x2="1008" y2="129.0" stroke="#eef2f7" stroke-width="1"/>
<text x="72" y="150.0" font-family="Inter,Segoe UI,Arial,sans-serif" font-size="11" fill="#111827"><tspan x="72" y="150.0" font-weight="700">Qwen3.6 35B-A3B</tspan><tspan x="72" y="164.0" font-size="10" fill="#4b5563">flappy</tspan></text>
<rect x="210" y="141.0" width="397.4" height="10" rx="2" fill="#2eaf5f"/>
<rect x="210" y="154.0" width="703.7" height="10" rx="2" fill="#c084fc"/>
<text x="612.4" y="149.0" font-family="Inter,Segoe UI,Arial,sans-serif" font-size="10" font-weight="700" fill="#176c37">79.7</text>
<text x="918.7" y="162.0" font-family="Inter,Segoe UI,Arial,sans-serif" font-size="10" font-weight="700" fill="#dc2626">141.1</text>
<line x1="72" y1="179.0" x2="1008" y2="179.0" stroke="#eef2f7" stroke-width="1"/>
<text x="72" y="200.0" font-family="Inter,Segoe UI,Arial,sans-serif" font-size="11" fill="#111827"><tspan x="72" y="200.0" font-weight="700">Gemma 4 12B</tspan><tspan x="72" y="214.0" font-size="10" fill="#4b5563">flappy</tspan></text>
<rect x="210" y="191.0" width="189.5" height="10" rx="2" fill="#2eaf5f"/>
<rect x="210" y="204.0" width="378.1" height="10" rx="2" fill="#c084fc"/>
<text x="404.5" y="199.0" font-family="Inter,Segoe UI,Arial,sans-serif" font-size="10" font-weight="700" fill="#176c37">38.0</text>
<text x="593.1" y="212.0" font-family="Inter,Segoe UI,Arial,sans-serif" font-size="10" font-weight="700" fill="#dc2626">75.8</text>
<line x1="72" y1="229.0" x2="1008" y2="229.0" stroke="#eef2f7" stroke-width="1"/>
<text x="72" y="250.0" font-family="Inter,Segoe UI,Arial,sans-serif" font-size="11" fill="#111827"><tspan x="72" y="250.0" font-weight="700">Gemma 4 26B</tspan><tspan x="72" y="264.0" font-size="10" fill="#4b5563">flappy</tspan></text>
<rect x="210" y="241.0" width="447.0" height="10" rx="2" fill="#2eaf5f"/>
<rect x="210" y="254.0" width="679.3" height="10" rx="2" fill="#c084fc"/>
<text x="662.0" y="249.0" font-family="Inter,Segoe UI,Arial,sans-serif" font-size="10" font-weight="700" fill="#176c37">89.6</text>
<text x="894.3" y="262.0" font-family="Inter,Segoe UI,Arial,sans-serif" font-size="10" font-weight="700" fill="#dc2626">136.2</text>
<line x1="72" y1="279.0" x2="1008" y2="279.0" stroke="#eef2f7" stroke-width="1"/>
<text x="72" y="300.0" font-family="Inter,Segoe UI,Arial,sans-serif" font-size="11" fill="#111827"><tspan x="72" y="300.0" font-weight="700">Gemma 4 31B</tspan><tspan x="72" y="314.0" font-size="10" fill="#4b5563">flappy</tspan></text>
<rect x="210" y="291.0" width="86.8" height="10" rx="2" fill="#2eaf5f"/>
<rect x="210" y="304.0" width="164.4" height="10" rx="2" fill="#c084fc"/>
<text x="301.8" y="299.0" font-family="Inter,Segoe UI,Arial,sans-serif" font-size="10" font-weight="700" fill="#176c37">17.4</text>
<text x="379.4" y="312.0" font-family="Inter,Segoe UI,Arial,sans-serif" font-size="10" font-weight="700" fill="#dc2626">33.0</text>
<line x1="72" y1="329.0" x2="1008" y2="329.0" stroke="#eef2f7" stroke-width="1"/>
<text x="72" y="350.0" font-family="Inter,Segoe UI,Arial,sans-serif" font-size="11" fill="#111827"><tspan x="72" y="350.0" font-weight="700">GLM-4.7 Flash</tspan><tspan x="72" y="364.0" font-size="10" fill="#4b5563">flappy</tspan></text>
<rect x="210" y="341.0" width="364.1" height="10" rx="2" fill="#2eaf5f"/>
<rect x="210" y="354.0" width="561.5" height="10" rx="2" fill="#c084fc"/>
<text x="579.1" y="349.0" font-family="Inter,Segoe UI,Arial,sans-serif" font-size="10" font-weight="700" fill="#176c37">73.0</text>
<text x="776.5" y="362.0" font-family="Inter,Segoe UI,Arial,sans-serif" font-size="10" font-weight="700" fill="#dc2626">112.6</text>
<text x="72" y="468.0" font-family="Inter,Segoe UI,Arial,sans-serif" font-size="10" fill="#6b7280">Source: benchmarks/results/speculative/mtp-6bit/2026-07-08-six-model-flappy-gemma-depth2-overlay / summary.json. Pure MTP; no MTP+n-gram stacking.</text>
</svg>
