<svg xmlns="http://www.w3.org/2000/svg" width="760" height="460" viewBox="0 0 760 460" role="img" aria-labelledby="title desc">
<title>Gemma 4 31B 4-bit — Time to first token</title>
<desc>Grouped box-and-whisker plot comparing AX assistant MTP, AX assistant MTP+n-gram across flappy, long_code, python_modules_long prompt suites.</desc>
<rect width="100%" height="100%" fill="#f8fafc"/>
<text x="24" y="24" font-family="Inter,Segoe UI,Arial,sans-serif" font-size="16" font-weight="700" fill="#111827">Gemma 4 31B 4-bit — Time to first token</text>
<text x="24" y="46" font-family="Inter,Segoe UI,Arial,sans-serif" font-size="11" fill="#4b5563">All suites | box=IQR | whiskers=min/max | dots=runs</text>
<text x="24" y="62" font-family="Inter,Segoe UI,Arial,sans-serif" font-size="10" fill="#6b7280">Apple M5 Max · gate 0.90 first / 0.999 deep · GPU exact · T=0.6/top_p=0.95/top_k=20</text>
<rect x="678" y="13" width="48" height="22" rx="11" fill="#eef2ff" stroke="#c7d2fe"/>
<text x="702.0" y="28" text-anchor="middle" font-family="Inter,Segoe UI,Arial,sans-serif" font-size="10" font-weight="700" fill="#3730a3">ms</text>
<text x="726" y="52" text-anchor="end" font-family="Inter,Segoe UI,Arial,sans-serif" font-size="10" font-weight="700" fill="#dc2626">Lower is better</text>
<rect x="64" y="86" width="496" height="268" rx="6" fill="#ffffff" stroke="#dbe3ef"/>
<line x1="64" y1="354.0" x2="560" y2="354.0" stroke="#e5e7eb" stroke-width="1"/>
<text x="56" y="357.0" text-anchor="end" font-family="Inter,Segoe UI,Arial,sans-serif" font-size="11" fill="#6b7280">0.0</text>
<line x1="64" y1="287.0" x2="560" y2="287.0" stroke="#e5e7eb" stroke-width="1"/>
<text x="56" y="290.0" text-anchor="end" font-family="Inter,Segoe UI,Arial,sans-serif" font-size="11" fill="#6b7280">500</text>
<line x1="64" y1="220.0" x2="560" y2="220.0" stroke="#e5e7eb" stroke-width="1"/>
<text x="56" y="223.0" text-anchor="end" font-family="Inter,Segoe UI,Arial,sans-serif" font-size="11" fill="#6b7280">1k</text>
<line x1="64" y1="153.0" x2="560" y2="153.0" stroke="#e5e7eb" stroke-width="1"/>
<text x="56" y="156.0" text-anchor="end" font-family="Inter,Segoe UI,Arial,sans-serif" font-size="11" fill="#6b7280">1.5k</text>
<line x1="64" y1="86.0" x2="560" y2="86.0" stroke="#e5e7eb" stroke-width="1"/>
<text x="56" y="89.0" text-anchor="end" font-family="Inter,Segoe UI,Arial,sans-serif" font-size="11" fill="#6b7280">2k</text>
<line x1="64" y1="290.3" x2="560" y2="290.3" stroke="#dc2626" stroke-width="1.2" stroke-dasharray="1 4" stroke-linecap="round"/>
<text x="568" y="285.3" text-anchor="start" font-family="Inter,Segoe UI,Arial,sans-serif" font-size="11" font-weight="700" fill="#dc2626" data-label="lowest median">lowest: 476</text>
<text x="146.7" y="398" text-anchor="middle" font-family="Inter,Segoe UI,Arial,sans-serif" font-size="11" font-weight="700" fill="#111827">flappy</text>
<circle cx="95.8" cy="299.3" r="1.45" fill="#2eaf5f" fill-opacity="0.46"/>
<circle cx="98.8" cy="299.8" r="1.45" fill="#2eaf5f" fill-opacity="0.46"/>
<circle cx="101.9" cy="300.3" r="1.45" fill="#2eaf5f" fill-opacity="0.46"/>
<circle cx="104.9" cy="299.1" r="1.45" fill="#2eaf5f" fill-opacity="0.46"/>
<circle cx="108.0" cy="298.8" r="1.45" fill="#2eaf5f" fill-opacity="0.46"/>
<circle cx="111.1" cy="281.7" r="1.45" fill="#2eaf5f" fill-opacity="0.46"/>
<circle cx="114.1" cy="281.9" r="1.45" fill="#2eaf5f" fill-opacity="0.46"/>
<circle cx="117.2" cy="282.0" r="1.45" fill="#2eaf5f" fill-opacity="0.46"/>
<circle cx="120.2" cy="281.2" r="1.45" fill="#2eaf5f" fill-opacity="0.46"/>
<circle cx="95.8" cy="282.9" r="1.45" fill="#2eaf5f" fill-opacity="0.46"/>
<circle cx="98.8" cy="257.9" r="1.45" fill="#2eaf5f" fill-opacity="0.46"/>
<circle cx="101.9" cy="254.9" r="1.45" fill="#2eaf5f" fill-opacity="0.46"/>
<circle cx="104.9" cy="257.3" r="1.45" fill="#2eaf5f" fill-opacity="0.46"/>
<circle cx="108.0" cy="260.7" r="1.45" fill="#2eaf5f" fill-opacity="0.46"/>
<circle cx="111.1" cy="258.5" r="1.45" fill="#2eaf5f" fill-opacity="0.46"/>
<circle cx="114.1" cy="298.9" r="1.45" fill="#2eaf5f" fill-opacity="0.46"/>
<circle cx="117.2" cy="299.5" r="1.45" fill="#2eaf5f" fill-opacity="0.46"/>
<circle cx="120.2" cy="298.2" r="1.45" fill="#2eaf5f" fill-opacity="0.46"/>
<circle cx="95.8" cy="299.3" r="1.45" fill="#2eaf5f" fill-opacity="0.46"/>
<circle cx="98.8" cy="297.6" r="1.45" fill="#2eaf5f" fill-opacity="0.46"/>
<line x1="108.0" y1="254.9" x2="108.0" y2="300.3" stroke="#2eaf5f" stroke-opacity="0.86" stroke-width="1.8"/>
<line x1="95.8" y1="254.9" x2="120.2" y2="254.9" stroke="#2eaf5f" stroke-opacity="0.86" stroke-width="1.8"/>
<line x1="95.8" y1="300.3" x2="120.2" y2="300.3" stroke="#2eaf5f" stroke-opacity="0.86" stroke-width="1.8"/>
<rect x="91.0" y="276.0" width="34.0" height="23.1" rx="2" fill="#2eaf5f" fill-opacity="0.18" stroke="#2eaf5f" stroke-opacity="0.9" stroke-width="1.8"/>
<line x1="91.0" y1="290.3" x2="125.0" y2="290.3" stroke="#2eaf5f" stroke-opacity="0.96" stroke-width="2.6"/>
<text x="131.0" y="294.3" text-anchor="start" font-family="Inter,Segoe UI,Arial,sans-serif" font-size="11" font-weight="700" fill="#111827" stroke="#ffffff" stroke-width="3" paint-order="stroke">476</text>
<circle cx="173.1" cy="298.9" r="1.45" fill="#137a3d" fill-opacity="0.46"/>
<circle cx="176.2" cy="298.2" r="1.45" fill="#137a3d" fill-opacity="0.46"/>
<circle cx="179.2" cy="297.8" r="1.45" fill="#137a3d" fill-opacity="0.46"/>
<circle cx="182.3" cy="298.1" r="1.45" fill="#137a3d" fill-opacity="0.46"/>
<circle cx="185.3" cy="297.7" r="1.45" fill="#137a3d" fill-opacity="0.46"/>
<circle cx="188.4" cy="280.2" r="1.45" fill="#137a3d" fill-opacity="0.46"/>
<circle cx="191.5" cy="282.8" r="1.45" fill="#137a3d" fill-opacity="0.46"/>
<circle cx="194.5" cy="280.1" r="1.45" fill="#137a3d" fill-opacity="0.46"/>
<circle cx="197.6" cy="280.2" r="1.45" fill="#137a3d" fill-opacity="0.46"/>
<circle cx="173.1" cy="280.9" r="1.45" fill="#137a3d" fill-opacity="0.46"/>
<circle cx="176.2" cy="256.0" r="1.45" fill="#137a3d" fill-opacity="0.46"/>
<circle cx="179.2" cy="258.5" r="1.45" fill="#137a3d" fill-opacity="0.46"/>
<circle cx="182.3" cy="261.0" r="1.45" fill="#137a3d" fill-opacity="0.46"/>
<circle cx="185.3" cy="261.0" r="1.45" fill="#137a3d" fill-opacity="0.46"/>
<circle cx="188.4" cy="260.9" r="1.45" fill="#137a3d" fill-opacity="0.46"/>
<circle cx="191.5" cy="299.5" r="1.45" fill="#137a3d" fill-opacity="0.46"/>
<circle cx="194.5" cy="297.1" r="1.45" fill="#137a3d" fill-opacity="0.46"/>
<circle cx="197.6" cy="297.5" r="1.45" fill="#137a3d" fill-opacity="0.46"/>
<circle cx="173.1" cy="297.6" r="1.45" fill="#137a3d" fill-opacity="0.46"/>
<circle cx="176.2" cy="297.9" r="1.45" fill="#137a3d" fill-opacity="0.46"/>
<line x1="185.3" y1="256.0" x2="185.3" y2="299.5" stroke="#137a3d" stroke-opacity="0.86" stroke-width="1.8"/>
<line x1="173.1" y1="256.0" x2="197.6" y2="256.0" stroke="#137a3d" stroke-opacity="0.86" stroke-width="1.8"/>
<line x1="173.1" y1="299.5" x2="197.6" y2="299.5" stroke="#137a3d" stroke-opacity="0.86" stroke-width="1.8"/>
<rect x="168.3" y="275.3" width="34.0" height="22.5" rx="2" fill="#137a3d" fill-opacity="0.18" stroke="#137a3d" stroke-opacity="0.9" stroke-width="1.8"/>
<line x1="168.3" y1="289.9" x2="202.3" y2="289.9" stroke="#137a3d" stroke-opacity="0.96" stroke-width="2.6"/>
<text x="208.3" y="293.9" text-anchor="start" font-family="Inter,Segoe UI,Arial,sans-serif" font-size="11" font-weight="700" fill="#111827" stroke="#ffffff" stroke-width="3" paint-order="stroke">478</text>
<text x="312.0" y="398" text-anchor="middle" font-family="Inter,Segoe UI,Arial,sans-serif" font-size="11" font-weight="700" fill="#111827">long_code</text>
<circle cx="261.1" cy="224.6" r="1.45" fill="#2eaf5f" fill-opacity="0.46"/>
<circle cx="264.2" cy="224.0" r="1.45" fill="#2eaf5f" fill-opacity="0.46"/>
<circle cx="267.2" cy="225.2" r="1.45" fill="#2eaf5f" fill-opacity="0.46"/>
<circle cx="270.3" cy="223.9" r="1.45" fill="#2eaf5f" fill-opacity="0.46"/>
<circle cx="273.3" cy="231.5" r="1.45" fill="#2eaf5f" fill-opacity="0.46"/>
<circle cx="276.4" cy="175.4" r="1.45" fill="#2eaf5f" fill-opacity="0.46"/>
<circle cx="279.5" cy="175.1" r="1.45" fill="#2eaf5f" fill-opacity="0.46"/>
<circle cx="282.5" cy="185.6" r="1.45" fill="#2eaf5f" fill-opacity="0.46"/>
<circle cx="285.6" cy="186.0" r="1.45" fill="#2eaf5f" fill-opacity="0.46"/>
<circle cx="261.1" cy="184.4" r="1.45" fill="#2eaf5f" fill-opacity="0.46"/>
<circle cx="264.2" cy="208.1" r="1.45" fill="#2eaf5f" fill-opacity="0.46"/>
<circle cx="267.2" cy="206.1" r="1.45" fill="#2eaf5f" fill-opacity="0.46"/>
<circle cx="270.3" cy="206.5" r="1.45" fill="#2eaf5f" fill-opacity="0.46"/>
<circle cx="273.3" cy="196.0" r="1.45" fill="#2eaf5f" fill-opacity="0.46"/>
<circle cx="276.4" cy="202.3" r="1.45" fill="#2eaf5f" fill-opacity="0.46"/>
<circle cx="279.5" cy="260.4" r="1.45" fill="#2eaf5f" fill-opacity="0.46"/>
<circle cx="282.5" cy="260.6" r="1.45" fill="#2eaf5f" fill-opacity="0.46"/>
<circle cx="285.6" cy="260.3" r="1.45" fill="#2eaf5f" fill-opacity="0.46"/>
<circle cx="261.1" cy="260.2" r="1.45" fill="#2eaf5f" fill-opacity="0.46"/>
<circle cx="264.2" cy="260.6" r="1.45" fill="#2eaf5f" fill-opacity="0.46"/>
<line x1="273.3" y1="175.1" x2="273.3" y2="260.6" stroke="#2eaf5f" stroke-opacity="0.86" stroke-width="1.8"/>
<line x1="261.1" y1="175.1" x2="285.6" y2="175.1" stroke="#2eaf5f" stroke-opacity="0.86" stroke-width="1.8"/>
<line x1="261.1" y1="260.6" x2="285.6" y2="260.6" stroke="#2eaf5f" stroke-opacity="0.86" stroke-width="1.8"/>
<rect x="256.3" y="193.5" width="34.0" height="45.2" rx="2" fill="#2eaf5f" fill-opacity="0.18" stroke="#2eaf5f" stroke-opacity="0.9" stroke-width="1.8"/>
<line x1="256.3" y1="216.0" x2="290.3" y2="216.0" stroke="#2eaf5f" stroke-opacity="0.96" stroke-width="2.6"/>
<text x="296.3" y="220.0" text-anchor="start" font-family="Inter,Segoe UI,Arial,sans-serif" font-size="11" font-weight="700" fill="#111827" stroke="#ffffff" stroke-width="3" paint-order="stroke">1030</text>
<circle cx="338.4" cy="231.8" r="1.45" fill="#137a3d" fill-opacity="0.46"/>
<circle cx="341.5" cy="232.1" r="1.45" fill="#137a3d" fill-opacity="0.46"/>
<circle cx="344.5" cy="232.0" r="1.45" fill="#137a3d" fill-opacity="0.46"/>
<circle cx="347.6" cy="232.2" r="1.45" fill="#137a3d" fill-opacity="0.46"/>
<circle cx="350.7" cy="230.6" r="1.45" fill="#137a3d" fill-opacity="0.46"/>
<circle cx="353.7" cy="186.6" r="1.45" fill="#137a3d" fill-opacity="0.46"/>
<circle cx="356.8" cy="186.8" r="1.45" fill="#137a3d" fill-opacity="0.46"/>
<circle cx="359.8" cy="189.2" r="1.45" fill="#137a3d" fill-opacity="0.46"/>
<circle cx="362.9" cy="187.2" r="1.45" fill="#137a3d" fill-opacity="0.46"/>
<circle cx="338.4" cy="186.6" r="1.45" fill="#137a3d" fill-opacity="0.46"/>
<circle cx="341.5" cy="209.3" r="1.45" fill="#137a3d" fill-opacity="0.46"/>
<circle cx="344.5" cy="209.3" r="1.45" fill="#137a3d" fill-opacity="0.46"/>
<circle cx="347.6" cy="210.7" r="1.45" fill="#137a3d" fill-opacity="0.46"/>
<circle cx="350.7" cy="208.5" r="1.45" fill="#137a3d" fill-opacity="0.46"/>
<circle cx="353.7" cy="212.4" r="1.45" fill="#137a3d" fill-opacity="0.46"/>
<circle cx="356.8" cy="260.3" r="1.45" fill="#137a3d" fill-opacity="0.46"/>
<circle cx="359.8" cy="260.0" r="1.45" fill="#137a3d" fill-opacity="0.46"/>
<circle cx="362.9" cy="259.7" r="1.45" fill="#137a3d" fill-opacity="0.46"/>
<circle cx="338.4" cy="259.8" r="1.45" fill="#137a3d" fill-opacity="0.46"/>
<circle cx="341.5" cy="259.9" r="1.45" fill="#137a3d" fill-opacity="0.46"/>
<line x1="350.7" y1="186.6" x2="350.7" y2="260.3" stroke="#137a3d" stroke-opacity="0.86" stroke-width="1.8"/>
<line x1="338.4" y1="186.6" x2="362.9" y2="186.6" stroke="#137a3d" stroke-opacity="0.86" stroke-width="1.8"/>
<line x1="338.4" y1="260.3" x2="362.9" y2="260.3" stroke="#137a3d" stroke-opacity="0.86" stroke-width="1.8"/>
<rect x="333.7" y="203.7" width="34.0" height="35.4" rx="2" fill="#137a3d" fill-opacity="0.18" stroke="#137a3d" stroke-opacity="0.9" stroke-width="1.8"/>
<line x1="333.7" y1="221.5" x2="367.7" y2="221.5" stroke="#137a3d" stroke-opacity="0.96" stroke-width="2.6"/>
<text x="373.7" y="225.5" text-anchor="start" font-family="Inter,Segoe UI,Arial,sans-serif" font-size="11" font-weight="700" fill="#111827" stroke="#ffffff" stroke-width="3" paint-order="stroke">989</text>
<text x="477.3" y="398" text-anchor="middle" font-family="Inter,Segoe UI,Arial,sans-serif" font-size="11" font-weight="700" fill="#111827">python_modules_long</text>
<circle cx="426.4" cy="291.8" r="1.45" fill="#2eaf5f" fill-opacity="0.46"/>
<circle cx="429.5" cy="291.5" r="1.45" fill="#2eaf5f" fill-opacity="0.46"/>
<circle cx="432.5" cy="291.8" r="1.45" fill="#2eaf5f" fill-opacity="0.46"/>
<circle cx="435.6" cy="292.1" r="1.45" fill="#2eaf5f" fill-opacity="0.46"/>
<circle cx="438.7" cy="291.0" r="1.45" fill="#2eaf5f" fill-opacity="0.46"/>
<circle cx="441.7" cy="289.8" r="1.45" fill="#2eaf5f" fill-opacity="0.46"/>
<circle cx="444.8" cy="290.3" r="1.45" fill="#2eaf5f" fill-opacity="0.46"/>
<circle cx="447.8" cy="290.0" r="1.45" fill="#2eaf5f" fill-opacity="0.46"/>
<circle cx="450.9" cy="290.8" r="1.45" fill="#2eaf5f" fill-opacity="0.46"/>
<circle cx="426.4" cy="290.1" r="1.45" fill="#2eaf5f" fill-opacity="0.46"/>
<circle cx="429.5" cy="281.5" r="1.45" fill="#2eaf5f" fill-opacity="0.46"/>
<circle cx="432.5" cy="281.4" r="1.45" fill="#2eaf5f" fill-opacity="0.46"/>
<circle cx="435.6" cy="282.5" r="1.45" fill="#2eaf5f" fill-opacity="0.46"/>
<circle cx="438.7" cy="281.8" r="1.45" fill="#2eaf5f" fill-opacity="0.46"/>
<circle cx="441.7" cy="282.4" r="1.45" fill="#2eaf5f" fill-opacity="0.46"/>
<line x1="438.7" y1="281.4" x2="438.7" y2="292.1" stroke="#2eaf5f" stroke-opacity="0.86" stroke-width="1.8"/>
<line x1="426.4" y1="281.4" x2="450.9" y2="281.4" stroke="#2eaf5f" stroke-opacity="0.86" stroke-width="1.8"/>
<line x1="426.4" y1="292.1" x2="450.9" y2="292.1" stroke="#2eaf5f" stroke-opacity="0.86" stroke-width="1.8"/>
<rect x="421.7" y="282.4" width="34.0" height="8.8" rx="2" fill="#2eaf5f" fill-opacity="0.18" stroke="#2eaf5f" stroke-opacity="0.9" stroke-width="1.8"/>
<line x1="421.7" y1="290.1" x2="455.7" y2="290.1" stroke="#2eaf5f" stroke-opacity="0.96" stroke-width="2.6"/>
<text x="461.7" y="294.1" text-anchor="start" font-family="Inter,Segoe UI,Arial,sans-serif" font-size="11" font-weight="700" fill="#111827" stroke="#ffffff" stroke-width="3" paint-order="stroke">477</text>
<circle cx="503.8" cy="292.7" r="1.45" fill="#137a3d" fill-opacity="0.46"/>
<circle cx="506.8" cy="292.6" r="1.45" fill="#137a3d" fill-opacity="0.46"/>
<circle cx="509.9" cy="292.7" r="1.45" fill="#137a3d" fill-opacity="0.46"/>
<circle cx="512.9" cy="291.4" r="1.45" fill="#137a3d" fill-opacity="0.46"/>
<circle cx="516.0" cy="291.3" r="1.45" fill="#137a3d" fill-opacity="0.46"/>
<circle cx="519.1" cy="290.9" r="1.45" fill="#137a3d" fill-opacity="0.46"/>
<circle cx="522.1" cy="289.7" r="1.45" fill="#137a3d" fill-opacity="0.46"/>
<circle cx="525.2" cy="289.4" r="1.45" fill="#137a3d" fill-opacity="0.46"/>
<circle cx="528.2" cy="289.2" r="1.45" fill="#137a3d" fill-opacity="0.46"/>
<circle cx="503.8" cy="289.5" r="1.45" fill="#137a3d" fill-opacity="0.46"/>
<circle cx="506.8" cy="280.7" r="1.45" fill="#137a3d" fill-opacity="0.46"/>
<circle cx="509.9" cy="280.9" r="1.45" fill="#137a3d" fill-opacity="0.46"/>
<circle cx="512.9" cy="279.7" r="1.45" fill="#137a3d" fill-opacity="0.46"/>
<circle cx="516.0" cy="280.5" r="1.45" fill="#137a3d" fill-opacity="0.46"/>
<circle cx="519.1" cy="281.2" r="1.45" fill="#137a3d" fill-opacity="0.46"/>
<line x1="516.0" y1="279.7" x2="516.0" y2="292.7" stroke="#137a3d" stroke-opacity="0.86" stroke-width="1.8"/>
<line x1="503.8" y1="279.7" x2="528.2" y2="279.7" stroke="#137a3d" stroke-opacity="0.86" stroke-width="1.8"/>
<line x1="503.8" y1="292.7" x2="528.2" y2="292.7" stroke="#137a3d" stroke-opacity="0.86" stroke-width="1.8"/>
<rect x="499.0" y="281.1" width="34.0" height="10.3" rx="2" fill="#137a3d" fill-opacity="0.18" stroke="#137a3d" stroke-opacity="0.9" stroke-width="1.8"/>
<line x1="499.0" y1="289.5" x2="533.0" y2="289.5" stroke="#137a3d" stroke-opacity="0.96" stroke-width="2.6"/>
<text x="539.0" y="293.5" text-anchor="start" font-family="Inter,Segoe UI,Arial,sans-serif" font-size="11" font-weight="700" fill="#111827" stroke="#ffffff" stroke-width="3" paint-order="stroke">481</text>
<rect x="64.0" y="433" width="10" height="10" rx="2" fill="#2eaf5f" fill-opacity="0.72"/>
<text x="78.0" y="442" font-family="Inter,Segoe UI,Arial,sans-serif" font-size="10" fill="#374151">AX assistant MTP</text>
<rect x="312.0" y="433" width="10" height="10" rx="2" fill="#137a3d" fill-opacity="0.72"/>
<text x="326.0" y="442" font-family="Inter,Segoe UI,Arial,sans-serif" font-size="10" fill="#374151">AX assistant MTP+n-gram</text>
</svg>
