<svg xmlns="http://www.w3.org/2000/svg" width="460" height="276" viewBox="0 0 460 276" role="img" aria-labelledby="title desc"><title>Decode rate</title><desc>Box-and-Whisker Plot comparing llama.cpp Metal, mlx_lm, mlx_swift_lm, ax_engine, and ax_engine plus n-gram across 28 README benchmark rows. A red dotted horizontal line marks the ax_engine plus n-gram median.</desc><rect width="460" height="276" fill="#ffffff"/><text x="52" y="22" font-family="Inter,Segoe UI,Arial,sans-serif" font-size="16" font-weight="700" fill="#111827">Decode rate</text><text x="52" y="40" font-family="Inter,Segoe UI,Arial,sans-serif" font-size="10" fill="#6b7280">AX n-gram is the default policy</text><text x="442" y="22" text-anchor="end" font-family="Inter,Segoe UI,Arial,sans-serif" font-size="10" fill="#6b7280">tok/s</text><text x="442" y="40" text-anchor="end" font-family="Inter,Segoe UI,Arial,sans-serif" font-size="10" font-weight="700" fill="#374151">Higher is better</text><line x1="52" y1="206.0" x2="442" y2="206.0" stroke="#e5e7eb" stroke-width="1"/><text x="44" y="209.0" text-anchor="end" font-family="Inter,Segoe UI,Arial,sans-serif" font-size="10" fill="#6b7280">0</text><line x1="52" y1="126.0" x2="442" y2="126.0" stroke="#e5e7eb" stroke-width="1"/><text x="44" y="129.0" text-anchor="end" font-family="Inter,Segoe UI,Arial,sans-serif" font-size="10" fill="#6b7280">350</text><line x1="52" y1="46.0" x2="442" y2="46.0" stroke="#e5e7eb" stroke-width="1"/><text x="44" y="49.0" text-anchor="end" font-family="Inter,Segoe UI,Arial,sans-serif" font-size="10" fill="#6b7280">700</text><line x1="52" y1="142.4" x2="442" y2="142.4" stroke="#dc2626" stroke-width="1.2" stroke-dasharray="2 4"/><rect x="300" y="50" width="135" height="160" fill="none" stroke="#dc2626" stroke-width="1.4"/><line x1="78" y1="168.9" x2="78" y2="200.5" stroke="#f97316" stroke-width="2"/><line x1="68" y1="168.9" x2="88" y2="168.9" stroke="#f97316" stroke-width="2"/><line x1="68" y1="200.5" x2="88" y2="200.5" stroke="#f97316" stroke-width="2"/><rect x="61" y="175.6" width="34" height="10.0" rx="4" fill="#f97316" fill-opacity="0.18" stroke="#f97316" stroke-width="2"/><line x1="61" y1="184.1" x2="95" y2="184.1" stroke="#f97316" stroke-width="3"/><text x="78" y="230" text-anchor="middle" font-family="Inter,Segoe UI,Arial,sans-serif" font-size="9" fill="#111827">llama.cpp</text><text x="78" y="246" text-anchor="middle" font-family="Inter,Segoe UI,Arial,sans-serif" font-size="10" fill="#6b7280">med 96</text><circle cx="69.5" cy="168.9" r="2" fill="#c2410c" fill-opacity="0.9"/><circle cx="73" cy="169.9" r="2" fill="#c2410c" fill-opacity="0.9"/><circle cx="76" cy="172.4" r="2" fill="#c2410c" fill-opacity="0.9"/><circle cx="79.5" cy="171.4" r="2" fill="#c2410c" fill-opacity="0.9"/><circle cx="83" cy="174.3" r="2" fill="#c2410c" fill-opacity="0.9"/><circle cx="86.5" cy="174.5" r="2" fill="#c2410c" fill-opacity="0.9"/><circle cx="71.5" cy="176.0" r="2" fill="#c2410c" fill-opacity="0.9"/><circle cx="81.5" cy="174.6" r="2" fill="#c2410c" fill-opacity="0.9"/><circle cx="69.5" cy="182.1" r="2" fill="#c2410c" fill-opacity="0.9"/><circle cx="73" cy="182.2" r="2" fill="#c2410c" fill-opacity="0.9"/><circle cx="76" cy="181.5" r="2" fill="#c2410c" fill-opacity="0.9"/><circle cx="79.5" cy="181.4" r="2" fill="#c2410c" fill-opacity="0.9"/><circle cx="83" cy="200.4" r="2" fill="#c2410c" fill-opacity="0.9"/><circle cx="86.5" cy="200.5" r="2" fill="#c2410c" fill-opacity="0.9"/><circle cx="71.5" cy="188.5" r="2" fill="#c2410c" fill-opacity="0.9"/><circle cx="81.5" cy="188.4" r="2" fill="#c2410c" fill-opacity="0.9"/><circle cx="69.5" cy="185.5" r="2" fill="#c2410c" fill-opacity="0.9"/><circle cx="73" cy="185.2" r="2" fill="#c2410c" fill-opacity="0.9"/><circle cx="76" cy="183.5" r="2" fill="#c2410c" fill-opacity="0.9"/><circle cx="79.5" cy="186.1" r="2" fill="#c2410c" fill-opacity="0.9"/><circle cx="83" cy="184.1" r="2" fill="#c2410c" fill-opacity="0.9"/><circle cx="86.5" cy="184.2" r="2" fill="#c2410c" fill-opacity="0.9"/><circle cx="71.5" cy="185.4" r="2" fill="#c2410c" fill-opacity="0.9"/><circle cx="81.5" cy="185.4" r="2" fill="#c2410c" fill-opacity="0.9"/><circle cx="69.5" cy="187.7" r="2" fill="#c2410c" fill-opacity="0.9"/><circle cx="73" cy="187.2" r="2" fill="#c2410c" fill-opacity="0.9"/><circle cx="76" cy="184.9" r="2" fill="#c2410c" fill-opacity="0.9"/><circle cx="79.5" cy="184.8" r="2" fill="#c2410c" fill-opacity="0.9"/><line x1="159.25" y1="157.2" x2="159.25" y2="199.5" stroke="#f2b705" stroke-width="2"/><line x1="149.25" y1="157.2" x2="169.25" y2="157.2" stroke="#f2b705" stroke-width="2"/><line x1="149.25" y1="199.5" x2="169.25" y2="199.5" stroke="#f2b705" stroke-width="2"/><rect x="142.25" y="171.5" width="34" height="10.8" rx="4" fill="#f2b705" fill-opacity="0.18" stroke="#f2b705" stroke-width="2"/><line x1="142.25" y1="177.9" x2="176.25" y2="177.9" stroke="#f2b705" stroke-width="3"/><text x="159.25" y="230" text-anchor="middle" font-family="Inter,Segoe UI,Arial,sans-serif" font-size="9" fill="#111827">mlx_lm</text><text x="159.25" y="246" text-anchor="middle" font-family="Inter,Segoe UI,Arial,sans-serif" font-size="10" fill="#6b7280">med 123</text><circle cx="150.75" cy="157.2" r="2" fill="#9a6a00" fill-opacity="0.9"/><circle cx="154.25" cy="158.0" r="2" fill="#9a6a00" fill-opacity="0.9"/><circle cx="157.25" cy="161.0" r="2" fill="#9a6a00" fill-opacity="0.9"/><circle cx="160.75" cy="162.5" r="2" fill="#9a6a00" fill-opacity="0.9"/><circle cx="164.25" cy="165.9" r="2" fill="#9a6a00" fill-opacity="0.9"/><circle cx="167.75" cy="167.0" r="2" fill="#9a6a00" fill-opacity="0.9"/><circle cx="152.75" cy="170.7" r="2" fill="#9a6a00" fill-opacity="0.9"/><circle cx="162.75" cy="171.8" r="2" fill="#9a6a00" fill-opacity="0.9"/><circle cx="150.75" cy="174.6" r="2" fill="#9a6a00" fill-opacity="0.9"/><circle cx="154.25" cy="175.4" r="2" fill="#9a6a00" fill-opacity="0.9"/><circle cx="157.25" cy="176.7" r="2" fill="#9a6a00" fill-opacity="0.9"/><circle cx="160.75" cy="177.5" r="2" fill="#9a6a00" fill-opacity="0.9"/><circle cx="164.25" cy="199.4" r="2" fill="#9a6a00" fill-opacity="0.9"/><circle cx="167.75" cy="199.5" r="2" fill="#9a6a00" fill-opacity="0.9"/><circle cx="152.75" cy="186.7" r="2" fill="#9a6a00" fill-opacity="0.9"/><circle cx="162.75" cy="186.8" r="2" fill="#9a6a00" fill-opacity="0.9"/><circle cx="150.75" cy="178.4" r="2" fill="#9a6a00" fill-opacity="0.9"/><circle cx="154.25" cy="178.4" r="2" fill="#9a6a00" fill-opacity="0.9"/><circle cx="157.25" cy="177.3" r="2" fill="#9a6a00" fill-opacity="0.9"/><circle cx="160.75" cy="177.2" r="2" fill="#9a6a00" fill-opacity="0.9"/><circle cx="164.25" cy="179.8" r="2" fill="#9a6a00" fill-opacity="0.9"/><circle cx="167.75" cy="179.9" r="2" fill="#9a6a00" fill-opacity="0.9"/><circle cx="152.75" cy="182.0" r="2" fill="#9a6a00" fill-opacity="0.9"/><circle cx="162.75" cy="182.1" r="2" fill="#9a6a00" fill-opacity="0.9"/><circle cx="150.75" cy="182.9" r="2" fill="#9a6a00" fill-opacity="0.9"/><circle cx="154.25" cy="182.7" r="2" fill="#9a6a00" fill-opacity="0.9"/><circle cx="157.25" cy="182.1" r="2" fill="#9a6a00" fill-opacity="0.9"/><circle cx="160.75" cy="183.0" r="2" fill="#9a6a00" fill-opacity="0.9"/><line x1="240.5" y1="158.1" x2="240.5" y2="199.7" stroke="#4062bb" stroke-width="2"/><line x1="230.5" y1="158.1" x2="250.5" y2="158.1" stroke="#4062bb" stroke-width="2"/><line x1="230.5" y1="199.7" x2="250.5" y2="199.7" stroke="#4062bb" stroke-width="2"/><rect x="223.5" y="172.8" width="34" height="10.2" rx="4" fill="#4062bb" fill-opacity="0.18" stroke="#4062bb" stroke-width="2"/><line x1="223.5" y1="178.5" x2="257.5" y2="178.5" stroke="#4062bb" stroke-width="3"/><text x="240.5" y="230" text-anchor="middle" font-family="Inter,Segoe UI,Arial,sans-serif" font-size="9" fill="#111827">mlx_swift_lm</text><text x="240.5" y="246" text-anchor="middle" font-family="Inter,Segoe UI,Arial,sans-serif" font-size="10" fill="#6b7280">med 120</text><circle cx="232" cy="158.1" r="2" fill="#243b87" fill-opacity="0.9"/><circle cx="235.5" cy="160.2" r="2" fill="#243b87" fill-opacity="0.9"/><circle cx="238.5" cy="162.9" r="2" fill="#243b87" fill-opacity="0.9"/><circle cx="242" cy="164.7" r="2" fill="#243b87" fill-opacity="0.9"/><circle cx="245.5" cy="167.5" r="2" fill="#243b87" fill-opacity="0.9"/><circle cx="249" cy="169.0" r="2" fill="#243b87" fill-opacity="0.9"/><circle cx="234" cy="172.0" r="2" fill="#243b87" fill-opacity="0.9"/><circle cx="244" cy="173.1" r="2" fill="#243b87" fill-opacity="0.9"/><circle cx="232" cy="175.8" r="2" fill="#243b87" fill-opacity="0.9"/><circle cx="235.5" cy="176.8" r="2" fill="#243b87" fill-opacity="0.9"/><circle cx="238.5" cy="178.4" r="2" fill="#243b87" fill-opacity="0.9"/><circle cx="242" cy="179.5" r="2" fill="#243b87" fill-opacity="0.9"/><circle cx="245.5" cy="199.5" r="2" fill="#243b87" fill-opacity="0.9"/><circle cx="249" cy="199.7" r="2" fill="#243b87" fill-opacity="0.9"/><circle cx="234" cy="187.3" r="2" fill="#243b87" fill-opacity="0.9"/><circle cx="244" cy="187.9" r="2" fill="#243b87" fill-opacity="0.9"/><circle cx="232" cy="178.2" r="2" fill="#243b87" fill-opacity="0.9"/><circle cx="235.5" cy="178.7" r="2" fill="#243b87" fill-opacity="0.9"/><circle cx="238.5" cy="177.8" r="2" fill="#243b87" fill-opacity="0.9"/><circle cx="242" cy="178.0" r="2" fill="#243b87" fill-opacity="0.9"/><circle cx="245.5" cy="180.4" r="2" fill="#243b87" fill-opacity="0.9"/><circle cx="249" cy="180.8" r="2" fill="#243b87" fill-opacity="0.9"/><circle cx="234" cy="182.6" r="2" fill="#243b87" fill-opacity="0.9"/><circle cx="244" cy="183.0" r="2" fill="#243b87" fill-opacity="0.9"/><circle cx="232" cy="182.9" r="2" fill="#243b87" fill-opacity="0.9"/><circle cx="235.5" cy="183.5" r="2" fill="#243b87" fill-opacity="0.9"/><circle cx="238.5" cy="183.2" r="2" fill="#243b87" fill-opacity="0.9"/><circle cx="242" cy="184.2" r="2" fill="#243b87" fill-opacity="0.9"/><line x1="321.75" y1="162.1" x2="321.75" y2="199.8" stroke="#2eaf5f" stroke-width="2"/><line x1="311.75" y1="162.1" x2="331.75" y2="162.1" stroke="#2eaf5f" stroke-width="2"/><line x1="311.75" y1="199.8" x2="331.75" y2="199.8" stroke="#2eaf5f" stroke-width="2"/><rect x="304.75" y="174.3" width="34" height="7.9" rx="4" fill="#2eaf5f" fill-opacity="0.18" stroke="#2eaf5f" stroke-width="2"/><line x1="304.75" y1="178.4" x2="338.75" y2="178.4" stroke="#2eaf5f" stroke-width="3"/><text x="321.75" y="230" text-anchor="middle" font-family="Inter,Segoe UI,Arial,sans-serif" font-size="9" fill="#111827">ax_engine</text><text x="321.75" y="246" text-anchor="middle" font-family="Inter,Segoe UI,Arial,sans-serif" font-size="10" fill="#6b7280">med 121</text><circle cx="313.25" cy="162.1" r="2" fill="#176c37" fill-opacity="0.9"/><circle cx="316.75" cy="163.7" r="2" fill="#176c37" fill-opacity="0.9"/><circle cx="319.75" cy="166.1" r="2" fill="#176c37" fill-opacity="0.9"/><circle cx="323.25" cy="167.5" r="2" fill="#176c37" fill-opacity="0.9"/><circle cx="326.75" cy="170.1" r="2" fill="#176c37" fill-opacity="0.9"/><circle cx="330.25" cy="171.4" r="2" fill="#176c37" fill-opacity="0.9"/><circle cx="315.25" cy="174.0" r="2" fill="#176c37" fill-opacity="0.9"/><circle cx="325.25" cy="174.9" r="2" fill="#176c37" fill-opacity="0.9"/><circle cx="313.25" cy="177.9" r="2" fill="#176c37" fill-opacity="0.9"/><circle cx="316.75" cy="178.6" r="2" fill="#176c37" fill-opacity="0.9"/><circle cx="319.75" cy="178.3" r="2" fill="#176c37" fill-opacity="0.9"/><circle cx="323.25" cy="179.0" r="2" fill="#176c37" fill-opacity="0.9"/><circle cx="326.75" cy="199.6" r="2" fill="#176c37" fill-opacity="0.9"/><circle cx="330.25" cy="199.8" r="2" fill="#176c37" fill-opacity="0.9"/><circle cx="315.25" cy="182.3" r="2" fill="#176c37" fill-opacity="0.9"/><circle cx="325.25" cy="182.4" r="2" fill="#176c37" fill-opacity="0.9"/><circle cx="313.25" cy="177.7" r="2" fill="#176c37" fill-opacity="0.9"/><circle cx="316.75" cy="178.0" r="2" fill="#176c37" fill-opacity="0.9"/><circle cx="319.75" cy="174.4" r="2" fill="#176c37" fill-opacity="0.9"/><circle cx="323.25" cy="174.5" r="2" fill="#176c37" fill-opacity="0.9"/><circle cx="326.75" cy="178.5" r="2" fill="#176c37" fill-opacity="0.9"/><circle cx="330.25" cy="178.6" r="2" fill="#176c37" fill-opacity="0.9"/><circle cx="315.25" cy="181.2" r="2" fill="#176c37" fill-opacity="0.9"/><circle cx="325.25" cy="181.4" r="2" fill="#176c37" fill-opacity="0.9"/><circle cx="313.25" cy="182.3" r="2" fill="#176c37" fill-opacity="0.9"/><circle cx="316.75" cy="182.5" r="2" fill="#176c37" fill-opacity="0.9"/><circle cx="319.75" cy="182.2" r="2" fill="#176c37" fill-opacity="0.9"/><circle cx="323.25" cy="182.3" r="2" fill="#176c37" fill-opacity="0.9"/><line x1="403" y1="70.4" x2="403" y2="191.4" stroke="#137a3d" stroke-width="2"/><line x1="393" y1="70.4" x2="413" y2="70.4" stroke="#137a3d" stroke-width="2"/><line x1="393" y1="191.4" x2="413" y2="191.4" stroke="#137a3d" stroke-width="2"/><rect x="386" y="108.9" width="34" height="39.3" rx="4" fill="#137a3d" fill-opacity="0.18" stroke="#137a3d" stroke-width="2"/><line x1="386" y1="142.4" x2="420" y2="142.4" stroke="#137a3d" stroke-width="3"/><text x="403" y="230" text-anchor="middle" font-family="Inter,Segoe UI,Arial,sans-serif" font-size="9" fill="#111827">ax_engine + n-gram</text><text x="403" y="246" text-anchor="middle" font-family="Inter,Segoe UI,Arial,sans-serif" font-size="10" fill="#6b7280">med 278</text><circle cx="394.5" cy="70.4" r="2" fill="#0b4f28" fill-opacity="0.9"/><circle cx="398" cy="72.3" r="2" fill="#0b4f28" fill-opacity="0.9"/><circle cx="401" cy="99.9" r="2" fill="#0b4f28" fill-opacity="0.9"/><circle cx="404.5" cy="101.2" r="2" fill="#0b4f28" fill-opacity="0.9"/><circle cx="408" cy="108.0" r="2" fill="#0b4f28" fill-opacity="0.9"/><circle cx="411.5" cy="109.2" r="2" fill="#0b4f28" fill-opacity="0.9"/><circle cx="396.5" cy="99.7" r="2" fill="#0b4f28" fill-opacity="0.9"/><circle cx="406.5" cy="100.9" r="2" fill="#0b4f28" fill-opacity="0.9"/><circle cx="394.5" cy="124.7" r="2" fill="#0b4f28" fill-opacity="0.9"/><circle cx="398" cy="124.6" r="2" fill="#0b4f28" fill-opacity="0.9"/><circle cx="401" cy="143.3" r="2" fill="#0b4f28" fill-opacity="0.9"/><circle cx="404.5" cy="152.2" r="2" fill="#0b4f28" fill-opacity="0.9"/><circle cx="408" cy="191.0" r="2" fill="#0b4f28" fill-opacity="0.9"/><circle cx="411.5" cy="191.4" r="2" fill="#0b4f28" fill-opacity="0.9"/><circle cx="396.5" cy="158.9" r="2" fill="#0b4f28" fill-opacity="0.9"/><circle cx="406.5" cy="182.9" r="2" fill="#0b4f28" fill-opacity="0.9"/><circle cx="394.5" cy="140.9" r="2" fill="#0b4f28" fill-opacity="0.9"/><circle cx="398" cy="141.6" r="2" fill="#0b4f28" fill-opacity="0.9"/><circle cx="401" cy="141.0" r="2" fill="#0b4f28" fill-opacity="0.9"/><circle cx="404.5" cy="141.8" r="2" fill="#0b4f28" fill-opacity="0.9"/><circle cx="408" cy="146.2" r="2" fill="#0b4f28" fill-opacity="0.9"/><circle cx="411.5" cy="146.9" r="2" fill="#0b4f28" fill-opacity="0.9"/><circle cx="396.5" cy="145.7" r="2" fill="#0b4f28" fill-opacity="0.9"/><circle cx="406.5" cy="146.7" r="2" fill="#0b4f28" fill-opacity="0.9"/><circle cx="394.5" cy="182.8" r="2" fill="#0b4f28" fill-opacity="0.9"/><circle cx="398" cy="179.8" r="2" fill="#0b4f28" fill-opacity="0.9"/><circle cx="401" cy="143.0" r="2" fill="#0b4f28" fill-opacity="0.9"/><circle cx="404.5" cy="144.1" r="2" fill="#0b4f28" fill-opacity="0.9"/></svg>
