<svg xmlns="http://www.w3.org/2000/svg" width="460" height="276" viewBox="0 0 460 276" role="img" aria-labelledby="title desc"><title>Decode rate</title><desc>Box-and-Whisker Plot comparing llama.cpp Metal, mlx_lm, ax_engine, and ax_engine plus n-gram across README benchmark rows. A red dotted horizontal line marks the ax_engine plus n-gram median.</desc><rect width="460" height="276" fill="#ffffff"/><text x="52" y="22" font-family="Inter,Segoe UI,Arial,sans-serif" font-size="16" font-weight="700" fill="#111827">Decode rate</text><text x="52" y="40" font-family="Inter,Segoe UI,Arial,sans-serif" font-size="10" fill="#6b7280">AX n-gram is the default policy</text><text x="442" y="22" text-anchor="end" font-family="Inter,Segoe UI,Arial,sans-serif" font-size="10" fill="#6b7280">tok/s</text><text x="442" y="40" text-anchor="end" font-family="Inter,Segoe UI,Arial,sans-serif" font-size="10" font-weight="700" fill="#374151">Higher is better</text><line x1="52" y1="206.0" x2="442" y2="206.0" stroke="#e5e7eb" stroke-width="1"/><text x="44" y="209.0" text-anchor="end" font-family="Inter,Segoe UI,Arial,sans-serif" font-size="10" fill="#6b7280">0</text><line x1="52" y1="126.0" x2="442" y2="126.0" stroke="#e5e7eb" stroke-width="1"/><text x="44" y="129.0" text-anchor="end" font-family="Inter,Segoe UI,Arial,sans-serif" font-size="10" fill="#6b7280">350</text><line x1="52" y1="46.0" x2="442" y2="46.0" stroke="#e5e7eb" stroke-width="1"/><text x="44" y="49.0" text-anchor="end" font-family="Inter,Segoe UI,Arial,sans-serif" font-size="10" fill="#6b7280">700</text><line x1="52" y1="145.8" x2="442" y2="145.8" stroke="#dc2626" stroke-width="1.2" stroke-dasharray="2 4"/><rect x="300" y="50" width="135" height="160" fill="none" stroke="#dc2626" stroke-width="1.4"/><line x1="78" y1="166.7" x2="78" y2="202.1" stroke="#f97316" stroke-width="2"/><line x1="68" y1="166.7" x2="88" y2="166.7" stroke="#f97316" stroke-width="2"/><line x1="68" y1="202.1" x2="88" y2="202.1" stroke="#f97316" stroke-width="2"/><rect x="61" y="173.1" width="34" height="28.1" rx="4" fill="#f97316" fill-opacity="0.18" stroke="#f97316" stroke-width="2"/><line x1="61" y1="181.1" x2="95" y2="181.1" stroke="#f97316" stroke-width="3"/><text x="78" y="230" text-anchor="middle" font-family="Inter,Segoe UI,Arial,sans-serif" font-size="9" fill="#111827">llama.cpp</text><text x="78" y="246" text-anchor="middle" font-family="Inter,Segoe UI,Arial,sans-serif" font-size="10" fill="#6b7280">med 109</text><circle cx="69.5" cy="167.1" r="2" fill="#c2410c" fill-opacity="0.9"/><circle cx="73" cy="166.8" r="2" fill="#c2410c" fill-opacity="0.9"/><circle cx="76" cy="166.7" r="2" fill="#c2410c" fill-opacity="0.9"/><circle cx="79.5" cy="169.4" r="2" fill="#c2410c" fill-opacity="0.9"/><circle cx="83" cy="169.6" r="2" fill="#c2410c" fill-opacity="0.9"/><circle cx="86.5" cy="169.6" r="2" fill="#c2410c" fill-opacity="0.9"/><circle cx="71.5" cy="170.8" r="2" fill="#c2410c" fill-opacity="0.9"/><circle cx="81.5" cy="171.0" r="2" fill="#c2410c" fill-opacity="0.9"/><circle cx="69.5" cy="170.8" r="2" fill="#c2410c" fill-opacity="0.9"/><circle cx="73" cy="175.0" r="2" fill="#c2410c" fill-opacity="0.9"/><circle cx="76" cy="173.9" r="2" fill="#c2410c" fill-opacity="0.9"/><circle cx="79.5" cy="173.9" r="2" fill="#c2410c" fill-opacity="0.9"/><circle cx="83" cy="180.7" r="2" fill="#c2410c" fill-opacity="0.9"/><circle cx="86.5" cy="180.8" r="2" fill="#c2410c" fill-opacity="0.9"/><circle cx="71.5" cy="180.7" r="2" fill="#c2410c" fill-opacity="0.9"/><circle cx="81.5" cy="180.2" r="2" fill="#c2410c" fill-opacity="0.9"/><circle cx="69.5" cy="180.3" r="2" fill="#c2410c" fill-opacity="0.9"/><circle cx="73" cy="180.3" r="2" fill="#c2410c" fill-opacity="0.9"/><circle cx="76" cy="200.2" r="2" fill="#c2410c" fill-opacity="0.9"/><circle cx="79.5" cy="200.4" r="2" fill="#c2410c" fill-opacity="0.9"/><circle cx="83" cy="200.5" r="2" fill="#c2410c" fill-opacity="0.9"/><circle cx="86.5" cy="201.6" r="2" fill="#c2410c" fill-opacity="0.9"/><circle cx="71.5" cy="201.1" r="2" fill="#c2410c" fill-opacity="0.9"/><circle cx="81.5" cy="200.4" r="2" fill="#c2410c" fill-opacity="0.9"/><circle cx="69.5" cy="201.5" r="2" fill="#c2410c" fill-opacity="0.9"/><circle cx="73" cy="201.2" r="2" fill="#c2410c" fill-opacity="0.9"/><circle cx="76" cy="201.3" r="2" fill="#c2410c" fill-opacity="0.9"/><circle cx="79.5" cy="201.6" r="2" fill="#c2410c" fill-opacity="0.9"/><circle cx="83" cy="201.6" r="2" fill="#c2410c" fill-opacity="0.9"/><circle cx="86.5" cy="201.6" r="2" fill="#c2410c" fill-opacity="0.9"/><circle cx="71.5" cy="202.0" r="2" fill="#c2410c" fill-opacity="0.9"/><circle cx="81.5" cy="202.1" r="2" fill="#c2410c" fill-opacity="0.9"/><circle cx="69.5" cy="202.1" r="2" fill="#c2410c" fill-opacity="0.9"/><circle cx="73" cy="181.4" r="2" fill="#c2410c" fill-opacity="0.9"/><circle cx="76" cy="181.4" r="2" fill="#c2410c" fill-opacity="0.9"/><circle cx="79.5" cy="181.4" r="2" fill="#c2410c" fill-opacity="0.9"/><line x1="159.25" y1="157.1" x2="159.25" y2="201.8" stroke="#f2b705" stroke-width="2"/><line x1="149.25" y1="157.1" x2="169.25" y2="157.1" stroke="#f2b705" stroke-width="2"/><line x1="149.25" y1="201.8" x2="169.25" y2="201.8" stroke="#f2b705" stroke-width="2"/><rect x="142.25" y="170.5" width="34" height="29.1" rx="4" fill="#f2b705" fill-opacity="0.18" stroke="#f2b705" stroke-width="2"/><line x1="142.25" y1="176.5" x2="176.25" y2="176.5" stroke="#f2b705" stroke-width="3"/><text x="159.25" y="230" text-anchor="middle" font-family="Inter,Segoe UI,Arial,sans-serif" font-size="9" fill="#111827">mlx_lm</text><text x="159.25" y="246" text-anchor="middle" font-family="Inter,Segoe UI,Arial,sans-serif" font-size="10" fill="#6b7280">med 129</text><circle cx="150.75" cy="157.1" r="2" fill="#9a6a00" fill-opacity="0.9"/><circle cx="154.25" cy="157.9" r="2" fill="#9a6a00" fill-opacity="0.9"/><circle cx="157.25" cy="160.1" r="2" fill="#9a6a00" fill-opacity="0.9"/><circle cx="160.75" cy="161.4" r="2" fill="#9a6a00" fill-opacity="0.9"/><circle cx="164.25" cy="164.4" r="2" fill="#9a6a00" fill-opacity="0.9"/><circle cx="167.75" cy="164.4" r="2" fill="#9a6a00" fill-opacity="0.9"/><circle cx="152.75" cy="166.6" r="2" fill="#9a6a00" fill-opacity="0.9"/><circle cx="162.75" cy="168.0" r="2" fill="#9a6a00" fill-opacity="0.9"/><circle cx="150.75" cy="168.9" r="2" fill="#9a6a00" fill-opacity="0.9"/><circle cx="154.25" cy="171.0" r="2" fill="#9a6a00" fill-opacity="0.9"/><circle cx="157.25" cy="172.0" r="2" fill="#9a6a00" fill-opacity="0.9"/><circle cx="160.75" cy="173.0" r="2" fill="#9a6a00" fill-opacity="0.9"/><circle cx="164.25" cy="174.7" r="2" fill="#9a6a00" fill-opacity="0.9"/><circle cx="167.75" cy="175.5" r="2" fill="#9a6a00" fill-opacity="0.9"/><circle cx="152.75" cy="176.2" r="2" fill="#9a6a00" fill-opacity="0.9"/><circle cx="162.75" cy="176.8" r="2" fill="#9a6a00" fill-opacity="0.9"/><circle cx="150.75" cy="177.4" r="2" fill="#9a6a00" fill-opacity="0.9"/><circle cx="154.25" cy="178.7" r="2" fill="#9a6a00" fill-opacity="0.9"/><circle cx="157.25" cy="199.4" r="2" fill="#9a6a00" fill-opacity="0.9"/><circle cx="160.75" cy="199.5" r="2" fill="#9a6a00" fill-opacity="0.9"/><circle cx="164.25" cy="199.8" r="2" fill="#9a6a00" fill-opacity="0.9"/><circle cx="167.75" cy="198.2" r="2" fill="#9a6a00" fill-opacity="0.9"/><circle cx="152.75" cy="198.3" r="2" fill="#9a6a00" fill-opacity="0.9"/><circle cx="162.75" cy="198.4" r="2" fill="#9a6a00" fill-opacity="0.9"/><circle cx="150.75" cy="201.1" r="2" fill="#9a6a00" fill-opacity="0.9"/><circle cx="154.25" cy="199.6" r="2" fill="#9a6a00" fill-opacity="0.9"/><circle cx="157.25" cy="199.6" r="2" fill="#9a6a00" fill-opacity="0.9"/><circle cx="160.75" cy="200.5" r="2" fill="#9a6a00" fill-opacity="0.9"/><circle cx="164.25" cy="200.3" r="2" fill="#9a6a00" fill-opacity="0.9"/><circle cx="167.75" cy="200.4" r="2" fill="#9a6a00" fill-opacity="0.9"/><circle cx="152.75" cy="201.7" r="2" fill="#9a6a00" fill-opacity="0.9"/><circle cx="162.75" cy="201.7" r="2" fill="#9a6a00" fill-opacity="0.9"/><circle cx="150.75" cy="201.8" r="2" fill="#9a6a00" fill-opacity="0.9"/><circle cx="154.25" cy="174.0" r="2" fill="#9a6a00" fill-opacity="0.9"/><circle cx="157.25" cy="174.8" r="2" fill="#9a6a00" fill-opacity="0.9"/><circle cx="160.75" cy="175.3" r="2" fill="#9a6a00" fill-opacity="0.9"/><line x1="240.5" y1="163.4" x2="240.5" y2="201.9" stroke="#2eaf5f" stroke-width="2"/><line x1="230.5" y1="163.4" x2="250.5" y2="163.4" stroke="#2eaf5f" stroke-width="2"/><line x1="230.5" y1="201.9" x2="250.5" y2="201.9" stroke="#2eaf5f" stroke-width="2"/><rect x="223.5" y="171.7" width="34" height="28.0" rx="4" fill="#2eaf5f" fill-opacity="0.18" stroke="#2eaf5f" stroke-width="2"/><line x1="223.5" y1="178.9" x2="257.5" y2="178.9" stroke="#2eaf5f" stroke-width="3"/><text x="240.5" y="230" text-anchor="middle" font-family="Inter,Segoe UI,Arial,sans-serif" font-size="9" fill="#111827">ax_engine</text><text x="240.5" y="246" text-anchor="middle" font-family="Inter,Segoe UI,Arial,sans-serif" font-size="10" fill="#6b7280">med 119</text><circle cx="232" cy="163.4" r="2" fill="#176c37" fill-opacity="0.9"/><circle cx="235.5" cy="164.9" r="2" fill="#176c37" fill-opacity="0.9"/><circle cx="238.5" cy="166.6" r="2" fill="#176c37" fill-opacity="0.9"/><circle cx="242" cy="166.5" r="2" fill="#176c37" fill-opacity="0.9"/><circle cx="245.5" cy="167.8" r="2" fill="#176c37" fill-opacity="0.9"/><circle cx="249" cy="169.1" r="2" fill="#176c37" fill-opacity="0.9"/><circle cx="234" cy="170.3" r="2" fill="#176c37" fill-opacity="0.9"/><circle cx="244" cy="171.4" r="2" fill="#176c37" fill-opacity="0.9"/><circle cx="232" cy="172.5" r="2" fill="#176c37" fill-opacity="0.9"/><circle cx="235.5" cy="174.3" r="2" fill="#176c37" fill-opacity="0.9"/><circle cx="238.5" cy="175.1" r="2" fill="#176c37" fill-opacity="0.9"/><circle cx="242" cy="175.9" r="2" fill="#176c37" fill-opacity="0.9"/><circle cx="245.5" cy="178.0" r="2" fill="#176c37" fill-opacity="0.9"/><circle cx="249" cy="178.7" r="2" fill="#176c37" fill-opacity="0.9"/><circle cx="234" cy="179.3" r="2" fill="#176c37" fill-opacity="0.9"/><circle cx="244" cy="178.3" r="2" fill="#176c37" fill-opacity="0.9"/><circle cx="232" cy="179.0" r="2" fill="#176c37" fill-opacity="0.9"/><circle cx="235.5" cy="180.3" r="2" fill="#176c37" fill-opacity="0.9"/><circle cx="238.5" cy="199.7" r="2" fill="#176c37" fill-opacity="0.9"/><circle cx="242" cy="199.8" r="2" fill="#176c37" fill-opacity="0.9"/><circle cx="245.5" cy="200.1" r="2" fill="#176c37" fill-opacity="0.9"/><circle cx="249" cy="198.5" r="2" fill="#176c37" fill-opacity="0.9"/><circle cx="234" cy="198.5" r="2" fill="#176c37" fill-opacity="0.9"/><circle cx="244" cy="198.6" r="2" fill="#176c37" fill-opacity="0.9"/><circle cx="232" cy="199.7" r="2" fill="#176c37" fill-opacity="0.9"/><circle cx="235.5" cy="199.8" r="2" fill="#176c37" fill-opacity="0.9"/><circle cx="238.5" cy="199.8" r="2" fill="#176c37" fill-opacity="0.9"/><circle cx="242" cy="200.4" r="2" fill="#176c37" fill-opacity="0.9"/><circle cx="245.5" cy="200.4" r="2" fill="#176c37" fill-opacity="0.9"/><circle cx="249" cy="200.5" r="2" fill="#176c37" fill-opacity="0.9"/><circle cx="234" cy="201.9" r="2" fill="#176c37" fill-opacity="0.9"/><circle cx="244" cy="201.9" r="2" fill="#176c37" fill-opacity="0.9"/><circle cx="232" cy="201.9" r="2" fill="#176c37" fill-opacity="0.9"/><circle cx="235.5" cy="171.5" r="2" fill="#176c37" fill-opacity="0.9"/><circle cx="238.5" cy="171.8" r="2" fill="#176c37" fill-opacity="0.9"/><circle cx="242" cy="172.4" r="2" fill="#176c37" fill-opacity="0.9"/><line x1="321.75" y1="95.7" x2="321.75" y2="201.9" stroke="#137a3d" stroke-width="2"/><line x1="311.75" y1="95.7" x2="331.75" y2="95.7" stroke="#137a3d" stroke-width="2"/><line x1="311.75" y1="201.9" x2="331.75" y2="201.9" stroke="#137a3d" stroke-width="2"/><rect x="304.75" y="122.5" width="34" height="76.4" rx="4" fill="#137a3d" fill-opacity="0.18" stroke="#137a3d" stroke-width="2"/><line x1="304.75" y1="145.8" x2="338.75" y2="145.8" stroke="#137a3d" stroke-width="3"/><text x="321.75" y="230" text-anchor="middle" font-family="Inter,Segoe UI,Arial,sans-serif" font-size="9" fill="#111827">ax_engine + n-gram</text><text x="321.75" y="246" text-anchor="middle" font-family="Inter,Segoe UI,Arial,sans-serif" font-size="10" fill="#6b7280">med 263</text><circle cx="313.25" cy="95.7" r="2" fill="#0b4f28" fill-opacity="0.9"/><circle cx="316.75" cy="97.7" r="2" fill="#0b4f28" fill-opacity="0.9"/><circle cx="319.75" cy="105.1" r="2" fill="#0b4f28" fill-opacity="0.9"/><circle cx="323.25" cy="114.9" r="2" fill="#0b4f28" fill-opacity="0.9"/><circle cx="326.75" cy="115.8" r="2" fill="#0b4f28" fill-opacity="0.9"/><circle cx="330.25" cy="121.5" r="2" fill="#0b4f28" fill-opacity="0.9"/><circle cx="315.25" cy="121.8" r="2" fill="#0b4f28" fill-opacity="0.9"/><circle cx="325.25" cy="122.8" r="2" fill="#0b4f28" fill-opacity="0.9"/><circle cx="313.25" cy="127.4" r="2" fill="#0b4f28" fill-opacity="0.9"/><circle cx="316.75" cy="117.7" r="2" fill="#0b4f28" fill-opacity="0.9"/><circle cx="319.75" cy="118.4" r="2" fill="#0b4f28" fill-opacity="0.9"/><circle cx="323.25" cy="123.7" r="2" fill="#0b4f28" fill-opacity="0.9"/><circle cx="326.75" cy="135.0" r="2" fill="#0b4f28" fill-opacity="0.9"/><circle cx="330.25" cy="136.9" r="2" fill="#0b4f28" fill-opacity="0.9"/><circle cx="315.25" cy="139.6" r="2" fill="#0b4f28" fill-opacity="0.9"/><circle cx="325.25" cy="173.8" r="2" fill="#0b4f28" fill-opacity="0.9"/><circle cx="313.25" cy="161.5" r="2" fill="#0b4f28" fill-opacity="0.9"/><circle cx="316.75" cy="152.1" r="2" fill="#0b4f28" fill-opacity="0.9"/><circle cx="319.75" cy="192.5" r="2" fill="#0b4f28" fill-opacity="0.9"/><circle cx="323.25" cy="192.8" r="2" fill="#0b4f28" fill-opacity="0.9"/><circle cx="326.75" cy="193.4" r="2" fill="#0b4f28" fill-opacity="0.9"/><circle cx="330.25" cy="198.6" r="2" fill="#0b4f28" fill-opacity="0.9"/><circle cx="315.25" cy="198.6" r="2" fill="#0b4f28" fill-opacity="0.9"/><circle cx="325.25" cy="198.7" r="2" fill="#0b4f28" fill-opacity="0.9"/><circle cx="313.25" cy="199.8" r="2" fill="#0b4f28" fill-opacity="0.9"/><circle cx="316.75" cy="199.8" r="2" fill="#0b4f28" fill-opacity="0.9"/><circle cx="319.75" cy="199.9" r="2" fill="#0b4f28" fill-opacity="0.9"/><circle cx="323.25" cy="200.5" r="2" fill="#0b4f28" fill-opacity="0.9"/><circle cx="326.75" cy="200.5" r="2" fill="#0b4f28" fill-opacity="0.9"/><circle cx="330.25" cy="200.5" r="2" fill="#0b4f28" fill-opacity="0.9"/><circle cx="315.25" cy="201.9" r="2" fill="#0b4f28" fill-opacity="0.9"/><circle cx="325.25" cy="201.9" r="2" fill="#0b4f28" fill-opacity="0.9"/><circle cx="313.25" cy="201.9" r="2" fill="#0b4f28" fill-opacity="0.9"/><circle cx="316.75" cy="128.2" r="2" fill="#0b4f28" fill-opacity="0.9"/><circle cx="319.75" cy="129.2" r="2" fill="#0b4f28" fill-opacity="0.9"/><circle cx="323.25" cy="133.3" r="2" fill="#0b4f28" fill-opacity="0.9"/></svg>
