<svg xmlns="http://www.w3.org/2000/svg" width="460" height="276" viewBox="0 0 460 276" role="img" aria-labelledby="title desc"><title>Decode rate - 512 tok</title><desc>Box-and-Whisker Plot comparing llama.cpp, mlx_lm, ax_engine, ax_engine + n-gram at 512 prompt tokens across README benchmark rows on a linear y-axis. A red dotted horizontal line marks the highest median in this chart.</desc><rect width="460" height="276" fill="#ffffff"/><text x="52" y="22" font-family="Inter,Segoe UI,Arial,sans-serif" font-size="16" font-weight="700" fill="#111827">Decode rate - 512 tok</text><text x="52" y="40" font-family="Inter,Segoe UI,Arial,sans-serif" font-size="10" fill="#6b7280">AX n-gram is the default policy</text><text x="442" y="22" text-anchor="end" font-family="Inter,Segoe UI,Arial,sans-serif" font-size="10" fill="#6b7280">tok/s</text><text x="442" y="40" text-anchor="end" font-family="Inter,Segoe UI,Arial,sans-serif" font-size="10" font-weight="700" fill="#374151">Higher is better</text><line x1="52" y1="206.0" x2="442" y2="206.0" stroke="#e5e7eb" stroke-width="1"/><text x="44" y="209.0" text-anchor="end" font-family="Inter,Segoe UI,Arial,sans-serif" font-size="10" fill="#6b7280">0</text><line x1="52" y1="126.0" x2="442" y2="126.0" stroke="#e5e7eb" stroke-width="1"/><text x="44" y="129.0" text-anchor="end" font-family="Inter,Segoe UI,Arial,sans-serif" font-size="10" fill="#6b7280">375</text><line x1="52" y1="46.0" x2="442" y2="46.0" stroke="#e5e7eb" stroke-width="1"/><text x="44" y="49.0" text-anchor="end" font-family="Inter,Segoe UI,Arial,sans-serif" font-size="10" fill="#6b7280">750</text><line x1="52" y1="162.1" x2="442" y2="162.1" stroke="#dc2626" stroke-width="1.2" stroke-dasharray="1 4" stroke-linecap="round"/><line x1="100.75" y1="169.4" x2="100.75" y2="202.3" stroke="#f97316" stroke-width="1.7"/><line x1="88.51" y1="169.4" x2="112.99" y2="169.4" stroke="#f97316" stroke-width="1.7"/><line x1="88.51" y1="202.3" x2="112.99" y2="202.3" stroke="#f97316" stroke-width="1.7"/><rect x="83.75" y="175.3" width="34" height="26.1" rx="3" fill="#f97316" fill-opacity="0.18" stroke="#f97316" stroke-width="1.7"/><line x1="83.75" y1="182.7" x2="117.75" y2="182.7" stroke="#f97316" stroke-width="2.4"/><text x="100.75" y="226" text-anchor="middle" font-family="Inter,Segoe UI,Arial,sans-serif" font-size="9" fill="#111827">llama.cpp</text><text x="100.75" y="242" text-anchor="middle" font-family="Inter,Segoe UI,Arial,sans-serif" font-size="9" fill="#6b7280">med 109.1</text><circle cx="92.59" cy="169.4" r="1.5" fill="#c2410c" fill-opacity="0.9"/><circle cx="96.67" cy="172.1" r="1.5" fill="#c2410c" fill-opacity="0.9"/><circle cx="100.75" cy="173.4" r="1.5" fill="#c2410c" fill-opacity="0.9"/><circle cx="104.83" cy="176.0" r="1.5" fill="#c2410c" fill-opacity="0.9"/><circle cx="108.91" cy="182.5" r="1.5" fill="#c2410c" fill-opacity="0.9"/><circle cx="92.59" cy="182.0" r="1.5" fill="#c2410c" fill-opacity="0.9"/><circle cx="96.67" cy="200.8" r="1.5" fill="#c2410c" fill-opacity="0.9"/><circle cx="100.75" cy="201.4" r="1.5" fill="#c2410c" fill-opacity="0.9"/><circle cx="104.83" cy="201.6" r="1.5" fill="#c2410c" fill-opacity="0.9"/><circle cx="108.91" cy="201.9" r="1.5" fill="#c2410c" fill-opacity="0.9"/><circle cx="92.59" cy="202.3" r="1.5" fill="#c2410c" fill-opacity="0.9"/><circle cx="96.67" cy="183.0" r="1.5" fill="#c2410c" fill-opacity="0.9"/><line x1="198.25" y1="161.1" x2="198.25" y2="202.0" stroke="#f2b705" stroke-width="1.7"/><line x1="186.01" y1="161.1" x2="210.49" y2="161.1" stroke="#f2b705" stroke-width="1.7"/><line x1="186.01" y1="202.0" x2="210.49" y2="202.0" stroke="#f2b705" stroke-width="1.7"/><rect x="181.25" y="173.3" width="34" height="26.6" rx="3" fill="#f2b705" fill-opacity="0.18" stroke="#f2b705" stroke-width="1.7"/><line x1="181.25" y1="178.4" x2="215.25" y2="178.4" stroke="#f2b705" stroke-width="2.4"/><text x="198.25" y="226" text-anchor="middle" font-family="Inter,Segoe UI,Arial,sans-serif" font-size="9" fill="#111827">mlx_lm</text><text x="198.25" y="242" text-anchor="middle" font-family="Inter,Segoe UI,Arial,sans-serif" font-size="9" fill="#6b7280">med 129.3</text><circle cx="190.09" cy="161.1" r="1.5" fill="#9a6a00" fill-opacity="0.9"/><circle cx="194.17" cy="167.2" r="1.5" fill="#9a6a00" fill-opacity="0.9"/><circle cx="198.25" cy="170.5" r="1.5" fill="#9a6a00" fill-opacity="0.9"/><circle cx="202.33" cy="174.3" r="1.5" fill="#9a6a00" fill-opacity="0.9"/><circle cx="206.41" cy="177.5" r="1.5" fill="#9a6a00" fill-opacity="0.9"/><circle cx="190.09" cy="179.3" r="1.5" fill="#9a6a00" fill-opacity="0.9"/><circle cx="194.17" cy="200.0" r="1.5" fill="#9a6a00" fill-opacity="0.9"/><circle cx="198.25" cy="198.8" r="1.5" fill="#9a6a00" fill-opacity="0.9"/><circle cx="202.33" cy="200.0" r="1.5" fill="#9a6a00" fill-opacity="0.9"/><circle cx="206.41" cy="200.7" r="1.5" fill="#9a6a00" fill-opacity="0.9"/><circle cx="190.09" cy="202.0" r="1.5" fill="#9a6a00" fill-opacity="0.9"/><circle cx="194.17" cy="176.9" r="1.5" fill="#9a6a00" fill-opacity="0.9"/><line x1="295.75" y1="158.7" x2="295.75" y2="202.1" stroke="#2eaf5f" stroke-width="1.7"/><line x1="283.51" y1="158.7" x2="307.99" y2="158.7" stroke="#2eaf5f" stroke-width="1.7"/><line x1="283.51" y1="202.1" x2="307.99" y2="202.1" stroke="#2eaf5f" stroke-width="1.7"/><rect x="278.75" y="171.4" width="34" height="28.7" rx="3" fill="#2eaf5f" fill-opacity="0.18" stroke="#2eaf5f" stroke-width="1.7"/><line x1="278.75" y1="177.6" x2="312.75" y2="177.6" stroke="#2eaf5f" stroke-width="2.4"/><text x="295.75" y="226" text-anchor="middle" font-family="Inter,Segoe UI,Arial,sans-serif" font-size="9" fill="#111827">ax_engine</text><text x="295.75" y="242" text-anchor="middle" font-family="Inter,Segoe UI,Arial,sans-serif" font-size="9" fill="#6b7280">med 133.1</text><circle cx="287.59" cy="158.7" r="1.5" fill="#176c37" fill-opacity="0.9"/><circle cx="291.67" cy="163.5" r="1.5" fill="#176c37" fill-opacity="0.9"/><circle cx="295.75" cy="168.5" r="1.5" fill="#176c37" fill-opacity="0.9"/><circle cx="299.83" cy="173.0" r="1.5" fill="#176c37" fill-opacity="0.9"/><circle cx="303.91" cy="176.7" r="1.5" fill="#176c37" fill-opacity="0.9"/><circle cx="287.59" cy="178.5" r="1.5" fill="#176c37" fill-opacity="0.9"/><circle cx="291.67" cy="200.1" r="1.5" fill="#176c37" fill-opacity="0.9"/><circle cx="295.75" cy="198.9" r="1.5" fill="#176c37" fill-opacity="0.9"/><circle cx="299.83" cy="200.3" r="1.5" fill="#176c37" fill-opacity="0.9"/><circle cx="303.91" cy="200.8" r="1.5" fill="#176c37" fill-opacity="0.9"/><circle cx="287.59" cy="202.1" r="1.5" fill="#176c37" fill-opacity="0.9"/><circle cx="291.67" cy="172.4" r="1.5" fill="#176c37" fill-opacity="0.9"/><line x1="393.25" y1="93.8" x2="393.25" y2="202.1" stroke="#137a3d" stroke-width="1.7"/><line x1="381.01" y1="93.8" x2="405.49" y2="93.8" stroke="#137a3d" stroke-width="1.7"/><line x1="381.01" y1="202.1" x2="405.49" y2="202.1" stroke="#137a3d" stroke-width="1.7"/><rect x="376.25" y="122.9" width="34" height="76.3" rx="3" fill="#137a3d" fill-opacity="0.18" stroke="#137a3d" stroke-width="1.7"/><line x1="376.25" y1="162.1" x2="410.25" y2="162.1" stroke="#137a3d" stroke-width="2.4"/><text x="393.25" y="226" text-anchor="middle" font-family="Inter,Segoe UI,Arial,sans-serif" font-size="9" fill="#111827">ax_engine + n-gram</text><text x="393.25" y="242" text-anchor="middle" font-family="Inter,Segoe UI,Arial,sans-serif" font-size="9" fill="#6b7280">med 205.6</text><circle cx="385.09" cy="93.8" r="1.5" fill="#0b4f28" fill-opacity="0.9"/><circle cx="389.17" cy="116.1" r="1.5" fill="#0b4f28" fill-opacity="0.9"/><circle cx="393.25" cy="123.6" r="1.5" fill="#0b4f28" fill-opacity="0.9"/><circle cx="397.33" cy="120.8" r="1.5" fill="#0b4f28" fill-opacity="0.9"/><circle cx="401.41" cy="138.9" r="1.5" fill="#0b4f28" fill-opacity="0.9"/><circle cx="385.09" cy="151.9" r="1.5" fill="#0b4f28" fill-opacity="0.9"/><circle cx="389.17" cy="193.5" r="1.5" fill="#0b4f28" fill-opacity="0.9"/><circle cx="393.25" cy="198.9" r="1.5" fill="#0b4f28" fill-opacity="0.9"/><circle cx="397.33" cy="200.1" r="1.5" fill="#0b4f28" fill-opacity="0.9"/><circle cx="401.41" cy="200.8" r="1.5" fill="#0b4f28" fill-opacity="0.9"/><circle cx="385.09" cy="202.1" r="1.5" fill="#0b4f28" fill-opacity="0.9"/><circle cx="389.17" cy="172.4" r="1.5" fill="#0b4f28" fill-opacity="0.9"/></svg>
