<svg xmlns="http://www.w3.org/2000/svg" width="540" height="278" viewBox="0 0 540 278" role="img" aria-labelledby="title desc"><title>Gemma 4 — TTFT</title><desc>Grouped box-and-whisker plot comparing llama.cpp, mlx_lm, ax_engine at 128/512/2048 prompt tokens for Gemma 4 models. A red dotted line marks the lowest median.</desc><rect width="540" height="278" fill="#ffffff"/><text x="52" y="22" font-family="Inter,Segoe UI,Arial,sans-serif" font-size="16" font-weight="700" fill="#111827">Gemma 4 — TTFT</text><text x="524" y="22" text-anchor="end" font-family="Inter,Segoe UI,Arial,sans-serif" font-size="10" fill="#6b7280">ms</text><text x="524" y="40" text-anchor="end" font-family="Inter,Segoe UI,Arial,sans-serif" font-size="10" font-weight="700" fill="#374151">Lower is better</text><line x1="52" y1="214.0" x2="524" y2="214.0" stroke="#e5e7eb" stroke-width="1"/><text x="44" y="217.0" text-anchor="end" font-family="Inter,Segoe UI,Arial,sans-serif" font-size="10" fill="#6b7280">0</text><line x1="52" y1="130.0" x2="524" y2="130.0" stroke="#e5e7eb" stroke-width="1"/><text x="44" y="133.0" text-anchor="end" font-family="Inter,Segoe UI,Arial,sans-serif" font-size="10" fill="#6b7280">2.5k</text><line x1="52" y1="46.0" x2="524" y2="46.0" stroke="#e5e7eb" stroke-width="1"/><text x="44" y="49.0" text-anchor="end" font-family="Inter,Segoe UI,Arial,sans-serif" font-size="10" fill="#6b7280">5k</text><line x1="52" y1="212.7" x2="524" y2="212.7" stroke="#dc2626" stroke-width="1.2" stroke-dasharray="1 4" stroke-linecap="round"/><line x1="100.667" y1="205.8" x2="100.667" y2="212.9" stroke="#f97316" stroke-opacity="0.55" stroke-width="1.7"/><line x1="94.9067" y1="205.8" x2="106.427" y2="205.8" stroke="#f97316" stroke-opacity="0.55" stroke-width="1.7"/><line x1="94.9067" y1="212.9" x2="106.427" y2="212.9" stroke="#f97316" stroke-opacity="0.55" stroke-width="1.7"/><rect x="92.6667" y="212.0" width="16" height="1.0" rx="2" fill="#f97316" fill-opacity="0.08" stroke="#f97316" stroke-opacity="0.55" stroke-width="1.7"/><line x1="92.6667" y1="212.7" x2="108.667" y2="212.7" stroke="#f97316" stroke-opacity="0.55" stroke-width="2.4"/><text x="100.667" y="229" text-anchor="middle" font-family="Inter,Segoe UI,Arial,sans-serif" font-size="8" fill="#6b7280">128</text><circle cx="97.6667" cy="212.9" r="1.4" fill="#c2410c" fill-opacity="0.5"/><circle cx="99.1667" cy="212.7" r="1.4" fill="#c2410c" fill-opacity="0.5"/><circle cx="100.667" cy="212.8" r="1.4" fill="#c2410c" fill-opacity="0.5"/><circle cx="102.167" cy="212.8" r="1.4" fill="#c2410c" fill-opacity="0.5"/><circle cx="103.667" cy="212.1" r="1.4" fill="#c2410c" fill-opacity="0.5"/><circle cx="97.6667" cy="211.8" r="1.4" fill="#c2410c" fill-opacity="0.5"/><circle cx="99.1667" cy="205.8" r="1.4" fill="#c2410c" fill-opacity="0.5"/><line x1="130.667" y1="188.3" x2="130.667" y2="211.7" stroke="#f97316" stroke-opacity="0.78" stroke-width="1.7"/><line x1="124.907" y1="188.3" x2="136.427" y2="188.3" stroke="#f97316" stroke-opacity="0.78" stroke-width="1.7"/><line x1="124.907" y1="211.7" x2="136.427" y2="211.7" stroke="#f97316" stroke-opacity="0.78" stroke-width="1.7"/><rect x="122.667" y="209.6" width="16" height="2.0" rx="2" fill="#f97316" fill-opacity="0.17" stroke="#f97316" stroke-opacity="0.78" stroke-width="1.7"/><line x1="122.667" y1="211.6" x2="138.667" y2="211.6" stroke="#f97316" stroke-opacity="0.78" stroke-width="2.4"/><text x="130.667" y="229" text-anchor="middle" font-family="Inter,Segoe UI,Arial,sans-serif" font-size="8" fill="#6b7280">512</text><circle cx="127.667" cy="211.6" r="1.4" fill="#c2410c" fill-opacity="0.7"/><circle cx="129.167" cy="211.6" r="1.4" fill="#c2410c" fill-opacity="0.7"/><circle cx="130.667" cy="211.6" r="1.4" fill="#c2410c" fill-opacity="0.7"/><circle cx="132.167" cy="211.7" r="1.4" fill="#c2410c" fill-opacity="0.7"/><circle cx="133.667" cy="210.1" r="1.4" fill="#c2410c" fill-opacity="0.7"/><circle cx="127.667" cy="209.1" r="1.4" fill="#c2410c" fill-opacity="0.7"/><circle cx="129.167" cy="188.3" r="1.4" fill="#c2410c" fill-opacity="0.7"/><line x1="160.667" y1="83.0" x2="160.667" y2="205.4" stroke="#f97316" stroke-opacity="1.0" stroke-width="1.7"/><line x1="154.907" y1="83.0" x2="166.427" y2="83.0" stroke="#f97316" stroke-opacity="1.0" stroke-width="1.7"/><line x1="154.907" y1="205.4" x2="166.427" y2="205.4" stroke="#f97316" stroke-opacity="1.0" stroke-width="1.7"/><rect x="152.667" y="196.7" width="16" height="8.3" rx="2" fill="#f97316" fill-opacity="0.3" stroke="#f97316" stroke-opacity="1.0" stroke-width="1.7"/><line x1="152.667" y1="204.8" x2="168.667" y2="204.8" stroke="#f97316" stroke-opacity="1.0" stroke-width="2.4"/><text x="160.667" y="229" text-anchor="middle" font-family="Inter,Segoe UI,Arial,sans-serif" font-size="8" fill="#6b7280">2048</text><circle cx="157.667" cy="205.0" r="1.4" fill="#c2410c" fill-opacity="0.9"/><circle cx="159.167" cy="204.8" r="1.4" fill="#c2410c" fill-opacity="0.9"/><circle cx="160.667" cy="205.0" r="1.4" fill="#c2410c" fill-opacity="0.9"/><circle cx="162.167" cy="205.4" r="1.4" fill="#c2410c" fill-opacity="0.9"/><circle cx="163.667" cy="198.4" r="1.4" fill="#c2410c" fill-opacity="0.9"/><circle cx="157.667" cy="194.9" r="1.4" fill="#c2410c" fill-opacity="0.9"/><circle cx="159.167" cy="83.0" r="1.4" fill="#c2410c" fill-opacity="0.9"/><text x="130.667" y="246" text-anchor="middle" font-family="Inter,Segoe UI,Arial,sans-serif" font-size="9" font-weight="700" fill="#111827">llama.cpp</text><line x1="258" y1="198.8" x2="258" y2="212.2" stroke="#f2b705" stroke-opacity="0.55" stroke-width="1.7"/><line x1="252.24" y1="198.8" x2="263.76" y2="198.8" stroke="#f2b705" stroke-opacity="0.55" stroke-width="1.7"/><line x1="252.24" y1="212.2" x2="263.76" y2="212.2" stroke="#f2b705" stroke-opacity="0.55" stroke-width="1.7"/><rect x="250" y="208.2" width="16" height="3.6" rx="2" fill="#f2b705" fill-opacity="0.08" stroke="#f2b705" stroke-opacity="0.55" stroke-width="1.7"/><line x1="250" y1="211.3" x2="266" y2="211.3" stroke="#f2b705" stroke-opacity="0.55" stroke-width="2.4"/><text x="258" y="229" text-anchor="middle" font-family="Inter,Segoe UI,Arial,sans-serif" font-size="8" fill="#6b7280">128</text><circle cx="255" cy="212.2" r="1.4" fill="#9a6a00" fill-opacity="0.5"/><circle cx="256.5" cy="212.1" r="1.4" fill="#9a6a00" fill-opacity="0.5"/><circle cx="258" cy="211.6" r="1.4" fill="#9a6a00" fill-opacity="0.5"/><circle cx="259.5" cy="211.3" r="1.4" fill="#9a6a00" fill-opacity="0.5"/><circle cx="261" cy="211.2" r="1.4" fill="#9a6a00" fill-opacity="0.5"/><circle cx="255" cy="205.3" r="1.4" fill="#9a6a00" fill-opacity="0.5"/><circle cx="256.5" cy="198.8" r="1.4" fill="#9a6a00" fill-opacity="0.5"/><line x1="288" y1="186.2" x2="288" y2="211.8" stroke="#f2b705" stroke-opacity="0.78" stroke-width="1.7"/><line x1="282.24" y1="186.2" x2="293.76" y2="186.2" stroke="#f2b705" stroke-opacity="0.78" stroke-width="1.7"/><line x1="282.24" y1="211.8" x2="293.76" y2="211.8" stroke="#f2b705" stroke-opacity="0.78" stroke-width="1.7"/><rect x="280" y="206.6" width="16" height="4.8" rx="2" fill="#f2b705" fill-opacity="0.17" stroke="#f2b705" stroke-opacity="0.78" stroke-width="1.7"/><line x1="280" y1="211.2" x2="296" y2="211.2" stroke="#f2b705" stroke-opacity="0.78" stroke-width="2.4"/><text x="288" y="229" text-anchor="middle" font-family="Inter,Segoe UI,Arial,sans-serif" font-size="8" fill="#6b7280">512</text><circle cx="285" cy="211.8" r="1.4" fill="#9a6a00" fill-opacity="0.7"/><circle cx="286.5" cy="211.7" r="1.4" fill="#9a6a00" fill-opacity="0.7"/><circle cx="288" cy="211.2" r="1.4" fill="#9a6a00" fill-opacity="0.7"/><circle cx="289.5" cy="211.3" r="1.4" fill="#9a6a00" fill-opacity="0.7"/><circle cx="291" cy="209.9" r="1.4" fill="#9a6a00" fill-opacity="0.7"/><circle cx="285" cy="203.4" r="1.4" fill="#9a6a00" fill-opacity="0.7"/><circle cx="286.5" cy="186.2" r="1.4" fill="#9a6a00" fill-opacity="0.7"/><line x1="318" y1="120.2" x2="318" y2="210.2" stroke="#f2b705" stroke-opacity="1.0" stroke-width="1.7"/><line x1="312.24" y1="120.2" x2="323.76" y2="120.2" stroke="#f2b705" stroke-opacity="1.0" stroke-width="1.7"/><line x1="312.24" y1="210.2" x2="323.76" y2="210.2" stroke="#f2b705" stroke-opacity="1.0" stroke-width="1.7"/><rect x="310" y="198.9" width="16" height="10.8" rx="2" fill="#f2b705" fill-opacity="0.3" stroke="#f2b705" stroke-opacity="1.0" stroke-width="1.7"/><line x1="310" y1="209.5" x2="326" y2="209.5" stroke="#f2b705" stroke-opacity="1.0" stroke-width="2.4"/><text x="318" y="229" text-anchor="middle" font-family="Inter,Segoe UI,Arial,sans-serif" font-size="8" fill="#6b7280">2048</text><circle cx="315" cy="210.2" r="1.4" fill="#9a6a00" fill-opacity="0.9"/><circle cx="316.5" cy="209.9" r="1.4" fill="#9a6a00" fill-opacity="0.9"/><circle cx="318" cy="209.5" r="1.4" fill="#9a6a00" fill-opacity="0.9"/><circle cx="319.5" cy="209.6" r="1.4" fill="#9a6a00" fill-opacity="0.9"/><circle cx="321" cy="204.6" r="1.4" fill="#9a6a00" fill-opacity="0.9"/><circle cx="315" cy="193.1" r="1.4" fill="#9a6a00" fill-opacity="0.9"/><circle cx="316.5" cy="120.2" r="1.4" fill="#9a6a00" fill-opacity="0.9"/><text x="288" y="246" text-anchor="middle" font-family="Inter,Segoe UI,Arial,sans-serif" font-size="9" font-weight="700" fill="#111827">mlx_lm</text><line x1="415.333" y1="207.0" x2="415.333" y2="212.9" stroke="#2eaf5f" stroke-opacity="0.55" stroke-width="1.7"/><line x1="409.573" y1="207.0" x2="421.093" y2="207.0" stroke="#2eaf5f" stroke-opacity="0.55" stroke-width="1.7"/><line x1="409.573" y1="212.9" x2="421.093" y2="212.9" stroke="#2eaf5f" stroke-opacity="0.55" stroke-width="1.7"/><rect x="407.333" y="211.8" width="16" height="1.0" rx="2" fill="#2eaf5f" fill-opacity="0.08" stroke="#2eaf5f" stroke-opacity="0.55" stroke-width="1.7"/><line x1="407.333" y1="212.7" x2="423.333" y2="212.7" stroke="#2eaf5f" stroke-opacity="0.55" stroke-width="2.4"/><text x="415.333" y="229" text-anchor="middle" font-family="Inter,Segoe UI,Arial,sans-serif" font-size="8" fill="#6b7280">128</text><circle cx="412.333" cy="212.9" r="1.4" fill="#176c37" fill-opacity="0.5"/><circle cx="413.833" cy="212.8" r="1.4" fill="#176c37" fill-opacity="0.5"/><circle cx="415.333" cy="212.8" r="1.4" fill="#176c37" fill-opacity="0.5"/><circle cx="416.833" cy="212.7" r="1.4" fill="#176c37" fill-opacity="0.5"/><circle cx="418.333" cy="212.5" r="1.4" fill="#176c37" fill-opacity="0.5"/><circle cx="412.333" cy="211.2" r="1.4" fill="#176c37" fill-opacity="0.5"/><circle cx="413.833" cy="207.0" r="1.4" fill="#176c37" fill-opacity="0.5"/><line x1="445.333" y1="192.3" x2="445.333" y2="212.2" stroke="#2eaf5f" stroke-opacity="0.78" stroke-width="1.7"/><line x1="439.573" y1="192.3" x2="451.093" y2="192.3" stroke="#2eaf5f" stroke-opacity="0.78" stroke-width="1.7"/><line x1="439.573" y1="212.2" x2="451.093" y2="212.2" stroke="#2eaf5f" stroke-opacity="0.78" stroke-width="1.7"/><rect x="437.333" y="209.6" width="16" height="2.5" rx="2" fill="#2eaf5f" fill-opacity="0.17" stroke="#2eaf5f" stroke-opacity="0.78" stroke-width="1.7"/><line x1="437.333" y1="212.1" x2="453.333" y2="212.1" stroke="#2eaf5f" stroke-opacity="0.78" stroke-width="2.4"/><text x="445.333" y="229" text-anchor="middle" font-family="Inter,Segoe UI,Arial,sans-serif" font-size="8" fill="#6b7280">512</text><circle cx="442.333" cy="212.2" r="1.4" fill="#176c37" fill-opacity="0.7"/><circle cx="443.833" cy="212.1" r="1.4" fill="#176c37" fill-opacity="0.7"/><circle cx="445.333" cy="212.1" r="1.4" fill="#176c37" fill-opacity="0.7"/><circle cx="446.833" cy="212.1" r="1.4" fill="#176c37" fill-opacity="0.7"/><circle cx="448.333" cy="210.6" r="1.4" fill="#176c37" fill-opacity="0.7"/><circle cx="442.333" cy="208.5" r="1.4" fill="#176c37" fill-opacity="0.7"/><circle cx="443.833" cy="192.3" r="1.4" fill="#176c37" fill-opacity="0.7"/><line x1="475.333" y1="124.6" x2="475.333" y2="211.2" stroke="#2eaf5f" stroke-opacity="1.0" stroke-width="1.7"/><line x1="469.573" y1="124.6" x2="481.093" y2="124.6" stroke="#2eaf5f" stroke-opacity="1.0" stroke-width="1.7"/><line x1="469.573" y1="211.2" x2="481.093" y2="211.2" stroke="#2eaf5f" stroke-opacity="1.0" stroke-width="1.7"/><rect x="467.333" y="202.6" width="16" height="8.4" rx="2" fill="#2eaf5f" fill-opacity="0.3" stroke="#2eaf5f" stroke-opacity="1.0" stroke-width="1.7"/><line x1="467.333" y1="211.0" x2="483.333" y2="211.0" stroke="#2eaf5f" stroke-opacity="1.0" stroke-width="2.4"/><text x="475.333" y="229" text-anchor="middle" font-family="Inter,Segoe UI,Arial,sans-serif" font-size="8" fill="#6b7280">2048</text><circle cx="472.333" cy="211.2" r="1.4" fill="#176c37" fill-opacity="0.9"/><circle cx="473.833" cy="211.1" r="1.4" fill="#176c37" fill-opacity="0.9"/><circle cx="475.333" cy="211.0" r="1.4" fill="#176c37" fill-opacity="0.9"/><circle cx="476.833" cy="211.0" r="1.4" fill="#176c37" fill-opacity="0.9"/><circle cx="478.333" cy="206.1" r="1.4" fill="#176c37" fill-opacity="0.9"/><circle cx="472.333" cy="199.1" r="1.4" fill="#176c37" fill-opacity="0.9"/><circle cx="473.833" cy="124.6" r="1.4" fill="#176c37" fill-opacity="0.9"/><text x="445.333" y="246" text-anchor="middle" font-family="Inter,Segoe UI,Arial,sans-serif" font-size="9" font-weight="700" fill="#111827">ax_engine</text></svg>
