<svg xmlns="http://www.w3.org/2000/svg" width="900" height="460" viewBox="0 0 900 460" role="img" aria-labelledby="title desc">
<title>Qwen3.6 27B 4-bit MTP prefill throughput</title>
<desc>Grouped box-and-whisker plot comparing MTPLX 0.3.7, AX Engine v5.2.2, AX+ngram v5.2.2.</desc>
<rect width="100%" height="100%" fill="#f8fafc"/>
<text x="24" y="24" font-family="Inter,Segoe UI,Arial,sans-serif" font-size="16" font-weight="700" fill="#111827">Qwen3.6 27B 4-bit MTP prefill throughput</text>
<text x="24" y="46" font-family="Inter,Segoe UI,Arial,sans-serif" font-size="11" fill="#4b5563">All suites combined | box=IQR | dots=runs</text>
<text x="24" y="62" font-family="Inter,Segoe UI,Arial,sans-serif" font-size="10" fill="#6b7280">MTPLX 0.3.7 · AX Engine v5.2.2</text>
<rect x="807" y="13" width="59" height="22" rx="11" fill="#eef2ff" stroke="#c7d2fe"/>
<text x="836.5" y="28" text-anchor="middle" font-family="Inter,Segoe UI,Arial,sans-serif" font-size="10" font-weight="700" fill="#3730a3">tok/s</text>
<text x="866" y="52" text-anchor="end" font-family="Inter,Segoe UI,Arial,sans-serif" font-size="10" font-weight="700" fill="#374151">Higher is better</text>
<rect x="64" y="86" width="676" height="268" rx="6" fill="#ffffff" stroke="#dbe3ef"/>
<line x1="64" y1="354.0" x2="740" y2="354.0" stroke="#e5e7eb" stroke-width="1"/>
<text x="56" y="357.0" text-anchor="end" font-family="Inter,Segoe UI,Arial,sans-serif" font-size="11" fill="#6b7280">0.0</text>
<line x1="64" y1="287.0" x2="740" y2="287.0" stroke="#e5e7eb" stroke-width="1"/>
<text x="56" y="290.0" text-anchor="end" font-family="Inter,Segoe UI,Arial,sans-serif" font-size="11" fill="#6b7280">250</text>
<line x1="64" y1="220.0" x2="740" y2="220.0" stroke="#e5e7eb" stroke-width="1"/>
<text x="56" y="223.0" text-anchor="end" font-family="Inter,Segoe UI,Arial,sans-serif" font-size="11" fill="#6b7280">500</text>
<line x1="64" y1="153.0" x2="740" y2="153.0" stroke="#e5e7eb" stroke-width="1"/>
<text x="56" y="156.0" text-anchor="end" font-family="Inter,Segoe UI,Arial,sans-serif" font-size="11" fill="#6b7280">750</text>
<line x1="64" y1="86.0" x2="740" y2="86.0" stroke="#e5e7eb" stroke-width="1"/>
<text x="56" y="89.0" text-anchor="end" font-family="Inter,Segoe UI,Arial,sans-serif" font-size="11" fill="#6b7280">1k</text>
<line x1="64" y1="164.5" x2="740" y2="164.5" stroke="#dc2626" stroke-width="1.2" stroke-dasharray="1 4" stroke-linecap="round"/>
<text x="748" y="159.5" text-anchor="start" font-family="Inter,Segoe UI,Arial,sans-serif" font-size="11" font-weight="700" fill="#dc2626" data-label="highest median">highest: 707</text>
<text x="402.0" y="398" text-anchor="middle" font-family="Inter,Segoe UI,Arial,sans-serif" font-size="11" font-weight="700" fill="#111827">all suites</text>
<circle cx="127.8" cy="191.5" r="1.45" fill="#14532d" fill-opacity="0.46"/>
<circle cx="130.8" cy="191.4" r="1.45" fill="#14532d" fill-opacity="0.46"/>
<circle cx="133.9" cy="189.0" r="1.45" fill="#14532d" fill-opacity="0.46"/>
<circle cx="136.9" cy="185.6" r="1.45" fill="#14532d" fill-opacity="0.46"/>
<circle cx="140.0" cy="190.9" r="1.45" fill="#14532d" fill-opacity="0.46"/>
<circle cx="143.1" cy="161.7" r="1.45" fill="#14532d" fill-opacity="0.46"/>
<circle cx="146.1" cy="158.3" r="1.45" fill="#14532d" fill-opacity="0.46"/>
<circle cx="149.2" cy="149.8" r="1.45" fill="#14532d" fill-opacity="0.46"/>
<circle cx="152.2" cy="153.9" r="1.45" fill="#14532d" fill-opacity="0.46"/>
<circle cx="127.8" cy="156.1" r="1.45" fill="#14532d" fill-opacity="0.46"/>
<circle cx="130.8" cy="152.6" r="1.45" fill="#14532d" fill-opacity="0.46"/>
<circle cx="133.9" cy="152.8" r="1.45" fill="#14532d" fill-opacity="0.46"/>
<circle cx="136.9" cy="158.7" r="1.45" fill="#14532d" fill-opacity="0.46"/>
<circle cx="140.0" cy="149.9" r="1.45" fill="#14532d" fill-opacity="0.46"/>
<circle cx="143.1" cy="154.3" r="1.45" fill="#14532d" fill-opacity="0.46"/>
<circle cx="146.1" cy="195.7" r="1.45" fill="#14532d" fill-opacity="0.46"/>
<circle cx="149.2" cy="192.7" r="1.45" fill="#14532d" fill-opacity="0.46"/>
<circle cx="152.2" cy="192.3" r="1.45" fill="#14532d" fill-opacity="0.46"/>
<circle cx="127.8" cy="191.6" r="1.45" fill="#14532d" fill-opacity="0.46"/>
<circle cx="130.8" cy="194.3" r="1.45" fill="#14532d" fill-opacity="0.46"/>
<circle cx="133.9" cy="139.7" r="1.45" fill="#14532d" fill-opacity="0.46"/>
<circle cx="136.9" cy="141.5" r="1.45" fill="#14532d" fill-opacity="0.46"/>
<circle cx="140.0" cy="139.6" r="1.45" fill="#14532d" fill-opacity="0.46"/>
<circle cx="143.1" cy="136.2" r="1.45" fill="#14532d" fill-opacity="0.46"/>
<circle cx="146.1" cy="141.7" r="1.45" fill="#14532d" fill-opacity="0.46"/>
<circle cx="149.2" cy="133.8" r="1.45" fill="#14532d" fill-opacity="0.46"/>
<circle cx="152.2" cy="133.6" r="1.45" fill="#14532d" fill-opacity="0.46"/>
<circle cx="127.8" cy="134.6" r="1.45" fill="#14532d" fill-opacity="0.46"/>
<circle cx="130.8" cy="133.8" r="1.45" fill="#14532d" fill-opacity="0.46"/>
<circle cx="133.9" cy="135.9" r="1.45" fill="#14532d" fill-opacity="0.46"/>
<circle cx="136.9" cy="145.1" r="1.45" fill="#14532d" fill-opacity="0.46"/>
<circle cx="140.0" cy="141.6" r="1.45" fill="#14532d" fill-opacity="0.46"/>
<circle cx="143.1" cy="142.1" r="1.45" fill="#14532d" fill-opacity="0.46"/>
<circle cx="146.1" cy="157.4" r="1.45" fill="#14532d" fill-opacity="0.46"/>
<circle cx="149.2" cy="145.5" r="1.45" fill="#14532d" fill-opacity="0.46"/>
<circle cx="152.2" cy="169.0" r="1.45" fill="#14532d" fill-opacity="0.46"/>
<circle cx="127.8" cy="161.9" r="1.45" fill="#14532d" fill-opacity="0.46"/>
<circle cx="130.8" cy="164.5" r="1.45" fill="#14532d" fill-opacity="0.46"/>
<circle cx="133.9" cy="159.4" r="1.45" fill="#14532d" fill-opacity="0.46"/>
<circle cx="136.9" cy="169.7" r="1.45" fill="#14532d" fill-opacity="0.46"/>
<circle cx="140.0" cy="183.4" r="1.45" fill="#14532d" fill-opacity="0.46"/>
<circle cx="143.1" cy="182.3" r="1.45" fill="#14532d" fill-opacity="0.46"/>
<circle cx="146.1" cy="181.1" r="1.45" fill="#14532d" fill-opacity="0.46"/>
<circle cx="149.2" cy="182.9" r="1.45" fill="#14532d" fill-opacity="0.46"/>
<circle cx="152.2" cy="178.7" r="1.45" fill="#14532d" fill-opacity="0.46"/>
<circle cx="127.8" cy="168.2" r="1.45" fill="#14532d" fill-opacity="0.46"/>
<circle cx="130.8" cy="171.9" r="1.45" fill="#14532d" fill-opacity="0.46"/>
<circle cx="133.9" cy="165.4" r="1.45" fill="#14532d" fill-opacity="0.46"/>
<circle cx="136.9" cy="166.6" r="1.45" fill="#14532d" fill-opacity="0.46"/>
<circle cx="140.0" cy="176.9" r="1.45" fill="#14532d" fill-opacity="0.46"/>
<circle cx="143.1" cy="173.8" r="1.45" fill="#14532d" fill-opacity="0.46"/>
<circle cx="146.1" cy="179.5" r="1.45" fill="#14532d" fill-opacity="0.46"/>
<circle cx="149.2" cy="173.6" r="1.45" fill="#14532d" fill-opacity="0.46"/>
<circle cx="152.2" cy="175.8" r="1.45" fill="#14532d" fill-opacity="0.46"/>
<circle cx="127.8" cy="175.5" r="1.45" fill="#14532d" fill-opacity="0.46"/>
<line x1="140.0" y1="133.6" x2="140.0" y2="195.7" stroke="#14532d" stroke-opacity="0.82" stroke-width="1.8"/>
<line x1="127.8" y1="133.6" x2="152.2" y2="133.6" stroke="#14532d" stroke-opacity="0.82" stroke-width="1.8"/>
<line x1="127.8" y1="195.7" x2="152.2" y2="195.7" stroke="#14532d" stroke-opacity="0.82" stroke-width="1.8"/>
<rect x="123.0" y="147.7" width="34.0" height="32.7" rx="2" fill="#14532d" fill-opacity="0.18" stroke="#14532d" stroke-opacity="0.82" stroke-width="1.8"/>
<line x1="123.0" y1="164.5" x2="157.0" y2="164.5" stroke="#14532d" stroke-opacity="0.82" stroke-width="2.6"/>
<text x="163.0" y="168.5" text-anchor="start" font-family="Inter,Segoe UI,Arial,sans-serif" font-size="11" font-weight="700" fill="#111827" stroke="#ffffff" stroke-width="3" paint-order="stroke">707</text>
<circle cx="389.8" cy="186.0" r="1.45" fill="#f97316" fill-opacity="0.46"/>
<circle cx="392.8" cy="155.8" r="1.45" fill="#f97316" fill-opacity="0.46"/>
<circle cx="395.9" cy="150.9" r="1.45" fill="#f97316" fill-opacity="0.46"/>
<circle cx="398.9" cy="189.5" r="1.45" fill="#f97316" fill-opacity="0.46"/>
<circle cx="402.0" cy="142.3" r="1.45" fill="#f97316" fill-opacity="0.46"/>
<circle cx="405.1" cy="140.2" r="1.45" fill="#f97316" fill-opacity="0.46"/>
<circle cx="408.1" cy="149.1" r="1.45" fill="#f97316" fill-opacity="0.46"/>
<circle cx="411.2" cy="165.8" r="1.45" fill="#f97316" fill-opacity="0.46"/>
<circle cx="414.2" cy="186.7" r="1.45" fill="#f97316" fill-opacity="0.46"/>
<circle cx="389.8" cy="176.1" r="1.45" fill="#f97316" fill-opacity="0.46"/>
<circle cx="392.8" cy="176.4" r="1.45" fill="#f97316" fill-opacity="0.46"/>
<line x1="402.0" y1="140.2" x2="402.0" y2="189.5" stroke="#f97316" stroke-opacity="0.82" stroke-width="1.8"/>
<line x1="389.8" y1="140.2" x2="414.2" y2="140.2" stroke="#f97316" stroke-opacity="0.82" stroke-width="1.8"/>
<line x1="389.8" y1="189.5" x2="414.2" y2="189.5" stroke="#f97316" stroke-opacity="0.82" stroke-width="1.8"/>
<rect x="385.0" y="150.0" width="34.0" height="31.2" rx="2" fill="#f97316" fill-opacity="0.18" stroke="#f97316" stroke-opacity="0.82" stroke-width="1.8"/>
<line x1="385.0" y1="165.8" x2="419.0" y2="165.8" stroke="#f97316" stroke-opacity="0.82" stroke-width="2.6"/>
<text x="425.0" y="169.8" text-anchor="start" font-family="Inter,Segoe UI,Arial,sans-serif" font-size="11" font-weight="700" fill="#111827" stroke="#ffffff" stroke-width="3" paint-order="stroke">702</text>
<circle cx="651.8" cy="189.5" r="1.45" fill="#eab308" fill-opacity="0.46"/>
<circle cx="654.8" cy="158.1" r="1.45" fill="#eab308" fill-opacity="0.46"/>
<circle cx="657.9" cy="154.5" r="1.45" fill="#eab308" fill-opacity="0.46"/>
<circle cx="660.9" cy="194.9" r="1.45" fill="#eab308" fill-opacity="0.46"/>
<circle cx="664.0" cy="148.5" r="1.45" fill="#eab308" fill-opacity="0.46"/>
<circle cx="667.1" cy="142.6" r="1.45" fill="#eab308" fill-opacity="0.46"/>
<circle cx="670.1" cy="150.5" r="1.45" fill="#eab308" fill-opacity="0.46"/>
<circle cx="673.2" cy="169.8" r="1.45" fill="#eab308" fill-opacity="0.46"/>
<circle cx="676.2" cy="188.6" r="1.45" fill="#eab308" fill-opacity="0.46"/>
<circle cx="651.8" cy="175.4" r="1.45" fill="#eab308" fill-opacity="0.46"/>
<circle cx="654.8" cy="176.1" r="1.45" fill="#eab308" fill-opacity="0.46"/>
<line x1="664.0" y1="142.6" x2="664.0" y2="194.9" stroke="#eab308" stroke-opacity="0.82" stroke-width="1.8"/>
<line x1="651.8" y1="142.6" x2="676.2" y2="142.6" stroke="#eab308" stroke-opacity="0.82" stroke-width="1.8"/>
<line x1="651.8" y1="194.9" x2="676.2" y2="194.9" stroke="#eab308" stroke-opacity="0.82" stroke-width="1.8"/>
<rect x="647.0" y="152.5" width="34.0" height="29.9" rx="2" fill="#eab308" fill-opacity="0.18" stroke="#eab308" stroke-opacity="0.82" stroke-width="1.8"/>
<line x1="647.0" y1="169.8" x2="681.0" y2="169.8" stroke="#eab308" stroke-opacity="0.82" stroke-width="2.6"/>
<text x="687.0" y="173.8" text-anchor="start" font-family="Inter,Segoe UI,Arial,sans-serif" font-size="11" font-weight="700" fill="#111827" stroke="#ffffff" stroke-width="3" paint-order="stroke">687</text>
<rect x="64" y="433" width="10" height="10" rx="2" fill="#14532d" fill-opacity="0.86"/>
<text x="78" y="442" font-family="Inter,Segoe UI,Arial,sans-serif" font-size="10" fill="#374151">MTPLX 0.3.7</text>
<rect x="289.33333333333337" y="433" width="10" height="10" rx="2" fill="#f97316" fill-opacity="0.86"/>
<text x="303.33333333333337" y="442" font-family="Inter,Segoe UI,Arial,sans-serif" font-size="10" fill="#374151">AX Engine v5.2.2</text>
<rect x="514.6666666666667" y="433" width="10" height="10" rx="2" fill="#eab308" fill-opacity="0.86"/>
<text x="528.6666666666667" y="442" font-family="Inter,Segoe UI,Arial,sans-serif" font-size="10" fill="#374151">AX+ngram v5.2.2</text>
</svg>
