<svg xmlns="http://www.w3.org/2000/svg" width="800" height="430" viewBox="0 0 800 430" role="img" aria-labelledby="title desc"><title>Gemma 4 — Decode rate</title><desc>Grouped box-and-whisker plot comparing llama.cpp b9910, mlx-lm 0.31.3, AX Engine v6.9.0 at 128/512/2048 prompt tokens for Gemma 4 models. The x-axis is grouped by prompt-token count, with engines nested inside each group. Within each prompt-token group, the best median value label is red.</desc><rect width="800" height="430" fill="#f8fafc"/><text x="64" y="24" font-family="Inter,Segoe UI,Arial,sans-serif" font-size="16" font-weight="700" fill="#111827">Gemma 4 — Decode rate</text><text x="64" y="46" font-family="Inter,Segoe UI,Arial,sans-serif" font-size="11" fill="#4b5563">AX v6.9.0 snapshot vs retained peer rows | cross-run distribution; use the exact table for per-model values.</text><text x="64" y="62" font-family="Inter,Segoe UI,Arial,sans-serif" font-size="10" fill="#6b7280">AX Engine v6.9.0 snapshot (2026-07-14) · retained mlx-lm 0.31.3 · retained llama.cpp b9910 · cross-run distribution</text><rect x="707" y="13" width="59" height="22" rx="11" fill="#eef2ff" stroke="#c7d2fe"/><text x="736.5" y="28" text-anchor="middle" font-family="Inter,Segoe UI,Arial,sans-serif" font-size="10" font-weight="700" fill="#3730a3">tok/s</text><text x="766" y="52" text-anchor="end" font-family="Inter,Segoe UI,Arial,sans-serif" font-size="10" font-weight="700" fill="#dc2626">Higher is better</text><rect x="64" y="86" width="576" height="230" rx="6" fill="#ffffff" stroke="#dbe3ef"/><line x1="64" y1="316.0" x2="640" y2="316.0" stroke="#e5e7eb" stroke-width="1"/><text x="56" y="319.0" text-anchor="end" font-family="Inter,Segoe UI,Arial,sans-serif" font-size="11" fill="#6b7280">0</text><line x1="64" y1="258.5" x2="640" y2="258.5" stroke="#e5e7eb" stroke-width="1"/><text x="56" y="261.5" text-anchor="end" font-family="Inter,Segoe UI,Arial,sans-serif" font-size="11" fill="#6b7280">62.5</text><line x1="64" y1="201.0" x2="640" y2="201.0" stroke="#e5e7eb" stroke-width="1"/><text x="56" y="204.0" text-anchor="end" font-family="Inter,Segoe UI,Arial,sans-serif" font-size="11" fill="#6b7280">125</text><line x1="64" y1="143.5" x2="640" y2="143.5" stroke="#e5e7eb" stroke-width="1"/><text x="56" y="146.5" text-anchor="end" font-family="Inter,Segoe UI,Arial,sans-serif" font-size="11" fill="#6b7280">187.5</text><line x1="64" y1="86.0" x2="640" y2="86.0" stroke="#e5e7eb" stroke-width="1"/><text x="56" y="89.0" text-anchor="end" font-family="Inter,Segoe UI,Arial,sans-serif" font-size="11" fill="#6b7280">250</text><line x1="106" y1="167.9" x2="106" y2="297.8" stroke="#f97316" stroke-opacity="0.9" stroke-width="1.7"/><line x1="99.52" y1="167.9" x2="112.48" y2="167.9" stroke="#f97316" stroke-opacity="0.9" stroke-width="1.7"/><line x1="99.52" y1="297.8" x2="112.48" y2="297.8" stroke="#f97316" stroke-opacity="0.9" stroke-width="1.7"/><rect x="97" y="202.3" width="18" height="61.0" rx="2" fill="#f97316" fill-opacity="0.26" stroke="#f97316" stroke-opacity="0.9" stroke-width="1.7"/><line x1="97" y1="229.2" x2="115" y2="229.2" stroke="#f97316" stroke-opacity="0.9" stroke-width="2.4"/><text x="119" y="232.7" text-anchor="start" font-family="Inter,Segoe UI,Arial,sans-serif" font-size="9" font-weight="700" fill="#111827" stroke="#ffffff" stroke-width="3" paint-order="stroke">94.3</text><circle cx="103" cy="167.9" r="1.4" fill="#c2410c" fill-opacity="0.82"/><circle cx="104.5" cy="184.7" r="1.4" fill="#c2410c" fill-opacity="0.82"/><circle cx="106" cy="219.9" r="1.4" fill="#c2410c" fill-opacity="0.82"/><circle cx="107.5" cy="229.2" r="1.4" fill="#c2410c" fill-opacity="0.82"/><circle cx="109" cy="234.5" r="1.4" fill="#c2410c" fill-opacity="0.82"/><circle cx="103" cy="292.2" r="1.4" fill="#c2410c" fill-opacity="0.82"/><circle cx="104.5" cy="297.8" r="1.4" fill="#c2410c" fill-opacity="0.82"/><line x1="160" y1="119.2" x2="160" y2="298.1" stroke="#f2b705" stroke-opacity="0.9" stroke-width="1.7"/><line x1="153.52" y1="119.2" x2="166.48" y2="119.2" stroke="#f2b705" stroke-opacity="0.9" stroke-width="1.7"/><line x1="153.52" y1="298.1" x2="166.48" y2="298.1" stroke="#f2b705" stroke-opacity="0.9" stroke-width="1.7"/><rect x="151" y="173.8" width="18" height="80.9" rx="2" fill="#f2b705" fill-opacity="0.26" stroke="#f2b705" stroke-opacity="0.9" stroke-width="1.7"/><line x1="151" y1="198.3" x2="169" y2="198.3" stroke="#f2b705" stroke-opacity="0.9" stroke-width="2.4"/><text x="173" y="201.8" text-anchor="start" font-family="Inter,Segoe UI,Arial,sans-serif" font-size="9" font-weight="700" fill="#111827" stroke="#ffffff" stroke-width="3" paint-order="stroke">127.9</text><circle cx="157" cy="119.2" r="1.4" fill="#9a6a00" fill-opacity="0.82"/><circle cx="158.5" cy="157.6" r="1.4" fill="#9a6a00" fill-opacity="0.82"/><circle cx="160" cy="189.9" r="1.4" fill="#9a6a00" fill-opacity="0.82"/><circle cx="161.5" cy="198.3" r="1.4" fill="#9a6a00" fill-opacity="0.82"/><circle cx="163" cy="289.4" r="1.4" fill="#9a6a00" fill-opacity="0.82"/><circle cx="157" cy="219.9" r="1.4" fill="#9a6a00" fill-opacity="0.82"/><circle cx="158.5" cy="298.1" r="1.4" fill="#9a6a00" fill-opacity="0.82"/><line x1="214" y1="102.7" x2="214" y2="297.3" stroke="#2eaf5f" stroke-opacity="0.9" stroke-width="1.7"/><line x1="207.52" y1="102.7" x2="220.48" y2="102.7" stroke="#2eaf5f" stroke-opacity="0.9" stroke-width="1.7"/><line x1="207.52" y1="297.3" x2="220.48" y2="297.3" stroke="#2eaf5f" stroke-opacity="0.9" stroke-width="1.7"/><rect x="205" y="162.7" width="18" height="87.7" rx="2" fill="#2eaf5f" fill-opacity="0.26" stroke="#2eaf5f" stroke-opacity="0.9" stroke-width="1.7"/><line x1="205" y1="182.4" x2="223" y2="182.4" stroke="#2eaf5f" stroke-opacity="0.9" stroke-width="2.4"/><text x="227" y="185.9" text-anchor="start" font-family="Inter,Segoe UI,Arial,sans-serif" font-size="9" font-weight="700" fill="#dc2626" stroke="#ffffff" stroke-width="3" paint-order="stroke">145.2</text><circle cx="211" cy="102.7" r="1.4" fill="#176c37" fill-opacity="0.82"/><circle cx="212.5" cy="143.2" r="1.4" fill="#176c37" fill-opacity="0.82"/><circle cx="214" cy="182.4" r="1.4" fill="#176c37" fill-opacity="0.82"/><circle cx="215.5" cy="182.2" r="1.4" fill="#176c37" fill-opacity="0.82"/><circle cx="217" cy="211.7" r="1.4" fill="#176c37" fill-opacity="0.82"/><circle cx="211" cy="289.1" r="1.4" fill="#176c37" fill-opacity="0.82"/><circle cx="212.5" cy="297.3" r="1.4" fill="#176c37" fill-opacity="0.82"/><text x="160" y="336" text-anchor="middle" font-family="Inter,Segoe UI,Arial,sans-serif" font-size="11" font-weight="700" fill="#111827">128 tok</text><line x1="298" y1="167.4" x2="298" y2="298.0" stroke="#f97316" stroke-opacity="0.9" stroke-width="1.7"/><line x1="291.52" y1="167.4" x2="304.48" y2="167.4" stroke="#f97316" stroke-opacity="0.9" stroke-width="1.7"/><line x1="291.52" y1="298.0" x2="304.48" y2="298.0" stroke="#f97316" stroke-opacity="0.9" stroke-width="1.7"/><rect x="289" y="203.5" width="18" height="60.0" rx="2" fill="#f97316" fill-opacity="0.26" stroke="#f97316" stroke-opacity="0.9" stroke-width="1.7"/><line x1="289" y1="230.3" x2="307" y2="230.3" stroke="#f97316" stroke-opacity="0.9" stroke-width="2.4"/><text x="311" y="233.8" text-anchor="start" font-family="Inter,Segoe UI,Arial,sans-serif" font-size="9" font-weight="700" fill="#111827" stroke="#ffffff" stroke-width="3" paint-order="stroke">93.2</text><circle cx="295" cy="167.4" r="1.4" fill="#c2410c" fill-opacity="0.82"/><circle cx="296.5" cy="186.1" r="1.4" fill="#c2410c" fill-opacity="0.82"/><circle cx="298" cy="220.9" r="1.4" fill="#c2410c" fill-opacity="0.82"/><circle cx="299.5" cy="230.3" r="1.4" fill="#c2410c" fill-opacity="0.82"/><circle cx="301" cy="235.0" r="1.4" fill="#c2410c" fill-opacity="0.82"/><circle cx="295" cy="292.0" r="1.4" fill="#c2410c" fill-opacity="0.82"/><circle cx="296.5" cy="298.0" r="1.4" fill="#c2410c" fill-opacity="0.82"/><line x1="352" y1="122.6" x2="352" y2="298.4" stroke="#f2b705" stroke-opacity="0.9" stroke-width="1.7"/><line x1="345.52" y1="122.6" x2="358.48" y2="122.6" stroke="#f2b705" stroke-opacity="0.9" stroke-width="1.7"/><line x1="345.52" y1="298.4" x2="358.48" y2="298.4" stroke="#f2b705" stroke-opacity="0.9" stroke-width="1.7"/><rect x="343" y="178.0" width="18" height="78.4" rx="2" fill="#f2b705" fill-opacity="0.26" stroke="#f2b705" stroke-opacity="0.9" stroke-width="1.7"/><line x1="343" y1="201.0" x2="361" y2="201.0" stroke="#f2b705" stroke-opacity="0.9" stroke-width="2.4"/><text x="365" y="204.5" text-anchor="start" font-family="Inter,Segoe UI,Arial,sans-serif" font-size="9" font-weight="700" fill="#111827" stroke="#ffffff" stroke-width="3" paint-order="stroke">125.0</text><circle cx="349" cy="122.6" r="1.4" fill="#9a6a00" fill-opacity="0.82"/><circle cx="350.5" cy="163.0" r="1.4" fill="#9a6a00" fill-opacity="0.82"/><circle cx="352" cy="193.1" r="1.4" fill="#9a6a00" fill-opacity="0.82"/><circle cx="353.5" cy="201.0" r="1.4" fill="#9a6a00" fill-opacity="0.82"/><circle cx="355" cy="290.0" r="1.4" fill="#9a6a00" fill-opacity="0.82"/><circle cx="349" cy="222.9" r="1.4" fill="#9a6a00" fill-opacity="0.82"/><circle cx="350.5" cy="298.4" r="1.4" fill="#9a6a00" fill-opacity="0.82"/><line x1="406" y1="106.6" x2="406" y2="297.6" stroke="#2eaf5f" stroke-opacity="0.9" stroke-width="1.7"/><line x1="399.52" y1="106.6" x2="412.48" y2="106.6" stroke="#2eaf5f" stroke-opacity="0.9" stroke-width="1.7"/><line x1="399.52" y1="297.6" x2="412.48" y2="297.6" stroke="#2eaf5f" stroke-opacity="0.9" stroke-width="1.7"/><rect x="397" y="167.2" width="18" height="84.6" rx="2" fill="#2eaf5f" fill-opacity="0.26" stroke="#2eaf5f" stroke-opacity="0.9" stroke-width="1.7"/><line x1="397" y1="185.9" x2="415" y2="185.9" stroke="#2eaf5f" stroke-opacity="0.9" stroke-width="2.4"/><text x="419" y="189.4" text-anchor="start" font-family="Inter,Segoe UI,Arial,sans-serif" font-size="9" font-weight="700" fill="#dc2626" stroke="#ffffff" stroke-width="3" paint-order="stroke">141.4</text><circle cx="403" cy="106.6" r="1.4" fill="#176c37" fill-opacity="0.82"/><circle cx="404.5" cy="149.2" r="1.4" fill="#176c37" fill-opacity="0.82"/><circle cx="406" cy="185.2" r="1.4" fill="#176c37" fill-opacity="0.82"/><circle cx="407.5" cy="185.9" r="1.4" fill="#176c37" fill-opacity="0.82"/><circle cx="409" cy="214.0" r="1.4" fill="#176c37" fill-opacity="0.82"/><circle cx="403" cy="289.6" r="1.4" fill="#176c37" fill-opacity="0.82"/><circle cx="404.5" cy="297.6" r="1.4" fill="#176c37" fill-opacity="0.82"/><text x="352" y="336" text-anchor="middle" font-family="Inter,Segoe UI,Arial,sans-serif" font-size="11" font-weight="700" fill="#111827">512 tok</text><line x1="490" y1="172.3" x2="490" y2="298.4" stroke="#f97316" stroke-opacity="0.9" stroke-width="1.7"/><line x1="483.52" y1="172.3" x2="496.48" y2="172.3" stroke="#f97316" stroke-opacity="0.9" stroke-width="1.7"/><line x1="483.52" y1="298.4" x2="496.48" y2="298.4" stroke="#f97316" stroke-opacity="0.9" stroke-width="1.7"/><rect x="481" y="206.1" width="18" height="58.9" rx="2" fill="#f97316" fill-opacity="0.26" stroke="#f97316" stroke-opacity="0.9" stroke-width="1.7"/><line x1="481" y1="233.9" x2="499" y2="233.9" stroke="#f97316" stroke-opacity="0.9" stroke-width="2.4"/><text x="503" y="237.4" text-anchor="start" font-family="Inter,Segoe UI,Arial,sans-serif" font-size="9" font-weight="700" fill="#111827" stroke="#ffffff" stroke-width="3" paint-order="stroke">89.2</text><circle cx="487" cy="172.3" r="1.4" fill="#c2410c" fill-opacity="0.82"/><circle cx="488.5" cy="189.7" r="1.4" fill="#c2410c" fill-opacity="0.82"/><circle cx="490" cy="222.5" r="1.4" fill="#c2410c" fill-opacity="0.82"/><circle cx="491.5" cy="233.9" r="1.4" fill="#c2410c" fill-opacity="0.82"/><circle cx="493" cy="236.9" r="1.4" fill="#c2410c" fill-opacity="0.82"/><circle cx="487" cy="293.2" r="1.4" fill="#c2410c" fill-opacity="0.82"/><circle cx="488.5" cy="298.4" r="1.4" fill="#c2410c" fill-opacity="0.82"/><line x1="544" y1="131.2" x2="544" y2="299.0" stroke="#f2b705" stroke-opacity="0.9" stroke-width="1.7"/><line x1="537.52" y1="131.2" x2="550.48" y2="131.2" stroke="#f2b705" stroke-opacity="0.9" stroke-width="1.7"/><line x1="537.52" y1="299.0" x2="550.48" y2="299.0" stroke="#f2b705" stroke-opacity="0.9" stroke-width="1.7"/><rect x="535" y="181.2" width="18" height="77.8" rx="2" fill="#f2b705" fill-opacity="0.26" stroke="#f2b705" stroke-opacity="0.9" stroke-width="1.7"/><line x1="535" y1="206.2" x2="553" y2="206.2" stroke="#f2b705" stroke-opacity="0.9" stroke-width="2.4"/><text x="557" y="209.7" text-anchor="start" font-family="Inter,Segoe UI,Arial,sans-serif" font-size="9" font-weight="700" fill="#111827" stroke="#ffffff" stroke-width="3" paint-order="stroke">119.3</text><circle cx="541" cy="131.2" r="1.4" fill="#9a6a00" fill-opacity="0.82"/><circle cx="542.5" cy="166.5" r="1.4" fill="#9a6a00" fill-opacity="0.82"/><circle cx="544" cy="195.9" r="1.4" fill="#9a6a00" fill-opacity="0.82"/><circle cx="545.5" cy="206.2" r="1.4" fill="#9a6a00" fill-opacity="0.82"/><circle cx="547" cy="291.1" r="1.4" fill="#9a6a00" fill-opacity="0.82"/><circle cx="541" cy="227.0" r="1.4" fill="#9a6a00" fill-opacity="0.82"/><circle cx="542.5" cy="299.0" r="1.4" fill="#9a6a00" fill-opacity="0.82"/><line x1="598" y1="116.4" x2="598" y2="298.6" stroke="#2eaf5f" stroke-opacity="0.9" stroke-width="1.7"/><line x1="591.52" y1="116.4" x2="604.48" y2="116.4" stroke="#2eaf5f" stroke-opacity="0.9" stroke-width="1.7"/><line x1="591.52" y1="298.6" x2="604.48" y2="298.6" stroke="#2eaf5f" stroke-opacity="0.9" stroke-width="1.7"/><rect x="589" y="171.9" width="18" height="82.2" rx="2" fill="#2eaf5f" fill-opacity="0.26" stroke="#2eaf5f" stroke-opacity="0.9" stroke-width="1.7"/><line x1="589" y1="191.6" x2="607" y2="191.6" stroke="#2eaf5f" stroke-opacity="0.9" stroke-width="2.4"/><text x="611" y="195.1" text-anchor="start" font-family="Inter,Segoe UI,Arial,sans-serif" font-size="9" font-weight="700" fill="#dc2626" stroke="#ffffff" stroke-width="3" paint-order="stroke">135.2</text><circle cx="595" cy="116.4" r="1.4" fill="#176c37" fill-opacity="0.82"/><circle cx="596.5" cy="155.4" r="1.4" fill="#176c37" fill-opacity="0.82"/><circle cx="598" cy="188.3" r="1.4" fill="#176c37" fill-opacity="0.82"/><circle cx="599.5" cy="191.6" r="1.4" fill="#176c37" fill-opacity="0.82"/><circle cx="601" cy="217.5" r="1.4" fill="#176c37" fill-opacity="0.82"/><circle cx="595" cy="290.7" r="1.4" fill="#176c37" fill-opacity="0.82"/><circle cx="596.5" cy="298.6" r="1.4" fill="#176c37" fill-opacity="0.82"/><text x="544" y="336" text-anchor="middle" font-family="Inter,Segoe UI,Arial,sans-serif" font-size="11" font-weight="700" fill="#111827">2048 tok</text><rect x="64" y="363" width="10" height="10" rx="2" fill="#f97316" fill-opacity="0.5" stroke="#f97316" stroke-width="1.4"/><text x="78" y="372" font-family="Inter,Segoe UI,Arial,sans-serif" font-size="10" fill="#374151">llama.cpp b9910</text><rect x="234" y="363" width="10" height="10" rx="2" fill="#f2b705" fill-opacity="0.5" stroke="#f2b705" stroke-width="1.4"/><text x="248" y="372" font-family="Inter,Segoe UI,Arial,sans-serif" font-size="10" fill="#374151">mlx-lm 0.31.3</text><rect x="404" y="363" width="10" height="10" rx="2" fill="#2eaf5f" fill-opacity="0.5" stroke="#2eaf5f" stroke-width="1.4"/><text x="418" y="372" font-family="Inter,Segoe UI,Arial,sans-serif" font-size="10" fill="#374151">AX Engine v6.9.0</text></svg>
