<svg xmlns="http://www.w3.org/2000/svg" width="800" height="430" viewBox="0 0 800 430" role="img" aria-labelledby="title desc"><title>Qwen 3.6 — TTFT</title><desc>Grouped box-and-whisker plot comparing llama.cpp b9430, mlx-lm 0.31.3, AX Engine v5.1.8 at 128/512/2048 prompt tokens for Qwen 3.6 models. A red dotted line marks the lowest median.</desc><rect width="800" height="430" fill="#f8fafc"/><text x="64" y="24" font-family="Inter,Segoe UI,Arial,sans-serif" font-size="16" font-weight="700" fill="#111827">Qwen 3.6 — TTFT</text><text x="64" y="46" font-family="Inter,Segoe UI,Arial,sans-serif" font-size="11" fill="#4b5563">box=IQR | whiskers=min/max | dots=runs | opacity: 128/512/2048 tok</text><text x="64" y="62" font-family="Inter,Segoe UI,Arial,sans-serif" font-size="10" fill="#6b7280">llama.cpp b9430 · mlx-lm 0.31.3 · AX Engine v5.1.8</text><rect x="718" y="13" width="48" height="22" rx="11" fill="#eef2ff" stroke="#c7d2fe"/><text x="742.0" y="28" text-anchor="middle" font-family="Inter,Segoe UI,Arial,sans-serif" font-size="10" font-weight="700" fill="#3730a3">ms</text><text x="766" y="52" text-anchor="end" font-family="Inter,Segoe UI,Arial,sans-serif" font-size="10" font-weight="700" fill="#dc2626">Lower is better</text><rect x="64" y="86" width="576" height="230" rx="6" fill="#ffffff" stroke="#dbe3ef"/><line x1="64" y1="316.0" x2="640" y2="316.0" stroke="#e5e7eb" stroke-width="1"/><text x="56" y="319.0" text-anchor="end" font-family="Inter,Segoe UI,Arial,sans-serif" font-size="11" fill="#6b7280">0</text><line x1="64" y1="258.5" x2="640" y2="258.5" stroke="#e5e7eb" stroke-width="1"/><text x="56" y="261.5" text-anchor="end" font-family="Inter,Segoe UI,Arial,sans-serif" font-size="11" fill="#6b7280">1k</text><line x1="64" y1="201.0" x2="640" y2="201.0" stroke="#e5e7eb" stroke-width="1"/><text x="56" y="204.0" text-anchor="end" font-family="Inter,Segoe UI,Arial,sans-serif" font-size="11" fill="#6b7280">2k</text><line x1="64" y1="143.5" x2="640" y2="143.5" stroke="#e5e7eb" stroke-width="1"/><text x="56" y="146.5" text-anchor="end" font-family="Inter,Segoe UI,Arial,sans-serif" font-size="11" fill="#6b7280">3k</text><line x1="64" y1="86.0" x2="640" y2="86.0" stroke="#e5e7eb" stroke-width="1"/><text x="56" y="89.0" text-anchor="end" font-family="Inter,Segoe UI,Arial,sans-serif" font-size="11" fill="#6b7280">4k</text><line x1="64" y1="306.9" x2="640" y2="306.9" stroke="#dc2626" stroke-width="1.2" stroke-dasharray="1 4" stroke-linecap="round"/><text x="648" y="301.9" text-anchor="start" font-family="Inter,Segoe UI,Arial,sans-serif" font-size="11" font-weight="700" fill="#dc2626" data-label="lowest median">lowest: 159.1</text><line x1="130" y1="302.1" x2="130" y2="311.8" stroke="#f97316" stroke-opacity="0.55" stroke-width="1.7"/><line x1="124.24" y1="302.1" x2="135.76" y2="302.1" stroke="#f97316" stroke-opacity="0.55" stroke-width="1.7"/><line x1="124.24" y1="311.8" x2="135.76" y2="311.8" stroke="#f97316" stroke-opacity="0.55" stroke-width="1.7"/><rect x="122" y="302.3" width="16" height="9.1" rx="2" fill="#f97316" fill-opacity="0.08" stroke="#f97316" stroke-opacity="0.55" stroke-width="1.7"/><line x1="122" y1="306.9" x2="138" y2="306.9" stroke="#f97316" stroke-opacity="0.55" stroke-width="2.4"/><text x="142" y="310.4" text-anchor="start" font-family="Inter,Segoe UI,Arial,sans-serif" font-size="9" font-weight="700" fill="#111827" stroke="#ffffff" stroke-width="3" paint-order="stroke">159.1</text><text x="130" y="331" text-anchor="middle" font-family="Inter,Segoe UI,Arial,sans-serif" font-size="9" fill="#6b7280">128</text><circle cx="127" cy="302.1" r="1.4" fill="#c2410c" fill-opacity="0.5"/><circle cx="128.5" cy="302.4" r="1.4" fill="#c2410c" fill-opacity="0.5"/><circle cx="130" cy="311.8" r="1.4" fill="#c2410c" fill-opacity="0.5"/><circle cx="131.5" cy="311.3" r="1.4" fill="#c2410c" fill-opacity="0.5"/><line x1="160" y1="261.3" x2="160" y2="306.8" stroke="#f97316" stroke-opacity="0.78" stroke-width="1.7"/><line x1="154.24" y1="261.3" x2="165.76" y2="261.3" stroke="#f97316" stroke-opacity="0.78" stroke-width="1.7"/><line x1="154.24" y1="306.8" x2="165.76" y2="306.8" stroke="#f97316" stroke-opacity="0.78" stroke-width="1.7"/><rect x="152" y="266.0" width="16" height="39.9" rx="2" fill="#f97316" fill-opacity="0.17" stroke="#f97316" stroke-opacity="0.78" stroke-width="1.7"/><line x1="152" y1="286.6" x2="168" y2="286.6" stroke="#f97316" stroke-opacity="0.78" stroke-width="2.4"/><text x="172" y="290.1" text-anchor="start" font-family="Inter,Segoe UI,Arial,sans-serif" font-size="9" font-weight="700" fill="#111827" stroke="#ffffff" stroke-width="3" paint-order="stroke">511.3</text><text x="160" y="331" text-anchor="middle" font-family="Inter,Segoe UI,Arial,sans-serif" font-size="9" fill="#6b7280">512</text><circle cx="157" cy="261.3" r="1.4" fill="#c2410c" fill-opacity="0.7"/><circle cx="158.5" cy="267.6" r="1.4" fill="#c2410c" fill-opacity="0.7"/><circle cx="160" cy="306.8" r="1.4" fill="#c2410c" fill-opacity="0.7"/><circle cx="161.5" cy="305.6" r="1.4" fill="#c2410c" fill-opacity="0.7"/><line x1="190" y1="111.8" x2="190" y2="283.1" stroke="#f97316" stroke-opacity="1.0" stroke-width="1.7"/><line x1="184.24" y1="111.8" x2="195.76" y2="111.8" stroke="#f97316" stroke-opacity="1.0" stroke-width="1.7"/><line x1="184.24" y1="283.1" x2="195.76" y2="283.1" stroke="#f97316" stroke-opacity="1.0" stroke-width="1.7"/><rect x="182" y="135.0" width="16" height="145.8" rx="2" fill="#f97316" fill-opacity="0.3" stroke="#f97316" stroke-opacity="1.0" stroke-width="1.7"/><line x1="182" y1="211.4" x2="198" y2="211.4" stroke="#f97316" stroke-opacity="1.0" stroke-width="2.4"/><text x="202" y="214.9" text-anchor="start" font-family="Inter,Segoe UI,Arial,sans-serif" font-size="9" font-weight="700" fill="#111827" stroke="#ffffff" stroke-width="3" paint-order="stroke">1.8k</text><text x="190" y="331" text-anchor="middle" font-family="Inter,Segoe UI,Arial,sans-serif" font-size="9" fill="#6b7280">2048</text><circle cx="187" cy="142.8" r="1.4" fill="#c2410c" fill-opacity="0.9"/><circle cx="188.5" cy="111.8" r="1.4" fill="#c2410c" fill-opacity="0.9"/><circle cx="190" cy="283.1" r="1.4" fill="#c2410c" fill-opacity="0.9"/><circle cx="191.5" cy="280.0" r="1.4" fill="#c2410c" fill-opacity="0.9"/><text x="160" y="348" text-anchor="middle" font-family="Inter,Segoe UI,Arial,sans-serif" font-size="10" font-weight="700" fill="#111827">llama.cpp b9430</text><line x1="322" y1="294.8" x2="322" y2="302.9" stroke="#f2b705" stroke-opacity="0.55" stroke-width="1.7"/><line x1="316.24" y1="294.8" x2="327.76" y2="294.8" stroke="#f2b705" stroke-opacity="0.55" stroke-width="1.7"/><line x1="316.24" y1="302.9" x2="327.76" y2="302.9" stroke="#f2b705" stroke-opacity="0.55" stroke-width="1.7"/><rect x="314" y="297.7" width="16" height="2.2" rx="2" fill="#f2b705" fill-opacity="0.08" stroke="#f2b705" stroke-opacity="0.55" stroke-width="1.7"/><line x1="314" y1="298.8" x2="330" y2="298.8" stroke="#f2b705" stroke-opacity="0.55" stroke-width="2.4"/><text x="334" y="302.3" text-anchor="start" font-family="Inter,Segoe UI,Arial,sans-serif" font-size="9" font-weight="700" fill="#111827" stroke="#ffffff" stroke-width="3" paint-order="stroke">299.0</text><text x="322" y="331" text-anchor="middle" font-family="Inter,Segoe UI,Arial,sans-serif" font-size="9" fill="#6b7280">128</text><circle cx="319" cy="298.7" r="1.4" fill="#9a6a00" fill-opacity="0.5"/><circle cx="320.5" cy="294.8" r="1.4" fill="#9a6a00" fill-opacity="0.5"/><circle cx="322" cy="302.9" r="1.4" fill="#9a6a00" fill-opacity="0.5"/><circle cx="323.5" cy="298.9" r="1.4" fill="#9a6a00" fill-opacity="0.5"/><line x1="352" y1="271.1" x2="352" y2="297.8" stroke="#f2b705" stroke-opacity="0.78" stroke-width="1.7"/><line x1="346.24" y1="271.1" x2="357.76" y2="271.1" stroke="#f2b705" stroke-opacity="0.78" stroke-width="1.7"/><line x1="346.24" y1="297.8" x2="357.76" y2="297.8" stroke="#f2b705" stroke-opacity="0.78" stroke-width="1.7"/><rect x="344" y="274.9" width="16" height="20.7" rx="2" fill="#f2b705" fill-opacity="0.17" stroke="#f2b705" stroke-opacity="0.78" stroke-width="1.7"/><line x1="344" y1="285.5" x2="360" y2="285.5" stroke="#f2b705" stroke-opacity="0.78" stroke-width="2.4"/><text x="364" y="289.0" text-anchor="start" font-family="Inter,Segoe UI,Arial,sans-serif" font-size="9" font-weight="700" fill="#111827" stroke="#ffffff" stroke-width="3" paint-order="stroke">530.0</text><text x="352" y="331" text-anchor="middle" font-family="Inter,Segoe UI,Arial,sans-serif" font-size="9" fill="#6b7280">512</text><circle cx="349" cy="276.2" r="1.4" fill="#9a6a00" fill-opacity="0.7"/><circle cx="350.5" cy="271.1" r="1.4" fill="#9a6a00" fill-opacity="0.7"/><circle cx="352" cy="297.8" r="1.4" fill="#9a6a00" fill-opacity="0.7"/><circle cx="353.5" cy="294.9" r="1.4" fill="#9a6a00" fill-opacity="0.7"/><line x1="382" y1="174.5" x2="382" y2="281.9" stroke="#f2b705" stroke-opacity="1.0" stroke-width="1.7"/><line x1="376.24" y1="174.5" x2="387.76" y2="174.5" stroke="#f2b705" stroke-opacity="1.0" stroke-width="1.7"/><line x1="376.24" y1="281.9" x2="387.76" y2="281.9" stroke="#f2b705" stroke-opacity="1.0" stroke-width="1.7"/><rect x="374" y="184.1" width="16" height="88.0" rx="2" fill="#f2b705" fill-opacity="0.3" stroke="#f2b705" stroke-opacity="1.0" stroke-width="1.7"/><line x1="374" y1="228.0" x2="390" y2="228.0" stroke="#f2b705" stroke-opacity="1.0" stroke-width="2.4"/><text x="394" y="231.5" text-anchor="start" font-family="Inter,Segoe UI,Arial,sans-serif" font-size="9" font-weight="700" fill="#111827" stroke="#ffffff" stroke-width="3" paint-order="stroke">1.5k</text><text x="382" y="331" text-anchor="middle" font-family="Inter,Segoe UI,Arial,sans-serif" font-size="9" fill="#6b7280">2048</text><circle cx="379" cy="187.3" r="1.4" fill="#9a6a00" fill-opacity="0.9"/><circle cx="380.5" cy="174.5" r="1.4" fill="#9a6a00" fill-opacity="0.9"/><circle cx="382" cy="281.9" r="1.4" fill="#9a6a00" fill-opacity="0.9"/><circle cx="383.5" cy="268.8" r="1.4" fill="#9a6a00" fill-opacity="0.9"/><text x="352" y="348" text-anchor="middle" font-family="Inter,Segoe UI,Arial,sans-serif" font-size="10" font-weight="700" fill="#111827">mlx-lm 0.31.3</text><line x1="514" y1="301.1" x2="514" y2="309.3" stroke="#2eaf5f" stroke-opacity="0.55" stroke-width="1.7"/><line x1="508.24" y1="301.1" x2="519.76" y2="301.1" stroke="#2eaf5f" stroke-opacity="0.55" stroke-width="1.7"/><line x1="508.24" y1="309.3" x2="519.76" y2="309.3" stroke="#2eaf5f" stroke-opacity="0.55" stroke-width="1.7"/><rect x="506" y="302.6" width="16" height="5.3" rx="2" fill="#2eaf5f" fill-opacity="0.08" stroke="#2eaf5f" stroke-opacity="0.55" stroke-width="1.7"/><line x1="506" y1="305.3" x2="522" y2="305.3" stroke="#2eaf5f" stroke-opacity="0.55" stroke-width="2.4"/><text x="526" y="308.8" text-anchor="start" font-family="Inter,Segoe UI,Arial,sans-serif" font-size="9" font-weight="700" fill="#111827" stroke="#ffffff" stroke-width="3" paint-order="stroke">186.4</text><text x="514" y="331" text-anchor="middle" font-family="Inter,Segoe UI,Arial,sans-serif" font-size="9" fill="#6b7280">128</text><circle cx="511" cy="303.1" r="1.4" fill="#176c37" fill-opacity="0.5"/><circle cx="512.5" cy="301.1" r="1.4" fill="#176c37" fill-opacity="0.5"/><circle cx="514" cy="309.3" r="1.4" fill="#176c37" fill-opacity="0.5"/><circle cx="515.5" cy="307.4" r="1.4" fill="#176c37" fill-opacity="0.5"/><line x1="544" y1="276.0" x2="544" y2="304.4" stroke="#2eaf5f" stroke-opacity="0.78" stroke-width="1.7"/><line x1="538.24" y1="276.0" x2="549.76" y2="276.0" stroke="#2eaf5f" stroke-opacity="0.78" stroke-width="1.7"/><line x1="538.24" y1="304.4" x2="549.76" y2="304.4" stroke="#2eaf5f" stroke-opacity="0.78" stroke-width="1.7"/><rect x="536" y="278.5" width="16" height="25.2" rx="2" fill="#2eaf5f" fill-opacity="0.17" stroke="#2eaf5f" stroke-opacity="0.78" stroke-width="1.7"/><line x1="536" y1="291.5" x2="552" y2="291.5" stroke="#2eaf5f" stroke-opacity="0.78" stroke-width="2.4"/><text x="556" y="295.0" text-anchor="start" font-family="Inter,Segoe UI,Arial,sans-serif" font-size="9" font-weight="700" fill="#111827" stroke="#ffffff" stroke-width="3" paint-order="stroke">426.2</text><text x="544" y="331" text-anchor="middle" font-family="Inter,Segoe UI,Arial,sans-serif" font-size="9" fill="#6b7280">512</text><circle cx="541" cy="279.4" r="1.4" fill="#176c37" fill-opacity="0.7"/><circle cx="542.5" cy="276.0" r="1.4" fill="#176c37" fill-opacity="0.7"/><circle cx="544" cy="304.4" r="1.4" fill="#176c37" fill-opacity="0.7"/><circle cx="545.5" cy="303.6" r="1.4" fill="#176c37" fill-opacity="0.7"/><line x1="574" y1="173.3" x2="574" y2="283.6" stroke="#2eaf5f" stroke-opacity="1.0" stroke-width="1.7"/><line x1="568.24" y1="173.3" x2="579.76" y2="173.3" stroke="#2eaf5f" stroke-opacity="1.0" stroke-width="1.7"/><line x1="568.24" y1="283.6" x2="579.76" y2="283.6" stroke="#2eaf5f" stroke-opacity="1.0" stroke-width="1.7"/><rect x="566" y="183.3" width="16" height="98.6" rx="2" fill="#2eaf5f" fill-opacity="0.3" stroke="#2eaf5f" stroke-opacity="1.0" stroke-width="1.7"/><line x1="566" y1="234.0" x2="582" y2="234.0" stroke="#2eaf5f" stroke-opacity="1.0" stroke-width="2.4"/><text x="586" y="237.5" text-anchor="start" font-family="Inter,Segoe UI,Arial,sans-serif" font-size="9" font-weight="700" fill="#111827" stroke="#ffffff" stroke-width="3" paint-order="stroke">1.4k</text><text x="574" y="331" text-anchor="middle" font-family="Inter,Segoe UI,Arial,sans-serif" font-size="9" fill="#6b7280">2048</text><circle cx="571" cy="186.6" r="1.4" fill="#176c37" fill-opacity="0.9"/><circle cx="572.5" cy="173.3" r="1.4" fill="#176c37" fill-opacity="0.9"/><circle cx="574" cy="283.6" r="1.4" fill="#176c37" fill-opacity="0.9"/><circle cx="575.5" cy="281.3" r="1.4" fill="#176c37" fill-opacity="0.9"/><text x="544" y="348" text-anchor="middle" font-family="Inter,Segoe UI,Arial,sans-serif" font-size="10" font-weight="700" fill="#111827">AX Engine v5.1.8</text><rect x="64" y="363" width="10" height="10" rx="2" fill="#6b7280" fill-opacity="0.08" stroke="#6b7280" stroke-opacity="0.55" stroke-width="1.4"/><text x="78" y="372" font-family="Inter,Segoe UI,Arial,sans-serif" font-size="10" fill="#374151">128 tok</text><rect x="184" y="363" width="10" height="10" rx="2" fill="#6b7280" fill-opacity="0.17" stroke="#6b7280" stroke-opacity="0.78" stroke-width="1.4"/><text x="198" y="372" font-family="Inter,Segoe UI,Arial,sans-serif" font-size="10" fill="#374151">512 tok</text><rect x="304" y="363" width="10" height="10" rx="2" fill="#6b7280" fill-opacity="0.3" stroke="#6b7280" stroke-opacity="1.0" stroke-width="1.4"/><text x="318" y="372" font-family="Inter,Segoe UI,Arial,sans-serif" font-size="10" fill="#374151">2048 tok</text></svg>
