<svg xmlns="http://www.w3.org/2000/svg" width="760" height="430" viewBox="0 0 760 430" role="img">
<rect width="100%" height="100%" fill="#ffffff"/>
<text x="24" y="30" font-family="Inter,Segoe UI,Arial,sans-serif" font-size="18" font-weight="700" fill="#111827">Qwen3.6 35B-A3B 4-bit MTP accept rate</text>
<text x="736" y="30" text-anchor="end" font-family="Inter,Segoe UI,Arial,sans-serif" font-size="11" fill="#4b5563">accepted/drafted, higher is better</text>
<line x1="60" y1="358.0" x2="732" y2="358.0" stroke="#e5e7eb" stroke-width="1"/>
<text x="52" y="361.0" text-anchor="end" font-family="Inter,Segoe UI,Arial,sans-serif" font-size="10" fill="#6b7280">0%</text>
<line x1="60" y1="261.3" x2="732" y2="261.3" stroke="#e5e7eb" stroke-width="1"/>
<text x="52" y="264.3" text-anchor="end" font-family="Inter,Segoe UI,Arial,sans-serif" font-size="10" fill="#6b7280">33%</text>
<line x1="60" y1="164.7" x2="732" y2="164.7" stroke="#e5e7eb" stroke-width="1"/>
<text x="52" y="167.7" text-anchor="end" font-family="Inter,Segoe UI,Arial,sans-serif" font-size="10" fill="#6b7280">67%</text>
<line x1="60" y1="68.0" x2="732" y2="68.0" stroke="#e5e7eb" stroke-width="1"/>
<text x="52" y="71.0" text-anchor="end" font-family="Inter,Segoe UI,Arial,sans-serif" font-size="10" fill="#6b7280">100%</text>
<text x="172.0" y="396" text-anchor="middle" font-family="Inter,Segoe UI,Arial,sans-serif" font-size="11" font-weight="700" fill="#111827">flappy</text>
<rect x="82.0" y="210.7" width="28.0" height="147.3" rx="2" fill="#a78bfa" fill-opacity="0.86"/>
<text x="96.0" y="205.7" text-anchor="middle" font-family="Inter,Segoe UI,Arial,sans-serif" font-size="10" font-weight="700" fill="#111827">50.8%</text>
<rect x="120.0" y="70.9" width="28.0" height="287.1" rx="2" fill="#60a5fa" fill-opacity="0.86"/>
<text x="134.0" y="78.0" text-anchor="middle" font-family="Inter,Segoe UI,Arial,sans-serif" font-size="10" font-weight="700" fill="#111827">99.0%</text>
<rect x="158.0" y="94.0" width="28.0" height="264.0" rx="2" fill="#1d4ed8" fill-opacity="0.86"/>
<text x="172.0" y="89.0" text-anchor="middle" font-family="Inter,Segoe UI,Arial,sans-serif" font-size="10" font-weight="700" fill="#111827">91.0%</text>
<rect x="196.0" y="68.3" width="28.0" height="289.7" rx="2" fill="#86efac" fill-opacity="0.86"/>
<text x="210.0" y="78.0" text-anchor="middle" font-family="Inter,Segoe UI,Arial,sans-serif" font-size="10" font-weight="700" fill="#111827">99.9%</text>
<rect x="234.0" y="103.1" width="28.0" height="254.9" rx="2" fill="#15803d" fill-opacity="0.86"/>
<text x="248.0" y="98.1" text-anchor="middle" font-family="Inter,Segoe UI,Arial,sans-serif" font-size="10" font-weight="700" fill="#111827">87.9%</text>
<text x="396.0" y="396" text-anchor="middle" font-family="Inter,Segoe UI,Arial,sans-serif" font-size="11" font-weight="700" fill="#111827">long_code</text>
<rect x="306.0" y="211.5" width="28.0" height="146.5" rx="2" fill="#a78bfa" fill-opacity="0.86"/>
<text x="320.0" y="206.5" text-anchor="middle" font-family="Inter,Segoe UI,Arial,sans-serif" font-size="10" font-weight="700" fill="#111827">50.5%</text>
<rect x="344.0" y="72.3" width="28.0" height="285.7" rx="2" fill="#60a5fa" fill-opacity="0.86"/>
<text x="358.0" y="78.0" text-anchor="middle" font-family="Inter,Segoe UI,Arial,sans-serif" font-size="10" font-weight="700" fill="#111827">98.5%</text>
<rect x="382.0" y="90.8" width="28.0" height="267.2" rx="2" fill="#1d4ed8" fill-opacity="0.86"/>
<text x="396.0" y="85.8" text-anchor="middle" font-family="Inter,Segoe UI,Arial,sans-serif" font-size="10" font-weight="700" fill="#111827">92.1%</text>
<rect x="420.0" y="68.6" width="28.0" height="289.4" rx="2" fill="#86efac" fill-opacity="0.86"/>
<text x="434.0" y="78.0" text-anchor="middle" font-family="Inter,Segoe UI,Arial,sans-serif" font-size="10" font-weight="700" fill="#111827">99.8%</text>
<rect x="458.0" y="91.7" width="28.0" height="266.3" rx="2" fill="#15803d" fill-opacity="0.86"/>
<text x="472.0" y="86.7" text-anchor="middle" font-family="Inter,Segoe UI,Arial,sans-serif" font-size="10" font-weight="700" fill="#111827">91.8%</text>
<text x="620.0" y="396" text-anchor="middle" font-family="Inter,Segoe UI,Arial,sans-serif" font-size="11" font-weight="700" fill="#111827">python_modules_long</text>
<rect x="530.0" y="234.5" width="28.0" height="123.5" rx="2" fill="#a78bfa" fill-opacity="0.86"/>
<text x="544.0" y="229.5" text-anchor="middle" font-family="Inter,Segoe UI,Arial,sans-serif" font-size="10" font-weight="700" fill="#111827">42.6%</text>
<rect x="568.0" y="76.1" width="28.0" height="281.9" rx="2" fill="#60a5fa" fill-opacity="0.86"/>
<text x="582.0" y="78.0" text-anchor="middle" font-family="Inter,Segoe UI,Arial,sans-serif" font-size="10" font-weight="700" fill="#111827">97.2%</text>
<rect x="606.0" y="91.8" width="28.0" height="266.2" rx="2" fill="#1d4ed8" fill-opacity="0.86"/>
<text x="620.0" y="86.8" text-anchor="middle" font-family="Inter,Segoe UI,Arial,sans-serif" font-size="10" font-weight="700" fill="#111827">91.8%</text>
<rect x="644.0" y="88.8" width="28.0" height="269.2" rx="2" fill="#86efac" fill-opacity="0.86"/>
<text x="658.0" y="83.8" text-anchor="middle" font-family="Inter,Segoe UI,Arial,sans-serif" font-size="10" font-weight="700" fill="#111827">92.8%</text>
<rect x="682.0" y="117.2" width="28.0" height="240.8" rx="2" fill="#15803d" fill-opacity="0.86"/>
<text x="696.0" y="112.2" text-anchor="middle" font-family="Inter,Segoe UI,Arial,sans-serif" font-size="10" font-weight="700" fill="#111827">83.0%</text>
<rect x="60" y="407" width="10" height="10" rx="2" fill="#a78bfa" fill-opacity="0.86"/>
<text x="74" y="416" font-family="Inter,Segoe UI,Arial,sans-serif" font-size="10" fill="#374151">MTPLX 0.3.7</text>
<rect x="190" y="407" width="10" height="10" rx="2" fill="#60a5fa" fill-opacity="0.86"/>
<text x="204" y="416" font-family="Inter,Segoe UI,Arial,sans-serif" font-size="10" fill="#374151">Light. MTP</text>
<rect x="320" y="407" width="10" height="10" rx="2" fill="#1d4ed8" fill-opacity="0.86"/>
<text x="334" y="416" font-family="Inter,Segoe UI,Arial,sans-serif" font-size="10" fill="#374151">Light. ngram+MTP</text>
<rect x="450" y="407" width="10" height="10" rx="2" fill="#86efac" fill-opacity="0.86"/>
<text x="464" y="416" font-family="Inter,Segoe UI,Arial,sans-serif" font-size="10" fill="#374151">AX MTP</text>
<rect x="580" y="407" width="10" height="10" rx="2" fill="#15803d" fill-opacity="0.86"/>
<text x="594" y="416" font-family="Inter,Segoe UI,Arial,sans-serif" font-size="10" fill="#374151">AX MTP+n-gram</text>
</svg>
